<svg width="48" height="48" viewBox="0 0 48 48" fill="none" xmlns="http://www.w3.org/2000/svg">
<path fill-rule="evenodd" clip-rule="evenodd" d="M24 44C35.0457 44 44 35.0457 44 24C44 12.9543 35.0457 4 24 4C12.9543 4 4 12.9543 4 24C4 35.0457 12.9543 44 24 44ZM26 16.2222C26 15.1177 25.1046 14.2222 24 14.2222C22.8954 14.2222 22 15.1177 22 16.2222V22H16.2222C15.1177 22 14.2222 22.8954 14.2222 24C14.2222 25.1046 15.1177 26 16.2222 26H22V32.2222C22 33.3268 22.8954 34.2222 24 34.2222C25.1046 34.2222 26 33.3268 26 32.2222V26H32.2222C33.3268 26 34.2222 25.1046 34.2222 24C34.2222 22.8954 33.3268 22 32.2222 22H26V16.2222Z" fill="#646464"/>
</svg>
