<svg width="48" height="48" viewBox="0 0 48 48" fill="none" xmlns="http://www.w3.org/2000/svg">
<path fill-rule="evenodd" clip-rule="evenodd" d="M24 8C15.1634 8 8 15.1634 8 24C8 32.8366 15.1634 40 24 40C32.8366 40 40 32.8366 40 24C40 15.1634 32.8366 8 24 8ZM4 24C4 12.9543 12.9543 4 24 4C35.0457 4 44 12.9543 44 24C44 35.0457 35.0457 44 24 44C12.9543 44 4 35.0457 4 24ZM24 14.2222C25.1046 14.2222 26 15.1177 26 16.2222V22H32.2222C33.3268 22 34.2222 22.8954 34.2222 24C34.2222 25.1046 33.3268 26 32.2222 26H26V32.2222C26 33.3268 25.1046 34.2222 24 34.2222C22.8954 34.2222 22 33.3268 22 32.2222V26H16.2222C15.1177 26 14.2222 25.1046 14.2222 24C14.2222 22.8954 15.1177 22 16.2222 22H22V16.2222C22 15.1177 22.8954 14.2222 24 14.2222Z" fill="#646464"/>
</svg>
