<svg width="48" height="48" viewBox="0 0 48 48" fill="none" xmlns="http://www.w3.org/2000/svg">
<path d="M22.5802 31.78L42.5802 11.78C43.3602 11 43.3602 9.74001 42.5602 8.96001C42.3752 8.77461 42.1554 8.62751 41.9135 8.52715C41.6715 8.42678 41.4122 8.37512 41.1502 8.37512C40.8883 8.37512 40.6289 8.42678 40.387 8.52715C40.1451 8.62751 39.9253 8.77461 39.7402 8.96001L21.1602 27.54L16.9202 23.3C16.7351 23.1148 16.5153 22.968 16.2733 22.8678C16.0314 22.7675 15.7721 22.716 15.5102 22.716C15.2484 22.716 14.9891 22.7675 14.7472 22.8678C14.5052 22.968 14.2854 23.1148 14.1002 23.3C13.9151 23.4852 13.7682 23.705 13.668 23.9469C13.5678 24.1889 13.5162 24.4482 13.5162 24.71C13.5162 24.9719 13.5678 25.2312 13.668 25.4731C13.7682 25.715 13.9151 25.9349 14.1002 26.12L19.7602 31.78C19.9453 31.9654 20.1651 32.1125 20.407 32.2129C20.6489 32.3132 20.9083 32.3649 21.1702 32.3649C21.4322 32.3649 21.6915 32.3132 21.9335 32.2129C22.1754 32.1125 22.3952 31.9654 22.5802 31.78Z" fill="#646464"/>
<path d="M8.10025 22.2C7.04025 31.82 14.5802 40 24.0002 40C25.9002 40 27.7402 39.66 29.4402 39.04C29.7944 38.908 30.1792 38.8811 30.5482 38.9628C30.9172 39.0444 31.2548 39.231 31.5202 39.5C32.5602 40.54 32.1802 42.3 30.8202 42.8C28.6802 43.58 26.4002 44 24.0002 44C12.6002 44 3.44025 34.48 4.02025 22.94C4.54025 12.68 13.0802 4.32001 23.3602 4.00001C26.9002 3.90001 30.2202 4.72001 33.1602 6.22001C33.6323 6.46666 33.9871 6.89075 34.1465 7.39897C34.3059 7.9072 34.2569 8.45793 34.0102 8.93001C33.7636 9.4021 33.3395 9.75687 32.8313 9.91627C32.3231 10.0757 31.7723 10.0267 31.3002 9.78001C28.3802 8.26001 24.9402 7.62001 21.3202 8.22001C14.3402 9.38001 8.88025 15.16 8.10025 22.2Z" fill="#646464"/>
<path d="M36.1958 30.0707H32.0705C30.936 30.0707 30.0078 30.9707 30.0078 32.0707C30.0078 33.1707 30.936 34.0707 32.0705 34.0707H36.1958V38.0707C36.1958 39.1707 37.124 40.0707 38.2585 40.0707C39.393 40.0707 40.3212 39.1707 40.3212 38.0707V34.0707H44.4465C45.581 34.0707 46.5092 33.1707 46.5092 32.0707C46.5092 30.9707 45.581 30.0707 44.4465 30.0707H40.3212V26.0707C40.3212 24.9707 39.393 24.0707 38.2585 24.0707C37.124 24.0707 36.1958 24.9707 36.1958 26.0707V30.0707Z" fill="#646464"/>
</svg>
