<svg width="48" height="48" viewBox="0 0 48 48" fill="none" xmlns="http://www.w3.org/2000/svg">
<path fill-rule="evenodd" clip-rule="evenodd" d="M23.9995 8C21.7776 8 20.0773 8.06828 18.8984 8.14074C18.82 8.14556 18.7734 8.17575 18.7445 8.20824C18.7158 8.2404 18.6926 8.28779 18.6968 8.36288C18.7352 9.04757 18.7872 9.68331 18.8387 10.2214C18.8451 10.2869 18.8688 10.319 18.8812 10.3316C18.8882 10.3387 18.895 10.3434 18.9019 10.3466C18.9081 10.3496 18.9203 10.3543 18.9427 10.3563C20.0062 10.4504 21.6599 10.5455 23.9995 10.5455C26.3393 10.5455 27.9932 10.4504 29.0568 10.3563C29.0792 10.3543 29.0914 10.3496 29.0976 10.3466C29.1045 10.3433 29.1113 10.3387 29.1183 10.3316C29.1308 10.319 29.1545 10.2871 29.1608 10.2214C29.2123 9.68359 29.2644 9.04781 29.3028 8.36307C29.3028 8.3631 29.3028 8.36304 29.3028 8.36307C29.307 8.28798 29.2838 8.24046 29.2551 8.20828C29.2261 8.17576 29.1795 8.14557 29.1012 8.14076C27.9221 8.06829 26.2216 8 23.9995 8ZM33.1425 10.6029C32.9553 12.5575 31.4458 14.1606 29.4092 14.3407C28.2191 14.446 26.4472 14.5455 23.9995 14.5455C21.552 14.5455 19.7803 14.446 18.5903 14.3408C16.5537 14.1606 15.0444 12.5575 14.857 10.6031C14.8015 10.0232 14.745 9.33382 14.7031 8.58714M33.1425 10.6029C33.1981 10.0228 33.2546 9.33374 33.2965 8.58715C33.4273 6.25523 31.6678 4.29096 29.3465 4.14829C28.0859 4.07081 26.3036 4 23.9995 4C21.6956 4 19.9134 4.0708 18.653 4.14827C16.3318 4.29094 14.5722 6.2551 14.7031 8.58714M29.2238 6.14452L29.3465 4.14829L29.2238 6.14452Z" fill="#646464"/>
<path fill-rule="evenodd" clip-rule="evenodd" d="M29.6831 6.52923C30.0832 6.03792 30.6923 5.7652 31.3252 5.79407C32.9396 5.86771 34.3008 5.95896 35.4087 6.04953C38.4674 6.29956 40.8535 8.66089 41.1033 11.735C41.321 14.4131 41.545 18.6639 41.545 24.818C41.545 25.9226 40.6496 26.818 39.545 26.818C38.4404 26.818 37.545 25.9226 37.545 24.818C37.545 18.7602 37.3245 14.6181 37.1165 12.0589C37.0266 10.9528 36.2041 10.1279 35.0828 10.0362C34.5265 9.99076 33.9005 9.94486 33.2048 9.90118C33.1844 10.1488 33.1636 10.3836 33.1425 10.6029C32.9553 12.5575 31.4458 14.1606 29.4092 14.3407C28.2191 14.446 26.4472 14.5455 23.9995 14.5455C21.552 14.5455 19.7803 14.446 18.5903 14.3408C16.5537 14.1606 15.0444 12.5575 14.857 10.6031C14.836 10.384 14.8146 10.1487 14.7942 9.90119C14.0986 9.94487 13.4726 9.99076 12.9163 10.0362C11.795 10.1279 10.9725 10.9528 10.8826 12.059C10.6746 14.6181 10.4541 18.7602 10.4541 24.818C10.4541 30.8758 10.6746 35.0179 10.8826 37.577C10.9725 38.6832 11.7949 39.5081 12.9163 39.5998C12.9163 39.5998 12.9163 39.5998 12.9163 39.5998C15.2945 39.7942 20.9846 39.9998 26 39.9998C27.1046 39.9998 28 40.8952 28 41.9998C28 43.1044 27.1046 43.9998 26 43.9998C20.926 43.9998 15.1176 43.7931 12.5905 43.5865C9.53184 43.3364 7.14562 40.9752 6.89578 37.9011C6.67811 35.2229 6.4541 30.9721 6.4541 24.818C6.4541 18.6639 6.67811 14.4131 6.89578 11.7349C7.14562 8.6609 9.53172 6.29956 12.5905 6.04953C13.6983 5.95897 15.0594 5.86771 16.6738 5.79408C17.3067 5.76521 17.9159 6.03793 18.3159 6.52925C18.7159 7.02057 18.8595 7.67237 18.7029 8.28628C18.6981 8.30523 18.695 8.33048 18.6968 8.36288C18.7352 9.04757 18.7872 9.68331 18.8387 10.2214C18.8387 10.2213 18.8387 10.2214 18.8387 10.2214C18.8451 10.2869 18.8688 10.319 18.8812 10.3316C18.8882 10.3387 18.895 10.3434 18.9019 10.3466C18.9081 10.3496 18.9203 10.3543 18.9427 10.3563C20.0062 10.4504 21.6599 10.5455 23.9995 10.5455C26.3393 10.5455 27.9932 10.4504 29.0568 10.3563C29.0792 10.3543 29.0914 10.3496 29.0976 10.3466C29.1045 10.3433 29.1113 10.3387 29.1183 10.3316C29.1308 10.319 29.1545 10.2871 29.1608 10.2214C29.2123 9.68359 29.2644 9.04781 29.3028 8.36307C29.3047 8.32971 29.3008 8.30475 29.2961 8.28624C29.1396 7.67233 29.2831 7.02054 29.6831 6.52923Z" fill="#646464"/>
<path fill-rule="evenodd" clip-rule="evenodd" d="M13.8184 26.5459C13.8184 25.4413 14.7138 24.5459 15.8184 24.5459H32.182C33.2866 24.5459 34.182 25.4413 34.182 26.5459C34.182 27.6505 33.2866 28.5459 32.182 28.5459H15.8184C14.7138 28.5459 13.8184 27.6505 13.8184 26.5459Z" fill="#646464"/>
<path fill-rule="evenodd" clip-rule="evenodd" d="M13.8184 33.0913C13.8184 31.9867 14.7138 31.0913 15.8184 31.0913H24C25.1046 31.0913 26 31.9867 26 33.0913C26 34.1959 25.1046 35.0913 24 35.0913H15.8184C14.7138 35.0913 13.8184 34.1959 13.8184 33.0913Z" fill="#646464"/>
<path fill-rule="evenodd" clip-rule="evenodd" d="M13.8184 20C13.8184 18.8954 14.7138 18 15.8184 18H32.182C33.2866 18 34.182 18.8954 34.182 20C34.182 21.1046 33.2866 22 32.182 22H15.8184C14.7138 22 13.8184 21.1046 13.8184 20Z" fill="#646464"/>
<path fill-rule="evenodd" clip-rule="evenodd" d="M38 30C39.1046 30 40 30.8954 40 32V36H44C45.1046 36 46 36.8954 46 38C46 39.1046 45.1046 40 44 40H40V44C40 45.1046 39.1046 46 38 46C36.8954 46 36 45.1046 36 44V40H32C30.8954 40 30 39.1046 30 38C30 36.8954 30.8954 36 32 36H36V32C36 30.8954 36.8954 30 38 30Z" fill="#646464"/>
</svg>
