<svg width="48" height="48" viewBox="0 0 48 48" fill="none" xmlns="http://www.w3.org/2000/svg">
<path fill-rule="evenodd" clip-rule="evenodd" d="M24.0003 3C25.1048 3 26.0003 3.89543 26.0003 5V8.00006H29.0003C30.1048 8.00006 31.0003 8.89549 31.0003 10.0001C31.0003 11.1046 30.1048 12.0001 29.0003 12.0001H26.0003V15C26.0003 16.1046 25.1048 17 24.0003 17C22.8957 17 22.0003 16.1046 22.0003 15V12.0001H19.0003C17.8957 12.0001 17.0003 11.1046 17.0003 10.0001C17.0003 8.89549 17.8957 8.00006 19.0003 8.00006H22.0003V5C22.0003 3.89543 22.8957 3 24.0003 3ZM13.9972 10.4347C14.0613 11.5374 13.2194 12.4833 12.1167 12.5474C11.4183 12.588 10.7572 12.6327 10.14 12.6812C9.34485 12.7438 8.72424 13.3544 8.65118 14.1596C8.43575 16.5337 8.3072 19.2352 8.2655 22.0001H39.7359C39.6941 19.2351 39.5653 16.5335 39.3496 14.1592C39.2765 13.3543 38.656 12.7438 37.861 12.6812C37.2437 12.6327 36.5825 12.5881 35.884 12.5474C34.7813 12.4833 33.9394 11.5374 34.0035 10.4347C34.0676 9.332 35.0135 8.49006 36.1162 8.55418C36.8377 8.59613 37.5264 8.64256 38.1746 8.69356C40.9238 8.90983 43.0847 11.0617 43.3332 13.7973C43.8901 19.9272 43.8901 28.0727 43.3332 34.2026C43.085 36.9351 40.9317 39.0894 38.1795 39.306C34.4196 39.602 29.21 39.7499 24.0004 39.7499C18.7912 39.7499 13.5819 39.6019 9.82187 39.306C7.0692 39.0894 4.91576 36.9346 4.66775 34.2018C4.38963 31.137 4.25054 27.5685 4.25049 24.0001C4.25044 20.4315 4.38945 16.8629 4.66755 13.7981C4.9158 11.0622 7.07681 8.90981 9.82635 8.69353C10.4746 8.64255 11.1632 8.59613 11.8845 8.55418C12.9872 8.49006 13.9331 9.332 13.9972 10.4347ZM8.26555 26.0001C8.30732 28.7648 8.43594 31.4661 8.65138 33.8402C8.72475 34.6487 9.34352 35.256 10.1357 35.3183C13.313 35.5684 17.585 35.7098 22.0002 35.7425L21.9996 26.0001H8.26555ZM25.9996 26.0001L26.0002 35.7425C30.4159 35.7098 34.6883 35.5685 37.8656 35.3184C38.6576 35.256 39.2762 34.6489 39.3496 33.8407C39.5653 31.4665 39.6941 28.765 39.7359 26.0001H25.9996Z" fill="#646464"/>
</svg>
