<svg width="48" height="48" viewBox="0 0 48 48" fill="none" xmlns="http://www.w3.org/2000/svg">
<path d="M24 4C25.1045 4 25.9999 4.8955 26 6C26 7.10457 25.1046 8 24 8C15.1635 8 8.00008 15.1635 8 24C8 32.8366 15.1634 40 24 40C26.667 40 29.1762 39.3492 31.3828 38.1992C32.3623 37.6887 33.5715 38.0693 34.082 39.0488C34.5918 40.0281 34.2114 41.2356 33.2324 41.7461C30.4684 43.1867 27.3261 44 24 44C12.9543 44 4 35.0457 4 24C4.00008 12.9544 12.9544 4 24 4Z" fill="#646464"/>
<path fill-rule="evenodd" clip-rule="evenodd" d="M24 14C29.5228 14 33.9999 18.4772 34 24V27C34 28.6569 35.3431 30 37 30C38.6569 30 40 28.6569 40 27V24C40.0001 22.8955 40.8955 22 42 22C43.1045 22 43.9999 22.8955 44 24V27C44 30.866 40.866 34 37 34C34.5898 34 32.4642 32.7819 31.2051 30.9277C29.3857 32.8196 26.832 34 24 34C18.4772 34 14 29.5228 14 24C14.0001 18.4772 18.4772 14 24 14ZM24 18C20.6863 18 18.0001 20.6864 18 24C18 27.3137 20.6863 30 24 30C27.3137 30 30 27.3137 30 24C29.9999 20.6864 27.3137 18 24 18Z" fill="#646464"/>
<path d="M38 2C39.1046 2 40 2.89543 40 4V8H44C45.1046 8 46 8.89543 46 10C46 11.1046 45.1046 12 44 12H40V16C40 17.1046 39.1046 18 38 18C36.8955 17.9999 36 17.1045 36 16V12H32C30.8955 11.9999 30 11.1045 30 10C30 8.89549 30.8955 8.00009 32 8H36V4C36 2.89549 36.8955 2.00009 38 2Z" fill="#646464"/>
</svg>
