<svg width="48" height="48" viewBox="0 0 48 48" fill="none" xmlns="http://www.w3.org/2000/svg">
<path fill-rule="evenodd" clip-rule="evenodd" d="M38 5C39.1046 5 40 5.89543 40 7V11H44C45.1046 11 46 11.8954 46 13C46 14.1046 45.1046 15 44 15H40V19C40 20.1046 39.1046 21 38 21C36.8954 21 36 20.1046 36 19V15H32C30.8954 15 30 14.1046 30 13C30 11.8954 30.8954 11 32 11H36V7C36 5.89543 36.8954 5 38 5ZM4.00195 13C4.00195 11.8954 4.89738 11 6.00195 11H23.9976C25.1022 11 25.9976 11.8954 25.9976 13C25.9976 14.1046 25.1022 15 23.9976 15H6.00195C4.89738 15 4.00195 14.1046 4.00195 13ZM10.752 24.2486C10.752 23.144 11.6474 22.2486 12.752 22.2486H32C33.1046 22.2486 34 23.144 34 24.2486C34 25.3532 33.1046 26.2486 32 26.2486H12.752C11.6474 26.2486 10.752 25.3532 10.752 24.2486ZM17.5001 35.4972C17.5001 34.3926 18.3955 33.4972 19.5001 33.4972H28.499C29.6036 33.4972 30.499 34.3926 30.499 35.4972C30.499 36.6018 29.6036 37.4972 28.499 37.4972H19.5001C18.3955 37.4972 17.5001 36.6018 17.5001 35.4972Z" fill="#646464"/>
</svg>
