<svg width="48" height="48" viewBox="0 0 48 48" fill="none" xmlns="http://www.w3.org/2000/svg">
<path d="M10.6169 8.4232C13.2798 8.20684 17.5669 7.97549 23.7243 7.97549C29.8817 7.97549 34.1688 8.20683 36.8317 8.42319C37.9977 8.51793 38.8617 9.38188 38.9564 10.5479C39.0628 11.8566 39.2064 15.1242 39.3247 18.1201C39.3834 19.6059 39.4351 21.0072 39.4723 22.0373C39.4908 22.5522 39.5057 22.9742 39.516 23.2674L39.5318 23.7242C39.5699 24.8409 40.506 25.7154 41.6228 25.6774C42.7395 25.6393 43.6138 24.7011 43.5758 23.5844L43.5599 23.126C43.5496 22.8316 43.5347 22.4081 43.516 21.8915C43.4788 20.8585 43.4268 19.4522 43.3679 17.9604C43.2511 15.001 43.1043 11.633 42.9895 10.2203C42.7343 7.07805 40.3016 4.64537 37.1594 4.39007C34.3795 4.1642 29.9827 3.92908 23.7243 3.92908C17.4659 3.92908 13.0691 4.16421 10.2892 4.39007C7.14703 4.64537 4.71433 7.07806 4.45904 10.2203C4.23317 13.0002 3.99805 17.397 3.99805 23.6553C3.99805 29.9137 4.23318 34.3105 4.45905 37.0904C4.71434 40.2326 7.14704 42.6653 10.2892 42.9206C11.7153 43.0364 15.096 43.1512 18.0508 43.2365C19.5434 43.2796 20.9503 43.3157 21.9837 43.3411C22.5005 43.3538 22.9242 43.3638 23.2188 43.3706L23.6794 43.3811C24.7965 43.4058 25.7223 42.5202 25.747 41.4031C25.7717 40.286 24.8843 39.3603 23.7672 39.3356L23.3126 39.3253C23.0196 39.3185 22.5978 39.3085 22.083 39.2959C21.0533 39.2706 19.6526 39.2346 18.1676 39.1918C15.1671 39.1051 11.9123 38.9927 10.6169 38.8875C9.45085 38.7927 8.58691 37.9288 8.49217 36.7627C8.27581 34.0998 8.04446 29.8127 8.04446 23.6553C8.04446 17.498 8.2758 13.2108 8.49216 10.5479C8.5869 9.38189 9.45085 8.51794 10.6169 8.4232Z" fill="url(#paint0_linear_3_11589)"/>
<path fill-rule="evenodd" clip-rule="evenodd" d="M20.7228 16.7553C21.4967 15.9498 21.4715 14.6694 20.6662 13.8951C19.8608 13.1206 18.58 13.1457 17.8055 13.9511L17.7964 13.9606L17.7765 13.9814L17.7061 14.056C17.646 14.1198 17.5603 14.2116 17.4535 14.3281C17.24 14.5607 16.9408 14.893 16.5914 15.2984C15.8969 16.1042 14.9842 17.2219 14.149 18.4349C13.3339 19.6186 12.5006 21.0234 12.074 22.3869C11.6757 23.6598 11.418 25.677 13.0102 27.1018C14.6091 28.5326 16.5466 28.1521 17.8238 27.657C19.053 27.1805 20.3428 26.3487 21.4081 25.6616L21.5721 25.5559C22.7907 24.771 23.7265 24.1891 24.4799 23.925C24.6243 23.8744 24.7388 23.8445 24.8265 23.8279C24.8156 23.8834 24.7977 23.9554 24.7683 24.0461C24.5896 24.5984 24.1909 25.2741 23.614 26.1991L23.5081 26.3685C23.0225 27.1447 22.3948 28.1479 22.0593 29.1094C21.8701 29.6519 21.7116 30.3419 21.8003 31.0913C21.8962 31.9024 22.2671 32.6476 22.9095 33.234C23.6025 33.8665 24.4322 34.1816 25.2982 34.2036C26.1018 34.224 26.828 33.9908 27.4054 33.7324C28.3865 33.2933 29.3985 32.5545 30.196 31.9723C30.2929 31.9015 30.3878 31.8323 30.4779 31.767C31.3828 31.1114 31.5849 29.8465 30.9294 28.9416C30.2739 28.0367 29.0089 27.8346 28.104 28.4901L27.8608 28.6665C27.1726 29.166 26.6295 29.5602 26.1569 29.8309C26.3689 29.431 26.6671 28.9502 27.0474 28.3405L27.0637 28.3143C27.5778 27.4901 28.2615 26.3939 28.6181 25.2921C29.0009 24.1096 29.1362 22.4805 27.9149 21.0877C27.2535 20.3334 26.4067 19.9055 25.4824 19.7939C24.6234 19.6902 23.8111 19.8716 23.1413 20.1065C21.8649 20.5539 20.5228 21.4185 19.4332 22.1204L19.381 22.1541C18.159 22.9412 17.1852 23.5648 16.3612 23.8842C16.1205 23.9775 15.9458 24.0224 15.8266 24.0426C15.842 23.9386 15.8738 23.7932 15.9358 23.5953C16.1797 22.8158 16.7386 21.809 17.4817 20.7297C18.2047 19.6797 19.0163 18.683 19.6565 17.9401C19.9745 17.5712 20.2453 17.2705 20.4349 17.0639C20.5296 16.9606 20.6038 16.8812 20.6532 16.8287L20.708 16.7707L20.7204 16.7577L20.7228 16.7553ZM15.8238 24.2663C15.8238 24.2663 15.8172 24.2559 15.8149 24.2263C15.8246 24.25 15.8238 24.2663 15.8238 24.2663Z" fill="url(#paint1_linear_3_11589)"/>
<path d="M39.1841 28.202C38.6721 27.266 37.3279 27.266 36.8158 28.202L35.1237 31.2961C34.7018 32.0675 34.0675 32.7018 33.296 33.1237L30.202 34.8159C29.266 35.3279 29.266 36.6721 30.202 37.1841L33.296 38.8763C34.0675 39.2982 34.7018 39.9325 35.1237 40.7039L36.8158 43.798C37.3279 44.734 38.6721 44.734 39.1841 43.798L40.8763 40.7039C41.2982 39.9325 41.9325 39.2982 42.7039 38.8763L45.798 37.1841C46.734 36.6721 46.734 35.3279 45.7979 34.8159L42.7039 33.1237C41.9325 32.7018 41.2982 32.0675 40.8763 31.2961L39.1841 28.202Z" fill="url(#paint2_linear_3_11589)"/>
<defs>
<linearGradient id="paint0_linear_3_11589" x1="3.99805" y1="24.2145" x2="46.5" y2="24.2145" gradientUnits="userSpaceOnUse">
<stop stop-color="#7A28E2"/>
<stop offset="1" stop-color="#C100B6"/>
</linearGradient>
<linearGradient id="paint1_linear_3_11589" x1="3.99805" y1="24.2145" x2="46.5" y2="24.2145" gradientUnits="userSpaceOnUse">
<stop stop-color="#7A28E2"/>
<stop offset="1" stop-color="#C100B6"/>
</linearGradient>
<linearGradient id="paint2_linear_3_11589" x1="3.99805" y1="24.2145" x2="46.5" y2="24.2145" gradientUnits="userSpaceOnUse">
<stop stop-color="#7A28E2"/>
<stop offset="1" stop-color="#C100B6"/>
</linearGradient>
</defs>
</svg>
