<svg width="48" height="48" viewBox="0 0 48 48" fill="none" xmlns="http://www.w3.org/2000/svg">
<path d="M36.1259 37.7794C34.0781 37.5025 32.5038 37.1756 31.551 36.9521C31.0442 36.8333 30.8347 36.225 31.1466 35.7901C32.4798 33.9314 35.7431 29.5555 39.2165 26.2021C39.6955 25.7396 40.4433 26.1255 40.4074 26.8068C40.2509 29.7772 40.055 32.5463 39.8741 34.2206C41.9219 34.4974 43.4962 34.8244 44.449 35.0478C44.9558 35.1666 45.1653 35.775 44.8534 36.2098C43.5202 38.0686 40.2568 42.4445 36.7835 45.7978C36.3045 46.2603 35.5567 45.8744 35.5926 45.1932C35.7491 42.2227 35.945 39.4537 36.1259 37.7794Z" fill="url(#paint0_linear_5233_287)"/>
<path fill-rule="evenodd" clip-rule="evenodd" d="M27.0761 8.07617C27.3025 6.02355 28.778 4.08865 31.2909 4.01172C31.4976 4.00542 31.7186 4.00001 31.953 4C32.1876 4 32.4083 4.00347 32.6151 4.00977L33.1034 4.04883C35.4781 4.36533 36.8004 6.42754 36.8593 8.48828L36.8602 8.5523L37.748 8.60015L38.3203 8.66656C41.1468 9.12616 43.3192 11.3937 43.5703 14.3287L43.6621 15.481C43.7516 16.7131 43.8347 18.1907 43.8965 19.9283L43.9551 21.9556L43.9492 22.1587C43.8699 23.1697 43.0356 23.9753 42 23.9986C40.9647 24.0217 40.0955 23.2547 39.9707 22.2486L39.9551 22.0455L39.8984 20.0709C39.8853 19.7015 39.8713 19.3446 39.8564 19H8.1428C8.05795 20.9566 8.00001 23.3113 8 26.0923C8 31.372 8.20877 35.1162 8.41406 37.5162L8.44141 37.7271C8.62072 38.7612 9.44659 39.5153 10.5469 39.5962L12.9023 39.7427C15.6227 39.8834 19.4051 40.0005 24 40.0005C25.4003 40.0005 26.7256 39.9884 27.9688 39.9693C29.0729 39.9523 29.9825 40.834 30 41.938C30.017 43.0423 29.1355 43.952 28.0312 43.9693C26.7676 43.9888 25.4212 44.0005 24 44.0005C19.3443 44.0005 15.491 43.8817 12.6914 43.7369L10.252 43.5865C7.34428 43.3722 5.00721 41.2749 4.50586 38.4341L4.42969 37.858C4.21401 35.3367 4 31.4777 4 26.0923C4.00002 20.7073 4.21402 16.8499 4.42969 14.3287L4.50586 13.7505C5.00778 10.9106 7.34478 8.81429 10.252 8.60015L11.138 8.55239L11.1398 8.48828L11.1691 8.07617C11.3955 6.02363 12.871 4.08865 15.3839 4.01172C15.5906 4.00542 15.8116 4 16.046 4C16.2806 4 16.5013 4.00347 16.7081 4.00977L17.1964 4.04883C19.4627 4.35085 20.7705 6.24271 20.9363 8.20609L21.3477 8.19976C22.1913 8.19113 23.0751 8.18609 24 8.18609C25.0776 8.18609 26.0995 8.19258 27.067 8.20426L27.0761 8.07617ZM32.7089 8.08789C32.7593 8.14574 32.8526 8.3044 32.8612 8.60156L32.8847 10.1855L32.8612 11.7695C32.8527 12.0662 32.7594 12.2249 32.7089 12.2832C32.6846 12.311 32.6626 12.3265 32.6425 12.3359L32.494 12.3652C32.3298 12.3702 32.1492 12.373 31.953 12.373L31.4139 12.3652C31.3287 12.3626 31.283 12.3451 31.2636 12.3359C31.2436 12.3265 31.2231 12.3107 31.1991 12.2832C31.1614 12.2399 31.0988 12.1408 31.0663 11.9688L31.0448 11.7695C31.0315 11.3043 31.0233 10.7722 31.0233 10.1855C31.0233 9.59902 31.0315 9.06673 31.0448 8.60156L31.0663 8.4043C31.0988 8.23126 31.1613 8.13112 31.1991 8.08789C31.2229 8.06073 31.2438 8.04656 31.2636 8.03711C31.2829 8.02798 31.3287 8.0104 31.4139 8.00781L31.953 8C32.1492 8 32.3298 8.00281 32.494 8.00781L32.6425 8.03711C32.6625 8.04658 32.6847 8.06023 32.7089 8.08789ZM16.8019 8.08789C16.8523 8.14571 16.9456 8.30434 16.9542 8.60156L16.9777 10.1855L16.9542 11.7695C16.9458 12.0662 16.8524 12.2249 16.8019 12.2832C16.7776 12.311 16.7556 12.3265 16.7355 12.3359L16.587 12.3652C16.4227 12.3702 16.2422 12.373 16.046 12.373L15.507 12.3652C15.423 12.3627 15.3784 12.3452 15.3585 12.3359C15.3384 12.3265 15.3164 12.311 15.2921 12.2832C15.2543 12.2398 15.1918 12.1407 15.1593 11.9688L15.1378 11.7695C15.1245 11.3043 15.1163 10.7722 15.1163 10.1855C15.1163 9.59902 15.1245 9.06673 15.1378 8.60156L15.1593 8.4043C15.1918 8.23128 15.2543 8.13114 15.2921 8.08789C15.3163 8.06024 15.3385 8.04656 15.3585 8.03711C15.3782 8.02792 15.4226 8.01038 15.507 8.00781L16.046 8C16.2422 8 16.4227 8.00281 16.587 8.00781L16.7355 8.03711C16.7555 8.04657 16.7777 8.06021 16.8019 8.08789Z" fill="url(#paint1_linear_5233_287)"/>
<defs>
<linearGradient id="paint0_linear_5233_287" x1="4" y1="25" x2="45" y2="25" gradientUnits="userSpaceOnUse">
<stop stop-color="#7A28E2"/>
<stop offset="1" stop-color="#C100B6"/>
</linearGradient>
<linearGradient id="paint1_linear_5233_287" x1="4" y1="25" x2="45" y2="25" gradientUnits="userSpaceOnUse">
<stop stop-color="#7A28E2"/>
<stop offset="1" stop-color="#C100B6"/>
</linearGradient>
</defs>
</svg>
