<svg width="48" height="48" viewBox="0 0 48 48" fill="none" xmlns="http://www.w3.org/2000/svg">
<path d="M29.0465 11.827C29.0861 13.2168 29.9631 14.321 31.3528 14.3634C31.5383 14.369 31.7382 14.3721 31.9536 14.3721C32.169 14.3721 32.369 14.369 32.5545 14.3634C33.9441 14.321 34.8211 13.2168 34.8608 11.827C34.8746 11.3438 34.8838 10.793 34.8838 10.1861C34.8838 9.57922 34.8746 9.02832 34.8608 8.54512C34.8211 7.15538 33.9441 6.05104 32.5545 6.00879C32.369 6.00314 32.169 6.00003 31.9536 6.00003C31.7382 6.00003 31.5383 6.00314 31.3528 6.00879C29.9631 6.05104 29.0861 7.15538 29.0465 8.54512C29.0327 9.02832 29.0234 9.57914 29.0234 10.1861C29.0234 10.7931 29.0327 11.3438 29.0465 11.827Z" stroke="#646464" stroke-width="2"/>
<path d="M13.1393 11.827C13.179 13.2168 14.0559 14.321 15.4456 14.3634C15.6311 14.369 15.831 14.3721 16.0464 14.3721C16.2618 14.3721 16.4617 14.369 16.6473 14.3634C18.037 14.321 18.9139 13.2168 18.9535 11.827C18.9674 11.3438 18.9767 10.793 18.9767 10.1861C18.9767 9.57922 18.9674 9.02832 18.9535 8.54512C18.9139 7.15538 18.037 6.05104 16.6473 6.00879C16.4617 6.00314 16.2618 6.00003 16.0464 6.00003C15.831 6.00003 15.6311 6.00314 15.4456 6.00879C14.0559 6.05104 13.179 7.15538 13.1393 8.54512C13.1255 9.02832 13.1162 9.57914 13.1162 10.1861C13.1162 10.7931 13.1255 11.3438 13.1393 11.827Z" stroke="#646464" stroke-width="2"/>
<path d="M28 41.9698C26.7465 41.9891 25.4109 42 24 42C17.8334 42 13.1021 41.7904 10.3994 41.5918C8.26174 41.4345 6.60494 39.8225 6.4222 37.6868C6.21172 35.2262 6 31.4258 6 26.0932C6 20.7605 6.21172 16.9602 6.4222 14.4996C6.60494 12.3638 8.26174 10.7518 10.3994 10.5946C11.0664 10.5456 12.2501 10.4958 13.1169 10.4487C13.1192 10.9527 13.1276 11.4145 13.1394 11.827C13.1791 13.2168 14.056 14.321 15.4457 14.3634C15.6312 14.369 15.8311 14.3721 16.0465 14.3721C16.2619 14.3721 16.4619 14.369 16.6475 14.3634C18.0371 14.321 18.914 13.2168 18.9537 11.827C18.9671 11.3571 18.9763 10.8233 18.9768 10.2361C20.491 10.2047 22.1633 10.1861 24 10.1861C25.8368 10.1861 27.5091 10.2047 29.0233 10.2361C29.0238 10.8233 29.033 11.3571 29.0464 11.827C29.086 13.2168 29.9629 14.321 31.3527 14.3634C31.5382 14.369 31.7381 14.3721 31.9535 14.3721C32.1689 14.3721 32.3689 14.369 32.5544 14.3634C33.944 14.321 34.8209 13.2168 34.8607 11.827C34.8724 11.4145 34.8809 10.9527 34.8832 10.4487C35.7499 10.4958 36.9335 10.5455 37.6005 10.5945C39.7382 10.7517 41.3951 12.3637 41.5777 14.4994C41.6969 15.8922 41.8164 17.714 41.8977 20C41.9201 20.6311 41.9397 21.2975 41.9555 22" stroke="#646464" stroke-width="2" stroke-linecap="round"/>
<path d="M13.1379 11.827C13.1776 13.2167 14.0545 14.321 15.4441 14.3633C15.6297 14.369 15.8296 14.3721 16.045 14.3721C16.2604 14.3721 16.4603 14.369 16.6459 14.3633C18.0356 14.321 18.9125 13.2167 18.9521 11.827C18.9655 11.3571 18.9747 10.8233 18.9753 10.236C20.4894 10.2047 22.1617 10.1861 23.9985 10.1861C25.8352 10.1861 27.5075 10.2047 29.0218 10.236C29.0223 10.8233 29.0314 11.3571 29.0449 11.827C29.0845 13.2167 29.9614 14.321 31.3511 14.3633C31.5366 14.369 31.7366 14.3721 31.952 14.3721C32.1674 14.3721 32.3673 14.369 32.5528 14.3633C33.9425 14.321 34.8194 13.2167 34.8591 11.827C34.8709 11.4144 34.8793 10.9526 34.8816 10.4486C35.7484 10.4957 36.9319 10.5454 37.5989 10.5944C39.7366 10.7516 41.3935 12.3636 41.5762 14.4994C41.7045 16 42.0002 19 42.0002 19H6.03512C5.99999 18 6.21016 16.9602 6.42064 14.4995C6.60338 12.3638 8.26018 10.7517 10.3979 10.5946C11.0649 10.5455 12.2486 10.4957 13.1153 10.4486C13.1176 10.9526 13.1261 11.4144 13.1379 11.827Z" fill="#646464"/>
<path d="M36.1259 37.7794C34.0781 37.5025 32.5038 37.1756 31.551 36.9522C31.0442 36.8333 30.8347 36.2251 31.1466 35.7902C32.4798 33.9314 35.7431 29.5555 39.2165 26.2021C39.6955 25.7396 40.4433 26.1255 40.4074 26.8068C40.2509 29.7772 40.055 32.5463 39.8741 34.2207C41.9219 34.4975 43.4962 34.8244 44.449 35.0478C44.9558 35.1667 45.1653 35.775 44.8534 36.2098C43.5202 38.0686 40.2568 42.4445 36.7835 45.7979C36.3045 46.2604 35.5567 45.8745 35.5926 45.1933C35.7491 42.2228 35.945 39.4538 36.1259 37.7794Z" fill="#646464"/>
<path fill-rule="evenodd" clip-rule="evenodd" d="M27.0761 8.0762C27.3025 6.02358 28.778 4.08868 31.2909 4.01175C31.4976 4.00546 31.7186 4.00004 31.953 4.00003C32.1876 4.00003 32.4083 4.0035 32.6151 4.0098L33.1034 4.04886C35.4781 4.36537 36.8004 6.42757 36.8593 8.48831L36.8602 8.55233L37.748 8.60018L38.3203 8.66659C41.1468 9.12619 43.3192 11.3938 43.5703 14.3287L43.6621 15.481C43.7516 16.7131 43.8347 18.1907 43.8965 19.9283L43.9551 21.9557L43.9492 22.1588C43.8699 23.1698 43.0356 23.9753 42 23.9986C40.9647 24.0217 40.0955 23.2547 39.9707 22.2486L39.9551 22.0455L39.8984 20.0709C39.8853 19.7015 39.8713 19.3446 39.8564 19H8.1428C8.05795 20.9567 8.00001 23.3113 8 26.0924C8 31.3721 8.20877 35.1162 8.41406 37.5162L8.44141 37.7271C8.62072 38.7613 9.44659 39.5153 10.5469 39.5963L12.9023 39.7428C15.6227 39.8834 19.4051 40.0006 24 40.0006C25.4003 40.0006 26.7256 39.9885 27.9688 39.9693C29.0729 39.9523 29.9825 40.834 30 41.9381C30.017 43.0424 29.1355 43.9521 28.0312 43.9693C26.7676 43.9888 25.4212 44.0006 24 44.0006C19.3443 44.0006 15.491 43.8818 12.6914 43.7369L10.252 43.5865C7.34428 43.3723 5.00721 41.2749 4.50586 38.4342L4.42969 37.858C4.21401 35.3368 4 31.4778 4 26.0924C4.00002 20.7073 4.21402 16.8499 4.42969 14.3287L4.50586 13.7506C5.00778 10.9106 7.34478 8.81432 10.252 8.60018L11.138 8.55243L11.1398 8.48831L11.1691 8.0762C11.3955 6.02367 12.871 4.08868 15.3839 4.01175C15.5906 4.00546 15.8116 4.00004 16.046 4.00003C16.2806 4.00003 16.5013 4.0035 16.7081 4.0098L17.1964 4.04886C19.4627 4.35088 20.7705 6.24274 20.9363 8.20612L21.3477 8.19979C22.1913 8.19116 23.0751 8.18612 24 8.18612C25.0776 8.18612 26.0995 8.19261 27.067 8.20429L27.0761 8.0762ZM32.7089 8.08792C32.7593 8.14577 32.8526 8.30444 32.8612 8.60159L32.8847 10.1856L32.8612 11.7696C32.8527 12.0662 32.7594 12.2249 32.7089 12.2832C32.6846 12.311 32.6626 12.3265 32.6425 12.336L32.494 12.3653C32.3298 12.3703 32.1492 12.3731 31.953 12.3731L31.4139 12.3653C31.3287 12.3627 31.283 12.3451 31.2636 12.336C31.2436 12.3265 31.2231 12.3107 31.1991 12.2832C31.1614 12.2399 31.0988 12.1408 31.0663 11.9688L31.0448 11.7696C31.0315 11.3043 31.0233 10.7722 31.0233 10.1856C31.0233 9.59905 31.0315 9.06676 31.0448 8.60159L31.0663 8.40433C31.0988 8.23129 31.1613 8.13115 31.1991 8.08792C31.2229 8.06076 31.2438 8.04659 31.2636 8.03714C31.2829 8.02801 31.3287 8.01043 31.4139 8.00784L31.953 8.00003C32.1492 8.00003 32.3298 8.00284 32.494 8.00784L32.6425 8.03714C32.6625 8.04661 32.6847 8.06026 32.7089 8.08792ZM16.8019 8.08792C16.8523 8.14574 16.9456 8.30437 16.9542 8.60159L16.9777 10.1856L16.9542 11.7696C16.9458 12.0662 16.8524 12.2249 16.8019 12.2832C16.7776 12.311 16.7556 12.3265 16.7355 12.336L16.587 12.3653C16.4227 12.3703 16.2422 12.3731 16.046 12.3731L15.507 12.3653C15.423 12.3627 15.3784 12.3452 15.3585 12.336C15.3384 12.3265 15.3164 12.311 15.2921 12.2832C15.2543 12.2399 15.1918 12.1407 15.1593 11.9688L15.1378 11.7696C15.1245 11.3043 15.1163 10.7722 15.1163 10.1856C15.1163 9.59905 15.1245 9.06676 15.1378 8.60159L15.1593 8.40433C15.1918 8.23131 15.2543 8.13117 15.2921 8.08792C15.3163 8.06027 15.3385 8.04659 15.3585 8.03714C15.3782 8.02795 15.4226 8.01041 15.507 8.00784L16.046 8.00003C16.2422 8.00003 16.4227 8.00284 16.587 8.00784L16.7355 8.03714C16.7555 8.04661 16.7777 8.06024 16.8019 8.08792Z" fill="#646464"/>
</svg>
