<svg width="48" height="48" viewBox="0 0 48 48" fill="none" xmlns="http://www.w3.org/2000/svg">
<path d="M20.1329 27.5588C15.9074 27.0051 12.6587 26.3512 10.6926 25.9044C9.64682 25.6667 9.21461 24.4501 9.85813 23.5803C12.6093 19.8628 19.3431 11.111 26.5103 4.40424C27.4987 3.47926 29.0419 4.25106 28.9677 5.61361C28.6447 11.5545 28.2405 17.0926 27.8673 20.4413C32.0928 20.9949 35.3415 21.6488 37.3076 22.0956C38.3534 22.3333 38.7856 23.55 38.1421 24.4197C35.391 28.1372 28.6571 36.889 21.49 43.5958C20.5015 44.5207 18.9583 43.7489 19.0325 42.3865C19.3555 36.4455 19.7597 30.9076 20.1329 27.5588Z" fill="url(#paint0_linear_4071_239)"/>
<defs>
<linearGradient id="paint0_linear_4071_239" x1="9.55566" y1="24" x2="38.4446" y2="24" gradientUnits="userSpaceOnUse">
<stop stop-color="#7A28E2"/>
<stop offset="1" stop-color="#C100B6"/>
</linearGradient>
</defs>
</svg>
