<svg width="48" height="48" viewBox="0 0 48 48" fill="none" xmlns="http://www.w3.org/2000/svg">
<path fill-rule="evenodd" clip-rule="evenodd" d="M33.4142 14.5858C34.1953 15.3668 34.1953 16.6332 33.4142 17.4142L26.4142 24.4142L23.5858 21.5858L30.5858 14.5858C31.3668 13.8047 32.6332 13.8047 33.4142 14.5858ZM45.4142 14.5858C46.1953 15.3668 46.1953 16.6332 45.4142 17.4142L29.4142 33.4142C28.6332 34.1953 27.3668 34.1953 26.5858 33.4142L16.5858 23.4142C15.8047 22.6332 15.8047 21.3668 16.5858 20.5858C17.3668 19.8047 18.6332 19.8047 19.4142 20.5858L28 29.1716L42.5858 14.5858C43.3668 13.8047 44.6332 13.8047 45.4142 14.5858ZM4.58579 20.5858C5.36683 19.8047 6.63317 19.8047 7.41421 20.5858L16 29.1716L17.5858 27.5858L20.4142 30.4142L17.4142 33.4142C16.6332 34.1953 15.3668 34.1953 14.5858 33.4142L4.58579 23.4142C3.80474 22.6332 3.80474 21.3668 4.58579 20.5858Z" fill="url(#paint0_linear_4071_235)"/>
<defs>
<linearGradient id="paint0_linear_4071_235" x1="4" y1="24" x2="46" y2="24" gradientUnits="userSpaceOnUse">
<stop stop-color="#7A28E2"/>
<stop offset="1" stop-color="#C100B6"/>
</linearGradient>
</defs>
</svg>
