<svg width="48" height="48" viewBox="0 0 48 48" fill="none" xmlns="http://www.w3.org/2000/svg">
<path d="M8.53062 19.9708C10.8177 11.4353 19.5911 6.37002 28.1265 8.65708C29.1844 8.94054 30.1872 9.32284 31.1282 9.79081C31.5215 9.98639 31.9042 10.197 32.2758 10.4218C33.2209 10.9934 34.4505 10.6907 35.0222 9.74555C35.5938 8.80043 35.2911 7.57082 34.346 6.99915C33.8806 6.71769 33.4015 6.45399 32.9093 6.20921C31.731 5.62327 30.4785 5.14619 29.1618 4.79338C18.4925 1.93454 7.52575 8.26619 4.66692 18.9355C1.80808 29.6048 8.13973 40.5716 18.8091 43.4304C20.6679 43.9285 22.5391 44.1479 24.3767 44.1127C25.481 44.0916 26.3592 43.1792 26.338 42.0748C26.3169 40.9705 25.4045 40.0923 24.3001 40.1135C22.8339 40.1415 21.3371 39.9667 19.8443 39.5667C11.3089 37.2796 6.24355 28.5063 8.53062 19.9708Z" fill="url(#paint0_linear_3_11561)"/>
<path d="M43.458 19.5413C43.2046 18.4662 42.1277 17.8 41.0526 18.0533C39.9775 18.3067 39.3113 19.3836 39.5646 20.4587C39.9024 21.8923 40.0442 23.3788 39.9722 24.8777C39.9191 25.981 40.7705 26.9184 41.8738 26.9714C42.9771 27.0245 43.9145 26.1731 43.9676 25.0698C44.0578 23.1924 43.8801 21.3325 43.458 19.5413Z" fill="url(#paint1_linear_3_11561)"/>
<path d="M42.5792 11.78L22.5792 31.78C22.3942 31.9654 22.1744 32.1125 21.9324 32.2129C21.6905 32.3132 21.4311 32.3649 21.1692 32.3649C20.9072 32.3649 20.6479 32.3132 20.4059 32.2129C20.164 32.1125 19.9442 31.9654 19.7592 31.78L14.0992 26.12C13.914 25.9349 13.7671 25.715 13.6669 25.4731C13.5667 25.2312 13.5151 24.9719 13.5151 24.71C13.5151 24.4482 13.5667 24.1889 13.6669 23.9469C13.7671 23.705 13.914 23.4852 14.0992 23.3C14.2844 23.1149 14.5042 22.968 14.7461 22.8678C14.988 22.7676 15.2473 22.716 15.5092 22.716C15.771 22.716 16.0303 22.7676 16.2723 22.8678C16.5142 22.968 16.734 23.1149 16.9192 23.3L21.1592 27.54L39.7392 8.96002C39.9242 8.77461 40.144 8.62752 40.3859 8.52715C40.6279 8.42679 40.8872 8.37513 41.1492 8.37513C41.4111 8.37513 41.6705 8.42679 41.9124 8.52715C42.1544 8.62752 42.3742 8.77461 42.5592 8.96002C43.3592 9.74002 43.3592 11 42.5792 11.78Z" fill="url(#paint2_linear_3_11561)"/>
<path d="M37.1836 28.202C36.6716 27.266 35.3274 27.266 34.8154 28.202L33.1232 31.2961C32.7013 32.0675 32.067 32.7018 31.2956 33.1237L28.2015 34.8159C27.2655 35.3279 27.2655 36.6721 28.2015 37.1841L31.2956 38.8763C32.067 39.2982 32.7013 39.9325 33.1232 40.7039L34.8154 43.798C35.3274 44.734 36.6716 44.734 37.1836 43.798L38.8758 40.7039C39.2977 39.9325 39.932 39.2982 40.7034 38.8763L43.7975 37.1841C44.7335 36.6721 44.7335 35.3279 43.7974 34.8159L40.7034 33.1237C39.932 32.7018 39.2977 32.0675 38.8758 31.2961L37.1836 28.202Z" fill="url(#paint3_linear_3_11561)"/>
<defs>
<linearGradient id="paint0_linear_3_11561" x1="3.98047" y1="24.3035" x2="44.4995" y2="24.3035" gradientUnits="userSpaceOnUse">
<stop stop-color="#7A28E2"/>
<stop offset="1" stop-color="#C100B6"/>
</linearGradient>
<linearGradient id="paint1_linear_3_11561" x1="3.98047" y1="24.3035" x2="44.4995" y2="24.3035" gradientUnits="userSpaceOnUse">
<stop stop-color="#7A28E2"/>
<stop offset="1" stop-color="#C100B6"/>
</linearGradient>
<linearGradient id="paint2_linear_3_11561" x1="3.98047" y1="24.3035" x2="44.4995" y2="24.3035" gradientUnits="userSpaceOnUse">
<stop stop-color="#7A28E2"/>
<stop offset="1" stop-color="#C100B6"/>
</linearGradient>
<linearGradient id="paint3_linear_3_11561" x1="3.98047" y1="24.3035" x2="44.4995" y2="24.3035" gradientUnits="userSpaceOnUse">
<stop stop-color="#7A28E2"/>
<stop offset="1" stop-color="#C100B6"/>
</linearGradient>
</defs>
</svg>
