<svg width="48" height="48" viewBox="0 0 48 48" fill="none" xmlns="http://www.w3.org/2000/svg">
<path d="M6.46197 37.4938C6.63993 39.6841 8.31589 41.3601 10.5061 41.538C13.2732 41.7628 17.688 42 24 42C30.312 42 34.7268 41.7628 37.4938 41.538C39.6841 41.3601 41.3601 39.6841 41.538 37.4938C41.7628 34.7268 42 30.312 42 24C42 17.688 41.7628 13.2732 41.538 10.5061C41.3601 8.3159 39.6841 6.63993 37.4938 6.46197C34.7268 6.23715 30.312 6 24 6C17.688 6 13.2732 6.23715 10.5062 6.46197C8.3159 6.63992 6.63993 8.31589 6.46197 10.5061C6.23715 13.2732 6 17.688 6 24C6 30.312 6.23715 34.7268 6.46197 37.4938Z" fill="#202020"/>
<path fill-rule="evenodd" clip-rule="evenodd" d="M10.2632 44.5281C6.60784 44.2312 3.76882 41.3921 3.47182 37.7368C3.23995 34.883 3 30.3869 3 24C3 17.6131 3.23996 13.117 3.47183 10.2632C3.76881 6.60784 6.60785 3.76881 10.2632 3.47182C13.117 3.23995 17.6131 3 24 3C30.3869 3 34.883 3.23996 37.7368 3.47183C41.3921 3.76881 44.2312 6.60785 44.5281 10.2632C44.76 13.117 45 17.6131 45 24C45 30.3869 44.76 34.883 44.5281 37.7368C44.2312 41.3921 41.3921 44.2312 37.7368 44.5281C34.883 44.76 30.3869 45 24 45C17.6131 45 13.117 44.76 10.2632 44.5281ZM10.5061 41.538C8.31589 41.3601 6.63993 39.6841 6.46197 37.4938C6.23715 34.7268 6 30.312 6 24C6 17.688 6.23715 13.2732 6.46197 10.5061C6.63993 8.31589 8.3159 6.63992 10.5062 6.46197C13.2732 6.23715 17.688 6 24 6C30.312 6 34.7268 6.23715 37.4938 6.46197C39.6841 6.63993 41.3601 8.3159 41.538 10.5061C41.7628 13.2732 42 17.688 42 24C42 30.312 41.7628 34.7268 41.538 37.4938C41.3601 39.6841 39.6841 41.3601 37.4938 41.538C34.7268 41.7628 30.312 42 24 42C17.688 42 13.2732 41.7628 10.5061 41.538Z" fill="url(#paint0_linear_3_11602)"/>
<path fill-rule="evenodd" clip-rule="evenodd" d="M17.9751 22.5781C17.5535 21.8073 16.4465 21.8073 16.0248 22.5781L14.6313 25.1262C14.2838 25.7615 13.7615 26.2838 13.1262 26.6313L10.5781 28.0249C9.80729 28.4465 9.80731 29.5535 10.5781 29.9752L13.1262 31.3687C13.7615 31.7162 14.2838 32.2385 14.6313 32.8738L16.0248 35.4219C16.4465 36.1927 17.5535 36.1927 17.9752 35.4219L19.3687 32.8738C19.7162 32.2385 20.2385 31.7162 20.8738 31.3687L23.4219 29.9752C24.1927 29.5535 24.1927 28.4465 23.4219 28.0248L20.8738 26.6313C20.2385 26.2838 19.7162 25.7615 19.3687 25.1262L17.9751 22.5781Z" fill="white"/>
<path fill-rule="evenodd" clip-rule="evenodd" d="M26 34C26 32.8954 26.8954 32 28 32H36C37.1046 32 38 32.8954 38 34C38 35.1046 37.1046 36 36 36H28C26.8954 36 26 35.1046 26 34Z" fill="white"/>
<defs>
<linearGradient id="paint0_linear_3_11602" x1="-7.98731" y1="73.4561" x2="64.1961" y2="11.528" gradientUnits="userSpaceOnUse">
<stop offset="0.0796508" stop-color="#8930FD"/>
<stop offset="0.232126" stop-color="#4BC9FA"/>
<stop offset="0.542047" stop-color="#FF02F0"/>
<stop offset="0.973605" stop-color="#FFC800"/>
</linearGradient>
</defs>
</svg>
