<svg width="48" height="48" viewBox="0 0 48 48" fill="none" xmlns="http://www.w3.org/2000/svg">
<path fill-rule="evenodd" clip-rule="evenodd" d="M16.7119 4.00967L15.3887 4.00967C12.7076 4.09123 11.2068 6.28986 11.144 8.48783L11.1423 8.55064L10.2528 8.5999C7.15106 8.82798 4.69732 11.1985 4.42948 14.329C4.21381 16.8503 4 20.7076 4 26.0931C4 31.4785 4.21381 35.3359 4.42948 37.8571C4.69732 40.9876 7.15104 43.3581 10.2527 43.5863C12.5695 43.7566 19.2762 43.9294 23.9772 43.9829C25.0817 43.9955 25.9873 43.1103 25.9999 42.0058C26.0125 40.9013 25.1273 39.9958 24.0228 39.9832C19.3089 39.9295 12.7215 39.7569 10.5462 39.5971C9.37253 39.5107 8.51256 38.6571 8.41492 37.5162C8.20962 35.1162 8 31.3728 8 26.0931C8 23.3117 8.05817 20.9568 8.14324 19H39.8175C39.8802 20.6157 39.9328 22.4011 39.9653 24.0396C39.9872 25.144 40.9002 26.0215 42.0045 25.9996C43.1089 25.9777 43.9864 25.0647 43.9645 23.9604C43.8957 20.4898 43.7354 16.257 43.5705 14.3289C43.3027 11.1984 40.8488 8.82785 37.7471 8.59978C37.5051 8.58198 37.1944 8.56389 36.8577 8.54599C36.8571 8.5265 36.8566 8.50712 36.856 8.48783C36.7932 6.28997 35.2924 4.09123 32.6114 4.00967L31.2881 4.00967C28.7226 4.08771 27.2378 6.1043 27.0595 8.20384C26.0943 8.19234 25.0748 8.18603 24 8.18603C22.9252 8.18603 21.9058 8.19234 20.9405 8.20384C20.7622 6.10439 19.2775 4.08772 16.7119 4.00967ZM16.0503 7.99999C15.8541 7.99999 15.6745 8.00282 15.5104 8.00782C15.4251 8.01041 15.3806 8.02734 15.3613 8.03648C15.3412 8.04595 15.32 8.0603 15.2957 8.08805C15.2453 8.14567 15.1509 8.30405 15.1424 8.60208C15.1291 9.06739 15.1201 9.59934 15.1201 10.1861C15.1201 10.7728 15.1291 11.3044 15.1424 11.7698C15.1435 11.8105 15.1463 11.8486 15.1504 11.8842C15.1759 12.1092 15.2522 12.2342 15.2957 12.284C15.3199 12.3117 15.3412 12.3261 15.3613 12.3356C15.3807 12.3447 15.4251 12.3617 15.5104 12.3643C15.6745 12.3693 15.8542 12.3721 16.0503 12.3721C16.2465 12.3721 16.4412 12.3693 16.6054 12.3643C16.6906 12.3617 16.7351 12.3447 16.7545 12.3356C16.7746 12.3261 16.7958 12.3117 16.8201 12.284C16.8636 12.2342 16.9399 12.1092 16.9654 11.8842C16.9694 11.8486 16.9722 11.8105 16.9734 11.7698C16.9867 11.3044 16.9956 10.7728 16.9956 10.1861C16.9956 9.59934 16.9867 9.06739 16.9734 8.60208C16.9649 8.30405 16.8704 8.14567 16.8201 8.08805C16.7958 8.0603 16.7746 8.04594 16.7545 8.03647C16.7351 8.02734 16.6906 8.01041 16.6054 8.00782C16.4412 8.00282 16.2465 7.99999 16.0503 7.99999ZM31.4098 8.00782C31.574 8.00282 31.7536 7.99999 31.9497 7.99999C32.1459 7.99999 32.3406 8.00282 32.5048 8.00782C32.59 8.01041 32.6345 8.02734 32.6539 8.03647C32.674 8.04594 32.6952 8.0603 32.7195 8.08805C32.7699 8.14567 32.8643 8.30405 32.8728 8.60208C32.8861 9.06739 32.8951 9.59934 32.8951 10.1861C32.8951 10.7728 32.8861 11.3044 32.8728 11.7698C32.8716 11.8105 32.8689 11.8486 32.8648 11.8842C32.8393 12.1092 32.763 12.2342 32.7195 12.284C32.6952 12.3117 32.674 12.3261 32.6539 12.3356C32.6345 12.3447 32.5901 12.3617 32.5048 12.3643C32.3406 12.3693 32.1459 12.3721 31.9497 12.3721C31.7536 12.3721 31.574 12.3693 31.4098 12.3643C31.3245 12.3617 31.2801 12.3447 31.2607 12.3356C31.2406 12.3261 31.2194 12.3117 31.1951 12.284C31.1516 12.2342 31.0753 12.1092 31.0498 11.8842C31.0457 11.8486 31.043 11.8105 31.0418 11.7698C31.0285 11.3044 31.0195 10.7728 31.0195 10.1861C31.0195 9.59934 31.0285 9.06739 31.0418 8.60208C31.0503 8.30405 31.1447 8.14567 31.1951 8.08805C31.2194 8.0603 31.2406 8.04595 31.2607 8.03648C31.2801 8.02734 31.3246 8.01041 31.4098 8.00782Z" fill="#646464"/>
<path d="M37.1841 28.202C36.6721 27.266 35.3279 27.266 34.8159 28.202L33.1237 31.2961C32.7018 32.0675 32.0675 32.7018 31.296 33.1237L28.202 34.8159C27.266 35.3279 27.266 36.6721 28.202 37.1841L31.296 38.8763C32.0675 39.2982 32.7018 39.9325 33.1237 40.7039L34.8159 43.798C35.3279 44.734 36.6721 44.734 37.1841 43.7979L38.8763 40.7039C39.2982 39.9325 39.9325 39.2982 40.7039 38.8763L43.798 37.1841C44.734 36.6721 44.734 35.3279 43.7979 34.8159L40.7039 33.1237C39.9325 32.7018 39.2982 32.0675 38.8763 31.2961L37.1841 28.202Z" fill="#646464"/>
</svg>
