<svg width="48" height="48" viewBox="0 0 48 48" fill="none" xmlns="http://www.w3.org/2000/svg">
<path d="M23.5352 4C34.3243 4.00049 43.0718 12.746 43.0723 23.5352C43.0718 24.4592 42.3224 25.2103 41.3984 25.2109C40.4739 25.2109 39.7232 24.4596 39.7227 23.5352C39.7222 14.5956 32.4747 7.34814 23.5352 7.34766C14.5956 7.34809 7.34809 14.5956 7.34766 23.5352C7.34816 32.4747 14.5956 39.7222 23.5352 39.7227C25.5085 39.7225 27.3984 39.3704 29.1426 38.7266C30.0098 38.4073 30.9729 38.8516 31.293 39.7188C31.6119 40.5857 31.1675 41.5489 30.3008 41.8691C28.191 42.6479 25.9099 43.0722 23.5352 43.0723C12.746 43.0718 4.0005 34.3243 4 23.5352C4.00043 12.7459 12.7459 4.00043 23.5352 4ZM37.0039 28.1367C37.3738 27.4605 38.345 27.4605 38.7148 28.1367L39.9375 30.3711C40.2423 30.9283 40.7006 31.3866 41.2578 31.6914L43.4941 32.9141C44.1692 33.2842 44.1696 34.2551 43.4941 34.625L41.2578 35.8477C40.7008 36.1524 40.2422 36.6109 39.9375 37.168L38.7148 39.4023C38.3448 40.078 37.3737 40.0784 37.0039 39.4023L35.7832 37.168C35.4786 36.611 35.0197 36.1524 34.4629 35.8477L32.2266 34.625C31.5507 34.2552 31.551 33.2841 32.2266 32.9141L34.4629 31.6914C35.0199 31.3866 35.4785 30.9282 35.7832 30.3711L37.0039 28.1367ZM23.5352 11.8145C24.4598 11.8145 25.2089 12.5636 25.209 13.4883V14.8223C26.2603 14.9905 27.1539 15.2913 27.8457 15.5938C28.3647 15.8207 28.7791 16.0502 29.0703 16.2285C29.2162 16.3179 29.3335 16.3947 29.418 16.4531C29.46 16.4822 29.4933 16.5082 29.5195 16.5273C29.5327 16.5369 29.5456 16.544 29.5547 16.5508C29.5591 16.5541 29.5629 16.5579 29.5664 16.5605L29.5723 16.5664H29.5742C29.5679 16.5755 29.4903 16.6772 28.6035 17.8359L29.5742 16.5684C30.3086 17.1305 30.4488 18.1816 29.8867 18.916C29.3245 19.6488 28.2749 19.7876 27.541 19.2266L27.3223 19.0859C27.1426 18.9759 26.8637 18.8195 26.5039 18.6621C25.7807 18.346 24.7549 18.0332 23.5332 18.0332C22.595 18.0334 21.6705 18.328 21.0215 18.7695C20.3615 19.2188 20.1838 19.6614 20.1836 19.9473C20.1837 20.2981 20.2657 20.4833 20.3398 20.5957C20.4236 20.7224 20.5786 20.8745 20.8809 21.0391C21.557 21.407 22.538 21.6229 23.8691 21.8945C25.0491 22.1353 26.5798 22.4331 27.7871 23.0898C28.4262 23.4377 29.0576 23.9266 29.5234 24.6328C29.9985 25.3532 30.2324 26.195 30.2324 27.125C30.2319 28.8886 29.152 30.2407 27.9297 31.0723C27.1365 31.6117 26.1963 31.9961 25.209 32.2051V33.5859C25.2088 34.5105 24.4598 35.2597 23.5352 35.2598C22.6105 35.2598 21.8616 34.5106 21.8613 33.5859V32.248C20.8087 32.0799 19.9131 31.7813 19.2207 31.4785C18.7015 31.2515 18.2873 31.0221 17.9961 30.8438C17.8506 30.7547 17.7348 30.6775 17.6504 30.6191C17.6081 30.5899 17.5732 30.5641 17.5469 30.5449C17.5341 30.5356 17.5226 30.5282 17.5137 30.5215C17.5094 30.5183 17.5054 30.5143 17.502 30.5117C17.5002 30.5104 17.4976 30.509 17.4961 30.5078L17.4941 30.5059H17.4922C17.4919 30.5052 17.5077 30.4852 18.5098 29.1758L17.4922 30.5039C16.7586 29.9422 16.6191 28.8925 17.1797 28.1582C17.7413 27.4244 18.7911 27.2835 19.5254 27.8438C19.5316 27.8482 19.5418 27.8544 19.5547 27.8633C19.5919 27.889 19.6567 27.9316 19.7461 27.9863C19.9258 28.0963 20.2029 28.2529 20.5625 28.4102C21.2855 28.7263 22.3115 29.0389 23.5332 29.0391C24.4713 29.0391 25.3958 28.744 26.0449 28.3027C26.7051 27.8536 26.8823 27.4111 26.8828 27.125C26.8828 26.7743 26.8026 26.5891 26.7285 26.4766C26.6449 26.3499 26.4897 26.1978 26.1875 26.0332C25.5114 25.6653 24.5303 25.4494 23.1992 25.1777C22.019 24.9369 20.4868 24.6394 19.2793 23.9824C18.6403 23.6347 18.0087 23.1454 17.543 22.4395C17.068 21.7192 16.8361 20.8769 16.8359 19.9473C16.8361 18.1835 17.9164 16.8317 19.1387 16C19.9326 15.4601 20.8733 15.0722 21.8613 14.8633V13.4883C21.8614 12.5635 22.6104 11.8145 23.5352 11.8145ZM19.5215 27.8398L19.5254 27.8438C19.5227 27.8418 19.519 27.8389 19.5176 27.8379L19.5215 27.8398ZM27.5488 19.2344L27.5449 19.2324L27.541 19.2285V19.2266L27.5488 19.2344Z" fill="#646464"/>
</svg>
