<svg width="48" height="48" viewBox="0 0 48 48" fill="none" xmlns="http://www.w3.org/2000/svg">
<path d="M31.3166 26.7025C31.8286 25.7664 33.1718 25.7664 33.6838 26.7025L35.3752 29.7962C35.7971 30.5676 36.4319 31.2024 37.2033 31.6243L40.2971 33.3157C41.2331 33.8277 41.2331 35.1729 40.2971 35.6849L37.2033 37.3763C36.4321 37.7982 35.7971 38.4331 35.3752 39.2044L33.6838 42.2982C33.1718 43.2338 31.8288 43.2336 31.3166 42.2982L29.6233 39.2044C29.2013 38.433 28.5666 37.7982 27.7951 37.3763L24.7014 35.6849C23.7656 35.1729 23.7657 33.8279 24.7014 33.3157L27.7951 31.6243C28.5665 31.2025 29.2013 30.5675 29.6233 29.7962L31.3166 26.7025ZM6.95919 21.8001C7.46875 21.6544 8.01523 21.717 8.47872 21.9739L8.967 22.2454L15.6897 25.9778L15.8635 26.0853C16.695 26.6643 16.9691 27.7895 16.467 28.6946C15.9644 29.6001 14.8634 29.9639 13.9318 29.5638L13.7483 29.4739L10.4865 27.6595C11.7516 32.3114 15.3855 36.1855 20.3752 37.5228C21.0013 37.6905 21.6286 37.8126 22.2522 37.8919C23.3478 38.0314 24.124 39.0345 23.9846 40.1302C23.8447 41.225 22.8432 41.9995 21.7483 41.8607C20.9461 41.7586 20.1409 41.6006 19.3401 41.386C13.0928 39.7118 8.50191 34.9506 6.76193 29.1849L5.25411 31.9017C4.71816 32.8671 3.50291 33.2164 2.53732 32.681C1.57175 32.1449 1.22232 30.9279 1.75802 29.9622L5.76193 22.7532L5.86544 22.5853C6.12735 22.2069 6.51291 21.9279 6.95919 21.8001ZM11.4631 11.0794C15.8555 6.82545 22.3146 4.91279 28.6584 6.61261C34.9054 8.28652 39.4961 13.0486 41.2365 18.8138L42.7444 16.097C43.2806 15.1322 44.4958 14.7843 45.4611 15.3196C46.4268 15.8557 46.7762 17.0727 46.2404 18.0384L42.2365 25.2474C41.7004 26.2126 40.4853 26.5604 39.5197 26.0247L39.0315 25.7552L32.3108 22.0228L32.135 21.9153C31.3036 21.3364 31.0298 20.211 31.5315 19.306C32.0342 18.4003 33.1369 18.0344 34.0686 18.4349L34.2502 18.5267L37.5119 20.3372C36.2463 15.6864 32.6121 11.8148 27.6233 10.4778C22.6933 9.15687 17.6692 10.637 14.2463 13.9525L13.9201 14.2786C13.1524 15.0724 11.8861 15.093 11.092 14.3255C10.299 13.5579 10.2783 12.2932 11.0451 11.4993L11.4631 11.0794Z" fill="url(#paint0_linear_5377_268)"/>
<defs>
<linearGradient id="paint0_linear_5377_268" x1="1.50684" y1="24.4974" x2="46.4917" y2="24.4974" gradientUnits="userSpaceOnUse">
<stop stop-color="#7A28E2"/>
<stop offset="1" stop-color="#C100B6"/>
</linearGradient>
</defs>
</svg>
