<svg width="48" height="48" viewBox="0 0 48 48" fill="none" xmlns="http://www.w3.org/2000/svg">
<path fill-rule="evenodd" clip-rule="evenodd" d="M35.6841 26.702C35.1721 25.766 33.8279 25.766 33.3159 26.702L31.6237 29.7961C31.2018 30.5675 30.5675 31.2018 29.796 31.6237L26.702 33.3159C25.766 33.8279 25.766 35.1721 26.702 35.6841L29.796 37.3763C30.5675 37.7982 31.2018 38.4325 31.6237 39.2039L33.3159 42.298C33.8279 43.234 35.1721 43.234 35.6841 42.298L37.3763 39.2039C37.7982 38.4325 38.4325 37.7982 39.2039 37.3763L42.298 35.6841C43.234 35.1721 43.234 33.8279 42.2979 33.3159L39.2039 31.6237C38.4325 31.2018 37.7982 30.5675 37.3763 29.7961L35.6841 26.702Z" fill="#646464"/>
<path d="M4 24C4 17.6381 4.23923 13.1686 4.46875 10.3438C4.72624 7.17713 7.17713 4.72625 10.3438 4.46875C13.1686 4.23923 17.6381 4 24 4C30.3619 4 34.8314 4.23924 37.6562 4.46875C40.8229 4.72626 43.2738 7.17712 43.5312 10.3438C43.6704 12.0566 43.8145 22.1856 43.9004 24.9375C43.9348 26.0415 43.0669 26.9655 41.9629 27C40.8591 27.0342 39.9369 26.1663 39.9023 25.0625C39.8084 22.0516 39.6743 12.2604 39.5449 10.668C39.4463 9.45456 38.5455 8.55373 37.332 8.45508C34.6228 8.23497 30.2621 8 24 8C17.7379 8 13.3772 8.23496 10.668 8.45508C9.45455 8.55372 8.55371 9.45454 8.45508 10.668C8.23496 13.3772 8 17.7379 8 24C8 30.2621 8.23496 34.6228 8.45508 37.332C8.55373 38.5454 9.45455 39.4463 10.668 39.5449C12.5179 39.6952 21.3655 39.8554 25.0469 39.9414C26.1511 39.9673 27.0258 40.8841 27 41.9883C26.9741 43.0924 26.0573 43.9672 24.9531 43.9414C21.4174 43.8588 12.3471 43.694 10.3438 43.5312C7.17713 43.2738 4.72625 40.8229 4.46875 37.6562C4.23923 34.8314 4 30.3619 4 24Z" fill="#646464"/>
<path d="M26.8398 24.9561C27.9444 24.9561 28.8398 24.0606 28.8398 22.9561C28.8398 21.8515 27.9444 20.9561 26.8398 20.9561H14C12.8954 20.9561 12 21.8515 12 22.9561C12 24.0606 12.8954 24.9561 14 24.9561H26.8398Z" fill="#646464"/>
<path d="M34 14C35.1046 14 36 14.8954 36 16C36 17.1046 35.1046 18 34 18H14C12.8954 18 12 17.1046 12 16C12 14.8954 12.8954 14 14 14H34Z" fill="#646464"/>
</svg>
