<svg width="48" height="48" viewBox="0 0 48 48" fill="none" xmlns="http://www.w3.org/2000/svg">
<path fill-rule="evenodd" clip-rule="evenodd" d="M15.3281 27.4972C14.2566 25.5383 11.4432 25.5382 10.3716 27.4973L9.02061 29.9675C8.75006 30.4622 8.34333 30.869 7.84863 31.1395L5.37841 32.4905C3.4196 33.5621 3.41931 36.3755 5.37829 37.4471L7.84861 38.7981C8.3433 39.0687 8.75004 39.4754 9.02061 39.9701L10.3716 42.4403C11.4432 44.3994 14.2566 44.3992 15.3281 42.4405L16.6792 39.9701C16.9497 39.4754 17.3565 39.0687 17.8511 38.7981L20.3214 37.4471C22.2806 36.3756 22.2802 33.562 20.3214 32.4905L17.8511 31.1395C17.3564 30.869 16.9497 30.4623 16.6792 29.9676L15.3281 27.4972ZM12.8499 31.3021L12.53 31.8869C12.3616 32.1948 12.1708 32.4883 11.9597 32.7653C11.3715 33.5368 10.6259 34.1798 9.76797 34.649L9.18311 34.9688L9.76797 35.2887C10.9338 35.9263 11.8924 36.8849 12.53 38.0508L12.8499 38.6356L13.1697 38.0508C13.8074 36.885 14.7659 35.9264 15.9318 35.2887L16.5167 34.9688L15.9319 34.649C15.5392 34.4342 15.17 34.183 14.8286 33.8998C14.1566 33.3421 13.5926 32.6601 13.1698 31.8869L12.8499 31.3021Z" fill="url(#paint0_linear_3_11443)"/>
<path fill-rule="evenodd" clip-rule="evenodd" d="M30.7064 5.4503C29.5828 3.39629 26.6324 3.39591 25.5087 5.45044L22.7271 10.5364C21.8511 12.1382 20.5342 13.4551 18.9324 14.3311L13.8465 17.1127C11.7921 18.2363 11.7921 21.1869 13.8465 22.3105L18.9325 25.0921C20.5342 25.9681 21.8512 27.285 22.7271 28.8868L25.5087 33.9727C26.6323 36.0271 29.583 36.0271 30.7065 33.9727L33.4882 28.8867C34.3641 27.285 35.6811 25.9681 37.2828 25.0921L42.3689 22.3104C44.4229 21.1868 44.4233 18.2363 42.3688 17.1127L37.2828 14.3311C35.6811 13.4551 34.3641 12.1381 33.4881 10.5364L30.7064 5.4503ZM29.9787 12.4557L28.1076 9.03464L26.2366 12.4558C24.9935 14.7287 23.1247 16.5975 20.8518 17.8405L17.4307 19.7116L20.8518 21.5827C23.1247 22.8257 24.9935 24.6945 26.2366 26.9674L28.1076 30.3885L29.9787 26.9674C31.2218 24.6945 33.0906 22.8257 35.3635 21.5826L38.7846 19.7116L35.3635 17.8405C33.0906 16.5975 31.2217 14.7287 29.9787 12.4557Z" fill="url(#paint1_linear_3_11443)"/>
<defs>
<linearGradient id="paint0_linear_3_11443" x1="3.90918" y1="23.9096" x2="43.9096" y2="23.9096" gradientUnits="userSpaceOnUse">
<stop stop-color="#7A28E2"/>
<stop offset="1" stop-color="#C100B6"/>
</linearGradient>
<linearGradient id="paint1_linear_3_11443" x1="3.90918" y1="23.9096" x2="43.9096" y2="23.9096" gradientUnits="userSpaceOnUse">
<stop stop-color="#7A28E2"/>
<stop offset="1" stop-color="#C100B6"/>
</linearGradient>
</defs>
</svg>
