<svg width="48" height="48" viewBox="0 0 48 48" fill="none" xmlns="http://www.w3.org/2000/svg">
<path fill-rule="evenodd" clip-rule="evenodd" d="M21 8C13.8203 8 8 13.8203 8 21C8 28.1797 13.8203 34 21 34C28.1797 34 34 28.1797 34 21C34 13.8203 28.1797 8 21 8ZM4 21C4 11.6112 11.6112 4 21 4C30.3888 4 38 11.6112 38 21C38 30.3888 30.3888 38 21 38C11.6112 38 4 30.3888 4 21Z" fill="url(#paint0_linear_4071_246)"/>
<path fill-rule="evenodd" clip-rule="evenodd" d="M38.9916 31.2599C40.1744 32.2134 41.4055 33.2547 42.5068 34.445C44.6929 36.8079 44.2462 40.0048 42.2233 42.0397C41.2769 42.9916 40.0489 43.716 38.6618 43.9009C37.2216 44.0929 35.7678 43.6767 34.5622 42.6135C33.3167 41.515 32.2449 40.2511 31.2776 39.043C30.9658 38.6534 30.6695 38.276 30.3812 37.9088C29.741 37.0934 29.14 36.328 28.4944 35.5895L31.5056 32.9566C32.2237 33.7779 32.9308 34.6783 33.6013 35.5321C33.8743 35.8796 34.1412 36.2195 34.4003 36.5431C35.3331 37.7083 36.2305 38.7514 37.208 39.6136C37.5559 39.9204 37.8553 39.9731 38.1332 39.936C38.4643 39.8919 38.9195 39.6893 39.3866 39.2195C40.1375 38.4641 40.0803 37.7123 39.5707 37.1615C38.674 36.1923 37.6284 35.2988 36.4812 34.374C36.1747 34.1269 35.8562 33.874 35.5315 33.6162C34.6802 32.9402 33.7867 32.2306 32.9576 31.5056L35.5906 28.4944C36.3438 29.153 37.1215 29.7706 37.9435 30.4232C38.2847 30.6942 38.6337 30.9713 38.9916 31.2599Z" fill="url(#paint1_linear_4071_246)"/>
<defs>
<linearGradient id="paint0_linear_4071_246" x1="4" y1="23.9731" x2="43.9552" y2="23.9731" gradientUnits="userSpaceOnUse">
<stop stop-color="#7A28E2"/>
<stop offset="1" stop-color="#C100B6"/>
</linearGradient>
<linearGradient id="paint1_linear_4071_246" x1="4" y1="23.9731" x2="43.9552" y2="23.9731" gradientUnits="userSpaceOnUse">
<stop stop-color="#7A28E2"/>
<stop offset="1" stop-color="#C100B6"/>
</linearGradient>
</defs>
</svg>
