<svg width="48" height="48" viewBox="0 0 48 48" fill="none" xmlns="http://www.w3.org/2000/svg">
<path d="M34.3673 20.3986C35.1484 19.6175 35.1484 18.3512 34.3673 17.5702C33.5863 16.7891 32.32 16.7891 31.5389 17.5702L20.9531 28.1559L16.4455 23.6483C15.6644 22.8672 14.3981 22.8672 13.617 23.6483C12.836 24.4293 12.836 25.6957 13.617 26.4767L19.5389 32.3986C20.32 33.1796 21.5863 33.1796 22.3673 32.3986L34.3673 20.3986Z" fill="url(#paint0_linear_4737_102)"/>
<path fill-rule="evenodd" clip-rule="evenodd" d="M24 4C12.9543 4 4 12.9543 4 24C4 35.0457 12.9543 44 24 44C35.0457 44 44 35.0457 44 24C44 12.9543 35.0457 4 24 4ZM8 24C8 15.1634 15.1634 8 24 8C32.8366 8 40 15.1634 40 24C40 32.8366 32.8366 40 24 40C15.1634 40 8 32.8366 8 24Z" fill="url(#paint1_linear_4737_102)"/>
<defs>
<linearGradient id="paint0_linear_4737_102" x1="4" y1="24" x2="44" y2="24" gradientUnits="userSpaceOnUse">
<stop stop-color="#7A28E2"/>
<stop offset="1" stop-color="#C100B6"/>
</linearGradient>
<linearGradient id="paint1_linear_4737_102" x1="4" y1="24" x2="44" y2="24" gradientUnits="userSpaceOnUse">
<stop stop-color="#7A28E2"/>
<stop offset="1" stop-color="#C100B6"/>
</linearGradient>
</defs>
</svg>
