<svg width="48" height="48" viewBox="0 0 48 48" fill="none" xmlns="http://www.w3.org/2000/svg">
<path d="M22.1999 23.3401C22.1999 24.7801 21.4599 26.0601 20.3399 26.8201C22.2199 27.5601 23.6199 29.1801 23.9999 31.3001C24.1199 31.9801 23.6199 32.5601 22.9399 32.6401C22.0199 32.7401 20.4399 32.8601 18.0199 32.8601C15.5999 32.8601 14.0399 32.7401 13.0999 32.6401C12.3999 32.5801 11.9199 31.9801 12.0399 31.3001C12.4199 29.1801 13.8199 27.5601 15.6999 26.8201C14.5799 26.0601 13.8399 24.8001 13.8399 23.3401C13.8399 21.0201 15.7199 19.1401 18.0199 19.1401C20.3199 19.1401 22.1999 21.0201 22.1999 23.3401Z" fill="url(#paint0_linear_4071_250)"/>
<path d="M34 34H30C28.9 34 28 33.1 28 32C28 30.9 28.9 30 30 30H34C35.1 30 36 30.9 36 32C36 33.1 35.1 34 34 34Z" fill="url(#paint1_linear_4071_250)"/>
<path d="M30 28H34C35.1 28 36 27.1 36 26C36 24.9 35.1 24 34 24H30C28.9 24 28 24.9 28 26C28 27.1 28.9 28 30 28Z" fill="url(#paint2_linear_4071_250)"/>
<path d="M34 22H30C28.9 22 28 21.1 28 20C28 18.9 28.9 18 30 18H34C35.1 18 36 18.9 36 20C36 21.1 35.1 22 34 22Z" fill="url(#paint3_linear_4071_250)"/>
<path fill-rule="evenodd" clip-rule="evenodd" d="M29.2491 9.05071C29.2392 8.49072 29.223 8.02665 29.2002 7.64012C29.1002 5.66012 27.6002 4.14012 25.6402 4.04012C24.7602 3.98012 23.2402 3.98012 22.3602 4.04012C20.4002 4.16012 18.9002 5.66012 18.8002 7.64012C18.7775 8.02646 18.7612 8.49028 18.7514 9.04991C14.4376 9.1348 11.4605 9.32269 9.66 9.48002C6.82 9.72002 4.64 11.84 4.38 14.62C4.2 16.6 4 21.32 4 26.46C4 30.62 4.12 34.08 4.38 36.74C4.66 39.52 6.82 41.64 9.66 41.88C12.2576 42.0998 16.8315 42.3595 23.98 42.36C31.1285 42.3595 35.7024 42.0998 38.3 41.88C41.14 41.64 43.32 39.52 43.58 36.74C43.82 34.08 43.96 30.62 43.96 26.46C43.96 21.32 43.78 16.62 43.58 14.62C43.3 11.84 41.14 9.72002 38.3 9.48002C36.5051 9.32318 33.541 9.13598 29.2491 9.05071ZM25.28 10.6254C25.2801 10.5775 25.2802 10.5291 25.2802 10.4801C25.2802 9.42012 25.2602 8.62012 25.2202 8.00012C24.5202 7.96012 23.4602 7.96012 22.7802 8.00012C22.7602 8.60012 22.7402 9.42012 22.7402 10.4801C22.7402 11.5401 22.7602 12.3401 22.7802 12.9601C23.4748 12.9998 24.5238 13.0001 25.2043 12.961C25.2228 12.4436 25.24 11.8179 25.24 11.02C25.24 10.8856 25.2536 10.7536 25.28 10.6254ZM18.7827 13.0187L18.78 13.02C14.6 13.1 11.74 13.3 10 13.44C9.08 13.52 8.46 14.1 8.36 14.98C8.18 16.84 8 21.48 8 26.44C8 31.4 8.2 34.6 8.36 36.34C8.44 37.22 9.06 37.8 10 37.88C12.52 38.1 16.98 38.34 24 38.34C31.02 38.34 35.48 38.08 38 37.88C38.92 37.8 39.56 37.2 39.64 36.34C39.8 34.6 40 31.46 40 26.44C40 21.42 39.82 16.82 39.64 14.98C39.56 14.12 38.92 13.52 38 13.44C36.26 13.3 33.4 13.1 29.24 13.02C29.24 13.16 29.24 13.3 29.22 13.42C29.12 15.38 27.62 16.9 25.66 17C24.76 17.04 23.26 17.04 22.38 17C21.0219 16.9169 19.8847 16.1712 19.2811 15.0624C19.0017 14.5604 18.8317 13.983 18.8002 13.3601C18.7939 13.2524 18.7881 13.1388 18.7827 13.0187Z" fill="url(#paint4_linear_4071_250)"/>
<defs>
<linearGradient id="paint0_linear_4071_250" x1="4" y1="23.1776" x2="43.96" y2="23.1776" gradientUnits="userSpaceOnUse">
<stop stop-color="#7A28E2"/>
<stop offset="1" stop-color="#C100B6"/>
</linearGradient>
<linearGradient id="paint1_linear_4071_250" x1="4" y1="23.1776" x2="43.96" y2="23.1776" gradientUnits="userSpaceOnUse">
<stop stop-color="#7A28E2"/>
<stop offset="1" stop-color="#C100B6"/>
</linearGradient>
<linearGradient id="paint2_linear_4071_250" x1="4" y1="23.1776" x2="43.96" y2="23.1776" gradientUnits="userSpaceOnUse">
<stop stop-color="#7A28E2"/>
<stop offset="1" stop-color="#C100B6"/>
</linearGradient>
<linearGradient id="paint3_linear_4071_250" x1="4" y1="23.1776" x2="43.96" y2="23.1776" gradientUnits="userSpaceOnUse">
<stop stop-color="#7A28E2"/>
<stop offset="1" stop-color="#C100B6"/>
</linearGradient>
<linearGradient id="paint4_linear_4071_250" x1="4" y1="23.1776" x2="43.96" y2="23.1776" gradientUnits="userSpaceOnUse">
<stop stop-color="#7A28E2"/>
<stop offset="1" stop-color="#C100B6"/>
</linearGradient>
</defs>
</svg>
