<svg width="48" height="48" viewBox="0 0 48 48" fill="none" xmlns="http://www.w3.org/2000/svg">
<path fill-rule="evenodd" clip-rule="evenodd" d="M20.52 42.2601C21.4 42.3201 22.54 42.3601 24 42.3601C25.48 42.3601 26.62 42.3201 27.5 42.2601C30.06 42.1001 32 40.1801 32.2 37.5801C32.345 35.6947 32.5065 32.1822 32.5354 26H40C41.1 26 42 25.1 42 24C42 22.9 41.1 22 40 22H32.5351C32.5107 17.0514 32.3944 13.0717 32.2 10.4201C32 7.82014 30.06 5.90014 27.5 5.74014C26.62 5.68014 25.48 5.64014 24 5.64014C22.52 5.64014 21.38 5.68014 20.5 5.74014C17.94 5.90014 16 7.82014 15.82 10.4201C15.6077 13.0551 15.4894 17.0349 15.4648 22H8C6.9 22 6 22.9 6 24C6 25.1 6.9 26 8 26H15.465C15.4969 32.1969 15.6749 35.6942 15.82 37.5801C16.02 40.1801 17.94 42.1001 20.52 42.2601ZM20.76 9.72014C21.58 9.68014 22.64 9.64014 24 9.64014C25.36 9.64014 26.42 9.66014 27.24 9.72014C27.98 9.78014 28.16 10.3001 28.2 10.7201C28.36 12.7401 28.54 16.6801 28.54 24.0001C28.54 31.3201 28.36 35.2601 28.2 37.2801C28.18 37.7001 27.98 38.2401 27.24 38.2801C26.42 38.3201 25.36 38.3601 24 38.3601C22.64 38.3601 21.58 38.3401 20.76 38.2801C20.02 38.2401 19.84 37.7201 19.8 37.2801C19.64 35.2601 19.46 31.3401 19.46 24.0001C19.46 16.6601 19.64 12.7401 19.8 10.7201C19.82 10.2801 20.02 9.76014 20.76 9.72014Z" fill="#646464"/>
</svg>
