<svg width="48" height="48" viewBox="0 0 48 48" fill="none" xmlns="http://www.w3.org/2000/svg">
<path fill-rule="evenodd" clip-rule="evenodd" d="M27.2701 8.1765C27.2349 7.33543 26.7573 6.65293 25.9523 6.59558C25.7571 6.58165 25.5338 6.57324 25.2795 6.57324C25.0251 6.57324 24.8019 6.58165 24.6066 6.59558C23.8016 6.65293 23.3241 7.33543 23.2888 8.1765C23.2294 9.59257 23.1599 18.4378 23.1599 23.9998C23.1599 29.5618 23.2294 38.407 23.2888 39.823C23.3241 40.6641 23.8016 41.3466 24.6066 41.404C24.8018 41.4179 25.0251 41.4263 25.2795 41.4263C25.5338 41.4263 25.7571 41.4179 25.9523 41.404C26.7573 41.3466 27.2349 40.6641 27.2701 39.823C27.3295 38.407 27.3991 29.5618 27.3991 23.9998C27.3991 18.4378 27.3295 9.59257 27.2701 8.1765ZM19.5445 25.8869C20.3255 25.1058 20.3255 23.8395 19.5445 23.0584L13.8876 17.4016C13.1066 16.6205 11.8402 16.6205 11.0592 17.4016C10.2781 18.1826 10.2781 19.449 11.0592 20.23L13.3018 22.4726L3.9883 22.4725C2.88373 22.4725 1.98829 23.3679 1.98828 24.4725C1.98827 25.577 2.88369 26.4725 3.98826 26.4725L13.3019 26.4726L11.0592 28.7153C10.2781 29.4963 10.2781 30.7627 11.0592 31.5437C11.8402 32.3248 13.1066 32.3248 13.8876 31.5437L19.5445 25.8869ZM32.7634 12.6968C31.9223 12.7321 31.2398 13.2096 31.1825 14.0146C31.1686 14.2099 31.1602 14.4331 31.1602 14.6875C31.1602 14.9419 31.1686 15.1651 31.1825 15.3604C31.2398 16.1653 31.9223 16.6429 32.7634 16.6781C32.9861 16.6875 33.1946 16.6971 33.4019 16.7066L33.4029 16.7067C34.5131 16.7577 35.5857 16.8071 38.5867 16.8071C41.5876 16.8071 42.6602 16.7577 43.7704 16.7067L43.7705 16.7067C43.9781 16.6971 44.1869 16.6875 44.41 16.6782C45.251 16.6429 45.9335 16.1653 45.9909 15.3604C46.0048 15.1651 46.0132 14.9419 46.0132 14.6875C46.0132 14.4331 46.0048 14.2099 45.9909 14.0146C45.9335 13.2096 45.251 12.7321 44.41 12.6968C44.1871 12.6874 43.9784 12.6778 43.771 12.6683L43.7705 12.6683C42.6602 12.6172 41.5877 12.5679 38.5867 12.5679C35.5857 12.5679 34.5131 12.6172 33.4029 12.6683C33.1953 12.6778 32.9864 12.6874 32.7634 12.6968ZM32.7634 31.6611C31.9223 31.6964 31.2398 32.174 31.1825 32.9789C31.1686 33.1742 31.1602 33.3974 31.1602 33.6518C31.1602 33.9062 31.1686 34.1294 31.1825 34.3247C31.2398 35.1297 31.9223 35.6072 32.7634 35.6425C32.9864 35.6519 33.1953 35.6615 33.4029 35.671C34.5131 35.7221 35.5857 35.7714 38.5867 35.7714C39.7315 35.7714 40.4913 35.7341 41.373 35.6908C41.6943 35.675 42.0318 35.6584 42.41 35.6425C43.251 35.6072 43.9335 35.1297 43.9909 34.3247C44.0048 34.1294 44.0132 33.9062 44.0132 33.6518C44.0132 33.3974 44.0048 33.1742 43.9909 32.9789C43.9335 32.174 43.251 31.6964 42.41 31.6611C42.0318 31.6453 41.6944 31.6287 41.3732 31.6129C40.4914 31.5696 39.7316 31.5322 38.5867 31.5322C35.5857 31.5322 34.5131 31.5816 33.4029 31.6326C33.1953 31.6422 32.9864 31.6518 32.7634 31.6611ZM31.1825 23.4965C31.2398 22.6916 31.9223 22.214 32.7634 22.1787C33.1415 22.1629 33.4789 22.1463 33.8002 22.1305C34.682 22.0871 35.4418 22.0498 36.5867 22.0498C37.7316 22.0498 38.4914 22.0871 39.3732 22.1305C39.6944 22.1463 40.0318 22.1629 40.41 22.1787C41.251 22.214 41.9335 22.6916 41.9909 23.4965C42.0048 23.6918 42.0132 23.915 42.0132 24.1694C42.0132 24.4238 42.0048 24.647 41.9909 24.8423C41.9335 25.6473 41.251 26.1248 40.41 26.1601C40.0318 26.176 39.6944 26.1925 39.3731 26.2083H39.3731C38.4913 26.2517 37.7315 26.289 36.5867 26.289C35.4418 26.289 34.682 26.2517 33.8003 26.2083L33.8002 26.2083C33.4789 26.1925 33.1415 26.1759 32.7634 26.1601C31.9223 26.1248 31.2398 25.6473 31.1825 24.8423C31.1686 24.647 31.1602 24.4238 31.1602 24.1694C31.1602 23.915 31.1686 23.6918 31.1825 23.4965Z" fill="#646464"/>
</svg>
