<svg width="48" height="48" viewBox="0 0 48 48" fill="none" xmlns="http://www.w3.org/2000/svg">
<path d="M8 6C6.9 6 6 6.9 6 8C6 9.1 6.9 10 8 10H40C41.1 10 42 9.1 42 8C42 6.9 41.1 6 40 6H8Z" fill="#646464"/>
<path fill-rule="evenodd" clip-rule="evenodd" d="M20.5 43.0998C21.38 43.1398 22.52 43.1798 24 43.1798C25.48 43.1798 26.62 43.1398 27.5 43.0998C30.08 42.9798 32.02 41.0998 32.24 38.5598C32.44 36.1798 32.54 32.7998 32.54 28.4998C32.54 24.1998 32.44 20.8198 32.24 18.4398C32.02 15.8998 30.06 14.0198 27.5 13.8998C26.62 13.8598 25.48 13.8198 24 13.8198C22.52 13.8198 21.38 13.8598 20.5 13.8998C17.92 14.0198 15.98 15.8998 15.76 18.4398C15.56 20.8198 15.46 24.2198 15.46 28.4998C15.46 32.7798 15.56 36.1798 15.76 38.5598C15.98 41.0998 17.94 42.9798 20.5 43.0998ZM20.7 17.8998C21.52 17.8598 22.6 17.8198 24 17.8198H23.98C25.38 17.8198 26.46 17.8598 27.28 17.8998C27.88 17.9198 28.2 18.2198 28.24 18.7798C28.36 20.3398 28.52 23.2798 28.52 28.4998C28.52 33.7198 28.38 36.6598 28.24 38.2198C28.2 38.7798 27.88 39.0798 27.3 39.0998C26.48 39.1598 25.38 39.1798 24 39.1798C22.62 39.1798 21.52 39.1398 20.7 39.0998C20.12 39.0798 19.8 38.7798 19.76 38.2198C19.62 36.6598 19.46 33.6998 19.46 28.4998C19.46 23.2998 19.62 20.3398 19.76 18.7798C19.8 18.2198 20.12 17.9198 20.7 17.8998Z" fill="#646464"/>
</svg>
