<svg width="48" height="48" viewBox="0 0 48 48" fill="none" xmlns="http://www.w3.org/2000/svg">
<path d="M24 4C17.6381 4 13.1691 4.23902 10.3442 4.46853C7.1772 4.72584 4.72585 7.17719 4.46855 10.3442C4.23903 13.1691 4 17.6381 4 24C4 26.2517 4.02994 28.2662 4.0788 30.0546C4.10897 31.1588 5.02852 32.0294 6.13268 31.9993C7.23684 31.9691 8.10748 31.0495 8.07731 29.9454C8.02947 28.1943 8 26.2162 8 24C8 17.7379 8.23529 13.3773 8.45541 10.6681C8.554 9.45459 9.4546 8.55399 10.6681 8.4554C13.3773 8.23528 17.7379 8 24 8C26.2162 8 28.1943 8.02947 29.9454 8.07731C31.0495 8.10748 31.9691 7.23684 31.9993 6.13268C32.0294 5.02852 31.1588 4.10897 30.0546 4.0788C28.2662 4.02994 26.2517 4 24 4Z" fill="#646464"/>
<path d="M43.9212 17.9454C43.891 16.8412 42.9715 15.9706 41.8673 16.0007C40.7632 16.0309 39.8925 16.9505 39.9227 18.0546C39.9705 19.8057 40 21.7838 40 24C40 30.2621 39.7647 34.6227 39.5446 37.3319C39.446 38.5454 38.5454 39.446 37.3319 39.5446C34.6227 39.7647 30.2621 40 24 40C21.7838 40 19.8057 39.9705 18.0546 39.9227C16.9505 39.8925 16.0309 40.7632 16.0007 41.8673C15.9706 42.9715 16.8412 43.891 17.9454 43.9212C19.7338 43.9701 21.7483 44 24 44C30.3619 44 34.8309 43.761 37.6558 43.5314C40.8228 43.2741 43.2741 40.8228 43.5314 37.6558C43.761 34.8309 44 30.3619 44 24C44 21.7483 43.9701 19.7338 43.9212 17.9454Z" fill="#646464"/>
<path d="M40.5858 4.58579C41.3668 3.80474 42.6332 3.80474 43.4142 4.58579C44.1953 5.36684 44.1953 6.63317 43.4142 7.41421L7.41422 43.4142C6.63316 44.1953 5.36684 44.1953 4.58579 43.4142C3.80474 42.6332 3.80474 41.3668 4.58579 40.5858L40.5858 4.58579Z" fill="#646464"/>
</svg>
