<svg width="48" height="48" viewBox="0 0 48 48" fill="none" xmlns="http://www.w3.org/2000/svg">
<path fill-rule="evenodd" clip-rule="evenodd" d="M24.0001 6C22.8955 6 22.0001 6.89543 22.0001 8C22.0001 9.10457 22.8955 10 24.0001 10C25.1046 10 26.0001 9.10457 26.0001 8C26.0001 6.89543 25.1046 6 24.0001 6ZM18.0001 8C18.0001 4.68629 20.6864 2 24.0001 2C27.3138 2 30.0001 4.68629 30.0001 8C30.0001 10.6124 28.3304 12.8349 26.0001 13.6586V16H30.0001C31.1046 16 32.0001 16.8954 32.0001 18C32.0001 19.1046 31.1046 20 30.0001 20H26.0001V40.6667L33.8236 36.4941C35.7788 35.4514 37.0001 33.4159 37.0001 31.2V30H35.0001C34.1911 30 33.4619 29.5127 33.1523 28.7654C32.8427 28.018 33.0138 27.1578 33.5858 26.5858L37.5858 22.5858C38.3669 21.8047 39.6332 21.8047 40.4143 22.5858L44.4143 26.5858C44.9863 27.1578 45.1574 28.018 44.8478 28.7654C44.5383 29.5127 43.809 30 43.0001 30H41.0001V31.2C41.0001 34.8931 38.9646 38.2856 35.7059 40.0235L24.9412 45.7647C24.353 46.0784 23.6471 46.0784 23.0589 45.7647L12.2942 40.0235C9.03554 38.2856 7.00006 34.8931 7.00006 31.2V30H5.00006C4.19113 30 3.46186 29.5127 3.1523 28.7654C2.84274 28.018 3.01385 27.1578 3.58584 26.5858L7.58584 22.5858C8.36689 21.8047 9.63322 21.8047 10.4143 22.5858L14.4143 26.5858C14.9863 27.1578 15.1574 28.018 14.8478 28.7654C14.5383 29.5127 13.809 30 13.0001 30H11.0001V31.2C11.0001 33.4159 12.2213 35.4514 14.1765 36.4941L22.0001 40.6667V20H18.0001C16.8955 20 16.0001 19.1046 16.0001 18C16.0001 16.8954 16.8955 16 18.0001 16H22.0001V13.6586C19.6697 12.8349 18.0001 10.6124 18.0001 8Z" fill="#646464"/>
</svg>
