<svg width="48" height="48" viewBox="0 0 48 48" fill="none" xmlns="http://www.w3.org/2000/svg">
<path fill-rule="evenodd" clip-rule="evenodd" d="M33.7676 9.59893C32.1288 9.59893 30.9101 9.68751 30.0418 9.79242C29.5905 9.84695 29.2483 10.1616 29.2157 10.7591C29.1706 11.5865 29.1353 12.7177 29.1353 14.2312C29.1353 15.7448 29.1706 16.876 29.2157 17.7033C29.2483 18.3009 29.5905 18.6155 30.0418 18.6701C30.9101 18.775 32.1289 18.8636 33.7676 18.8636C35.4063 18.8636 36.625 18.775 37.4934 18.6701C37.9446 18.6155 38.2869 18.3009 38.3196 17.7034C38.3647 16.8761 38.3999 15.7449 38.3999 14.2312C38.3999 12.7176 38.3647 11.5864 38.3196 10.759C38.2869 10.1616 37.9447 9.84695 37.4934 9.79242C36.6251 9.68751 35.4064 9.59893 33.7676 9.59893ZM41.9142 10.5629C41.7943 8.3668 40.2515 6.4995 37.9253 6.21842C36.8991 6.09443 35.5353 5.99893 33.7676 5.99893C32 5.99893 30.6362 6.09443 29.61 6.21842C27.2838 6.4995 25.7409 8.3668 25.621 10.5629C25.5718 11.4654 25.5353 12.6629 25.5353 14.2312C25.5353 15.7997 25.5718 16.997 25.621 17.8995C25.7409 20.0956 27.2838 21.963 29.61 22.2441C30.6361 22.368 32 22.4636 33.7676 22.4636C35.5353 22.4636 36.8991 22.368 37.9252 22.2441C40.2514 21.963 41.7943 20.0957 41.9142 17.8996C41.9634 16.9971 41.9999 15.7997 41.9999 14.2312C41.9999 12.6629 41.9634 11.4654 41.9142 10.5629ZM14.2324 9.59899C12.5936 9.59899 11.3749 9.68757 10.5066 9.79248C10.0553 9.84702 9.71306 10.1617 9.68046 10.7592C9.63531 11.5865 9.60006 12.7177 9.60006 14.2313C9.60006 15.745 9.63531 16.8761 9.68046 17.7035C9.71306 18.3009 10.0552 18.6156 10.5065 18.6701C11.3749 18.775 12.5936 18.8636 14.2324 18.8636C15.8711 18.8636 17.0898 18.775 17.9582 18.6702C18.4094 18.6156 18.7517 18.301 18.7843 17.7035C18.8294 16.8761 18.8647 15.7449 18.8647 14.2313C18.8647 12.7178 18.8294 11.5866 18.7843 10.7592C18.7517 10.1617 18.4094 9.84702 17.9582 9.79248M22.379 10.563C22.2591 8.36686 20.7162 6.49956 18.39 6.21848C17.3638 6.09449 16 5.99899 14.2324 5.99899C12.4647 5.99899 11.1009 6.09449 10.0748 6.21848C7.74851 6.49956 6.20565 8.36686 6.08581 10.563C6.03656 11.4655 6.00006 12.6629 6.00006 14.2313C6.00006 15.7997 6.03656 16.9971 6.08581 17.8996C6.20565 20.0957 7.7485 21.9631 10.0748 22.2441C11.1009 22.3681 12.4647 22.4636 14.2324 22.4636C16 22.4636 17.3638 22.3681 18.39 22.2442C20.7162 21.9631 22.2591 20.0957 22.379 17.8997C22.4282 16.9972 22.4647 15.7997 22.4647 14.2313C22.4647 12.6629 22.4282 11.4654 22.379 10.563ZM14.2324 9.59899C15.8711 9.59899 17.0899 9.68757 17.9582 9.79248L14.2324 9.59899ZM33.765 25.5291C34.7591 25.5291 35.565 26.335 35.565 27.3291L35.565 31.9641H40.2C41.1941 31.9641 42 32.77 42 33.7641C42 34.7582 41.1941 35.5641 40.2 35.5641H35.565V40.1991C35.565 41.1932 34.7591 41.9991 33.765 41.9991C32.7709 41.9991 31.965 41.1932 31.965 40.1991L31.965 35.5641H27.33C26.3359 35.5641 25.53 34.7582 25.53 33.7641C25.53 32.77 26.3359 31.9641 27.33 31.9641H31.965V27.3291C31.965 26.335 32.7709 25.5291 33.765 25.5291ZM14.2323 29.1342C12.5936 29.1342 11.3749 29.2228 10.5065 29.3277C10.0552 29.3822 9.713 29.6969 9.6804 30.2944C9.63525 31.1218 9.59999 32.2529 9.59999 33.7666C9.59999 35.2802 9.63525 36.4113 9.6804 37.2387C9.713 37.8362 10.0552 38.1509 10.5065 38.2054C11.3749 38.3103 12.5936 38.3989 14.2323 38.3989C15.871 38.3989 17.0897 38.3103 17.9581 38.2054C18.4093 38.1508 18.7516 37.8362 18.7843 37.2388C18.8294 36.4114 18.8646 35.2801 18.8646 33.7666C18.8646 32.253 18.8294 31.1218 18.7843 30.2945C18.7516 29.697 18.4094 29.3823 17.9582 29.3277C17.0898 29.2228 15.871 29.1342 14.2323 29.1342ZM18.3899 25.7537C17.3638 25.6298 16 25.5342 14.2323 25.5342C12.4646 25.5342 11.1009 25.6298 10.0747 25.7537C7.74849 26.0348 6.20559 27.9021 6.08575 30.0983C6.0365 31.0008 6 32.1981 6 33.7666C6 35.335 6.0365 36.5323 6.08575 37.4349C6.20559 39.631 7.74844 41.4983 10.0747 41.7794C11.1008 41.9033 12.4646 41.9989 14.2323 41.9989C16 41.9989 17.3638 41.9034 18.3899 41.7794C20.7161 41.4983 22.259 39.631 22.3789 37.4349C22.4281 36.5324 22.4646 35.335 22.4646 33.7666C22.4646 32.1981 22.4281 31.0008 22.3789 30.0983C22.259 27.9022 20.7161 26.0348 18.3899 25.7537Z" fill="#646464"/>
</svg>
