<svg width="48" height="48" viewBox="0 0 48 48" fill="none" xmlns="http://www.w3.org/2000/svg">
<path d="M39.2472 17.6374C39.0151 17.8174 34.9187 20.1256 34.9187 25.2581C34.9187 31.1947 40.1312 33.2949 40.2873 33.3469C40.2633 33.4749 39.4592 36.2232 37.539 39.0235C35.8268 41.4877 34.0386 43.948 31.3184 43.948C28.5981 43.948 27.898 42.3678 24.7577 42.3678C21.6974 42.3678 20.6093 44 18.121 44C15.6328 44 13.8966 41.7198 11.9004 38.9195C9.58819 35.6312 7.72 30.5227 7.72 25.6742C7.72 17.8974 12.7765 13.773 17.753 13.773C20.3973 13.773 22.6015 15.5092 24.2617 15.5092C25.8418 15.5092 28.3061 13.669 31.3144 13.669C32.4545 13.669 36.5509 13.773 39.2472 17.6374ZM29.8862 10.3766C31.1303 8.90049 32.0104 6.85229 32.0104 4.80408C32.0104 4.52005 31.9864 4.23202 31.9344 4C29.9102 4.07601 27.502 5.34813 26.0498 7.0323C24.9097 8.32843 23.8456 10.3766 23.8456 12.4528C23.8456 12.7649 23.8976 13.0769 23.9216 13.1769C24.0496 13.2009 24.2577 13.2289 24.4657 13.2289C26.2819 13.2289 28.5661 12.0128 29.8862 10.3766Z" fill="#202020"/>
</svg>
