<svg width="48" height="48" viewBox="0 0 48 48" fill="none" xmlns="http://www.w3.org/2000/svg">
<path d="M24 4C12.9543 4 4 12.9543 4 24C4 35.0457 12.9543 44 24 44C24.454 44 24.9047 43.9848 25.3517 43.955C26.4538 43.8813 27.2876 42.9282 27.2139 41.826C27.1402 40.7239 26.1871 39.8902 25.085 39.9639C24.7267 39.9878 24.3649 40 24 40C20.6202 40 17.4851 38.952 14.902 37.1633C15.7158 35.9232 17.5134 33.7784 20.6154 32.8304C21.3951 32.5922 21.9521 31.9046 22.0233 31.0925C22.0945 30.2804 21.6657 29.5063 20.9394 29.136C18.7446 28.0169 17.2485 25.7389 17.2485 23.115C17.2485 19.3853 20.272 16.3618 24.0017 16.3618C27.7313 16.3618 30.7548 19.3853 30.7548 23.115C30.7548 24.2195 31.6502 25.115 32.7548 25.115C33.8594 25.115 34.7548 24.2195 34.7548 23.115C34.7548 17.1761 29.9404 12.3618 24.0017 12.3618C18.0629 12.3618 13.2485 17.1761 13.2485 23.115C13.2485 25.9669 14.359 28.5579 16.1681 30.4811C14.1369 31.728 12.7542 33.2823 11.901 34.4701C9.47056 31.664 8 28.0037 8 24C8 15.1634 15.1634 8 24 8C32.5722 8 39.5709 14.7421 39.981 23.2117C40.0344 24.315 40.9721 25.166 42.0753 25.1126C43.1786 25.0592 44.0297 24.1215 43.9763 23.0182C43.4635 12.4277 34.7166 4 24 4Z" fill="#646464"/>
<path d="M26.2803 30C26.2803 28.8954 27.1757 28 28.2803 28H41.9946C43.0991 28 43.9946 28.8954 43.9946 30C43.9946 31.1046 43.0991 32 41.9946 32H28.2803C27.1757 32 26.2803 31.1046 26.2803 30Z" fill="#646464"/>
<path d="M29.9951 34C28.8905 34 27.9951 34.8954 27.9951 36C27.9951 37.1046 28.8905 38 29.9951 38H40.2808C41.3854 38 42.2808 37.1046 42.2808 36C42.2808 34.8954 41.3854 34 40.2808 34H29.9951Z" fill="#646464"/>
<path d="M33.4238 40C32.3193 40 31.4238 40.8954 31.4238 42C31.4238 43.1046 32.3193 44 33.4238 44H36.8524C37.957 44 38.8524 43.1046 38.8524 42C38.8524 40.8954 37.957 40 36.8524 40H33.4238Z" fill="#646464"/>
</svg>
