<svg width="48" height="48" viewBox="0 0 48 48" fill="none" xmlns="http://www.w3.org/2000/svg">
<path d="M24.7253 43.1304C17.7307 43.1304 11.059 40.1422 6.37201 34.8711C5.86984 34.3093 5.72636 33.5084 5.9894 32.8032C7.28071 29.3369 10.7481 21.2807 15.1959 21.2568C17.4557 21.2568 19.1536 23.0498 20.5047 24.496C20.8992 24.9144 21.4971 25.5479 21.9155 25.8706C22.9558 24.8188 25.0003 21.4361 26.5905 18.0296C27.0688 17.0136 28.2884 16.5713 29.3047 17.0495C30.321 17.5276 30.7634 18.7348 30.2851 19.7627C25.4308 30.1139 22.9916 30.1139 22.071 30.1139C20.2177 30.1139 18.8547 28.6795 17.5514 27.281C16.9536 26.6475 15.7101 25.3327 15.2199 25.3327C14.1916 25.512 11.9199 29.1098 10.2818 33.0542C14.2155 36.9748 19.5601 39.1382 25.1558 39.0426C29.9862 39.0426 38.3917 38.2417 41.8949 33.0064C41.0102 22.7987 35.3786 8.93352 25.1916 8.93352C16.5829 8.93352 10.1144 14.9099 5.95353 26.6954C5.58288 27.7592 4.41114 28.309 3.35896 27.9384C2.29483 27.5679 1.74482 26.3965 2.11548 25.3327C6.88614 11.7663 14.6459 4.86957 25.1797 4.86957C38.9297 4.86957 45.2547 22.3565 45.996 33.3889C46.0199 33.7953 45.9362 34.1898 45.733 34.5483C42.5406 40.0825 35.2471 43.1304 25.1797 43.1304C25.0242 43.1304 24.8808 43.1304 24.7253 43.1304Z" fill="#1D2D35"/>
</svg>
