<svg width="48" height="48" viewBox="0 0 48 48" fill="none" xmlns="http://www.w3.org/2000/svg">
<path fill-rule="evenodd" clip-rule="evenodd" d="M24 3.14282C16.1783 3.14282 9.66453 9.14315 9.0238 16.9386L8.56202 22.557C8.41069 24.3981 7.82603 26.1775 6.85584 27.7495L5.60819 29.7712C4.74446 31.1707 4.38557 32.8672 4.97616 34.4252C5.59699 36.063 7.07878 37.0561 8.86085 37.2932C10.4172 37.5002 12.5111 37.6917 15.3309 37.823C16.1712 41.8402 19.7333 44.8575 24.0003 44.8575C28.2672 44.8575 31.8294 41.8402 32.6697 37.823C35.4892 37.6917 37.583 37.5002 39.1393 37.2932C40.9214 37.0561 42.4032 36.063 43.024 34.4252C43.6146 32.8671 43.2556 31.1707 42.3919 29.7712L41.1443 27.7495C40.1741 26.1775 39.5894 24.3982 39.4381 22.557L38.9764 16.9387C38.3356 9.14317 31.8219 3.14282 24 3.14282ZM13.0104 17.2663C13.4805 11.5459 18.2604 7.14282 24 7.14282C29.7397 7.14282 34.5196 11.5459 34.9898 17.2664L35.4516 22.8847C35.6546 25.3544 36.4388 27.7414 37.7404 29.8503L38.988 31.8719C39.3905 32.5241 39.3193 32.9133 39.2837 33.0074C39.2667 33.0521 39.24 33.0948 39.1737 33.1428C39.1008 33.1955 38.9342 33.2852 38.6119 33.3281C35.9996 33.6756 31.5324 34 24 34C16.472 34 12.0007 33.6756 9.38829 33.3281C9.06593 33.2852 8.89934 33.1955 8.82646 33.1428C8.76009 33.0948 8.73339 33.0521 8.71646 33.0074C8.68078 32.9133 8.60966 32.5241 9.01215 31.8719L10.2598 29.8502C11.5613 27.7414 12.3456 25.3545 12.5486 22.8847L13.0104 17.2663ZM19.5543 37.9592C20.3074 39.6661 22.0147 40.8575 24.0003 40.8575C25.9858 40.8575 27.6931 39.6661 28.4463 37.9592C27.0901 37.9858 25.6115 38 24 38C22.3886 38 20.9105 37.9858 19.5543 37.9592Z" fill="#646464"/>
</svg>
