<svg width="48" height="48" viewBox="0 0 48 48" fill="none" xmlns="http://www.w3.org/2000/svg">
<path d="M24 3.14258C31.8218 3.14258 38.3358 9.1439 38.9766 16.9395L39.4375 22.5566C39.5888 24.3978 40.1743 26.178 41.1445 27.75L42.3926 29.7715C43.2561 31.171 43.614 32.8679 43.0234 34.4258C42.4024 36.0631 40.9205 37.056 39.1387 37.293C37.5825 37.4999 35.4889 37.691 32.6699 37.8223C31.8296 41.8395 28.2669 44.8574 24 44.8574C19.7333 44.8572 16.1723 41.8393 15.332 37.8223C12.5124 37.691 10.4177 37.5 8.86133 37.293C7.07946 37.0559 5.59752 36.0632 4.97656 34.4258C4.38597 32.8677 4.74565 31.171 5.60938 29.7715L6.85547 27.75C7.82566 26.178 8.41117 24.3978 8.5625 22.5566L9.02344 16.9395C9.66415 9.14409 16.1784 3.14274 24 3.14258ZM8.71875 3.73828C9.494 2.95201 10.7602 2.94375 11.5469 3.71875C12.3334 4.49398 12.3434 5.76013 11.5684 6.54688C9.06173 9.09121 7.30666 12.8765 6.99609 17.2832C6.91845 18.385 5.96121 19.2163 4.85938 19.1387C3.75772 19.0608 2.92823 18.1037 3.00586 17.002C3.37805 11.721 5.49091 7.01467 8.71875 3.73828ZM36.457 3.71875C37.2437 2.94369 38.5099 2.95186 39.2852 3.73828C42.513 7.01468 44.6259 11.721 44.998 17.002C45.0757 18.1036 44.246 19.0607 43.1445 19.1387C42.0427 19.2163 41.0854 18.385 41.0078 17.2832C40.6973 12.8766 38.9421 9.09121 36.4355 6.54688C35.6604 5.76008 35.6704 4.49397 36.457 3.71875Z" fill="#646464"/>
</svg>
