<svg width="48" height="48" viewBox="0 0 48 48" fill="none" xmlns="http://www.w3.org/2000/svg">
<path fill-rule="evenodd" clip-rule="evenodd" d="M31.2398 4.0901C28.0858 4.2781 24.4938 5.1541 21.8398 6.3841L21.2398 6.6621L19.0798 6.6461C16.4098 6.6261 14.8098 6.7701 12.7998 7.2101C9.44977 7.9441 6.06977 9.5401 4.97177 10.9061C3.69777 12.4921 3.75377 14.9041 5.10577 16.6141C5.28377 16.8361 5.97977 17.5221 6.65777 18.1341L7.88777 19.2501L7.77577 19.5221C7.43377 20.3621 7.37977 21.5801 7.64577 22.4781C7.91377 23.3761 8.98777 24.9641 10.7778 27.1021C11.2298 27.6421 11.5998 28.0981 11.5998 28.1141C11.4841 28.1577 11.363 28.1853 11.2398 28.1961C9.76777 28.4161 8.17777 29.4021 7.16777 30.7201C6.19177 31.9921 5.85177 33.0621 5.78377 35.0621C5.70977 37.3021 5.99577 39.6881 6.42777 40.4261C6.68977 40.8741 7.35977 41.4941 7.78177 41.6801C8.60577 42.0421 10.8638 42.2801 12.9098 42.2201C14.4498 42.1741 15.1998 42.0081 16.2698 41.4701C18.0658 40.5701 19.5238 38.6261 19.8038 36.7601C19.8145 36.6369 19.8421 36.5158 19.8858 36.4001C19.9018 36.4001 20.3578 36.7701 20.8978 37.2221C24.3998 40.1521 25.7738 40.8081 27.6418 40.4381L28.3458 40.2981L29.7118 41.6921C31.1798 43.1881 31.6118 43.4961 32.6798 43.8041C33.3558 44.0001 34.5198 43.9841 35.1998 43.7681C35.8538 43.5621 36.6038 43.0741 37.0758 42.5481C37.4598 42.1201 38.2718 40.8221 38.7418 39.8801C40.3898 36.5821 41.3598 32.2061 41.3598 28.0781V26.7401L41.6278 26.1501C43.8358 21.2781 44.5578 14.8301 43.4038 10.2941C42.7918 7.8801 41.7658 6.4181 40.0218 5.4641C38.7238 4.7561 36.5878 4.2361 34.3438 4.0841C33.0318 3.9941 32.8498 3.9941 31.2398 4.0901ZM35.7598 8.1981C36.7738 8.3821 37.8738 8.7401 38.3418 9.0361C39.1498 9.5481 39.6538 10.8801 39.9238 13.2201C40.0578 14.3861 39.9778 17.1481 39.7698 18.4801C39.1858 22.2261 37.9398 25.3581 35.9818 28.0001C35.1138 29.1721 30.9778 33.2321 28.4118 35.4321C27.2378 36.4381 27.0638 36.5581 26.7938 36.5601C26.5938 36.5601 25.3758 35.7801 24.5598 35.1301C21.2838 32.5161 16.4678 27.7881 13.7558 24.5201C12.3438 22.8201 11.4398 21.5201 11.4398 21.1941C11.4398 21.0621 11.5598 20.8141 11.7338 20.5861C13.1978 18.6581 18.6138 13.0441 19.9998 12.0181C21.4549 10.9396 23.0581 10.0767 24.7598 9.4561C26.7598 8.7161 28.4038 8.3421 30.9598 8.0481C31.7118 7.9621 35.0318 8.0661 35.7598 8.1981ZM14.8378 11.3801L13.1558 13.1201C12.4925 13.8064 11.8351 14.4984 11.1838 15.1961L10.3358 16.1141L9.87377 15.7181C9.47418 15.3672 9.08274 15.0071 8.69977 14.6381C8.01777 13.9801 7.98977 13.9401 8.01377 13.6401C8.03777 13.3501 8.07577 13.3061 8.55977 13.0181C9.3573 12.5645 10.1861 12.1682 11.0398 11.8321C12.1838 11.3861 14.4258 10.8241 15.1178 10.8061L15.3958 10.8001L14.8378 11.3801ZM25.1198 14.4701C23.8758 14.7303 22.7252 15.3218 21.7898 16.1821C20.2018 17.6681 19.4898 19.3121 19.4978 21.4801C19.5038 22.9861 19.8258 24.0801 20.6198 25.3021C22.0858 27.5481 24.7398 28.8021 27.3518 28.4861C31.1278 28.0261 33.8278 24.8721 33.6538 21.1201C33.5118 18.0261 31.4998 15.4781 28.5038 14.5941C27.3988 14.3035 26.2431 14.2612 25.1198 14.4701ZM27.6378 18.4521C28.3938 18.7161 29.1738 19.4541 29.4878 20.2041C30.1278 21.7381 29.4018 23.5941 27.8878 24.2941C27.4498 24.4961 27.3118 24.5201 26.5578 24.5201C25.7698 24.5201 25.6818 24.5041 25.1898 24.2601C24.5381 23.93 24.0126 23.3954 23.6938 22.7381C23.5038 22.3321 23.4798 22.1841 23.4798 21.4401C23.4798 20.6841 23.5018 20.5501 23.7098 20.1041C24.1118 19.2301 25.0678 18.4801 25.9778 18.3201C26.4398 18.2401 27.1998 18.3001 27.6378 18.4521ZM14.3278 32.2921C14.9958 32.6061 15.3938 33.0061 15.7078 33.6721C15.9138 34.1141 15.9598 34.3221 15.9858 34.9421C16.0678 36.7741 15.1698 37.9521 13.4698 38.2481C12.9318 38.3421 11.0858 38.3101 10.2298 38.1921C9.85977 38.1401 9.85977 38.1401 9.80777 37.7701C9.69177 36.9301 9.65777 35.0681 9.74977 34.5481C9.96577 33.2981 10.5838 32.5441 11.7158 32.1441C12.0238 32.0361 12.3198 32.0081 12.9598 32.0241C13.7098 32.0421 13.8558 32.0701 14.3278 32.2921ZM36.6858 34.0061C36.3566 35.3751 35.8714 36.7018 35.2398 37.9601C34.4318 39.6061 34.1938 39.9521 33.8458 39.9861C33.5898 40.0101 33.5098 39.9481 32.5838 38.9961C32.0378 38.4381 31.6038 37.9561 31.6158 37.9221C31.6298 37.8901 32.0538 37.4861 32.5598 37.0261C33.4466 36.2048 34.3253 35.3747 35.1958 34.5361C36.1418 33.6301 36.9238 32.8961 36.9358 32.9101C36.9478 32.9221 36.8358 33.4141 36.6858 34.0061Z" fill="#646464"/>
</svg>
