<svg width="48" height="48" viewBox="0 0 48 48" fill="none" xmlns="http://www.w3.org/2000/svg">
<path fill-rule="evenodd" clip-rule="evenodd" d="M10.1877 7.66782C12.9902 7.47703 17.5056 7.27295 24 7.27295C30.4944 7.27295 35.0098 7.47703 37.8122 7.66782C40.8399 7.87395 43.2893 10.1543 43.5742 13.2422C43.7907 15.589 44 19.1198 44 24.0002C44 28.8806 43.7907 32.4114 43.5742 34.7582C43.2893 37.8461 40.8399 40.1265 37.8123 40.3326C35.0098 40.5234 30.4944 40.7275 24 40.7275C17.5056 40.7275 12.9902 40.5234 10.1877 40.3326C7.16004 40.1265 4.71066 37.8461 4.4258 34.7582C4.2093 32.4114 4 28.8806 4 24.0002C4 19.1198 4.20931 15.589 4.4258 13.2422C4.71066 10.1543 7.16005 7.87395 10.1877 7.66782ZM24 11.2729C17.5891 11.2729 13.1645 11.4744 10.4594 11.6586C9.32384 11.7359 8.50735 12.5424 8.40889 13.6097C8.20443 15.8261 8 19.2339 8 24.0002C8 28.7665 8.20442 32.1744 8.40889 34.3908C8.50735 35.4581 9.32384 36.2645 10.4594 36.3418C13.1645 36.526 17.589 36.7275 24 36.7275C30.411 36.7275 34.8355 36.5261 37.5405 36.3418C38.6761 36.2645 39.4926 35.4581 39.5911 34.3907C39.7956 32.1744 40 28.7665 40 24.0002C40 19.2339 39.7956 15.8261 39.5911 13.6097C39.4926 12.5424 38.6761 11.7359 37.5406 11.6586C34.8355 11.4744 30.4109 11.2729 24 11.2729Z" fill="#646464"/>
<path d="M29.6099 28.1425C28.7125 28.1873 28.1126 28.8525 28.0973 29.7508C28.0934 29.9834 28.0909 30.2475 28.0909 30.5455C28.0909 30.8509 28.0934 31.1205 28.0976 31.3568C28.1131 32.2418 28.7 32.8982 29.5839 32.9449C30.1791 32.9764 31.0144 33 32.1818 33C33.3323 33 34.1604 32.978 34.7538 32.9484C35.6512 32.9036 36.251 32.2384 36.2663 31.3401C36.2703 31.1075 36.2727 30.8434 36.2727 30.5455C36.2727 30.2475 36.2703 29.9834 36.2663 29.7508C36.251 28.8525 35.6512 28.1873 34.7538 28.1425C34.1604 28.1129 33.3323 28.0909 32.1818 28.0909C31.0313 28.0909 30.2032 28.1129 29.6099 28.1425Z" fill="#646464"/>
<path fill-rule="evenodd" clip-rule="evenodd" d="M24.0006 20.1162C15.4908 20.1162 9.58799 20.0552 5.97612 19.9998L6.03755 16.0002C9.62755 16.0554 15.5099 16.1162 24.0006 16.1162C32.4897 16.1162 38.3714 16.0555 41.9616 16.0003L42.023 19.9998C38.4109 20.0553 32.5087 20.1162 24.0006 20.1162Z" fill="#646464"/>
</svg>
