<svg width="48" height="48" viewBox="0 0 48 48" fill="none" xmlns="http://www.w3.org/2000/svg">
<path d="M20.6562 38.419C21.9848 37.214 23.1461 36.0012 24.0001 35.0595C24.8541 36.0012 26.0154 37.214 27.344 38.419C28.7436 39.6884 30.381 40.997 32.081 41.9647C33.7389 42.9084 35.704 43.6715 37.6811 43.4917C38.6713 43.4017 39.445 42.598 39.4973 41.6051C39.9422 33.1518 39.9935 19.6443 39.6543 10.0235C39.5451 6.92656 37.0682 4.45867 33.9848 4.33365C27.1233 4.05545 20.8767 4.05545 14.0154 4.33365C10.932 4.45867 8.45515 6.92648 8.34588 10.0234C8.00645 19.6442 8.0578 33.1518 8.50288 41.6051C8.55515 42.598 9.32886 43.4017 10.319 43.4917C12.2962 43.6715 14.2612 42.9084 15.9192 41.9647C17.6192 40.997 19.2565 39.6884 20.6562 38.419Z" fill="#646464"/>
</svg>
