<svg width="48" height="48" viewBox="0 0 48 48" fill="none" xmlns="http://www.w3.org/2000/svg">
<path fill-rule="evenodd" clip-rule="evenodd" d="M43.3732 27.6021C42.9968 27.2171 42.4812 27 41.9428 27L6.05591 27C5.51753 27 5.0019 27.217 4.6256 27.6021C4.24929 27.9871 4.0441 28.5076 4.05643 29.0458C4.14085 32.7324 4.30656 35.6692 4.46793 37.6558C4.72522 40.8228 7.17658 43.2741 10.3436 43.5315C13.1685 43.761 17.6375 44 23.9994 44C30.3614 44 34.8303 43.761 37.6552 43.5315C40.8222 43.2741 43.2736 40.8228 43.5309 37.6558C43.6923 35.6692 43.8579 32.7323 43.9423 29.0458C43.9546 28.5076 43.7495 27.9871 43.3732 27.6021ZM39.8859 31C39.797 33.6616 39.668 35.8064 39.544 37.3319C39.4454 38.5454 38.5448 39.446 37.3313 39.5446C34.622 39.7647 30.2615 40 23.9994 40C17.7374 40 13.3768 39.7647 10.6675 39.5446C9.45398 39.446 8.55339 38.5454 8.4548 37.3319C8.33089 35.8064 8.20179 33.6616 8.11283 31L39.8859 31Z" fill="#646464"/>
<path fill-rule="evenodd" clip-rule="evenodd" d="M39.9998 24C39.9998 30.2621 39.7641 34.6227 39.544 37.3319C39.4454 38.5454 38.5448 39.446 37.3313 39.5446C34.622 39.7647 30.2615 40 23.9994 40C17.7374 40 13.3768 39.7647 10.6675 39.5446C9.45398 39.446 8.55339 38.5454 8.4548 37.3319C8.23467 34.6227 7.99976 30.2621 7.99976 24C7.99976 17.7379 8.23506 13.3773 8.45519 10.6681C8.55378 9.45462 9.45436 8.55402 10.6679 8.45543C13.3771 8.2353 17.7377 8 23.9998 8C30.2618 8 34.6224 8.2353 37.3316 8.45543C38.5451 8.55402 39.4458 9.4546 39.5444 10.6681C39.7645 13.3773 39.9998 17.7379 39.9998 24ZM43.5309 37.6558C43.7604 34.8309 43.9998 30.3619 43.9998 24C43.9998 17.6381 43.7607 13.1691 43.5312 10.3442C43.2739 7.17722 40.8226 4.72586 37.6556 4.46857C34.8307 4.23904 30.3617 4 23.9998 4C17.6378 4 13.1688 4.23904 10.344 4.46857C7.17697 4.72586 4.72562 7.17721 4.46832 10.3442C4.2388 13.1691 3.99975 17.6381 3.99975 24C3.99975 30.3619 4.2384 34.8309 4.46793 37.6558C4.72522 40.8228 7.17658 43.2741 10.3436 43.5315C13.1685 43.761 17.6375 44 23.9994 44C30.3614 44 34.8303 43.761 37.6552 43.5315C40.8222 43.2741 43.2736 40.8228 43.5309 37.6558Z" fill="#646464"/>
</svg>
