<svg width="48" height="48" viewBox="0 0 48 48" fill="none" xmlns="http://www.w3.org/2000/svg">
<path d="M20.9388 19.0515L22.7388 15.7793C23.2787 14.7816 24.6987 14.7816 25.2388 15.7793L27.0387 19.0515C27.4988 19.8696 28.1587 20.548 28.9787 20.987L32.2588 22.7828C33.2588 23.3215 33.2588 24.7382 32.2588 25.2769L28.9787 27.0727C28.1587 27.5316 27.4788 28.19 27.0387 29.0081L25.2388 32.2804C24.6987 33.278 23.2787 33.278 22.7388 32.2804L20.9388 29.0081C20.4788 28.19 19.8188 27.5116 18.9987 27.0727L15.7188 25.2769C14.7188 24.7382 14.7188 23.3215 15.7188 22.7828L18.9987 20.987C19.8188 20.5281 20.4988 19.8696 20.9388 19.0515Z" fill="#646464"/>
<path fill-rule="evenodd" clip-rule="evenodd" d="M8.25902 14.9413C7.63902 11.0903 9.39902 7.07979 12.999 5.00468C16.599 2.94951 20.959 3.42839 23.999 5.88261C27.039 3.40843 31.399 2.92956 34.999 5.00468C38.579 7.07979 40.359 11.0903 39.739 14.9413C43.399 16.318 45.999 19.8697 45.999 23.9999C45.999 28.1302 43.399 31.6619 39.739 33.0586C40.359 36.9095 38.599 40.9201 34.999 42.9952C31.399 45.0504 27.039 44.5715 23.999 42.1173C20.959 44.5915 16.599 45.0703 12.999 42.9952C9.41902 40.9201 7.63902 36.9096 8.25902 33.0586C4.59902 31.6819 1.99902 28.1302 1.99902 24C1.99902 19.8697 4.59902 16.338 8.25902 14.9413ZM25.179 10.5516L24.699 11.3896L24.739 11.4096C24.439 11.9483 23.659 11.9483 23.359 11.4096L22.879 10.5716C22.799 10.4319 22.719 10.3122 22.639 10.1925C22.339 9.7535 21.959 9.35443 21.559 9.01523L21.539 8.99528C19.739 7.53871 17.179 7.25937 15.059 8.4765C12.939 9.69364 11.899 12.0481 12.259 14.3227C12.279 14.3826 12.299 14.4425 12.299 14.5023C12.419 15.1209 12.639 15.7194 12.959 16.2781L13.779 17.7147C13.939 17.9741 13.739 18.3133 13.439 18.3133H11.779C11.119 18.3133 10.479 18.4331 9.89902 18.6326L9.71902 18.6924C7.55902 19.5105 6.03902 21.5657 6.03902 24.0199C6.03902 26.4741 7.55902 28.5492 9.71902 29.3673L9.89902 29.4272C10.499 29.6267 11.119 29.7464 11.779 29.7464H13.439C13.739 29.7464 13.939 30.0856 13.779 30.345L12.939 31.7816C12.619 32.3403 12.399 32.9589 12.279 33.5574C12.259 33.6173 12.239 33.6772 12.239 33.737C11.879 36.0117 12.919 38.3661 15.039 39.5833C17.159 40.8004 19.739 40.521 21.519 39.0645L21.539 39.0445C21.939 38.7053 22.299 38.3262 22.619 37.8673C22.699 37.7476 22.779 37.6279 22.859 37.4882L23.339 36.6502C23.639 36.1114 24.419 36.1114 24.719 36.6502L25.199 37.4882C25.279 37.6279 25.359 37.7476 25.439 37.8673C25.739 38.3063 26.119 38.7053 26.519 39.0445L26.539 39.0645C28.339 40.521 30.899 40.8004 33.019 39.5833C35.139 38.3661 36.179 36.0117 35.819 33.737C35.799 33.6772 35.779 33.6173 35.779 33.5574C35.659 32.9389 35.439 32.3403 35.119 31.7816L34.279 30.345C34.119 30.0856 34.319 29.7464 34.619 29.7464H36.279C36.939 29.7464 37.579 29.6267 38.159 29.4272L38.339 29.3673C40.499 28.5293 42.019 26.4741 42.019 24.0199C42.019 21.5657 40.499 19.4906 38.339 18.6725L38.159 18.6126C37.559 18.4131 36.939 18.2934 36.279 18.2934H34.619C34.319 18.2934 34.119 17.9542 34.279 17.6948L35.099 16.2582C35.419 15.6995 35.639 15.081 35.759 14.4824C35.779 14.4225 35.799 14.3626 35.799 14.3028C36.159 12.0281 35.119 9.67368 32.999 8.45655C30.879 7.23941 28.299 7.51876 26.519 8.97533L26.499 8.99528C26.099 9.33448 25.739 9.71359 25.419 10.1725C25.339 10.2922 25.259 10.4119 25.179 10.5516Z" fill="#646464"/>
</svg>
