<svg width="48" height="48" viewBox="0 0 48 48" fill="none" xmlns="http://www.w3.org/2000/svg">
<path d="M23.9897 27.0497C23.9931 27.0497 23.9965 27.0497 23.9999 27.0497H23.9799C23.9832 27.0497 23.9864 27.0497 23.9897 27.0497Z" fill="#646464"/>
<path d="M22.3999 26.8697C22.9166 26.989 23.4531 27.049 23.9897 27.0497C24.5067 27.049 25.0432 26.989 25.5599 26.8697C25.7027 26.8313 25.856 26.7914 26.0199 26.7487C26.4529 26.6359 26.9596 26.5038 27.5399 26.3297C28.5999 26.0297 29.2199 24.9097 28.8999 23.8497C28.5999 22.7897 27.4799 22.1697 26.4199 22.4897C25.6999 22.7097 25.0999 22.8697 24.6399 22.9697C24.1999 23.0697 23.7599 23.0697 23.3199 22.9697C23.2109 22.9413 23.0941 22.9118 22.9697 22.8803C22.5689 22.7789 22.0893 22.6576 21.5399 22.4897C20.4799 22.1897 19.3799 22.7897 19.0599 23.8497C18.7599 24.9097 19.3599 26.0097 20.4199 26.3297C21.2199 26.5697 21.8799 26.7497 22.3999 26.8697Z" fill="#646464"/>
<path d="M14.9999 24.3697C15.2599 24.4697 15.5199 24.5297 15.7799 24.5297L15.7599 24.5497C16.5399 24.5497 17.2799 24.0897 17.5999 23.3297C18.0399 22.3097 17.5599 21.1497 16.5399 20.7097C15.8799 20.4297 15.1799 20.1097 14.4599 19.7697C13.8999 19.5097 13.3799 19.2497 12.8799 18.9897C11.8999 18.4897 10.6999 18.8897 10.1999 19.8697C9.69991 20.8497 10.0999 22.0497 11.0799 22.5497C11.3547 22.6821 11.6347 22.8196 11.9199 22.9596C12.1951 23.0948 12.4751 23.2322 12.7599 23.3697C13.5399 23.7297 14.2799 24.0697 14.9999 24.3697Z" fill="#646464"/>
<path d="M30.3799 23.3097C30.6999 24.0697 31.4399 24.5297 32.2199 24.5297V24.5097C32.4799 24.5097 32.7399 24.4497 32.9999 24.3497C33.7199 24.0497 34.4599 23.7097 35.2399 23.3497C36.2399 22.8897 36.6599 21.6897 36.1799 20.6897C35.7199 19.7097 34.5199 19.2697 33.5199 19.7497C32.7999 20.0897 32.0999 20.4097 31.4399 20.6897C30.4199 21.1097 29.9599 22.2897 30.3799 23.3097Z" fill="#646464"/>
<path d="M5.91991 19.6097C6.25991 19.8297 6.61991 19.9297 6.99991 19.9297L6.97991 19.9497C7.63991 19.9497 8.27991 19.6297 8.65991 19.0297C9.17991 18.2297 9.05991 17.1897 8.39991 16.5297C9.03991 15.8697 9.17991 14.8297 8.65991 14.0297C8.05991 13.0897 6.81991 12.8297 5.89991 13.4297L5.55991 13.6497C4.65991 14.2497 4.07991 15.1897 3.99991 16.2497C3.91991 17.3097 4.33991 18.3297 5.11991 19.0297C5.21991 19.1097 5.73991 19.4897 5.91991 19.6097Z" fill="#646464"/>
<path d="M38.3599 16.8897C38.5799 16.9497 38.7799 16.9897 38.9999 16.9897V17.0097C39.1999 17.0097 39.3999 16.9697 39.5999 16.9097L39.8999 16.7897C40.0199 16.7297 40.1399 16.6497 40.2399 16.5697L44.1999 13.5897C45.0799 12.9297 45.2599 11.6697 44.5999 10.7897C43.9399 9.90975 42.6799 9.72975 41.7999 10.3897L40.9999 10.9897V4.98975C40.9999 3.88975 40.0999 2.98975 38.9999 2.98975C37.8999 2.98975 36.9999 3.88975 36.9999 4.98975V10.9897L36.1999 10.3897C35.3199 9.72975 34.0599 9.90975 33.3999 10.7897C32.7399 11.6697 32.9199 12.9297 33.7999 13.5897L37.7599 16.5697C37.8799 16.6497 37.9999 16.7297 38.1199 16.7897C38.1999 16.8297 38.2799 16.8697 38.3599 16.8897Z" fill="#646464"/>
<path d="M10.2199 13.1897C10.5599 13.8897 11.2599 14.2897 11.9999 14.2897L12.0199 14.3097C12.3199 14.3097 12.6399 14.2297 12.9199 14.0897C13.4199 13.8297 13.9399 13.5697 14.4999 13.3097C15.2199 12.9697 15.9199 12.6497 16.5799 12.3697C17.5999 11.9497 18.0799 10.7697 17.6399 9.74975C17.2199 8.72975 16.0399 8.24975 15.0199 8.68975C14.2999 8.98975 13.5599 9.32975 12.7799 9.68975C12.1799 9.96973 11.62 10.2497 11.1 10.5097C10.12 11.0097 9.71991 12.2097 10.2199 13.1897Z" fill="#646464"/>
<path d="M19.0799 9.18975C19.3399 10.0697 20.1399 10.6297 20.9999 10.6297L20.9599 10.6097C21.1599 10.6097 21.3399 10.5897 21.5399 10.5297C22.2599 10.3097 22.8599 10.1497 23.3199 10.0497C23.7599 9.94975 24.1999 9.94975 24.6399 10.0497C24.7489 10.0782 24.8657 10.1077 24.9901 10.1392C25.3909 10.2406 25.8705 10.3619 26.4199 10.5297C27.4799 10.8497 28.5799 10.2497 28.8999 9.18975C29.2199 8.12975 28.6199 7.02975 27.5599 6.70975C26.7599 6.46975 26.0999 6.28975 25.5799 6.16975C24.5399 5.92975 23.4399 5.92975 22.3999 6.16975C21.8799 6.28975 21.2199 6.46975 20.4199 6.70975C19.3599 7.00975 18.7599 8.12975 19.0799 9.18975Z" fill="#646464"/>
<path d="M25.9199 29.9498C24.6599 30.2898 23.3599 30.2898 22.0999 29.9498C20.5799 29.5298 18.0199 28.7298 14.7599 27.2898C13.6599 26.8098 12.3999 26.7898 11.3199 27.3298C10.4199 27.7898 9.53988 28.2498 8.67988 28.7298C7.37988 29.4498 6.35988 30.0898 5.57988 30.5898C3.47988 31.9698 3.47988 34.9498 5.57988 36.3298C7.03988 37.2898 9.39988 38.6898 12.7799 40.3098C17.1399 42.3898 20.6399 43.3898 22.4199 43.8098C23.4599 44.0698 24.5599 44.0698 25.5999 43.8098C27.3799 43.3898 30.8799 42.3898 35.2399 40.3098C38.6199 38.6898 40.9799 37.2898 42.4399 36.3298C44.5399 34.9498 44.5399 31.9698 42.4399 30.5898C41.6599 30.0898 40.6399 29.4498 39.3399 28.7298C38.4599 28.2298 37.5799 27.7698 36.6999 27.3298C35.6199 26.7898 34.3599 26.8098 33.2599 27.2898C30.0199 28.7298 27.4399 29.5498 25.9199 29.9498Z" fill="#646464"/>
</svg>
