<svg width="48" height="48" viewBox="0 0 48 48" fill="none" xmlns="http://www.w3.org/2000/svg">
<path fill-rule="evenodd" clip-rule="evenodd" d="M25.5999 4.17986C25.0766 4.04905 24.5382 3.98405 23.9999 3.98487C23.4615 3.98405 22.9231 4.04905 22.3999 4.17986C20.6199 4.59986 17.1199 5.59986 12.7599 7.67986C9.37986 9.29986 7.01986 10.6999 5.55986 11.6599C3.45986 13.0399 3.45986 16.0199 5.55986 17.3999C7.01986 18.3599 9.37986 19.7599 12.7599 21.3799C17.1199 23.4599 20.6199 24.4599 22.3999 24.8799C22.9231 25.0107 23.4615 25.0757 23.9999 25.0749C24.5382 25.0757 25.0766 25.0107 25.5999 24.8799C27.3799 24.4599 30.8799 23.4599 35.2399 21.3799C38.6199 19.7599 40.9799 18.3599 42.4399 17.3999C44.5399 16.0199 44.5399 13.0399 42.4399 11.6599C40.9799 10.6999 38.6199 9.29986 35.2399 7.67986C30.8799 5.59986 27.3799 4.59986 25.5999 4.17986ZM42.4399 17.3999H42.4199L42.4299 17.3933L42.4399 17.3999Z" fill="#646464"/>
<path d="M22.42 41.82C22.94 41.94 23.46 42 24 42C24.54 42 25.08 41.94 25.6 41.82C25.7428 41.7815 25.8962 41.7415 26.0601 41.6988C26.4931 41.586 26.9997 41.454 27.58 41.28C28.62 40.9799 29.24 39.86 28.92 38.7999C28.62 37.76 27.5 37.1399 26.44 37.46C25.74 37.68 25.14 37.84 24.68 37.9399C24.24 38.04 23.78 38.04 23.36 37.9399C23.2521 37.9118 23.1366 37.8826 23.0136 37.8515L23.0109 37.8508C22.6101 37.7494 22.1294 37.6278 21.58 37.46C20.52 37.1399 19.42 37.74 19.1 38.7999C18.78 39.86 19.38 40.9599 20.44 41.28C21.24 41.52 21.9 41.7 22.42 41.82Z" fill="#646464"/>
<path d="M15 39.32C15.26 39.42 15.52 39.4799 15.78 39.4799L15.8 39.5C16.58 39.5 17.32 39.04 17.64 38.28C18.06 37.26 17.6 36.1 16.58 35.66C15.92 35.38 15.22 35.06 14.5 34.72C13.94 34.46 13.4 34.2 12.9 33.94C11.92 33.44 10.72 33.84 10.22 34.82C9.72 35.8 10.12 37 11.1 37.5C11.62 37.76 12.18 38.04 12.76 38.32C13.54 38.68 14.28 39.02 15 39.32Z" fill="#646464"/>
<path d="M5.92 34.56C6.26 34.78 6.64 34.88 7 34.88C7.66 34.88 8.3 34.56 8.68 33.96C9.18 33.1399 9.04 32.1 8.4 31.46C9.04 30.82 9.12 29.8 8.6 29C8 28.08 6.7 27.86 5.78 28.46L5.58 28.6C4.58 29.26 4 30.34 4 31.48C4 32.62 4.6 33.7 5.56 34.32L5.92 34.56Z" fill="#646464"/>
<path d="M35.1 29.02C35.38 29.18 35.7 29.24 36 29.24H36.02C36.74 29.24 37.44 28.84 37.8 28.14C38.3 27.16 37.9 25.96 36.92 25.46C36.6452 25.3276 36.3652 25.1901 36.08 25.0501C35.805 24.9151 35.5246 24.7773 35.24 24.64C34.24 24.16 33.06 24.58 32.58 25.58C32.1 26.58 32.52 27.76 33.52 28.24C34.08 28.5 34.6 28.76 35.1 29.02Z" fill="#646464"/>
<path d="M10.22 28.14C10.56 28.84 11.26 29.24 12 29.24H12.02C12.32 29.24 12.62 29.16 12.92 29.02C13.42 28.76 13.94 28.5 14.5 28.24C15.5 27.78 15.92 26.58 15.44 25.58C14.96 24.58 13.78 24.16 12.78 24.64C12.18 24.92 11.62 25.2 11.1 25.46C10.12 25.96 9.72 27.16 10.22 28.14Z" fill="#646464"/>
<path d="M36.9998 43C36.9998 44.1 37.8998 45 38.9998 45C40.0998 45 40.9998 44.1 40.9998 43V37L41.7998 37.6C42.6798 38.26 43.9398 38.08 44.5998 37.2C45.2598 36.32 45.0798 35.06 44.1998 34.4L40.2398 31.42C40.1198 31.34 39.9998 31.26 39.8798 31.2C39.7998 31.16 39.6398 31.1 39.6398 31.1C39.4398 31.04 39.2198 31 38.9998 31C38.7998 31 38.5998 31.02 38.3998 31.08L38.0998 31.2C37.9798 31.26 37.8598 31.34 37.7598 31.42L33.7998 34.4C32.9198 35.06 32.7398 36.32 33.3998 37.2C34.0598 38.08 35.3198 38.26 36.1998 37.6L36.9998 37V43Z" fill="#646464"/>
</svg>
