<svg width="48" height="48" viewBox="0 0 48 48" fill="none" xmlns="http://www.w3.org/2000/svg">
<path fill-rule="evenodd" clip-rule="evenodd" d="M26.5525 9.38197L28.78 5.07997C29.28 4.09997 30.5 3.71997 31.48 4.21997C32.46 4.71997 32.84 5.93997 32.34 6.91997L30.4334 10.6022C33.4232 12.0667 35.6523 14.5866 36.7479 17.8056L40.42 16.28C41.44 15.86 42.6 16.34 43.04 17.36C43.46 18.38 42.98 19.56 41.96 19.98L37.82 21.7C37.7087 21.7428 37.5974 21.7783 37.4877 21.8048C37.4931 21.9227 37.4972 22.0411 37.5 22.1601C37.5136 22.885 37.5273 23.6474 37.5346 24.46H42C43.1 24.46 44 25.36 44 26.46C44 27.56 43.1 28.46 42 28.46H37.5189C37.5139 28.6698 37.5076 28.8764 37.5 29.0801C37.4821 29.7624 37.4216 30.4263 37.3208 31.0698C37.4417 31.0948 37.5619 31.1314 37.68 31.18L41.96 32.96C42.98 33.38 43.46 34.56 43.04 35.58C42.72 36.34 41.98 36.82 41.2 36.82H41.18C40.92 36.82 40.66 36.78 40.42 36.66L36.1477 34.8832C34.028 39.289 29.59 42.0601 24 42.0601C18.4347 42.0601 14.0009 39.3134 11.8718 34.9416L7.73994 36.66C7.47994 36.76 7.21994 36.82 6.97994 36.82H6.95994C6.17994 36.82 5.43994 36.36 5.11994 35.58C4.69994 34.56 5.17994 33.4 6.19994 32.96L10.4799 31.18C10.5464 31.1526 10.6134 31.1291 10.6808 31.1093C10.5775 30.4535 10.5164 29.7763 10.5 29.0801L10.4886 28.46H6C4.9 28.46 4 27.56 4 26.46C4 25.36 4.9 24.46 6 24.46H10.4612C10.464 23.6474 10.4726 22.885 10.5 22.1601C10.5034 22.0303 10.5083 21.9011 10.5148 21.7727C10.4555 21.7526 10.3972 21.7286 10.3399 21.7L6.19994 19.98C5.17994 19.56 4.69994 18.38 5.11994 17.36C5.53994 16.34 6.71994 15.86 7.73994 16.28L11.2788 17.7502C12.3827 14.5614 14.5958 12.0641 17.5601 10.6073L15.68 6.92005C15.18 5.94005 15.56 4.74005 16.56 4.22005C17.54 3.72005 18.74 4.10005 19.26 5.10005L21.4437 9.3827C22.264 9.24909 23.1176 9.18005 24 9.18005C24.8807 9.18005 25.7331 9.24884 26.5525 9.38197ZM15.2557 18.587C17.8631 19.3183 20.8526 19.6999 24 19.6999C27.1527 19.6999 30.1337 19.317 32.7392 18.5833C31.348 15.2624 28.1585 13.2001 24 13.2001C19.8363 13.2001 16.6442 15.2561 15.2557 18.587ZM33.5082 22.5066C31.1894 23.1335 28.6768 23.5092 26 23.6337V37.9118C30.4405 37.1384 33.3775 33.7576 33.5 29.0001C33.52 27.9801 33.54 26.8601 33.54 25.6401C33.54 24.5097 33.54 23.4653 33.5082 22.5066ZM22 23.6346C19.3247 23.5115 16.8134 23.1376 14.4954 22.513C14.4771 23.4699 14.46 24.5122 14.46 25.6401C14.46 26.8601 14.46 27.9801 14.5 29.0001C14.6224 33.7401 17.5594 37.134 22 37.911V23.6346Z" fill="#646464"/>
</svg>
