<svg width="48" height="48" viewBox="0 0 48 48" fill="none" xmlns="http://www.w3.org/2000/svg">
<path fill-rule="evenodd" clip-rule="evenodd" d="M24 8C17.7379 8 13.3773 8.23528 10.6681 8.45541C9.45459 8.554 8.55399 9.45459 8.4554 10.6681C8.23528 13.3773 8 17.7379 8 24C8 30.2621 8.23528 34.6227 8.45541 37.3319L6.46197 37.4938L8.45541 37.3319C8.554 38.5454 9.45459 39.446 10.6681 39.5446C13.3773 39.7647 17.7379 40 24 40C30.2621 40 34.6227 39.7647 37.3319 39.5446C38.5454 39.446 39.446 38.5454 39.5446 37.3319C39.7647 34.6227 40 30.2621 40 24C40 17.7379 39.7647 13.3773 39.5446 10.6681C39.446 9.45458 38.5454 8.55399 37.3319 8.4554L37.4938 6.4628L37.3319 8.4554C34.6227 8.23528 30.2621 8 24 8ZM10.3442 4.46854C13.1691 4.23902 17.6381 4 24 4C30.3619 4 34.8309 4.23902 37.6558 4.46853C40.8228 4.72584 43.2741 7.17719 43.5314 10.3442C43.761 13.1691 44 17.6381 44 24C44 30.3619 43.761 34.8309 43.5314 37.6558C43.2741 40.8228 40.8228 43.2741 37.6558 43.5314C34.8309 43.761 30.3619 44 24 44C17.6381 44 13.1691 43.761 10.3442 43.5314C7.1772 43.2741 4.72585 40.8228 4.46854 37.6558C4.23902 34.8309 4 30.3619 4 24C4 17.6381 4.23902 13.1691 4.46853 10.3442C4.72584 7.1772 7.17719 4.72585 10.3442 4.46854ZM15.1564 11.2312C17.0257 11.126 20.2533 11 24.0012 11C27.7486 11 30.9762 11.126 32.8455 11.2312C34.8188 11.3423 36.6491 12.7893 36.7986 14.9645L34.8033 15.1017L36.7986 14.9645C36.7986 14.9645 36.7986 14.9645 36.7986 14.9645C36.8701 16.0041 36.9495 17.4957 37.0008 19.472V19.4721C37.0563 21.609 35.2114 23 33.4015 23H14.6004C12.7905 23 10.9457 21.6089 11.0011 19.4721L11.0011 19.472C11.0524 17.4957 11.1319 16.0041 11.2033 14.9645L11.2033 14.9645C11.3528 12.7893 13.183 11.3423 15.1564 11.2312ZM15.3812 15.2249C15.2765 15.2308 15.2167 15.2625 15.191 15.2808C15.1313 16.1585 15.0645 17.3907 15.0159 19H32.986C32.9374 17.3907 32.8707 16.1585 32.8109 15.2808C32.7852 15.2625 32.7254 15.2308 32.6207 15.2249C30.8183 15.1234 27.666 15 24.0012 15C20.3359 15 17.1836 15.1234 15.3812 15.2249M12 28C12 26.8954 12.8954 26 14 26H16C17.1046 26 18 26.8954 18 28C18 29.1046 17.1046 30 16 30H14C12.8954 30 12 29.1046 12 28ZM21 28C21 26.8954 21.8954 26 23 26H25C26.1046 26 27 26.8954 27 28C27 29.1046 26.1046 30 25 30H23C21.8954 30 21 29.1046 21 28ZM30 28C30 26.8954 30.8954 26 32 26H34C35.1046 26 36 26.8954 36 28C36 29.1046 35.1046 30 34 30H32C30.8954 30 30 29.1046 30 28ZM12 34C12 32.8954 12.8954 32 14 32H16C17.1046 32 18 32.8954 18 34C18 35.1046 17.1046 36 16 36H14C12.8954 36 12 35.1046 12 34ZM21 34C21 32.8954 21.8954 32 23 32H25C26.1046 32 27 32.8954 27 34C27 35.1046 26.1046 36 25 36H23C21.8954 36 21 35.1046 21 34ZM30 34C30 32.8954 30.8954 32 32 32H34C35.1046 32 36 32.8954 36 34C36 35.1046 35.1046 36 34 36H32C30.8954 36 30 35.1046 30 34Z" fill="#646464"/>
</svg>
