<svg width="48" height="48" viewBox="0 0 48 48" fill="none" xmlns="http://www.w3.org/2000/svg">
<path fill-rule="evenodd" clip-rule="evenodd" d="M36.9825 8.66797C36.8114 6.06155 34.6498 4 32 4C29.4863 4 27.4096 5.85563 27.0567 8.27148C25.0282 8.245 22.9699 8.24498 20.9415 8.27148C20.5884 5.85577 18.5137 4 16.0001 4C13.3503 4 11.1867 6.06149 11.0157 8.66797C7.51889 9.18375 4.82577 12.0607 4.58403 15.6445C4.13866 22.2565 4.13865 29.7436 4.58403 36.3555C4.84032 40.1551 7.85137 43.1601 11.6563 43.3984C19.1479 43.8677 28.8521 43.8677 36.3438 43.3984C40.1488 43.1601 43.1597 40.1551 43.4161 36.3555C43.8614 29.7437 43.8614 22.2565 43.4161 15.6445C43.1743 12.0599 40.4803 9.18286 36.9825 8.66797ZM27.4141 22.5859C26.6331 21.8049 25.367 21.8049 24.586 22.5859C23.8049 23.367 23.8049 24.633 24.586 25.4141L26.1719 27H17.0001C15.8955 27 15.0001 27.8954 15.0001 29C15.0001 30.1046 15.8955 31 17.0001 31H26.1719L24.586 32.5859C23.8049 33.367 23.8049 34.633 24.586 35.4141C25.367 36.1951 26.6331 36.1951 27.4141 35.4141L32.4141 30.4141C33.1952 29.633 33.1952 28.367 32.4141 27.5859L27.4141 22.5859ZM15.0001 9C15.0001 8.44771 15.4478 8 16.0001 8C16.5523 8 17.0001 8.44772 17.0001 9V12C17.0001 12.5523 16.5523 13 16.0001 13C15.4478 13 15.0001 12.5523 15.0001 12V9ZM31 9C31 8.44772 31.4478 8 32 8C32.5523 8 33 8.44772 33 9V12C33 12.5523 32.5523 13 32 13C31.4478 13 31 12.5523 31 12V9ZM11.9063 39.4062C10.1103 39.2937 8.69549 37.8855 8.57427 36.0859C8.20894 30.6625 8.15162 24.6183 8.4023 19H39.5978C39.8484 24.6183 39.7911 30.6625 39.4258 36.0859C39.3046 37.8856 37.8899 39.2937 36.0938 39.4062C28.7687 39.8651 19.2313 39.8651 11.9063 39.4062Z" fill="#646464"/>
</svg>
