<svg width="48" height="48" viewBox="0 0 48 48" fill="none" xmlns="http://www.w3.org/2000/svg">
<path fill-rule="evenodd" clip-rule="evenodd" d="M32 4C34.6498 4 36.8114 6.06155 36.9825 8.66797C40.4803 9.18286 43.1743 12.0599 43.4161 15.6445C43.8614 22.2565 43.8614 29.7437 43.4161 36.3555C43.1597 40.1551 40.1488 43.1601 36.3438 43.3984C28.8521 43.8677 19.1479 43.8677 11.6563 43.3984C7.85137 43.1601 4.84032 40.1551 4.58403 36.3555C4.13865 29.7436 4.13866 22.2565 4.58403 15.6445C4.82577 12.0607 7.51889 9.18375 11.0157 8.66797C11.1867 6.06149 13.3503 4 16.0001 4C18.5137 4 20.5884 5.85577 20.9415 8.27148C22.9699 8.24498 25.0282 8.245 27.0567 8.27148C27.4096 5.85563 29.4863 4 32 4ZM11.9063 39.4062C10.1103 39.2937 8.69549 37.8855 8.57427 36.0859C8.20894 30.6625 8.15162 24.6183 8.4023 19H39.5978C39.8484 24.6183 39.7911 30.6625 39.4258 36.0859C39.3046 37.8856 37.8899 39.2937 36.0938 39.4062C28.7687 39.8651 19.2313 39.8651 11.9063 39.4062ZM15.0001 9C15.0001 8.44771 15.4478 8 16.0001 8C16.5523 8 17.0001 8.44772 17.0001 9V12C17.0001 12.5523 16.5523 13 16.0001 13C15.4478 13 15.0001 12.5523 15.0001 12V9ZM31 9C31 8.44772 31.4478 8 32 8C32.5523 8 33 8.44772 33 9V12C33 12.5523 32.5523 13 32 13C31.4478 13 31 12.5523 31 12V9Z" fill="#646464"/>
</svg>
