<svg width="48" height="48" viewBox="0 0 48 48" fill="none" xmlns="http://www.w3.org/2000/svg">
<path d="M14.5 30.5C15.8808 30.5 17 31.6193 17 33C17 34.3807 15.8808 35.5 14.5 35.5C13.1194 35.5 12.0001 34.3807 12.0001 33C12.0001 31.6193 13.1194 30.5 14.5 30.5Z" fill="#646464"/>
<path d="M34 31C35.1046 31 36 31.8954 36 33C36 34.1046 35.1046 35 34 35H22C20.8955 34.9999 20 34.1045 20 33C20 31.8955 20.8955 31.0001 22 31H34Z" fill="#646464"/>
<path d="M14.5 22.5C15.8808 22.5 17 23.6193 17 25C17 26.3807 15.8808 27.5 14.5 27.5C13.1194 27.5 12.0001 26.3807 12.0001 25C12.0001 23.6193 13.1194 22.5 14.5 22.5Z" fill="#646464"/>
<path d="M34 23C35.1046 23 36 23.8954 36 25C36 26.1046 35.1046 27 34 27H22C20.8955 26.9999 20 26.1045 20 25C20 23.8955 20.8955 23.0001 22 23H34Z" fill="#646464"/>
<path fill-rule="evenodd" clip-rule="evenodd" d="M32 4C34.6498 4 36.8114 6.06155 36.9825 8.66797C40.4803 9.18286 43.1743 12.0599 43.4161 15.6445C43.8614 22.2565 43.8614 29.7437 43.4161 36.3555C43.1597 40.1551 40.1488 43.1601 36.3438 43.3984C28.8522 43.8677 19.1478 43.8677 11.6563 43.3984C7.85142 43.16 4.84032 40.1551 4.58403 36.3555C4.13865 29.7436 4.13866 22.2565 4.58403 15.6445C4.82577 12.0607 7.51894 9.18379 11.0157 8.66797C11.1867 6.06152 13.3503 4.00005 16 4C18.5137 4 20.5884 5.85578 20.9415 8.27148C22.9699 8.24498 25.0282 8.245 27.0567 8.27148C27.4096 5.85567 29.4863 4.00005 32 4ZM8.40239 19C8.15172 24.6183 8.20894 30.6625 8.57427 36.0859C8.69549 37.8855 10.1103 39.2936 11.9063 39.4062C19.2313 39.8651 28.7687 39.8651 36.0938 39.4062C37.8899 39.2937 39.3046 37.8856 39.4258 36.0859C39.7911 30.6625 39.8484 24.6183 39.5977 19H8.40239ZM16 8C15.4478 8.00005 15 8.44775 15 9V12C15 12.5523 15.4478 12.9999 16 13C16.5523 13 17 12.5523 17 12V9C17 8.44772 16.5523 8 16 8ZM32 8C31.4478 8.00005 31 8.44775 31 9V12C31 12.5523 31.4478 12.9999 32 13C32.5523 13 33 12.5523 33 12V9C33 8.44772 32.5523 8 32 8Z" fill="#646464"/>
</svg>
