<svg width="48" height="48" viewBox="0 0 48 48" fill="none" xmlns="http://www.w3.org/2000/svg">
<path fill-rule="evenodd" clip-rule="evenodd" d="M21.9953 8.0348C23.5524 5.78349 26.3083 4.57808 29.1187 5.07357C33.0108 5.75973 36.631 6.72326 40.3418 8.06145C43.7756 9.29972 45.7863 12.8279 45.0875 16.4161C43.9664 22.1729 41.9927 29.539 40.0852 35.0851C38.8962 38.542 35.3907 40.5921 31.7979 39.9476C30.8911 39.7849 29.9981 39.6069 29.1143 39.4122C28.755 39.615 28.3751 39.7898 27.977 39.9333C24.3348 41.2468 20.7797 42.1994 16.9687 42.883C13.3758 43.5276 9.87023 41.4774 8.68129 38.0204C6.77389 32.4743 4.80017 25.1083 3.67907 19.3515C2.98028 15.7633 4.99105 12.2351 8.42484 10.9968C12.067 9.68339 15.6222 8.7308 19.4331 8.04718C20.3012 7.89146 21.1661 7.89309 21.9953 8.0348ZM20.3888 11.9487C20.306 11.9575 20.2228 11.9694 20.1394 11.9843C16.5498 12.6282 13.2124 13.5225 9.78175 14.7596C8.19848 15.3306 7.28463 16.9402 7.60531 18.5869C8.69099 24.1618 10.6167 31.3486 12.4638 36.7195C13.0095 38.3059 14.6058 39.2431 16.2624 38.9459C18.358 38.5699 20.3677 38.1087 22.3601 37.5437C21.8377 37.3691 21.3146 37.1873 20.7898 36.998C17.3558 35.7597 15.3451 32.2308 16.044 28.6426C17.0364 23.5468 18.6971 17.1891 20.3888 11.9487ZM28.4242 9.01281C26.8854 8.74151 25.4049 9.61141 24.8962 11.0798C23.0291 16.4694 21.0694 23.7636 19.9702 29.4073C19.6494 31.0542 20.5635 32.6643 22.1467 33.2352C24.5035 34.0851 26.8139 34.7723 29.1894 35.3276C30.2755 35.5815 31.3768 35.8082 32.5041 36.0104C34.1608 36.3076 35.757 35.3705 36.3027 33.7841C38.1499 28.4133 40.0756 21.2264 41.1613 15.6515C41.482 14.0048 40.5681 12.3952 38.9849 11.8243C35.49 10.564 32.0915 9.65936 28.4242 9.01281Z" fill="#646464"/>
</svg>
