<svg width="48" height="48" viewBox="0 0 48 48" fill="none" xmlns="http://www.w3.org/2000/svg">
<path fill-rule="evenodd" clip-rule="evenodd" d="M37.7537 8.6023C40.8569 8.82241 43.3193 11.2236 43.5796 14.3252C43.7598 16.6063 44 20.5083 44 26.091C44 31.6738 43.7798 35.5758 43.5796 37.8569C43.3193 40.9385 40.8569 43.3397 37.7537 43.5798C36.0721 43.7199 31.3473 44 24 44C16.6527 44 11.9279 43.6998 10.2462 43.5798C7.14314 43.3597 4.68068 40.9385 4.42042 37.8569C4.24024 35.5558 4 31.6538 4 26.091C4 21.6888 4.14014 17.6268 4.42042 14.3252C4.68068 11.2436 7.12312 8.82241 10.2462 8.6023C10.3048 8.59743 10.3668 8.59137 10.4322 8.58498C10.6352 8.56517 10.8697 8.54227 11.1271 8.54227V8.48224C11.1872 5.96098 12.989 4.08004 15.3714 4H16.6927C18.975 4.08004 20.6967 5.84092 20.8969 8.2021C22.8989 8.18209 25.0611 8.18209 27.0631 8.2021C27.2633 5.82091 28.985 4.06003 31.2873 4H32.6086C34.991 4.08004 36.7728 5.96098 36.8729 8.48224V8.54227C36.9935 8.54981 37.1141 8.56018 37.2304 8.57018C37.4231 8.58674 37.604 8.6023 37.7537 8.6023ZM31.4074 8.002C31.1872 8.02201 31.047 8.24212 31.047 8.62231C31.027 9.0825 31.027 9.64271 31.027 10.2029C31.027 10.4968 31.0325 10.7744 31.0378 11.0382C31.0425 11.2772 31.047 11.5051 31.047 11.7239V11.7839C31.047 12.1841 31.1672 12.3842 31.4074 12.3842H32.4885C32.7688 12.3642 32.8488 12.044 32.8488 11.7839C32.8689 11.3437 32.8689 10.8234 32.8689 10.2831V10.1431C32.8689 9.83613 32.8633 9.55158 32.858 9.28351C32.8533 9.04477 32.8488 8.8191 32.8488 8.6023C32.8488 8.32216 32.7688 8.002 32.4885 8.002H31.4074ZM15.4915 8.002C15.2513 8.02201 15.1111 8.22211 15.1111 8.6023C15.0911 9.06253 15.0911 9.58279 15.0911 10.1831C15.0911 10.49 15.0967 10.7858 15.102 11.0644C15.1067 11.3125 15.1111 11.5471 15.1111 11.7639C15.1111 12.1641 15.2312 12.3642 15.4715 12.3642H16.5526C16.7928 12.3442 16.9329 12.1441 16.9329 11.7639C16.953 11.3037 16.953 10.7634 16.953 10.1832C16.953 9.87623 16.9474 9.58041 16.9421 9.30178C16.9374 9.05365 16.9329 8.8191 16.9329 8.6023C16.9329 8.2021 16.8128 8.002 16.5726 8.002H15.4915ZM37.4535 39.5978C38.6146 39.5178 39.4955 38.6573 39.5956 37.5168C39.7958 35.3157 39.976 31.4337 39.976 25.991C39.976 25.3007 39.9721 24.6371 39.965 24H7.95522C7.9479 24.6677 7.94394 25.3647 7.94394 26.091C7.94394 31.5138 8.18418 35.2956 8.36436 37.5168C8.46446 38.6573 9.34535 39.5178 10.5065 39.5978C12.1481 39.7179 16.7528 39.998 23.98 39.998C31.2072 39.998 35.8118 39.7179 37.4535 39.5978ZM8.04698 20C8.12962 17.7047 8.25024 15.9314 8.36436 14.6653C8.46446 13.5248 9.34535 12.6643 10.5065 12.5843C10.6583 12.5843 10.8385 12.5701 11.047 12.5537C11.0861 12.5506 11.1261 12.5474 11.1672 12.5443C11.1672 12.5736 11.1779 12.6029 11.1915 12.64C11.1965 12.6536 11.2018 12.6683 11.2072 12.6843C11.2172 12.7444 11.2322 12.7994 11.2472 12.8544C11.2623 12.9095 11.2773 12.9645 11.2873 13.0245C11.3273 13.1846 11.3674 13.3447 11.4274 13.4847C11.4675 13.6048 11.5075 13.7049 11.5676 13.8049C11.6276 13.945 11.7077 14.085 11.7878 14.2051L11.968 14.5053C12.048 14.6253 12.1481 14.7454 12.2482 14.8654C12.2883 14.9055 12.3233 14.9505 12.3584 14.9955C12.3934 15.0405 12.4284 15.0855 12.4685 15.1256C12.5686 15.2256 12.6887 15.3257 12.8088 15.4257C12.8488 15.4557 12.8939 15.4907 12.9389 15.5258C12.984 15.5608 13.029 15.5958 13.0691 15.6258C13.1892 15.7059 13.3293 15.7859 13.4695 15.8659C13.5195 15.8859 13.5646 15.911 13.6096 15.936C13.6547 15.961 13.6997 15.986 13.7497 16.006C13.9099 16.066 14.0701 16.1261 14.2502 16.1661C14.2903 16.1761 14.3353 16.1911 14.3804 16.2061C14.4254 16.2211 14.4705 16.2361 14.5105 16.2461C14.7708 16.3062 15.0511 16.3462 15.3313 16.3462H16.6527C16.953 16.3462 17.2332 16.3062 17.4935 16.2461C17.5511 16.2346 17.6021 16.2165 17.6503 16.1993C17.6858 16.1867 17.7198 16.1746 17.7538 16.1661C17.8084 16.1479 17.863 16.1315 17.917 16.1153C18.0413 16.0781 18.1627 16.0418 18.2743 15.986C18.3744 15.946 18.4745 15.8859 18.5546 15.8259C18.6013 15.7992 18.648 15.7748 18.6947 15.7503C18.7881 15.7014 18.8815 15.6525 18.975 15.5858C19.0751 15.5258 19.1552 15.4457 19.2352 15.3657C19.3553 15.2656 19.4755 15.1656 19.5756 15.0655C19.6557 14.9855 19.7357 14.8855 19.8158 14.7854C19.8399 14.7565 19.864 14.7287 19.8879 14.7013C19.963 14.6148 20.0353 14.5315 20.0961 14.4252C20.1261 14.3752 20.1562 14.3201 20.1862 14.2651C20.2162 14.2101 20.2462 14.1551 20.2763 14.1051C20.3564 13.965 20.4164 13.8449 20.4765 13.7049C20.5065 13.6448 20.5265 13.5848 20.5465 13.5248C20.5666 13.4647 20.5866 13.4047 20.6166 13.3447C20.6366 13.2746 20.6617 13.1996 20.6867 13.1246C20.7117 13.0495 20.7367 12.9745 20.7568 12.9045C20.7839 12.8094 20.7927 12.7235 20.8017 12.6344C20.806 12.5922 20.8104 12.5492 20.8168 12.5043C20.8168 12.4426 20.832 12.381 20.8484 12.3147C20.8586 12.2733 20.8692 12.2302 20.8769 12.1841C22.8188 12.1641 25.0811 12.1641 27.023 12.1841C27.023 12.2508 27.0408 12.3175 27.0586 12.3842C27.0675 12.4175 27.0764 12.4509 27.0831 12.4842C27.1031 12.6243 27.1231 12.7644 27.1632 12.9045C27.2032 13.0645 27.2432 13.2046 27.3033 13.3447C27.3099 13.3644 27.3165 13.3847 27.3231 13.4052C27.357 13.5097 27.3933 13.6213 27.4434 13.7049C27.4842 13.7998 27.5341 13.8948 27.5808 13.9836C27.6029 14.0257 27.6243 14.0664 27.6436 14.1051C27.6737 14.1551 27.7037 14.2101 27.7337 14.2651C27.7638 14.3202 27.7938 14.3752 27.8238 14.4252C27.9039 14.5453 28.004 14.6653 28.1041 14.7854C28.1441 14.8254 28.1792 14.8704 28.2142 14.9155C28.2493 14.9605 28.2843 15.0055 28.3243 15.0455C28.4044 15.1256 28.4845 15.1878 28.5646 15.2501C28.6046 15.2812 28.6446 15.3123 28.6847 15.3457C28.7129 15.3668 28.7411 15.3905 28.7702 15.4148C28.8237 15.4596 28.8801 15.5069 28.9449 15.5458C29.0384 15.6125 29.1318 15.6614 29.2252 15.7103C29.2719 15.7348 29.3187 15.7592 29.3654 15.7859C29.4154 15.8059 29.4605 15.8309 29.5055 15.8559C29.5505 15.8809 29.5956 15.906 29.6456 15.926C29.7573 15.9817 29.8786 16.0181 30.0029 16.0553C30.057 16.0715 30.1116 16.0879 30.1662 16.1061C30.2002 16.1145 30.2341 16.1266 30.2697 16.1393C30.3178 16.1564 30.3688 16.1746 30.4264 16.1861C30.7067 16.2461 30.987 16.2861 31.2673 16.2861H32.5886C32.8689 16.2861 33.1491 16.2461 33.4094 16.1861C33.4538 16.1861 33.4981 16.1677 33.5459 16.1478C33.5844 16.1319 33.625 16.115 33.6697 16.1061C33.8498 16.066 34.01 16.006 34.1902 15.926C34.2402 15.906 34.2853 15.8809 34.3303 15.8559C34.3754 15.8309 34.4204 15.8059 34.4705 15.7859C34.5172 15.7592 34.5639 15.7348 34.6106 15.7103C34.704 15.6614 34.7975 15.6125 34.8909 15.5458C34.9557 15.5069 35.0121 15.4596 35.0656 15.4148C35.0947 15.3905 35.1229 15.3668 35.1511 15.3457C35.2713 15.2456 35.3914 15.1456 35.4915 15.0455C35.5716 14.9655 35.6516 14.8854 35.7117 14.7854C35.8118 14.6653 35.9119 14.5453 35.992 14.4252L36.1722 14.1251C36.2523 14.005 36.3123 13.8649 36.3724 13.7249C36.4324 13.6048 36.4725 13.5048 36.5125 13.3847C36.5618 13.2697 36.5976 13.1412 36.631 13.0214C36.6383 12.9953 36.6455 12.9695 36.6527 12.9445C36.6927 12.8244 36.7127 12.7044 36.7327 12.5643C36.7327 12.5443 36.7377 12.5243 36.7427 12.5043C36.7477 12.4842 36.7528 12.4642 36.7528 12.4442C36.993 12.4442 37.2332 12.4642 37.4134 12.4842C38.5946 12.5643 39.4555 13.4047 39.5556 14.5653C39.66 15.8408 39.7846 17.6472 39.8709 20H8.04698Z" fill="#646464"/>
</svg>
