<svg width="48" height="48" viewBox="0 0 48 48" fill="none" xmlns="http://www.w3.org/2000/svg">
<path d="M34.1602 12.94C34.0188 12.8339 30.8614 10.6182 26.0002 10.1053V6C26.0002 4.9 25.1002 4 24.0002 4C22.9002 4 22.0002 4.9 22.0002 6V10.1149C17.266 10.6624 13.0002 13.1603 13.0002 17.46C13.0002 23.4155 18.7116 24.4584 23.3098 25.2981L23.3202 25.3C28.6802 26.28 31.0202 27.02 31.0202 30.02C31.0202 33.9 24.7402 34.02 24.0202 34.02C19.6661 34.02 16.5976 32.0827 16.2195 31.844C16.1947 31.8284 16.1802 31.82 16.1802 31.82C15.2602 31.18 14.0202 31.38 13.3802 32.28C12.7402 33.16 12.9402 34.42 13.8402 35.06C13.9817 35.1661 17.1391 37.3818 22.0002 37.8947V41.9999C22.0002 43.0999 22.9002 43.9999 24.0002 43.9999C25.1002 43.9999 26.0002 43.0999 26.0002 41.9999V37.8803C31.5298 37.3102 35.0002 34.336 35.0002 29.98C35.0002 23.3277 28.675 22.1827 24.0364 21.3429L24.0202 21.34C18.7602 20.4 17.0002 19.7 17.0002 17.46C17.0002 15.4 20.6202 14 24.0002 14C28.56 14 31.7245 16.1223 31.838 16.1985L31.8402 16.2C32.7402 16.82 33.9802 16.62 34.6202 15.72C35.2602 14.84 35.0602 13.58 34.1602 12.94Z" fill="#646464"/>
</svg>
