<svg width="48" height="48" viewBox="0 0 48 48" fill="none" xmlns="http://www.w3.org/2000/svg">
<path d="M22.6399 7.92C23.5599 7.86 24.2399 7.22 24.2599 6.3V5.72C24.2199 4.8 23.5599 4.16 22.6399 4.1C21.7799 4.04 21.0399 4 19.1199 4C17.1999 4 15.8799 4.04 15.0199 4.1C14.0999 4.16 13.4199 4.8 13.3999 5.72V6.3C13.4399 7.22 14.0999 7.86 15.0199 7.92C15.4799 7.96 16.0799 8 16.8199 8C16.7599 10.28 16.6799 15.28 16.6799 22C16.6799 28.72 16.7599 37.64 16.8199 39.92C16.3146 39.9337 15.8746 39.9566 15.4999 39.9762C15.3258 39.9853 15.1658 39.9937 15.0199 40C14.0999 40.06 13.4199 40.7 13.3999 41.62V42.28C13.4399 43.2 14.0999 43.84 15.0199 43.9C15.8799 43.96 17.1999 44 19.1199 44C21.0399 44 21.7799 43.96 22.6399 43.9C23.5599 43.84 24.2399 43.2 24.2599 42.28V41.62C24.2199 40.7 23.5599 40.06 22.6399 40C22.1799 39.96 21.5799 39.92 20.8399 39.92C20.8999 37.64 20.9799 28.74 20.9799 22C20.9799 15.26 20.8999 10.28 20.8399 8C21.3452 7.98634 21.7852 7.96336 22.1599 7.94379C22.334 7.9347 22.494 7.92634 22.6399 7.92Z" fill="#646464"/>
<path d="M24 32.1799C24 33.2799 24.9 34.1799 26 34.1799L25.98 34.2599C32.8175 34.24 36.1388 34.1016 38.5354 34.0017L38.58 33.9999C41.22 33.8799 43.3 32.0599 43.64 29.5599C43.86 27.9399 43.98 26.0999 43.98 24.0599C43.98 22.0199 43.86 20.1799 43.64 18.5599C43.3 16.0599 41.22 14.2399 38.58 14.1199C36.18 13.9999 32.88 13.8599 25.98 13.8599C24.88 13.8599 23.98 14.7599 23.98 15.8599C23.98 16.9599 24.88 17.8599 25.98 17.8599C32.7574 17.8599 36.0004 17.9973 38.355 18.0971L38.42 18.0999C38.96 18.1199 39.6 18.3799 39.7 19.0799C39.9 20.5199 40 22.1799 40 24.0199C40 25.8599 39.9 27.5199 39.7 28.9599C39.62 29.6399 38.96 29.9199 38.44 29.9399L38.366 29.943C35.9923 30.0427 32.7298 30.1799 26 30.1799C24.9 30.1799 24 31.0799 24 32.1799Z" fill="#646464"/>
<path d="M11.66 34.0199H11.72V33.9799C12.8 33.9799 13.68 33.1199 13.72 32.0399C13.76 30.9399 12.88 30.0199 11.78 29.9799C11.2432 29.9674 10.7532 29.9471 10.31 29.9288C10.043 29.9177 9.79304 29.9074 9.56 29.8999C9.04 29.8799 8.4 29.6199 8.3 28.9199C8.1 27.4799 8 25.8199 8 23.9799C8 22.1399 8.1 20.4799 8.3 19.0399C8.38 18.3599 9.04 18.0799 9.56 18.0599C9.79305 18.0523 10.043 18.042 10.31 18.031C10.7533 18.0126 11.2433 17.9923 11.78 17.9799C12.88 17.9399 13.76 17.0199 13.72 15.9199C13.68 14.8199 12.68 13.9199 11.66 13.9799C11.1166 13.9922 10.6266 14.0122 10.1805 14.0304C9.90421 14.0416 9.64479 14.0522 9.4 14.0599C6.76 14.1799 4.68 15.9999 4.34 18.4999C4.12 20.1199 4 21.9599 4 23.9999C4 26.0399 4.12 27.8799 4.34 29.4999C4.68 31.9999 6.76 33.8399 9.4 33.9399C9.62632 33.9472 9.87129 33.9571 10.1339 33.9678C10.5908 33.9864 11.1012 34.0072 11.66 34.0199Z" fill="#646464"/>
</svg>
