<svg width="48" height="48" viewBox="0 0 48 48" fill="none" xmlns="http://www.w3.org/2000/svg">
<path d="M40.3637 24C40.3637 22.9958 41.1777 22.1818 42.1818 22.1818C43.186 22.1818 44 22.9958 44 24C44 29.1778 42.0273 33.898 38.7958 37.4482L38.1318 38.1424C34.7355 41.5333 30.1211 43.7139 25.0015 43.9734L23.9699 44C18.4878 43.9998 13.5191 41.7957 9.90394 38.233C9.77359 38.3356 9.64754 38.4414 9.51687 38.5384L8.78179 39.0515C7.33619 39.9949 5.4875 39.2034 5.05312 37.6328L4.8436 36.8125C4.51451 35.4314 4.29012 34.0059 4.14758 32.908L4.01442 31.7717C3.85724 30.2894 5.00583 29.0225 6.45936 29L6.7541 29.0124L7.92775 29.1438C9.28993 29.3128 11.1356 29.6003 12.6827 30.0565L12.9668 30.1594C14.3346 30.7474 14.9067 32.4448 14.0588 33.7567H14.057C13.6321 34.4137 13.1142 35.08 12.5442 35.7276C15.4984 38.5963 19.5244 40.3635 23.9699 40.3636L24.8151 40.3423C29.0068 40.1302 32.78 38.3476 35.5625 35.5696L36.1059 35.0014C38.7531 32.0939 40.3637 28.236 40.3637 24ZM7.80701 32.7979C7.89814 33.4581 8.01289 34.2059 8.16212 34.9606C8.80115 34.4101 9.42437 33.7845 9.97142 33.1442C9.23199 32.9992 8.47902 32.8864 7.80701 32.7979ZM18.5456 14.9091C20.2055 14.9091 21.5769 15.3336 22.6897 15.669C23.8387 16.0153 24.7302 16.2727 25.7845 16.2727C26.958 16.2727 28.0507 16.0771 29.0303 15.9034C29.4797 15.8237 29.9973 15.7303 30.4347 15.701C30.6565 15.6862 30.9528 15.6804 31.2639 15.733C31.5251 15.7771 31.9459 15.8877 32.3364 16.2053L32.5015 16.3544L32.624 16.4876C33.1923 17.169 33.0953 17.9661 33.0661 18.1761C33.0184 18.5187 32.9076 18.8418 32.8175 19.0746C32.6319 19.5542 32.3458 20.1223 32.1055 20.6051C31.8443 21.13 31.6066 21.6099 31.4308 22.0362C31.2927 22.3711 31.2425 22.5525 31.2266 22.6168C31.2389 22.6574 31.2753 22.7719 31.3776 22.9773C31.5329 23.2894 31.7506 23.6377 32.0097 24.0426C32.2352 24.3951 32.5447 24.8694 32.7483 25.2784C32.8472 25.4772 32.9934 25.7975 33.0572 26.1697C33.1106 26.4813 33.1523 27.146 32.7181 27.7536L32.5015 28.0092C32.1537 28.3586 31.685 28.6106 31.3278 28.7781C30.9143 28.972 30.4154 29.1594 29.8612 29.3232C28.7541 29.6502 27.3366 29.909 25.7845 29.9091C24.2078 29.9091 22.8997 29.5286 21.8197 29.2042C21.4128 29.082 21.0411 28.9737 20.6869 28.8775C20.6377 29.748 20.5816 30.5607 20.5289 31.2425C20.4821 31.8473 20.44 32.3531 20.4081 32.7074C20.3923 32.884 20.3782 33.0233 20.3691 33.1193C20.3645 33.1673 20.3609 33.2058 20.3584 33.2312C20.3572 33.2434 20.3573 33.2529 20.3567 33.2596C20.3563 33.263 20.3551 33.2666 20.3549 33.2685V33.2702C20.2555 34.2692 19.3652 34.9992 18.3663 34.9002C17.3673 34.8008 16.6373 33.9105 16.7363 32.9116V32.9027C16.7368 32.8972 16.7388 32.8887 16.7398 32.8778C16.742 32.8552 16.7445 32.8212 16.7487 32.7766C16.7573 32.6862 16.7706 32.5514 16.786 32.3807C16.8167 32.0393 16.8596 31.5505 16.905 30.9638C16.9959 29.7868 17.0977 28.2272 17.1482 26.6793L17.1713 25.7809C17.1767 25.4852 17.1802 25.1937 17.1802 24.9091C17.1802 23.1545 17.0702 21.1588 16.9582 19.5842C16.9026 18.801 16.8472 18.129 16.8055 17.6541C16.7847 17.4167 16.7661 17.2281 16.7541 17.1001C16.748 17.0362 16.7448 16.9871 16.7416 16.9545C16.7401 16.9389 16.7389 16.927 16.7381 16.919C16.7377 16.9155 16.7365 16.912 16.7363 16.9102V16.9066C16.6857 16.3959 16.8536 15.8879 17.1979 15.5075C17.5426 15.1268 18.0321 14.9091 18.5456 14.9091ZM4.00021 24C4.00021 18.4767 6.24563 13.4746 9.86843 9.8576L10.5627 9.19531C14.1183 5.96887 18.8449 4.00021 24.0285 4L25.0601 4.02663C30.1051 4.28226 34.6578 6.4054 38.0394 9.712C38.3603 9.45799 38.6812 9.21752 39.0018 9L39.2983 8.82422C40.7011 8.10838 42.3554 8.81154 42.9134 10.2074L43.0146 10.5163L43.2046 11.2781C43.6197 13.068 43.8615 14.9089 43.984 16.0153L44 16.3313C43.994 17.7891 42.8188 18.9833 41.3544 19L41.0366 18.9858C39.9016 18.8674 37.9723 18.6267 36.2088 18.2045L35.4649 18.0128C33.7561 17.534 32.9851 15.5344 33.993 14.032L34.4901 13.3359C34.7721 12.9614 35.0796 12.5894 35.4027 12.2227C32.6423 9.56557 28.9582 7.86431 24.8737 7.65767L24.0285 7.63636C19.7833 7.63657 15.9181 9.24562 13.0058 11.8888L12.4377 12.4304C9.46948 15.3939 7.63656 19.4818 7.63656 24L7.62768 24.1864C7.53435 25.103 6.75961 25.8182 5.81838 25.8182C4.87716 25.8182 4.10242 25.103 4.00909 24.1864L4.00021 24ZM39.8381 12.9382C39.1629 13.5167 38.5036 14.1789 37.9294 14.8558C38.7112 15.0109 39.5098 15.1324 40.2181 15.2251C40.1227 14.5298 39.9974 13.7372 39.8381 12.9382ZM20.813 25.163C21.5798 25.327 22.266 25.5422 22.8655 25.7223C23.93 26.0421 24.7893 26.2727 25.7845 26.2727C26.9462 26.2727 28.0161 26.0768 28.8314 25.8359C28.8344 25.8351 28.8373 25.8333 28.8403 25.8324C28.6107 25.4709 28.3404 25.0371 28.1212 24.5966C27.8864 24.1247 27.585 23.4137 27.585 22.6364C27.585 21.9051 27.8602 21.1593 28.0697 20.6513C28.2032 20.3274 28.3575 19.9927 28.5118 19.6729C27.719 19.7948 26.7826 19.9091 25.7845 19.9091C24.1246 19.9091 22.7533 19.4846 21.6404 19.1491C21.2522 19.0322 20.8921 18.9305 20.5466 18.8402C20.5584 18.9964 20.5738 19.1581 20.5857 19.3249C20.7 20.932 20.8165 23.0275 20.8165 24.9091C20.8165 24.9934 20.8134 25.078 20.813 25.163Z" fill="#646464"/>
</svg>
