<svg width="48" height="48" viewBox="0 0 48 48" fill="none" xmlns="http://www.w3.org/2000/svg">
<path fill-rule="evenodd" clip-rule="evenodd" d="M10.3442 4.46853C13.1691 4.23902 17.6381 4 24 4C30.3619 4 34.8309 4.23902 37.6558 4.46854C40.8228 4.72585 43.2741 7.1772 43.5314 10.3442C43.761 13.1691 44 17.6381 44 24C44 30.3619 43.761 34.8309 43.5314 37.6558C43.2741 40.8228 40.8228 43.2741 37.6558 43.5314C34.8309 43.761 30.3619 44 24 44C17.6381 44 13.1691 43.761 10.3442 43.5314C7.17719 43.2741 4.72585 40.8228 4.46853 37.6558C4.23902 34.8309 4 30.3619 4 24C4 17.6381 4.23902 13.1691 4.46854 10.3442C4.72585 7.17719 7.17719 4.72584 10.3442 4.46853ZM24 8C17.7379 8 13.3773 8.23528 10.6681 8.4554C9.4546 8.55399 8.554 9.45459 8.45541 10.6681C8.23528 13.3773 8 17.7379 8 24C8 30.2621 8.23528 34.6227 8.4554 37.3319C8.554 38.5454 9.45459 39.446 10.6681 39.5446C13.3773 39.7647 17.7379 40 24 40C30.2621 40 34.6227 39.7647 37.3319 39.5446C38.5454 39.446 39.446 38.5454 39.5446 37.3319C39.7647 34.6227 40 30.2621 40 24C40 17.7379 39.7647 13.3773 39.5446 10.6681C39.446 9.4546 38.5454 8.554 37.3319 8.45541C34.6227 8.23529 30.2621 8 24 8Z" fill="#646464"/>
<path d="M16.6778 24.0357C17.4418 24.0964 17.9253 24.7488 17.9474 25.5149C17.9718 26.3638 17.9962 27.6679 17.9962 29.4922C17.9962 31.3165 17.9718 32.6206 17.9474 33.4695C17.9253 34.2356 17.4418 34.8881 16.6778 34.9488C16.4628 34.9659 16.2172 34.9766 15.9396 34.9766C15.6619 34.9766 15.4164 34.9659 15.2014 34.9488C14.4373 34.8881 13.9538 34.2356 13.9317 33.4695C13.9073 32.6206 13.8829 31.3165 13.8829 29.4922C13.8829 27.6679 13.9073 26.3638 13.9317 25.5149C13.9538 24.7488 14.4373 24.0964 15.2014 24.0357C15.4164 24.0186 15.6619 24.0079 15.9396 24.0079C16.2172 24.0079 16.4628 24.0186 16.6778 24.0357Z" fill="#646464"/>
<path d="M31.1017 14.0744C30.3976 14.2025 29.9817 15.1589 29.9629 16.2451C29.9356 17.8196 29.9038 20.5059 29.9038 24.489C29.9038 28.4721 29.9356 31.1585 29.9629 32.733C29.9817 33.8192 30.3976 34.7755 31.1017 34.9037C31.3432 34.9476 31.6274 34.9766 31.9569 34.9766C32.2864 34.9766 32.5706 34.9476 32.8122 34.9037C33.5163 34.7755 33.9321 33.8192 33.951 32.733C33.9783 31.1585 34.01 28.4721 34.01 24.489C34.01 20.5059 33.9783 17.8196 33.951 16.2451C33.9321 15.1589 33.5163 14.2024 32.8122 14.0744C32.5706 14.0304 32.2864 14.0015 31.9569 14.0015C31.6274 14.0015 31.3432 14.0304 31.1017 14.0744Z" fill="#646464"/>
<path d="M24.9995 19.3138C25.583 19.4212 25.8833 19.8875 25.8967 20.387C25.9252 21.4459 25.9676 23.6104 25.9676 27.101C25.9676 30.5915 25.9252 32.756 25.8967 33.8149C25.8833 34.3144 25.583 34.7806 24.9995 34.8881C24.7222 34.9392 24.3743 34.9766 23.95 34.9766C23.5256 34.9766 23.1777 34.9392 22.9004 34.8881C22.3169 34.7806 22.0166 34.3144 22.0032 33.8149C21.9747 32.756 21.9323 30.5915 21.9323 27.101C21.9323 23.6104 21.9747 21.4459 22.0032 20.387C22.0166 19.8875 22.3169 19.4212 22.9004 19.3138C23.1777 19.2627 23.5256 19.2253 23.95 19.2253C24.3743 19.2253 24.7222 19.2627 24.9995 19.3138Z" fill="#646464"/>
</svg>
