<svg width="48" height="48" viewBox="0 0 48 48" fill="none" xmlns="http://www.w3.org/2000/svg">
<path fill-rule="evenodd" clip-rule="evenodd" d="M19.0738 6.31269C20.0056 6.9057 20.2803 8.14188 19.6873 9.07376L13.3566 19.022C12.3262 20.6412 10.0614 20.8898 8.7043 19.5327L4.58579 15.4142C3.80474 14.6332 3.80474 13.3668 4.58579 12.5858C5.36684 11.8047 6.63317 11.8047 7.41421 12.5858L10.6512 15.8228L16.3127 6.92626C16.9057 5.99437 18.1419 5.71967 19.0738 6.31269ZM20 14C20 12.8954 20.8954 12 22 12H42C43.1046 12 44 12.8954 44 14C44 15.1046 43.1046 16 42 16H22C20.8954 16 20 15.1046 20 14ZM19.0773 26.3666C20.008 26.9616 20.28 28.1983 19.685 29.1289L13.3515 39.0349C12.3225 40.6443 10.0714 40.8949 8.7137 39.5512L4.59314 35.4731C3.80805 34.6961 3.80148 33.4298 4.57847 32.6447C5.35546 31.8597 6.62177 31.8531 7.40686 32.6301L10.648 35.8378L16.315 26.9743C16.91 26.0436 18.1467 25.7716 19.0773 26.3666ZM20 34C20 32.8954 20.8954 32 22 32L42 32C43.1046 32 44 32.8954 44 34C44 35.1046 43.1046 36 42 36L22 36C20.8954 36 20 35.1046 20 34Z" fill="#646464"/>
</svg>
