<svg width="48" height="48" viewBox="0 0 48 48" fill="none" xmlns="http://www.w3.org/2000/svg">
<path fill-rule="evenodd" clip-rule="evenodd" d="M24 44.0007C35.0457 44.0007 44 35.0464 44 24.0007C44 12.955 35.0457 4.00073 24 4.00073C12.9543 4.00073 4 12.955 4 24.0007C4 35.0464 12.9543 44.0007 24 44.0007ZM34.4143 20.4148C35.1954 19.6337 35.1954 18.3674 34.4143 17.5863C33.6333 16.8053 32.3669 16.8053 31.5859 17.5863L21.0001 28.1721L16.4143 23.5863C15.6333 22.8053 14.3669 22.8053 13.5859 23.5863C12.8048 24.3674 12.8048 25.6337 13.5859 26.4148L19.5859 32.4147C20.3669 33.1958 21.6333 33.1958 22.4143 32.4147L34.4143 20.4148Z" fill="#30A46C"/>
</svg>
