<svg width="48" height="48" viewBox="0 0 48 48" fill="none" xmlns="http://www.w3.org/2000/svg">
<path d="M42.5802 11.78L22.5802 31.78C22.3952 31.9654 22.1754 32.1125 21.9335 32.2129C21.6915 32.3132 21.4322 32.3649 21.1702 32.3649C20.9083 32.3649 20.6489 32.3132 20.407 32.2129C20.1651 32.1125 19.9453 31.9654 19.7602 31.78L14.1002 26.12C13.9151 25.9349 13.7682 25.715 13.668 25.4731C13.5678 25.2312 13.5162 24.9719 13.5162 24.71C13.5162 24.4482 13.5678 24.1889 13.668 23.9469C13.7682 23.705 13.9151 23.4852 14.1002 23.3C14.2854 23.1148 14.5052 22.968 14.7472 22.8678C14.9891 22.7675 15.2484 22.716 15.5102 22.716C15.7721 22.716 16.0314 22.7675 16.2733 22.8678C16.5153 22.968 16.7351 23.1148 16.9202 23.3L21.1602 27.54L39.7402 8.96001C39.9253 8.77461 40.1451 8.62751 40.387 8.52715C40.6289 8.42678 40.8883 8.37512 41.1502 8.37512C41.4122 8.37512 41.6715 8.42678 41.9135 8.52715C42.1554 8.62751 42.3752 8.77461 42.5602 8.96001C43.3602 9.74001 43.3602 11 42.5802 11.78ZM24.0002 40C14.5802 40 7.04025 31.82 8.10025 22.2C8.88025 15.16 14.3402 9.38001 21.3202 8.22001C24.9402 7.62001 28.3802 8.26001 31.3002 9.78001C31.7723 10.0267 32.3231 10.0757 32.8313 9.91627C33.3395 9.75687 33.7636 9.4021 34.0102 8.93001C34.2569 8.45793 34.3059 7.9072 34.1465 7.39897C33.9871 6.89075 33.6323 6.46666 33.1602 6.22001C30.2202 4.72001 26.9002 3.90001 23.3602 4.00001C13.0802 4.32001 4.54025 12.68 4.02025 22.94C3.44025 34.48 12.6002 44 24.0002 44C26.4002 44 28.6802 43.58 30.8202 42.8C32.1802 42.3 32.5602 40.54 31.5202 39.5C31.2548 39.231 30.9172 39.0444 30.5482 38.9628C30.1792 38.8811 29.7944 38.908 29.4402 39.04C27.7402 39.66 25.9002 40 24.0002 40Z" fill="#646464"/>
<path d="M37.1718 26.3432L40.0002 29.1716L42.8287 26.3432C43.6065 25.5653 44.8793 25.5653 45.6571 26.3432C46.4349 27.121 46.4349 28.3938 45.6571 29.1716L42.8287 32L45.6571 34.8284C46.4349 35.6063 46.4349 36.8791 45.6571 37.6569C44.8793 38.4347 43.6065 38.4347 42.8287 37.6569L40.0002 34.8284L37.1718 37.6569C36.394 38.4347 35.1212 38.4347 34.3434 37.6569C33.5656 36.8791 33.5656 35.6063 34.3434 34.8284L37.1718 32L34.3434 29.1716C33.5656 28.3938 33.5656 27.121 34.3434 26.3432C35.1212 25.5653 36.394 25.5653 37.1718 26.3432Z" fill="#646464"/>
</svg>
