<svg width="48" height="48" viewBox="0 0 48 48" fill="none" xmlns="http://www.w3.org/2000/svg">
<path fill-rule="evenodd" clip-rule="evenodd" d="M14.1887 11.3603C16.8981 9.25416 20.3026 8 24 8C32.8366 8 40 15.1634 40 24C40 27.6974 38.7458 31.1019 36.6397 33.8113L14.1887 11.3603ZM11.3603 14.1887C9.25416 16.8981 8 20.3026 8 24C8 32.8366 15.1634 40 24 40C27.6974 40 31.1019 38.7458 33.8113 36.6397L11.3603 14.1887ZM24 4C12.9543 4 4 12.9543 4 24C4 35.0457 12.9543 44 24 44C35.0457 44 44 35.0457 44 24C44 12.9543 35.0457 4 24 4Z" fill="#646464"/>
</svg>
