<svg width="48" height="48" viewBox="0 0 48 48" fill="none" xmlns="http://www.w3.org/2000/svg">
<path d="M19.3097 23.1895L24.0273 19.1244L28.6947 23.181C29.1115 23.5432 29.7432 23.499 30.1054 23.0822L31.3354 21.667C31.6976 21.2502 31.6534 20.6186 31.2366 20.2563L24.6913 14.5677C24.3164 14.2418 23.759 14.2406 23.3826 14.565L16.7802 20.2541C16.3619 20.6146 16.315 21.246 16.6755 21.6644L17.8994 23.0848C18.2599 23.5032 18.8913 23.5501 19.3097 23.1895Z" fill="#646464"/>
<path d="M16.4539 28.7577C16.0155 29.0936 15.9297 29.7241 16.2919 30.1411C18.4895 32.6716 21.0959 34.0001 24.0377 34.0001C26.9869 34.0001 29.5708 32.6644 31.7077 30.1236C32.0631 29.7009 31.9658 29.0719 31.5213 28.7441L30.0124 27.6313C29.5679 27.3035 28.946 27.4028 28.5815 27.8177C27.1968 29.3936 25.7058 30.1252 24.0377 30.1252C22.3544 30.1252 20.8215 29.3799 19.3748 27.7791C19.0045 27.3694 18.3808 27.2818 17.9424 27.6177L16.4539 28.7577Z" fill="#646464"/>
<path fill-rule="evenodd" clip-rule="evenodd" d="M24 4C17.6381 4 13.1691 4.23902 10.3442 4.46853C7.17719 4.72584 4.72585 7.17719 4.46853 10.3442C4.23902 13.1691 4 17.6381 4 24C4 30.3619 4.23902 34.8309 4.46853 37.6558C4.72585 40.8228 7.17719 43.2741 10.3442 43.5314C13.1691 43.761 17.6381 44 24 44C30.3619 44 34.8309 43.761 37.6558 43.5314C40.8228 43.2741 43.2741 40.8228 43.5314 37.6558C43.761 34.8309 44 30.3619 44 24C44 17.6381 43.761 13.1691 43.5314 10.3442C43.2741 7.1772 40.8228 4.72585 37.6558 4.46854C34.8309 4.23902 30.3619 4 24 4ZM10.6681 8.4554C13.3773 8.23528 17.7379 8 24 8C30.2621 8 34.6227 8.23528 37.3319 8.45541C38.5454 8.554 39.446 9.45459 39.5446 10.6681C39.7647 13.3773 40 17.7379 40 24C40 30.2621 39.7647 34.6227 39.5446 37.3319C39.446 38.5454 38.5454 39.446 37.3319 39.5446C34.6227 39.7647 30.2621 40 24 40C17.7379 40 13.3773 39.7647 10.6681 39.5446C9.45459 39.446 8.554 38.5454 8.4554 37.3319C8.23528 34.6227 8 30.2621 8 24C8 17.7379 8.23528 13.3773 8.4554 10.6681C8.554 9.45458 9.45459 8.55399 10.6681 8.4554Z" fill="#646464"/>
</svg>
