<svg width="48" height="48" viewBox="0 0 48 48" fill="none" xmlns="http://www.w3.org/2000/svg">
<path fill-rule="evenodd" clip-rule="evenodd" d="M4 24C4 12.9543 12.9543 4 24 4C35.0457 4 44 12.9543 44 24C44 35.0457 35.0457 44 24 44C12.9543 44 4 35.0457 4 24ZM24 11C25.1046 11 26 11.8954 26 13V24C26 24.7575 25.572 25.4501 24.8944 25.7889L15.7889 30.5777C14.8009 31.0717 13.5996 30.6712 13.1056 29.6833C12.6116 28.6953 13.012 27.494 14 27L22 22.7639V13C22 11.8954 22.8954 11 24 11Z" fill="#646464"/>
</svg>
