<svg width="48" height="48" viewBox="0 0 48 48" fill="none" xmlns="http://www.w3.org/2000/svg">
<path fill-rule="evenodd" clip-rule="evenodd" d="M24 8C15.1634 8 8 15.1634 8 24C8 32.8366 15.1634 40 24 40C32.8366 40 40 32.8366 40 24C40 15.1634 32.8366 8 24 8ZM4 24C4 12.9543 12.9543 4 24 4C35.0457 4 44 12.9543 44 24C44 35.0457 35.0457 44 24 44C12.9543 44 4 35.0457 4 24ZM24 12C25.1046 12 26 12.8954 26 14V24C26 24.7575 25.572 25.4501 24.8944 25.7889L16.8944 29.7889C15.9065 30.2828 14.7051 29.8824 14.2111 28.8944C13.7172 27.9065 14.1176 26.7051 15.1056 26.2111L22 22.7639V14C22 12.8954 22.8954 12 24 12Z" fill="#646464"/>
</svg>
