<svg width="48" height="48" viewBox="0 0 48 48" fill="none" xmlns="http://www.w3.org/2000/svg">
<path fill-rule="evenodd" clip-rule="evenodd" d="M28.1265 8.65708C19.5911 6.37002 10.8177 11.4353 8.53062 19.9708C6.24355 28.5063 11.3089 37.2796 19.8443 39.5667C21.3371 39.9667 22.8339 40.1415 24.3001 40.1135C25.4045 40.0923 26.3169 40.9705 26.338 42.0748C26.3592 43.1792 25.481 44.0916 24.3767 44.1127C22.5391 44.1479 20.6679 43.9285 18.8091 43.4304C8.13973 40.5716 1.80808 29.6048 4.66692 18.9355C7.52575 8.26619 18.4925 1.93454 29.1618 4.79338C37.7633 7.09815 43.5412 14.67 43.9649 23.1044C44.0203 24.2075 43.1709 25.1468 42.0677 25.2022C40.9646 25.2576 40.0253 24.4082 39.9699 23.305C39.6308 16.5538 35.0025 10.4995 28.1265 8.65708ZM23.9997 12.0001C25.1043 12.0001 25.9997 12.8955 25.9997 14.0001V24.0001C25.9997 24.7576 25.5717 25.4502 24.8941 25.789L16.8939 29.7889C15.906 30.2828 14.7046 29.8824 14.2107 28.8944C13.7167 27.9064 14.1172 26.7051 15.1051 26.2111L21.9997 22.764V14.0001C21.9997 12.8955 22.8951 12.0001 23.9997 12.0001ZM36.9997 26C38.1042 26 38.9997 26.8954 38.9997 28V33H44C45.1046 33 46 33.8954 46 35C46 36.1046 45.1046 37 44 37H38.9997V42C38.9997 43.1046 38.1042 44 36.9997 44C35.8951 44 34.9997 43.1046 34.9997 42V37H30C28.8954 37 28 36.1046 28 35C28 33.8954 28.8954 33 30 33H34.9997V28C34.9997 26.8954 35.8951 26 36.9997 26Z" fill="#646464"/>
</svg>
