<svg width="48" height="48" viewBox="0 0 48 48" fill="none" xmlns="http://www.w3.org/2000/svg">
<path fill-rule="evenodd" clip-rule="evenodd" d="M37.4142 10.5858C38.1953 11.3668 38.1953 12.6332 37.4142 13.4142L25.4142 25.4142C24.6332 26.1953 23.3668 26.1953 22.5858 25.4142L10.5858 13.4142C9.80474 12.6332 9.80474 11.3668 10.5858 10.5858C11.3668 9.80474 12.6332 9.80474 13.4142 10.5858L24 21.1716L34.5858 10.5858C35.3668 9.80474 36.6332 9.80474 37.4142 10.5858Z" fill="#646464"/>
<path fill-rule="evenodd" clip-rule="evenodd" d="M37.4142 22.5858C38.1953 23.3668 38.1953 24.6332 37.4142 25.4142L25.4142 37.4142C24.6332 38.1953 23.3668 38.1953 22.5858 37.4142L10.5858 25.4142C9.80474 24.6332 9.80474 23.3668 10.5858 22.5858C11.3668 21.8047 12.6332 21.8047 13.4142 22.5858L24 33.1716L34.5858 22.5858C35.3668 21.8047 36.6332 21.8047 37.4142 22.5858Z" fill="#646464"/>
</svg>
