<svg width="48" height="48" viewBox="0 0 48 48" fill="none" xmlns="http://www.w3.org/2000/svg">
<path fill-rule="evenodd" clip-rule="evenodd" d="M10.5858 37.4142C9.80474 36.6332 9.80474 35.3668 10.5858 34.5858L22.5858 22.5858C23.3668 21.8047 24.6332 21.8047 25.4142 22.5858L37.4142 34.5858C38.1953 35.3668 38.1953 36.6332 37.4142 37.4142C36.6332 38.1953 35.3668 38.1953 34.5858 37.4142L24 26.8284L13.4142 37.4142C12.6332 38.1953 11.3668 38.1953 10.5858 37.4142Z" fill="#646464"/>
<path fill-rule="evenodd" clip-rule="evenodd" d="M10.5858 25.4142C9.80474 24.6332 9.80474 23.3668 10.5858 22.5858L22.5858 10.5858C23.3668 9.80474 24.6332 9.80474 25.4142 10.5858L37.4142 22.5858C38.1953 23.3668 38.1953 24.6332 37.4142 25.4142C36.6332 26.1953 35.3668 26.1953 34.5858 25.4142L24 14.8284L13.4142 25.4142C12.6332 26.1953 11.3668 26.1953 10.5858 25.4142Z" fill="#646464"/>
</svg>
