<svg width="48" height="48" viewBox="0 0 48 48" fill="none" xmlns="http://www.w3.org/2000/svg">
<path fill-rule="evenodd" clip-rule="evenodd" d="M24 4.00073C12.9543 4.00073 4 12.955 4 24.0007C4 35.0464 12.9543 44.0007 24 44.0007C35.0457 44.0007 44 35.0464 44 24.0007C44 12.955 35.0457 4.00073 24 4.00073ZM16.5858 16.5857C17.3668 15.8047 18.6332 15.8047 19.4142 16.5857L24 21.1715L28.5858 16.5857C29.3668 15.8047 30.6332 15.8047 31.4142 16.5857C32.1953 17.3668 32.1953 18.6331 31.4142 19.4142L26.8284 23.9999L31.4142 28.5857C32.1953 29.3668 32.1953 30.6331 31.4142 31.4142C30.6332 32.1952 29.3668 32.1952 28.5858 31.4142L24 26.8284L19.4142 31.4142C18.6332 32.1952 17.3668 32.1952 16.5858 31.4142C15.8047 30.6331 15.8047 29.3668 16.5858 28.5857L21.1716 23.9999L16.5858 19.4142C15.8047 18.6331 15.8047 17.3668 16.5858 16.5857Z" fill="#E5484D"/>
</svg>
