<svg width="48" height="48" viewBox="0 0 48 48" fill="none" xmlns="http://www.w3.org/2000/svg">
<path fill-rule="evenodd" clip-rule="evenodd" d="M32.0027 6.37982C32.0556 5.27652 32.9929 4.42499 34.0962 4.47788C34.3066 4.48797 34.5158 4.49839 34.7238 4.50916L34.85 4.51568C36.2311 4.58703 37.4723 4.65116 38.4961 4.8539C39.6376 5.07998 40.6866 5.50716 41.5898 6.4103C42.4928 7.31329 42.92 8.36189 43.1462 9.50322C43.3489 10.5266 43.413 11.7672 43.4844 13.1474L43.4909 13.2738C43.8369 19.9567 43.8369 28.0429 43.4909 34.7258L43.4844 34.8521C43.413 36.2322 43.3489 37.4729 43.1462 38.4962C42.92 39.6375 42.4928 40.686 41.5898 41.589C40.6869 42.492 39.6383 42.9192 38.497 43.1454C37.4737 43.3481 36.2331 43.4123 34.8529 43.4836L34.7267 43.4902C28.0436 43.8363 19.9571 43.8363 13.2742 43.4902L13.1479 43.4836C11.7678 43.4123 10.5272 43.3481 9.50384 43.1454C8.36257 42.9192 7.31403 42.492 6.41107 41.589C5.50797 40.6859 5.08078 39.637 4.85469 38.4955C4.65194 37.4718 4.58779 36.2307 4.51643 34.8497L4.5099 34.7235C4.36825 31.9879 4.2848 29.0216 4.25905 26.0169C4.24958 24.9124 5.13731 24.0093 6.24183 23.9999C7.34636 23.9904 8.24943 24.8781 8.2589 25.9827C8.28423 28.9381 8.36628 31.8463 8.50455 34.5167C8.58465 36.0637 8.63858 37.0121 8.77846 37.7183C8.90116 38.3378 9.0559 38.577 9.23952 38.7606C9.42329 38.9444 9.66239 39.099 10.2813 39.2217C10.9871 39.3615 11.9348 39.4154 13.4811 39.4955C20.0262 39.8345 27.9745 39.8345 34.5198 39.4955C36.0661 39.4154 37.0138 39.3615 37.7196 39.2217C38.3385 39.099 38.5776 38.9444 38.7614 38.7606C38.9451 38.5768 39.0998 38.3377 39.2224 37.7188C39.3623 37.013 39.4162 36.0652 39.4962 34.5189C39.8351 27.9739 39.8351 20.0258 39.4962 13.4806C39.4162 11.9342 39.3623 10.9865 39.2224 10.2806C39.0998 9.66162 38.9451 9.42252 38.7614 9.23875C38.5777 9.05515 38.3386 8.9004 37.719 8.77769C37.0126 8.63781 36.0642 8.58389 34.517 8.50381C34.3142 8.49331 34.1101 8.48314 33.9046 8.47329C32.8013 8.4204 31.9498 7.48313 32.0027 6.37982Z" fill="#646464"/>
<path fill-rule="evenodd" clip-rule="evenodd" d="M13.4144 2.58579C14.1954 3.36683 14.1954 4.63317 13.4144 5.41421L8.24283 10.5858C7.53618 11.2924 7.15147 11.6832 6.91866 11.9883C6.91562 11.9923 6.91266 11.9962 6.90977 12C6.91266 12.0038 6.91562 12.0077 6.91866 12.0117C7.15147 12.3168 7.53618 12.7076 8.24283 13.4142L13.4144 18.5858C14.1954 19.3668 14.1954 20.6332 13.4144 21.4142C12.6334 22.1953 11.367 22.1953 10.586 21.4142L5.4144 16.2426C5.38872 16.217 5.36306 16.1913 5.33743 16.1657C4.73759 15.5661 4.15465 14.9834 3.73857 14.438C3.2695 13.8232 2.82861 13.0273 2.82861 12C2.82861 10.9727 3.2695 10.1768 3.73857 9.56196C4.15465 9.01662 4.7376 8.4339 5.33745 7.83429C5.36307 7.80868 5.38873 7.78303 5.4144 7.75736L10.586 2.58579C11.367 1.80474 12.6334 1.80474 13.4144 2.58579ZM18.586 2.58579C19.367 1.80474 20.6334 1.80474 21.4144 2.58579L26.586 7.75736C26.6117 7.78304 26.6373 7.80869 26.6629 7.83431C27.2628 8.43391 27.8457 9.01663 28.2618 9.56196C28.7309 10.1768 29.1718 10.9727 29.1718 12C29.1718 13.0273 28.7309 13.8232 28.2618 14.438C27.8457 14.9834 27.2628 15.5661 26.663 16.1657C26.6373 16.1913 26.6117 16.217 26.586 16.2426L21.4144 21.4142C20.6334 22.1953 19.367 22.1953 18.586 21.4142C17.8049 20.6332 17.8049 19.3668 18.586 18.5858L23.7575 13.4142C24.4642 12.7076 24.8489 12.3168 25.0817 12.0117C25.0847 12.0077 25.0877 12.0038 25.0906 12C25.0877 11.9962 25.0847 11.9923 25.0817 11.9883C24.8489 11.6832 24.4642 11.2924 23.7575 10.5858L18.586 5.41421C17.8049 4.63317 17.8049 3.36683 18.586 2.58579Z" fill="#646464"/>
</svg>
