<svg width="48" height="48" viewBox="0 0 48 48" fill="none" xmlns="http://www.w3.org/2000/svg">
<path fill-rule="evenodd" clip-rule="evenodd" d="M24 8C15.1634 8 8 15.1634 8 24C8 26.558 8.59881 28.9704 9.66207 31.1099C10.1536 32.0991 9.75026 33.2995 8.7611 33.791C7.77195 34.2826 6.57158 33.8792 6.08001 32.8901C4.74802 30.2098 4 27.1894 4 24C4 12.9543 12.9543 4 24 4C35.0457 4 44 12.9543 44 24C44 27.1894 43.252 30.2098 41.92 32.8901C41.4284 33.8792 40.2281 34.2826 39.2389 33.791C38.2497 33.2995 37.8464 32.0991 38.3379 31.1099C39.4012 28.9704 40 26.558 40 24C40 15.1634 32.8366 8 24 8ZM15.5858 28.5858L22.5858 21.5858C23.3668 20.8047 24.6332 20.8047 25.4142 21.5858L32.4142 28.5858C33.1953 29.3668 33.1953 30.6332 32.4142 31.4142C31.6332 32.1953 30.3668 32.1953 29.5858 31.4142L24 25.8284L18.4142 31.4142C17.6332 32.1953 16.3668 32.1953 15.5858 31.4142C14.8047 30.6332 14.8047 29.3668 15.5858 28.5858ZM15.5858 40.5858L22.5858 33.5858C23.3668 32.8047 24.6332 32.8047 25.4142 33.5858L32.4142 40.5858C33.1953 41.3668 33.1953 42.6332 32.4142 43.4142C31.6332 44.1953 30.3668 44.1953 29.5858 43.4142L24 37.8284L18.4142 43.4142C17.6332 44.1953 16.3668 44.1953 15.5858 43.4142C14.8047 42.6332 14.8047 41.3668 15.5858 40.5858Z" fill="#646464"/>
</svg>
