<svg width="48" height="48" viewBox="0 0 48 48" fill="none" xmlns="http://www.w3.org/2000/svg">
<path fill-rule="evenodd" clip-rule="evenodd" d="M32.9458 30.7943C33.7734 31.3714 34.6967 31.66 35.6199 31.66V31.7C36.6799 31.7 37.7399 31.3 38.5799 30.5L39.3799 29.7C40.6799 28.32 40.9199 26.4 40.1199 24.74L40.5199 24.34C45.1599 19.7 45.1599 12.14 40.5199 7.50002C38.2799 5.26002 35.2999 4.02002 32.1199 4.02002C28.9399 4.02002 25.9599 5.26002 23.7199 7.50002L23.3799 7.84002C21.6599 6.88002 19.6199 7.08002 18.1799 8.44002L17.3799 9.24002C15.8424 10.8713 15.7815 13.276 17.1972 15.1029L8.51989 23.7802C6.51989 25.7802 5.47989 28.0802 5.49989 30.4002C5.51989 31.8602 5.69989 33.1402 5.83989 33.8602L4.21989 37.9202C3.77989 39.0002 3.87989 40.8402 5.51989 42.4802C6.63989 43.6002 7.85989 44.0002 8.87989 44.0002L8.91989 43.9802C9.29989 43.9802 9.65989 43.9202 9.95989 43.8202C10.0199 43.8002 10.1799 43.7402 10.1799 43.7402L14.1199 42.0802C14.8399 42.2202 16.0399 42.4002 17.4599 42.4402C19.9199 42.5002 22.2799 41.4602 24.3599 39.3802L32.9458 30.7943ZM19.9071 18.0129C21.1457 19.3049 22.7549 20.955 24.8199 23.02C26.9676 25.1677 28.6664 26.8223 29.9804 28.0797L21.5199 36.5402C20.6399 37.4402 19.1799 38.5202 17.5599 38.4402C15.7799 38.4002 14.3999 38.0602 14.3999 38.0602C13.9799 37.9602 13.5399 38.0002 13.1399 38.1602L8.81989 39.9802C8.73989 39.9402 8.57989 39.8402 8.35989 39.6402C8.13989 39.4402 8.01989 39.1802 8.01989 39.1802L8.03989 39.1402L9.79989 34.7202C9.95989 34.3402 9.97989 33.9002 9.87989 33.5002C9.87989 33.5002 9.53989 32.0802 9.51989 30.3002C9.49989 28.7402 10.4999 27.4002 11.3599 26.5602L19.9071 18.0129Z" fill="#646464"/>
</svg>
