<svg width="48" height="48" viewBox="0 0 48 48" fill="none" xmlns="http://www.w3.org/2000/svg">
<path fill-rule="evenodd" clip-rule="evenodd" d="M24 4C17.6381 4 13.1691 4.23902 10.3442 4.46853C7.1772 4.72584 4.72585 7.17719 4.46854 10.3442C4.23902 13.1691 4 17.6381 4 24C4 30.3619 4.23902 34.8309 4.46853 37.6558C4.72585 40.8228 7.17719 43.2741 10.3442 43.5314C13.1691 43.761 17.6381 44 24 44C30.3619 44 34.8309 43.761 37.6558 43.5314C40.8228 43.2741 43.2741 40.8228 43.5314 37.6558C43.761 34.8309 44 30.3619 44 24C44 17.6381 43.761 13.1691 43.5314 10.3442C43.2741 7.1772 40.8228 4.72585 37.6558 4.46854C34.8309 4.23902 30.3619 4 24 4ZM20 8.0339C21.2359 8.0123 22.5683 8 24 8C25.4317 8 26.7641 8.0123 28 8.03391V39.9661C26.7641 39.9877 25.4317 40 24 40C22.5683 40 21.2359 39.9877 20 39.9661V8.0339ZM16 8.14522C13.7892 8.23155 12.0224 8.34537 10.6681 8.4554C9.45459 8.55399 8.554 9.45459 8.45541 10.6681C8.23528 13.3773 8 17.7379 8 24C8 30.2621 8.23528 34.6227 8.4554 37.3319C8.554 38.5454 9.45459 39.446 10.6681 39.5446C12.0224 39.6546 13.7892 39.7684 16 39.8548V8.14522ZM32 39.8548C34.2107 39.7684 35.9776 39.6546 37.3319 39.5446C38.5454 39.446 39.446 38.5454 39.5446 37.3319C39.7647 34.6227 40 30.2621 40 24C40 17.7379 39.7647 13.3773 39.5446 10.6681C39.446 9.45459 38.5454 8.554 37.3319 8.45541C35.9776 8.34537 34.2107 8.23155 32 8.14523V39.8548Z" fill="#646464"/>
</svg>
