<svg width="48" height="48" viewBox="0 0 48 48" fill="none" xmlns="http://www.w3.org/2000/svg">
<path fill-rule="evenodd" clip-rule="evenodd" d="M13 10C11.3431 10 10 11.3431 10 13C10 14.6569 11.3431 16 13 16H16V13C16 11.3431 14.6569 10 13 10ZM20 16V13C20 9.13401 16.866 6 13 6C9.13401 6 6 9.13401 6 13C6 16.866 9.13401 20 13 20H16V28H13C9.13401 28 6 31.134 6 35C6 38.866 9.13401 42 13 42C16.866 42 20 38.866 20 35V32H28V35C28 38.866 31.134 42 35 42C38.866 42 42 38.866 42 35C42 31.134 38.866 28 35 28H32V20H35C38.866 20 42 16.866 42 13C42 9.13401 38.866 6 35 6C31.134 6 28 9.13401 28 13V16H20ZM20 20V28H28V20H20ZM32 16H35C36.6569 16 38 14.6569 38 13C38 11.3431 36.6569 10 35 10C33.3431 10 32 11.3431 32 13V16ZM32 32V35C32 36.6569 33.3431 38 35 38C36.6569 38 38 36.6569 38 35C38 33.3431 36.6569 32 35 32H32ZM16 32H13C11.3431 32 10 33.3431 10 35C10 36.6569 11.3431 38 13 38C14.6569 38 16 36.6569 16 35V32Z" fill="#646464"/>
</svg>
