<svg width="48" height="48" viewBox="0 0 48 48" fill="none" xmlns="http://www.w3.org/2000/svg">
<path fill-rule="evenodd" clip-rule="evenodd" d="M24.48 34.9403C24.84 34.5203 25.38 34.2803 25.96 34.2803C31.685 34.2404 34.9828 34.0613 37.5201 33.8817C38.6601 33.8017 39.48 33.0003 39.58 31.9203C39.7 30.4603 39.84 28.5003 39.92 25.9803V26.0003L43.92 26.1203C43.84 28.7003 43.7 30.7403 43.56 32.2803C43.2806 35.3736 40.8506 37.6504 37.8199 37.8789C35.3386 38.0493 32.1759 38.2392 26.8704 38.2757L20.82 45.0003L20.64 45.1803L20.6302 45.1688C19.3912 46.2399 17.737 46.1593 16.62 45.7603C15.5239 45.3817 14.0504 44.3079 14.0401 42.4203L14.04 42.4003V38.11C12.7659 38.0532 11.7939 37.988 10.8783 37.9266C10.6432 37.9109 10.4118 37.8954 10.18 37.8803C7.14 37.6603 4.7 35.3603 4.42 32.2803L4.43984 32.2785C4.21989 29.8585 4 26.2191 4 21.1403C4 16.0603 4.22 12.4003 4.44 10.0003C4.71939 6.92705 7.14936 4.63037 10.1801 4.4018C12.694 4.22224 16.5611 4.0412 22.02 4.00062C23.14 3.98062 24.04 4.88033 24.04 5.98033C24.06 7.10033 23.16 8.00033 22.06 8.00033V8.02033C16.6947 8.04027 12.9008 8.23923 10.4799 8.39901C9.33991 8.47901 8.52 9.28033 8.42 10.3603C8.2 12.6403 8 16.1803 8 21.1403C8 26.1003 8.22 29.6403 8.42 31.9203L8.40017 31.9221C8.50093 32.9813 9.32064 33.8004 10.46 33.8803C12 34.0003 13.44 34.1003 16.08 34.1803L16.02 36.1803H16.04L16.1 34.1803C17.18 34.2203 18.04 35.1003 18.04 36.1803V42.0553C18.0514 42.0582 18.0629 42.0594 18.0743 42.0599L24.48 34.9403ZM18.1732 42.0603C18.1922 42.0567 18.1971 42.0603 18.18 42.0603H18.1732Z" fill="#646464"/>
<path fill-rule="evenodd" clip-rule="evenodd" d="M25.2798 13.36C25.2798 18.52 29.4798 22.72 34.6398 22.72C39.7998 22.72 43.9998 18.52 43.9998 13.36C43.9998 8.2 39.7998 4 34.6398 4C29.4798 4 25.2798 8.2 25.2798 13.36ZM29.2798 13.36C29.2798 10.4 31.6798 8 34.6398 8C37.5998 8 39.9998 10.4 39.9998 13.36C39.9998 16.32 37.5998 18.72 34.6398 18.72C31.6798 18.72 29.2798 16.32 29.2798 13.36Z" fill="#646464"/>
</svg>
