<svg width="48" height="48" viewBox="0 0 48 48" fill="none" xmlns="http://www.w3.org/2000/svg">
<path d="M21.4001 44C20.8801 44 20.3601 43.9 19.8401 43.68C18.1401 42.96 17.1201 41.18 17.2801 39.26C17.6201 35.1 17.9201 31.96 18.1801 29.6C16.6601 29.6 15.7201 29.5 14.7001 29.42L13.8201 29.34C12.6801 29.26 11.6601 28.72 10.9601 27.82C10.2201 26.9 9.90008 25.68 10.0801 24.48C10.5601 21.18 11.7601 14.6 14.3001 7.5C14.9201 5.68 16.5601 4.38 18.4401 4.24C23.4601 3.84 26.5201 4.04 29.4801 4.22C30.6801 4.3 31.7801 4.86 32.5001 5.8C33.2801 6.8 33.6201 8.1 33.4001 9.36C33.0401 11.52 32.5601 14.16 32.0401 16.68C33.4401 16.68 34.7601 16.68 36.0201 16.74C37.5401 16.78 38.8401 17.62 39.5401 18.98C40.2601 20.42 40.1401 22.14 39.2001 23.48C36.3601 27.6 30.6401 35.56 24.4601 42.6C23.6401 43.52 22.5401 44.02 21.4201 44.02L21.4001 44ZM20.4401 25.58C21.0001 25.58 21.5401 25.82 21.9201 26.24C22.3001 26.68 22.4801 27.26 22.4201 27.84C22.1001 30.22 21.7401 33.94 21.2801 39.58C21.2601 39.9 21.4001 40 21.4201 40C27.5001 33.04 33.1001 25.22 35.9201 21.18C36.0201 21.04 36.0201 20.92 36.0001 20.86C33.9601 20.66 31.8401 20.66 29.6001 20.7C28.9801 20.7 28.4001 20.44 28.0001 19.96C27.6201 19.48 27.4601 18.84 27.6001 18.24C28.3201 15.14 28.9601 11.5 29.4401 8.68C29.4801 8.46 29.3801 8.3 29.3601 8.28C26.4001 8.04 23.4801 7.86 18.7601 8.24C18.4401 8.26 18.1601 8.52 18.0401 8.88C15.6201 15.66 14.4801 21.94 14.0201 25.08C14.0001 25.24 14.0601 25.32 14.0801 25.34L15.0401 25.44C16.4601 25.56 17.5801 25.64 20.4201 25.58H20.4601H20.4401Z" fill="#646464"/>
</svg>
