<svg width="48" height="48" viewBox="0 0 48 48" fill="none" xmlns="http://www.w3.org/2000/svg">
<path fill-rule="evenodd" clip-rule="evenodd" d="M37 16.38C37 19.14 34.96 21.38 32.26 21.56C31.66 21.6 30.98 21.64 30.2 21.68V26.32C30.98 26.36 31.68 26.4 32.26 26.44C34.96 26.64 37 28.86 37 31.62C37 34.6 34.58 37.02 31.6 37.02C28.84 37.02 26.6 34.98 26.42 32.28C26.38 31.68 26.34 31 26.3 30.22C24.86 30.2 23.1 30.2 21.66 30.22C21.62 31 21.58 31.7 21.54 32.28C21.34 34.98 19.12 37.02 16.36 37.02C13.38 37.02 10.96 34.6 10.96 31.62C10.96 28.86 13 26.62 15.7 26.44C16.3 26.4 16.98 26.36 17.76 26.32V21.68C16.98 21.64 16.28 21.6 15.7 21.56C13 21.36 10.96 19.14 10.96 16.38C10.96 13.4 13.38 10.98 16.36 10.98C19.12 10.98 21.36 13.02 21.54 15.72C21.58 16.32 21.62 17 21.66 17.78C23.1 17.8 24.86 17.8 26.3 17.78C26.34 17 26.38 16.3 26.42 15.72C26.62 13.02 28.84 10.98 31.6 10.98C34.58 10.98 37 13.4 37 16.38ZM31.6 15C30.96 15 30.46 15.44 30.42 16.02C30.38 16.52 30.34 17.06 30.32 17.68C30.5735 17.6636 30.817 17.6506 31.0491 17.6382C31.3846 17.6203 31.6962 17.6036 31.98 17.58C32.58 17.54 33 17.04 33 16.4C33 15.62 32.36 15 31.6 15ZM14.98 16.4C14.98 17.04 15.42 17.54 16 17.58C16.2928 17.6034 16.5994 17.62 16.9277 17.6377C17.1599 17.6503 17.4031 17.6634 17.66 17.68C17.6436 17.4265 17.6306 17.183 17.6182 16.9509C17.6003 16.6154 17.5836 16.3037 17.56 16.02C17.52 15.42 17.02 15 16.38 15C15.6 15 14.98 15.64 14.98 16.4ZM16.38 33.02C17.02 33.02 17.52 32.58 17.56 32C17.5834 31.7071 17.6 31.4006 17.6177 31.0722C17.6302 30.84 17.6434 30.5969 17.66 30.34C17.4064 30.3563 17.1629 30.3694 16.9308 30.3818C16.5953 30.3997 16.2837 30.4163 16 30.44C15.4 30.48 14.98 30.98 14.98 31.62C14.98 32.4 15.62 33.02 16.38 33.02ZM26.22 26.22V21.82H21.8V26.22H26.22ZM33 31.62C33 30.98 32.56 30.48 31.98 30.44C31.48 30.4 30.94 30.36 30.32 30.34C30.3363 30.5935 30.3493 30.837 30.3617 31.0691C30.3797 31.4046 30.3963 31.7163 30.42 32C30.46 32.6 30.96 33.02 31.6 33.02C32.38 33.02 33 32.38 33 31.62Z" fill="#646464"/>
<path fill-rule="evenodd" clip-rule="evenodd" d="M37.66 4.46C40.82 4.72 43.28 7.2 43.54 10.34C43.74 12.96 44 17.46 44 24C44 30.54 43.76 35.04 43.54 37.66C43.28 40.82 40.8 43.28 37.66 43.54C35.04 43.74 30.54 44 24 44C17.46 44 12.96 43.76 10.34 43.54C7.18 43.28 4.72 40.8 4.46 37.66C4.26 35.02 4 30.52 4 24C4 17.48 4.24 12.98 4.46 10.34C4.72 7.2 7.2 4.72 10.34 4.46C12.98 4.26 17.48 4 24 4C30.52 4 35.02 4.24 37.66 4.46ZM37.34 39.54C38.56 39.44 39.46 38.52 39.56 37.32C39.78 34.76 40.02 30.4 40.02 23.98C40.02 17.56 39.76 13.18 39.56 10.64C39.46 9.42 38.54 8.52 37.34 8.42C34.78 8.2 30.38 7.96 24 7.96C17.62 7.96 13.22 8.22 10.66 8.42C9.44 8.52 8.54 9.44 8.44 10.64C8.22 13.2 7.98 17.6 7.98 23.98C7.98 30.36 8.24 34.76 8.44 37.32C8.54 38.54 9.46 39.44 10.66 39.54C13.22 39.76 17.58 40 24 40C30.42 40 34.8 39.74 37.34 39.54Z" fill="#646464"/>
</svg>
