<svg width="48" height="48" viewBox="0 0 48 48" fill="none" xmlns="http://www.w3.org/2000/svg">
<path d="M29.4659 13.0683C30.4538 13.5623 30.8543 14.7636 30.3603 15.7516L21.2174 34.0373C20.7235 35.0253 19.5221 35.4257 18.5342 34.9317C17.5462 34.4378 17.1457 33.2364 17.6397 32.2485L26.7826 13.9627C27.2766 12.9748 28.4779 12.5743 29.4659 13.0683Z" fill="#646464"/>
<path fill-rule="evenodd" clip-rule="evenodd" d="M14.3404 4.28766C20.9985 3.90413 27.0015 3.90411 33.6596 4.28764L33.7872 4.29499C35.4772 4.39224 36.942 4.47653 38.1299 4.7085C39.4203 4.96048 40.5971 5.42185 41.5875 6.41223C42.5779 7.40261 43.0393 8.5794 43.2913 9.86978C43.5233 11.0577 43.6076 12.5225 43.7049 14.2125L43.7122 14.3401C44.0959 20.9985 44.0959 27.0016 43.7122 33.6599L43.7049 33.7874C43.6076 35.4774 43.5233 36.9422 43.2913 38.1301C43.0393 39.4204 42.5779 40.5972 41.5875 41.5875C40.5972 42.5779 39.4204 43.0393 38.1301 43.2913C36.9422 43.5233 35.4774 43.6076 33.7874 43.7049L33.6599 43.7122C27.0017 44.0959 20.9985 44.0959 14.3401 43.7122L14.2124 43.7049C12.5224 43.6076 11.0577 43.5233 9.86981 43.2913C8.57943 43.0393 7.40263 42.5779 6.41225 41.5875C5.42187 40.5971 4.9605 39.4203 4.70852 38.1299C4.47655 36.942 4.39226 35.4772 4.29501 33.7871L4.28766 33.6595C3.90413 27.0015 3.90411 20.9985 4.28763 14.3404C4.29009 14.2978 4.29254 14.2552 4.29498 14.2128C4.39223 12.5227 4.47652 11.0579 4.7085 9.86996C4.96048 8.57954 5.42186 7.40271 6.41227 6.4123C7.40269 5.42189 8.57952 4.96051 9.86995 4.70852C11.0579 4.47654 12.5227 4.39225 14.2128 4.295C14.2552 4.29256 14.2978 4.29011 14.3404 4.28766ZM33.4295 8.28102C26.9247 7.90631 21.0754 7.90633 14.5705 8.28104C12.716 8.38786 11.5259 8.46071 10.6366 8.63437C9.81994 8.79384 9.48153 8.9999 9.2407 9.24073C8.99987 9.48156 8.79381 9.81996 8.63435 10.6366C8.46069 11.5259 8.38783 12.716 8.28101 14.5705C7.90631 21.0753 7.90634 26.9247 8.28104 33.4295C8.38786 35.2839 8.46072 36.474 8.63437 37.3633C8.79383 38.1799 8.99988 38.5183 9.24071 38.7591C9.48154 38.9999 9.81993 39.206 10.6365 39.3655C11.5258 39.5391 12.7159 39.612 14.5703 39.7189C21.0753 40.0937 26.9248 40.0937 33.4297 39.7189C35.2841 39.612 36.4741 39.5391 37.3633 39.3655C38.1799 39.206 38.5183 38.9999 38.7591 38.7591C38.9999 38.5183 39.206 38.1799 39.3655 37.3633C39.5391 36.4741 39.612 35.2841 39.7189 33.4297C40.0937 26.9248 40.0937 21.0753 39.7189 14.5702C39.612 12.7158 39.5391 11.5257 39.3655 10.6365C39.206 9.81991 38.9999 9.48152 38.7591 9.24069C38.5183 8.99986 38.1799 8.79381 37.3633 8.63435C36.474 8.4607 35.2839 8.38784 33.4295 8.28102Z" fill="#646464"/>
</svg>
