<svg width="48" height="48" viewBox="0 0 48 48" fill="none" xmlns="http://www.w3.org/2000/svg">
<path d="M14.58 17.42C13.48 17.42 12.58 16.52 12.58 15.42V13.7C12.58 12.6 13.48 11.7 14.58 11.7C15.68 11.7 16.58 12.6 16.58 13.7V15.42C16.58 16.52 15.68 17.42 14.58 17.42Z" fill="#646464"/>
<path d="M12.58 24.86C12.58 25.96 13.48 26.86 14.58 26.86C15.68 26.86 16.58 25.96 16.58 24.86V23.14C16.58 22.04 15.68 21.14 14.58 21.14C13.48 21.14 12.58 22.04 12.58 23.14V24.86Z" fill="#646464"/>
<path d="M24 17.42C22.9 17.42 22 16.52 22 15.42V13.7C22 12.6 22.9 11.7 24 11.7C25.1 11.7 26 12.6 26 13.7V15.42C26 16.52 25.1 17.42 24 17.42Z" fill="#646464"/>
<path d="M22 24.86C22 25.96 22.9 26.86 24 26.86C25.1 26.86 26 25.96 26 24.86V23.14C26 22.04 25.1 21.14 24 21.14C22.9 21.14 22 22.04 22 23.14V24.86Z" fill="#646464"/>
<path fill-rule="evenodd" clip-rule="evenodd" d="M8.82 44C6.38 44 4.38 42.08 4.28 39.66C4.18 37 4 31.42 4 24C4 17.96 4.24 13.38 4.44 10.6C4.66 7.32 7.2 4.72 10.48 4.42C16.66 3.86 22 3.86 28.14 4.42C31.38 4.72 33.92 7.3 34.14 10.54C34.2287 11.7372 34.3213 13.2884 34.3969 15.1883C35.4393 15.2271 36.4835 15.286 37.52 15.36C40.86 15.6 43.44 18.2 43.68 21.54C43.86 24.28 43.96 26.98 43.96 29.56C43.96 33.5 43.84 37.22 43.76 39.64C43.66 42.08 41.66 44 39.22 44H8.82ZM30.58 24C30.58 21.5935 30.546 19.4529 30.4925 17.5808C30.4582 17.4323 30.44 17.278 30.44 17.12C30.44 17.0061 30.4497 16.8947 30.4682 16.7866C30.3861 14.2764 30.27 12.292 30.16 10.84C30.06 9.52 29.08 8.52 27.78 8.4C24.86 8.12 21.92 7.98 19.3 7.98L19.28 8C16.64 8 13.8 8.14 10.84 8.4C9.52 8.52 8.52 9.54 8.42 10.88C8.22 13.58 8 18.06 8 24C8 31.34 8.18 36.86 8.28 39.5C8.28 39.78 8.52 40 8.82 40H13.0206C13.0081 39.3293 13 38.5711 13 37.7C13 36.0822 13.0278 34.8538 13.0487 33.9337L13.06 33.42C13.16 31.06 14.66 29.28 16.8 28.98C18.26 28.78 20.28 28.78 21.74 28.98C23.9 29.28 25.4 31.06 25.5 33.42C25.54 34.38 25.56 35.76 25.56 37.7C25.56 38.5767 25.5518 39.3391 25.541 40H29.76C30.06 40 30.28 39.78 30.3 39.5C30.4 36.98 30.58 31.62 30.58 24ZM21.5466 40H17.0134C17.0045 39.3425 17 38.5794 17 37.7C17 35.84 17.02 34.5 17.06 33.58C17.06 33.48 17.1 33 17.36 32.96C18.46 32.8 20.1 32.8 21.2 32.96C21.46 33 21.5 33.48 21.5 33.58C21.54 34.5 21.56 35.84 21.56 37.7C21.56 38.5775 21.5555 39.3393 21.5466 40ZM37.26 19.34C36.3528 19.272 35.4327 19.2232 34.5143 19.1901C34.5431 20.652 34.56 22.2491 34.56 23.98C34.56 31.66 34.38 37.1 34.28 39.64C34.275 39.7613 34.2652 39.8814 34.251 40H39.24C39.54 40 39.78 39.78 39.78 39.48C39.88 37.1 39.98 33.44 39.98 29.56C39.98 27.06 39.88 24.44 39.7 21.8C39.6 20.46 38.58 19.42 37.26 19.34Z" fill="#646464"/>
</svg>
