<svg width="48" height="48" viewBox="0 0 48 48" fill="none" xmlns="http://www.w3.org/2000/svg">
<path fill-rule="evenodd" clip-rule="evenodd" d="M29.2172 15.4106C24.9148 15.3052 20.603 15.3303 16.305 15.4857C13.6942 15.5802 11.6786 16.4641 10.3082 17.8214C8.88901 19.227 8 21.3011 8 24.0001C8 26.9617 9.06868 29.1775 10.7575 30.5875C11.8919 31.5346 13.3924 32.1935 15.2386 32.4285C15.8643 32.5081 16.5302 32.527 17.3126 32.5492C17.4226 32.5523 17.5349 32.5555 17.6497 32.5589C21.882 32.6852 26.1182 32.6852 30.3503 32.5589C30.3952 32.5575 30.4397 32.5562 30.484 32.5549C31.5187 32.5242 32.3844 32.4985 33.1639 32.3697C35.0688 32.0547 36.5857 31.2744 37.6918 30.1789C39.111 28.7732 40 26.6991 40 24.0001C40 21.3011 39.111 19.227 37.6918 17.8214C36.5857 16.7258 35.0688 15.9455 33.1639 15.6306C32.1747 15.467 31.1783 15.4486 30.0235 15.4272C29.7634 15.4224 29.4952 15.4174 29.2172 15.4106ZM16.1604 11.4884C20.5393 11.33 24.932 11.3044 29.3152 11.4118C29.5336 11.4171 29.7615 11.4211 29.997 11.4251C31.1615 11.4451 32.5107 11.4683 33.8164 11.6842C36.4512 12.1198 38.7514 13.2409 40.5067 14.9794C42.7872 17.2382 44 20.3877 44 24.0001C44 27.6126 42.7872 30.7621 40.5067 33.0208C38.7514 34.7594 36.4512 35.8805 33.8164 36.3161C32.7603 36.4907 31.6398 36.5232 30.6836 36.5508C30.6113 36.5529 30.5399 36.555 30.4696 36.5571C26.158 36.6858 21.8422 36.6858 17.5304 36.5571C17.4272 36.554 17.3211 36.5511 17.2125 36.5481C16.4522 36.5272 15.5707 36.503 14.7336 36.3965C12.2165 36.0761 9.97862 35.148 8.19397 33.6581C5.47175 31.3853 4 27.9773 4 24.0001C4 20.3877 5.21286 17.2382 7.49335 14.9794C9.6819 12.8118 12.7038 11.6135 16.1604 11.4884Z" fill="#646464"/>
<path fill-rule="evenodd" clip-rule="evenodd" d="M22.7776 15.2094C25.109 12.8779 28.2711 11.5682 31.5682 11.5682C34.8653 11.5682 38.0274 12.8779 40.3588 15.2094C42.6902 17.5408 44 20.703 44 24.0001C44 27.2972 42.6902 30.4592 40.3588 32.7906C38.0274 35.122 34.8653 36.4318 31.5682 36.4318C28.2711 36.4318 25.109 35.122 22.7776 32.7906C20.4461 30.4592 19.1364 27.2971 19.1364 24C19.1364 20.7029 20.4461 17.5408 22.7776 15.2094ZM31.5682 15.5682C29.3319 15.5682 27.1873 16.4565 25.606 18.0378C24.0247 19.6191 23.1364 21.7637 23.1364 24C23.1364 26.2362 24.0247 28.3809 25.606 29.9622C27.1873 31.5435 29.3319 32.4318 31.5682 32.4318C33.8044 32.4318 35.9491 31.5435 37.5304 29.9622C39.1116 28.3809 40 26.2364 40 24.0001C40 21.7639 39.1116 19.6191 37.5304 18.0378C35.9491 16.4565 33.8044 15.5682 31.5682 15.5682Z" fill="#646464"/>
</svg>
