<svg width="48" height="48" viewBox="0 0 48 48" fill="none" xmlns="http://www.w3.org/2000/svg">
<path fill-rule="evenodd" clip-rule="evenodd" d="M5.55449 27.6813C5.54926 27.6751 5.54412 27.6689 5.53906 27.6626C4.74199 26.6709 4.47399 25.0901 5.50753 23.9715C6.11028 23.319 6.76006 22.8486 7.31958 22.5193C8.52569 21.8093 9.89543 22.2536 10.723 23.1086L10.7251 23.1108L15.465 28.0435L16.0809 27.1765C16.8452 26.1009 17.9392 24.5621 19.2583 22.7095C21.8962 19.0041 25.4344 14.0425 29.035 9.01805C29.5112 8.35368 30.3604 7.71336 31.4284 7.88123C32.4258 8.038 33.807 8.58055 34.9324 10.1682C35.6974 11.2475 35.4567 12.5994 34.8213 13.516C27.0669 24.7007 22.0678 31.279 19.3298 34.7294C17.6199 36.8841 14.5153 37.1046 12.5209 35.2077C11.0601 33.8184 9.31528 31.932 7.94487 30.4046C7.25758 29.6385 6.66058 28.9585 6.23532 28.4697C6.02263 28.2253 5.85279 28.0286 5.73596 27.8928C5.67753 27.825 5.63235 27.7723 5.60169 27.7365L5.55449 27.6813ZM27.7771 27.9257C26.8566 27.9257 26.1104 28.672 26.1104 29.5924C26.1104 30.5129 26.8566 31.259 27.7771 31.259H37.95C38.8705 31.259 39.6167 30.5129 39.6167 29.5924C39.6167 28.672 38.8705 27.9257 37.95 27.9257H27.7771ZM23.8269 33.5573C22.9064 33.5573 22.1603 34.3035 22.1603 35.224C22.1603 36.1444 22.9064 36.8906 23.8269 36.8906H33.9999C34.9204 36.8906 35.6665 36.1444 35.6665 35.224C35.6665 34.3035 34.9204 33.5573 33.9999 33.5573H23.8269ZM31.7797 22.3333C30.8592 22.3333 30.113 23.0795 30.113 24C30.113 24.9205 30.8592 25.6666 31.7797 25.6666H41.9526C42.8731 25.6666 43.6193 24.9205 43.6193 24C43.6193 23.0795 42.8731 22.3333 41.9526 22.3333H31.7797Z" fill="#646464"/>
</svg>
