<svg width="48" height="48" viewBox="0 0 48 48" fill="none" xmlns="http://www.w3.org/2000/svg">
<path fill-rule="evenodd" clip-rule="evenodd" d="M23.9999 7.9903C24.0102 9.09483 23.1232 9.9986 22.0187 10.0089C17.5067 10.0511 14.2729 10.2328 12.1674 10.4039C11.1973 10.4827 10.4829 11.1971 10.4041 12.1672C10.2089 14.569 10 18.4391 10 23.9998C10 29.5605 10.2089 33.4306 10.4041 35.8324C10.4829 36.8025 11.1973 37.5169 12.1674 37.5957C14.5692 37.7909 18.4393 37.9998 24 37.9998C29.5607 37.9998 33.4308 37.7909 35.8325 37.5957C36.8027 37.5169 37.5171 36.8025 37.5959 35.8324C37.767 33.727 37.9487 30.4932 37.9909 25.9812C38.0012 24.8766 38.905 23.9896 40.0095 24C41.114 24.0103 42.001 24.9141 41.9907 26.0186C41.9476 30.6198 41.7621 33.9494 41.5828 36.1563C41.3452 39.0799 39.0801 41.345 36.1565 41.5826C33.6391 41.7871 29.6606 41.9998 24 41.9998C18.3394 41.9998 14.3609 41.7871 11.8435 41.5826C8.91987 41.345 6.65475 39.0799 6.41721 36.1563C6.21267 33.6389 6 29.6604 6 23.9998C6 18.3392 6.21267 14.3607 6.4172 11.8433C6.65475 8.91969 8.91987 6.65455 11.8435 6.41701C14.0504 6.23771 17.38 6.05216 21.9813 6.00911C23.0858 5.99877 23.9896 6.88578 23.9999 7.9903Z" fill="#646464"/>
<path fill-rule="evenodd" clip-rule="evenodd" d="M39.6057 5.06701C36.9723 3.05439 33.8314 4.1661 32.0383 5.95921L28.6025 9.39504L28.1884 9.80911L19.5747 18.4229C18.7898 19.2077 18.1717 20.2892 18.0709 21.5775C17.9928 22.5744 17.9464 24.1343 18.0826 26.3436C18.2012 28.2634 19.7319 29.795 21.6527 29.9133C23.8618 30.0494 25.4213 30.0031 26.4183 29.925C27.7065 29.8243 28.7881 29.2062 29.5731 28.4213L38.187 19.8074C38.3456 19.6897 38.4846 19.55 38.6006 19.3938L42.0368 15.9576C43.8297 14.1647 44.9415 11.0236 42.9287 8.39014C42.5071 7.83842 41.9946 7.24474 41.373 6.62313C40.7511 6.0011 40.157 5.48853 39.6057 5.06701ZM34.8667 8.78763C35.3128 8.34153 35.8034 8.09619 36.2092 8.02382C36.5785 7.95795 36.8893 8.02556 37.1767 8.24511C37.5861 8.55814 38.0468 8.95363 38.5445 9.45143C39.0427 9.94966 39.4383 10.4103 39.7508 10.8193C39.9706 11.1068 40.038 11.4174 39.9721 11.7867C39.8998 12.1925 39.6544 12.6831 39.2084 13.1292L37.5078 14.8298C37.0207 14.1241 36.3752 13.3262 35.5224 12.4735C34.6697 11.6207 33.8719 10.9752 33.1662 10.4881L34.8667 8.78763ZM26.7446 25.5928L34.6113 17.7262C34.2673 17.1281 33.6777 16.2855 32.6939 15.3018C31.7103 14.3182 30.8679 13.7286 30.2698 13.3846L22.4031 21.2513C22.1577 21.4967 22.0715 21.7252 22.0586 21.8898C21.998 22.6643 21.9519 23.9836 22.065 25.9308C24.0123 26.0439 25.3319 25.9978 26.1065 25.9372C26.2707 25.9243 26.4992 25.8383 26.7446 25.5928Z" fill="#646464"/>
</svg>
