<svg width="48" height="48" viewBox="0 0 48 48" fill="none" xmlns="http://www.w3.org/2000/svg">
<path d="M22.0019 5.49342C22.0366 6.59745 21.1697 7.52053 20.0657 7.55519C17.2915 7.64227 15.0103 7.81279 13.2032 8.00103C10.6544 8.26654 8.77518 10.1458 8.50967 12.6946C8.23783 15.3042 8.00293 18.9028 8.00293 23.547C8.00293 28.3279 8.25186 32.0007 8.53377 34.6273C8.79619 37.0724 10.5591 38.8463 12.9655 39.0989C15.5257 39.3676 19.1556 39.5998 24.0557 39.5998C25.1602 39.5998 26.0557 40.4952 26.0557 41.5998C26.0557 42.7043 25.1602 43.5998 24.0557 43.5998C19.03 43.5998 15.26 43.3617 12.5479 43.077C8.22719 42.6235 5.01603 39.3346 4.55661 35.0542C4.25911 32.2823 4.00293 28.467 4.00293 23.547C4.00293 18.7677 4.24467 15.0307 4.5312 12.2801C4.99268 7.8501 8.35874 4.48403 12.7888 4.02256C14.6934 3.82416 17.071 3.64722 19.9402 3.55716C21.0442 3.5225 21.9673 4.3894 22.0019 5.49342Z" fill="#646464"/>
<path fill-rule="evenodd" clip-rule="evenodd" d="M32.3599 5.41403C34.703 3.07088 38.502 3.07088 40.8452 5.41403L42.2594 6.82824C44.6025 9.17139 44.6025 12.9704 42.2594 15.3135L28.9131 28.6598C28.1324 29.4405 27.1515 29.9906 26.0783 30.2497L24.2141 30.6997C19.8527 31.7524 15.921 27.8207 16.9738 23.4593L17.4237 21.5952C17.6828 20.5219 18.2329 19.541 19.0136 18.7603L32.3599 5.41403ZM38.0168 8.24245C37.2357 7.46141 35.9694 7.46141 35.1883 8.24245L21.842 21.5888C21.5818 21.849 21.3984 22.176 21.3121 22.5337L20.8621 24.3979C20.5112 25.8517 21.8217 27.1622 23.2755 26.8113L25.1397 26.3614C25.4975 26.275 25.8244 26.0916 26.0847 25.8314L39.431 12.4851C40.212 11.704 40.212 10.4377 39.431 9.65667L38.0168 8.24245Z" fill="#646464"/>
<path d="M43.6635 32.115C44.2791 31.1979 44.0348 29.9553 43.1177 29.3397C42.2006 28.724 40.9581 28.9684 40.3424 29.8855L34.3697 38.7823L31.4725 35.6436C30.7233 34.832 29.458 34.7814 28.6464 35.5306C27.8347 36.2798 27.7841 37.5451 28.5333 38.3568L32.2896 42.4261C33.6043 43.8504 35.9044 43.6727 36.9848 42.0634L43.6635 32.115Z" fill="#646464"/>
</svg>
