<svg width="48" height="48" viewBox="0 0 48 48" fill="none" xmlns="http://www.w3.org/2000/svg">
<path d="M20.0657 7.55519C21.1697 7.52053 22.0366 6.59745 22.0019 5.49342C21.9673 4.3894 21.0442 3.5225 19.9402 3.55716C17.071 3.64722 14.6934 3.82416 12.7888 4.02256C8.35874 4.48403 4.99268 7.8501 4.5312 12.2801C4.24467 15.0307 4.00293 18.7677 4.00293 23.547C4.00293 28.467 4.25911 32.2823 4.55661 35.0542C5.01603 39.3346 8.22719 42.6235 12.5479 43.077C15.26 43.3617 19.03 43.5998 24.0557 43.5998C25.1602 43.5998 26.0557 42.7043 26.0557 41.5998C26.0557 40.4952 25.1602 39.5998 24.0557 39.5998C19.1556 39.5998 15.5257 39.3676 12.9655 39.0989C10.5591 38.8463 8.79619 37.0724 8.53377 34.6273C8.25186 32.0007 8.00293 28.3279 8.00293 23.547C8.00293 18.9028 8.23783 15.3042 8.50967 12.6946C8.77518 10.1458 10.6544 8.26654 13.2032 8.00103C15.0103 7.81279 17.2915 7.64227 20.0657 7.55519Z" fill="#646464"/>
<path fill-rule="evenodd" clip-rule="evenodd" d="M40.8452 5.41403C38.502 3.07088 34.703 3.07088 32.3599 5.41403L19.0136 18.7603C18.2329 19.541 17.6828 20.5219 17.4237 21.5952L16.9738 23.4593C15.921 27.8207 19.8527 31.7524 24.2141 30.6997L26.0783 30.2497C27.1515 29.9906 28.1324 29.4405 28.9131 28.6598L42.2594 15.3135C44.6025 12.9704 44.6025 9.17139 42.2594 6.82824L40.8452 5.41403ZM35.1883 8.24245C35.9694 7.46141 37.2357 7.46141 38.0168 8.24245L39.431 9.65667C40.212 10.4377 40.212 11.704 39.431 12.4851L26.0847 25.8314C25.8244 26.0916 25.4975 26.275 25.1397 26.3614L23.2755 26.8113C21.8217 27.1622 20.5112 25.8517 20.8621 24.3979L21.3121 22.5337C21.3984 22.176 21.5818 21.849 21.842 21.5888L35.1883 8.24245Z" fill="#646464"/>
<path d="M32.2051 43.7984C31.346 42.9392 31.346 41.5463 32.2051 40.6871L34.8921 38.0001L32.205 35.313C31.3459 34.4538 31.3459 33.0608 32.205 32.2017C33.0642 31.3425 34.4572 31.3425 35.3163 32.2017L38.0034 34.8888L40.6904 32.2018C41.5495 31.3427 42.9425 31.3427 43.8017 32.2018C44.6608 33.061 44.6608 34.4539 43.8017 35.3131L41.1147 38.0001L43.8016 40.687C44.6608 41.5461 44.6608 42.9391 43.8016 43.7982C42.9424 44.6574 41.5495 44.6574 40.6903 43.7982L38.0034 41.1113L35.3164 43.7984C34.4572 44.6575 33.0643 44.6575 32.2051 43.7984Z" fill="#646464"/>
</svg>
