<svg width="48" height="48" viewBox="0 0 48 48" fill="none" xmlns="http://www.w3.org/2000/svg">
<path fill-rule="evenodd" clip-rule="evenodd" d="M44 36.2729C44 37.3775 43.1046 38.2729 42 38.2729H22.3636C21.2591 38.2729 20.3636 37.3775 20.3636 36.2729C20.3636 35.1684 21.2591 34.2729 22.3636 34.2729L42 34.273C43.1046 34.273 44 35.1684 44 36.2729Z" fill="#646464"/>
<path fill-rule="evenodd" clip-rule="evenodd" d="M44 11.728C44 12.8326 43.1046 13.728 42 13.728L22.3636 13.728C21.2591 13.728 20.3636 12.8326 20.3636 11.728C20.3636 10.6235 21.2591 9.72803 22.3636 9.72803L42 9.72803C43.1046 9.72803 44 10.6235 44 11.728Z" fill="#646464"/>
<path fill-rule="evenodd" clip-rule="evenodd" d="M12.9092 36.2729C12.9092 37.3775 12.0137 38.2729 10.9092 38.2729H6.00009C4.89552 38.2729 4.00009 37.3775 4.00009 36.2729C4.00009 35.1684 4.89552 34.2729 6.00009 34.2729H10.9092C12.0137 34.2729 12.9092 35.1684 12.9092 36.2729Z" fill="#646464"/>
<path fill-rule="evenodd" clip-rule="evenodd" d="M12.9092 11.728C12.9092 12.8326 12.0138 13.728 10.9092 13.728H6.00009C4.89552 13.728 4.00009 12.8326 4.00009 11.728C4.00009 10.6235 4.89552 9.72803 6.00009 9.72803H10.9092C12.0138 9.72803 12.9092 10.6235 12.9092 11.728Z" fill="#646464"/>
<path fill-rule="evenodd" clip-rule="evenodd" d="M27.6364 24.0002C27.6364 25.1048 26.7409 26.0002 25.6364 26.0002H6C4.89543 26.0002 4 25.1048 4 24.0002C4 22.8957 4.89543 22.0002 6 22.0002H25.6364C26.7409 22.0002 27.6364 22.8957 27.6364 24.0002Z" fill="#646464"/>
<path fill-rule="evenodd" clip-rule="evenodd" d="M44 24.0002C44 25.1048 43.1046 26.0002 42 26.0002L37.0909 26.0002C35.9863 26.0002 35.0909 25.1048 35.0909 24.0002C35.0909 22.8957 35.9863 22.0002 37.0909 22.0002L42 22.0002C43.1046 22.0002 44 22.8957 44 24.0002Z" fill="#646464"/>
<path fill-rule="evenodd" clip-rule="evenodd" d="M36.8276 18.2638C38.2768 19.7129 39.0909 21.6784 39.0909 23.7278C39.0909 25.7772 38.2768 27.7426 36.8276 29.1918C35.3785 30.6409 33.413 31.455 31.3636 31.455C29.3142 31.455 27.3488 30.6409 25.8996 29.1918C24.4505 27.7426 23.6364 25.7772 23.6364 23.7278C23.6364 21.6784 24.4505 19.7129 25.8996 18.2638C27.3488 16.8146 29.3142 16.0005 31.3636 16.0005C33.413 16.0005 35.3785 16.8146 36.8276 18.2638ZM35.0909 23.7278C35.0909 22.7392 34.6982 21.7912 33.9992 21.0922C33.3002 20.3932 32.3522 20.0005 31.3636 20.0005C30.3751 20.0005 29.4271 20.3932 28.7281 21.0922C28.0291 21.7912 27.6364 22.7392 27.6364 23.7278C27.6364 24.7163 28.0291 25.6643 28.7281 26.3633C29.4271 27.0623 30.3751 27.455 31.3636 27.455C32.3522 27.455 33.3002 27.0623 33.9992 26.3633C34.6982 25.6643 35.0909 24.7163 35.0909 23.7278Z" fill="#646464"/>
<path fill-rule="evenodd" clip-rule="evenodd" d="M23.7756 33.3156C24.1639 34.2531 24.3638 35.2579 24.3638 36.2727C24.3638 37.2874 24.1639 38.2923 23.7756 39.2298C23.3872 40.1673 22.818 41.0191 22.1005 41.7367C21.383 42.4542 20.5311 43.0234 19.5936 43.4118C18.6561 43.8001 17.6513 44 16.6365 44C15.6217 44 14.6169 43.8001 13.6794 43.4118C12.7419 43.0234 11.89 42.4542 11.1725 41.7367C10.4549 41.0191 9.88576 40.1673 9.49743 39.2298C9.1091 38.2923 8.90922 37.2874 8.90922 36.2727C8.90922 35.2579 9.1091 34.2531 9.49743 33.3156C9.88576 32.3781 10.4549 31.5262 11.1725 30.8087C11.89 30.0911 12.7419 29.5219 13.6794 29.1336C14.6169 28.7453 15.6217 28.5454 16.6365 28.5454C17.6513 28.5454 18.6561 28.7453 19.5936 29.1336C20.5311 29.5219 21.383 30.0911 22.1005 30.8087C22.818 31.5262 23.3872 32.3781 23.7756 33.3156ZM20.3636 36.2729C20.3636 35.7835 20.2674 35.2985 20.08 34.8463C19.8927 34.3941 19.6182 33.9832 19.2721 33.6371C18.926 33.291 18.5151 33.0164 18.0629 32.8291C17.6106 32.6418 17.126 32.5454 16.6365 32.5454C16.147 32.5454 15.6623 32.6418 15.2101 32.8291C14.7579 33.0164 14.347 33.291 14.0009 33.6371C13.6548 33.9832 13.3803 34.3941 13.1929 34.8463C13.0056 35.2985 12.9092 35.7835 12.9092 36.2729C12.9092 36.7624 13.0056 37.2468 13.1929 37.699C13.3803 38.1513 13.6548 38.5622 14.0009 38.9083C14.347 39.2544 14.7579 39.5289 15.2101 39.7162C15.6623 39.9035 16.147 40 16.6365 40C17.126 40 17.6106 39.9035 18.0629 39.7162C18.5151 39.5289 18.926 39.2544 19.2721 38.9083C19.6182 38.5622 19.8927 38.1513 20.08 37.699C20.2674 37.2468 20.3636 36.7624 20.3636 36.2729Z" fill="#646464"/>
<path fill-rule="evenodd" clip-rule="evenodd" d="M23.7756 8.77066C24.1639 9.70818 24.3638 10.713 24.3638 11.7278C24.3638 12.7425 24.1639 13.7473 23.7756 14.6849C23.3872 15.6224 22.818 16.4742 22.1005 17.1918C21.383 17.9093 20.5311 18.4785 19.5936 18.8668C18.6561 19.2552 17.6513 19.455 16.6365 19.455C15.6217 19.455 14.6169 19.2552 13.6794 18.8668C12.7419 18.4785 11.89 17.9093 11.1725 17.1918C10.4549 16.4742 9.88576 15.6224 9.49743 14.6849C9.1091 13.7473 8.90922 12.7425 8.90922 11.7278C8.90922 10.713 9.1091 9.70818 9.49743 8.77066C9.88576 7.83315 10.4549 6.9813 11.1725 6.26375C11.89 5.54621 12.7419 4.97702 13.6794 4.58869C14.6169 4.20036 15.6217 4.00049 16.6365 4.00049C17.6513 4.00049 18.6561 4.20036 19.5936 4.58869C20.5311 4.97702 21.383 5.54621 22.1005 6.26375C22.818 6.9813 23.3872 7.83315 23.7756 8.77066ZM20.3636 11.728C20.3636 11.2386 20.2674 10.7536 20.08 10.3014C19.8927 9.84918 19.6182 9.43829 19.2721 9.09218C18.926 8.74607 18.5151 8.47153 18.0629 8.28421C17.6106 8.0969 17.126 8.00049 16.6365 8.00049C16.147 8.00049 15.6623 8.0969 15.2101 8.28421C14.7579 8.47153 14.347 8.74607 14.0009 9.09218C13.6548 9.43829 13.3803 9.84918 13.1929 10.3014C13.0056 10.7536 12.9092 11.2386 12.9092 11.728C12.9092 12.2175 13.0056 12.7019 13.1929 13.1541C13.3803 13.6063 13.6548 14.0172 14.0009 14.3633C14.347 14.7094 14.7579 14.984 15.2101 15.1713C15.6623 15.3586 16.147 15.455 16.6365 15.455C17.126 15.455 17.6106 15.3586 18.0629 15.1713C18.5151 14.984 18.926 14.7094 19.2721 14.3633C19.6182 14.0172 19.8927 13.6063 20.08 13.1541C20.2674 12.7019 20.3636 12.2175 20.3636 11.728Z" fill="#646464"/>
</svg>
