<svg width="48" height="48" viewBox="0 0 48 48" fill="none" xmlns="http://www.w3.org/2000/svg">
<path d="M32 4C34.6498 4 36.8114 6.06155 36.9825 8.66797C40.4803 9.18286 43.1743 12.0599 43.4161 15.6445C43.8614 22.2565 43.8614 29.7437 43.4161 36.3555C43.1597 40.1551 40.1488 43.1601 36.3438 43.3984C28.8521 43.8677 19.1479 43.8677 11.6563 43.3984C7.85137 43.1601 4.84032 40.1551 4.58403 36.3555C4.13865 29.7436 4.13866 22.2565 4.58403 15.6445C4.82577 12.0607 7.51889 9.18375 11.0157 8.66797C11.1867 6.06149 13.3503 4 16.0001 4C18.5137 4 20.5884 5.85577 20.9415 8.27148C22.9699 8.24498 25.0282 8.245 27.0567 8.27148C27.4096 5.85563 29.4863 4 32 4ZM27.0118 12.2715C25.0133 12.2453 22.9848 12.2453 20.9864 12.2715C20.8452 14.9065 18.6703 17 16.0001 17C13.4944 17 11.4236 15.1563 11.0606 12.752C9.68316 13.1807 8.67561 14.4096 8.57427 15.9141C8.14095 22.347 8.14095 29.6531 8.57427 36.0859C8.69549 37.8855 10.1103 39.2937 11.9063 39.4062C19.2313 39.8651 28.7687 39.8651 36.0938 39.4062C37.8899 39.2937 39.3046 37.8856 39.4258 36.0859C39.8591 29.6531 39.8591 22.347 39.4258 15.9141C39.3244 14.4088 38.316 13.1801 36.9375 12.752C36.5745 15.1562 34.5056 17 32 17C29.3298 17 27.1529 14.9066 27.0118 12.2715ZM16.0001 8C15.4478 8 15.0001 8.44771 15.0001 9V12C15.0001 12.5523 15.4478 13 16.0001 13C16.5523 13 17.0001 12.5523 17.0001 12V9C17.0001 8.44772 16.5523 8 16.0001 8ZM32 8C31.4478 8 31 8.44772 31 9V12C31 12.5523 31.4478 13 32 13C32.5523 13 33 12.5523 33 12V9C33 8.44772 32.5523 8 32 8Z" fill="#646464"/>
<path d="M12.1789 27.5302C12.2357 28.2998 12.264 28.6845 12.7897 29.2102C13.3154 29.7359 13.7001 29.7643 14.4696 29.8211C15.4446 29.893 16.5559 29.893 17.5308 29.821C18.3 29.7643 18.6845 29.7359 19.2102 29.2102C19.7358 28.6846 19.7642 28.3 19.821 27.5309C19.893 26.5558 19.893 25.4442 19.821 24.4692C19.7642 23.7 19.7358 23.3154 19.2102 22.7897C18.6845 22.2641 18.2999 22.2357 17.5307 22.179C16.5559 22.107 15.4446 22.107 14.4697 22.1789C13.7002 22.2357 13.3154 22.2641 12.7897 22.7898C12.264 23.3155 12.2357 23.7003 12.1789 24.4699C12.107 25.4445 12.107 26.5555 12.1789 27.5302Z" fill="#646464"/>
</svg>
