<svg width="48" height="48" viewBox="0 0 48 48" fill="none" xmlns="http://www.w3.org/2000/svg">
<path fill-rule="evenodd" clip-rule="evenodd" d="M36.9825 8.66797C36.8114 6.06155 34.6498 4 32 4C29.4863 4 27.4096 5.85563 27.0567 8.27148C25.0282 8.245 22.9699 8.24498 20.9415 8.27148C20.5884 5.85577 18.5137 4 16.0001 4C13.3503 4 11.1867 6.06149 11.0157 8.66797C7.51889 9.18375 4.82577 12.0607 4.58403 15.6445C4.13866 22.2565 4.13865 29.7436 4.58403 36.3555C4.84032 40.1551 7.85137 43.1601 11.6563 43.3984C19.1479 43.8677 28.8521 43.8677 36.3438 43.3984C40.1488 43.1601 43.1597 40.1551 43.4161 36.3555C43.8614 29.7437 43.8614 22.2565 43.4161 15.6445C43.1743 12.0599 40.4803 9.18286 36.9825 8.66797ZM15.0001 9C15.0001 8.44771 15.4478 8 16.0001 8C16.5523 8 17.0001 8.44772 17.0001 9V12C17.0001 12.5523 16.5523 13 16.0001 13C15.4478 13 15.0001 12.5523 15.0001 12V9ZM31 9C31 8.44772 31.4478 8 32 8C32.5523 8 33 8.44772 33 9V12C33 12.5523 32.5523 13 32 13C31.4478 13 31 12.5523 31 12V9ZM11.9063 39.4062C10.1103 39.2937 8.69549 37.8855 8.57427 36.0859C8.20894 30.6625 8.15162 24.6183 8.4023 19H39.5978C39.8484 24.6183 39.7911 30.6625 39.4258 36.0859C39.3046 37.8856 37.8899 39.2937 36.0938 39.4062C28.7687 39.8651 19.2313 39.8651 11.9063 39.4062Z" fill="#646464"/>
<path d="M12.1789 27.5302C12.2357 28.2998 12.264 28.6845 12.7897 29.2102C13.3154 29.7359 13.7001 29.7643 14.4696 29.8211C15.4446 29.893 16.5559 29.893 17.5308 29.821C18.3 29.7643 18.6845 29.7359 19.2102 29.2102C19.7358 28.6846 19.7642 28.3 19.821 27.5309C19.893 26.5558 19.893 25.4442 19.821 24.4692C19.7642 23.7 19.7358 23.3154 19.2102 22.7897C18.6845 22.2641 18.2999 22.2357 17.5307 22.179C16.5559 22.107 15.4446 22.107 14.4697 22.1789C13.7002 22.2357 13.3154 22.2641 12.7897 22.7898C12.264 23.3155 12.2357 23.7003 12.1789 24.4699C12.107 25.4445 12.107 26.5555 12.1789 27.5302Z" fill="#646464"/>
</svg>
