<svg width="48" height="48" viewBox="0 0 48 48" fill="none" xmlns="http://www.w3.org/2000/svg">
<path fill-rule="evenodd" clip-rule="evenodd" d="M36.9825 8.66797C36.8114 6.06155 34.6498 4 32 4C29.4863 4 27.4096 5.85563 27.0567 8.27148C25.0282 8.245 22.9699 8.24498 20.9415 8.27148C20.5884 5.85577 18.5137 4 16.0001 4C13.3503 4 11.1867 6.06149 11.0157 8.66797C7.51889 9.18375 4.82577 12.0607 4.58403 15.6445C4.13866 22.2565 4.13865 29.7436 4.58403 36.3555C4.84032 40.1551 7.85137 43.1601 11.6563 43.3984C19.1479 43.8677 28.8521 43.8677 36.3438 43.3984C40.1488 43.1601 43.1597 40.1551 43.4161 36.3555C43.8614 29.7437 43.8614 22.2565 43.4161 15.6445C43.1743 12.0599 40.4803 9.18286 36.9825 8.66797ZM17.0001 22C15.8955 22 15.0001 22.8954 15.0001 24V35C15.0001 36.1046 15.8955 37 17.0001 37C18.1046 37 19.0001 36.1046 19.0001 35V31H22C23.1046 31 24 30.1046 24 29C24 27.8954 23.1046 27 22 27H19.0001V26H24C25.1046 26 26 25.1046 26 24C26 22.8954 25.1046 22 24 22H17.0001ZM28 26C26.8955 26 26 26.8954 26 28V35C26 36.1046 26.8955 37 28 37C29.1046 37 30 36.1046 30 35V32.3164C30.0045 32.3043 30.009 32.2917 30.0137 32.2786C30.0282 32.2381 30.0444 32.1929 30.0645 32.1445C30.1748 31.8797 30.3488 31.5336 30.5997 31.1992C31.0767 30.5633 31.786 30 33 30C34.1046 30 35 29.1046 35 28C35 26.8954 34.1046 26 33 26C31.6509 26 30.5353 26.3375 29.627 26.8398C29.2643 26.3321 28.6716 26 28 26ZM15.0001 9C15.0001 8.44771 15.4478 8 16.0001 8C16.5523 8 17.0001 8.44772 17.0001 9V12C17.0001 12.5523 16.5523 13 16.0001 13C15.4478 13 15.0001 12.5523 15.0001 12V9ZM31 9C31 8.44772 31.4478 8 32 8C32.5523 8 33 8.44772 33 9V12C33 12.5523 32.5523 13 32 13C31.4478 13 31 12.5523 31 12V9ZM11.9063 39.4062C10.1103 39.2937 8.69549 37.8855 8.57427 36.0859C8.20894 30.6625 8.15162 24.6183 8.4023 19H39.5978C39.8484 24.6183 39.7911 30.6625 39.4258 36.0859C39.3046 37.8856 37.8899 39.2937 36.0938 39.4062C28.7687 39.8651 19.2313 39.8651 11.9063 39.4062Z" fill="#646464"/>
</svg>
