<svg width="48" height="48" viewBox="0 0 48 48" fill="none" xmlns="http://www.w3.org/2000/svg">
<path fill-rule="evenodd" clip-rule="evenodd" d="M40.8282 32.3438C41.6092 31.5627 42.8772 31.5627 43.6583 32.3438C44.4385 33.1248 44.4387 34.391 43.6583 35.1719L40.8282 38L43.6583 40.8281C44.4387 41.609 44.4385 42.8752 43.6583 43.6562C42.8772 44.4373 41.6092 44.4373 40.8282 43.6562L38 40.8281L35.1719 43.6562C34.3909 44.4373 33.1248 44.4373 32.3438 43.6562C31.563 42.8752 31.5628 41.6091 32.3438 40.8281L35.1719 38L32.3438 35.1719C31.5628 34.3909 31.563 33.1248 32.3438 32.3438C33.1248 31.5627 34.3909 31.5627 35.1719 32.3438L38 35.1699L40.8282 32.3438Z" fill="#646464"/>
<path fill-rule="evenodd" clip-rule="evenodd" d="M8.57427 36.0859C8.69546 37.8851 10.1103 39.2934 11.9063 39.4062C16.1348 39.6711 21.1116 39.7839 25.9825 39.7422C27.087 39.7327 27.9906 40.6201 28 41.7246C28.0094 42.8289 27.1219 43.7325 26.0176 43.7422C21.0712 43.7846 15.9971 43.6703 11.6563 43.3984C7.85182 43.1598 4.84032 40.1552 4.58403 36.3555C4.13865 29.7436 4.13866 22.2565 4.58403 15.6445C4.82577 12.0607 7.51889 9.18375 11.0157 8.66797C11.1867 6.06149 13.3503 4 16.0001 4C18.5137 4 20.5884 5.85577 20.9415 8.27148C22.9699 8.24498 25.0282 8.245 27.0567 8.27148C27.4096 5.85563 29.4863 4 32 4C34.6498 4 36.8114 6.06155 36.9825 8.66797C40.481 9.18304 43.1747 12.062 43.4161 15.6465C43.639 18.9562 43.7501 22.4803 43.75 26C43.75 27.1046 42.8546 28 41.75 28C40.6456 27.9999 39.75 27.1045 39.75 26C39.7501 23.6412 39.6993 21.2844 39.5975 19H8.4023C8.15162 24.6183 8.20894 30.6625 8.57427 36.0859ZM15.0001 9C15.0001 8.44771 15.4478 8 16.0001 8C16.5523 8 17.0001 8.44772 17.0001 9V12C17.0001 12.5523 16.5523 13 16.0001 13C15.4478 13 15.0001 12.5523 15.0001 12V9ZM31 9C31 8.44772 31.4478 8 32 8C32.5523 8 33 8.44772 33 9V12C33 12.5523 32.5523 13 32 13C31.4478 13 31 12.5523 31 12V9Z" fill="#646464"/>
</svg>
