<svg width="48" height="48" viewBox="0 0 48 48" fill="none" xmlns="http://www.w3.org/2000/svg">
<path d="M24 8C25.1046 8 26 8.89543 26 10V12.4545C26 13.5591 25.1046 14.4545 24 14.4545C22.8954 14.4545 22 13.5591 22 12.4545V10C22 8.89543 22.8954 8 24 8Z" fill="#646464"/>
<path d="M37.5459 28C37.5459 26.8954 38.4413 26 39.5459 26H42.0004C43.105 26 44.0004 26.8954 44.0004 28C44.0004 29.1046 43.105 30 42.0004 30H39.5459C38.4413 30 37.5459 29.1046 37.5459 28Z" fill="#646464"/>
<path d="M6 26C4.89543 26 4 26.8954 4 28C4 29.1046 4.89543 30 6 30H8.45452C9.55908 30 10.4545 29.1046 10.4545 28C10.4545 26.8954 9.55908 26 8.45452 26H6Z" fill="#646464"/>
<path d="M9.85631 13.8577C10.6374 13.0767 11.9037 13.0767 12.6847 13.8578L14.4203 15.5934C15.2014 16.3745 15.2014 17.6408 14.4203 18.4218C13.6392 19.2029 12.3729 19.2029 11.5919 18.4218L9.85628 16.6862C9.07524 15.9051 9.07525 14.6388 9.85631 13.8577Z" fill="#646464"/>
<path d="M38.144 16.6862C38.925 15.9051 38.925 14.6388 38.1439 13.8577C37.3629 13.0767 36.0965 13.0767 35.3155 13.8578L33.5799 15.5934C32.7989 16.3745 32.7989 17.6408 33.58 18.4219C34.361 19.2029 35.6273 19.2029 36.4084 18.4218L38.144 16.6862Z" fill="#646464"/>
<path d="M24.0007 20.6279C19.9294 20.6279 16.6289 23.9284 16.6289 27.9997C16.6289 28.7349 16.7359 29.4416 16.9339 30.1069C17.249 31.1655 16.6462 32.2792 15.5875 32.5943C14.5289 32.9094 13.4152 32.3065 13.1001 31.2479C12.7931 30.2163 12.6289 29.1254 12.6289 27.9997C12.6289 21.7192 17.7202 16.6279 24.0007 16.6279C30.2812 16.6279 35.3725 21.7192 35.3725 27.9997C35.3725 29.1254 35.2083 30.2163 34.9013 31.2479C34.5862 32.3065 33.4725 32.9094 32.4138 32.5943C31.3552 32.2792 30.7524 31.1655 31.0674 30.1069C31.2654 29.4416 31.3725 28.7349 31.3725 27.9997C31.3725 23.9284 28.072 20.6279 24.0007 20.6279Z" fill="#646464"/>
<path fill-rule="evenodd" clip-rule="evenodd" d="M24.0008 35.6611C19.0462 35.6611 15.3191 35.83 12.8194 36.0005C11.5696 36.0857 10.6266 36.1713 9.99063 36.2363C9.67263 36.2689 9.43136 36.2962 9.26683 36.3159C9.18457 36.3257 9.12148 36.3336 9.07759 36.3392L9.02613 36.3459L9.01119 36.3478L9.00345 36.3489C9.00345 36.3489 9.00345 36.3489 9.27368 38.3305L9.00345 36.3489C7.90901 36.4981 7.14277 37.5063 7.29202 38.6008C7.44124 39.6951 8.44964 40.4612 9.5439 40.3122L9.54999 40.3114L9.58482 40.3069C9.61763 40.3027 9.6696 40.2962 9.74074 40.2877C9.88302 40.2707 10.102 40.2458 10.3976 40.2156C10.9889 40.1551 11.8868 40.0733 13.0915 39.9912C15.5008 39.8269 19.1372 39.6611 24.0008 39.6611C28.8643 39.6611 32.5007 39.8269 34.91 39.9912C36.1147 40.0733 37.0127 40.1551 37.6039 40.2156C37.8996 40.2458 38.1185 40.2707 38.2608 40.2877C38.3319 40.2962 38.3839 40.3027 38.4167 40.3069L38.4515 40.3114L38.4587 40.3124C39.5527 40.4609 40.5603 39.6949 40.7095 38.6008C40.8588 37.5063 40.092 36.4981 38.9975 36.3488L38.9903 36.3478L38.9754 36.3459L38.924 36.3392C38.8801 36.3336 38.817 36.3257 38.7347 36.3159C38.5702 36.2962 38.3289 36.2689 38.0109 36.2363C37.3749 36.1713 36.432 36.0857 35.1821 36.0005C32.6825 35.83 28.9553 35.6611 24.0008 35.6611ZM38.7279 38.3305L38.9975 36.3488C38.9975 36.3488 38.9981 36.3489 38.7279 38.3305Z" fill="#646464"/>
</svg>
