<svg width="48" height="48" viewBox="0 0 48 48" fill="none" xmlns="http://www.w3.org/2000/svg">
<path d="M29.876 18.0566C30.6567 17.2763 31.9231 17.2767 32.7041 18.0566C33.485 18.8376 33.4847 20.1037 32.7041 20.8848L29.874 23.7129L32.7041 26.543C33.4851 27.3239 33.4849 28.59 32.7041 29.3711C31.923 30.1518 30.6569 30.152 29.876 29.3711L27.0478 26.543L24.2197 29.3711C23.4388 30.152 22.1727 30.1518 21.3916 29.3711C20.6109 28.59 20.6107 27.3239 21.3916 26.543L24.2197 23.7129L21.3916 20.8848C20.6111 20.1037 20.6107 18.8375 21.3916 18.0566C22.1725 17.2766 23.4389 17.2764 24.2197 18.0566L27.0478 20.8848L29.876 18.0566Z" fill="#646464"/>
<path fill-rule="evenodd" clip-rule="evenodd" d="M28.831 8C31.9562 8.00001 34.9663 8.07009 37.2842 8.14453C40.8848 8.26015 43.6966 11.1778 43.8369 14.793C43.9249 17.0668 44.001 20.153 44.001 24C44.001 27.847 43.9249 30.9332 43.8369 33.207C43.6964 36.8217 40.8862 39.7392 37.2861 39.8555C34.9682 39.9299 31.9562 40 28.831 40C24.5249 40 20.6259 39.8662 18.3955 39.7715C16.7136 39.7002 15.0438 39.1098 13.6943 37.9336C11.6951 36.1912 8.16417 32.786 5.23534 28.2227C3.59091 25.6598 3.59074 22.3401 5.23534 19.7773C8.16486 15.213 11.6955 11.8084 13.6943 10.0664C15.0438 8.89033 16.7137 8.29991 18.3955 8.22852C20.6258 8.13387 24.5247 8 28.831 8ZM28.831 12C24.6006 12 20.7623 12.1314 18.5654 12.2246C17.7056 12.2611 16.9266 12.5564 16.3232 13.082C14.4821 14.6866 11.2509 17.8081 8.60057 21.9375C7.80104 23.1838 7.80128 24.8162 8.60057 26.0625C10.9196 29.6757 13.6832 32.5175 15.5713 34.2461L16.3232 34.918L16.5576 35.1035C17.1225 35.5131 17.813 35.7435 18.5654 35.7754C20.7622 35.8687 24.6006 36 28.831 36C31.9008 36 34.8667 35.931 37.1572 35.8574C38.5658 35.8118 39.7764 34.6654 39.8389 33.0527C39.9249 30.8287 40.001 27.794 40.001 24C40.001 20.2059 39.9249 17.1712 39.8389 14.9473C39.7761 13.335 38.5656 12.1881 37.1572 12.1426C34.8667 12.069 31.9008 12 28.831 12Z" fill="#646464"/>
</svg>
