<svg width="48" height="48" viewBox="0 0 48 48" fill="none" xmlns="http://www.w3.org/2000/svg">
<path d="M24 41.9431C17.12 41.9431 12.7 41.7031 10.22 41.4831C7.1 41.2231 4.74 38.8631 4.48 35.7231C4.24 32.7831 4 29.4031 4 23.1031C4 16.8031 4.22 13.3031 4.46 10.3031C4.72 7.16309 7.18 4.68309 10.32 4.38309C12.66 4.18309 15.16 4.04309 17.78 3.98309C20.2 3.98309 22.42 5.10309 23.76 7.14309L24.9 8.84309C25 9.00309 25.2 9.10309 25.4 9.10309C30.92 9.14309 35.06 9.38309 37.56 9.58309C40.76 9.84309 43.28 12.3231 43.6 15.5031C43.74 16.8831 43.7 17.4831 43.66 18.3631C43.64 18.9431 43.6 19.6831 43.6 20.9831C43.6 22.0831 42.7 22.9831 41.6 22.9831C40.5 22.9831 39.6 22.0831 39.6 20.9831C39.6 19.6031 39.64 18.8031 39.66 18.1831C39.7 17.3631 39.72 16.9831 39.6 15.8831C39.48 14.6231 38.5 13.6831 37.24 13.5831C34.8 13.3831 30.76 13.1431 25.36 13.1231C23.82 13.1231 22.42 12.3431 21.56 11.0831L20.42 9.36309C19.84 8.48309 18.94 8.02309 17.84 8.00309C15.32 8.06309 12.92 8.18309 10.66 8.40309C9.44 8.52309 8.52 9.44309 8.42 10.6431C8.18 13.5631 7.96 17.0831 7.96 23.1231C7.96 29.1631 8.18 32.4431 8.42 35.4231C8.52 36.5831 9.36 37.4431 10.5 37.5231C12.92 37.7231 17.22 37.9631 23.96 37.9631C25.06 37.9631 25.96 38.8631 25.96 39.9631C25.96 41.0631 25.06 41.9631 23.96 41.9631L24 41.9431Z" fill="#646464"/>
<path d="M42 41.9831C41.48 41.9831 40.98 41.7831 40.58 41.4031L37 37.8231L33.42 41.4031C32.64 42.1831 31.38 42.1831 30.6 41.4031C29.82 40.6231 29.82 39.3631 30.6 38.5831L34.18 35.0031L30.6 31.4231C29.82 30.6431 29.82 29.3831 30.6 28.6031C31.38 27.8231 32.64 27.8231 33.42 28.6031L37 32.1831L40.58 28.6031C41.36 27.8231 42.62 27.8231 43.4 28.6031C44.18 29.3831 44.18 30.6431 43.4 31.4231L39.82 35.0031L43.4 38.5831C44.18 39.3631 44.18 40.6231 43.4 41.4031C43 41.8031 42.5 41.9831 41.98 41.9831H42Z" fill="#646464"/>
</svg>
