<svg width="48" height="48" viewBox="0 0 48 48" fill="none" xmlns="http://www.w3.org/2000/svg">
<path d="M21.9801 43.98H22.0201C23.1201 43.98 24.0201 43.1 24.0201 42C24.0401 40.9 23.1401 39.98 22.0401 39.98C18.0201 39.94 14.4801 39.76 11.5401 39.44C10.9801 39.38 10.5201 39.14 10.2401 38.74C10.0401 38.44 9.9801 38.1 10.0601 37.72C10.9801 33.88 13.8801 29.14 19.2801 27.32C20.0401 27.08 20.5601 26.42 20.6401 25.64C20.7401 24.88 20.3601 24.12 19.6801 23.72C17.0801 22.18 15.5201 19.46 15.5201 16.46C15.5201 11.8 19.3401 8 24.0201 8C28.7001 8 32.5201 11.8 32.5201 16.46C32.5201 19.46 30.9601 22.18 28.3601 23.72C27.7001 24.12 27.3201 24.88 27.4001 25.66C27.4801 26.44 28.0001 27.1 28.7401 27.34C29.3601 27.56 29.9601 27.8 30.5401 28.1C31.5201 28.6 32.7201 28.2 33.2201 27.22C33.6001 26.5 33.4801 25.68 33.0201 25.08C35.2201 22.78 36.5001 19.7 36.5001 16.46C36.5001 9.58 30.9001 4 24.0001 4C17.1001 4 11.5001 9.58 11.5001 16.44C11.5001 19.62 12.7401 22.66 14.8801 24.94C10.6001 27.42 7.3801 31.72 6.1601 36.78C5.8001 38.28 6.0801 39.8 6.9601 41.04C7.9001 42.38 9.4001 43.24 11.1001 43.42C14.1801 43.74 17.8401 43.94 21.9801 43.98Z" fill="#646464"/>
<path d="M35.58 43.4202C35.98 43.8002 36.48 44.0002 37 44.0002L36.98 44.0402C37.5 44.0402 38 43.8602 38.4 43.4602L43.4 38.4602C43.6 38.2602 43.74 38.0402 43.84 37.8002C43.94 37.5802 44 37.3202 44 37.0402C44 36.7602 43.94 36.5202 43.84 36.2802C43.74 36.0402 43.6 35.8202 43.4 35.6202L38.4 30.6202C37.62 29.8402 36.36 29.8402 35.58 30.6202C34.8 31.4002 34.8 32.6602 35.58 33.4402L37.16 35.0202H27.98C26.88 35.0202 25.98 35.9202 25.98 37.0202C25.98 38.1202 26.88 39.0202 27.98 39.0202H37.16L35.58 40.6002C34.8 41.3802 34.8 42.6402 35.58 43.4202Z" fill="#646464"/>
</svg>
