<svg width="48" height="48" viewBox="0 0 48 48" fill="none" xmlns="http://www.w3.org/2000/svg">
<path d="M32.0705 29.9998H36.1958V25.9998C36.1958 24.8998 37.124 23.9998 38.2585 23.9998C39.393 23.9998 40.3212 24.8998 40.3212 25.9998V29.9998H44.4465C45.581 29.9998 46.5092 30.8998 46.5092 31.9998C46.5092 33.0998 45.581 33.9998 44.4465 33.9998H40.3212V37.9998C40.3212 39.0998 39.393 39.9998 38.2585 39.9998C37.124 39.9998 36.1958 39.0998 36.1958 37.9998V33.9998H32.0705C30.936 33.9998 30.0078 33.0998 30.0078 31.9998C30.0078 30.8998 30.936 29.9998 32.0705 29.9998Z" fill="#646464"/>
<path fill-rule="evenodd" clip-rule="evenodd" d="M15.3839 4.42879C17.4596 4.18626 20.1847 3.9995 23.6557 3.9995C25.636 3.9995 27.4017 4.06028 28.9587 4.15726C30.1045 4.22864 31.1371 4.31962 32.0588 4.42038C36.5183 4.90789 39.6908 8.42486 40.0657 12.773C40.1542 13.8004 40.2377 14.9676 40.3075 16.2778C40.3661 17.3808 39.5196 18.3226 38.4165 18.3813C37.3135 18.44 36.3718 17.5934 36.3131 16.4904C36.2457 15.2235 36.1652 14.0999 36.0805 13.1166C35.8591 10.5492 34.0646 8.66348 31.6241 8.39669C30.7647 8.30274 29.7941 8.21706 28.71 8.14953C27.2369 8.05777 25.5541 7.9995 23.6557 7.9995C20.3279 7.9995 17.7583 8.17857 15.8481 8.40176C13.7018 8.65255 12.1509 10.2889 11.9425 12.5883C11.7087 15.1687 11.501 18.8971 11.501 23.9995C11.501 29.1019 11.7087 32.8303 11.9425 35.4106C12.1509 37.7101 13.7018 39.3464 15.8481 39.5972C17.7583 39.8204 20.3279 39.9995 23.6557 39.9995C26.0987 39.9995 28.1846 39.903 29.9261 39.7628C31.0271 39.6742 31.9915 40.4949 32.0801 41.5959C32.1687 42.6969 31.348 43.6613 30.247 43.7499C28.3971 43.8988 26.2041 43.9995 23.6557 43.9995C20.1847 43.9995 17.4596 43.8127 15.3839 43.5702C11.2126 43.0828 8.32451 39.8068 7.95884 35.7716C7.71304 33.0592 7.50098 29.2097 7.50098 23.9995C7.50098 18.7893 7.71304 14.9397 7.95884 12.2273C8.3245 8.19219 11.2126 4.91619 15.3839 4.42879Z" fill="#646464"/>
<path fill-rule="evenodd" clip-rule="evenodd" d="M15.0009 15.4995C15.0009 14.3949 15.8963 13.4995 17.0009 13.4995H25.0009C26.1054 13.4995 27.0009 14.3949 27.0009 15.4995C27.0009 16.6041 26.1054 17.4995 25.0009 17.4995H17.0009C15.8963 17.4995 15.0009 16.6041 15.0009 15.4995Z" fill="#646464"/>
<path fill-rule="evenodd" clip-rule="evenodd" d="M15.0008 23.9995C15.0008 22.895 15.8962 21.9995 17.0008 21.9995H29.0018C30.1064 21.9995 31.0018 22.895 31.0018 23.9995C31.0018 25.1041 30.1064 25.9995 29.0018 25.9995H17.0008C15.8962 25.9995 15.0008 25.1041 15.0008 23.9995Z" fill="#646464"/>
<path fill-rule="evenodd" clip-rule="evenodd" d="M15.0009 32.4995C15.0009 33.6041 15.8963 34.4995 17.0009 34.4995H25.0116C26.1161 34.4995 27.0116 33.6041 27.0116 32.4995C27.0116 31.3949 26.1161 30.4995 25.0116 30.4995H17.0009C15.8963 30.4995 15.0009 31.3949 15.0009 32.4995Z" fill="#646464"/>
</svg>
