<svg width="48" height="48" viewBox="0 0 48 48" fill="none" xmlns="http://www.w3.org/2000/svg">
<path d="M26 8C26 6.89543 25.1046 6 24 6C22.8954 6 22 6.89543 22 8V27.1716L17.4142 22.5858C16.6332 21.8047 15.3668 21.8047 14.5858 22.5858C13.8047 23.3668 13.8047 24.6332 14.5858 25.4142L22.5858 33.4142C23.3668 34.1953 24.6332 34.1953 25.4142 33.4142L33.4142 25.4142C34.1953 24.6332 34.1953 23.3668 33.4142 22.5858C32.6332 21.8047 31.3668 21.8047 30.5858 22.5858L26 27.1716V8Z" fill="#646464"/>
<path d="M10.4193 31.9088C10.369 30.8054 9.43363 29.9517 8.33021 30.0021C7.22679 30.0525 6.37313 30.9878 6.42351 32.0912C6.48996 33.5468 6.57579 34.9278 6.6815 36.1859C6.91203 38.9294 9.06963 41.088 11.8138 41.3186C18.6605 41.8938 29.3394 41.8938 36.1863 41.3186C38.9306 41.088 41.0882 38.9293 41.3187 36.1857C41.4243 34.9276 41.5101 33.5468 41.5766 32.0912C41.6269 30.9878 40.7733 30.0525 39.6699 30.0021C38.5664 29.9518 37.6311 30.8054 37.5807 31.9088C37.5161 33.3248 37.4333 34.6537 37.3327 35.8509C37.2655 36.6504 36.6503 37.2655 35.8514 37.3326C29.2274 37.8892 18.7726 37.8892 12.1487 37.3326C11.3499 37.2655 10.7346 36.6504 10.6675 35.851C10.5669 34.6538 10.484 33.3248 10.4193 31.9088Z" fill="#646464"/>
</svg>
