<svg width="48" height="48" viewBox="0 0 48 48" fill="none" xmlns="http://www.w3.org/2000/svg">
<path fill-rule="evenodd" clip-rule="evenodd" d="M15 24C15 25.6569 13.6569 27 12 27C10.3431 27 9 25.6569 9 24C9 22.3431 10.3431 21 12 21C13.6569 21 15 22.3431 15 24ZM27 24C27 25.6569 25.6569 27 24 27C22.3431 27 21 25.6569 21 24C21 22.3431 22.3431 21 24 21C25.6569 21 27 22.3431 27 24ZM36 27C37.6569 27 39 25.6569 39 24C39 22.3431 37.6569 21 36 21C34.3431 21 33 22.3431 33 24C33 25.6569 34.3431 27 36 27Z" fill="#646464"/>
</svg>
