<svg width="48" height="48" viewBox="0 0 48 48" fill="none" xmlns="http://www.w3.org/2000/svg">
<path fill-rule="evenodd" clip-rule="evenodd" d="M12.3437 27.959C11.9538 25.6248 13.9143 24 15.8165 24H32.1835C34.0858 24 36.0462 25.6249 35.6563 27.959C34.7217 33.5541 29.8607 37.8182 24 37.8182C18.1393 37.8182 13.2783 33.5541 12.3437 27.959ZM16.4395 28C17.3224 31.3487 20.3745 33.8182 24 33.8182C27.6255 33.8182 30.6776 31.3487 31.5605 28H16.4395Z" fill="#646464"/>
<path fill-rule="evenodd" clip-rule="evenodd" d="M16.6364 15C17.7409 15 18.6364 15.8954 18.6364 17V19C18.6364 20.1046 17.7409 21 16.6364 21C15.5318 21 14.6364 20.1046 14.6364 19V17C14.6364 15.8954 15.5318 15 16.6364 15Z" fill="#646464"/>
<path fill-rule="evenodd" clip-rule="evenodd" d="M31.3636 15C32.4682 15 33.3636 15.8954 33.3636 17V19C33.3636 20.1046 32.4682 21 31.3636 21C30.2591 21 29.3636 20.1046 29.3636 19V17C29.3636 15.8954 30.2591 15 31.3636 15Z" fill="#646464"/>
<path fill-rule="evenodd" clip-rule="evenodd" d="M24 8C15.1634 8 8 15.1634 8 24C8 32.8366 15.1634 40 24 40C32.8366 40 40 32.8366 40 24C40 15.1634 32.8366 8 24 8ZM4 24C4 12.9543 12.9543 4 24 4C35.0457 4 44 12.9543 44 24C44 35.0457 35.0457 44 24 44C12.9543 44 4 35.0457 4 24Z" fill="#646464"/>
</svg>
