<svg width="48" height="48" viewBox="0 0 48 48" fill="none" xmlns="http://www.w3.org/2000/svg">
<path d="M41.975 16C40.875 16 39.975 15.1 39.975 14V10.8931L33.515 17.3401C33.115 17.7201 32.615 17.9201 32.095 17.9201V17.9401C31.575 17.9401 31.075 17.7401 30.675 17.3601C29.895 16.5801 29.895 15.3201 30.675 14.5401L37.2282 8H33.975C32.875 8 31.975 7.1 31.975 6C31.975 4.9 32.875 4 33.975 4H41.975C42.7582 4 43.4401 4.45634 43.7678 5.11627C43.9734 5.5031 44.0424 5.94284 43.975 6.36522V14C43.975 15.1 43.075 16 41.975 16Z" fill="#646464"/>
<path d="M18.354 19.4789C16.4142 17.3591 14.035 14.7592 14.175 10H28.115C29.215 10 30.115 9.1 30.115 8C30.115 6.9 29.215 6 28.115 6H7.61499C6.51499 6 5.61499 6.9 5.61499 8C5.61499 9.1 6.51499 10 7.61499 10H10.1851C10.051 16.2928 13.3523 19.92 15.415 22.18L15.6436 22.4308C16.2047 23.0457 16.8448 23.7469 16.915 23.94C16.815 24.28 16.015 25.18 15.415 25.82C13.3517 28.0627 10.0491 31.6895 10.1852 38H7.61499C6.51499 38 5.61499 38.9 5.61499 40C5.61499 41.1 6.51499 42 7.61499 42H40.335C41.435 42 42.335 41.1 42.335 40C42.335 38.9 41.435 38 40.335 38H37.8048C37.9389 31.7072 34.6376 28.08 32.575 25.82L32.44 25.6713C31.878 25.0528 31.1874 24.2928 31.095 23.96C31.075 22.88 30.195 22 29.095 22C27.995 22 27.095 22.9 27.095 24C27.095 25.74 28.255 27.04 29.615 28.52C31.5548 30.6398 33.9349 33.2408 33.795 38H14.175C14.0357 33.2843 16.3906 30.6867 18.3251 28.5529L18.4041 28.4658C19.7432 26.9891 20.895 25.719 20.895 24C20.895 22.26 19.714 20.9589 18.354 19.4789Z" fill="#646464"/>
</svg>
