<svg width="48" height="48" viewBox="0 0 48 48" fill="none" xmlns="http://www.w3.org/2000/svg">
<path fill-rule="evenodd" clip-rule="evenodd" d="M24.2356 8.00315C24.0816 7.99895 23.9184 7.99895 23.7644 8.00315C23.2797 8.01638 22.8543 8.06964 22.487 8.14287C22.105 8.21905 22.0041 8.26098 21.9756 8.27589C21.9084 8.31096 21.8019 8.39403 21.6978 8.60491C21.5898 8.82363 21.5073 9.14084 21.5005 9.52814C21.4978 9.6754 21.5067 9.80485 21.5225 10.0346C21.5283 10.1192 21.5351 10.2173 21.5425 10.3349C21.5825 10.9659 21.6271 11.7028 21.6758 12.5062C21.913 16.4212 22.2457 21.9129 22.5945 24.4054C22.6322 24.6742 22.7163 24.836 22.7665 24.902L22.771 24.9078C23.0692 24.9588 23.4728 25 24 25C24.5272 25 24.9308 24.9588 25.229 24.9078L25.2335 24.902C25.2837 24.836 25.3678 24.6742 25.4055 24.4054C25.7543 21.913 26.0868 16.4246 26.3239 12.5109C26.3748 11.6709 26.4213 10.9033 26.4626 10.2536C26.4669 10.1864 26.4709 10.1254 26.4745 10.0696C26.4945 9.76365 26.5042 9.61403 26.4973 9.45455C26.4813 9.08537 26.3969 8.78807 26.292 8.58453C26.191 8.38872 26.0899 8.31009 26.0244 8.27589C25.9959 8.26098 25.895 8.21905 25.513 8.14287C25.1457 8.06964 24.7203 8.01638 24.2356 8.00315ZM23.6553 4.00464C23.882 3.99845 24.118 3.99845 24.3447 4.00464C25.0598 4.02416 25.7103 4.10347 26.2951 4.22009C26.6959 4.3 27.2957 4.42714 27.8762 4.73032C29.7143 5.69034 30.4226 7.64479 30.4935 9.28128C30.5108 9.67883 30.4837 10.0767 30.4636 10.3725C30.4603 10.4203 30.4573 10.4654 30.4546 10.5075C30.4161 11.1132 30.3719 11.8434 30.323 12.6536C30.0876 16.5471 29.7406 22.2896 29.3669 24.9598C29.1534 26.4851 28.1806 28.4393 25.9833 28.8365C25.4279 28.9367 24.7714 29 24 29C23.2286 29 22.5725 28.9368 22.0171 28.8366C19.8198 28.4394 18.8466 26.4851 18.6331 24.9598C18.2595 22.2897 17.9126 16.5504 17.6773 12.6581C17.6304 11.8813 17.5879 11.1781 17.5505 10.5875C17.5473 10.5369 17.5433 10.4803 17.539 10.419C17.5202 10.1519 17.4951 9.7955 17.5011 9.45727C17.5309 7.77214 18.2238 5.72266 20.1238 4.73032C20.7043 4.42714 21.3041 4.3 21.7049 4.22009C22.2897 4.10347 22.9402 4.02416 23.6553 4.00464Z" fill="#646464"/>
<path fill-rule="evenodd" clip-rule="evenodd" d="M19.4038 32.9038C20.6228 31.6848 22.2761 31 24 31C25.7239 31 27.3772 31.6848 28.5962 32.9038C29.8152 34.1228 30.5 35.7761 30.5 37.5C30.5 39.2239 29.8152 40.8772 28.5962 42.0962C27.3772 43.3152 25.7239 44 24 44C22.2761 44 20.6228 43.3152 19.4038 42.0962C18.1848 40.8772 17.5 39.2239 17.5 37.5C17.5 35.7761 18.1848 34.1228 19.4038 32.9038ZM24 35C23.337 35 22.7011 35.2634 22.2322 35.7322C21.7634 36.2011 21.5 36.837 21.5 37.5C21.5 38.163 21.7634 38.7989 22.2322 39.2678C22.7011 39.7366 23.337 40 24 40C24.663 40 25.2989 39.7366 25.7678 39.2678C26.2366 38.7989 26.5 38.163 26.5 37.5C26.5 36.837 26.2366 36.2011 25.7678 35.7322C25.2989 35.2634 24.663 35 24 35Z" fill="#646464"/>
</svg>
