<svg width="48" height="48" viewBox="0 0 48 48" fill="none" xmlns="http://www.w3.org/2000/svg">
<path d="M22.58 21.42C22.78 21.62 23 21.76 23.24 21.86C23.48 21.96 23.72 22 24 22.02C24.26 22.02 24.52 21.96 24.76 21.86C25 21.76 25.22 21.62 25.42 21.42L31.42 15.42C32.2 14.64 32.2 13.38 31.42 12.6C30.64 11.82 29.38 11.82 28.6 12.6L26.02 15.18V6C26.02 4.9 25.12 4 24.02 4C22.92 4 22.02 4.9 22.02 6V15.18L19.44 12.6C18.66 11.82 17.4 11.82 16.62 12.6C15.84 13.38 15.84 14.64 16.62 15.42L22.62 21.42H22.58Z" fill="#646464"/>
<path d="M39.92 31.26C39.78 28.58 37.8 26.56 35.1 26.32C32.5 26.1 28.76 26 24.02 26C19.28 26 15.54 26.1 12.94 26.32C10.24 26.54 8.26004 28.56 8.12004 31.24C8.08004 32.18 8.04004 33.4 8.04004 34.98C8.04004 36.56 8.08004 37.78 8.12004 38.72C8.26004 41.4 10.24 43.42 12.94 43.64C15.54 43.86 19.28 43.96 24.02 43.96C28.76 43.96 32.5 43.86 35.1 43.64C37.8 43.42 39.78 41.38 39.92 38.7C39.96 37.76 40 36.54 40 34.96C40 33.38 39.96 32.16 39.92 31.22V31.26ZM35.92 38.54C35.88 39.42 35.26 39.64 34.76 39.68C33.04 39.82 29.78 40 24 40C18.22 40 14.96 39.84 13.24 39.68C12.74 39.64 12.12 39.4 12.08 38.52C12.04 37.64 12 36.48 12 34.98C12 33.48 12.04 32.32 12.08 31.44C12.12 30.56 12.74 30.34 13.24 30.3C14.96 30.16 18.22 29.98 24 29.98C29.78 29.98 33.04 30.14 34.76 30.3C35.26 30.34 35.88 30.58 35.92 31.44C35.96 32.32 36 33.48 36 34.98C36 36.48 35.96 37.64 35.92 38.52V38.54Z" fill="#646464"/>
</svg>
