<svg width="48" height="48" viewBox="0 0 48 48" fill="none" xmlns="http://www.w3.org/2000/svg">
<path fill-rule="evenodd" clip-rule="evenodd" d="M24 8C15.1634 8 8 15.1634 8 24C8 32.8366 15.1634 40 24 40C32.8366 40 40 32.8366 40 24C40 15.1634 32.8366 8 24 8ZM4 24C4 12.9543 12.9543 4 24 4C35.0457 4 44 12.9543 44 24C44 35.0457 35.0457 44 24 44C12.9543 44 4 35.0457 4 24ZM14.5858 20.5858C15.3668 19.8047 16.6332 19.8047 17.4142 20.5858L24 27.1716L30.5858 20.5858C31.3668 19.8047 32.6332 19.8047 33.4142 20.5858C34.1953 21.3668 34.1953 22.6332 33.4142 23.4142L25.4142 31.4142C24.6332 32.1953 23.3668 32.1953 22.5858 31.4142L14.5858 23.4142C13.8047 22.6332 13.8047 21.3668 14.5858 20.5858Z" fill="#646464"/>
</svg>
