<svg width="48" height="48" viewBox="0 0 48 48" fill="none" xmlns="http://www.w3.org/2000/svg">
<path d="M40.0131 42.001C41.1103 42.001 42 41.1113 42 40.0141V7.98796C42 6.8904 41.1103 6.00098 40.0131 6.00098H7.98686C6.8893 6.00098 6 6.8904 6 7.98796V40.0141C6 41.1113 6.8893 42.001 7.98686 42.001H40.0131Z" fill="#3B5998"/>
<path d="M30.8392 42.001V28.06H35.5188L36.2194 22.6268H30.8392V19.158C30.8392 17.585 31.276 16.5131 33.5318 16.5131L36.4089 16.5117V11.6524C35.9112 11.5863 34.2034 11.4383 32.2166 11.4383C28.0684 11.4383 25.2287 13.9702 25.2287 18.6201V22.6268H20.5372V28.06H25.2287V42.001H30.8392Z" fill="white"/>
</svg>
