<svg width="48" height="48" viewBox="0 0 48 48" fill="none" xmlns="http://www.w3.org/2000/svg">
<path fill-rule="evenodd" clip-rule="evenodd" d="M18 24C18 17.3726 23.3726 12 30 12C36.6274 12 42 17.3726 42 24C42 30.6274 36.6274 36 30 36C23.3726 36 18 30.6274 18 24ZM30 8C21.1634 8 14 15.1634 14 24C14 32.8366 21.1634 40 30 40C38.8366 40 46 32.8366 46 24C46 15.1634 38.8366 8 30 8ZM32 16.2222C32 15.1177 31.1046 14.2222 30 14.2222C28.8954 14.2222 28 15.1177 28 16.2222V24C28 24.5304 28.2107 25.0391 28.5858 25.4142L34.0302 30.8587C34.8113 31.6397 36.0776 31.6397 36.8587 30.8587C37.6397 30.0776 37.6397 28.8113 36.8587 28.0302L32 23.1716V16.2222ZM7 14C5.89543 14 5 14.8954 5 16C5 17.1046 5.89543 18 7 18H11C12.1046 18 13 17.1046 13 16C13 14.8954 12.1046 14 11 14H7ZM4 22C2.89543 22 2 22.8954 2 24C2 25.1046 2.89543 26 4 26H10C11.1046 26 12 25.1046 12 24C12 22.8954 11.1046 22 10 22H4ZM6 32C6 30.8954 6.89543 30 8 30H12C13.1046 30 14 30.8954 14 32C14 33.1046 13.1046 34 12 34H8C6.89543 34 6 33.1046 6 32Z" fill="#646464"/>
</svg>
