<svg width="48" height="48" viewBox="0 0 48 48" fill="none" xmlns="http://www.w3.org/2000/svg">
<path d="M4 12C4 7.58172 7.58172 4 12 4H36C40.4183 4 44 7.58172 44 12V36C44 40.4183 40.4183 44 36 44H12C7.58172 44 4 40.4183 4 36V12Z" fill="#9747FF"/>
<path fill-rule="evenodd" clip-rule="evenodd" d="M11.2269 13.5269C11.1749 13.2132 11.1985 12.8915 11.2957 12.5887C11.3929 12.2859 11.5609 12.0107 11.7858 11.7858C12.0107 11.5609 12.2859 11.3929 12.5887 11.2957C12.8915 11.1985 13.2132 11.1749 13.5269 11.2269L19.5269 12.2269C19.9382 12.2952 20.3179 12.4903 20.6129 12.7849L35.9069 28.0769C36.1857 28.3555 36.4068 28.6863 36.5577 29.0504C36.7086 29.4145 36.7863 29.8048 36.7863 30.1989C36.7863 30.593 36.7086 30.9833 36.5577 31.3474C36.4068 31.7115 36.1857 32.0423 35.9069 32.3209L32.3209 35.9069C32.0423 36.1857 31.7115 36.4068 31.3474 36.5577C30.9833 36.7086 30.593 36.7863 30.1989 36.7863C29.8048 36.7863 29.4145 36.7086 29.0504 36.5577C28.6863 36.4068 28.3555 36.1857 28.0769 35.9069L12.7849 20.6129C12.4895 20.3182 12.2937 19.9385 12.2249 19.5269L11.2269 13.5269ZM13.1989 13.1989L13.5469 15.2849L14.1989 19.1989L15.9909 20.9909L20.9909 15.9909L19.1989 14.1989L15.2849 13.5469L13.1989 13.1989ZM22.4069 17.4069L17.4069 22.4069L29.4909 34.4929C29.6784 34.6804 29.9327 34.7857 30.1979 34.7857C30.4631 34.7857 30.7174 34.6804 30.9049 34.4929L34.4909 30.9069C34.6784 30.7194 34.7837 30.4651 34.7837 30.1999C34.7837 29.9347 34.6784 29.6804 34.4909 29.4929L22.4069 17.4069Z" fill="white"/>
</svg>
