<svg width="48" height="48" viewBox="0 0 48 48" fill="none" xmlns="http://www.w3.org/2000/svg">
<path d="M24 24C24 22.2319 24.7375 20.5362 26.0503 19.286C27.363 18.0357 29.1435 17.3333 31 17.3333C32.8565 17.3333 34.637 18.0357 35.9497 19.286C37.2625 20.5362 38 22.2319 38 24C38 25.7681 37.2625 27.4638 35.9497 28.714C34.637 29.9643 32.8565 30.6667 31 30.6667C29.1435 30.6667 27.363 29.9643 26.0503 28.714C24.7375 27.4638 24 25.7681 24 24Z" fill="#1ABCFE"/>
<path d="M10 37.3333C10 35.5652 10.7375 33.8695 12.0503 32.6193C13.363 31.369 15.1435 30.6667 17 30.6667H24V37.3333C24 39.1014 23.2625 40.7971 21.9497 42.0474C20.637 43.2976 18.8565 44 17 44C15.1435 44 13.363 43.2976 12.0503 42.0474C10.7375 40.7971 10 39.1014 10 37.3333Z" fill="#0ACF83"/>
<path d="M24 4V17.3333H31C32.8565 17.3333 34.637 16.631 35.9497 15.3807C37.2625 14.1305 38 12.4348 38 10.6667C38 8.89856 37.2625 7.20286 35.9497 5.95262C34.637 4.70238 32.8565 4 31 4H24Z" fill="#FF7262"/>
<path d="M10 10.6667C10 12.4348 10.7375 14.1305 12.0503 15.3807C13.363 16.631 15.1435 17.3333 17 17.3333H24V4H17C15.1435 4 13.363 4.70238 12.0503 5.95262C10.7375 7.20286 10 8.89856 10 10.6667Z" fill="#F24E1E"/>
<path d="M10 24C10 25.7681 10.7375 27.4638 12.0503 28.714C13.363 29.9643 15.1435 30.6667 17 30.6667H24V17.3333H17C15.1435 17.3333 13.363 18.0357 12.0503 19.286C10.7375 20.5362 10 22.2319 10 24Z" fill="#A259FF"/>
</svg>
