<svg width="48" height="48" viewBox="0 0 48 48" fill="none" xmlns="http://www.w3.org/2000/svg">
<path d="M4 12C4 7.58172 7.58172 4 12 4H36C40.4183 4 44 7.58172 44 12V36C44 40.4183 40.4183 44 36 44H12C7.58172 44 4 40.4183 4 36V12Z" fill="#FF5C16"/>
<path fill-rule="evenodd" clip-rule="evenodd" d="M14 14H34C34.5304 14 35.0391 14.2107 35.4142 14.5858C35.7893 14.9609 36 15.4696 36 16V28C36 28.5304 35.7893 29.0391 35.4142 29.4142C35.0391 29.7893 34.5304 30 34 30H14C13.4696 30 12.9609 29.7893 12.5858 29.4142C12.2107 29.0391 12 28.5304 12 28V16C12 15.4696 12.2107 14.9609 12.5858 14.5858C12.9609 14.2107 13.4696 14 14 14ZM17.36 32H14C12.9391 32 11.9217 31.5786 11.1716 30.8284C10.4214 30.0783 10 29.0609 10 28V16C10 14.9391 10.4214 13.9217 11.1716 13.1716C11.9217 12.4214 12.9391 12 14 12H34C35.0609 12 36.0783 12.4214 36.8284 13.1716C37.5786 13.9217 38 14.9391 38 16V28C38 29.0609 37.5786 30.0783 36.8284 30.8284C36.0783 31.5786 35.0609 32 34 32H30.64L31.964 36.73C32.0356 36.9854 32.0028 37.2588 31.8729 37.49C31.7429 37.7213 31.5264 37.8914 31.271 37.963C31.0156 38.0346 30.7422 38.0018 30.511 37.8719C30.2797 37.7419 30.1096 37.5254 30.038 37.27L28.56 32H19.438L17.962 37.27C17.8822 37.5155 17.7105 37.7207 17.4829 37.8425C17.2553 37.9643 16.9893 37.9934 16.7408 37.9236C16.4922 37.8539 16.2803 37.6907 16.1493 37.4682C16.0183 37.2457 15.9784 36.9812 16.038 36.73L17.36 32ZM17 17C16.4696 17 15.9609 17.2107 15.5858 17.5858C15.2107 17.9609 15 18.4696 15 19C15 19.5304 15.2107 20.0391 15.5858 20.4142C15.9609 20.7893 16.4696 21 17 21C17.5304 21 18.0391 20.7893 18.4142 20.4142C18.7893 20.0391 19 19.5304 19 19C19 18.4696 18.7893 17.9609 18.4142 17.5858C18.0391 17.2107 17.5304 17 17 17ZM17 23C16.4696 23 15.9609 23.2107 15.5858 23.5858C15.2107 23.9609 15 24.4696 15 25C15 25.5304 15.2107 26.0391 15.5858 26.4142C15.9609 26.7893 16.4696 27 17 27C17.5304 27 18.0391 26.7893 18.4142 26.4142C18.7893 26.0391 19 25.5304 19 25C19 24.4696 18.7893 23.9609 18.4142 23.5858C18.0391 23.2107 17.5304 23 17 23Z" fill="white"/>
</svg>
