<svg width="48" height="48" viewBox="0 0 48 48" fill="none" xmlns="http://www.w3.org/2000/svg">
<path fill-rule="evenodd" clip-rule="evenodd" d="M10.7041 4.09976C10.0946 3.17857 8.85374 2.92589 7.93255 3.53538C7.01136 4.14487 6.75868 5.38574 7.36817 6.30693L10.6055 11.1999H6.00195C4.89738 11.1999 4.00195 12.0954 4.00195 13.1999C4.00195 14.3045 4.89738 15.1999 6.00195 15.1999H13.0009C13.0827 15.1999 13.1633 15.195 13.2425 15.1855L18.048 22.4485H12.752C11.6474 22.4485 10.752 23.3439 10.752 24.4485C10.752 25.5531 11.6474 26.4485 12.752 26.4485H20.3763C20.4793 26.4485 20.5806 26.4407 20.6794 26.4257L25.4905 33.6971H19.5001C18.3955 33.6971 17.5001 34.5926 17.5001 35.6971C17.5001 36.8017 18.3955 37.6971 19.5001 37.6971H28.137L31.6929 43.0716C32.3024 43.9928 33.5433 44.2455 34.4645 43.636C35.3857 43.0265 35.6384 41.7856 35.0289 40.8644L10.7041 4.09976ZM22.8 11.1999C21.6954 11.1999 20.8 12.0954 20.8 13.1999C20.8 14.3045 21.6954 15.1999 22.8 15.1999H41.9976C43.1021 15.1999 43.9976 14.3045 43.9976 13.1999C43.9976 12.0954 43.1021 11.1999 41.9976 11.1999H22.8ZM30.0006 22.4485C28.896 22.4485 28.0006 23.3439 28.0006 24.4485C28.0006 25.5531 28.896 26.4485 30.0006 26.4485H35.2492C36.3538 26.4485 37.2492 25.5531 37.2492 24.4485C37.2492 23.3439 36.3538 22.4485 35.2492 22.4485H30.0006Z" fill="#646464"/>
</svg>
