<svg width="48" height="48" viewBox="0 0 48 48" fill="none" xmlns="http://www.w3.org/2000/svg">
<path fill-rule="evenodd" clip-rule="evenodd" d="M4 12C4 10.8954 4.89543 10 6 10H42C43.1046 10 44 10.8954 44 12C44 13.1046 43.1046 14 42 14H6C4.89543 14 4 13.1046 4 12ZM12 24.0001C12 22.8956 12.8954 22.0001 14 22.0001H34C35.1046 22.0001 36 22.8956 36 24.0001C36 25.1047 35.1046 26.0001 34 26.0001H14C12.8954 26.0001 12 25.1047 12 24.0001ZM18 36C18 34.8954 18.8954 34 20 34H28C29.1046 34 30 34.8954 30 36C30 37.1046 29.1046 38 28 38H20C18.8954 38 18 37.1046 18 36Z" fill="#646464"/>
</svg>
