<svg width="48" height="48" viewBox="0 0 48 48" fill="none" xmlns="http://www.w3.org/2000/svg">
<path fill-rule="evenodd" clip-rule="evenodd" d="M6 9C6 7.89543 6.89543 7 8 7H40C41.1046 7 42 7.89543 42 9C42 10.1046 41.1046 11 40 11H8C6.89543 11 6 10.1046 6 9Z" fill="#646464"/>
<path fill-rule="evenodd" clip-rule="evenodd" d="M6 19C6 17.8954 6.89543 17 8 17H40C41.1046 17 42 17.8954 42 19C42 20.1046 41.1046 21 40 21H8C6.89543 21 6 20.1046 6 19Z" fill="#646464"/>
<path fill-rule="evenodd" clip-rule="evenodd" d="M6 29C6 27.8954 6.89543 27 8 27H28C29.1046 27 30 27.8954 30 29C30 30.1046 29.1046 31 28 31H8C6.89543 31 6 30.1046 6 29Z" fill="#646464"/>
<path fill-rule="evenodd" clip-rule="evenodd" d="M6 39C6 37.8954 6.89543 37 8 37H22C23.1046 37 24 37.8954 24 39C24 40.1046 23.1046 41 22 41H8C6.89543 41 6 40.1046 6 39Z" fill="#646464"/>
<path fill-rule="evenodd" clip-rule="evenodd" d="M43.1177 29.3395C44.0348 29.9551 44.2791 31.1977 43.6634 32.1148L36.9848 42.0632C35.9044 43.6725 33.6043 43.8502 32.2896 42.4259L28.5333 38.3566C27.7841 37.5449 27.8347 36.2796 28.6464 35.5304C29.458 34.7812 30.7233 34.8318 31.4725 35.6434L34.3697 38.7821L40.3424 29.8852C40.9581 28.9682 42.2006 28.7238 43.1177 29.3395Z" fill="#646464"/>
</svg>
