<svg width="48" height="48" viewBox="0 0 48 48" fill="none" xmlns="http://www.w3.org/2000/svg">
<path fill-rule="evenodd" clip-rule="evenodd" d="M10 4C8.89543 4 8 4.89543 8 6C8 6.07361 8.00398 6.14628 8.01173 6.21783C8.09018 9.47982 8.28101 17.7763 8.28101 23.0808C8.28101 25.7654 8.21111 30.4779 8.14081 34.5344C8.10572 36.5594 8.07062 38.4156 8.04429 39.7657C8.03113 40.4406 8.02016 40.989 8.01249 41.3685L8.00044 41.9583C7.97747 43.0626 8.85408 43.9766 9.95841 43.9996C11.0627 44.0226 11.9766 43.1458 11.9996 42.0415L12.0117 41.4494C12.0194 41.069 12.0304 40.5197 12.0435 39.8436C12.0699 38.4916 12.1051 36.6323 12.1402 34.6037C12.1516 33.9443 12.1631 33.2663 12.1742 32.5817C14.4206 30.422 17.5219 30.2934 20.3782 30.175C20.6044 30.1656 20.8291 30.1563 21.0517 30.146C21.2487 30.137 21.4486 30.1283 21.6513 30.1195C24.2651 30.0059 27.3282 29.8728 30.3429 28.6468C33.6958 27.2832 36.8189 24.6622 39.5945 19.7811C40.2151 18.6897 40.0736 17.4766 39.5091 16.5886C38.9581 15.722 37.9963 15.1291 36.8872 15.0705C33.2469 14.8782 30.7481 14.1219 28.8254 13.1564C26.8756 12.1773 25.4254 10.9425 23.8375 9.5799L23.7713 9.52307C22.2847 8.24721 20.6357 6.83185 18.4787 5.7722C16.2467 4.67568 13.5686 4 10 4ZM12.2448 27.7274C15.0903 26.3397 18.1463 26.2411 20.1316 26.1771C20.3971 26.1685 20.6435 26.1606 20.8676 26.1503L21.3411 26.1288C24.0785 26.0055 26.4863 25.8971 28.8361 24.9415C30.985 24.0676 33.2224 22.4122 35.4129 18.975C31.9156 18.6593 29.2416 17.8413 27.0304 16.731C24.6144 15.5178 22.8381 13.9933 21.2845 12.66L21.2325 12.6154C19.6863 11.2884 18.3821 10.1814 16.7149 9.36235C15.4882 8.75971 14.0105 8.29027 12.0569 8.09658C12.1467 12.031 12.281 18.5991 12.281 23.0808C12.281 24.3041 12.2668 25.9349 12.2448 27.7274Z" fill="#646464"/>
</svg>
