<svg width="48" height="48" viewBox="0 0 48 48" fill="none" xmlns="http://www.w3.org/2000/svg">
<path fill-rule="evenodd" clip-rule="evenodd" d="M8.0128 5.99992C8.01284 4.89538 8.92097 4 10.0412 4C11.3198 4 12.3105 4.29516 13.225 4.67677C13.5937 4.83064 13.9698 5.00742 14.323 5.17348C14.3791 5.19983 14.4346 5.22591 14.4894 5.25158C14.9053 5.44652 15.3296 5.64165 15.8123 5.83732L15.8123 5.83733C18.1275 6.77599 20.3624 7.6817 24.341 7.6817C27.203 7.6817 31.9149 6.86409 34.176 6.2683L34.176 6.2683C36.4614 5.66614 39.1775 6.9041 39.5371 9.65669C39.774 11.469 40 14.3102 40 18.5601C40 23.5393 39.6897 26.5859 39.4149 28.3104L39.4149 28.3105C39.1343 30.0712 37.9398 31.4861 36.2955 32.1231C36.2955 32.1232 36.2954 32.1232 36.2954 32.1232C34.1261 32.9637 29.0344 34.1811 24.341 34.1811C19.6824 34.1811 16.9405 33.4139 14.4863 32.726C13.7091 32.5082 12.9864 32.3065 12.245 32.1371V41.9999C12.245 43.1045 11.3368 43.9999 10.2166 43.9999C9.09632 43.9999 8.18819 43.1045 8.18819 41.9999V29.7654C8.18819 29.7632 8.18819 29.7611 8.1882 29.759C8.1882 29.7568 8.18821 29.7546 8.18823 29.7524C8.1994 28.0547 8.20611 26.1433 8.20611 23.9999C8.20611 14.928 8.08632 10.013 8.01389 7.87048C7.99405 7.28368 7.99948 6.98883 8.00575 6.648C8.00914 6.46337 8.01279 6.26525 8.0128 5.99992ZM12.2543 28.0502C13.4649 28.2813 14.5311 28.5801 15.5526 28.8664L15.6024 28.8804C17.9247 29.5313 20.2434 30.1811 24.341 30.1811C28.4982 30.1811 33.088 29.0682 34.8118 28.4003L34.812 28.4002C35.1546 28.2675 35.3565 28.0083 35.4073 27.6896C35.6422 26.2155 35.9432 23.3825 35.9432 18.5601C35.9432 14.4457 35.7242 11.7789 35.5136 10.1679L35.5136 10.1678C35.5122 10.1572 35.5106 10.1498 35.5093 10.145C35.5085 10.1445 35.5077 10.1439 35.5067 10.1434C35.4818 10.1288 35.3851 10.0901 35.2233 10.1327C32.7569 10.7826 27.6744 11.6817 24.341 11.6817C19.5599 11.6817 16.7339 10.5359 14.2706 9.53722L14.2696 9.53681C14.2695 9.53681 14.2695 9.5368 14.2695 9.5368C13.6836 9.29924 13.1802 9.06689 12.7479 8.86427C12.6858 8.83516 12.6259 8.80704 12.5679 8.77983C12.3953 8.69874 12.2399 8.62578 12.0942 8.55896C12.1675 11.0689 12.2629 15.8907 12.2629 23.9999C12.2629 25.4538 12.2598 26.8021 12.2543 28.0502ZM35.5067 10.1374C35.5067 10.1374 35.507 10.1379 35.5074 10.139C35.5069 10.138 35.5067 10.1374 35.5067 10.1374Z" fill="#646464"/>
</svg>
