<svg width="48" height="48" viewBox="0 0 48 48" fill="none" xmlns="http://www.w3.org/2000/svg">
<path d="M35 22.8984C35 16.9005 30.0959 12 24 12C17.9041 12 13 16.9005 13 22.8984V23.36C13.1372 23.339 13.2746 23.319 13.4121 23.3002L13.8184 23.265C15.8331 23.1798 17.6285 24.5237 17.9336 26.6517L18.0703 27.7689C18.1959 29.0025 18.2852 30.5966 18.2852 32.6342C18.2851 34.6709 18.1958 36.2641 18.0703 37.4974L17.9336 38.6146C17.6288 40.743 15.8334 42.0885 13.8184 42.0033L13.4121 41.9662C11.7496 41.7387 10.1009 41.3418 8.7793 40.9701L7.57812 40.6146C6.19478 40.1834 5.03636 39.1275 4.59766 37.6693L4.51953 37.3724C4.26018 36.2211 4.00004 34.5809 4 32.6342C4 30.6874 4.2602 29.0473 4.51953 27.8959L4.59766 27.599C4.97344 26.3489 5.87809 25.395 7 24.8763V22.8984C7 13.5454 14.6319 6 24 6C33.3681 6 41 13.5454 41 22.8984V24.8756C42.2091 25.4347 43.166 26.5002 43.4805 27.8959L43.6719 28.847C43.8546 29.8854 44 31.1737 44 32.6342C44 34.094 43.8545 35.3813 43.6719 36.4193L43.4805 37.3724C43.14 38.8832 42.0464 40.0055 40.6953 40.5189L40.4219 40.6146C39.175 41.003 37.3399 41.5142 35.416 41.8392L34.5879 41.9662C32.5495 42.2451 30.6448 41.0514 30.1465 39.0306L30.0664 38.6146C29.8749 37.2774 29.7149 35.3504 29.7148 32.6342C29.7148 29.9175 29.8749 27.9891 30.0664 26.6517L30.1465 26.2377C30.6444 24.2164 32.5491 23.0212 34.5879 23.3002L35.002 23.3636L35 22.8984Z" fill="#646464"/>
</svg>
