<svg width="48" height="48" viewBox="0 0 48 48" fill="none" xmlns="http://www.w3.org/2000/svg">
<path fill-rule="evenodd" clip-rule="evenodd" d="M23.7623 7.15192L24.9007 8.85961C24.9745 8.97029 25.0443 9.07997 25.1038 9.17396C25.1138 9.18982 25.1235 9.20518 25.133 9.22011C25.183 9.29915 25.2256 9.3664 25.2691 9.43342C25.3111 9.49795 25.3468 9.5509 25.3775 9.59461C27.3808 9.60287 29.2479 9.57281 30.9538 9.54535C31.3688 9.53867 31.7741 9.53215 32.1696 9.52636C34.2543 9.49588 36.1202 9.48435 37.5596 9.59895C40.7495 9.85291 43.2835 12.3057 43.5922 15.5137C43.8008 17.681 44 20.6254 44 23.9712C44 30.0189 43.7834 32.6116 43.5678 35.1927C43.5523 35.3786 43.5367 35.5645 43.5213 35.7517C43.2666 38.8365 40.9106 41.2585 37.7877 41.517C35.0624 41.7427 30.6602 41.9711 24 41.9711C17.3398 41.9711 12.9376 41.7427 10.2123 41.517C7.08941 41.2585 4.73341 38.8366 4.47876 35.7517C4.46335 35.5651 4.44785 35.3796 4.43235 35.1941C4.21663 32.6125 4 30.02 4 23.9712C4 17.6093 4.23902 13.1403 4.46853 10.3154C4.72544 7.1535 7.16867 4.69421 10.3238 4.40755C12.1932 4.23771 14.7097 4.06894 17.7728 4.00167C20.1992 3.94839 22.4419 5.17141 23.7623 7.15192ZM25.5093 9.76215L25.5075 9.76043L25.5093 9.76215Z" fill="#646464"/>
</svg>
