<svg width="48" height="48" viewBox="0 0 48 48" fill="none" xmlns="http://www.w3.org/2000/svg">
<path d="M17.66 45.9982C17.12 45.9982 16.58 45.8782 16.06 45.6382C14.68 45.0182 13.84 43.6782 13.84 42.1582V38.3382C12.14 38.2782 10.74 38.1982 9.58 38.1182C6.3 37.8982 3.7 35.3782 3.4 32.1382L3.32 31.1782C3.14 29.3382 3 27.7582 3 23.6382C3 19.5182 3.14 16.0382 3.42 12.9582C3.72 9.69824 6.32 7.17824 9.6 6.97824C11.16 6.87824 13.22 6.77824 15.8 6.69824C16.9 6.65824 17.82 7.53824 17.86 8.63824C17.9 9.73824 17.02 10.6582 15.92 10.6982C13.4 10.7782 11.38 10.8782 9.86 10.9782C8.54 11.0582 7.52 12.0382 7.4 13.3382C7.14 16.2982 7 19.7582 7 23.6582C7 27.5582 7.14 29.0182 7.32 30.8182L7.42 31.7982C7.54 33.0982 8.54 34.0582 9.88 34.1582C11.4 34.2582 13.42 34.3582 15.94 34.4382C17.02 34.4782 17.88 35.3582 17.88 36.4382V41.6382L23.14 35.2782C23.52 34.8182 24.08 34.5582 24.68 34.5582C31.1 34.5582 35.56 34.3382 38.16 34.1782C39.48 34.0982 40.5 33.1182 40.62 31.8182L40.72 30.8582C40.9 29.0582 41.04 27.6182 41.04 23.6782C41.04 19.7382 40.9 16.2982 40.64 13.3582C40.52 12.0582 39.52 11.0982 38.18 10.9982C36.36 10.8782 33.42 10.7382 29.34 10.6582C29.96 11.0382 30.42 11.3182 30.74 11.4782C31.72 11.9982 32.08 13.2182 31.54 14.1982C31.02 15.1782 29.8 15.5382 28.82 14.9982C28.2 14.6582 27.16 14.0582 25.64 13.0182C24.56 12.2782 23.68 11.5782 23.02 10.9382C22.38 10.3182 22.02 9.47824 22.02 8.61824C22.02 7.75824 22.38 6.93824 23.02 6.29824C23.66 5.65824 24.54 4.95824 25.64 4.21824C26.84 3.39824 27.92 2.73824 28.82 2.23824C29.8 1.71824 31 2.07824 31.54 3.03824C32.06 4.01824 31.7 5.21824 30.74 5.75824C30.4 5.93824 29.92 6.21824 29.26 6.63824C32.68 6.69824 35.78 6.81824 38.44 6.97824C41.72 7.19824 44.32 9.69824 44.62 12.9582C44.9 16.0182 45.04 19.5982 45.04 23.6382C45.04 27.6782 44.88 29.3782 44.7 31.2182L44.62 32.1582C44.32 35.4182 41.72 37.9382 38.44 38.1382C35.9 38.2982 31.66 38.4982 25.64 38.5182L20.42 44.8182C20.42 44.8182 20.28 44.9782 20.18 45.0582C19.46 45.6782 18.6 45.9982 17.7 45.9982H17.66Z" fill="#646464"/>
</svg>
