<svg width="48" height="48" viewBox="0 0 48 48" fill="none" xmlns="http://www.w3.org/2000/svg">
<path d="M37.6172 42.4219C32.7422 42.4219 29.2031 39.4219 29.2031 34.7578V34.7109C29.2031 30.1406 32.6953 27.4688 38.9297 27.0938L45.5156 26.6953V24.4922C45.5156 21.9375 43.8516 20.5312 40.7109 20.5312C38.0391 20.5312 36.3047 21.4922 35.7188 23.1797L35.6953 23.2734H30.1875L30.2109 23.0625C30.7734 18.75 34.8984 15.8906 40.9922 15.8906C47.5781 15.8906 51.2812 19.0781 51.2812 24.4922V42H45.5156V38.4844H45.1172C43.7109 40.9688 40.9922 42.4219 37.6172 42.4219ZM34.9688 34.4766C34.9688 36.6562 36.8203 37.9453 39.3984 37.9453C42.9141 37.9453 45.5156 35.6484 45.5156 32.6016V30.5391L39.75 30.9141C36.4922 31.125 34.9688 32.3203 34.9688 34.4297V34.4766Z" fill="#646464"/>
<path d="M-5.0625 42L6.9375 8.17969H13.7578L25.7578 42H19.4297L16.5938 33.2578H4.07812L1.26562 42H-5.0625ZM10.1484 14.4609L5.60156 28.5938H15.0938L10.5469 14.4609H10.1484Z" fill="#646464"/>
</svg>
