<svg width="48" height="48" viewBox="0 0 48 48" fill="none" xmlns="http://www.w3.org/2000/svg">
<path fill-rule="evenodd" clip-rule="evenodd" d="M30.5 6C30.5 5.17157 31.1716 4.5 32 4.5H56C56.8284 4.5 57.5 5.17157 57.5 6C57.5 6.82843 56.8284 7.5 56 7.5H32C31.1716 7.5 30.5 6.82843 30.5 6ZM30.5 18C30.5 17.1716 31.1716 16.5 32 16.5H56C56.8284 16.5 57.5 17.1716 57.5 18C57.5 18.8284 56.8284 19.5 56 19.5H32C31.1716 19.5 30.5 18.8284 30.5 18ZM30.5 30C30.5 29.1716 31.1716 28.5 32 28.5H56C56.8284 28.5 57.5 29.1716 57.5 30C57.5 30.8284 56.8284 31.5 56 31.5H32C31.1716 31.5 30.5 30.8284 30.5 30ZM-9.5 42C-9.5 41.1716 -8.82843 40.5 -8 40.5H56C56.8284 40.5 57.5 41.1716 57.5 42C57.5 42.8284 56.8284 43.5 56 43.5H-8C-8.82843 43.5 -9.5 42.8284 -9.5 42Z" fill="#646464"/>
<path d="M14.8086 32.2109C12.3711 32.2109 10.6016 30.7109 10.6016 28.3789V28.3555C10.6016 26.0703 12.3477 24.7344 15.4648 24.5469L18.7578 24.3477V23.2461C18.7578 21.9688 17.9258 21.2656 16.3555 21.2656C15.0195 21.2656 14.1523 21.7461 13.8594 22.5898L13.8477 22.6367H11.0938L11.1055 22.5312C11.3867 20.375 13.4492 18.9453 16.4961 18.9453C19.7891 18.9453 21.6406 20.5391 21.6406 23.2461V32H18.7578V30.2422H18.5586C17.8555 31.4844 16.4961 32.2109 14.8086 32.2109ZM13.4844 28.2383C13.4844 29.3281 14.4102 29.9727 15.6992 29.9727C17.457 29.9727 18.7578 28.8242 18.7578 27.3008V26.2695L15.875 26.457C14.2461 26.5625 13.4844 27.1602 13.4844 28.2148V28.2383Z" fill="#646464"/>
<path d="M-6.53125 32L-0.53125 15.0898H2.87891L8.87891 32H5.71484L4.29688 27.6289H-1.96094L-3.36719 32H-6.53125ZM1.07422 18.2305L-1.19922 25.2969H3.54688L1.27344 18.2305H1.07422Z" fill="#646464"/>
</svg>
