<svg width="48" height="48" viewBox="0 0 48 48" fill="none" xmlns="http://www.w3.org/2000/svg">
<path d="M38.8594 42.7266C31.0312 42.7266 26.6484 36.3984 26.6484 25.0781C26.6484 13.7812 31.0312 7.45312 38.8594 7.45312C46.6641 7.45312 51.0469 13.7812 51.0469 25.0781C51.0469 36.3984 46.6641 42.7266 38.8594 42.7266ZM32.2031 25.0781C32.2031 25.7812 32.2266 26.4609 32.25 27.0938L44.7188 17.9531C43.7109 14.1562 41.7188 12.1875 38.8594 12.1875C34.5234 12.1875 32.2031 16.6875 32.2031 25.0781ZM38.8594 37.9922C43.1719 37.9922 45.4922 33.4922 45.4922 25.0781C45.4922 24.3984 45.4688 23.7188 45.4453 23.0859L33 32.25C34.0078 36.0234 35.9766 37.9922 38.8594 37.9922Z" fill="#646464"/>
<path d="M9.1875 42.7266C1.35938 42.7266 -3.02344 36.3984 -3.02344 25.0781C-3.02344 13.7812 1.35938 7.45312 9.1875 7.45312C16.9922 7.45312 21.375 13.7812 21.375 25.0781C21.375 36.3984 16.9922 42.7266 9.1875 42.7266ZM2.53125 25.0781C2.53125 25.7812 2.55469 26.4609 2.57812 27.0938L15.0469 17.9531C14.0391 14.1562 12.0469 12.1875 9.1875 12.1875C4.85156 12.1875 2.53125 16.6875 2.53125 25.0781ZM9.1875 37.9922C13.5 37.9922 15.8203 33.4922 15.8203 25.0781C15.8203 24.3984 15.7969 23.7188 15.7734 23.0859L3.32812 32.25C4.33594 36.0234 6.30469 37.9922 9.1875 37.9922Z" fill="#646464"/>
</svg>
