<svg width="48" height="48" viewBox="0 0 48 48" fill="none" xmlns="http://www.w3.org/2000/svg">
<path d="M36.0469 42.4688C34.2891 42.4688 33.1406 41.3203 33.1406 39.3984V19.6172C33.1406 17.7891 34.2656 16.6641 35.9297 16.6641C37.5469 16.6641 38.6953 17.7891 38.6953 19.6172V21.5156H38.8125C39.4922 18.6094 41.6484 16.7344 44.1328 16.7344C45.0469 16.7344 45.75 16.9688 46.1953 17.3672C46.7344 17.8125 47.0156 18.5156 47.0156 19.4766C47.0156 20.3906 46.7344 21.0703 46.1484 21.5391C45.5859 22.0312 44.7188 22.2891 43.5703 22.3125C40.2422 22.3359 38.9766 24.4219 38.9766 27.4453V39.3984C38.9766 41.3203 37.8047 42.4688 36.0469 42.4688Z" fill="#646464"/>
<path d="M6.75 42.4688C4.875 42.4688 3.72656 41.2969 3.72656 39.3281V11.3203C3.72656 9.35156 4.875 8.17969 6.75 8.17969H17.1562C24.4688 8.17969 28.8516 12.2344 28.8516 18.7031C28.8516 23.1094 26.6016 26.7188 22.6875 28.2422L28.0312 37.6172C28.5469 38.4844 28.6875 39 28.6875 39.7031C28.6875 41.2969 27.375 42.4688 25.6406 42.4688C24.2109 42.4688 23.5078 41.9531 22.5703 40.2891L16.5469 29.2734H9.77344V39.3281C9.77344 41.2969 8.625 42.4688 6.75 42.4688ZM9.77344 24.6328H16.5938C20.4375 24.6328 22.6641 22.5 22.6641 18.8438C22.6641 15.2812 20.2969 13.0781 16.4766 13.0781H9.77344V24.6328Z" fill="#646464"/>
</svg>
