<svg width="48" height="48" viewBox="0 0 48 48" fill="none" xmlns="http://www.w3.org/2000/svg">
<path fill-rule="evenodd" clip-rule="evenodd" d="M38.5 6C38.5 5.17157 39.1716 4.5 40 4.5H56C56.8284 4.5 57.5 5.17157 57.5 6C57.5 6.82843 56.8284 7.5 56 7.5H40C39.1716 7.5 38.5 6.82843 38.5 6ZM38.5 18C38.5 17.1716 39.1716 16.5 40 16.5H56C56.8284 16.5 57.5 17.1716 57.5 18C57.5 18.8284 56.8284 19.5 56 19.5H40C39.1716 19.5 38.5 18.8284 38.5 18ZM38.5 30C38.5 29.1716 39.1716 28.5 40 28.5H56C56.8284 28.5 57.5 29.1716 57.5 30C57.5 30.8284 56.8284 31.5 56 31.5H40C39.1716 31.5 38.5 30.8284 38.5 30ZM-9.5 42C-9.5 41.1716 -8.82843 40.5 -8 40.5H56C56.8284 40.5 57.5 41.1716 57.5 42C57.5 42.8284 56.8284 43.5 56 43.5H-8C-8.82843 43.5 -9.5 42.8284 -9.5 42Z" fill="#646464"/>
<path d="M21.5625 32.2812C18.3125 32.2812 15.9531 30.2812 15.9531 27.1719V27.1406C15.9531 24.0938 18.2812 22.3125 22.4375 22.0625L26.8281 21.7969V20.3281C26.8281 18.625 25.7188 17.6875 23.625 17.6875C21.8438 17.6875 20.6875 18.3281 20.2969 19.4531L20.2812 19.5156H16.6094L16.625 19.375C17 16.5 19.75 14.5938 23.8125 14.5938C28.2031 14.5938 30.6719 16.7188 30.6719 20.3281V32H26.8281V29.6562H26.5625C25.625 31.3125 23.8125 32.2812 21.5625 32.2812ZM19.7969 26.9844C19.7969 28.4375 21.0312 29.2969 22.75 29.2969C25.0938 29.2969 26.8281 27.7656 26.8281 25.7344V24.3594L22.9844 24.6094C20.8125 24.75 19.7969 25.5469 19.7969 26.9531V26.9844Z" fill="#646464"/>
<path d="M-6.89062 32L1.10938 9.45312H5.65625L13.6562 32H9.4375L7.54688 26.1719H-0.796875L-2.67188 32H-6.89062ZM3.25 13.6406L0.21875 23.0625H6.54688L3.51562 13.6406H3.25Z" fill="#646464"/>
</svg>
