<svg width="48" height="48" viewBox="0 0 48 48" fill="none" xmlns="http://www.w3.org/2000/svg">
<path d="M27.1816 8.38291C28.5406 7.71623 30.0998 7.94663 31.3281 8.85557C32.7152 9.88203 34.6066 11.3844 37.0625 13.5392C40.2425 16.3293 42.0491 18.4387 43.0684 19.8731C43.7356 20.8122 43.9999 21.9548 44 22.9786C44 24.0027 43.7358 25.1467 43.0684 26.086C42.0491 27.5202 40.2422 29.6297 37.0625 32.42C34.606 34.5759 32.7134 36.0772 31.3262 37.1036C30.0979 38.0124 28.5405 38.243 27.1816 37.5763C25.8414 36.9187 25.0621 35.5712 24.9473 34.0782C24.8987 33.4465 24.8745 32.1325 24.8613 30.8673C22.0077 30.8282 19.4576 30.7933 16.8828 31.5255C13.903 32.3729 10.8019 34.3167 7.67383 39.0958C7.18944 39.8358 6.27529 40.1688 5.42773 39.9161C4.58063 39.6631 4 38.8843 4 38.0001C4 29.6205 6.39631 23.896 10.752 20.3399C14.5541 17.236 19.5451 16.0451 24.8633 15.8204C24.8652 15.624 24.8668 15.4208 24.8691 15.2149C24.8835 13.9304 24.9069 12.4055 24.9473 11.881C25.0622 10.3879 25.8413 9.04046 27.1816 8.38291ZM28.9355 12.1876C28.9081 12.5448 28.8844 13.8932 28.8691 15.2599C28.8618 15.9191 28.8569 16.5518 28.8535 17.0196C28.8518 17.2533 28.8504 17.4463 28.8496 17.5802C28.8492 17.6468 28.8479 17.6991 28.8477 17.7345V17.7892C28.8415 18.8893 27.9479 19.7774 26.8477 19.7774C21.1449 19.7775 16.4945 20.8146 13.2812 23.4376C11.1279 25.1956 9.43673 27.821 8.5918 31.7696C10.9093 29.6403 13.3143 28.3816 15.7891 27.6778C19.6437 26.5818 23.5948 26.8888 26.8477 26.8888C27.9522 26.8888 28.8475 27.7843 28.8477 28.8888C28.8477 30.4726 28.8738 32.968 28.9355 33.7716C28.9389 33.815 28.9469 33.8517 28.9531 33.8829C30.2398 32.9306 32.0455 31.5031 34.4258 29.4142C37.4249 26.7823 39.0057 24.8975 39.8086 23.7677C39.8896 23.6534 40 23.3747 40 22.9786C39.9999 22.5823 39.8895 22.3035 39.8086 22.1896C39.0057 21.0596 37.4245 19.1762 34.4258 16.545C32.0449 14.456 30.2399 13.0267 28.9531 12.0743C28.9467 12.106 28.939 12.1432 28.9355 12.1876Z" fill="#646464"/>
</svg>
