<svg width="48" height="48" viewBox="0 0 48 48" fill="none" xmlns="http://www.w3.org/2000/svg">
<path fill-rule="evenodd" clip-rule="evenodd" d="M19.9654 4.0339C21.215 4.01226 22.559 4 24 4C25.441 4 26.7849 4.01226 28.0346 4.0339C29.139 4.05302 30.0188 4.96382 29.9996 6.06823C29.9805 7.17263 29.0697 8.05242 27.9653 8.0333C26.7391 8.01207 25.4183 8 24 8C22.5816 8 21.2608 8.01207 20.0346 8.0333C18.9302 8.05242 18.0194 7.17263 18.0003 6.06823C17.9812 4.96382 18.861 4.05302 19.9654 4.0339ZM13.9955 6.21778C14.0694 7.31987 13.2359 8.2732 12.1338 8.34709C11.6002 8.38286 11.112 8.41933 10.6681 8.4554C9.45459 8.55399 8.554 9.45459 8.45541 10.6681C8.41934 11.112 8.38287 11.6002 8.34709 12.1338C8.2732 13.2359 7.31988 14.0694 6.21779 13.9955C5.11569 13.9216 4.28217 12.9683 4.35605 11.8662C4.39308 11.314 4.43094 10.807 4.46854 10.3442C4.72585 7.17719 7.1772 4.72584 10.3442 4.46853C10.807 4.43093 11.314 4.39307 11.8662 4.35605C12.9683 4.28216 13.9216 5.11568 13.9955 6.21778ZM34.0044 6.21778C34.0782 5.11568 35.0316 4.28216 36.1337 4.35605C36.6859 4.39307 37.1929 4.43093 37.6558 4.46854C40.8228 4.72585 43.2741 7.1772 43.5314 10.3442C43.569 10.807 43.6069 11.314 43.6439 11.8662C43.7178 12.9683 42.8843 13.9216 41.7822 13.9955C40.6801 14.0694 39.7268 13.2359 39.6529 12.1338C39.6171 11.6002 39.5806 11.112 39.5446 10.6681C39.446 9.45459 38.5454 8.554 37.3319 8.45541C36.888 8.41934 36.3998 8.38287 35.8661 8.34709C34.764 8.2732 33.9305 7.31988 34.0044 6.21778ZM41.9318 18.0004C43.0362 17.9812 43.947 18.861 43.9661 19.9654C43.9877 21.2151 44 22.559 44 24C44 25.441 43.9877 26.785 43.9661 28.0346C43.947 29.139 43.0362 30.0188 41.9318 29.9997C40.8274 29.9806 39.9476 29.0698 39.9667 27.9654C39.9879 26.7392 40 25.4184 40 24C40 22.5817 39.9879 21.2609 39.9667 20.0347C39.9476 18.9303 40.8274 18.0195 41.9318 18.0004ZM6.06823 18.0004C7.17263 18.0195 8.05242 18.9303 8.0333 20.0347C8.01207 21.2609 8 22.5817 8 24C8 25.4184 8.01207 26.7392 8.0333 27.9654C8.05242 29.0698 7.17263 29.9806 6.06823 29.9997C4.96382 30.0188 4.05302 29.139 4.0339 28.0346C4.01226 26.785 4 25.441 4 24C4 22.559 4.01226 21.2151 4.0339 19.9654C4.05302 18.861 4.96382 17.9812 6.06823 18.0004ZM6.21778 34.0045C7.31987 33.9306 8.2732 34.7641 8.34709 35.8662C8.38286 36.3998 8.41933 36.888 8.4554 37.3319C8.55399 38.5454 9.45458 39.446 10.6681 39.5446C11.112 39.5806 11.6002 39.6171 12.1338 39.6529C13.2359 39.7268 14.0694 40.6801 13.9955 41.7822C13.9216 42.8843 12.9683 43.7178 11.8662 43.6439C11.314 43.6069 10.807 43.569 10.3442 43.5314C7.17719 43.2741 4.72584 40.8228 4.46853 37.6558C4.43093 37.1929 4.39307 36.686 4.35605 36.1338C4.28216 35.0317 5.11568 34.0784 6.21778 34.0045ZM41.7822 34.0045C42.8843 34.0784 43.7178 35.0317 43.6439 36.1338C43.6069 36.686 43.569 37.1929 43.5314 37.6558C43.2741 40.8228 40.8228 43.2741 37.6558 43.5314C37.193 43.569 36.686 43.6069 36.1338 43.6439C35.0317 43.7178 34.0784 42.8843 34.0045 41.7822C33.9306 40.6801 34.7641 39.7268 35.8662 39.6529C36.3998 39.6171 36.888 39.5806 37.3319 39.5446C38.5454 39.446 39.446 38.5454 39.5446 37.3319C39.5806 36.888 39.6171 36.3998 39.6529 35.8662C39.7268 34.7641 40.6801 33.9306 41.7822 34.0045ZM18.0004 41.9318C18.0195 40.8274 18.9303 39.9476 20.0347 39.9667C21.2609 39.9879 22.5817 40 24 40C25.4184 40 26.7392 39.9879 27.9654 39.9667C29.0698 39.9476 29.9806 40.8274 29.9997 41.9318C30.0188 43.0362 29.139 43.947 28.0346 43.9661C26.785 43.9877 25.441 44 24 44C22.559 44 21.2151 43.9877 19.9654 43.9661C18.861 43.947 17.9812 43.0362 18.0004 41.9318Z" fill="#646464"/>
</svg>
