<svg width="48" height="48" viewBox="0 0 48 48" fill="none" xmlns="http://www.w3.org/2000/svg">
<path fill-rule="evenodd" clip-rule="evenodd" d="M40 38C40 39.1046 39.1046 40 38 40H30C28.8954 40 28 39.1046 28 38C28 36.8954 28.8954 36 30 36H33.1716L26.5858 29.4142C25.8047 28.6332 25.8047 27.3668 26.5858 26.5858C27.3668 25.8047 28.6332 25.8047 29.4142 26.5858L36 33.1716V30C36 28.8954 36.8954 28 38 28C39.1046 28 40 28.8954 40 30V38ZM18 40H10C8.89543 40 8 39.1046 8 38V30C8 28.8954 8.89543 28 10 28C11.1046 28 12 28.8954 12 30V33.1716L18.5858 26.5858C19.3668 25.8047 20.6332 25.8047 21.4142 26.5858C22.1953 27.3668 22.1953 28.6332 21.4142 29.4142L14.8284 36H18C19.1046 36 20 36.8954 20 38C20 39.1046 19.1046 40 18 40ZM21.4142 21.4142C20.6332 22.1953 19.3668 22.1953 18.5858 21.4142L12 14.8285V18C12 19.1046 11.1046 20 10 20C8.89543 20 8 19.1046 8 18V10.0001C8 8.89555 8.89543 8.00012 10 8.00012H18C19.1046 8.00012 20 8.89555 20 10.0001C20 11.1047 19.1046 12.0001 18 12.0001H14.8285L21.4142 18.5858C22.1953 19.3668 22.1953 20.6332 21.4142 21.4142ZM26.5858 21.4142C25.8047 20.6332 25.8047 19.3668 26.5858 18.5858L33.1716 12H30C28.8954 12 28 11.1046 28 10C28 8.89543 28.8954 8 30 8H38C39.1046 8 40 8.89543 40 10V18C40 19.1046 39.1046 20 38 20C36.8954 20 36 19.1046 36 18V14.8284L29.4142 21.4142C28.6332 22.1953 27.3668 22.1953 26.5858 21.4142Z" fill="#646464"/>
</svg>
