<svg width="48" height="48" viewBox="0 0 48 48" fill="none" xmlns="http://www.w3.org/2000/svg">
<path d="M4.03505 27.3538C5.13888 27.3133 6.06656 28.1753 6.10708 29.2791C6.18244 31.3319 6.29739 33.3362 6.45158 35.2443C6.52328 36.1316 7.22081 36.8291 8.10814 36.9008C10.0162 37.0549 17.0823 37.1699 19.1351 37.2452C20.2389 37.2857 21.1009 38.2134 21.0604 39.3172C21.0199 40.4211 20.0922 41.283 18.9884 41.2425C16.8829 41.1653 9.75801 41.0471 7.78603 40.8878C4.94383 40.6582 2.69425 38.4087 2.46458 35.5665C2.30522 33.5944 2.18706 31.5314 2.10977 29.4258C2.06925 28.322 2.93123 27.3943 4.03505 27.3538Z" fill="#646464"/>
<path d="M43.9649 20.6329C42.8611 20.6734 41.9334 19.8114 41.8929 18.7076C41.8176 16.6547 41.7026 14.6505 41.5484 12.7424C41.4767 11.8551 40.7792 11.1576 39.8919 11.0859C37.9838 10.9317 30.9177 10.8168 28.8649 10.7415C27.7611 10.701 26.8991 9.7733 26.9396 8.66947C26.9801 7.56564 27.9078 6.70366 29.0116 6.74417C31.1171 6.82144 38.242 6.93957 40.214 7.09888C43.0562 7.3285 45.3057 9.57802 45.5354 12.4202C45.6948 14.3923 45.8129 16.4553 45.8902 18.5609C45.9307 19.6647 45.0688 20.5924 43.9649 20.6329Z" fill="#646464"/>
<path d="M4.03505 20.6329C5.13888 20.6734 6.06656 19.8114 6.10708 18.7076C6.18244 16.6547 6.29739 14.6505 6.45158 12.7424C6.52328 11.8551 7.22081 11.1576 8.10814 11.0859C10.0162 10.9317 17.0823 10.8168 19.1351 10.7415C20.2389 10.701 21.1009 9.7733 21.0604 8.66947C21.0199 7.56564 20.0922 6.70366 18.9884 6.74417C16.8829 6.82144 9.75801 6.93957 7.78603 7.09888C4.94383 7.3285 2.69425 9.57802 2.46458 12.4202C2.30522 14.3923 2.18706 16.4553 2.10977 18.5609C2.06925 19.6647 2.93123 20.5924 4.03505 20.6329Z" fill="#646464"/>
<path d="M43.9649 27.3538C42.8611 27.3133 41.9334 28.1753 41.8929 29.2791C41.8176 31.3319 41.7026 33.3362 41.5484 35.2443C41.4767 36.1316 40.7792 36.8291 39.8919 36.9008C37.9838 37.0549 30.9177 37.1699 28.8649 37.2452C27.7611 37.2857 26.8991 38.2134 26.9396 39.3172C26.9801 40.421 27.9078 41.283 29.0116 41.2425C31.1171 41.1653 38.242 41.0471 40.214 40.8878C43.0562 40.6582 45.3057 38.4087 45.5354 35.5665C45.6948 33.5944 45.8129 31.5314 45.8902 29.4258C45.9308 28.322 45.0688 27.3943 43.9649 27.3538Z" fill="#646464"/>
</svg>
