<svg width="48" height="48" viewBox="0 0 48 48" fill="none" xmlns="http://www.w3.org/2000/svg">
<path fill-rule="evenodd" clip-rule="evenodd" d="M14 6C11.7909 6 10 7.79086 10 10V29.0703C11.1767 28.3896 12.5429 28 14 28H38V6H14ZM38 32V40H32C30.8954 40 30 40.8954 30 42C30 43.1046 30.8954 44 32 44H38C40.2091 44 42 42.2091 42 40V6C42 3.79086 40.2091 2 38 2H14C9.58172 2 6 5.58172 6 10V36C6 38.3695 7.0327 40.5005 8.66617 41.9625C9.48923 42.6991 10.7536 42.6291 11.4903 41.806C12.2269 40.983 12.1569 39.7186 11.3338 38.9819C10.5123 38.2467 10 37.1845 10 36C10 33.7909 11.7909 32 14 32H38ZM15 37.0004C15 35.8958 15.8954 35.0004 17 35.0004H25C26.1046 35.0004 27 35.8958 27 37.0004V45.0004C27 45.8093 26.5127 46.5386 25.7654 46.8481C25.018 47.1577 24.1578 46.9866 23.5858 46.4146L21 43.8288L18.4142 46.4146C17.8422 46.9866 16.982 47.1577 16.2346 46.8481C15.4873 46.5386 15 45.8093 15 45.0004V37.0004Z" fill="#646464"/>
</svg>
