<svg width="48" height="48" viewBox="0 0 48 48" fill="none" xmlns="http://www.w3.org/2000/svg">
<path fill-rule="evenodd" clip-rule="evenodd" d="M11 7C9.34315 7 8 8.34315 8 10C8 11.6569 9.34315 13 11 13C12.6569 13 14 11.6569 14 10C14 8.34315 12.6569 7 11 7ZM4 10C4 6.13401 7.13401 3 11 3C14.866 3 18 6.13401 18 10C18 13.171 15.8915 15.8496 13 16.7101V32C13 34.2091 14.7909 36 17 36H20.1716L18.5858 34.4142C17.8047 33.6332 17.8047 32.3668 18.5858 31.5858C19.3668 30.8047 20.6332 30.8047 21.4142 31.5858L26.4142 36.5858C27.1953 37.3668 27.1953 38.6332 26.4142 39.4142L21.4142 44.4142C20.6332 45.1953 19.3668 45.1953 18.5858 44.4142C17.8047 43.6332 17.8047 42.3668 18.5858 41.5858L20.1716 40H17C12.5817 40 9 36.4183 9 32V16.7101C6.10851 15.8496 4 13.171 4 10ZM29.4142 3.58579C30.1953 4.36683 30.1953 5.63317 29.4142 6.41421L27.8284 8H31C35.4183 8 39 11.5817 39 16V31.2899C41.8915 32.1504 44 34.829 44 38C44 41.866 40.866 45 37 45C33.134 45 30 41.866 30 38C30 34.829 32.1085 32.1504 35 31.2899V16C35 13.7909 33.2091 12 31 12H27.8284L29.4142 13.5858C30.1953 14.3668 30.1953 15.6332 29.4142 16.4142C28.6332 17.1953 27.3668 17.1953 26.5858 16.4142L21.5858 11.4142C20.8047 10.6332 20.8047 9.36684 21.5858 8.58579L26.5858 3.58579C27.3668 2.80474 28.6332 2.80474 29.4142 3.58579ZM37 35C35.3431 35 34 36.3431 34 38C34 39.6569 35.3431 41 37 41C38.6569 41 40 39.6569 40 38C40 36.3431 38.6569 35 37 35Z" fill="#646464"/>
</svg>
