<svg width="48" height="48" viewBox="0 0 48 48" fill="none" xmlns="http://www.w3.org/2000/svg">
<path fill-rule="evenodd" clip-rule="evenodd" d="M24 16C19.5817 16 16 19.5817 16 24C16 28.4183 19.5817 32 24 32C28.4183 32 32 28.4183 32 24C32 19.5817 28.4183 16 24 16ZM12.1659 22C13.1181 16.3246 18.054 12 24 12C29.946 12 34.8819 16.3246 35.8341 22H44C45.1046 22 46 22.8954 46 24C46 25.1046 45.1046 26 44 26H35.8341C34.8819 31.6754 29.946 36 24 36C18.054 36 13.1181 31.6754 12.1659 26H4C2.89543 26 2 25.1046 2 24C2 22.8954 2.89543 22 4 22H12.1659Z" fill="#646464"/>
</svg>
