<svg width="48" height="48" viewBox="0 0 48 48" fill="none" xmlns="http://www.w3.org/2000/svg">
<path fill-rule="evenodd" clip-rule="evenodd" d="M13 7C11.3431 7 10 8.34315 10 10C10 11.6569 11.3431 13 13 13C14.6569 13 16 11.6569 16 10C16 8.34315 14.6569 7 13 7ZM6 10C6 6.13401 9.13401 3 13 3C16.866 3 20 6.13401 20 10C20 13.171 17.8915 15.8496 15 16.7101V23.0703C16.1767 22.3896 17.5429 22 19 22H29C31.2091 22 33 20.2091 33 18V16.7101C30.1085 15.8496 28 13.171 28 10C28 6.13401 31.134 3 35 3C38.866 3 42 6.13401 42 10C42 13.171 39.8915 15.8496 37 16.7101V18C37 22.4183 33.4183 26 29 26H19C16.7909 26 15 27.7909 15 30V31.2899C17.8915 32.1504 20 34.829 20 38C20 41.866 16.866 45 13 45C9.13401 45 6 41.866 6 38C6 34.829 8.10851 32.1504 11 31.2899V16.7101C8.10851 15.8496 6 13.171 6 10ZM35 7C33.3431 7 32 8.34315 32 10C32 11.6569 33.3431 13 35 13C36.6569 13 38 11.6569 38 10C38 8.34315 36.6569 7 35 7ZM13 35C11.3431 35 10 36.3431 10 38C10 39.6569 11.3431 41 13 41C14.6569 41 16 39.6569 16 38C16 36.3431 14.6569 35 13 35Z" fill="#646464"/>
</svg>
