<svg width="48" height="48" viewBox="0 0 48 48" fill="none" xmlns="http://www.w3.org/2000/svg">
<path d="M43.3342 19.2484L43.278 19.1047L37.8336 4.89615C37.7229 4.61767 37.5267 4.38144 37.2734 4.22134C37.0199 4.06397 36.7242 3.98817 36.4262 4.00419C36.1282 4.0202 35.8424 4.12726 35.6072 4.3109C35.3746 4.49982 35.2059 4.75581 35.124 5.04403L31.4479 16.2909H16.5625L12.8864 5.04403C12.8067 4.75424 12.6376 4.49696 12.4032 4.30882C12.168 4.12517 11.8822 4.01812 11.5842 4.0021C11.2862 3.98609 10.9905 4.06188 10.737 4.21926C10.4842 4.38 10.2883 4.61603 10.1768 4.89407L4.72204 19.0964L4.66789 19.2401C3.88415 21.2878 3.78742 23.5349 4.39226 25.6425C4.9971 27.75 6.27073 29.6038 8.02112 30.9243L8.03987 30.9389L8.08985 30.9743L16.3834 37.1851L20.4864 40.2905L22.9857 42.1774C23.278 42.3994 23.635 42.5196 24.0021 42.5196C24.3691 42.5196 24.7261 42.3994 25.0185 42.1774L27.5178 40.2905L31.6208 37.1851L39.9643 30.9368L39.9851 30.9201C41.7316 29.5994 43.0023 27.7475 43.6062 25.6428C44.2101 23.5381 44.1147 21.2942 43.3342 19.2484Z" fill="#E24329"/>
<path d="M43.3342 19.2484L43.278 19.1047C40.6251 19.6492 38.1253 20.7729 35.9571 22.3954L24 31.4367C28.0718 34.5171 31.6166 37.1934 31.6166 37.1934L39.9601 30.9451L39.981 30.9285C41.7299 29.6078 43.0026 27.7547 43.6073 25.6482C44.2121 23.5417 44.1162 21.2957 43.3342 19.2484Z" fill="#FC6D26"/>
<path d="M16.3834 37.1934L20.4864 40.2988L22.9857 42.1857C23.2781 42.4077 23.635 42.5279 24.0021 42.5279C24.3692 42.5279 24.7261 42.4077 25.0185 42.1857L27.5178 40.2988L31.6208 37.1934C31.6208 37.1934 28.0718 34.5087 24 31.4367C19.9282 34.5087 16.3834 37.1934 16.3834 37.1934Z" fill="#FCA326"/>
<path d="M12.0408 22.3954C9.87434 20.7695 7.37506 19.6429 4.72204 19.0964L4.66789 19.2401C3.88415 21.2878 3.78742 23.5349 4.39226 25.6425C4.9971 27.75 6.27073 29.6038 8.02112 30.9243L8.03987 30.9389L8.08985 30.9743L16.3834 37.1851C16.3834 37.1851 19.9241 34.5087 24 31.4283L12.0408 22.3954Z" fill="#FC6D26"/>
</svg>
