<svg width="48" height="48" viewBox="0 0 48 48" fill="none" xmlns="http://www.w3.org/2000/svg">
<path d="M7.02406 36.8538L8.78809 39.9231C9.15464 40.5692 9.68156 41.0769 10.3001 41.4462L16.6002 30.4615H4C4 31.1769 4.18328 31.8923 4.54983 32.5385L7.02406 36.8538Z" fill="#0066DA"/>
<path d="M24 17.5385L17.6999 6.55385C17.0813 6.92308 16.5544 7.43077 16.1879 8.07692L4.54983 28.3846C4.19002 29.0168 4.00048 29.7328 4 30.4615H16.6002L24 17.5385Z" fill="#00AC47"/>
<path d="M37.6999 41.4462C38.3184 41.0769 38.8454 40.5692 39.2119 39.9231L39.945 38.6538L43.4502 32.5385C43.8167 31.8923 44 31.1769 44 30.4615H31.3989L34.0802 35.7692L37.6999 41.4462Z" fill="#EA4335"/>
<path d="M24 17.5385L30.3001 6.55385C29.6816 6.18462 28.9714 6 28.2383 6H19.7617C19.0286 6 18.3184 6.20769 17.6999 6.55385L24 17.5385Z" fill="#00832D"/>
<path d="M31.3989 30.4615H16.6002L10.3001 41.4462C10.9187 41.8154 11.6289 42 12.362 42H35.638C36.3711 42 37.0813 41.7923 37.6999 41.4462L31.3989 30.4615Z" fill="#2684FC"/>
<path d="M37.6312 18.2308L31.8121 8.07692C31.4456 7.43077 30.9187 6.92308 30.3001 6.55385L24 17.5385L31.3989 30.4615H43.9771C43.9771 29.7462 43.7938 29.0308 43.4273 28.3846L37.6312 18.2308Z" fill="#FFBA00"/>
</svg>
