<svg width="48" height="48" viewBox="0 0 48 48" fill="none" xmlns="http://www.w3.org/2000/svg">
<path d="M14.5586 42H8C6.89543 42 6 41.1046 6 40V33.4414H14.5586V42Z" fill="#8D8D8D"/>
<path d="M32 42H16V33.4414H32V42Z" fill="#8D8D8D"/>
<path d="M33.4414 42V33.4414H42L33.4414 42Z" fill="#8D8D8D"/>
<path d="M32 14.5586H14.5586V32H6V10C6 7.79086 7.79086 6 10 6H32V14.5586Z" fill="#8D8D8D"/>
<path d="M42 32H33.4414V16H42V32Z" fill="#8D8D8D"/>
<path d="M20.6211 18.4102C21.2863 18.4103 21.8857 18.5388 22.416 18.7969C22.9463 19.055 23.3634 19.4126 23.6641 19.8672C23.9648 20.3242 24.1133 20.836 24.1133 21.4043C24.1133 21.9842 23.9745 22.4745 23.6953 22.877C23.4159 23.2795 23.0714 23.5872 22.6641 23.8027V23.9004C23.1901 24.1173 23.6477 24.4744 23.9863 24.9316C24.3292 25.3931 24.5018 25.9444 24.502 26.5879C24.502 27.232 24.3385 27.8081 24.0117 28.3125C23.685 28.8168 23.233 29.215 22.6602 29.5039C22.0849 29.7927 21.438 29.9393 20.7207 29.9395C19.8894 29.9418 19.1203 29.703 18.4121 29.2246C17.7043 28.7462 17.2148 28.0465 16.9473 27.123L18.5898 26.4473C18.7391 27.0155 19.0013 27.455 19.373 27.7676C19.7423 28.08 20.1914 28.2343 20.7168 28.2344C21.2544 28.2344 21.7175 28.071 22.1035 27.7441C22.4892 27.4174 22.6836 27.0004 22.6836 26.4961C22.6835 25.9801 22.4793 25.5592 22.0723 25.2324C21.6651 24.9057 21.1537 24.7423 20.543 24.7422H19.5918V23.1133H20.4453C20.971 23.1132 21.4135 22.9717 21.7734 22.6875C22.1334 22.4033 22.3145 22.0145 22.3145 21.5195C22.3143 21.0793 22.152 20.7295 21.8301 20.4668C21.508 20.2039 21.1004 20.0703 20.6055 20.0703C20.1226 20.0704 19.7392 20.199 19.4551 20.457C19.1711 20.7158 18.9569 21.0423 18.834 21.4062L17.207 20.7285C17.4226 20.1177 17.8184 19.5778 18.3984 19.1113C18.9787 18.6447 19.7211 18.4102 20.6211 18.4102Z" fill="#8D8D8D"/>
<path d="M30.2812 29.6836H28.5098V21.0684L26.7051 22.373L25.8027 21.0039L29.041 18.668H30.2812V29.6836Z" fill="#8D8D8D"/>
<path d="M40 6C41.1046 6 42 6.89543 42 8V14.5586H33.4414V6H40Z" fill="#8D8D8D"/>
</svg>
