<svg width="48" height="48" viewBox="0 0 48 48" fill="none" xmlns="http://www.w3.org/2000/svg">
<path d="M28.5455 14V4H12.1818C10.675 4 9.45454 5.22045 9.45454 6.72727V41.2727C9.45454 42.7795 10.675 44 12.1818 44H35.8182C37.325 44 38.5455 42.7795 38.5455 41.2727V14H28.5455Z" fill="#34A853"/>
<path d="M28.5455 4L38.5455 14H28.5455V4Z" fill="#188038"/>
<path d="M14.9091 19.4545V32.6363H33.0909V19.4545H14.9091ZM22.8636 30.3636H17.1818V27.1818H22.8636V30.3636ZM22.8636 24.9091H17.1818V21.7273H22.8636V24.9091ZM30.8182 30.3636H25.1364V27.1818H30.8182V30.3636ZM30.8182 24.9091H25.1364V21.7273H30.8182V24.9091Z" fill="white"/>
</svg>
