<svg width="48" height="48" viewBox="0 0 48 48" fill="none" xmlns="http://www.w3.org/2000/svg">
<path d="M24.0004 33.9996C29.5236 33.9996 34.0008 29.5221 34.0008 23.9989C34.0008 18.4758 29.5236 13.9983 24.0004 13.9983C18.4773 13.9983 14 18.4758 14 23.9989C14 29.5221 18.4773 33.9996 24.0004 33.9996Z" fill="white"/>
<path d="M15.3396 29.0016L6.68032 14.0031C4.92451 17.0434 4 20.4922 4 24.0031C4 27.5141 4.92409 30.9629 6.67969 34.0032C8.43528 37.0434 10.9604 39.5681 14.0011 41.3228C17.0417 43.0776 20.4909 44.001 24.0017 44L32.661 29.0016V28.9993C31.7839 30.5203 30.5218 31.7835 29.0016 32.6618C27.4814 33.5401 25.7567 34.0026 24.001 34.0029C22.2454 34.0032 20.5206 33.5411 19.0001 32.6633C17.4797 31.7854 16.2172 30.5226 15.3396 29.002V29.0016Z" fill="#229342"/>
<path d="M32.6604 29.001L24.0013 43.9994C27.512 44 30.9611 43.0759 34.0015 41.3207C37.0419 39.5656 39.5666 37.0406 41.3218 34C43.0769 30.9594 44.0006 27.5104 44 23.9996C43.9994 20.4888 43.0744 17.04 41.3182 14H23.9998L23.9977 14.0015C25.7534 14.0006 27.4783 14.4621 28.9991 15.3394C30.5199 16.2169 31.7827 17.4791 32.6608 18.9995C33.5389 20.5199 34.0011 22.2446 34.0011 24.0003C34.001 25.7561 33.5387 27.4808 32.6606 29.0012L32.6604 29.001Z" fill="#FBC116"/>
<path d="M24.0004 31.9183C28.3729 31.9183 31.9175 28.3738 31.9175 24.0011C31.9175 19.6283 28.3729 16.084 24.0004 16.084C19.6279 16.084 16.0834 19.6286 16.0834 24.0011C16.0834 28.3735 19.6279 31.9183 24.0004 31.9183Z" fill="#1A73E8"/>
<path d="M24.0004 14.0006H41.3189C39.5639 10.96 37.0394 8.43486 33.999 6.67927C30.9586 4.9238 27.5097 3.99973 23.999 4C20.4882 4.00021 17.0394 4.92473 13.9994 6.68074C10.9593 8.43665 8.43504 10.962 6.68053 14.0029L15.3398 29.0014L15.3422 29.0026C14.4636 27.4826 14.0007 25.7579 14.0002 24.0022C13.9996 22.2465 14.4614 20.5216 15.339 19.001C16.2165 17.4803 17.4793 16.2175 18.9997 15.3398C20.5201 14.4621 22.245 14 24.0008 14.0004L24.0004 14.0006Z" fill="#E33B2E"/>
</svg>
