<svg width="48" height="48" viewBox="0 0 48 48" fill="none" xmlns="http://www.w3.org/2000/svg">
<path d="M21.6594 4.13621C24.7995 3.76883 28.0279 4.14559 30.9911 5.25456C33.6658 6.25486 36.1312 7.82924 38.14 9.86137C36.4219 11.5649 34.7194 13.2842 33.0034 14.9898C31.8973 13.9052 30.6083 13.0016 29.1898 12.3742C27.305 11.5295 25.2091 11.1579 23.1491 11.3002C20.8218 11.4502 18.541 12.2587 16.6434 13.6145C14.2888 15.2745 12.5254 17.758 11.7501 20.5339C11.1687 22.5702 11.1206 24.752 11.5898 26.8161C11.9671 28.5042 12.7019 30.1102 13.7232 31.5055C14.6712 32.8033 15.8672 33.9195 17.2278 34.7749C18.7959 35.7654 20.5848 36.4039 22.4262 36.6281C24.0041 36.8262 25.6187 36.7231 27.1596 36.3297C27.3288 36.2483 27.4256 36.441 27.5317 36.5368C29.2682 38.2821 31.0133 40.0189 32.7502 41.7633C29.6254 43.2806 26.1013 43.9736 22.6355 43.729C19.7349 43.5368 16.8782 42.7027 14.3361 41.292C13.2761 40.7123 12.2804 40.021 11.3384 39.2658C10.5941 38.6346 9.85888 37.9868 9.21909 37.2477C8.13601 36.0804 7.2068 34.7711 6.44127 33.3749C6.27078 33.0458 6.073 32.7304 5.93404 32.3861C5.74351 32.0004 5.57728 31.6036 5.4119 31.2068C5.20048 30.6412 4.97457 30.0799 4.82027 29.4956C4.80195 29.4184 4.75506 29.3537 4.71286 29.2889C4.35908 28.0674 4.16088 26.8028 4.05474 25.5366C3.94307 23.9443 3.99805 22.338 4.25849 20.7619C4.77765 17.5449 6.1088 14.4652 8.0887 11.8782C9.37254 10.1947 10.9245 8.71531 12.6691 7.51599C15.3305 5.67863 18.446 4.50317 21.6594 4.13621ZM23.7556 6.28767C23.5127 6.32987 23.2885 6.44793 23.1001 6.60434C22.6568 6.98494 22.4974 7.66175 22.7518 8.19322C23.0217 8.83337 23.8243 9.17774 24.4722 8.91776C25.1299 8.69443 25.5284 7.91576 25.3136 7.25302C25.1388 6.59539 24.4219 6.15385 23.7556 6.28767ZM12.3341 11.0607C12.1069 11.0726 11.8827 11.1425 11.6879 11.2602C11.199 11.5598 10.9258 12.1867 11.0758 12.7459C11.2075 13.346 11.791 13.814 12.4082 13.7948C13.0489 13.8122 13.6477 13.3093 13.7526 12.6794C13.8481 12.2391 13.684 11.7609 13.363 11.4498C13.097 11.18 12.7109 11.0398 12.3341 11.0607ZM7.39137 22.6534C7.10919 22.7058 6.84407 22.8486 6.64374 23.054C6.24094 23.4683 6.14418 24.1438 6.42976 24.6488C6.73495 25.2438 7.51583 25.5379 8.13388 25.2719C8.7741 25.0371 9.15643 24.2738 8.9463 23.6221C8.7741 22.9653 8.05716 22.5157 7.39137 22.6534ZM12.1644 34.2481C11.6747 34.3313 11.2489 34.705 11.1056 35.1807C10.9407 35.6763 11.1001 36.253 11.485 36.6025C11.7471 36.836 12.0988 36.9733 12.4513 36.9571C12.927 36.9464 13.3882 36.6643 13.6073 36.2411C13.8174 35.8647 13.8268 35.3878 13.6375 35.0008C13.3894 34.4561 12.7505 34.1344 12.1644 34.2481ZM23.7608 39.0229C23.2595 39.109 22.8264 39.4947 22.6913 39.9861C22.5264 40.5218 22.7395 41.1475 23.199 41.4688C23.534 41.7156 23.9841 41.7957 24.3827 41.676C24.7923 41.5579 25.1371 41.2395 25.2807 40.8372C25.4926 40.2942 25.2961 39.6302 24.8298 39.2833C24.5306 39.051 24.1329 38.9564 23.7608 39.0229Z" fill="#A0A0A0"/>
<path d="M23.7557 6.28725C24.4219 6.15342 25.1388 6.59497 25.3136 7.25259C25.5284 7.91534 25.1299 8.69401 24.4722 8.91733C23.8243 9.17732 23.0217 8.83295 22.7519 8.19279C22.4974 7.66132 22.6568 6.98451 23.1001 6.60392C23.2885 6.4475 23.5127 6.32944 23.7557 6.28725Z" fill="#C1C1C1"/>
<path d="M7.39136 22.6529C8.05715 22.5152 8.77409 22.9649 8.94629 23.6217C9.15643 24.2733 8.77409 25.0366 8.13388 25.2715C7.51583 25.5374 6.73495 25.2434 6.42976 24.6484C6.14418 24.1433 6.24094 23.4678 6.64374 23.0535C6.84407 22.8481 7.10919 22.7053 7.39136 22.6529Z" fill="#C1C1C1"/>
<path d="M38.14 9.86095L38.1447 9.85626C39.195 10.9269 40.1464 12.0981 40.9413 13.3711C42.4762 15.8073 43.4723 18.5802 43.8342 21.437C44.0759 23.3498 44.0588 25.2984 43.7468 27.2022C43.2055 30.6122 41.746 33.8684 39.5739 36.5513C37.7709 38.788 35.4875 40.6446 32.9071 41.9112L32.8802 41.9002C32.8372 41.8533 32.7937 41.8081 32.7502 41.7629C31.0133 40.0185 29.2682 38.2817 27.5317 36.5364C27.4256 36.4405 27.3288 36.2479 27.1596 36.3293C25.6187 36.7227 24.0041 36.8258 22.4262 36.6276C20.5848 36.4035 18.7959 35.765 17.2277 34.7745C15.8672 33.9191 14.6712 32.8029 13.7232 31.5051C12.7019 30.1097 11.9671 28.5038 11.5898 26.8156C11.1206 24.7516 11.1687 22.5698 11.7501 20.5334C12.5254 17.7576 14.2888 15.2741 16.6434 13.6141C18.541 12.2583 20.8218 11.4498 23.1491 11.2998C25.2091 11.1575 27.305 11.5291 29.1898 12.3738C30.6083 13.0012 31.8973 13.9047 33.0034 14.9894C34.7194 13.2838 36.4219 11.5645 38.14 9.86095ZM23.147 17.7018C22.2421 17.8232 21.3614 18.1399 20.5946 18.6369C19.6109 19.2527 18.8146 20.1533 18.2972 21.1902C17.6757 22.4347 17.5027 23.8842 17.7644 25.2464C17.9319 26.0924 18.2772 26.9034 18.7686 27.6122C19.1066 28.1032 19.5209 28.5354 19.9472 28.9496C22.3908 31.3964 24.8323 33.845 27.2781 36.2892C29.3705 35.7322 31.3133 34.6296 32.864 33.1183C34.7868 31.2711 36.089 28.7949 36.5429 26.1687C36.5531 26.1243 36.5523 26.0446 36.6218 26.0579C37.8847 26.0596 39.1477 26.0574 40.411 26.06C41.2226 26.0472 41.9826 25.4305 42.1484 24.6339C42.1578 24.5824 42.1484 24.535 42.1199 24.4911C42.1719 24.2478 42.2085 23.9976 42.1787 23.7483L42.1684 23.7653C42.0811 22.8984 41.2802 22.1833 40.4102 22.1811C36.973 22.1782 33.5358 22.1807 30.0981 22.1782C29.8236 21.2371 29.3096 20.374 28.6476 19.6538C27.5479 18.4817 25.9938 17.7354 24.3844 17.6583C23.9717 17.6591 23.5557 17.6353 23.147 17.7018ZM35.3533 34.2516C34.8145 34.3394 34.3571 34.7882 34.2578 35.3247C34.1947 35.6717 34.2519 36.0501 34.4594 36.3412C34.7049 36.7333 35.1755 36.9703 35.6363 36.9486C35.9909 36.9498 36.3302 36.7802 36.5808 36.5369C36.7884 36.2982 36.941 35.9969 36.9504 35.6759C36.987 35.1913 36.7347 34.6914 36.3166 34.4417C36.0387 34.2516 35.6819 34.1966 35.3533 34.2516Z" fill="#686868"/>
<path d="M12.3341 11.0606C12.7109 11.0397 13.097 11.1799 13.363 11.4497C13.684 11.7608 13.8481 12.239 13.7526 12.6793C13.6478 13.3092 13.0489 13.8121 12.4082 13.7947C11.791 13.8138 11.2075 13.3459 11.0758 12.7458C10.9258 12.1866 11.199 11.5597 11.6879 11.26C11.8827 11.1424 12.1069 11.0725 12.3341 11.0606Z" fill="#C3C3C3"/>
<path d="M23.147 17.7018C23.5557 17.6353 23.9718 17.6592 24.3844 17.6583C25.9938 17.7355 27.5479 18.4818 28.6476 19.6538C29.3096 20.3741 29.8236 21.2371 30.0981 22.1782C28.0662 22.1778 26.0339 22.1778 24.0016 22.1778C23.482 22.1731 22.9688 22.4088 22.6287 22.8004C22.3725 23.0924 22.2135 23.4674 22.1837 23.8549C22.1329 24.4588 22.4121 25.0781 22.8951 25.4437C23.2199 25.6956 23.6316 25.8273 24.0425 25.8188C29.4426 25.8171 34.8431 25.8162 40.2431 25.8201C40.446 25.8218 40.6519 25.8137 40.8484 25.757C41.4541 25.5942 41.9575 25.0977 42.1199 24.4912C42.1484 24.5351 42.1578 24.5824 42.1484 24.634C41.9826 25.4305 41.2226 26.0472 40.4111 26.06C39.1477 26.0575 37.8847 26.0596 36.6218 26.0579C36.5523 26.0447 36.5531 26.1244 36.5429 26.1687C36.089 28.795 34.7868 31.2712 32.864 33.1183C31.3133 34.6296 29.3705 35.7322 27.2781 36.2893C24.8323 33.845 22.3908 31.3965 19.9472 28.9497C19.5209 28.5354 19.1066 28.1032 18.7686 27.6123C18.2772 26.9035 17.9319 26.0924 17.7644 25.2464C17.5027 23.8843 17.6757 22.4348 18.2972 21.1903C18.8147 20.1533 19.6109 19.2527 20.5946 18.6369C21.3614 18.1399 22.2421 17.8233 23.147 17.7018Z" fill="#474747"/>
<path d="M22.6287 22.8007C22.9688 22.409 23.482 22.1733 24.0016 22.178C26.0339 22.178 28.0662 22.178 30.0981 22.1784C33.5358 22.181 36.973 22.1784 40.4102 22.1814C41.2802 22.1835 42.0811 22.8987 42.1684 23.7656C42.1604 23.7796 42.1437 23.8069 42.1352 23.8206C41.9783 23.0317 41.2158 22.4073 40.4102 22.412C35.0835 22.4162 29.7567 22.4171 24.43 22.4192C24.1005 22.4248 23.7591 22.3851 23.4432 22.5028C23.057 22.6238 22.7301 22.8906 22.494 23.2145C22.3516 23.4084 22.3069 23.6509 22.1837 23.8551C22.2135 23.4677 22.3725 23.0926 22.6287 22.8007Z" fill="#BFBFBF"/>
<path d="M12.1644 34.248C12.7505 34.1342 13.3894 34.456 13.6375 35.0007C13.8268 35.3877 13.8174 35.8646 13.6073 36.2409C13.3882 36.6641 12.927 36.9463 12.4513 36.9569C12.0988 36.9731 11.7471 36.8359 11.485 36.6023C11.1001 36.2529 10.9407 35.6762 11.1056 35.1805C11.2489 34.7049 11.6747 34.3311 12.1644 34.248Z" fill="#BFBFBF"/>
<path d="M23.4432 22.5027C23.7591 22.385 24.1005 22.4247 24.43 22.4191C29.7567 22.417 35.0835 22.4162 40.4102 22.4119C41.2158 22.4072 41.9783 23.0316 42.1352 23.8205C42.1437 23.8068 42.1604 23.7796 42.1685 23.7655L42.1787 23.7485C42.2085 23.9978 42.1719 24.248 42.1199 24.4913C41.9575 25.0978 41.4541 25.5943 40.8484 25.7571C40.6519 25.8138 40.446 25.8219 40.2431 25.8202C34.8431 25.8164 29.4426 25.8172 24.0425 25.8189C23.6316 25.8275 23.2199 25.6958 22.8951 25.4439C22.4121 25.0782 22.1329 24.4589 22.1837 23.855C22.3069 23.6509 22.3516 23.4083 22.494 23.2144C22.7301 22.8905 23.057 22.6237 23.4432 22.5027Z" fill="#B0B0B0"/>
<path d="M4.71286 29.2888C4.75506 29.3536 4.80194 29.4184 4.82027 29.4955C4.97457 30.0798 5.20048 30.6412 5.4119 31.2067C5.57728 31.6035 5.74351 32.0003 5.93404 32.386C6.073 32.7304 6.27077 33.0458 6.44127 33.3748C7.2068 34.771 8.13601 36.0803 9.21909 37.2477C9.85888 37.9867 10.5941 38.6345 11.3384 39.2658C12.2804 40.021 13.2761 40.7123 14.3361 41.2919C16.8782 42.7026 19.7349 43.5367 22.6355 43.7289C26.1013 43.9736 29.6254 43.2806 32.7502 41.7633C32.7937 41.8085 32.8372 41.8536 32.8802 41.9005L32.8815 41.9265C31.0776 42.8228 29.1357 43.4408 27.146 43.7554C24.7202 44.1347 22.2246 44.0746 19.8223 43.5636C16.9285 42.952 14.178 41.6793 11.8337 39.8765C9.12617 37.8039 6.96086 35.0293 5.61649 31.895C5.2576 31.0482 4.93749 30.1809 4.71286 29.2888Z" fill="#939393"/>
<path d="M35.3533 34.2516C35.6819 34.1966 36.0387 34.2516 36.3166 34.4417C36.7347 34.6915 36.9871 35.1914 36.9504 35.676C36.941 35.9969 36.7884 36.2982 36.5808 36.5369C36.3302 36.7803 35.9909 36.9499 35.6363 36.9486C35.1755 36.9704 34.705 36.7334 34.4594 36.3413C34.2519 36.0502 34.1947 35.6717 34.2578 35.3248C34.3571 34.7882 34.8145 34.3394 35.3533 34.2516Z" fill="#767676"/>
<path d="M23.7608 39.0225C24.1329 38.956 24.5306 39.0506 24.8298 39.2829C25.2961 39.6298 25.4926 40.2939 25.2807 40.8368C25.1371 41.2392 24.7923 41.5575 24.3827 41.6756C23.9841 41.7954 23.534 41.7152 23.199 41.4685C22.7395 41.1471 22.5264 40.5214 22.6913 39.9857C22.8264 39.4943 23.2595 39.1086 23.7608 39.0225Z" fill="#BEBEBE"/>
</svg>
