<svg width="48" height="48" viewBox="0 0 48 48" fill="none" xmlns="http://www.w3.org/2000/svg">
<path fill-rule="evenodd" clip-rule="evenodd" d="M9.60815 4.03886C10.6913 3.82223 11.7449 4.52467 11.9615 5.60779L12.6804 9.20199C13.3965 9.28989 14.349 9.39991 15.4494 9.50994C17.3622 9.70122 19.6965 9.88997 22.0004 9.96553V6.00002C22.0004 4.89545 22.8958 4.00002 24.0004 4.00002C25.105 4.00002 26.0004 4.89545 26.0004 6.00002V9.96553C28.3043 9.88997 30.6386 9.70122 32.5514 9.50994C33.6517 9.39991 34.6043 9.28989 35.3204 9.20199L36.0392 5.60779C36.2559 4.52467 37.3095 3.82223 38.3926 4.03886C39.4757 4.25548 40.1782 5.30913 39.9615 6.39225L39.5499 8.45051L41.6082 8.03886C42.6913 7.82223 43.7449 8.52467 43.9615 9.60779C44.1782 10.6909 43.4757 11.7446 42.3926 11.9612L38.7984 12.68C38.7105 13.3961 38.6005 14.3487 38.4905 15.449C38.2992 17.3618 38.1104 19.6961 38.0349 22H42.0004C43.105 22 44.0004 22.8954 44.0004 24C44.0004 25.1046 43.105 26 42.0004 26H38.0349C38.1104 28.3039 38.2992 30.6382 38.4905 32.551C38.6005 33.6514 38.7105 34.604 38.7984 35.32L42.3926 36.0389C43.4757 36.2555 44.1782 37.3091 43.9615 38.3923C43.7449 39.4754 42.6913 40.1778 41.6082 39.9612L39.5499 39.5495L39.9615 41.6078C40.1782 42.6909 39.4757 43.7446 38.3926 43.9612C37.3095 44.1778 36.2559 43.4754 36.0392 42.3923L35.3204 38.798C34.6043 38.7101 33.6517 38.6001 32.5514 38.4901C30.6386 38.2988 28.3043 38.1101 26.0004 38.0345V42C26.0004 43.1046 25.105 44 24.0004 44C22.8958 44 22.0004 43.1046 22.0004 42V38.0345C19.6965 38.1101 17.3622 38.2988 15.4494 38.4901C14.349 38.6001 13.3965 38.7101 12.6804 38.798L11.9615 42.3923C11.7449 43.4754 10.6913 44.1778 9.60815 43.9612C8.52503 43.7446 7.8226 42.6909 8.03922 41.6078L8.45088 39.5495L6.39262 39.9612C5.3095 40.1778 4.25585 39.4754 4.03922 38.3923C3.8226 37.3091 4.52503 36.2555 5.60815 36.0389L9.20236 35.32C9.29026 34.604 9.40028 33.6514 9.51031 32.551C9.70159 30.6382 9.89033 28.3039 9.9659 26H6.00039C4.89582 26 4.00039 25.1046 4.00039 24C4.00039 22.8954 4.89582 22 6.00039 22H9.9659C9.89033 19.6961 9.70159 17.3618 9.51031 15.449C9.40028 14.3487 9.29026 13.3961 9.20236 12.68L5.60815 11.9612C4.52503 11.7446 3.8226 10.6909 4.03922 9.60779C4.25585 8.52467 5.3095 7.82223 6.39262 8.03886L8.45088 8.45051L8.03922 6.39225C7.8226 5.30913 8.52503 4.25548 9.60815 4.03886ZM13.3038 13.3034C13.3634 13.8278 13.4269 14.4156 13.4905 15.051C13.6894 17.0408 13.891 19.5236 13.9679 22H22.0004V13.9675C19.524 13.8907 17.0412 13.6891 15.0514 13.4901C14.4159 13.4265 13.8281 13.363 13.3038 13.3034ZM26.0004 13.9675V22H34.0329C34.1097 19.5236 34.3113 17.0408 34.5103 15.051C34.5739 14.4156 34.6374 13.8278 34.697 13.3034C34.1726 13.363 33.5849 13.4265 32.9494 13.4901C30.9596 13.6891 28.4768 13.8907 26.0004 13.9675ZM34.0329 26H26.0004V34.0325C28.4768 34.1094 30.9596 34.311 32.9494 34.5099C33.5849 34.5735 34.1726 34.637 34.697 34.6966C34.6374 34.1723 34.5739 33.5845 34.5103 32.949C34.3113 30.9593 34.1097 28.4764 34.0329 26ZM22.0004 34.0325V26H13.9679C13.891 28.4764 13.6894 30.9593 13.4905 32.949C13.4269 33.5845 13.3634 34.1723 13.3038 34.6966C13.8281 34.637 14.4159 34.5735 15.0514 34.5099C17.0412 34.311 19.524 34.1094 22.0004 34.0325Z" fill="#646464"/>
</svg>
