<svg width="48" height="48" viewBox="0 0 48 48" fill="none" xmlns="http://www.w3.org/2000/svg">
<path d="M42.8771 27.04C42.6171 25.94 42.1771 24.98 41.7371 24.18C40.1371 21.38 36.7771 21.34 34.6371 22.62C34.0571 22.98 33.5171 23.3 32.9971 23.62C33.0371 19.28 33.1171 15.8 32.8171 12.88C32.5971 10.74 31.1171 8.40002 28.4371 8.08002C28.2371 8.06002 27.8971 8.04002 27.6571 8.04002C27.4371 8.04002 27.1571 8.04002 26.8771 8.04002V7.56002C26.8771 5.94002 25.7171 5.02002 24.8571 4.60002C23.9771 4.18002 22.9371 4.02002 22.0371 4.02002C21.1371 4.02002 20.0971 4.18002 19.2171 4.60002C18.5171 4.94002 17.6371 5.64002 17.3371 6.76002C16.9171 6.76002 16.4371 6.80002 15.9971 6.86002C15.2971 6.96002 14.4371 7.14002 13.6571 7.52002C12.8571 7.92002 12.0171 8.62002 11.6171 9.74002C11.5371 9.96002 11.4971 10.2 11.4971 10.42V11.68C11.1171 11.68 10.7371 11.72 10.3571 11.76C9.65707 11.86 8.79707 12.04 8.01707 12.42C7.21707 12.82 6.37707 13.52 5.97707 14.64C5.93707 14.76 5.89707 14.9 5.87707 15.04C5.53707 17.5 4.99707 21.14 4.99707 25.76C4.99707 29.46 5.35707 32.2 6.25707 36.12C7.31707 40.74 11.2971 43.68 15.8371 43.92C16.8971 43.98 18.0971 44 19.4371 44C22.6771 44 25.8171 43.8 27.3771 43.6C29.1571 43.36 30.7771 42.64 32.1571 41.62C36.8971 38.12 39.9771 33.48 41.5371 31.6C42.3571 30.62 43.3571 29 42.8771 27.02V27.04ZM31.9571 28.76L31.6771 28.34C31.8171 28.54 31.8971 28.68 31.9571 28.76ZM38.9371 28.3C38.8571 28.5 38.7171 28.76 38.4571 29.06C36.5571 31.36 33.9971 35.3 29.7771 38.4C28.8771 39.06 27.8771 39.5 26.8371 39.62C25.4971 39.8 22.5571 39.98 19.4171 39.98C18.1371 39.98 17.0171 39.94 16.0171 39.9C13.0971 39.76 10.7771 37.9 10.1371 35.2C9.27707 31.52 8.95707 29.08 8.97707 25.74H6.89707H8.99707C8.99707 21.64 9.43707 18.4 9.79707 16C9.81707 16 9.79707 16 9.85707 15.96C10.0571 15.86 10.3971 15.76 10.8971 15.7C11.1171 15.68 11.3171 15.7 11.5171 15.68V23.98C11.5171 25.08 12.4171 25.98 13.5171 25.98C14.6171 25.98 15.5171 25.08 15.5171 23.98V11.06C15.7171 10.96 16.0571 10.86 16.5171 10.8C16.7571 10.76 16.9771 10.78 17.1971 10.76V21.92C17.1971 23.02 18.0971 23.92 19.1971 23.92C20.2971 23.92 21.1971 23.02 21.1971 21.92V8.12002C21.4171 8.06002 21.6771 8.00002 22.0371 8.00002C22.3971 8.00002 22.6771 8.06002 22.8771 8.12002V20.94C22.8771 22.04 23.7771 22.94 24.8771 22.94C25.9771 22.94 26.8771 22.04 26.8771 20.94V12.02C27.1171 12.02 27.3771 12.02 27.5771 12.02C27.9171 12.02 28.0171 12.02 27.9571 12.02C28.1371 12.04 28.3171 12.12 28.4771 12.32C28.6571 12.54 28.7971 12.86 28.8371 13.26C29.1371 16.26 29.0171 19.84 28.9771 25.02C26.1571 25.06 23.1571 26.16 21.0171 28.6C20.2971 29.44 20.3771 30.7 21.1971 31.42C22.0371 32.14 23.2971 32.06 24.0171 31.24C25.6971 29.32 28.3771 28.68 30.5171 29.16C31.0371 29.28 31.5771 29.18 32.0371 28.9C32.0371 28.9 32.0771 28.88 32.0971 28.86C32.1571 28.82 32.2371 28.76 32.3571 28.7C32.5771 28.56 32.9171 28.36 33.3171 28.1C34.1371 27.58 35.2971 26.86 36.6371 26.06C37.0171 25.82 37.4171 25.78 37.6971 25.82C37.9371 25.86 38.0971 25.98 38.2171 26.16C38.5171 26.7 38.7971 27.3 38.9371 27.96C38.9371 28.04 38.9571 28.12 38.8971 28.3H38.9371Z" fill="#646464"/>
</svg>
