<svg width="48" height="48" viewBox="0 0 48 48" fill="none" xmlns="http://www.w3.org/2000/svg">
<path d="M21.7377 28.5443V42H19.4557V21.777C19.4557 21.4623 19.5344 21.1869 19.6131 20.9115C19.7311 20.6361 19.8885 20.4 20.1246 20.1639C20.3213 19.9672 20.5967 19.8098 20.8721 19.6918C21.1475 19.5738 21.4229 19.5344 21.7377 19.5344H28.4656V26.2623C28.4656 26.577 28.4262 26.8525 28.3082 27.1279C28.1902 27.4033 28.0328 27.6393 27.8361 27.8754C27.6393 28.0721 27.3639 28.2689 27.1279 28.3869C26.8525 28.5049 26.577 28.5443 26.2623 28.5836L21.7377 28.5443Z" fill="#ED6D12"/>
<path d="M42 6.03935V39.7574C42 41.0164 40.9771 42.0393 39.718 42.0393H37.4754V8.28197C37.4754 7.0623 38.4197 6.07869 39.6393 6.03935H42ZM32.9902 6.03935H35.1934V39.7574C35.1934 40.9771 34.2098 42 32.9902 42.0393H30.7082V17.2918C30.7082 16.9771 30.7869 16.7016 30.8656 16.4262C30.9836 16.1508 31.141 15.9148 31.3771 15.718C31.5738 15.5213 31.8492 15.3639 32.1246 15.2459C32.4 15.1279 32.6754 15.0885 32.9902 15.0885C32.9902 15.0098 32.9902 6.03935 32.9902 6.03935ZM14.9705 42H12.7672V8.24263C12.7672 7.02296 13.7115 6.03934 14.9311 6H17.2525V30.7082C17.2525 31.2984 17.0164 31.8885 16.5836 32.3213C16.1508 32.7541 15.6 32.9902 14.9705 32.9902V42ZM6 42V8.24263C6 7.92787 6.07869 7.65246 6.15738 7.37705C6.27541 7.10164 6.43279 6.86558 6.66885 6.66886C7.10164 6.23607 7.65246 6 8.28197 6.03935H10.4852V39.7574C10.4852 40.0721 10.4459 40.3475 10.3279 40.6229C10.2098 40.8984 10.0525 41.1344 9.85574 41.3705C9.65902 41.6066 9.38361 41.7639 9.14754 41.882C8.87213 42 8.59672 42.0393 8.28197 42.0787L6 42Z" fill="#ED6D12"/>
</svg>
