<svg width="48" height="48" viewBox="0 0 48 48" fill="none" xmlns="http://www.w3.org/2000/svg">
<path d="M4 38C4 39.1 4.9 40 6 40C7.1 40 8 39.1 8 38V24H22V38C22 39.1 22.9 40 24 40C25.1 40 26 39.1 26 38V6C26 4.9 25.1 4 24 4C22.9 4 22 4.9 22 6V20H8V6C8 4.9 7.1 4 6 4C4.9 4 4 4.9 4 6V38Z" fill="#646464"/>
<path fill-rule="evenodd" clip-rule="evenodd" d="M40 42C40 43.1 40.9 44 42 44V44.02C43.1 44.02 44 43.12 44 42.02V26.94C44 25.32 42.72 24.02 41.14 24.02C40.28 24.02 39.48 24.4 38.94 25.06L30.68 35.14C30.24 35.66 30 36.34 30 37.04C30 38.66 31.3 40 32.9 40H40V42ZM40 36H35.14L40 30.06V36Z" fill="#646464"/>
</svg>
