<svg width="48" height="48" viewBox="0 0 48 48" fill="none" xmlns="http://www.w3.org/2000/svg">
<path d="M15.9399 16.04C14.8399 16.04 13.9399 15.14 13.9399 14.04C13.9399 12.94 14.8399 12.04 15.9399 12.04H32.2599C33.3599 12.04 34.2599 12.94 34.2599 14.04C34.2599 15.14 33.3599 16.04 32.2599 16.04H15.9399Z" fill="#646464"/>
<path d="M16.04 23.9399H24.1C25.2 23.9399 26.1 23.0399 26.1 21.9399C26.1 20.8399 25.2 19.9399 24.1 19.9399H16.04C14.94 19.9399 14.04 20.8399 14.04 21.9399C14.04 23.0399 14.94 23.9399 16.04 23.9399Z" fill="#646464"/>
<path fill-rule="evenodd" clip-rule="evenodd" d="M40.3203 35.978C40.3471 35.9523 40.3737 35.9263 40.4 35.9C41.42 34.88 41.96 33.54 41.96 32.12C41.92 29.84 41.92 26.36 41.92 21.52C41.92 16.28 41.7 12.42 41.52 10.12C41.28 7 38.78 4.56 35.6 4.34C32.3 4.12 28.38 4 23.96 4C19.54 4 15.62 4.1 12.32 4.34C9.12 4.58 6.64 7 6.4 10.1C6.22 12.44 6 16.3 6 21.5V38.66C6 38.7625 6.00781 38.8632 6.02286 38.9616C6.02968 39.2922 6.04873 39.5983 6.08002 39.8799C6.34002 42.1599 8.40002 43.7799 11.06 43.8399C13.42 43.8799 17.62 43.9399 24 43.9399H24.02C33.8584 43.9399 39.2348 43.8016 39.9885 43.7822L40.08 43.7799C41.18 43.7399 42.06 42.8199 42.02 41.7199C41.9838 40.742 41.2588 39.9444 40.3203 39.8024V35.978ZM24.3014 37.4001C24.2094 37.4131 24.1155 37.4199 24.02 37.4199C17.68 37.4199 13.5 37.4799 11.16 37.5199C10.6 37.5199 10.1 37.7199 10.06 37.9399C10.04 38.1599 10.02 38.3999 10.02 38.6799C10.02 38.9599 10.02 39.1999 10.06 39.4199C10.08 39.6399 10.6 39.8399 11.16 39.8399C13.5 39.8799 17.68 39.9399 24.02 39.9399C29.55 39.9399 33.6599 39.8955 36.3203 39.8535V37.4782C33.7102 37.4396 29.6859 37.4016 24.3014 37.4001ZM12.6 8.34C14.8 8.18 18.58 8 23.96 8H24C29.38 8 33.14 8.18 35.36 8.34C36.56 8.42 37.48 9.28 37.56 10.44C37.72 12.68 37.94 16.42 37.94 21.52C37.94 24.4036 37.9541 26.8084 37.9655 28.7637C37.9734 30.103 37.98 31.2332 37.98 32.16C37.98 32.5 37.86 32.84 37.6 33.08C37.32 33.36 36.94 33.5 36.52 33.5C33.8491 33.4601 29.6883 33.4203 24.0377 33.42L24.02 33.4199C23.2415 33.4199 22.4954 33.4208 21.7811 33.4225C18.6742 33.4295 16.1717 33.4508 14.2196 33.4744C12.9416 33.4897 11.8998 33.506 11.08 33.5199L11.0746 33.52C10.7164 33.5204 10.3583 33.5603 10.02 33.62V21.52C10.02 16.44 10.22 12.7 10.4 10.44C10.48 9.28 11.4 8.42 12.6 8.34Z" fill="#646464"/>
</svg>
