<svg width="48" height="48" viewBox="0 0 48 48" fill="none" xmlns="http://www.w3.org/2000/svg">
<path fill-rule="evenodd" clip-rule="evenodd" d="M40.5801 43.4201C40.9801 43.8001 41.4801 44.0001 42.0001 44.0001V43.9801C42.5201 43.9801 43.0201 43.8001 43.4201 43.4001C44.2001 42.6201 44.2001 41.3601 43.4201 40.5801L7.42012 4.58012C6.64012 3.80012 5.36012 3.80012 4.58012 4.58012C3.80012 5.36012 3.80012 6.64012 4.58012 7.42012L10.2731 13.1131C7.36072 15.6484 5.23846 18.9666 4.18 22.62C3.94 23.48 3.94 24.38 4.18 25.24C6.66 33.82 14.82 39.82 24 39.82L24.02 39.84C27.6685 39.84 31.1928 38.9235 34.319 37.159L40.5801 43.4201ZM31.3473 34.1873L28.7725 31.6125C27.3594 32.5017 25.7161 32.98 24 32.98V33C19.04 33 15 28.96 15 24C15 22.2912 15.4859 20.6416 16.3755 19.2155L13.1209 15.9609C10.6836 18.0153 8.89987 20.7368 8.04 23.72C8 23.86 8 24 8.04 24.14C10.02 31.02 16.6 35.84 24 35.84C26.5799 35.84 29.0773 35.274 31.3473 34.1873ZM19.3349 22.1749C19.1143 22.7468 19 23.3582 19 23.98C19 26.74 21.24 28.98 24 28.98C24.6288 28.98 25.2395 28.8665 25.8082 28.6482L19.3349 22.1749Z" fill="#646464"/>
<path d="M39.7 31.42C39.32 31.42 38.94 31.32 38.6 31.1C37.68 30.5 37.42 29.26 38.02 28.34C38.88 27.02 39.52 25.6 39.96 24.12C40 23.98 40 23.84 39.96 23.7C37.98 16.82 31.4 12 24 12C23.1 12 22.2 12.08 21.3 12.2C20.22 12.36 19.18 11.62 19.02 10.54C18.84 9.44 19.6 8.42 20.68 8.26C21.76 8.08 22.88 8 24 8C33.18 8 41.34 14 43.82 22.58C44.06 23.44 44.06 24.34 43.82 25.2C43.28 27.08 42.46 28.86 41.38 30.5C41 31.08 40.36 31.4 39.7 31.4V31.42Z" fill="#646464"/>
<path d="M30.32 23C29.58 23 28.86 22.58 28.52 21.86C28.26 21.32 27.92 20.84 27.5 20.44C27.02 19.96 26.44 19.6 25.8 19.34C24.76 18.94 24.26 17.78 24.66 16.76C25.06 15.72 26.22 15.22 27.24 15.62C28.38 16.06 29.42 16.72 30.28 17.58C31.04 18.32 31.66 19.2 32.12 20.16C32.6 21.16 32.16 22.36 31.18 22.82C30.9 22.96 30.62 23.02 30.32 23.02V23Z" fill="#646464"/>
</svg>
