<svg width="48" height="48" viewBox="0 0 48 48" fill="none" xmlns="http://www.w3.org/2000/svg">
<path fill-rule="evenodd" clip-rule="evenodd" d="M27.22 4.68001C25.18 3.76001 22.84 3.76001 20.78 4.68001C14.34 7.54001 9.48 11.28 6.96 13.44C5.28 14.88 4.38 16.92 4.26 19.04C4.14 21.28 4 24.8 4 28.64C4 31.6 4.08 34.44 4.18 36.68C4.34 40.3 7.22 43.16 10.84 43.28C13.82 43.38 18.26 43.48 24 43.48C29.74 43.48 34.18 43.38 37.16 43.28C40.78 43.16 43.68 40.3 43.82 36.68C43.92 34.46 44 31.6 44 28.64C44 24.8 43.86 21.28 43.74 19.04C43.62 16.94 42.72 14.88 41.04 13.44C38.52 11.28 33.66 7.54001 27.22 4.68001ZM14.2 30.98C14.28 31.2 16.66 36.04 24 36.04V36.02C31.3212 36.02 33.7277 31.2048 33.8392 30.9816C34.2992 30.0016 33.9 28.84 32.92 28.34C31.94 27.86 30.74 28.26 30.24 29.22C30.18 29.34 28.66 32.02 24 32.02C19.34 32.02 17.88 29.4 17.8 29.24C17.32 28.26 16.16 27.86 15.16 28.32C14.16 28.78 13.72 29.98 14.2 30.98Z" fill="#F0F0F0"/>
</svg>
