<svg width="48" height="48" viewBox="0 0 48 48" fill="none" xmlns="http://www.w3.org/2000/svg">
<path d="M8.63143 38.928L17.5726 44.1045C18.0746 44.3869 18.702 44.2614 19.0785 43.8222C20.2079 42.4731 21.902 41.5947 23.8158 41.5947C25.7295 41.5947 27.4236 42.4731 28.553 43.8222C28.9295 44.2614 29.5569 44.4182 30.0589 44.1045L39.0314 38.8967C39.6275 38.5516 39.7844 37.7672 39.4079 37.2025C38.9687 36.5437 38.4981 35.9476 37.9961 35.3516C36.6471 33.7829 35.0158 32.528 33.2275 31.4927L32.0354 30.8025L31.9726 30.7712C31.9099 30.7398 31.8471 30.7084 31.753 30.6771C31.3765 30.5202 30.9373 30.5829 30.655 30.8967C28.9609 32.7476 26.5138 33.9084 23.8158 33.9084C21.1177 33.9084 18.6707 32.7476 16.9765 30.8967C16.6942 30.5829 16.255 30.5202 15.9099 30.6771L14.4981 31.4927C12.2393 32.779 10.2628 34.5045 8.72555 36.5751C8.56869 36.7947 8.41182 37.0143 8.25496 37.2339C7.84712 37.83 8.03535 38.6143 8.63143 38.928Z" fill="#294DFF"/>
<path d="M10.0746 9.4692C9.5726 9.75156 9.35299 10.379 9.5726 10.9123C10.2001 12.5751 10.1059 14.4888 9.13339 16.1516C8.16084 17.8143 6.56083 18.8496 4.80397 19.1319C4.23926 19.2261 3.80005 19.6967 3.80005 20.2927V30.5829C3.80005 31.2418 4.36475 31.8065 5.05495 31.7437C7.69025 31.5869 10.2628 30.8339 12.5844 29.6104L13.6824 28.9829C13.9648 28.7947 14.2785 28.6065 14.5608 28.4182C14.9059 28.1986 15.0314 27.7594 14.9373 27.3829C14.2157 24.9986 14.4353 22.3633 15.7844 20.0418C17.1334 17.7202 19.3608 16.2143 21.7765 15.6496C22.153 15.5555 22.4667 15.2418 22.4981 14.8339C22.5295 14.3633 22.5608 13.8927 22.5922 13.3908V12.6692C22.5608 9.97117 21.902 7.27312 20.7412 4.85743C20.4589 4.26135 19.6746 4.04175 19.1099 4.35548L10.0746 9.4692Z" fill="#1F95FF"/>
<path d="M38.4667 16.1515C37.4942 14.4888 37.4 12.5751 38.0275 10.9123C38.2157 10.379 38.0275 9.75154 37.5255 9.46919L28.5216 4.32409C27.9255 3.97899 27.1726 4.1986 26.8902 4.82605C25.6981 7.27311 25.0706 9.93978 25.0393 12.6378V13.3594C25.0393 13.83 25.0706 14.3006 25.1334 14.8025C25.1647 15.2104 25.4785 15.5241 25.8549 15.6182C28.302 16.1515 30.4981 17.6574 31.8471 20.0104C33.1961 22.3319 33.4157 24.9986 32.6942 27.3515C32.5687 27.728 32.7255 28.1672 33.0706 28.3868C33.353 28.5751 33.6353 28.7633 33.9491 28.9516L35.0471 29.579C37.3687 30.8025 39.9412 31.5555 42.5765 31.7123C43.2353 31.7437 43.8 31.2104 43.8 30.5516V20.2613C43.8 19.6966 43.3922 19.1947 42.7961 19.1006C41.0393 18.8182 39.4079 17.7829 38.4667 16.1515Z" fill="#5FBBFF"/>
</svg>
