<svg width="48" height="48" viewBox="0 0 48 48" fill="none" xmlns="http://www.w3.org/2000/svg">
<g filter="url(#filter0_d_3_18207)">
<path d="M5 18.4553C5 13.7455 5 11.3906 5.91659 9.59171C6.72284 8.00934 8.00934 6.72284 9.59171 5.91659C11.3906 5 13.7455 5 18.4553 5H29.5447C34.2545 5 36.6094 5 38.4083 5.91659C39.9907 6.72284 41.2772 8.00934 42.0834 9.59171C43 11.3906 43 13.7455 43 18.4553V29.5447C43 34.2545 43 36.6094 42.0834 38.4083C41.2772 39.9907 39.9907 41.2772 38.4083 42.0834C36.6094 43 34.2545 43 29.5447 43H18.4553C13.7455 43 11.3906 43 9.59171 42.0834C8.00934 41.2772 6.72284 39.9907 5.91659 38.4083C5 36.6094 5 34.2545 5 29.5447V18.4553Z" fill="white"/>
<path d="M15.1768 14.9577H16.1473V11.4364H16.1762L17.5832 14.9577H18.2687L19.6722 11.4364H19.7046V14.9577H20.6752V9.75152H19.416L17.9368 13.4929H17.9151L16.4359 9.75152H15.1768V14.9577Z" fill="#FE3C3B"/>
<path d="M24.2592 15.0478C25.807 15.0478 26.7703 14.0124 26.7703 12.3564V12.3492C26.7703 10.6968 25.8034 9.66132 24.2592 9.66132C22.7186 9.66132 21.7481 10.6932 21.7481 12.3492V12.3564C21.7481 14.0124 22.7114 15.0478 24.2592 15.0478ZM24.2592 14.1242C23.4041 14.1242 22.8594 13.446 22.8594 12.3564V12.3492C22.8594 11.2596 23.4077 10.5849 24.2592 10.5849C25.1143 10.5849 25.659 11.2632 25.659 12.3492V12.3564C25.659 13.4351 25.1251 14.1242 24.2592 14.1242Z" fill="#FE3C3B"/>
<path d="M27.8432 14.9577H28.9292V11.5482H28.9509L31.3104 14.9577H32.2557V9.75152H31.1697V13.1357H31.148L28.7957 9.75152H27.8432V14.9577Z" fill="#FE3C3B"/>
<path d="M19.2436 36.4809C22.5802 36.4809 25.0277 34.4259 25.0277 31.6435V31.6204C25.0277 29.2537 23.3768 27.7413 20.9523 27.5335V27.4873C23.0304 27.0486 24.4851 25.64 24.4851 23.585V23.5619C24.4851 21.0335 22.3954 19.2671 19.2205 19.2671C16.1033 19.2671 13.9559 21.0797 13.6904 23.7928L13.6789 23.9083H15.6762L15.6877 23.7928C15.8609 22.1072 17.2579 21.0682 19.2205 21.0682C21.2525 21.0682 22.3954 22.0726 22.3954 23.8159V23.839C22.3954 25.5015 21.01 26.7253 19.0243 26.7253H17.027V28.4802H19.1166C21.4487 28.4802 22.915 29.6231 22.915 31.6666V31.6897C22.915 33.4561 21.4256 34.6799 19.2436 34.6799C17.027 34.6799 15.5261 33.5485 15.3529 31.9091L15.3414 31.7936H13.3441L13.3556 31.9322C13.575 34.5644 15.8032 36.4809 19.2436 36.4809Z" fill="#262626"/>
<path d="M31.8212 36.2038H33.8301V19.5442H31.7981L27.3648 22.7307V24.8203L31.775 21.7493H31.8212V36.2038Z" fill="#262626"/>
</g>
<defs>
<filter id="filter0_d_3_18207" x="3.94444" y="3.94444" width="40.1111" height="40.1111" filterUnits="userSpaceOnUse" color-interpolation-filters="sRGB">
<feFlood flood-opacity="0" result="BackgroundImageFix"/>
<feColorMatrix in="SourceAlpha" type="matrix" values="0 0 0 0 0 0 0 0 0 0 0 0 0 0 0 0 0 0 127 0" result="hardAlpha"/>
<feOffset/>
<feGaussianBlur stdDeviation="0.263889"/>
<feComposite in2="hardAlpha" operator="out"/>
<feColorMatrix type="matrix" values="0 0 0 0 0 0 0 0 0 0 0 0 0 0 0 0 0 0 0.25 0"/>
<feBlend mode="normal" in2="BackgroundImageFix" result="effect1_dropShadow_3_18207"/>
<feBlend mode="normal" in="SourceGraphic" in2="effect1_dropShadow_3_18207" result="shape"/>
</filter>
</defs>
</svg>
