<svg width="48" height="48" viewBox="0 0 48 48" fill="none" xmlns="http://www.w3.org/2000/svg">
<path fill-rule="evenodd" clip-rule="evenodd" d="M15.6 4.80002C16.2627 5.68362 16.0837 6.93712 15.2002 7.5999C15.2001 7.59994 15.2002 7.59986 15.2002 7.5999L15.1812 7.61419L15.1186 7.66149C15.063 7.70366 14.9803 7.76665 14.8743 7.84803C14.6622 8.01088 14.3576 8.24695 13.9914 8.53686C13.257 9.11825 12.2842 9.90885 11.317 10.7552C10.8417 11.1711 10.3781 11.5914 9.95041 12H36C37.1046 12 38 12.8954 38 14C38 15.1046 37.1046 16 36 16H9.95041C10.3781 16.4086 10.8417 16.829 11.317 17.2449C12.2842 18.0912 13.257 18.8818 13.9914 19.4632C14.3576 19.7531 14.6622 19.9892 14.8743 20.152C14.9803 20.2334 15.063 20.2964 15.1186 20.3385L15.1812 20.3858L15.1995 20.3997C15.1995 20.3996 15.1996 20.3997 15.1995 20.3997C16.0831 21.0625 16.2627 22.3164 15.6 23.2C14.9373 24.0837 13.6837 24.2628 12.8 23.6L14 22C12.8 23.6 12.8002 23.6002 12.8 23.6L12.7729 23.5796L12.7017 23.5257C12.6401 23.479 12.551 23.4112 12.4382 23.3246C12.2128 23.1515 11.8924 22.9032 11.5086 22.5994C10.743 21.9933 9.71577 21.1589 8.68299 20.2552C7.65985 19.3599 6.58727 18.3586 5.75518 17.4225C5.3415 16.9571 4.94485 16.4609 4.64043 15.9662C4.3755 15.5357 4 14.8261 4 14C4 13.1739 4.3755 12.4644 4.64043 12.0339C4.94485 11.5392 5.3415 11.0429 5.75518 10.5775C6.58727 9.64144 7.65985 8.64011 8.68299 7.74486C9.71577 6.84118 10.743 6.00678 11.5086 5.40067C11.8924 5.09683 12.2128 4.84853 12.4382 4.67543C12.551 4.58885 12.6401 4.52098 12.7017 4.47428L12.7729 4.42038L12.7997 4.40027C12.7998 4.40013 12.8 4.40002 14 6.00002L12.7997 4.40027C13.6833 3.73753 14.9373 3.91636 15.6 4.80002ZM32.4 24.8C33.0627 23.9164 34.3163 23.7373 35.2 24.4L34 26C35.2 24.4 35.1998 24.3999 35.2 24.4L35.2271 24.4204L35.2983 24.4743C35.3599 24.521 35.449 24.5889 35.5618 24.6754C35.7872 24.8485 36.1076 25.0968 36.4914 25.4007C37.257 26.0068 38.2842 26.8412 39.317 27.7449C40.3402 28.6401 41.4127 29.6414 42.2448 30.5775C42.6585 31.0429 43.0551 31.5392 43.3596 32.0339C43.6245 32.4644 44 33.1739 44 34C44 34.8261 43.6245 35.5357 43.3596 35.9662C43.0551 36.4609 42.6585 36.9571 42.2448 37.4225C41.4127 38.3586 40.3402 39.3599 39.317 40.2552C38.2842 41.1589 37.257 41.9933 36.4914 42.5994C36.1076 42.9032 35.7872 43.1515 35.5618 43.3246C35.449 43.4112 35.3599 43.479 35.2983 43.5257L35.2271 43.5796L35.2025 43.5982L35.2003 43.5998C35.2002 43.5999 35.2 43.6 34 42L35.2003 43.5998C34.3167 44.2625 33.0627 44.0837 32.4 43.2C31.7373 42.3164 31.9163 41.0629 32.7998 40.4001L32.8038 40.3972L32.8188 40.3858L32.8814 40.3385C32.937 40.2964 33.0197 40.2334 33.1257 40.152C33.3378 39.9892 33.6424 39.7531 34.0086 39.4632C34.743 38.8818 35.7158 38.0912 36.683 37.2449C37.1583 36.829 37.6219 36.4086 38.0496 36L12 36C10.8954 36 10 35.1046 10 34C10 32.8954 10.8954 32 12 32L38.0496 32C37.6219 31.5914 37.1583 31.1711 36.683 30.7552C35.7158 29.9089 34.743 29.1183 34.0086 28.5369C33.6424 28.247 33.3378 28.0109 33.1257 27.848C33.0197 27.7666 32.937 27.7037 32.8814 27.6615L32.8188 27.6142L32.8038 27.6028L32.8004 27.6004C31.9168 26.9376 31.7373 25.6837 32.4 24.8Z" fill="#646464"/>
</svg>
