<svg width="48" height="48" viewBox="0 0 48 48" fill="none" xmlns="http://www.w3.org/2000/svg">
<path fill-rule="evenodd" clip-rule="evenodd" d="M23.1818 12.1816C17.1028 12.1816 12.8393 12.367 10.1521 12.5441C7.12527 12.7437 4.66854 15.0205 4.38907 18.1137C4.27271 19.4018 4.16036 21.0464 4.08656 23.0755C4.08276 23.1266 4.08095 23.1777 4.08109 23.2286C4.03095 24.6585 4 26.276 4 28.0907C4 32.5704 4.18856 35.8483 4.38907 38.0678C4.66853 41.161 7.12527 43.4378 10.1521 43.6374C12.8393 43.8145 17.1028 43.9998 23.1818 43.9998C29.2608 43.9998 33.5243 43.8145 36.2116 43.6374C39.2384 43.4378 41.6951 41.161 41.9746 38.0677C42.1751 35.8483 42.3636 32.5704 42.3636 28.0907C42.3636 27.5007 42.3696 26.9188 42.3754 26.35C42.3867 25.2358 42.3976 24.1716 42.3623 23.1936C42.334 22.409 41.8575 21.7463 41.1877 21.4429C40.6321 21.1605 39.953 21.1413 39.3578 21.4507C39.0848 21.5926 38.4355 22.0058 37.6335 22.5162C37.3425 22.7014 37.0313 22.8994 36.7107 23.1019C35.4164 23.9195 33.7604 24.9475 32.0068 25.9545C30.2467 26.9652 28.4235 27.9343 26.7919 28.6451C25.0818 29.3901 23.853 29.7274 23.1812 29.7274C22.5092 29.7274 21.2797 29.3899 19.5689 28.6446C17.9367 27.9334 16.1127 26.964 14.3522 25.953C12.5982 24.9457 10.942 23.9176 9.6481 23.1001C9.32614 22.8967 9.01368 22.6978 8.72158 22.5119C8.51217 22.3786 8.31322 22.252 8.12876 22.1351C8.1967 20.6703 8.28421 19.4547 8.37285 18.4736C8.46863 17.4134 9.28074 16.6103 10.4153 16.5354C13.0083 16.3645 17.1838 16.1816 23.1818 16.1816C24.2864 16.1816 25.1818 15.2862 25.1818 14.1816C25.1818 13.0771 24.2864 12.1816 23.1818 12.1816ZM8.00554 26.7929C8.00191 27.213 8 27.6456 8 28.0907C8 32.4584 8.18386 35.6159 8.37285 37.7078C8.46863 38.768 9.28071 39.5712 10.4153 39.646C13.0083 39.817 17.1838 39.9998 23.1818 39.9998C29.1798 39.9998 33.3552 39.817 35.9484 39.646C37.0829 39.5712 37.895 38.768 37.9908 37.7079C38.1798 35.6159 38.3636 32.4584 38.3636 28.0907C38.3636 27.628 38.3666 27.1946 38.3704 26.7839C37.1319 27.5616 35.6099 28.498 33.9987 29.4233C32.1807 30.4673 30.2138 31.5174 28.3895 32.3122C26.6436 33.0728 24.7508 33.7274 23.1812 33.7274C21.6113 33.7274 19.7178 33.0726 17.9713 32.3117C16.1463 31.5166 14.1787 30.466 12.3603 29.4217C10.7562 28.5006 9.24067 27.5684 8.00554 26.7929Z" fill="#646464"/>
<path d="M44.6605 7.11475C45.2762 6.19767 45.0318 4.95514 44.1148 4.33947C43.1977 3.72381 41.9551 3.96816 41.3395 4.88524L35.3668 13.7821L32.4696 10.6434C31.7204 9.83179 30.4551 9.78118 29.6434 10.5304C28.8318 11.2796 28.7812 12.5449 29.5304 13.3566L33.2867 17.4259C34.6014 18.8502 36.9015 18.6725 37.9819 17.0632L44.6605 7.11475Z" fill="#646464"/>
</svg>
