<svg width="48" height="48" viewBox="0 0 48 48" fill="none" xmlns="http://www.w3.org/2000/svg">
<path d="M43 11.5C43 15.0899 40.0899 18 36.5 18C32.9101 18 30 15.0899 30 11.5C30 7.91015 32.9101 5 36.5 5C40.0899 5 43 7.91015 43 11.5Z" fill="#646464"/>
<path fill-rule="evenodd" clip-rule="evenodd" d="M23.1861 16C24.2906 15.9974 25.184 15.0999 25.1814 13.9953C25.1788 12.8907 24.2813 11.9974 23.1767 12C17.8865 12.0124 13.3421 12.1675 10.7413 12.327C9.11221 12.4269 7.57137 12.983 6.38385 14.0777C5.18311 15.1846 4.49062 16.7081 4.34568 18.4567C3.80861 24.9361 3.80639 31.5539 4.38854 38.0398C4.66656 41.1372 7.11412 43.4335 10.1508 43.635C12.8382 43.8133 17.1021 43.9999 23.1814 43.9999C28.8749 43.9999 32.9759 43.8362 35.6811 43.669C37.3233 43.5675 38.8537 42.9892 40.0235 41.8829C41.2006 40.7697 41.8736 39.2524 42.0182 37.5343C42.425 32.7003 42.4502 27.8419 42.28 23.0461C42.2877 22.7201 42.2157 22.3877 42.0547 22.078C41.5453 21.0979 40.3378 20.7164 39.3578 21.2258C39.0848 21.3677 38.4355 21.7809 37.6335 22.2913C37.3424 22.4765 37.0313 22.6746 36.7107 22.8771C35.4164 23.6946 33.7604 24.7227 32.0068 25.7297C30.2467 26.7404 28.4234 27.7095 26.7918 28.4203C25.0818 29.1653 23.853 29.5026 23.1812 29.5026C22.5091 29.5026 21.2796 29.165 19.5689 28.4197C17.9366 27.7086 16.1127 26.7391 14.3522 25.7281C12.5982 24.7209 10.942 23.6927 9.64807 22.8753C9.32611 22.6719 9.01364 22.473 8.72154 22.287C8.50778 22.151 8.30487 22.0218 8.1172 21.903C8.1745 20.8617 8.24618 19.8226 8.33201 18.7871C8.40419 17.9163 8.71645 17.3677 9.09502 17.0187C9.48682 16.6575 10.0999 16.3739 10.9862 16.3195C13.4914 16.1659 17.9552 16.0123 23.1861 16ZM7.95777 26.538C7.90662 30.265 8.04184 33.998 8.37252 37.6822C8.46974 38.7653 9.29095 39.5691 10.4157 39.6438C13.0085 39.8158 17.1836 39.9999 23.1814 39.9999C28.7985 39.9999 32.817 39.8384 35.4343 39.6766C36.2968 39.6233 36.8915 39.3394 37.275 38.9767C37.6512 38.621 37.9596 38.0626 38.0323 37.1989C38.3285 33.6797 38.4151 30.1248 38.3665 26.5614C37.1288 27.3387 35.6082 28.2741 33.9987 29.1984C32.1806 30.2424 30.2138 31.2926 28.3894 32.0874C26.6436 32.848 24.7507 33.5026 23.1812 33.5026C21.6113 33.5026 19.7178 32.8477 17.9713 32.0868C16.1463 31.2917 14.1787 30.2411 12.3602 29.1969C10.7354 28.2638 9.20149 27.3194 7.95777 26.538Z" fill="#646464"/>
</svg>
