<svg width="48" height="48" viewBox="0 0 48 48" fill="none" xmlns="http://www.w3.org/2000/svg">
<path fill-rule="evenodd" clip-rule="evenodd" d="M17.791 6.98097C18.2826 7.97012 17.8792 9.17049 16.8901 9.66206C16.3582 9.92638 15.8429 10.2195 15.3464 10.5395C14.4179 11.1378 13.1802 10.8701 12.5819 9.94165C11.9836 9.01316 12.2512 7.77544 13.1797 7.17713C13.8003 6.77726 14.4445 6.4107 15.1099 6.08C16.0991 5.58843 17.2995 5.99181 17.791 6.98097ZM11.0851 11.3041C11.9531 11.9873 12.1028 13.2448 11.4196 14.1127C10.6896 15.0401 10.0603 16.0496 9.54786 17.1247C9.07256 18.1218 7.87897 18.5448 6.88189 18.0695C5.88481 17.5942 5.46182 16.4006 5.93711 15.4035C6.57836 14.0583 7.36506 12.7966 8.27656 11.6386C8.95976 10.7707 10.2172 10.6209 11.0851 11.3041ZM6.3285 20.017C7.42642 20.1381 8.21832 21.1263 8.09726 22.2242C8.03304 22.8066 8 23.3991 8 24C8 24.5663 8.02934 25.1251 8.08647 25.675C8.20059 26.7737 7.40247 27.7568 6.30381 27.871C5.20516 27.9851 4.222 27.187 4.10788 26.0883C4.03651 25.4013 4 24.7046 4 24C4 23.2523 4.04112 22.5135 4.12135 21.7858C4.24241 20.6879 5.23059 19.896 6.3285 20.017ZM6.7372 29.4952C7.74606 29.0455 8.9285 29.4987 9.37826 30.5075C9.60634 31.0192 9.86058 31.5167 10.1393 31.9985C10.6924 32.9547 10.3657 34.1781 9.40954 34.7312C8.45341 35.2843 7.22996 34.9576 6.67687 34.0015C6.32839 33.399 6.01034 32.7766 5.72488 32.1363C5.27511 31.1274 5.72835 29.945 6.7372 29.4952Z" fill="#646464"/>
<path fill-rule="evenodd" clip-rule="evenodd" d="M22 6C22 4.89543 22.8954 4 24 4C35.0457 4 44 12.9543 44 24C44 35.0457 35.0457 44 24 44C18.8789 44 14.2032 42.0727 10.6662 38.9069C9.84312 38.1703 9.77308 36.9059 10.5097 36.0828C11.2464 35.2598 12.5108 35.1897 13.3338 35.9264C16.1659 38.4611 19.9008 40 24 40C32.8366 40 40 32.8366 40 24C40 15.1634 32.8366 8 24 8C22.8954 8 22 7.10457 22 6ZM24 14C25.1046 14 26 14.8954 26 16V26C26 27.1046 25.1046 28 24 28C22.8954 28 22 27.1046 22 26V16C22 14.8954 22.8954 14 24 14ZM24 30C25.1046 30 26 30.8954 26 32V33C26 34.1046 25.1046 35 24 35C22.8954 35 22 34.1046 22 33V32C22 30.8954 22.8954 30 24 30Z" fill="#646464"/>
</svg>
