<svg width="48" height="48" viewBox="0 0 48 48" fill="none" xmlns="http://www.w3.org/2000/svg">
<path fill-rule="evenodd" clip-rule="evenodd" d="M6 4C7.10457 4 8 4.89543 8 6V42C8 43.1046 7.10457 44 6 44C4.89543 44 4 43.1046 4 42V6C4 4.89543 4.89543 4 6 4ZM18 4C19.1046 4 20 4.89543 20 6V42C20 43.1046 19.1046 44 18 44C16.8954 44 16 43.1046 16 42V6C16 4.89543 16.8954 4 18 4ZM34 8C35.1046 8 36 8.89543 36 10V33.1716L40.5858 28.5858C41.3668 27.8047 42.6332 27.8047 43.4142 28.5858C44.1953 29.3668 44.1953 30.6332 43.4142 31.4142L35.4142 39.4142C34.6332 40.1953 33.3668 40.1953 32.5858 39.4142L24.5858 31.4142C23.8047 30.6332 23.8047 29.3668 24.5858 28.5858C25.3668 27.8047 26.6332 27.8047 27.4142 28.5858L32 33.1716V10C32 8.89543 32.8954 8 34 8Z" fill="#646464"/>
</svg>
