<svg width="48" height="48" viewBox="0 0 48 48" fill="none" xmlns="http://www.w3.org/2000/svg">
<path fill-rule="evenodd" clip-rule="evenodd" d="M15.036 6.14705C18.0096 5.04022 21.426 4.00049 23.9997 4.00049C26.5734 4.00049 29.9897 5.04022 32.9633 6.14705C36.02 7.28485 38.9221 8.61686 40.5822 9.41095C42.0551 10.1155 43.1514 11.4939 43.39 13.1992C43.6554 15.0968 43.9993 18.5978 43.9993 24.0001C43.9993 29.4025 43.6554 32.9034 43.39 34.801C43.1514 36.5063 42.0551 37.8848 40.5821 38.5893C38.9221 39.3834 36.02 40.7154 32.9633 41.8532C29.9898 42.9601 26.5734 43.9998 23.9997 43.9998C21.426 43.9998 18.0096 42.9601 15.036 41.8532C11.9793 40.7154 9.0772 39.3834 7.41719 38.5893C5.94423 37.8847 4.84791 36.5064 4.60937 34.8011C4.3439 32.9034 4 29.4024 4 24.0001C4 18.5979 4.3439 15.0969 4.60937 13.1992C4.84791 11.4939 5.94423 10.1156 7.41717 9.41095C9.0772 8.61686 11.9793 7.28485 15.036 6.14705ZM16.4314 9.89577C13.5337 10.9744 10.7523 12.2497 9.14329 13.0194C8.79896 13.1841 8.61133 13.4636 8.57079 13.7533C8.33314 15.4523 8 18.7672 8 24.0001C8 29.2331 8.33314 32.548 8.5708 34.247C8.61133 34.5367 8.79896 34.8162 9.14327 34.9809C10.7523 35.7506 13.5337 37.0259 16.4314 38.1045C19.4123 39.2141 22.2211 39.9998 23.9997 39.9998C25.7782 39.9998 28.587 39.2141 31.5679 38.1045C34.4656 37.0259 37.2471 35.7506 38.856 34.9809C39.2004 34.8162 39.388 34.5367 39.4286 34.247C39.6661 32.5479 39.9993 29.233 39.9993 24.0001C39.9993 18.7673 39.6661 15.4524 39.4286 13.7533C39.388 13.4636 39.2004 13.1841 38.856 13.0194C37.2471 12.2497 34.4656 10.9744 31.5679 9.89577C28.587 8.78621 25.7782 8.00049 23.9997 8.00049C22.2211 8.00049 19.4123 8.78621 16.4314 9.89577Z" fill="#646464"/>
<path fill-rule="evenodd" clip-rule="evenodd" d="M14.6597 17.7161C11.108 16.195 7.56131 14.4835 5.97677 13.7064L7.73817 10.1151C9.30093 10.8815 12.7763 12.5581 16.2345 14.0392C17.9659 14.7807 19.665 15.4611 21.1035 15.9526C22.6331 16.4751 23.6007 16.6869 24 16.6869C24.3993 16.6869 25.3669 16.4751 26.8965 15.9526C28.335 15.4611 30.0341 14.7807 31.7655 14.0392C35.2237 12.5581 38.6991 10.8815 40.2618 10.1151L42.0232 13.7064C40.4387 14.4835 36.892 16.195 33.3403 17.7161C31.5668 18.4757 29.764 19.1999 28.1896 19.7378C26.7063 20.2445 25.1499 20.6869 24 20.6869C22.8501 20.6869 21.2937 20.2445 19.8104 19.7378C18.236 19.1999 16.4332 18.4757 14.6597 17.7161Z" fill="#646464"/>
<path fill-rule="evenodd" clip-rule="evenodd" d="M24 16.6869C25.1046 16.6869 26 17.582 26 18.6865V42.0004C26 43.1049 25.1042 43.9998 23.9997 43.9998C22.8951 43.9998 22 43.1049 22 42.0004V18.6865C22 17.582 22.8954 16.6869 24 16.6869Z" fill="#646464"/>
</svg>
