<svg width="48" height="48" viewBox="0 0 48 48" fill="none" xmlns="http://www.w3.org/2000/svg">
<path d="M18 27.6001H30C31.1 27.6001 32 26.7001 32 25.6001C32 24.5001 31.1 23.6001 30 23.6001H18C16.9 23.6001 16 24.5001 16 25.6001C16 26.7001 16.9 27.6001 18 27.6001Z" fill="#646464"/>
<path d="M14 15H13C11.9 15 11 14.1 11 13C11 11.9 11.9 11 13 11H14C15.1 11 16 11.9 16 13C16 14.1 15.1 15 14 15Z" fill="#646464"/>
<path d="M13 21H14C15.1 21 16 20.1 16 19C16 17.9 15.1 17 14 17H13C11.9 17 11 17.9 11 19C11 20.1 11.9 21 13 21Z" fill="#646464"/>
<path d="M21 15H20C18.9 15 18 14.1 18 13C18 11.9 18.9 11 20 11H21C22.1 11 23 11.9 23 13C23 14.1 22.1 15 21 15Z" fill="#646464"/>
<path d="M20 21H21C22.1 21 23 20.1 23 19C23 17.9 22.1 17 21 17H20C18.9 17 18 17.9 18 19C18 20.1 18.9 21 20 21Z" fill="#646464"/>
<path d="M28 15H27C25.9 15 25 14.1 25 13C25 11.9 25.9 11 27 11H28C29.1 11 30 11.9 30 13C30 14.1 29.1 15 28 15Z" fill="#646464"/>
<path d="M34 15H35C36.1 15 37 14.1 37 13C37 11.9 36.1 11 35 11H34C32.9 11 32 11.9 32 13C32 14.1 32.9 15 34 15Z" fill="#646464"/>
<path d="M28 21H27C25.9 21 25 20.1 25 19C25 17.9 25.9 17 27 17H28C29.1 17 30 17.9 30 19C30 20.1 29.1 21 28 21Z" fill="#646464"/>
<path d="M34 21H35C36.1 21 37 20.1 37 19C37 17.9 36.1 17 35 17H34C32.9 17 32 17.9 32 19C32 20.1 32.9 21 34 21Z" fill="#646464"/>
<path fill-rule="evenodd" clip-rule="evenodd" d="M24 34C17.36 34 12.8 33.8 10.14 33.64C7.07998 33.46 4.65998 31.08 4.35998 27.98C4.11998 25.38 3.97998 22.36 3.97998 19C3.97998 15.64 4.09998 12.6 4.35998 10.02C4.65998 6.92 7.09998 4.54 10.14 4.36C12.8 4.2 17.36 4 24 4C30.64 4 35.2 4.2 37.86 4.36C40.92 4.54 43.34 6.92 43.64 10.02C43.88 12.64 44.02 15.66 44.02 19C44.02 22.34 43.9 25.38 43.64 27.98C43.34 31.08 40.92 33.46 37.86 33.64C35.2 33.8 30.64 34 24 34ZM10.38 8.34C9.27998 8.4 8.45998 9.24 8.33998 10.38C8.09998 12.86 7.97998 15.74 7.97998 18.98C7.97998 22.22 8.09998 25.12 8.33998 27.58C8.43998 28.74 9.25998 29.56 10.38 29.62C12.98 29.78 17.44 29.96 24 29.96C30.56 29.96 35.02 29.78 37.62 29.62C38.72 29.56 39.54 28.72 39.66 27.58C39.9 25.1 40.02 22.2 40.02 18.98C40.02 15.76 39.9 12.86 39.66 10.36C39.54 9.2 38.74 8.38 37.62 8.32C35.02 8.16 30.56 7.98 24 7.98C17.44 7.98 12.98 8.16 10.38 8.32V8.34Z" fill="#646464"/>
<path d="M18.9399 36.26C17.9799 36.38 17.6999 37.24 18.3399 37.9C18.7999 38.38 19.4399 39 20.2999 39.76C21.3399 40.68 22.1599 41.28 22.7599 41.66C23.5199 42.14 24.4399 42.14 25.1999 41.66C25.7999 41.28 26.6199 40.7 27.6599 39.76C28.5199 38.98 29.1599 38.38 29.6199 37.9C30.2599 37.24 29.9599 36.38 29.0199 36.26C27.9799 36.12 26.3999 36 23.9599 36C21.5199 36 19.9399 36.12 18.8999 36.26H18.9399Z" fill="#646464"/>
</svg>
