<svg width="48" height="48" viewBox="0 0 48 48" fill="none" xmlns="http://www.w3.org/2000/svg">
<path fill-rule="evenodd" clip-rule="evenodd" d="M22.2929 32.2929C22.9229 32.9229 22.4767 34 21.5858 34H15C14.4477 34 14 33.5523 14 33V26.4142C14 25.5233 15.0771 25.0771 15.7071 25.7071L22.2929 32.2929ZM26.4142 14C25.5233 14 25.0771 15.0771 25.7071 15.7071L32.2929 22.2929C32.9229 22.9229 34 22.4767 34 21.5858V15C34 14.4477 33.5523 14 33 14H26.4142Z" fill="#646464"/>
<path fill-rule="evenodd" clip-rule="evenodd" d="M24 8C17.7379 8 13.3773 8.23528 10.6681 8.45541C9.45459 8.554 8.554 9.45459 8.4554 10.6681C8.23528 13.3773 8 17.7379 8 24C8 30.2621 8.23528 34.6227 8.4554 37.3319C8.554 38.5454 9.4546 39.446 10.6681 39.5446C13.3773 39.7647 17.7379 40 24 40C30.2621 40 34.6227 39.7647 37.3319 39.5446C38.5454 39.446 39.446 38.5454 39.5446 37.3319C39.7647 34.6227 40 30.2621 40 24C40 17.7379 39.7647 13.3773 39.5446 10.6681C39.446 9.45459 38.5454 8.554 37.3319 8.45541C34.6227 8.23528 30.2621 8 24 8ZM10.3442 4.46854C13.1691 4.23902 17.6381 4 24 4C30.3619 4 34.8309 4.23902 37.6558 4.46854C40.8228 4.72585 43.2741 7.17719 43.5314 10.3442C43.761 13.1691 44 17.6381 44 24C44 30.3619 43.761 34.8309 43.5314 37.6558C43.2741 40.8228 40.8228 43.2741 37.6558 43.5314C34.8309 43.761 30.3619 44 24 44C17.6381 44 13.1691 43.761 10.3442 43.5314C7.1772 43.2741 4.72585 40.8228 4.46853 37.6558C4.23902 34.8309 4 30.3619 4 24C4 17.6381 4.23902 13.1691 4.46853 10.3442C4.72585 7.17721 7.17718 4.72585 10.3442 4.46854Z" fill="#646464"/>
</svg>
