<svg width="48" height="48" viewBox="0 0 48 48" fill="none" xmlns="http://www.w3.org/2000/svg">
<path fill-rule="evenodd" clip-rule="evenodd" d="M10.3442 4.46853C13.1691 4.23902 17.6381 4 24 4C30.3619 4 34.8309 4.23902 37.6558 4.46854C40.8228 4.72585 43.2741 7.1772 43.5314 10.3442C43.6512 11.8184 43.7736 13.7404 43.8632 16.1455C43.8662 16.1887 43.8678 16.2323 43.868 16.2762C43.9475 18.452 44 21.0181 44 24C44 30.3619 43.761 34.8309 43.5314 37.6558C43.2741 40.8228 40.8228 43.2741 37.6558 43.5314C34.8309 43.761 30.3619 44 24 44C17.6381 44 13.1691 43.761 10.3442 43.5314C7.17719 43.2741 4.72585 40.8228 4.46853 37.6558C4.23902 34.8309 4 30.3619 4 24C4 17.6381 4.23902 13.1691 4.46854 10.3442C4.72585 7.17719 7.1772 4.72584 10.3442 4.46853ZM39.7784 14.2858C39.7065 12.854 39.6245 11.6521 39.5446 10.6681C39.446 9.45459 38.5454 8.554 37.3319 8.45541C34.6227 8.23528 30.2621 8 24 8C17.7379 8 13.3773 8.23528 10.6681 8.4554C9.45459 8.55399 8.554 9.45459 8.45541 10.6681C8.37545 11.6521 8.2935 12.854 8.22155 14.2858H39.7784ZM32.8572 18.2858H39.9289C39.973 19.9792 40 21.8807 40 24C40 30.2621 39.7647 34.6227 39.5446 37.3319C39.446 38.5454 38.5454 39.446 37.3319 39.5446C36.1574 39.64 34.6727 39.7383 32.8572 39.819V18.2858ZM28.8572 18.2858H8.07114C8.02695 19.9792 8 21.8807 8 24C8 30.2621 8.23528 34.6227 8.4554 37.3319C8.554 38.5454 9.45459 39.446 10.6681 39.5446C13.3773 39.7647 17.7379 40 24 40C25.7689 40 27.3861 39.9812 28.8572 39.9493V18.2858Z" fill="#646464"/>
</svg>
