<svg width="48" height="48" viewBox="0 0 48 48" fill="none" xmlns="http://www.w3.org/2000/svg">
<path fill-rule="evenodd" clip-rule="evenodd" d="M24 8C17.4228 8 12.0908 13.3319 12.0908 19.9091C12.0908 23.6194 13.7851 26.9322 16.4496 29.1195C16.8043 29.4106 17.0481 29.8149 17.1401 30.2645C17.2721 30.9098 17.4272 31.371 17.6003 31.8444C17.6262 31.9153 17.6537 31.9892 17.6822 32.0662C17.8415 32.495 18.0355 33.0176 18.1948 33.633C18.1948 33.633 18.1948 33.6331 18.1948 33.6331C18.2129 33.7026 18.2432 33.7391 18.2595 33.7538C18.2677 33.7611 18.2737 33.7644 18.2772 33.766C18.2801 33.7673 18.2858 33.7695 18.2975 33.7707C19.3725 33.8791 21.1998 34 24 34C25.0236 34 25.9172 33.9838 26.6915 33.958C28.0345 33.9133 29.0187 33.8395 29.7004 33.7707L29.7008 33.7706C29.7071 33.77 29.711 33.7691 29.7131 33.7686C29.7161 33.7678 29.719 33.767 29.722 33.7663C29.7223 33.7662 29.7225 33.7661 29.7227 33.766C29.7262 33.7644 29.7322 33.7611 29.7404 33.7538C29.7568 33.7391 29.7871 33.7026 29.8051 33.6331C29.8051 33.6331 29.8051 33.633 29.8051 33.633C29.9644 33.0177 30.1584 32.4951 30.3177 32.0662C30.3463 31.9892 30.3737 31.9153 30.3997 31.8444C30.5728 31.371 30.7278 30.9098 30.8598 30.2645C30.9518 29.8149 31.1956 29.4106 31.5503 29.1195C34.2148 26.9322 35.9091 23.6194 35.9091 19.9091C35.9091 13.3319 30.5772 8 24 8ZM26.8303 37.9556C27.2388 37.942 27.6185 37.9257 27.9706 37.9076L27.9689 37.9232C27.9282 38.2992 27.7512 38.9079 27.4731 39.4042C27.3574 39.6108 27.2545 39.7428 27.1845 39.8156C26.3625 39.9168 25.2934 39.9999 23.998 39.9999C22.7062 39.9999 21.7036 39.9173 20.9677 39.8191C20.9202 39.7562 20.8588 39.6639 20.7889 39.5363C20.5469 39.095 20.3683 38.5373 20.301 38.1791L20.301 38.179C20.2852 38.0947 20.269 38.008 20.2526 37.9188C21.2727 37.9673 22.5117 38.0001 23.998 38.0001C25.0664 38.0001 26.007 37.9832 26.8303 37.9556ZM16.0449 37.087C16.1589 37.7694 16.2708 38.3904 16.3697 38.9171C16.3697 38.9172 16.3697 38.9172 16.3697 38.9172C16.506 39.643 16.8146 40.6079 17.2815 41.4595C17.5166 41.8883 17.832 42.3624 18.247 42.7688C18.6577 43.1709 19.2753 43.611 20.1011 43.736L20.1012 43.736C21.0596 43.8809 22.3486 43.9999 23.998 43.9999C25.5665 43.9999 26.8669 43.8923 27.8725 43.7603L27.8726 43.7603C29.517 43.5444 30.4935 42.197 30.9629 41.359C31.4982 40.4035 31.8456 39.2778 31.9457 38.354L32.0934 36.99C32.8744 36.4174 33.4334 35.5783 33.6775 34.6354L33.6775 34.6353C33.7817 34.2326 33.8978 33.9187 34.0543 33.4954C34.0865 33.4082 34.1204 33.3164 34.1564 33.2181C34.3081 32.8032 34.4703 32.3349 34.6198 31.7549C37.8637 28.8449 39.9091 24.6151 39.9091 19.9091C39.9091 11.1228 32.7863 4 24 4C15.2136 4 8.09082 11.1228 8.09082 19.9091C8.09082 24.6151 10.1362 28.8449 13.3801 31.7549C13.5296 32.3349 13.6918 32.8032 13.8436 33.2181C13.8795 33.3164 13.9135 33.4082 13.9457 33.4954C14.1021 33.9187 14.2182 34.2326 14.3224 34.6353L14.3224 34.6354C14.5807 35.6331 15.1915 36.5146 16.0449 37.087ZM21.0515 39.9165C21.0543 39.9188 21.0557 39.92 21.0557 39.9201C21.0557 39.9202 21.0543 39.919 21.0515 39.9165ZM27.1271 39.8684C27.1271 39.8684 27.128 39.8677 27.1298 39.8665C27.128 39.8679 27.1271 39.8685 27.1271 39.8684Z" fill="#646464"/>
</svg>
