<svg width="48" height="48" viewBox="0 0 48 48" fill="none" xmlns="http://www.w3.org/2000/svg">
<path d="M16.88 42.98C13.58 42.98 10.28 41.72 7.75998 39.22C5.31998 36.78 3.97998 33.54 3.97998 30.1C3.97998 26.66 5.31998 23.42 7.75998 20.98L13.26 15.48C14.04 14.7 15.3 14.7 16.08 15.48C16.86 16.26 16.86 17.52 16.08 18.3L10.58 23.8C8.89998 25.48 7.97998 27.72 7.97998 30.08C7.97998 32.44 8.89998 34.68 10.58 36.36C14.04 39.82 19.68 39.82 23.16 36.36L24.26 35.26C25.04 34.48 26.3 34.48 27.08 35.26C27.86 36.04 27.86 37.3 27.08 38.08L25.98 39.18C23.46 41.7 20.16 42.96 16.86 42.96L16.88 42.98ZM32.3 32.08C31.78 32.08 31.28 31.88 30.88 31.5C30.1 30.72 30.1 29.46 30.88 28.68L36.38 23.18C39.84 19.72 39.84 14.08 36.38 10.6C34.7 8.92 32.46 8 30.1 8C27.74 8 25.5 8.92 23.82 10.6L22.72 11.7C21.94 12.48 20.68 12.48 19.9 11.7C19.12 10.92 19.12 9.66 19.9 8.88L21 7.78C23.44 5.34 26.66 4 30.12 4C33.58 4 36.8 5.34 39.24 7.78C41.68 10.22 43.02 13.46 43.02 16.9C43.02 20.34 41.68 23.58 39.24 26.02L33.74 31.52C33.34 31.92 32.84 32.1 32.32 32.1L32.3 32.08ZM16.88 32.08C16.36 32.08 15.86 31.88 15.46 31.5C14.68 30.72 14.68 29.46 15.46 28.68L28.66 15.48C29.44 14.7 30.7 14.7 31.48 15.48C32.26 16.26 32.26 17.52 31.48 18.3L18.28 31.5C17.88 31.9 17.38 32.08 16.86 32.08H16.88Z" fill="#646464"/>
</svg>
