<svg width="48" height="48" viewBox="0 0 48 48" fill="none" xmlns="http://www.w3.org/2000/svg">
<path fill-rule="evenodd" clip-rule="evenodd" d="M24 13.0293C19.1748 13.0293 15.2632 16.941 15.2632 21.7662C15.2632 26.5914 19.1748 30.503 24 30.503C28.8252 30.503 32.7368 26.5914 32.7368 21.7662C32.7368 16.9409 28.8252 13.0293 24 13.0293ZM19.2632 21.7662C19.2632 19.1501 21.384 17.0293 24 17.0293C26.6161 17.0293 28.7368 19.15 28.7368 21.7662C28.7368 24.3823 26.6161 26.503 24 26.503C21.3839 26.503 19.2632 24.3823 19.2632 21.7662Z" fill="#646464"/>
<path fill-rule="evenodd" clip-rule="evenodd" d="M24 3.76611C14.0589 3.76611 6 11.825 6 21.7661C6 27.559 8.68552 32.3169 11.8 35.8855C14.9132 39.4525 18.573 41.9724 20.841 43.3463C22.7953 44.5303 25.2047 44.5302 27.159 43.3463C29.4269 41.9724 33.0868 39.4526 36.2 35.8855C39.3145 32.3169 42 27.559 42 21.7661C42 11.825 33.9411 3.76611 24 3.76611ZM10 21.7661C10 14.0341 16.2681 7.76611 24 7.76611C31.732 7.76611 38 14.0341 38 21.7661C38 26.2612 35.9226 30.1201 33.1863 33.2553C30.4487 36.3921 27.1699 38.663 25.0865 39.9251C24.4061 40.3373 23.5939 40.3373 22.9137 39.9252C20.8302 38.6631 17.5513 36.3921 14.8137 33.2553C12.0774 30.1201 10 26.2612 10 21.7661Z" fill="#646464"/>
</svg>
