<svg width="48" height="48" viewBox="0 0 48 48" fill="none" xmlns="http://www.w3.org/2000/svg">
<path fill-rule="evenodd" clip-rule="evenodd" d="M24 21.0908C19.6857 21.0908 16.6696 21.2276 14.6007 21.3934C12.7317 21.5433 11.5275 22.7736 11.4187 24.639C11.3341 26.093 11.2727 28.0192 11.2727 30.5454C11.2727 33.3055 11.3584 35.3444 11.471 36.8304C11.5944 38.457 12.6536 39.5266 14.3291 39.6714C16.3789 39.8486 19.461 39.9999 24 39.9999C28.5389 39.9999 31.6211 39.8486 33.6709 39.6714C35.3464 39.5266 36.4056 38.457 36.5289 36.8303C36.6416 35.3443 36.7273 33.3055 36.7273 30.5454C36.7273 27.7853 36.6416 25.7464 36.5289 24.2604C36.4056 22.6338 35.3464 21.5641 33.6709 21.4193C31.6211 21.2422 28.5389 21.0908 24 21.0908ZM7.42549 24.4066C7.65063 20.5419 10.4283 17.7151 14.281 17.4062C16.4794 17.23 19.605 17.0908 24 17.0908C28.6227 17.0908 31.8236 17.2448 34.0152 17.4342C37.5934 17.7433 40.2422 20.3267 40.5175 23.958C40.6392 25.5634 40.7273 27.7052 40.7273 30.5454C40.7273 33.3856 40.6392 35.5273 40.5175 37.1327C40.2422 40.764 37.5934 43.3474 34.0152 43.6566C31.8236 43.846 28.6227 43.9999 24 43.9999C19.3773 43.9999 16.1764 43.846 13.9847 43.6566C10.4065 43.3474 7.75778 40.764 7.48248 37.1327C7.36079 35.5273 7.27271 33.3856 7.27271 30.5454C7.27271 27.956 7.33564 25.951 7.42549 24.4066Z" fill="#646464"/>
<path fill-rule="evenodd" clip-rule="evenodd" d="M14.2181 13.419C14.4172 8.1603 18.7382 4 24.0005 4C29.2629 4 33.5839 8.16029 33.783 13.4189L34.0027 19.2183C34.0446 20.322 33.1837 21.2507 32.0799 21.2926C30.9761 21.3344 30.0474 20.4735 30.0056 19.3697L29.7858 13.5703C29.6681 10.4605 27.1128 8 24.0005 8C20.8883 8 18.333 10.4604 18.2152 13.5704L17.9956 19.3682C17.9538 20.472 17.0251 21.3329 15.9214 21.2911C14.8176 21.2493 13.9567 20.3206 13.9985 19.2168L14.2181 13.419Z" fill="#646464"/>
<path fill-rule="evenodd" clip-rule="evenodd" d="M24 26.9092C25.1046 26.9092 26 27.8046 26 28.9092V32.1819C26 33.2865 25.1046 34.1819 24 34.1819C22.8954 34.1819 22 33.2865 22 32.1819V28.9092C22 27.8046 22.8954 26.9092 24 26.9092Z" fill="#646464"/>
</svg>
