<svg width="48" height="48" viewBox="0 0 48 48" fill="none" xmlns="http://www.w3.org/2000/svg">
<path fill-rule="evenodd" clip-rule="evenodd" d="M6.22335 14.8271C9.54571 8.40023 16.2573 4 24 4C35.0457 4 44 12.9543 44 24C44 35.0457 35.0457 44 24 44C16.2573 44 9.54571 39.5998 6.22335 33.1729C5.71611 32.1916 6.10035 30.985 7.08157 30.4778C8.06279 29.9705 9.26941 30.3548 9.77665 31.336C12.4392 36.4865 17.8109 40 24 40C32.8366 40 40 32.8366 40 24C40 15.1634 32.8366 8 24 8C17.8109 8 12.4392 11.5135 9.77665 16.664C9.26941 17.6452 8.06279 18.0295 7.08157 17.5222C6.10035 17.015 5.71611 15.8084 6.22335 14.8271ZM22.4 14.8C23.0627 13.9163 24.3163 13.7373 25.2 14.4L24 16C25.2 14.4 25.2 14.4 25.2 14.4L25.2025 14.4018L25.2271 14.4204L25.2983 14.4743C25.3599 14.521 25.449 14.5888 25.5618 14.6754C25.7872 14.8485 26.1076 15.0968 26.4914 15.4007C27.257 16.0068 28.2842 16.8412 29.317 17.7448C30.3402 18.6401 31.4127 19.6414 32.2448 20.5775C32.6585 21.0429 33.0552 21.5392 33.3596 22.0338C33.6245 22.4643 34 23.1739 34 24C34 24.8261 33.6245 25.5357 33.3596 25.9662C33.0552 26.4608 32.6585 26.9571 32.2448 27.4225C31.4127 28.3586 30.3402 29.3599 29.317 30.2552C28.2842 31.1588 27.257 31.9932 26.4914 32.5993C26.1076 32.9032 25.7872 33.1515 25.5618 33.3246C25.449 33.4112 25.3599 33.479 25.2983 33.5257L25.2271 33.5796L25.2003 33.5997C25.2003 33.5997 25.2 33.6 24 32L25.2003 33.5997C24.3167 34.2625 23.0627 34.0837 22.4 33.2C21.7373 32.3163 21.9163 31.0627 22.8 30.4L22.8038 30.3972L22.8188 30.3858L22.8814 30.3385C22.937 30.2964 23.0197 30.2334 23.1257 30.152C23.3378 29.9891 23.6424 29.7531 24.0086 29.4632C24.743 28.8818 25.7158 28.0912 26.683 27.2448C27.1583 26.829 27.6219 26.4086 28.0496 26H6C4.89543 26 4 25.1046 4 24C4 22.8954 4.89543 22 6 22H28.0496C27.6219 21.5914 27.1583 21.171 26.683 20.7552C25.7158 19.9088 24.743 19.1182 24.0086 18.5368C23.6424 18.2469 23.3378 18.0109 23.1257 17.848C23.0197 17.7666 22.937 17.7036 22.8814 17.6615L22.8188 17.6142L22.8038 17.6028L22.8004 17.6003C21.9168 16.9376 21.7373 15.6837 22.4 14.8Z" fill="#646464"/>
</svg>
