<svg width="48" height="48" viewBox="0 0 48 48" fill="none" xmlns="http://www.w3.org/2000/svg">
<path fill-rule="evenodd" clip-rule="evenodd" d="M6.08888 15.1099C9.35914 8.52937 16.1532 4 24.0089 4C35.0546 4 44.0089 12.9543 44.0089 24C44.0089 35.0457 35.0546 44 24.0089 44C16.1532 44 9.35915 39.4706 6.08888 32.8901C5.59731 31.9009 6.00069 30.7005 6.98985 30.209C7.979 29.7174 9.17937 30.1208 9.67094 31.1099C12.2915 36.3831 17.7296 40 24.0089 40C32.8454 40 40.0089 32.8366 40.0089 24C40.0089 15.1634 32.8454 8 24.0089 8C17.7296 8 12.2915 11.6169 9.67094 16.8901C9.17937 17.8792 7.979 18.2826 6.98984 17.791C6.00069 17.2995 5.59731 16.0991 6.08888 15.1099ZM20.4657 14.5819C21.2467 13.8008 22.513 13.8008 23.2941 14.5819L31.2941 22.5819C32.0751 23.3629 32.0751 24.6292 31.2941 25.4103L23.2941 33.4103C22.513 34.1913 21.2467 34.1913 20.4657 33.4103C19.6846 32.6292 19.6846 31.3629 20.4657 30.5819L25.0515 25.9961H5.87988C4.77531 25.9961 3.87988 25.1006 3.87988 23.9961C3.87988 22.8915 4.77531 21.9961 5.87988 21.9961H25.0515L20.4657 17.4103C19.6846 16.6292 19.6846 15.3629 20.4657 14.5819Z" fill="#646464"/>
</svg>
