<svg width="48" height="48" viewBox="0 0 48 48" fill="none" xmlns="http://www.w3.org/2000/svg">
<path d="M44 21.7758H32.3034L42.4332 15.9274L40.2087 12.0732L30.0789 17.9216L35.926 7.79263L32.0718 5.56674L26.2247 15.6957V4H21.7753V15.6968L15.9259 5.56674L12.073 7.79151L17.9212 17.9205L7.7914 12.0732L5.5667 15.9262L15.6965 21.7747H4V26.2242H15.6954L5.5667 32.0726L7.7914 35.9268L17.9201 30.0795L12.0719 40.2085L15.9259 42.4332L21.7742 32.3032V44H26.2236V32.3043L32.0707 42.4332L35.9247 40.2085L30.0765 30.0784L40.2063 35.9268L42.4311 32.0726L32.3024 26.2253H43.9977V21.7758H44ZM24 30.0514C20.6451 30.0514 17.9257 27.3322 17.9257 23.9771C17.9257 20.622 20.6451 17.9026 24 17.9026C27.355 17.9026 30.0742 20.622 30.0742 23.9771C30.0742 27.3322 27.355 30.0514 24 30.0514Z" fill="#625DF5"/>
</svg>
