<svg width="48" height="48" viewBox="0 0 48 48" fill="none" xmlns="http://www.w3.org/2000/svg">
<path d="M6 9C6 7.89543 6.89543 7 8 7H40C41.1046 7 42 7.89543 42 9C42 10.1046 41.1046 11 40 11H8C6.89543 11 6 10.1046 6 9Z" fill="#646464"/>
<path d="M6 19C6 17.8954 6.89543 17 8 17H40C41.1046 17 42 17.8954 42 19C42 20.1046 41.1046 21 40 21H8C6.89543 21 6 20.1046 6 19Z" fill="#646464"/>
<path d="M6 29C6 27.8954 6.89543 27 8 27H40C41.1046 27 42 27.8954 42 29C42 30.1046 41.1046 31 40 31H8C6.89543 31 6 30.1046 6 29Z" fill="#646464"/>
<path d="M6 39C6 37.8954 6.89543 37 8 37H24C25.1046 37 26 37.8954 26 39C26 40.1046 25.1046 41 24 41H8C6.89543 41 6 40.1046 6 39Z" fill="#646464"/>
</svg>
