<svg width="48" height="48" viewBox="0 0 48 48" fill="none" xmlns="http://www.w3.org/2000/svg">
<path fill-rule="evenodd" clip-rule="evenodd" d="M10.3442 4.46853C13.1691 4.23902 17.6381 4 24 4C25.1046 4 26 4.89543 26 6C26 7.10457 25.1046 8 24 8C17.7379 8 13.3773 8.23528 10.6681 8.4554C9.45459 8.55399 8.554 9.45458 8.4554 10.6681C8.23528 13.3773 8 17.7379 8 24C8 30.2621 8.23528 34.6227 8.4554 37.3319C8.554 38.5454 9.45459 39.446 10.6681 39.5446C13.3773 39.7647 17.7379 40 24 40C30.2621 40 34.6227 39.7647 37.3319 39.5446C38.5454 39.446 39.446 38.5454 39.5446 37.3319C39.7647 34.6227 40 30.2621 40 24C40 22.8954 40.8954 22 42 22C43.1046 22 44 22.8954 44 24C44 30.3619 43.761 34.8309 43.5314 37.6558C43.2741 40.8228 40.8228 43.2741 37.6558 43.5314C34.8309 43.761 30.3619 44 24 44C17.6381 44 13.1691 43.761 10.3442 43.5314C7.17719 43.2741 4.72585 40.8228 4.46853 37.6558C4.23902 34.8309 4 30.3619 4 24C4 17.6381 4.23902 13.1691 4.46853 10.3442C4.72585 7.1772 7.17719 4.72584 10.3442 4.46853Z" fill="#646464"/>
<path d="M44 11C44 14.866 40.866 18 37 18C33.134 18 30 14.866 30 11C30 7.13401 33.134 4 37 4C40.866 4 44 7.13401 44 11Z" fill="#646464"/>
</svg>
