<svg width="48" height="48" viewBox="0 0 48 48" fill="none" xmlns="http://www.w3.org/2000/svg">
<path fill-rule="evenodd" clip-rule="evenodd" d="M10.3442 4.46853C13.1691 4.23902 17.6381 4 24 4C25.1046 4 26 4.89543 26 6C26 7.10457 25.1046 8 24 8C17.7379 8 13.3773 8.23528 10.6681 8.4554C9.45459 8.55399 8.554 9.45458 8.4554 10.6681C8.23528 13.3773 8 17.7379 8 24C8 30.2621 8.23528 34.6227 8.4554 37.3319C8.554 38.5454 9.45459 39.446 10.6681 39.5446C13.3773 39.7647 17.7379 40 24 40C30.2621 40 34.6227 39.7647 37.3319 39.5446C38.5454 39.446 39.446 38.5454 39.5446 37.3319C39.7647 34.6227 40 30.2621 40 24C40 22.8954 40.8954 22 42 22C43.1046 22 44 22.8954 44 24C44 30.3619 43.761 34.8309 43.5314 37.6558C43.2741 40.8228 40.8228 43.2741 37.6558 43.5314C34.8309 43.761 30.3619 44 24 44C17.6381 44 13.1691 43.761 10.3442 43.5314C7.17719 43.2741 4.72585 40.8228 4.46853 37.6558C4.23902 34.8309 4 30.3619 4 24C4 17.6381 4.23902 13.1691 4.46853 10.3442C4.72585 7.1772 7.17719 4.72584 10.3442 4.46853Z" fill="#646464"/>
<path fill-rule="evenodd" clip-rule="evenodd" d="M36 8C33.7908 8 32 9.79086 32 12C32 14.2092 33.7908 16 36 16C38.2092 16 40 14.2092 40 12C40 9.79086 38.2092 8 36 8ZM28 12C28 7.58173 31.5817 4 36 4C40.4183 4 44 7.58173 44 12C44 16.4183 40.4183 20 36 20C31.5817 20 28 16.4183 28 12Z" fill="#646464"/>
</svg>
