<svg width="48" height="48" viewBox="0 0 48 48" fill="none" xmlns="http://www.w3.org/2000/svg">
<path fill-rule="evenodd" clip-rule="evenodd" d="M4 24.0007C4 35.0464 12.9543 44.0007 24 44.0007C35.0457 44.0007 44 35.0464 44 24.0007C44 12.955 35.0457 4.00073 24 4.00073C12.9543 4.00073 4 12.955 4 24.0007ZM15.6556 25.1224C15.0399 26.0308 13.8055 26.274 12.8908 25.6641C11.9718 25.0514 11.7234 23.8097 12.3361 22.8906C12.3361 22.8906 12.3907 22.8112 12.4267 22.7611C12.4988 22.6609 12.5376 22.6108 12.6182 22.5095C12.7786 22.3076 13.0085 22.0384 13.3048 21.7421C13.8878 21.1591 14.7811 20.418 15.9624 19.9118C17.1702 19.3941 18.6665 19.1301 20.3562 19.52C22.0274 19.9057 23.7207 20.8921 25.4144 22.5858C26.7207 23.8921 27.7774 24.4057 28.5437 24.5825C29.2915 24.7551 29.9201 24.6441 30.4624 24.4118C31.0311 24.168 31.5128 23.7841 31.8672 23.4296C32.1252 23.1716 32.29 22.9536 32.3339 22.8929C32.9673 22.0049 34.1796 21.7159 35.1096 22.336C36.0287 22.9487 36.277 24.1904 35.6643 25.1095C35.3647 25.5144 35.0529 25.9008 34.6957 26.258C34.1126 26.841 33.2193 27.5821 32.038 28.0883C30.8303 28.6059 29.3339 28.87 27.6442 28.4801C25.973 28.0944 24.2797 27.108 22.586 25.4143C21.2797 24.108 20.2231 23.5944 19.4568 23.4176C18.7089 23.245 18.0803 23.3559 17.5381 23.5883C16.9693 23.8321 16.4877 24.216 16.1332 24.5705C15.9615 24.7422 15.7968 24.9244 15.6556 25.1224Z" fill="#FFC53D"/>
</svg>
