<svg width="48" height="48" viewBox="0 0 48 48" fill="none" xmlns="http://www.w3.org/2000/svg">
<path fill-rule="evenodd" clip-rule="evenodd" d="M4 38C4 39.1046 4.89543 40 6 40H34C35.1046 40 36 39.1046 36 38C36 36.8954 35.1046 36 34 36H6C4.89543 36 4 36.8954 4 38ZM4 24C4 25.1046 4.89543 26 6 26H42C43.1046 26 44 25.1046 44 24C44 22.8954 43.1046 22 42 22H6C4.89543 22 4 22.8954 4 24ZM4 10C4 11.1046 4.89543 12 6 12H26C27.1046 12 28 11.1046 28 10C28 8.89543 27.1046 8 26 8H6C4.89543 8 4 8.89543 4 10Z" fill="#646464"/>
</svg>
