<svg width="48" height="48" viewBox="0 0 48 48" fill="none" xmlns="http://www.w3.org/2000/svg">
<path fill-rule="evenodd" clip-rule="evenodd" d="M9.82146 8.69394C17.3412 8.10203 30.6589 8.10201 38.179 8.69393C40.9317 8.91059 43.0851 11.0654 43.3331 13.7982C43.6101 16.8502 43.7493 20.4018 43.7506 23.9555C43.7509 23.9703 43.7511 23.9851 43.7511 24C43.7511 24.0149 43.7509 24.0297 43.7506 24.0445C43.7496 27.5984 43.6106 31.1503 43.3334 34.2025C43.0852 36.9351 40.9319 39.0894 38.1797 39.306C30.6603 39.8979 17.3423 39.8978 9.82204 39.306C7.06937 39.0893 4.91594 36.9346 4.66791 34.2018C4.11158 28.0722 4.11122 19.9275 4.66761 13.7979C4.91566 11.0652 7.069 8.9106 9.82146 8.69394ZM39.7355 22H36C34.8954 22 34 22.8955 34 24C34 25.1046 34.8954 26 36 26H39.7356C39.694 28.765 39.5654 31.4666 39.3498 33.8407C39.2764 34.6488 38.6578 35.256 37.8658 35.3183C30.5553 35.8938 17.4473 35.8937 10.1359 35.3183C9.3437 35.256 8.72491 34.6486 8.65153 33.8402C8.43606 31.4661 8.30739 28.7648 8.26558 26H12C13.1046 26 14 25.1046 14 24C14 22.8955 13.1046 22 12 22H8.26548C8.30716 19.2351 8.43572 16.5336 8.65123 14.1595C8.7246 13.3512 9.34326 12.744 10.1354 12.6816C17.4461 12.1061 30.5539 12.1061 37.8652 12.6816C38.6573 12.7439 39.2761 13.3513 39.3495 14.1598C39.565 16.5339 39.6937 19.2353 39.7355 22ZM24.0004 17C25.105 17 26.0004 17.8954 26.0004 19V22.0001H29.0004C30.105 22.0001 31.0004 22.8955 31.0004 24.0001C31.0004 25.1046 30.105 26.0001 29.0004 26.0001H26.0004V29C26.0004 30.1046 25.105 31 24.0004 31C22.8959 31 22.0004 30.1046 22.0004 29V26.0001H19.0005C17.8959 26.0001 17.0005 25.1046 17.0005 24.0001C17.0005 22.8955 17.8959 22.0001 19.0005 22.0001H22.0004V19C22.0004 17.8954 22.8959 17 24.0004 17Z" fill="#646464"/>
</svg>
