<svg width="48" height="48" viewBox="0 0 48 48" fill="none" xmlns="http://www.w3.org/2000/svg">
<path fill-rule="evenodd" clip-rule="evenodd" d="M28.08 5.54001C25.7 3.50001 22.28 3.50001 19.92 5.54001C18.2 7.02001 15.74 9.28001 12.5 12.5C9.28001 15.72 7.02001 18.2 5.54001 19.92C3.50001 22.3 3.50001 25.72 5.54001 28.08C7.02001 29.8 9.28001 32.26 12.5 35.5C15.72 38.72 18.2 40.98 19.92 42.46C22.3 44.5 25.72 44.5 28.08 42.46C29.8 40.98 32.26 38.72 35.5 35.5C38.74 32.28 40.98 29.8 42.46 28.08C44.5 25.7 44.5 22.28 42.46 19.92C40.98 18.2 38.72 15.74 35.5 12.5C32.28 9.28001 29.8 7.02001 28.08 5.54001ZM22.54 8.56001C23.4 7.80001 24.6 7.80001 25.48 8.56001C27.12 9.98001 29.52 12.16 32.68 15.32C35.84 18.48 38.04 20.88 39.44 22.52C40.2 23.38 40.2 24.58 39.44 25.46C38.02 27.1 35.84 29.5 32.68 32.66C29.52 35.82 27.12 38.02 25.48 39.42C24.62 40.18 23.42 40.18 22.54 39.42C20.9 38 18.5 35.82 15.34 32.66C12.18 29.5 9.98001 27.1 8.58001 25.46C7.82001 24.6 7.82001 23.4 8.58001 22.52C10 20.88 12.18 18.48 15.34 15.32C18.5 12.16 20.9 9.96001 22.54 8.56001ZM31.42 22.42C32.2 21.64 32.2 20.38 31.42 19.6C30.64 18.82 29.38 18.82 28.6 19.6L22.02 26.18L19.44 23.6C18.66 22.82 17.4 22.82 16.62 23.6C15.84 24.38 15.84 25.64 16.62 26.42L20.62 30.42C21.4 31.2 22.66 31.2 23.44 30.42L31.44 22.42H31.42Z" fill="#646464"/>
</svg>
