<svg width="48" height="48" viewBox="0 0 48 48" fill="none" xmlns="http://www.w3.org/2000/svg">
<path fill-rule="evenodd" clip-rule="evenodd" d="M39.4142 8.58579C38.6332 7.80474 37.3668 7.80474 36.5858 8.58579L30 15.1716V12C30 10.8954 29.1046 10 28 10C26.8954 10 26 10.8954 26 12V20C26 21.1046 26.8954 22 28 22H36C37.1046 22 38 21.1046 38 20C38 18.8954 37.1046 18 36 18H32.8284L39.4142 11.4142C40.1953 10.6332 40.1953 9.36684 39.4142 8.58579ZM22 28C22 26.8954 21.1046 26 20 26H12C10.8954 26 10 26.8954 10 28C10 29.1046 10.8954 30 12 30H15.1716L8.58579 36.5858C7.80474 37.3668 7.80474 38.6332 8.58579 39.4142C9.36684 40.1953 10.6332 40.1953 11.4142 39.4142L18 32.8284V36C18 37.1046 18.8954 38 20 38C21.1046 38 22 37.1046 22 36V28Z" fill="#646464"/>
</svg>
