<svg width="48" height="48" viewBox="0 0 48 48" fill="none" xmlns="http://www.w3.org/2000/svg">
<path d="M10.22 41.5C12.7 41.72 17.12 41.96 24 41.96L23.96 41.98C25.06 41.98 25.96 41.08 25.96 39.98C25.96 38.88 25.06 37.98 23.96 37.98C17.22 37.98 12.92 37.74 10.5 37.54C9.36 37.46 8.52 36.6 8.42 35.44C8.18 32.46 7.96 29.18 7.96 23.14C7.96 17.1 8.18 13.58 8.42 10.66C8.52 9.46 9.44 8.54 10.66 8.42C12.92 8.2 15.32 8.08 17.84 8.02C18.94 8.04 19.84 8.5 20.42 9.38L21.56 11.1C22.42 12.36 23.82 13.14 25.36 13.14C30.76 13.16 34.8 13.4 37.24 13.6C38.5 13.7 39.48 14.64 39.6 15.9C39.719 16.9909 39.7003 17.3736 39.661 18.1797L39.66 18.2C39.6564 18.3123 39.6521 18.4304 39.6475 18.5568C39.6268 19.1287 39.6 19.8699 39.6 21C39.6 22.1 40.5 23 41.6 23C42.7 23 43.6 22.1 43.6 21C43.6 19.9373 43.6267 19.2488 43.6474 18.7161C43.652 18.5971 43.6563 18.4859 43.66 18.38C43.6623 18.3302 43.6645 18.2813 43.6668 18.2332C43.7039 17.4296 43.7321 16.8219 43.6 15.52C43.28 12.34 40.76 9.86 37.56 9.6C35.06 9.4 30.92 9.16 25.4 9.12C25.2 9.12 25 9.02 24.9 8.86L23.76 7.16C22.42 5.12 20.2 4 17.78 4C15.16 4.06 12.66 4.2 10.32 4.4C7.18 4.7 4.72 7.18 4.46 10.32C4.22 13.32 4 16.82 4 23.12C4 29.42 4.24 32.8 4.48 35.74C4.74 38.88 7.1 41.24 10.22 41.5Z" fill="#646464"/>
<path d="M32.92 41.72H41.76C42.02 41.7 42.24 41.66 42.48 41.56C42.72 41.46 42.92 41.34 43.1 41.16L43.16 41.1C43.34 40.92 43.46 40.72 43.56 40.5C43.66 40.26 43.72 40 43.72 39.72V30.92C43.72 29.82 42.82 28.92 41.72 28.92C40.62 28.92 39.72 29.82 39.72 30.92V34.9L31.82 27C31.04 26.22 29.78 26.22 29 27C28.22 27.78 28.22 29.04 29 29.82L36.9 37.72H32.92C31.82 37.72 30.92 38.62 30.92 39.72C30.92 40.82 31.82 41.72 32.92 41.72Z" fill="#646464"/>
</svg>
