<svg width="48" height="48" viewBox="0 0 48 48" fill="none" xmlns="http://www.w3.org/2000/svg">
<path d="M35.0908 24C35.0908 19.1691 34.9903 15.4642 34.8701 12.7715L34.7451 10.4121C34.68 9.34523 33.9841 8.57518 33.0498 8.40039L32.8604 8.37305C32.193 8.30787 31.4144 8.24954 30.5205 8.19336L30.3525 10.1699L30.3447 10.248C30.0835 12.3378 28.4011 13.9389 26.3408 14.1309L25.9248 14.1504H22.0752C19.9695 14.1501 18.1718 12.6802 17.7256 10.6602L17.6553 10.248L17.6475 10.1699L17.4775 8.19336C17.2404 8.20827 17.011 8.21848 16.79 8.23438L15.1396 8.37305C14.1756 8.46733 13.4238 9.17716 13.2764 10.2031L13.2549 10.4121C13.0903 13.1197 12.9092 17.5593 12.9092 24C12.9092 30.4407 13.0903 34.8803 13.2549 37.5879L13.2764 37.7969C13.4237 38.8228 14.1756 39.5326 15.1396 39.627L16.79 39.7656C18.6219 39.8974 21.0085 40 24.001 40C27.9911 40 30.9025 39.8181 32.8604 39.627L33.0498 39.5996C33.9841 39.4248 34.68 38.6548 34.7451 37.5879L34.8701 35.2285C34.9903 32.5358 35.0908 28.8309 35.0908 24ZM26.4541 35.0918L26.6592 35.1016C27.6676 35.204 28.4541 36.0563 28.4541 37.0918C28.4537 38.1269 27.6674 38.9776 26.6592 39.0801L26.4541 39.0918H21.5459C20.4416 39.0918 19.5464 38.196 19.5459 37.0918C19.5459 35.9872 20.4413 35.0918 21.5459 35.0918H26.4541ZM21.5381 8.02734C21.5185 8.0278 21.499 8.02883 21.4795 8.0293L21.6279 9.77148C21.6647 9.98891 21.8528 10.1501 22.0752 10.1504H25.9248L26.0088 10.1426C26.1967 10.107 26.3442 9.9547 26.3721 9.75977L26.5186 8.0293C25.7367 8.01072 24.8981 8.00001 24.001 8L21.5381 8.02734ZM39.0908 24C39.0908 28.8864 38.9873 32.6506 38.8643 35.4062L38.7393 37.8301C38.5687 40.6362 36.6085 42.993 33.8174 43.5254L33.249 43.6074C31.1538 43.812 28.1124 44 24.001 44C20.9175 44 18.435 43.8949 16.5029 43.7559L14.751 43.6074C11.8535 43.3243 9.72404 41.1248 9.31934 38.3848L9.2627 37.8301C9.09281 35.0354 8.90918 30.5151 8.90918 24C8.90918 17.4849 9.09281 12.9646 9.2627 10.1699L9.31934 9.61523C9.72404 6.87521 11.8535 4.67567 14.751 4.39258L16.5029 4.24414C18.435 4.10512 20.9175 4 24.001 4L25.4912 4.00781C28.8572 4.04647 31.4154 4.21351 33.249 4.39258L33.8174 4.47461C36.6086 5.00691 38.5687 7.36383 38.7393 10.1699L38.8643 12.5938C38.9873 15.3494 39.0908 19.1136 39.0908 24Z" fill="#646464"/>
</svg>
