<svg width="48" height="48" viewBox="0 0 48 48" fill="none" xmlns="http://www.w3.org/2000/svg">
<path d="M7.4735 36.3808C6.50084 36.3829 5.54503 36.1268 4.70374 35.6386C3.86246 35.1505 3.16583 34.4477 2.68505 33.6022C2.21162 32.7626 1.97551 31.81 2.00201 30.8465C2.02851 29.883 2.31661 28.9449 2.83547 28.1326L12.6965 12.6474C13.2012 11.8152 13.9178 11.1318 14.773 10.6672C15.6282 10.2025 16.5915 9.97311 17.5644 10.0025C18.5365 10.0258 19.485 10.307 20.3128 10.8172C21.1406 11.3275 21.8179 12.0485 22.2755 12.9065C23.1948 14.6447 23.0799 16.736 21.9788 18.3677L12.1241 33.8529C11.6243 34.6316 10.9361 35.2716 10.1231 35.7135C9.31016 36.1554 8.3988 36.3849 7.4735 36.3808Z" fill="#F62B54"/>
<path d="M24.3879 36.3804C22.399 36.3804 20.5689 35.317 19.6078 33.608C19.1355 32.7707 18.8999 31.8206 18.9264 30.8597C18.9529 29.8987 19.2405 28.9631 19.7582 28.1531L29.6005 12.7034C30.0978 11.8595 30.8118 11.1639 31.6684 10.6889C32.5251 10.2139 33.4933 9.97679 34.4725 10.0021C36.4781 10.0459 38.2958 11.1678 39.215 12.9228C40.128 14.6777 39.9943 16.7815 38.8598 18.409L29.0197 33.8587C28.5215 34.6341 27.836 35.2716 27.0265 35.7123C26.217 36.153 25.3096 36.3828 24.3879 36.3804Z" fill="#FFCC00"/>
<path d="M40.9239 36.5099C43.7278 36.5099 46.0007 34.2847 46.0007 31.5397C46.0007 28.7947 43.7278 26.5695 40.9239 26.5695C38.1201 26.5695 35.8472 28.7947 35.8472 31.5397C35.8472 34.2847 38.1201 36.5099 40.9239 36.5099Z" fill="#00CA72"/>
</svg>
