<svg width="48" height="48" viewBox="0 0 48 48" fill="none" xmlns="http://www.w3.org/2000/svg">
<path d="M15 12C15 10.3431 16.3431 9 18 9C19.6569 9 21 10.3431 21 12C21 13.6569 19.6569 15 18 15C16.3431 15 15 13.6569 15 12Z" fill="#646464"/>
<path d="M15 24C15 22.3431 16.3431 21 18 21C19.6569 21 21 22.3431 21 24C21 25.6569 19.6569 27 18 27C16.3431 27 15 25.6569 15 24Z" fill="#646464"/>
<path d="M27 12C27 10.3431 28.3431 9 30 9C31.6569 9 33 10.3431 33 12C33 13.6569 31.6569 15 30 15C28.3431 15 27 13.6569 27 12Z" fill="#646464"/>
<path d="M27 24C27 22.3431 28.3431 21 30 21C31.6569 21 33 22.3431 33 24C33 25.6569 31.6569 27 30 27C28.3431 27 27 25.6569 27 24Z" fill="#646464"/>
<path d="M15 36C15 34.3431 16.3431 33 18 33C19.6569 33 21 34.3431 21 36C21 37.6569 19.6569 39 18 39C16.3431 39 15 37.6569 15 36Z" fill="#646464"/>
<path d="M27 36C27 34.3431 28.3431 33 30 33C31.6569 33 33 34.3431 33 36C33 37.6569 31.6569 39 30 39C28.3431 39 27 37.6569 27 36Z" fill="#646464"/>
</svg>
