<svg width="48" height="48" viewBox="0 0 48 48" fill="none" xmlns="http://www.w3.org/2000/svg">
<path d="M11.02 41.66C13.06 41.88 15.42 42 18.04 42H18.02C20.64 42 23 41.88 25.04 41.66C27.66 41.36 29.66 39.12 29.8 36.3L29.86 35.4C29.92 34.54 29.96 33.7 30 32.04C30.02 30.94 29.14 30.02 28.04 30H28C26.92 30 26.02 30.88 26 31.96C25.9699 33.1638 25.9285 33.9148 25.8928 34.5621C25.881 34.7752 25.8699 34.977 25.86 35.18L25.8 36.1C25.76 36.96 25.26 37.6 24.6 37.68C22.7 37.9 20.5 38 18.02 38C15.54 38 13.34 37.88 11.44 37.68C10.78 37.62 10.28 36.96 10.24 36.1C10.12 33.78 9.97998 29.8 9.97998 24C9.97998 18.2 10.12 14.22 10.24 11.9C10.28 11.04 10.78 10.4 11.44 10.32C13.34 10.1 15.54 10 18.02 10C20.5 10 22.7 10.12 24.6 10.32C25.26 10.38 25.76 11.04 25.8 11.9L25.86 12.82C25.92 13.64 25.96 14.44 26 16.04C26.02 17.14 26.92 18 28 18H28.04C29.16 17.98 30.02 17.06 30 15.96C29.96 14.3 29.92 13.46 29.86 12.6L29.8 11.7C29.64 8.88 27.64 6.62 25.04 6.34C23.02 6.12 20.66 6 18.04 6C15.42 6 13.06 6.12 11.02 6.34C8.41998 6.62 6.41998 8.88 6.27998 11.68C6.13998 14.06 5.97998 18.08 5.97998 23.98C5.97998 29.88 6.13998 33.94 6.25998 36.3C6.41998 39.12 8.41998 41.38 11.02 41.66Z" fill="#646464"/>
<path d="M34.58 31.42C34.98 31.8 35.48 32 36 32L35.98 32.02C36.5 32.02 37 31.84 37.4 31.44L43.4 25.44C43.6 25.24 43.74 25.02 43.84 24.78C43.94 24.54 44 24.3 44 24.04V23.98C44 23.72 43.96 23.48 43.86 23.26H43.82V23.18C43.72 22.98 43.58 22.78 43.42 22.62L37.42 16.62C36.64 15.84 35.38 15.84 34.6 16.62C33.82 17.4 33.82 18.66 34.6 19.44L37.18 22.02H18C16.9 22.02 16 22.92 16 24.02C16 25.12 16.9 26.02 18 26.02H37.16L34.58 28.6C33.8 29.38 33.8 30.64 34.58 31.42Z" fill="#646464"/>
</svg>
