<svg width="48" height="48" viewBox="0 0 48 48" fill="none" xmlns="http://www.w3.org/2000/svg">
<path fill-rule="evenodd" clip-rule="evenodd" d="M26 8.59882C26 7.1807 25.4181 6.02597 24 6.02597C22.5819 6.02597 22 7.1807 22 8.59882V22.0001H8.59357C7.17546 22.0001 6.02591 22.5819 6.02591 24.0001C6.02591 25.4182 7.17546 26.0001 8.59357 26.0001H22V39.4064C22 40.8245 22.5819 41.9624 24 41.9624C25.4181 41.9624 26 40.8245 26 39.4064V26.0001H39.3947C40.8128 26.0001 41.9624 25.4182 41.9624 24.0001C41.9624 22.5819 40.8128 22.0001 39.3947 22.0001H26V8.59882Z" fill="#646464"/>
<path d="M43.6453 23.2237C44.1182 23.6332 44.1182 24.3669 43.6453 24.7765L36.9975 30.5336C36.3323 31.1097 35.298 30.6372 35.298 29.7572V18.2429C35.298 17.3629 36.3323 16.8904 36.9975 17.4665L43.6453 23.2237Z" fill="#646464"/>
<path d="M4.3547 23.2237C3.88177 23.6332 3.88177 24.3669 4.3547 24.7765L11.0025 30.5336C11.6677 31.1097 12.702 30.6372 12.702 29.7572V18.2429C12.702 17.3629 11.6677 16.8904 11.0025 17.4665L4.3547 23.2237Z" fill="#646464"/>
<path d="M24.7764 43.6454C24.3668 44.1183 23.6332 44.1183 23.2236 43.6454L17.4664 36.9975C16.8903 36.3323 17.3629 35.2981 18.2428 35.2981H29.7572C30.6371 35.2981 31.1097 36.3324 30.5336 36.9975L24.7764 43.6454Z" fill="#646464"/>
<path d="M24.7764 4.35476C24.3668 3.88183 23.6332 3.88183 23.2236 4.35476L17.4664 11.0026C16.8903 11.6678 17.3629 12.7021 18.2428 12.7021L29.7572 12.7021C30.6371 12.7021 31.1097 11.6678 30.5336 11.0026L24.7764 4.35476Z" fill="#646464"/>
</svg>
