<svg width="48" height="48" viewBox="0 0 48 48" fill="none" xmlns="http://www.w3.org/2000/svg">
<path d="M18.7766 17.7767L28.014 23.2713L33.5182 20.9699C34.6369 20.4899 35.8429 20.2431 37.0616 20.2447C37.2651 20.2447 37.4659 20.2542 37.6652 20.2665C37.0037 17.7033 35.6068 15.3861 33.6444 13.5966C31.6819 11.8072 29.2383 10.6225 26.6107 10.1866C23.9831 9.7507 21.2846 10.0824 18.8432 11.1413C16.4018 12.2002 14.3227 13.9408 12.8585 16.1514L12.9988 16.1473C15.04 16.1446 17.0413 16.709 18.7766 17.7767Z" fill="#0364B8"/>
<path d="M18.778 17.7753C17.0421 16.7079 15.0403 16.144 12.9988 16.1473L12.8585 16.1514C10.8606 16.1762 8.90727 16.7413 7.20838 17.7859C5.50949 18.8305 4.12925 20.3151 3.21595 22.0803C2.30266 23.8455 1.89083 25.8245 2.02472 27.8047C2.15861 29.7849 2.83315 31.6914 3.97587 33.3194L12.1187 29.9145L28.0126 23.2713L18.778 17.7753Z" fill="#0078D4"/>
<path d="M37.6652 20.2665C37.4643 20.2526 37.263 20.2453 37.0616 20.2447C35.8433 20.2437 34.6378 20.491 33.5195 20.9713L28.014 23.2713L34.8423 27.3331L44.9308 33.3344C45.6401 32.0267 46.0077 30.5631 45.9999 29.0777C45.9921 27.5922 45.6092 26.1325 44.8862 24.8322C44.1632 23.5319 43.1233 22.4325 41.8618 21.6349C40.6002 20.8372 39.1573 20.3667 37.6652 20.2665Z" fill="#1490DF"/>
<path d="M34.8423 27.3331L28.0153 23.2713L12.1187 29.9145L3.97312 33.3194C4.98558 34.7652 6.33531 35.946 7.90703 36.7611C9.47874 37.5762 11.2257 38.0012 12.9987 38H37.0616C38.6752 38.0006 40.2588 37.5671 41.6443 36.7457C43.0298 35.9242 44.1655 34.7454 44.9308 33.3344L34.8423 27.3331Z" fill="#28A8EA"/>
</svg>
