<svg width="48" height="48" viewBox="0 0 48 48" fill="none" xmlns="http://www.w3.org/2000/svg">
<path d="M28.136 25.8605L25.3453 5.39539H25.1369C14.9893 5.42501 6.77029 13.644 6.74066 23.7917V24L28.136 25.8605Z" fill="#ED6C47"/>
<path d="M25.5537 5.39539H25.3453V24L34.6476 27.721L43.95 24V23.7917C43.9203 13.644 35.7014 5.42501 25.5537 5.39539Z" fill="#FF8F6B"/>
<path d="M43.95 24V24.2047C43.9208 34.3546 35.6999 42.5755 25.55 42.6047H25.1407C14.9907 42.5755 6.76979 34.3546 6.74066 24.2047V24H43.95Z" fill="#D35230"/>
<path opacity="0.1" d="M26.2755 14.5396V34.3907C26.2709 35.0805 25.8529 35.7002 25.2151 35.9628C25.012 36.0487 24.7937 36.093 24.5732 36.093H11.1314C10.8709 35.7954 10.6197 35.4791 10.3872 35.1628C8.01721 32.0013 6.73757 28.1559 6.74065 24.2047V23.7954C6.73521 20.2315 7.77678 16.7445 9.736 13.7675C9.94065 13.4512 10.1546 13.1349 10.3872 12.8372H24.5732C25.5104 12.8443 26.2685 13.6023 26.2755 14.5396Z" fill="black"/>
<path opacity="0.2" d="M25.3453 15.4698V35.321C25.3453 35.5415 25.301 35.7597 25.2151 35.9628C24.9524 36.6006 24.3327 37.0186 23.643 37.0233H11.9778C11.6835 36.7245 11.4011 36.4142 11.1313 36.093C10.8709 35.7954 10.6197 35.4791 10.3871 35.1628C8.01718 32.0013 6.73754 28.1559 6.74062 24.2047V23.7954C6.73518 20.2315 7.77675 16.7445 9.73597 13.7675H23.643C24.5802 13.7745 25.3382 14.5326 25.3453 15.4698Z" fill="black"/>
<path opacity="0.2" d="M25.3453 15.4698V33.4605C25.3382 34.3977 24.5802 35.1557 23.643 35.1628H10.3872C8.01721 32.0013 6.73757 28.1559 6.74065 24.2047V23.7954C6.73521 20.2315 7.77678 16.7445 9.736 13.7675H23.643C24.5802 13.7745 25.3382 14.5325 25.3453 15.4698Z" fill="black"/>
<path opacity="0.2" d="M24.4151 15.4698V33.4605C24.408 34.3977 23.65 35.1557 22.7128 35.1628H10.3872C8.01721 32.0013 6.73757 28.1559 6.74065 24.2047V23.7954C6.73521 20.2315 7.77678 16.7445 9.736 13.7675H22.7127C23.65 13.7745 24.408 14.5325 24.4151 15.4698Z" fill="black"/>
<path d="M5.65506 13.7675H22.7099C23.6517 13.7675 24.415 14.5309 24.415 15.4726V32.5274C24.415 33.4692 23.6516 34.2326 22.7099 34.2326H5.65506C4.71337 34.2326 3.94995 33.4692 3.94995 32.5275V15.4726C3.94995 14.5309 4.71337 13.7675 5.65506 13.7675Z" fill="url(#paint0_linear_3_18272)"/>
<path d="M14.3686 18.3154C15.4788 18.2405 16.5794 18.563 17.4737 19.2252C18.2195 19.891 18.6181 20.8627 18.5546 21.8605C18.5668 22.5541 18.382 23.237 18.0216 23.8298C17.6567 24.4124 17.1311 24.877 16.5081 25.1675C15.7958 25.4987 15.0171 25.6623 14.2318 25.6456H12.0746V29.6549H9.8653V18.3154H14.3686ZM12.0727 23.9135H13.9742C14.5769 23.9578 15.175 23.7794 15.6551 23.4121C16.0521 23.0313 16.2603 22.4941 16.2235 21.9452C16.2235 20.6956 15.4973 20.0707 14.0449 20.0707H12.0728V23.9135H12.0727Z" fill="white"/>
<defs>
<linearGradient id="paint0_linear_3_18272" x1="7.50516" y1="12.4351" x2="20.8599" y2="35.5649" gradientUnits="userSpaceOnUse">
<stop stop-color="#CA4C28"/>
<stop offset="0.5" stop-color="#C5401E"/>
<stop offset="1" stop-color="#B62F14"/>
</linearGradient>
</defs>
</svg>
