<svg width="48" height="48" viewBox="0 0 48 48" fill="none" xmlns="http://www.w3.org/2000/svg">
<path d="M30.9937 19.5H40.99C41.9344 19.5 42.7 20.2656 42.7 21.21V30.3153C42.7 33.7862 39.8863 36.6 36.4153 36.6H36.3856C32.9146 36.6005 30.1005 33.7871 30.1 30.3162V20.3937C30.1 19.9001 30.5001 19.5 30.9937 19.5Z" fill="#5059C9"/>
<path d="M37.75 17.7C39.9867 17.7 41.8 15.8868 41.8 13.65C41.8 11.4132 39.9867 9.6 37.75 9.6C35.5132 9.6 33.7 11.4132 33.7 13.65C33.7 15.8868 35.5132 17.7 37.75 17.7Z" fill="#5059C9"/>
<path d="M25.15 17.7C28.3809 17.7 31 15.0809 31 11.85C31 8.61914 28.3809 6 25.15 6C21.9191 6 19.3 8.61914 19.3 11.85C19.3 15.0809 21.9191 17.7 25.15 17.7Z" fill="#7B83EB"/>
<path d="M32.9502 19.5C32.9502 19.5 17.3828 19.4769 16.4496 19.5C15.5165 19.5231 14.7783 20.2975 14.7999 21.2307V31.6158C14.6696 37.2158 19.1001 41.863 24.6999 42C30.2998 41.863 34.7302 37.2158 34.6 31.6158V21.2307C34.6216 20.2975 33.8834 19.5231 32.9502 19.5Z" fill="#7B83EB"/>
<path d="M23.8 15.747V17.538C21.9775 17.1064 20.4718 15.8282 19.75 14.1H22.153C23.0612 14.1035 23.7965 14.8388 23.8 15.747Z" fill="black"/>
<path d="M5.64969 14.1H22.1503C23.0614 14.1 23.8 14.8386 23.8 15.7497V32.2503C23.8 33.1614 23.0614 33.9 22.1503 33.9H5.64969C4.73858 33.9 4 33.1614 4 32.2503V15.7497C4 14.8386 4.7386 14.1 5.64969 14.1Z" fill="#5059C9"/>
<path d="M18.2416 20.3802H14.9431V29.3622H12.8416V20.3802H9.55842V18.6378H18.2416V20.3802Z" fill="white"/>
</svg>
