<svg width="48" height="48" viewBox="0 0 48 48" fill="none" xmlns="http://www.w3.org/2000/svg">
<path d="M12.3916 23.3406C13.1957 23.3454 13.7227 23.3485 13.7601 22.32V21.18C13.7414 20.1514 13.198 20.1546 12.3916 20.1593C12.3358 20.1596 12.2783 20.16 12.2201 20.16C12.1616 20.16 12.1044 20.1596 12.0485 20.1593C11.2444 20.1546 10.7175 20.1515 10.6801 21.18V22.32C10.6988 23.3486 11.2421 23.3454 12.0485 23.3406C12.1043 23.3403 12.1617 23.34 12.2201 23.34C12.2785 23.34 12.3357 23.3403 12.3916 23.3406Z" fill="#646464"/>
<path d="M13.7601 28.58C13.7227 29.6085 13.1957 29.6054 12.3916 29.6007C12.3357 29.6003 12.2785 29.6 12.2201 29.6C12.1617 29.6 12.1046 29.6003 12.0487 29.6007C11.2423 29.6054 10.6988 29.6086 10.6801 28.58V27.44C10.7175 26.4115 11.2444 26.4146 12.0485 26.4193C12.1044 26.4197 12.1616 26.42 12.2201 26.42C12.2785 26.42 12.3357 26.4197 12.3916 26.4193C13.198 26.4146 13.7414 26.4114 13.7601 27.44V28.58Z" fill="#646464"/>
<path d="M12.3916 35.8406C13.1957 35.8454 13.7227 35.8485 13.7601 34.82V33.68C13.7414 32.6514 13.198 32.6546 12.3916 32.6593C12.3357 32.6596 12.2785 32.66 12.2201 32.66C12.1622 32.66 12.1055 32.6596 12.0502 32.6593C11.2462 32.6546 10.7175 32.6515 10.6801 33.68V34.82C10.6988 35.8486 11.2421 35.8454 12.0485 35.8406C12.1044 35.8403 12.1617 35.84 12.2201 35.84C12.2779 35.84 12.3363 35.8403 12.3916 35.8406Z" fill="#646464"/>
<path d="M29.26 22.56C29.18 23.02 28.8 23.24 28.42 23.26C27.58 23.28 25.88 23.32 23.14 23.32C20.4 23.32 18.68 23.28 17.86 23.26C17.46 23.26 17.1 23.02 17.02 22.56C16.98 22.34 16.96 22.08 16.96 21.74C16.96 21.4 16.98 21.14 17.02 20.92C17.1 20.46 17.48 20.24 17.86 20.22C18.7 20.2 20.4 20.16 23.14 20.16C25.88 20.16 27.6 20.2 28.42 20.22C28.82 20.22 29.18 20.46 29.26 20.92C29.3 21.14 29.32 21.4 29.32 21.74C29.32 22.08 29.3 22.34 29.26 22.56Z" fill="#646464"/>
<path d="M28.42 29.52C28.8 29.5 29.18 29.28 29.26 28.82C29.3 28.6 29.32 28.34 29.32 28C29.32 27.66 29.3 27.4 29.26 27.18C29.18 26.72 28.82 26.48 28.42 26.48C27.6 26.46 25.88 26.42 23.14 26.42C20.4 26.42 18.7 26.46 17.86 26.48C17.48 26.5 17.1 26.72 17.02 27.18C16.98 27.4 16.96 27.66 16.96 28C16.96 28.34 16.98 28.6 17.02 28.82C17.1 29.28 17.46 29.52 17.86 29.52C18.68 29.54 20.4 29.58 23.14 29.58C25.88 29.58 27.58 29.54 28.42 29.52Z" fill="#646464"/>
<path d="M29.26 35.06C29.18 35.52 28.8 35.74 28.42 35.76C27.58 35.78 25.88 35.82 23.14 35.82C20.4 35.82 18.68 35.78 17.86 35.76C17.46 35.76 17.1 35.52 17.02 35.06C16.98 34.84 16.96 34.58 16.96 34.24C16.96 33.9 16.98 33.64 17.02 33.42C17.1 32.96 17.48 32.74 17.86 32.72C18.7 32.7 20.4 32.66 23.14 32.66C25.88 32.66 27.6 32.7 28.42 32.72C28.82 32.72 29.18 32.96 29.26 33.42C29.3 33.64 29.32 33.9 29.32 34.24C29.32 34.58 29.3 34.84 29.26 35.06Z" fill="#646464"/>
<path fill-rule="evenodd" clip-rule="evenodd" d="M35.7073 37.74C35.6845 38.0745 35.6619 38.3811 35.64 38.66C35.42 41.32 33.32 43.42 30.66 43.64C28.6 43.8 25.06 44 20 44C14.94 44 11.42 43.8 9.34 43.64C6.68 43.42 4.58 41.32 4.36 38.66C4.2 36.6 4 33.08 4 28C4 22.92 4.2 19.4 4.36 17.34C4.58 14.68 6.66 12.58 9.34 12.36C9.60831 12.3392 9.90139 12.3176 10.2195 12.296C10.273 11.2511 10.3365 10.3625 10.4001 9.6C10.6201 6.82 12.8201 4.62 15.6001 4.4C17.8001 4.22 21.5801 4 27.0001 4C32.4201 4 36.2001 4.22 38.4001 4.4C41.1801 4.62 43.3801 6.82 43.6001 9.6C43.7801 11.8 44.0001 15.56 44.0001 21C44.0001 26.44 43.7801 30.2 43.6001 32.4C43.3801 35.18 41.1801 37.38 38.4001 37.6C38.1943 37.6133 37.9798 37.6287 37.755 37.645C37.3023 37.6776 36.808 37.7133 36.2601 37.74H35.7073ZM35.9065 33.76H36.1601C36.5369 33.7372 36.9203 33.7078 37.2915 33.6794C37.5705 33.658 37.8426 33.6372 38.1001 33.62C38.9401 33.56 39.5601 32.94 39.6401 32.08C39.8201 29.96 40.0201 26.32 40.0201 21C40.0201 15.68 39.8201 12.04 39.6401 9.92C39.5801 9.06 38.9601 8.46 38.1001 8.38C35.9601 8.2 32.3201 8 27.0201 8C21.7201 8 18.0601 8.2 15.9401 8.38C15.0801 8.44 14.4801 9.06 14.4001 9.92C14.3455 10.5473 14.3003 11.2677 14.2516 12.0937C15.8785 12.0378 17.7919 12 20 12C25.08 12 28.6 12.2 30.66 12.36C33.32 12.58 35.42 14.66 35.64 17.34C35.8 19.38 36 22.9 36 28C36 30.2154 35.9623 32.1327 35.9065 33.76ZM9.66 16.36C11.64 16.2 15.04 16 20 16C24.96 16 28.36 16.2 30.34 16.36C31.08 16.42 31.6 16.96 31.66 17.68C31.82 19.66 32.02 23.04 32.02 28.02C32.02 33 31.82 36.38 31.66 38.36C31.6 39.1 31.06 39.62 30.34 39.68C28.34 39.84 24.94 40.04 20 40.04C15.06 40.04 11.66 39.84 9.66 39.68C8.92 39.62 8.4 39.08 8.34 38.36C8.18 36.36 7.98 32.98 7.98 28.02C7.98 23.06 8.18 19.66 8.34 17.68C8.4 16.94 8.94 16.42 9.66 16.36Z" fill="#646464"/>
</svg>
