<svg width="48" height="48" viewBox="0 0 48 48" fill="none" xmlns="http://www.w3.org/2000/svg">
<path fill-rule="evenodd" clip-rule="evenodd" d="M21.9985 5.89357C22.0332 6.99759 21.1663 7.92068 20.0622 7.95533C17.2881 8.04242 15.0069 8.21294 13.1998 8.40118C10.651 8.66669 8.77175 10.5459 8.50624 13.0947C8.2344 15.7044 7.9995 19.3029 7.9995 23.9472C7.9995 28.7281 8.24843 32.4009 8.53033 35.0274C8.79276 37.4725 10.5556 39.2464 12.9621 39.499C15.5223 39.7678 19.1522 39.9999 24.0522 39.9999C28.9523 39.9999 32.5822 39.7678 35.1424 39.499C37.5478 39.2466 39.312 37.4703 39.5745 35.0242C39.772 33.1828 39.9533 30.8275 40.0441 27.9372C40.0787 26.8331 41.0018 25.9662 42.1058 26.0009C43.2099 26.0355 44.0767 26.9586 44.0421 28.0627C43.9482 31.052 43.7601 33.5078 43.5516 35.4509C43.0925 39.7304 39.8818 43.0235 35.5599 43.4772C32.8479 43.7619 29.0779 43.9999 24.0522 43.9999C19.0266 43.9999 15.2566 43.7619 12.5445 43.4772C8.22375 43.0236 5.01259 39.7348 4.55317 35.4543C4.25568 32.6825 3.9995 28.8671 3.9995 23.9472C3.9995 19.1678 4.24124 15.4309 4.52777 12.6803C4.98924 8.25024 8.35531 4.88418 12.7854 4.42271C14.69 4.22431 17.0676 4.04737 19.9367 3.9573C21.0408 3.92265 21.9639 4.78954 21.9985 5.89357Z" fill="#646464"/>
<path d="M27.1615 25.7851L41.0817 11.865C42.4467 10.5 42.4467 8.28687 41.0817 6.92188C39.7167 5.55688 37.5036 5.55688 36.1386 6.92188L22.2184 20.842C21.8365 21.224 21.5359 21.6793 21.3347 22.1806L20.0695 25.3331C19.4137 26.967 21.0366 28.5898 22.6705 27.9341L25.823 26.6689C26.3242 26.4677 26.7796 26.1671 27.1615 25.7851Z" fill="#646464"/>
</svg>
