<svg width="48" height="48" viewBox="0 0 48 48" fill="none" xmlns="http://www.w3.org/2000/svg">
<path fill-rule="evenodd" clip-rule="evenodd" d="M11.3882 41.9486C10.3075 41.7205 9.61629 40.6594 9.84443 39.5787L9.90357 39.3064C9.94227 39.1309 10.0005 38.8707 10.0796 38.5264C10.2379 37.8377 10.4802 36.8123 10.8184 35.4535C10.985 34.7842 11.1748 34.0339 11.3894 33.2032C11.1422 33.1951 10.9051 33.1869 10.6781 33.1788C9.41616 33.1333 8.46669 33.0878 7.82974 33.0534C7.51127 33.0362 7.27093 33.0218 7.10871 33.0116L6.85849 32.995L6.85646 32.9949C5.75474 32.9156 4.92593 31.9581 5.00525 30.8564C5.08457 29.7548 6.04187 28.926 7.14349 29.0052L7.36021 29.0195C7.5105 29.029 7.7389 29.0427 8.04543 29.0592C8.65848 29.0923 9.58402 29.1368 10.822 29.1814C11.313 29.199 11.853 29.2167 12.4422 29.2337C12.9174 27.4842 13.466 25.5153 14.0945 23.3288C14.5652 21.6916 15.009 20.1815 15.4233 18.7979C15.2153 18.8048 15.0149 18.8117 14.822 18.8187C13.584 18.8632 12.6585 18.9077 12.0454 18.9408C11.7389 18.9573 11.5105 18.9711 11.3602 18.9805L11.1451 18.9947C10.0435 19.0739 9.08457 18.2452 9.00525 17.1436C8.92593 16.0419 9.75474 15.0844 10.8565 15.0051L11.1087 14.9884C11.2709 14.9782 11.5113 14.9638 11.8297 14.9466C12.4667 14.9122 13.4162 14.8667 14.6781 14.8212C15.2695 14.8 15.9294 14.7787 16.6579 14.7586C17.0721 13.4328 17.4401 12.2854 17.7572 11.3152C18.1922 9.98429 18.5315 8.98674 18.7631 8.31912C18.8788 7.98531 18.9677 7.73398 19.0281 7.5647L19.1226 7.30259C19.5032 6.26567 20.6523 5.73363 21.6892 6.11424C22.7261 6.49482 23.2581 7.64377 22.8777 8.68063L22.7953 8.90932C22.7389 9.06734 22.6541 9.30739 22.5422 9.6299C22.3185 10.2749 21.9868 11.2498 21.5593 12.5579C21.354 13.1861 21.1265 13.8911 20.8783 14.6733C22.41 14.6527 24.1173 14.6399 26.0001 14.6399C28.3985 14.6399 30.5121 14.6606 32.3407 14.692C32.6525 13.5007 32.9178 12.4577 33.1403 11.5639C33.4726 10.2284 33.7093 9.22626 33.8623 8.56091C33.9388 8.22823 33.9943 7.97975 34.0304 7.8159L34.0821 7.57846C34.3103 6.49783 35.3713 5.80676 36.452 6.03488C37.5327 6.26302 38.2239 7.32409 37.9958 8.40484L37.9366 8.6771C37.8979 8.85262 37.8398 9.11276 37.7606 9.4571C37.6023 10.1458 37.36 11.1712 37.0218 12.53C36.8545 13.2024 36.6637 13.9563 36.4479 14.7915C36.7543 14.8013 37.0456 14.8113 37.322 14.8212C38.584 14.8667 39.5335 14.9122 40.1704 14.9466C40.4889 14.9638 40.7292 14.9782 40.8915 14.9884L41.1417 15.005L41.1437 15.0051C42.2454 15.0844 43.0742 16.0419 42.9949 17.1436C42.9156 18.2452 41.9583 19.074 40.8567 18.9948L40.64 18.9805C40.4897 18.9711 40.2613 18.9573 39.9547 18.9408C39.3417 18.9077 38.4162 18.8632 37.1781 18.8187C36.6422 18.7994 36.0478 18.7801 35.3948 18.7616C34.9203 20.5082 34.3728 22.4731 33.7457 24.6547C33.2725 26.3006 32.8265 27.8179 32.4103 29.2076C32.6784 29.1989 32.9343 29.1901 33.1781 29.1814C34.4162 29.1368 35.3417 29.0923 35.9547 29.0592C36.2613 29.0427 36.4897 29.029 36.64 29.0195L36.855 29.0053C37.9567 28.9261 38.9156 29.7548 38.9949 30.8564C39.0742 31.9581 38.2454 32.9156 37.1437 32.9949L36.8915 33.0116C36.7292 33.0218 36.4889 33.0362 36.1704 33.0534C35.5335 33.0878 34.584 33.1333 33.322 33.1788C32.686 33.2017 31.9705 33.2245 31.1757 33.2459C30.7642 34.5629 30.3984 35.7032 30.083 36.6683C29.648 37.9992 29.3087 38.9968 29.0771 39.6644C28.9614 39.9982 28.8725 40.2495 28.8121 40.4188L28.7176 40.6809C28.337 41.7178 27.1879 42.2499 26.151 41.8693C25.1141 41.4887 24.5821 40.3397 24.9625 39.3029L25.0449 39.0742C25.1013 38.9162 25.1861 38.6761 25.298 38.3536C25.5217 37.7086 25.8534 36.7337 26.2809 35.4256C26.4846 34.8025 26.71 34.1037 26.9559 33.3289C25.4672 33.3483 23.8152 33.3601 22.0001 33.3601C19.5298 33.3601 17.3617 33.3382 15.4959 33.3052C15.1857 34.4908 14.9215 35.5293 14.6999 36.4196C14.3676 37.7551 14.1309 38.7572 13.9779 39.4226C13.9014 39.7553 13.8459 40.0038 13.8098 40.1676L13.7586 40.403C13.5328 41.4701 12.4565 42.1741 11.3882 41.9486ZM16.5646 29.3219C18.171 29.3453 19.9828 29.3601 22.0001 29.3601C24.3449 29.3601 26.4122 29.3402 28.2019 29.3098C28.7174 27.6096 29.286 25.6902 29.9013 23.5496C30.4102 21.7796 30.8658 20.1546 31.2717 18.6758C29.7063 18.6537 27.9491 18.6399 26.0001 18.6399C23.5825 18.6399 21.4599 18.6611 19.6325 18.6931C19.1185 20.3884 18.5519 22.3014 17.9389 24.4339C17.4284 26.2096 16.9715 27.8393 16.5646 29.3219Z" fill="#646464"/>
</svg>
