<svg width="48" height="48" viewBox="0 0 48 48" fill="none" xmlns="http://www.w3.org/2000/svg">
<path fill-rule="evenodd" clip-rule="evenodd" d="M15.728 44C14.6234 44 13.728 43.1046 13.728 42L13.728 22.3636C13.728 21.2591 14.6234 20.3636 15.728 20.3636C16.8326 20.3636 17.728 21.2591 17.728 22.3636L17.728 42C17.728 43.1046 16.8326 44 15.728 44Z" fill="#646464"/>
<path fill-rule="evenodd" clip-rule="evenodd" d="M15.728 12.9092C14.6234 12.9092 13.728 12.0138 13.728 10.9092L13.728 6.0001C13.728 4.89553 14.6234 4.0001 15.728 4.0001C16.8326 4.0001 17.728 4.89553 17.728 6.0001V10.9092C17.728 12.0138 16.8326 12.9092 15.728 12.9092Z" fill="#646464"/>
<path fill-rule="evenodd" clip-rule="evenodd" d="M32.0004 27.6362C30.8959 27.6362 30.0004 26.7408 30.0004 25.6362V5.99988C30.0004 4.89531 30.8959 3.99988 32.0004 3.99988C33.105 3.99988 34.0004 4.89531 34.0004 5.99988V25.6362C34.0004 26.7408 33.105 27.6362 32.0004 27.6362Z" fill="#646464"/>
<path fill-rule="evenodd" clip-rule="evenodd" d="M32.0004 44C30.8959 44 30.0004 43.1046 30.0004 42V37.0909C30.0004 35.9864 30.8959 35.0909 32.0004 35.0909C33.105 35.0909 34.0004 35.9864 34.0004 37.0909V42C34.0004 43.1046 33.105 44 32.0004 44Z" fill="#646464"/>
<path fill-rule="evenodd" clip-rule="evenodd" d="M37.7372 36.8276C36.288 38.2767 34.3226 39.0908 32.2732 39.0908C30.2238 39.0908 28.2583 38.2767 26.8092 36.8276C25.36 35.3784 24.5459 33.413 24.5459 31.3636C24.5459 29.3142 25.36 27.3487 26.8092 25.8996C28.2583 24.4504 30.2238 23.6363 32.2732 23.6363C34.3226 23.6363 36.288 24.4504 37.7372 25.8996C39.1863 27.3487 40.0004 29.3142 40.0004 31.3636C40.0004 33.413 39.1863 35.3784 37.7372 36.8276ZM32.2732 35.0908C33.2617 35.0908 34.2097 34.6981 34.9087 33.9991C35.6077 33.3001 36.0004 32.3521 36.0004 31.3636C36.0004 30.375 35.6077 29.427 34.9087 28.728C34.2097 28.029 33.2617 27.6363 32.2732 27.6363C31.2846 27.6363 30.3366 28.029 29.6376 28.728C28.9386 29.427 28.5459 30.375 28.5459 31.3636C28.5459 32.3521 28.9386 33.3001 29.6376 33.9991C30.3366 34.6981 31.2846 35.0908 32.2732 35.0908Z" fill="#646464"/>
<path fill-rule="evenodd" clip-rule="evenodd" d="M18.6853 23.7756C17.7478 24.1639 16.743 24.3638 15.7282 24.3638C14.7135 24.3638 13.7087 24.1639 12.7712 23.7756C11.8336 23.3872 10.9818 22.8181 10.2642 22.1005C9.54669 21.383 8.97751 20.5311 8.58918 19.5936C8.20085 18.6561 8.00098 17.6513 8.00098 16.6365C8.00098 15.6217 8.20085 14.6169 8.58918 13.6794C8.97751 12.7419 9.54669 11.89 10.2642 11.1725C10.9818 10.455 11.8336 9.88577 12.7712 9.49744C13.7087 9.10911 14.7135 8.90923 15.7282 8.90923C16.743 8.90923 17.7478 9.10911 18.6853 9.49744C19.6229 9.88577 20.4747 10.455 21.1923 11.1725C21.9098 11.89 22.479 12.7419 22.8673 13.6794C23.2556 14.6169 23.4555 15.6217 23.4555 16.6365C23.4555 17.6513 23.2556 18.6561 22.8673 19.5936C22.479 20.5311 21.9098 21.383 21.1923 22.1005C20.4747 22.8181 19.6229 23.3872 18.6853 23.7756ZM15.728 20.3636C16.2175 20.3636 16.7024 20.2674 17.1546 20.0801C17.6068 19.8927 18.0177 19.6182 18.3638 19.2721C18.7099 18.926 18.9845 18.5151 19.1718 18.0629C19.3591 17.6107 19.4555 17.126 19.4555 16.6365C19.4555 16.147 19.3591 15.6624 19.1718 15.2101C18.9845 14.7579 18.7099 14.347 18.3638 14.0009C18.0177 13.6548 17.6068 13.3803 17.1546 13.193C16.7024 13.0056 16.2175 12.9092 15.728 12.9092C15.2385 12.9092 14.7541 13.0056 14.3019 13.193C13.8497 13.3803 13.4388 13.6548 13.0927 14.0009C12.7466 14.347 12.472 14.7579 12.2847 15.2101C12.0974 15.6624 12.001 16.147 12.001 16.6365C12.001 17.126 12.0974 17.6107 12.2847 18.0629C12.472 18.5151 12.7466 18.926 13.0927 19.2721C13.4388 19.6182 13.8497 19.8927 14.3019 20.0801C14.7541 20.2674 15.2385 20.3636 15.728 20.3636Z" fill="#646464"/>
</svg>
