<svg width="48" height="48" viewBox="0 0 48 48" fill="none" xmlns="http://www.w3.org/2000/svg">
<path fill-rule="evenodd" clip-rule="evenodd" d="M7.94951 8.73756C7.94934 8.73761 7.94968 8.73751 7.94951 8.73756C7.88272 8.75789 7.89251 8.76151 7.94951 8.73756ZM8.54738 8.61999C9.00886 8.55068 9.63244 8.4867 10.3925 8.43242C12.0799 8.31189 14.2794 8.25 16.5 8.25C18.7206 8.25 20.9201 8.31189 22.6075 8.43242C23.3469 8.48523 23.9571 8.54721 24.4146 8.61435C24.4454 8.84671 24.4736 9.12791 24.4974 9.45687C24.5771 10.5575 24.5936 11.9889 24.563 13.4583C24.5325 14.9217 24.4563 16.3783 24.3589 17.5171C24.3296 17.8594 24.2991 18.1651 24.2684 18.4285C23.8814 18.4787 23.3941 18.5259 22.8166 18.5677C21.1546 18.688 18.9407 18.75 16.6876 18.75C14.4354 18.75 12.1878 18.6881 10.4598 18.5674C9.67125 18.5123 9.02382 18.4471 8.5467 18.3762C8.50465 18.1319 8.46372 17.8317 8.42649 17.4781C8.311 16.381 8.24999 14.9546 8.25 13.5C8.25001 12.0454 8.31104 10.6191 8.42654 9.52188C8.46395 9.16644 8.50512 8.86503 8.54738 8.61999ZM7.89423 18.2415C7.8956 18.2411 7.91333 18.2464 7.9433 18.2589C7.90785 18.2483 7.89286 18.242 7.89423 18.2415ZM25.0505 8.73757C25.1075 8.76151 25.1173 8.7579 25.0505 8.73757C25.0504 8.73752 25.0507 8.73762 25.0505 8.73757ZM26.2152 4.91087C26.4084 4.96969 26.9691 5.14065 27.4142 5.58579C27.7751 5.94661 27.954 6.36151 28.0419 6.5946C28.1439 6.86549 28.215 7.14767 28.2675 7.40598C28.3731 7.92488 28.4413 8.53661 28.487 9.16813C28.5792 10.4425 28.594 12.0111 28.5621 13.5417C28.5301 15.0783 28.4501 16.6217 28.3444 17.8579C28.2917 18.4736 28.2308 19.035 28.1626 19.4911C28.1287 19.7178 28.0897 19.9414 28.0436 20.1439C28.007 20.3046 27.9339 20.6045 27.7889 20.8945C27.5295 21.4131 27.1294 21.6858 26.9494 21.7961C26.7358 21.927 26.5279 22.0102 26.3773 22.063C26.0726 22.1699 25.7369 22.243 25.4305 22.2974C24.8012 22.409 23.9928 22.493 23.1054 22.5573C21.3142 22.687 18.9969 22.75 16.6876 22.75C14.3773 22.75 12.0311 22.6869 10.181 22.5576C9.26164 22.4934 8.42452 22.4102 7.76134 22.3021C7.43376 22.2487 7.10026 22.1816 6.80074 22.0922L6.7979 22.0914C6.60569 22.034 6.03556 21.8639 5.5859 21.4143C5.24057 21.069 5.06014 20.6735 4.96914 20.4476C4.86335 20.1851 4.78529 19.9095 4.72504 19.6534C4.60403 19.1391 4.51518 18.5306 4.44847 17.8969C4.31396 16.619 4.24999 15.0454 4.25 13.5C4.25001 11.9546 4.314 10.3809 4.44851 9.10312C4.51522 8.46945 4.60406 7.86088 4.72506 7.34662C4.7853 7.0906 4.86334 6.81501 4.96911 6.55246C5.06008 6.32666 5.24047 5.93114 5.58573 5.58584C6.03088 5.14066 6.5916 4.96969 6.78484 4.91087C7.08197 4.82044 7.41142 4.7528 7.73368 4.69909C8.38594 4.59038 9.20692 4.50691 10.1075 4.44258C11.9201 4.31311 14.2206 4.25 16.5 4.25C18.7794 4.25 21.0799 4.31311 22.8925 4.44258C23.7931 4.50691 24.6141 4.59038 25.2663 4.69909C25.5886 4.7528 25.918 4.82044 26.2152 4.91087ZM35.5806 8.44001C35.6363 8.42634 35.6984 8.41243 35.7672 8.39866C36.2335 8.3054 36.8477 8.25 37.5 8.25C38.1523 8.25 38.7665 8.3054 39.2328 8.39866C39.2891 8.40993 39.341 8.4213 39.3885 8.43255C39.4294 8.69463 39.467 9.03681 39.4974 9.45687C39.5771 10.5575 39.5936 11.9889 39.563 13.4583C39.5325 14.9217 39.4563 16.3783 39.3589 17.5171C39.3215 17.9549 39.282 18.3329 39.2426 18.639C38.8302 18.7076 38.2859 18.75 37.6876 18.75C36.9994 18.75 36.3303 18.6939 35.8154 18.597C35.7268 18.5803 35.6477 18.5634 35.578 18.5467C35.5251 18.2766 35.4729 17.9189 35.4265 17.4781C35.311 16.381 35.25 14.9546 35.25 13.5C35.25 12.0454 35.3111 10.6191 35.4266 9.52188C35.4737 9.07386 35.5268 8.71166 35.5806 8.44001ZM41.1959 4.81492C41.5536 4.95797 42.0196 5.19116 42.4142 5.58579C42.7751 5.94661 42.954 6.36151 43.0419 6.5946C43.1439 6.86549 43.215 7.14767 43.2675 7.40598C43.3731 7.92488 43.4413 8.53661 43.487 9.16813C43.5792 10.4425 43.594 12.0111 43.5621 13.5417C43.5301 15.0783 43.4501 16.6217 43.3444 17.8579C43.2917 18.4736 43.2308 19.035 43.1626 19.4911C43.1287 19.7178 43.0897 19.9414 43.0436 20.1439C43.007 20.3046 42.9339 20.6045 42.7889 20.8945C42.4214 21.6294 41.7766 21.984 41.4449 22.1394C41.051 22.3238 40.6256 22.4411 40.2429 22.5207C39.4669 22.6819 38.5566 22.75 37.6876 22.75C36.8133 22.75 35.8886 22.6811 35.0754 22.528C34.6698 22.4516 34.2491 22.3465 33.858 22.198C33.4989 22.0618 33.0008 21.8291 32.5859 21.4143C32.2406 21.069 32.0602 20.6735 31.9692 20.4476C31.8634 20.1851 31.7853 19.9095 31.7251 19.6534C31.604 19.1391 31.5152 18.5306 31.4485 17.8969C31.314 16.619 31.25 15.0454 31.25 13.5C31.25 11.9546 31.314 10.3809 31.4485 9.10312C31.5152 8.46945 31.6041 7.86088 31.7251 7.34662C31.7853 7.0906 31.8634 6.81501 31.9691 6.55246C32.0601 6.32666 32.2405 5.93114 32.5858 5.58584C32.9804 5.19119 33.4465 4.95798 33.8041 4.81493C34.1848 4.66263 34.5912 4.55466 34.9828 4.47634C35.7664 4.3196 36.6523 4.25 37.5 4.25C38.3477 4.25 39.2336 4.3196 40.0172 4.47634C40.4088 4.55465 40.8152 4.66262 41.1959 4.81492ZM8.58069 29.44C8.63633 29.4263 8.69845 29.4124 8.7673 29.3987C9.23361 29.3054 9.84776 29.25 10.5 29.25C11.1523 29.25 11.7665 29.3054 12.2328 29.3987C12.2891 29.4099 12.341 29.4213 12.3885 29.4325C12.4294 29.6946 12.467 30.0368 12.4974 30.4569C12.5771 31.5575 12.5936 32.9889 12.563 34.4583C12.5325 35.9217 12.4563 37.3783 12.3589 38.5171C12.3214 38.9549 12.2819 39.3329 12.2426 39.639C11.8302 39.7076 11.2858 39.75 10.6876 39.75C9.99942 39.75 9.33034 39.694 8.8154 39.597C8.72679 39.5803 8.64776 39.5634 8.578 39.5467C8.52511 39.2766 8.47295 38.9189 8.42655 38.4781C8.31107 37.381 8.25006 35.9547 8.25008 34.5C8.25009 33.0454 8.31112 31.6191 8.42663 30.5219C8.47379 30.0739 8.52692 29.7117 8.58069 29.44ZM14.1959 25.8149C14.5536 25.958 15.0196 26.1912 15.4142 26.5858C15.7751 26.9466 15.954 27.3615 16.0419 27.5946C16.1439 27.8655 16.215 28.1477 16.2675 28.406C16.3731 28.9249 16.4413 29.5366 16.487 30.1681C16.5792 31.4425 16.594 33.0111 16.5621 34.5417C16.5301 36.0783 16.45 37.6217 16.3443 38.8579C16.2917 39.4736 16.2308 40.035 16.1626 40.4911C16.1287 40.7178 16.0896 40.9414 16.0436 41.1439C16.007 41.3046 15.9338 41.6045 15.7888 41.8945C15.4214 42.6294 14.7766 42.984 14.4449 43.1394C14.0509 43.3238 13.6256 43.4411 13.2429 43.5207C12.4668 43.6819 11.5566 43.75 10.6876 43.75C9.81326 43.75 8.88863 43.681 8.07545 43.528C7.66981 43.4516 7.24912 43.3465 6.85797 43.198C6.49893 43.0618 6.00084 42.8291 5.58595 42.4143C5.24062 42.069 5.06019 41.6735 4.9692 41.4476C4.8634 41.1851 4.78534 40.9094 4.7251 40.6534C4.60408 40.1391 4.51523 39.5305 4.44853 38.8969C4.31403 37.619 4.25006 36.0453 4.25008 34.5C4.25009 32.9546 4.31409 31.3809 4.44861 30.1031C4.51531 29.4694 4.60416 28.8609 4.72516 28.3466C4.7854 28.0906 4.86344 27.815 4.96921 27.5525C5.06018 27.3267 5.24057 26.9311 5.58583 26.5858C5.98045 26.1912 6.44652 25.958 6.80415 25.8149C7.18489 25.6626 7.59124 25.5547 7.98282 25.4763C8.76648 25.3196 9.65232 25.25 10.5 25.25C11.3478 25.25 12.2336 25.3196 13.0173 25.4763C13.4088 25.5547 13.8152 25.6626 14.1959 25.8149ZM22.9496 29.7376C22.9494 29.7376 22.9497 29.7375 22.9496 29.7376C22.8828 29.7579 22.8926 29.7615 22.9496 29.7376ZM23.5474 29.62C24.0089 29.5507 24.6325 29.4867 25.3925 29.4324C27.0799 29.3119 29.2794 29.25 31.5 29.25C33.7207 29.25 35.9202 29.3119 37.6076 29.4324C38.3469 29.4852 38.9572 29.5472 39.4147 29.6143C39.4455 29.8467 39.4737 30.1279 39.4975 30.4569C39.5772 31.5575 39.5937 32.9889 39.563 34.4583C39.5326 35.9217 39.4563 37.3783 39.3589 38.5171C39.3297 38.8594 39.2991 39.1651 39.2684 39.4285C38.8814 39.4786 38.3941 39.5259 37.8166 39.5677C36.1546 39.688 33.9407 39.75 31.6876 39.75C29.4354 39.75 27.1878 39.6881 25.4598 39.5674C24.6712 39.5123 24.0238 39.4471 23.5467 39.3762C23.5047 39.1319 23.4637 38.8317 23.4265 38.4781C23.311 37.381 23.25 35.9547 23.25 34.5C23.25 33.0454 23.3111 31.6191 23.4266 30.5219C23.464 30.1665 23.5052 29.865 23.5474 29.62ZM22.8942 39.2415C22.8956 39.2411 22.9133 39.2464 22.9433 39.2589C22.9078 39.2483 22.8928 39.242 22.8942 39.2415ZM41.2152 25.9109C41.4085 25.9697 41.9692 26.1406 42.4143 26.5858C42.7751 26.9466 42.9541 27.3615 43.0419 27.5946C43.144 27.8655 43.215 28.1477 43.2676 28.406C43.3731 28.9249 43.4414 29.5366 43.4871 30.1681C43.5793 31.4425 43.5941 33.0111 43.5622 34.5417C43.5302 36.0783 43.4501 37.6217 43.3444 38.8579C43.2917 39.4736 43.2309 40.035 43.1627 40.4911C43.1288 40.7178 43.0897 40.9414 43.0436 41.1439C43.0071 41.3046 42.9339 41.6045 42.7889 41.8945C42.5296 42.4131 42.1295 42.6858 41.9494 42.7961C41.7359 42.927 41.5279 43.0102 41.3774 43.063C41.0726 43.1699 40.7369 43.243 40.4306 43.2974C39.8013 43.409 38.9928 43.493 38.1054 43.5573C36.3143 43.687 33.997 43.75 31.6876 43.75C29.3773 43.75 27.0311 43.6869 25.181 43.5576C24.2616 43.4934 23.4245 43.4102 22.7613 43.3021C22.4338 43.2487 22.1003 43.1816 21.8007 43.0922L21.7979 43.0914C21.6057 43.034 21.0356 42.8639 20.5859 42.4143C20.2406 42.069 20.0601 41.6735 19.9691 41.4476C19.8633 41.1851 19.7853 40.9094 19.725 40.6534C19.604 40.1391 19.5152 39.5305 19.4485 38.8969C19.314 37.619 19.25 36.0453 19.25 34.5C19.25 32.9546 19.314 31.3809 19.4486 30.1031C19.5153 29.4694 19.6041 28.8609 19.7251 28.3466C19.7853 28.0906 19.8634 27.815 19.9692 27.5525C20.0601 27.3267 20.2405 26.9311 20.5858 26.5858C21.0309 26.1407 21.5917 25.9697 21.7849 25.9109C22.082 25.8204 22.4115 25.7528 22.7337 25.6991C23.386 25.5904 24.207 25.5069 25.1075 25.4426C26.9201 25.3131 29.2206 25.25 31.5 25.25C33.7795 25.25 36.08 25.3131 37.8926 25.4426C38.7931 25.5069 39.6141 25.5904 40.2664 25.6991C40.5887 25.7528 40.9181 25.8204 41.2152 25.9109Z" fill="#646464"/>
</svg>
