<svg width="48" height="48" viewBox="0 0 48 48" fill="none" xmlns="http://www.w3.org/2000/svg">
<path d="M34.8164 28.2012C35.3286 27.2663 36.6714 27.2663 37.1836 28.2012L38.877 31.2969C39.2987 32.0676 39.9324 32.7013 40.7031 33.123L43.7988 34.8164C44.7336 35.3286 44.7337 36.6714 43.7988 37.1836L40.7031 38.877C39.9324 39.2987 39.2987 39.9324 38.877 40.7031L37.1836 43.7988C36.6714 44.7337 35.3286 44.7337 34.8164 43.7988L33.123 40.7031C32.7013 39.9324 32.0676 39.2987 31.2969 38.877L28.2012 37.1836C27.2663 36.6714 27.2663 35.3286 28.2012 34.8164L31.2969 33.123C32.0676 32.7013 32.7013 32.0676 33.123 31.2969L34.8164 28.2012Z" fill="#646464"/>
<path d="M12.0195 10C13.1241 10 14.0195 10.8954 14.0195 12C14.0195 13.1046 13.1241 14 12.0195 14H12C10.8954 14 10 13.1046 10 12C10 10.8954 10.8954 10 12 10H12.0195Z" fill="#646464"/>
<path d="M18.0195 10C19.1241 10 20.0195 10.8954 20.0195 12C20.0195 13.1046 19.1241 14 18.0195 14H18C16.8954 14 16 13.1046 16 12C16 10.8954 16.8954 10 18 10H18.0195Z" fill="#646464"/>
<path d="M24.0195 10C25.1241 10 26.0195 10.8954 26.0195 12C26.0195 13.1046 25.1241 14 24.0195 14H24C22.8954 14 22 13.1046 22 12C22 10.8954 22.8954 10 24 10H24.0195Z" fill="#646464"/>
<path fill-rule="evenodd" clip-rule="evenodd" d="M24 4C30.3619 4 34.8314 4.23923 37.6562 4.46875C40.8229 4.72625 43.2738 7.17713 43.5312 10.3438C43.671 12.0633 43.8116 14.3924 43.9023 17.3867C43.9646 17.5801 44 17.7859 44 18C44 18.1744 43.9736 18.3426 43.9316 18.5039C43.9719 20.1504 44 21.9797 44 24C44 25.1046 43.1046 26 42 26C40.8954 26 40 25.1046 40 24C40 22.5683 39.9864 21.2359 39.9648 20H8.03516C8.01358 21.2359 8 22.5683 8 24C8 30.2621 8.23496 34.6228 8.45508 37.332C8.55373 38.5455 9.45456 39.4463 10.668 39.5449C13.3772 39.7651 17.7379 40 24 40C25.1046 40 26 40.8954 26 42C26 43.1046 25.1046 44 24 44C17.6381 44 13.1686 43.7608 10.3438 43.5312C7.17712 43.2738 4.72626 40.8229 4.46875 37.6562C4.23923 34.8314 4 30.3619 4 24C4 17.6381 4.23923 13.1686 4.46875 10.3438C4.72624 7.17713 7.17713 4.72625 10.3438 4.46875C13.1686 4.23923 17.6381 4 24 4ZM24 8C17.7379 8 13.3772 8.23496 10.668 8.45508C9.45455 8.55372 8.55371 9.45454 8.45508 10.668C8.34505 12.0222 8.23078 13.7892 8.14453 16H39.8555C39.7692 13.7892 39.655 12.0222 39.5449 10.668C39.4463 9.45456 38.5455 8.55373 37.332 8.45508C34.6228 8.23496 30.2621 8 24 8Z" fill="#646464"/>
</svg>
