<svg width="48" height="48" viewBox="0 0 48 48" fill="none" xmlns="http://www.w3.org/2000/svg">
<path fill-rule="evenodd" clip-rule="evenodd" d="M21.2985 3.21352C19.9562 2.17992 18.0153 2.12583 16.6396 3.33459C15.7 4.16013 14.6623 5.25374 13.5936 6.49469C12.3275 5.39618 11.007 4.27793 9.66397 3.17906C8.80908 2.4796 7.54904 2.60561 6.84958 3.4605C6.15013 4.31539 6.27613 5.57543 7.13102 6.27489C8.47593 7.37527 9.80127 8.49858 11.0732 9.60366C7.83245 13.8121 4.49563 18.8903 2.63862 22.348C1.62005 24.2445 1.83159 26.5258 3.13122 28.2105C5.80966 31.6824 9.72624 35.599 13.1982 38.2774C14.8828 39.577 17.164 39.7886 19.0604 38.7701C21.8446 37.2749 25.6564 34.8334 29.2069 32.2707C32.7258 29.7306 36.1566 26.9514 38.0741 24.7689C39.2827 23.3932 39.2286 21.4523 38.1951 20.1101C34.6763 15.5402 25.8685 6.73246 21.2985 3.21352ZM6.16253 24.2406C7.87248 21.0568 11.0049 16.274 14.0751 12.2621C16.0752 14.0657 17.8289 15.7099 19.1617 16.9817C19.9983 17.7801 20.6682 18.4309 21.1279 18.8811C21.3578 19.1062 21.535 19.2811 21.6543 19.3991L21.789 19.5328L21.8325 19.5762C22.6136 20.3573 23.8799 20.3573 24.661 19.5762C25.442 18.7952 25.4408 17.5277 24.6598 16.7466L24.6105 16.6975L24.4686 16.5567C24.3444 16.4337 24.1619 16.2537 23.9266 16.0232C23.4559 15.5623 22.7736 14.8995 21.9231 14.0879C20.5336 12.7619 18.6927 11.0365 16.5906 9.14447C17.4995 8.08695 18.3366 7.19879 19.0582 6.53826C23.3478 9.89913 31.5096 18.061 34.8703 22.3504C33.2199 24.154 30.2152 26.6097 26.8658 29.0273C23.4085 31.5228 19.7503 33.8593 17.1679 35.2461C16.6827 35.5067 16.0973 35.462 15.6414 35.1103C12.4408 32.6412 8.76747 28.9679 6.29832 25.7672C5.9466 25.3113 5.90191 24.7259 6.16253 24.2406ZM23.2467 18.162L24.6598 16.7466C24.6599 16.7467 24.661 16.7478 23.2467 18.162Z" fill="#646464"/>
<path fill-rule="evenodd" clip-rule="evenodd" d="M41.894 30.6623C40.3279 28.1515 36.6721 28.1515 35.106 30.6623L33.0763 33.9167C32.3961 34.9449 32 36.1791 32 37.4999C32 41.0898 34.9101 43.9999 38.5 43.9999C42.0899 43.9999 45 41.0898 45 37.4999C45 36.1791 44.6039 34.9449 43.9237 33.9167L41.894 30.6623ZM36.4377 36.0857L38.5 32.7792L40.5623 36.0857L40.5802 36.1125C40.8454 36.5086 41 36.9832 41 37.4999C41 38.8807 39.8807 39.9999 38.5 39.9999C37.1193 39.9999 36 38.8807 36 37.4999C36 36.9832 36.1546 36.5086 36.4198 36.1125L36.4377 36.0857Z" fill="#646464"/>
</svg>
