<svg width="48" height="48" viewBox="0 0 48 48" fill="none" xmlns="http://www.w3.org/2000/svg">
<path fill-rule="evenodd" clip-rule="evenodd" d="M44 24C44 12.9543 35.0457 4 24 4C12.9543 4 4 12.9543 4 24C4 35.0457 12.9543 44 24 44C35.0457 44 44 35.0457 44 24ZM15.5102 29.768C15.5466 31.0098 16.3449 32.0562 17.5841 32.144C17.9145 32.1675 18.2892 32.182 18.7102 32.182C19.1313 32.182 19.5059 32.1675 19.8364 32.144C21.0756 32.0562 21.8739 31.0098 21.9102 29.768C21.9474 28.4999 21.983 26.6056 21.983 24.0002C21.983 21.3948 21.9474 19.5004 21.9102 18.2324C21.8739 16.9906 21.0756 15.9441 19.8364 15.8563C19.5059 15.8328 19.1313 15.8184 18.7102 15.8184C18.2892 15.8184 17.9145 15.8328 17.5841 15.8563C16.3449 15.9441 15.5466 16.9906 15.5102 18.2324C15.4731 19.5004 15.4375 21.3948 15.4375 24.0002C15.4375 26.6056 15.4731 28.4999 15.5102 29.768ZM26.0737 29.768C26.11 31.0098 26.9083 32.0562 28.1476 32.144C28.478 32.1675 28.8527 32.182 29.2737 32.182C29.6947 32.182 30.0694 32.1675 30.3998 32.144C31.6391 32.0562 32.4374 31.0098 32.4737 29.768C32.5108 28.4999 32.5464 26.6056 32.5464 24.0002C32.5464 21.3948 32.5108 19.5004 32.4737 18.2324C32.4374 16.9906 31.6391 15.9441 30.3998 15.8563C30.0694 15.8328 29.6947 15.8184 29.2737 15.8184C28.8527 15.8184 28.478 15.8328 28.1476 15.8563C26.9083 15.9441 26.11 16.9906 26.0737 18.2324C26.0366 19.5004 26.001 21.3948 26.001 24.0002C26.001 26.6056 26.0366 28.4999 26.0737 29.768Z" fill="#646464"/>
</svg>
