<svg width="48" height="48" viewBox="0 0 48 48" fill="none" xmlns="http://www.w3.org/2000/svg">
<path fill-rule="evenodd" clip-rule="evenodd" d="M14 6C12.7009 6 11.6119 6.07557 10.7173 6.18438C7.83577 6.53486 6.24934 9.03402 6.16957 11.48C6.08994 13.9213 6 18.0055 6 24C6 29.9945 6.08994 34.0787 6.16956 36.52C6.24933 38.9659 7.83568 41.4651 10.7172 41.8156C11.6118 41.9245 12.701 42 14 42C15.299 42 16.3882 41.9245 17.2828 41.8156C20.1643 41.4651 21.7506 38.9659 21.8304 36.52C21.9101 34.0787 22 29.9945 22 24C22 18.0055 21.9101 13.9214 21.8304 11.48C21.7506 9.03403 20.1642 6.53487 17.2827 6.18438C16.3881 6.07557 15.2991 6 14 6ZM11.2003 10.1551C10.7362 10.2116 10.1992 10.6353 10.1674 11.6104C10.0893 14.0048 10 18.0453 10 24C10 29.9547 10.0893 33.9952 10.1674 36.3896C10.1992 37.3648 10.7363 37.7884 11.2002 37.8449C11.9285 37.9335 12.8562 38 14 38C15.0201 38 15.8682 37.9471 16.5563 37.8728C16.6397 37.8638 16.7208 37.8545 16.7996 37.8449C17.2635 37.7885 17.8007 37.3648 17.8325 36.3896C17.9107 33.9953 18 29.9547 18 24C18 18.0453 17.9107 14.0048 17.8325 11.6104C17.8007 10.6353 17.2637 10.2116 16.7997 10.1551C16.0714 10.0665 15.1438 10 14 10C12.98 10 12.132 10.0529 11.4438 10.1272C11.3603 10.1362 11.2791 10.1455 11.2003 10.1551Z" fill="#646464"/>
<path fill-rule="evenodd" clip-rule="evenodd" d="M34 6C32.7009 6 31.6119 6.07557 30.7173 6.18438C27.8358 6.53487 26.2493 9.03402 26.1696 11.48C26.0899 13.9213 26 18.0055 26 24C26 29.9945 26.0899 34.0787 26.1696 36.52C26.2493 38.9659 27.8357 41.4651 30.7172 41.8156C31.6118 41.9245 32.701 42 34 42C35.299 42 36.3882 41.9245 37.2828 41.8156C40.1643 41.4651 41.7506 38.9659 41.8304 36.52C41.9101 34.0787 42 29.9945 42 24C42 18.0055 41.9101 13.9214 41.8304 11.48C41.7506 9.03403 40.1642 6.53487 37.2827 6.18438C36.3881 6.07557 35.2991 6 34 6ZM31.2003 10.1551C30.7362 10.2116 30.1992 10.6353 30.1674 11.6104C30.0893 14.0048 30 18.0453 30 24C30 29.9547 30.0893 33.9952 30.1674 36.3896C30.1992 37.3648 30.7363 37.7884 31.2002 37.8449C31.9285 37.9335 32.8562 38 34 38C35.0201 38 35.8682 37.9471 36.5563 37.8728C36.6397 37.8638 36.7208 37.8545 36.7996 37.8449C37.2635 37.7885 37.8007 37.3648 37.8325 36.3896C37.9107 33.9953 38 29.9547 38 24C38 18.0453 37.9107 14.0048 37.8325 11.6104C37.8007 10.6353 37.2637 10.2116 36.7997 10.1551C36.0714 10.0665 35.1438 10 34 10C32.98 10 32.132 10.0529 31.4438 10.1272C31.3603 10.1362 31.2791 10.1455 31.2003 10.1551Z" fill="#646464"/>
</svg>
