<svg width="48" height="48" viewBox="0 0 48 48" fill="none" xmlns="http://www.w3.org/2000/svg">
<path d="M13.1186 33.3333C13.1604 34.6162 13.9567 35.7123 15.2113 35.8649C15.8199 35.9389 16.5761 35.9922 17.4922 35.9922C18.4083 35.9922 19.1645 35.9389 19.7731 35.8649C21.0277 35.7123 21.8239 34.6162 21.8658 33.3333C21.925 31.5199 21.9922 28.4732 21.9922 23.9922C21.9922 19.5112 21.925 16.4645 21.8658 14.6511C21.8239 13.3682 21.0277 12.2721 19.7731 12.1195C19.1645 12.0455 18.4083 11.9922 17.4922 11.9922C16.5761 11.9922 15.8199 12.0455 15.2113 12.1195C13.9567 12.2721 13.1604 13.3682 13.1186 14.6511C13.0594 16.4645 12.9922 19.5112 12.9922 23.9922C12.9922 28.4732 13.0594 31.5199 13.1186 33.3333Z" fill="#646464"/>
<path d="M26.1186 33.3333C26.1604 34.6162 26.9567 35.7123 28.2113 35.8649C28.8199 35.9389 29.5761 35.9922 30.4922 35.9922C31.4083 35.9922 32.1645 35.9389 32.7731 35.8649C34.0277 35.7123 34.8239 34.6162 34.8658 33.3333C34.925 31.5199 34.9922 28.4732 34.9922 23.9922C34.9922 19.5112 34.925 16.4645 34.8658 14.6511C34.8239 13.3682 34.0277 12.2721 32.7731 12.1195C32.1645 12.0455 31.4083 11.9922 30.4922 11.9922C29.5761 11.9922 28.8199 12.0455 28.2113 12.1195C26.9567 12.2721 26.1604 13.3682 26.1186 14.6511C26.0594 16.4645 25.9922 19.5112 25.9922 23.9922C25.9922 28.4732 26.0594 31.5199 26.1186 33.3333Z" fill="#646464"/>
</svg>
