<svg width="48" height="48" viewBox="0 0 48 48" fill="none" xmlns="http://www.w3.org/2000/svg">
<path fill-rule="evenodd" clip-rule="evenodd" d="M17.0778 4.83045C19.1561 3.75035 21.5141 3.14307 23.9999 3.14307C31.8218 3.14307 38.3355 9.14341 38.9763 16.939L39.438 22.5573C39.5893 24.3984 40.174 26.1777 41.1442 27.7497L42.3918 29.7714C43.3536 31.3299 43.693 33.2822 42.7795 34.9575C42.3574 35.7316 41.7111 36.3454 40.9118 36.7548C39.9287 37.2583 38.7235 36.8695 38.22 35.8864C37.7164 34.9033 38.1052 33.6981 39.0883 33.1946C39.1545 33.1607 39.1945 33.1289 39.218 33.1063C39.2413 33.084 39.2564 33.0631 39.2677 33.0425C39.2951 32.9923 39.442 32.6079 38.9879 31.8721M38.9879 31.8721L37.7403 29.8505C36.4387 27.7416 35.6545 25.3547 35.4514 22.8849L34.9897 17.2666C34.5195 11.5462 29.7396 7.14307 23.9999 7.14307C22.1713 7.14307 20.4444 7.58874 18.9223 8.37977C18.6326 8.53035 18.3502 8.69349 18.0758 8.86853C17.1447 9.46267 15.9081 9.18945 15.314 8.25828C14.7199 7.32711 14.9931 6.09061 15.9243 5.49647C16.2979 5.25807 16.6827 5.03575 17.0778 4.83045M4.71177 4.47018C5.55667 3.75868 6.81837 3.86683 7.52987 4.71173L39.5299 42.7117C40.2414 43.5566 40.1332 44.8183 39.2883 45.5298C38.4434 46.2413 37.1817 46.1332 36.4702 45.2883L31.9466 39.9165C30.5013 42.8442 27.4857 44.858 23.9998 44.858C19.7327 44.858 16.1705 41.8406 15.3303 37.8232C12.5108 37.6919 10.417 37.5005 8.86075 37.2934C7.07868 37.0564 5.59689 36.0632 4.97606 34.4254C4.38547 32.8674 4.74436 31.171 5.60809 29.7714L6.85574 27.7498C7.82593 26.1777 8.41059 24.3984 8.56191 22.5573L9.0237 16.9389C9.12129 15.7516 9.3556 14.6039 9.71104 13.5117L4.47022 7.28827C3.75873 6.44337 3.86688 5.18167 4.71177 4.47018ZM12.998 17.4151L26.9495 33.9824C26.0224 33.994 25.0402 34.0002 23.9999 34.0002C16.4676 34.0002 12.0004 33.6758 9.38819 33.3284C9.06583 33.2855 8.89924 33.1957 8.82636 33.143C8.75999 33.0951 8.73329 33.0523 8.71636 33.0076C8.68068 32.9135 8.60956 32.5243 9.01205 31.8721L10.2597 29.8505C11.5612 27.7416 12.3455 25.3547 12.5485 22.8849L12.998 17.4151ZM19.5537 37.9594C20.9101 37.9858 22.3885 38.0002 23.9999 38.0002C25.6113 38.0002 27.0895 37.9858 28.4458 37.9594C27.6928 39.6665 25.9854 40.858 23.9998 40.858C22.0141 40.858 20.3068 39.6665 19.5537 37.9594Z" fill="#646464"/>
</svg>
