<svg width="48" height="48" viewBox="0 0 48 48" fill="none" xmlns="http://www.w3.org/2000/svg">
<path d="M10.1685 36.4548C10.2243 38.1653 11.286 39.6268 12.9588 39.8302C13.7702 39.929 14.7786 40 16 40C17.2214 40 18.2297 39.929 19.0412 39.8302C20.714 39.6268 21.7757 38.1653 21.8315 36.4548C21.9104 34.037 22 29.9746 22 24C22 18.0254 21.9104 13.963 21.8315 11.5452C21.7757 9.83464 20.714 8.37321 19.0412 8.16974C18.2297 8.07105 17.2214 8 16 8C14.7786 8 13.7702 8.07105 12.9588 8.16974C11.286 8.37321 10.2243 9.83464 10.1685 11.5452C10.0896 13.963 10 18.0254 10 24C10 29.9746 10.0896 34.037 10.1685 36.4548Z" fill="#646464"/>
<path d="M26.1685 36.4548C26.2243 38.1653 27.286 39.6268 28.9588 39.8302C29.7703 39.929 30.7785 40 32 40C33.2215 40 34.2298 39.929 35.0412 39.8302C36.714 39.6268 37.7757 38.1653 37.8315 36.4548C37.9104 34.037 38 29.9746 38 24C38 18.0254 37.9104 13.963 37.8315 11.5452C37.7757 9.83464 36.714 8.37321 35.0412 8.16974C34.2298 8.07105 33.2215 8 32 8C30.7785 8 29.7703 8.07105 28.9588 8.16974C27.286 8.37321 26.2243 9.83464 26.1685 11.5452C26.0896 13.963 26 18.0254 26 24C26 29.9746 26.0896 34.037 26.1685 36.4548Z" fill="#646464"/>
</svg>
