<svg width="48" height="48" viewBox="0 0 48 48" fill="none" xmlns="http://www.w3.org/2000/svg">
<path fill-rule="evenodd" clip-rule="evenodd" d="M12.86 23.42C10.24 23.42 8.08 22.52 6.42 20.74C4.82 18.98 4 16.62 4 13.68C4 10.74 4.8 8.44 6.4 6.7C8.08 4.9 10.24 4 12.86 4C15.48 4 17.6 4.9 19.26 6.68C20.9 8.42 21.72 10.78 21.72 13.7C21.72 16.62 20.9 19.02 19.26 20.76C17.6 22.54 15.44 23.44 12.86 23.44V23.42ZM12.8498 8.00001C11.3549 8.00199 10.238 8.44222 9.34 9.42C8.44 10.4 8 11.8 8 13.7C8 15.6 8.44 17.06 9.34 18.04C10.22 18.98 11.34 19.44 12.84 19.44C14.34 19.44 15.42 19 16.32 18.02C17.24 17.04 17.7 15.62 17.7 13.7C17.7 11.78 17.24 10.4 16.32 9.42C15.422 8.46212 14.3249 8.00204 12.8498 8.00001ZM12.8498 8.00001L12.86 8H12.84L12.8498 8.00001Z" fill="#646464"/>
<path fill-rule="evenodd" clip-rule="evenodd" d="M35.14 44.0001C32.54 44.0001 30.36 43.1001 28.7 41.3201C27.1 39.5601 26.28 37.2001 26.28 34.2601C26.28 31.3201 27.08 29.0001 28.68 27.2601C30.36 25.4601 32.52 24.5601 35.14 24.5601C37.76 24.5601 39.88 25.4601 41.54 27.2401C43.18 28.9801 44 31.3401 44 34.2601C44 37.1801 43.18 39.5801 41.54 41.3201C39.88 43.1001 37.72 44.0001 35.14 44.0001ZM35.1298 28.5801C33.6349 28.5821 32.518 29.0223 31.62 30.0001C30.72 30.9801 30.28 32.3801 30.28 34.2801C30.28 36.1801 30.72 37.6401 31.62 38.6201C32.52 39.5601 33.62 40.0201 35.12 40.0201C36.62 40.0201 37.7 39.5801 38.6 38.6001C39.52 37.6201 39.98 36.2001 39.98 34.2801C39.98 32.3601 39.54 30.9801 38.6 30.0001C37.702 29.0422 36.585 28.5821 35.1298 28.5801ZM35.1298 28.5801L35.14 28.5801H35.12L35.1298 28.5801Z" fill="#646464"/>
<path d="M8.57021 41.4202L8.57995 41.4202H8.55995L8.57021 41.4202Z" fill="#646464"/>
<path d="M7.15995 40.8402C7.55745 41.2178 8.05371 41.4177 8.57021 41.4202C9.08653 41.4178 9.58258 41.2376 9.97995 40.8402L40.84 9.9802C41.6199 9.2002 41.6199 7.9402 40.84 7.1602C40.06 6.3802 38.7999 6.3802 38.02 7.1602L7.15995 38.0202C6.37995 38.8002 6.37995 40.0602 7.15995 40.8402Z" fill="#646464"/>
</svg>
