<svg width="48" height="48" viewBox="0 0 48 48" fill="none" xmlns="http://www.w3.org/2000/svg">
<path d="M21.9992 4C15.1008 4 9.48954 9.5643 9.48954 16.4516C9.48954 19.7412 10.7714 22.7293 12.8587 24.9522C8.21002 27.6283 5.25597 32.1982 4.15074 36.7944C3.31243 40.2807 5.9718 43.0995 9.10264 43.4301C11.4878 43.6818 15.0433 43.9335 19.9777 43.9888C21.0822 44.0012 21.9876 43.1159 22 42.0114C22.0124 40.9069 21.127 40.0014 20.0225 39.9891C15.2022 39.9351 11.7724 39.6897 9.52266 39.4522C8.9542 39.3922 8.52209 39.1253 8.2728 38.8108C8.03764 38.5141 7.9384 38.1517 8.03988 37.7297C9.11054 33.2772 12.318 29.0013 17.2667 27.3317C18.0074 27.0818 18.5346 26.4232 18.6164 25.6458C18.6981 24.8684 18.3194 24.1145 17.6469 23.716C15.1496 22.2362 13.4895 19.5331 13.4895 16.4516C13.4895 11.7943 17.289 8 21.9992 8C26.7094 8 30.5088 11.7943 30.5088 16.4516C30.5088 17.6306 30.2669 18.7485 29.8314 19.763C29.3956 20.778 29.8652 21.954 30.8802 22.3898C31.8952 22.8255 33.0712 22.3559 33.507 21.3409C34.1524 19.8375 34.5088 18.1835 34.5088 16.4516C34.5088 9.56431 28.8976 4 21.9992 4Z" fill="#646464"/>
<path d="M26.0061 29.0381C26.021 27.9219 26.67 27.0842 27.7848 27.0276C28.1216 27.0105 28.5227 27 29.0001 27C29.4775 27 29.8787 27.0105 30.2154 27.0276C31.3303 27.0842 31.9792 27.9219 31.9941 29.0381C31.9979 29.3168 32.0001 29.6358 32.0001 30C32.0001 30.3642 31.9979 30.6832 31.9941 30.9619C31.9792 32.0781 31.3303 32.9158 30.2154 32.9724C29.8787 32.9895 29.4775 33 29.0001 33C28.5227 33 28.1216 32.9895 27.7848 32.9724C26.67 32.9158 26.021 32.0781 26.0061 30.9619C26.0024 30.6832 26.0001 30.3642 26.0001 30C26.0001 29.6358 26.0024 29.3168 26.0061 29.0381Z" fill="#646464"/>
<path d="M26.0061 40.0381C26.021 38.9219 26.67 38.0842 27.7848 38.0276C28.1216 38.0105 28.5227 38 29.0001 38C29.4775 38 29.8787 38.0105 30.2154 38.0276C31.3303 38.0842 31.9792 38.9219 31.9941 40.0381C31.9979 40.3168 32.0001 40.6358 32.0001 41C32.0001 41.3642 31.9979 41.6832 31.9941 41.9619C31.9792 43.0781 31.3303 43.9158 30.2154 43.9724C29.8787 43.9895 29.4775 44 29.0001 44C28.5227 44 28.1216 43.9895 27.7848 43.9724C26.67 43.9158 26.021 43.0781 26.0061 41.9619C26.0024 41.6832 26.0001 41.3642 26.0001 41C26.0001 40.6358 26.0024 40.3168 26.0061 40.0381Z" fill="#646464"/>
<path d="M35.6001 27.9638C34.7601 28.0038 34.0801 28.4838 34.0201 29.2838C34.0001 29.4838 34.0001 29.7038 34.0001 29.9638C34.0001 30.1023 34.0058 30.2295 34.0111 30.3483C34.0158 30.4525 34.0201 30.5504 34.0201 30.6438C34.0801 31.4438 34.7601 31.9238 35.6001 31.9638C36.0366 31.9822 36.3786 32.0007 36.6883 32.0174C37.386 32.055 37.9196 32.0837 39.0001 32.0837C40.0805 32.0837 40.6141 32.055 41.3118 32.0174C41.6214 32.0007 41.9637 31.9822 42.4001 31.9638C43.24 31.9238 43.92 31.4438 43.98 30.6438C44 30.4438 44 30.2238 44 29.9638C44 29.8253 43.9944 29.6982 43.9891 29.5794C43.9844 29.4752 43.98 29.3772 43.98 29.2838C43.92 28.4838 43.24 28.0038 42.4001 27.9638C41.9634 27.9453 41.6213 27.9269 41.3115 27.9102C40.6139 27.8725 40.0803 27.8438 39.0001 27.8438C37.9198 27.8438 37.3862 27.8725 36.6887 27.9102C36.3789 27.9269 36.0368 27.9453 35.6001 27.9638Z" fill="#646464"/>
<path d="M35.6001 39.0037C34.7601 39.0438 34.0801 39.5238 34.0201 40.3238C34.0001 40.5238 34.0001 40.7438 34.0001 41.0037C34.0001 41.1423 34.0058 41.2696 34.0111 41.3884C34.0158 41.4926 34.0201 41.5903 34.0201 41.6838C34.0801 42.4838 34.7601 42.9638 35.6001 43.0038C36.0366 43.0222 36.3786 43.0406 36.6883 43.0573C37.386 43.095 37.9196 43.1237 39.0001 43.1237C40.0805 43.1237 40.6141 43.095 41.3118 43.0573C41.6215 43.0406 41.9636 43.0222 42.4001 43.0037C43.24 42.9637 43.92 42.4837 43.98 41.6837C44 41.4837 44 41.2637 44 41.0037C44 40.8658 43.9944 40.7379 43.9891 40.6195C43.9844 40.5153 43.98 40.4171 43.98 40.3237C43.92 39.5238 43.24 39.0437 42.4001 39.0037C41.9634 38.9853 41.6213 38.9668 41.3115 38.9501C40.6139 38.9125 40.0803 38.8837 39.0001 38.8837C37.9198 38.8837 37.3862 38.9125 36.6887 38.9501C36.3793 38.9668 36.0363 38.9853 35.6001 39.0037Z" fill="#646464"/>
</svg>
