<svg width="48" height="48" viewBox="0 0 48 48" fill="none" xmlns="http://www.w3.org/2000/svg">
<path fill-rule="evenodd" clip-rule="evenodd" d="M15.6801 4.07993C12.7021 4.16393 10.2381 4.36593 9.3201 4.59993C8.92162 4.71914 8.53364 4.87098 8.1601 5.05393C7.5921 5.32993 7.3461 5.51993 6.6721 6.19193C5.9741 6.89193 5.8161 7.10193 5.4941 7.75993C4.8681 9.03593 4.8161 9.38193 4.6261 13.5199C4.4801 16.6599 4.4801 31.3399 4.6261 34.4799C4.8161 38.6179 4.8681 38.9639 5.4941 40.2399C5.8161 40.8979 5.9741 41.1079 6.6721 41.8079C7.3461 42.4799 7.5921 42.6699 8.1601 42.9459C8.5341 43.1279 9.0561 43.3339 9.3201 43.4019C11.5761 43.9859 21.8341 44.1399 27.2801 43.6719C29.7461 43.4599 30.7941 43.0059 32.1301 41.5759C33.1181 40.5159 33.6141 39.3179 33.7561 37.6399C33.9161 35.7699 34.0241 31.8959 33.9281 31.5439C33.7667 31.0189 33.4044 30.579 32.9201 30.3199C32.3881 30.0539 31.6321 30.0459 31.1481 30.2999C30.7341 30.5179 30.2941 31.0239 30.1761 31.4199C30.1261 31.5859 30.0461 32.7299 30.0001 33.9599C29.8441 38.0399 29.7841 38.3779 29.0941 39.0539C28.5961 39.5419 28.1681 39.6519 26.1501 39.8139C23.5821 40.0219 14.9341 40.0219 12.4001 39.8139C11.7302 39.7688 11.0624 39.6974 10.3981 39.5999C9.6581 39.4019 8.9781 38.6819 8.8101 37.9199C8.6001 36.9679 8.4021 30.2759 8.4021 24.0399C8.4021 17.8019 8.5941 11.1699 8.8061 10.1079C8.9201 9.53793 9.3761 8.91393 9.8881 8.62793C10.3041 8.39393 10.9261 8.27993 12.0801 8.22393L12.5981 8.19993L12.6961 9.17393C12.8121 10.3339 12.9661 10.9699 13.2941 11.6459C13.8081 12.6959 14.8121 13.6459 15.8181 14.0259C16.2641 14.1939 16.3901 14.1999 19.2801 14.1999C22.1701 14.1999 22.2961 14.1939 22.7421 14.0259C23.7501 13.6439 24.7021 12.7499 25.2441 11.6719C25.5861 10.9939 25.7401 10.3699 25.8641 9.16593L25.9621 8.21193L26.5201 8.19793C27.1601 8.18393 27.5721 8.00993 27.9721 7.58793C28.3741 7.15793 28.5101 6.81993 28.5101 6.23993C28.5164 5.85543 28.4068 5.47795 28.1956 5.15657C27.9845 4.83519 27.6815 4.58479 27.3261 4.43793C26.6281 4.14593 20.2641 3.95193 15.6801 4.07993ZM33.9201 6.08393C32.2121 6.25593 30.9041 6.87793 29.6341 8.11993C28.8121 8.92393 28.2781 9.69193 27.9201 10.5899C27.6041 11.3779 27.4681 12.0779 27.3241 13.6799C27.1861 15.2259 27.0781 15.6299 26.5621 16.5539C26.0081 17.5479 25.8781 17.9839 25.8861 18.8399C25.8941 19.6819 26.0681 20.2159 26.5401 20.8339C27.0981 21.5639 27.9261 22.0019 29.0521 22.1619C31.4461 22.4999 39.3061 22.4399 40.9201 22.0699C41.4941 21.9379 42.0421 21.6419 42.4981 21.2159C43.2221 20.5379 43.5301 19.8059 43.5281 18.7599C43.5281 18.0039 43.3741 17.5039 42.8461 16.5359C42.3101 15.5519 42.2461 15.3079 42.0761 13.5939C41.9061 11.8859 41.7401 11.1059 41.3761 10.3019C40.5381 8.45393 38.6741 6.83993 36.7841 6.32193C36.2861 6.18593 34.8501 5.98193 34.6001 6.01193L33.9201 6.08393ZM21.9601 8.61993C21.9314 8.96558 21.8766 9.30857 21.7961 9.64593C21.6021 10.3479 21.6881 10.3259 19.2361 10.3019L17.0861 10.2799L16.9141 10.0239C16.7341 9.75593 16.6841 9.53593 16.5941 8.57993L16.5401 7.99993H22.0141L21.9601 8.61993ZM36.0801 10.2899C36.8281 10.6419 37.3601 11.1559 37.7061 11.8579C37.9521 12.3579 38.0061 12.5699 38.0841 13.3599C38.3361 15.9319 38.5681 16.9839 39.0861 17.9119C39.1941 18.1059 39.2681 18.2779 39.2521 18.2939C39.1581 18.3879 35.1781 18.4899 33.3201 18.4459C30.8241 18.3879 30.1341 18.3359 30.1901 18.2079L30.5141 17.4719C30.9301 16.5319 31.0981 15.7739 31.2381 14.2199C31.4181 12.2279 31.6181 11.6599 32.3921 10.9359C33.1381 10.2379 33.7641 10.0019 34.8001 10.0259C35.4601 10.0419 35.6281 10.0779 36.0801 10.2899ZM32.0941 24.1279C31.2321 24.5579 30.8421 25.5179 31.1321 26.4919C31.4321 27.4859 32.9561 28.2339 34.6941 28.2379C35.9721 28.2419 37.2641 27.8139 37.8541 27.1959C38.5901 26.4219 38.5421 25.1859 37.7481 24.4239C37.1761 23.8779 36.3021 23.7599 35.4881 24.1199C35.2381 24.2299 34.8921 24.3199 34.7161 24.3199C34.5401 24.3199 34.1821 24.2299 33.9201 24.1199C33.2701 23.8459 32.6541 23.8479 32.0941 24.1279ZM16.7601 35.3099C15.5221 35.8959 15.2141 37.4579 16.1441 38.4299C16.7081 39.0179 16.8001 39.0359 19.2801 39.0359C21.7981 39.0359 21.8841 39.0179 22.4501 38.3759C23.3381 37.3659 23.0261 35.8899 21.8001 35.3099C21.4101 35.1259 21.3421 35.1219 19.2801 35.1219C17.2181 35.1219 17.1501 35.1259 16.7601 35.3099Z" fill="#646464"/>
</svg>
