<svg width="48" height="48" viewBox="0 0 48 48" fill="none" xmlns="http://www.w3.org/2000/svg">
<path d="M43.1614 23.4662C43.7331 22.836 44.0507 22.0193 43.9906 21.1705C43.8467 19.1378 42.1005 15.7047 37.2166 10.8202C32.3439 5.94686 28.9 4.17524 26.8508 4.01722C25.9881 3.9507 25.1564 4.27033 24.5169 4.85296C20.8216 8.21981 20.4313 14.5061 20.0547 17.4854C19.9156 18.5853 18.9183 19.4611 17.8098 19.4752C16.0754 19.4973 12.7004 18.9671 10.2635 20.1393C8.83976 20.8241 8.40616 22.5325 9.17082 23.9151C10.2843 25.9282 12.3097 29.0161 15.6665 32.3733C19.0197 35.7269 22.0912 37.7381 24.0932 38.8408C25.4713 39.5999 27.1708 39.165 27.8543 37.7478C29.0313 35.3074 28.5158 31.9407 28.538 30.2036C28.5522 29.095 29.412 28.0816 30.512 27.9426C33.4959 27.5656 39.7962 27.1749 43.1614 23.4662Z" fill="#646464"/>
<path fill-rule="evenodd" clip-rule="evenodd" d="M5.61508 39.5563L15.5146 29.6568L18.343 32.4853L8.44351 42.3848C7.66246 43.1658 6.39613 43.1658 5.61508 42.3848C4.83404 41.6037 4.83403 40.3374 5.61508 39.5563Z" fill="#646464"/>
</svg>
