<svg width="48" height="48" viewBox="0 0 48 48" fill="none" xmlns="http://www.w3.org/2000/svg">
<path fill-rule="evenodd" clip-rule="evenodd" d="M37.0826 4.44935C40.5639 4.7322 43.2678 7.43604 43.5506 10.9173C43.7715 13.6353 44 17.9172 44 24C44 30.0828 43.7715 34.3648 43.5506 37.0827C43.2678 40.564 40.5639 43.2678 37.0826 43.5506C34.3647 43.7715 30.0828 44 24 44C17.9172 44 13.6352 43.7715 10.9173 43.5506C7.43603 43.2678 4.7322 40.5639 4.44936 37.0826C4.22853 34.3648 4 30.0828 4 24C4 17.9172 4.22852 13.6353 4.44935 10.9173C4.7322 7.43604 7.43604 4.7322 10.9173 4.44936C13.6353 4.22853 17.9172 4 24 4C30.0828 4 34.3648 4.22852 37.0826 4.44935Z" fill="#8D8D8D"/>
<path d="M11.1429 32.9919C11.1429 32.0372 11.1429 31.5599 11.3618 31.2114C11.476 31.0297 11.6297 30.876 11.8114 30.7618C12.1599 30.5429 12.6372 30.5429 13.5918 30.5429C14.5465 30.5429 15.0238 30.5429 15.3723 30.7618C15.554 30.876 15.7077 31.0297 15.8219 31.2114C16.0408 31.5599 16.0408 32.0372 16.0408 32.9919C16.0408 33.9465 16.0408 34.4238 15.8219 34.7723C15.7077 34.954 15.554 35.1077 15.3723 35.2219C15.0238 35.4408 14.5465 35.4408 13.5918 35.4408C12.6372 35.4408 12.1599 35.4408 11.8114 35.2219C11.6297 35.1077 11.476 34.954 11.3618 34.7723C11.1429 34.4238 11.1429 33.9465 11.1429 32.9919Z" fill="white"/>
<path d="M11.1429 15.0204C11.1429 14.0658 11.1429 13.5884 11.3618 13.24C11.476 13.0582 11.6297 12.9046 11.8114 12.7904C12.1599 12.5714 12.6372 12.5714 13.5918 12.5714C14.5465 12.5714 15.0238 12.5714 15.3723 12.7904C15.554 12.9046 15.7077 13.0582 15.8219 13.24C16.0408 13.5884 16.0408 14.0658 16.0408 15.0204C16.0408 15.9751 16.0408 16.4524 15.8219 16.8009C15.7077 16.9826 15.554 17.1362 15.3723 17.2504C15.0238 17.4694 14.5465 17.4694 13.5918 17.4694C12.6372 17.4694 12.1599 17.4694 11.8114 17.2504C11.6297 17.1362 11.476 16.9826 11.3618 16.8009C11.1429 16.4524 11.1429 15.9751 11.1429 15.0204Z" fill="white"/>
<path d="M11.1429 23.9919C11.1429 23.0372 11.1429 22.5599 11.3618 22.2114C11.476 22.0297 11.6297 21.876 11.8114 21.7619C12.1599 21.5429 12.6372 21.5429 13.5918 21.5429C14.5465 21.5429 15.0238 21.5429 15.3723 21.7619C15.554 21.876 15.7077 22.0297 15.8219 22.2114C16.0408 22.5599 16.0408 23.0372 16.0408 23.9919C16.0408 24.9465 16.0408 25.4239 15.8219 25.7723C15.7077 25.9541 15.554 26.1077 15.3723 26.2219C15.0238 26.4409 14.5465 26.4409 13.5918 26.4409C12.6372 26.4409 12.1599 26.4409 11.8114 26.2219C11.6297 26.1077 11.476 25.9541 11.3618 25.7723C11.1429 25.4239 11.1429 24.9465 11.1429 23.9919Z" fill="white"/>
<path d="M36.7609 34.2565C36.644 34.9629 36.1365 35.3265 35.5929 35.3427C34.4404 35.3772 32.0847 35.4286 28.2857 35.4286C24.4867 35.4286 22.131 35.3772 20.9786 35.3427C20.4349 35.3265 19.9275 34.9629 19.8105 34.2565C19.7549 33.9207 19.7143 33.4996 19.7143 32.9857C19.7143 32.4719 19.7549 32.0508 19.8105 31.715C19.9275 31.0086 20.4349 30.645 20.9786 30.6288C22.131 30.5943 24.4867 30.5429 28.2857 30.5429C32.0847 30.5429 34.4404 30.5943 35.5929 30.6288C36.1365 30.645 36.644 31.0086 36.7609 31.715C36.8165 32.0508 36.8571 32.4719 36.8571 32.9857C36.8571 33.4996 36.8165 33.9207 36.7609 34.2565Z" fill="white"/>
<path d="M36.7609 16.2851C36.644 16.9915 36.1365 17.355 35.5929 17.3712C34.4404 17.4058 32.0847 17.4571 28.2857 17.4571C24.4867 17.4571 22.131 17.4058 20.9786 17.3712C20.4349 17.355 19.9275 16.9915 19.8105 16.2851C19.7549 15.9492 19.7143 15.5281 19.7143 15.0143C19.7143 14.5005 19.7549 14.0793 19.8105 13.7435C19.9275 13.0371 20.4349 12.6735 20.9786 12.6573C22.131 12.6228 24.4867 12.5714 28.2857 12.5714C32.0847 12.5714 34.4404 12.6228 35.5929 12.6573C36.1365 12.6735 36.644 13.0371 36.7609 13.7435C36.8165 14.0793 36.8571 14.5005 36.8571 15.0143C36.8571 15.5281 36.8165 15.9492 36.7609 16.2851Z" fill="white"/>
<path d="M36.7609 25.2565C36.644 25.9629 36.1365 26.3265 35.5929 26.3427C34.4404 26.3772 32.0847 26.4286 28.2857 26.4286C24.4867 26.4286 22.131 26.3772 20.9786 26.3427C20.4349 26.3265 19.9275 25.9629 19.8105 25.2565C19.7549 24.9207 19.7143 24.4996 19.7143 23.9858C19.7143 23.4719 19.7549 23.0508 19.8105 22.715C19.9275 22.0086 20.4349 21.645 20.9786 21.6288C22.131 21.5943 24.4867 21.5429 28.2857 21.5429C32.0847 21.5429 34.4404 21.5943 35.5929 21.6288C36.1365 21.645 36.644 22.0086 36.7609 22.715C36.8165 23.0508 36.8571 23.4719 36.8571 23.9858C36.8571 24.4996 36.8165 24.9207 36.7609 25.2565Z" fill="white"/>
<mask id="path-2-outside-1_7423_269" maskUnits="userSpaceOnUse" x="-11.0662" y="-9.66162" width="30" height="30" fill="black">
<rect fill="white" x="-11.0662" y="-9.66162" width="30" height="30"/>
<path d="M15.1776 5.68867C15.5111 5.32107 15.6963 4.84465 15.6612 4.34952C15.5773 3.16376 14.5587 1.16114 11.7098 -1.68816C8.86738 -4.53094 6.85841 -5.56438 5.66303 -5.65656C5.15983 -5.69536 4.67464 -5.50891 4.30161 -5.16905C2.14602 -3.20505 1.91835 0.461928 1.69866 2.19987C1.61753 2.84146 1.03577 3.3524 0.389125 3.36062C-0.622594 3.37347 -2.59133 3.06418 -4.01287 3.74798C-4.84339 4.14746 -5.09633 5.14402 -4.65027 5.95051C-4.00075 7.12482 -2.81924 8.9261 -0.861128 10.8845C1.09489 12.8408 2.88659 14.0139 4.05445 14.6572C4.85836 15.1 5.8497 14.8463 6.24844 14.0196C6.93503 12.596 6.63432 10.6322 6.64722 9.61883C6.6555 8.97213 7.15709 8.38102 7.79873 8.29994C9.53936 8.07998 13.2146 7.85206 15.1776 5.68867Z"/>
<path fill-rule="evenodd" clip-rule="evenodd" d="M-6.72445 15.0746L-0.949748 9.29988L0.700168 10.9498L-5.07454 16.7245C-5.53015 17.1801 -6.26884 17.1801 -6.72445 16.7245C-7.18006 16.2689 -7.18007 15.5302 -6.72445 15.0746Z"/>
</mask>
<path d="M15.1776 5.68867C15.5111 5.32107 15.6963 4.84465 15.6612 4.34952C15.5773 3.16376 14.5587 1.16114 11.7098 -1.68816C8.86738 -4.53094 6.85841 -5.56438 5.66303 -5.65656C5.15983 -5.69536 4.67464 -5.50891 4.30161 -5.16905C2.14602 -3.20505 1.91835 0.461928 1.69866 2.19987C1.61753 2.84146 1.03577 3.3524 0.389125 3.36062C-0.622594 3.37347 -2.59133 3.06418 -4.01287 3.74798C-4.84339 4.14746 -5.09633 5.14402 -4.65027 5.95051C-4.00075 7.12482 -2.81924 8.9261 -0.861128 10.8845C1.09489 12.8408 2.88659 14.0139 4.05445 14.6572C4.85836 15.1 5.8497 14.8463 6.24844 14.0196C6.93503 12.596 6.63432 10.6322 6.64722 9.61883C6.6555 8.97213 7.15709 8.38102 7.79873 8.29994C9.53936 8.07998 13.2146 7.85206 15.1776 5.68867Z" fill="#646464"/>
<path fill-rule="evenodd" clip-rule="evenodd" d="M-6.72445 15.0746L-0.949748 9.29988L0.700168 10.9498L-5.07454 16.7245C-5.53015 17.1801 -6.26884 17.1801 -6.72445 16.7245C-7.18006 16.2689 -7.18007 15.5302 -6.72445 15.0746Z" fill="#646464"/>
<path d="M15.1776 5.68867L17.3993 7.7046L17.3994 7.70447L15.1776 5.68867ZM15.6612 4.34952L12.6687 4.56133L12.6687 4.56139L15.6612 4.34952ZM11.7098 -1.68816L13.8312 -3.80934L13.8312 -3.80935L11.7098 -1.68816ZM5.66303 -5.65656L5.43237 -2.66544L5.43238 -2.66544L5.66303 -5.65656ZM4.30161 -5.16905L2.28116 -7.38665L2.28114 -7.38663L4.30161 -5.16905ZM1.69866 2.19987L4.67496 2.57624L4.67498 2.5761L1.69866 2.19987ZM0.389125 3.36062L0.427226 6.36038L0.427286 6.36038L0.389125 3.36062ZM-4.01287 3.74798L-2.71248 6.45149L-2.71243 6.45147L-4.01287 3.74798ZM-4.65027 5.95051L-7.2755 7.40247L-7.27547 7.40253L-4.65027 5.95051ZM-0.861128 10.8845L1.26034 8.76331L-0.861128 10.8845ZM4.05445 14.6572L5.50188 12.0295L5.50183 12.0294L4.05445 14.6572ZM6.24844 14.0196L8.95057 15.3229L8.95057 15.3228L6.24844 14.0196ZM6.64722 9.61883L3.64747 9.58042L3.64747 9.58063L6.64722 9.61883ZM7.79873 8.29994L8.17483 11.2763L8.17484 11.2763L7.79873 8.29994ZM-0.949748 9.29988L1.17157 7.17856L-0.949748 5.05724L-3.07107 7.17856L-0.949748 9.29988ZM-6.72445 15.0746L-4.60313 17.1959L-6.72445 15.0746ZM0.700168 10.9498L2.82149 13.0711L4.94281 10.9498L2.82149 8.82847L0.700168 10.9498ZM-5.07454 16.7245L-2.95322 18.8458L-5.07454 16.7245ZM15.1776 5.68867L17.3994 7.70447C18.2234 6.79626 18.7526 5.53382 18.6537 4.13765L15.6612 4.34952L12.6687 4.56139C12.64 4.15548 12.7988 3.84589 12.9557 3.67287L15.1776 5.68867ZM15.6612 4.34952L18.6538 4.1377C18.5641 2.8716 18.0278 1.59618 17.2742 0.377108C16.4975 -0.879366 15.3676 -2.27281 13.8312 -3.80934L11.7098 -1.68816L9.58832 0.43301C10.9009 1.74579 11.7047 2.7783 12.1706 3.5319C12.6595 4.3229 12.6744 4.64167 12.6687 4.56133L15.6612 4.34952ZM11.7098 -1.68816L13.8312 -3.80935C12.2988 -5.34203 10.907 -6.47279 9.65126 -7.25251C8.43291 -8.00899 7.15856 -8.55015 5.89368 -8.64768L5.66303 -5.65656L5.43238 -2.66544C5.36288 -2.6708 5.6907 -2.64915 6.48629 -2.15516C7.24444 -1.68442 8.27841 -0.877068 9.58833 0.433019L11.7098 -1.68816ZM5.66303 -5.65656L5.89368 -8.64768C4.48492 -8.75631 3.20332 -8.22683 2.28116 -7.38665L4.30161 -5.16905L6.32207 -2.95144C6.14597 -2.791 5.83474 -2.63441 5.43237 -2.66544L5.66303 -5.65656ZM4.30161 -5.16905L2.28114 -7.38663C0.574636 -5.83181 -0.216826 -3.7629 -0.631762 -2.14517C-1.04677 -0.527167 -1.18763 1.11148 -1.27765 1.82364L1.69866 2.19987L4.67498 2.5761C4.80464 1.55032 4.88746 0.486502 5.18011 -0.654469C5.47283 -1.79571 5.873 -2.54229 6.32209 -2.95146L4.30161 -5.16905ZM1.69866 2.19987L-1.27764 1.8235C-1.21805 1.35233 -0.986541 0.995964 -0.730842 0.769955C-0.475962 0.544669 -0.104959 0.366664 0.350964 0.360865L0.389125 3.36062L0.427286 6.36038C2.54391 6.33345 4.40271 4.72917 4.67496 2.57624L1.69866 2.19987ZM0.389125 3.36062L0.351024 0.360864C0.21277 0.36262 0.0193191 0.352822 -0.383908 0.333756C-0.738382 0.316996 -1.20052 0.296862 -1.69495 0.30292C-2.63147 0.314396 -4.00708 0.416162 -5.31332 1.04449L-4.01287 3.74798L-2.71243 6.45147C-2.59712 6.396 -2.27759 6.31051 -1.62143 6.30247C-1.31952 6.29877 -1.01093 6.31081 -0.667295 6.32706C-0.372415 6.341 0.0596209 6.36505 0.427226 6.36038L0.389125 3.36062ZM-4.01287 3.74798L-5.31327 1.04447C-7.88904 2.28342 -8.44923 5.2803 -7.2755 7.40247L-4.65027 5.95051L-2.02505 4.49855C-1.8773 4.76569 -1.81511 5.12362 -1.92013 5.50097C-2.03078 5.89856 -2.31689 6.26121 -2.71248 6.45149L-4.01287 3.74798ZM-4.65027 5.95051L-7.27547 7.40253C-6.50935 8.78765 -5.16529 10.8227 -2.98259 13.0057L-0.861128 10.8845L1.26034 8.76331C-0.473192 7.02954 -1.49216 5.462 -2.02507 4.4985L-4.65027 5.95051ZM-0.861128 10.8845L-2.98259 13.0057C-0.801746 15.1868 1.22495 16.5237 2.60707 17.285L4.05445 14.6572L5.50183 12.0294C4.54824 11.5042 2.99152 10.4947 1.26034 8.76331L-0.861128 10.8845ZM4.05445 14.6572L2.60702 17.2849C4.73092 18.4548 7.71471 17.8852 8.95057 15.3229L6.24844 14.0196L3.54631 12.7163C3.73625 12.3225 4.09742 12.0367 4.49496 11.9254C4.8729 11.8197 5.23262 11.8812 5.50188 12.0295L4.05445 14.6572ZM6.24844 14.0196L8.95057 15.3228C9.57878 14.0203 9.68565 12.6497 9.70011 11.7116C9.70773 11.217 9.68896 10.755 9.67301 10.3993C9.65488 9.99526 9.64516 9.79972 9.64698 9.65703L6.64722 9.61883L3.64747 9.58063C3.64283 9.9446 3.66586 10.3745 3.67903 10.6682C3.69438 11.0102 3.70546 11.3182 3.70082 11.6191C3.69076 12.2722 3.60469 12.5953 3.5463 12.7163L6.24844 14.0196ZM6.64722 9.61883L9.64698 9.65723C9.64138 10.094 9.47503 10.455 9.25385 10.7105C9.03048 10.9686 8.66639 11.2142 8.17483 11.2763L7.79873 8.29994L7.42264 5.3236C5.215 5.60256 3.67385 7.5201 3.64747 9.58042L6.64722 9.61883ZM7.79873 8.29994L8.17484 11.2763C8.88819 11.1861 10.5301 11.0451 12.1511 10.6288C13.7716 10.2125 15.8445 9.41814 17.3993 7.7046L15.1776 5.68867L12.9558 3.67274C12.5477 4.12259 11.8014 4.52384 10.6584 4.81741C9.51586 5.11087 8.4499 5.19379 7.42262 5.32361L7.79873 8.29994ZM-0.949748 9.29988L-3.07107 7.17856L-8.84577 12.9533L-6.72445 15.0746L-4.60313 17.1959L1.17157 11.4212L-0.949748 9.29988ZM0.700168 10.9498L2.82149 8.82847L1.17157 7.17856L-0.949748 9.29988L-3.07107 11.4212L-1.42115 13.0711L0.700168 10.9498ZM-5.07454 16.7245L-2.95322 18.8458L2.82149 13.0711L0.700168 10.9498L-1.42115 8.82847L-7.19586 14.6032L-5.07454 16.7245ZM-6.72445 16.7245L-8.84577 18.8458C-7.21859 20.473 -4.5804 20.473 -2.95322 18.8458L-5.07454 16.7245L-7.19586 14.6032C-6.4799 13.8872 -5.31909 13.8872 -4.60313 14.6032L-6.72445 16.7245ZM-6.72445 15.0746L-8.84577 12.9533C-10.473 14.5805 -10.473 17.2186 -8.84577 18.8458L-6.72445 16.7245L-4.60313 14.6032C-3.88717 15.3191 -3.88717 16.4799 -4.60313 17.1959L-6.72445 15.0746Z" fill="white" mask="url(#path-2-outside-1_7423_269)"/>
</svg>
