<svg width="48" height="48" viewBox="0 0 48 48" fill="none" xmlns="http://www.w3.org/2000/svg">
<path d="M8.95001 11.6554C9.24407 11.6556 9.49248 11.7584 9.6961 11.962L12.4637 14.7472L14.3504 12.8781C14.6783 12.5391 14.9837 12.4592 15.2664 12.6398C15.5494 12.8209 15.709 13.0434 15.743 13.3038L16.6922 19.4503C16.7374 19.7444 16.6593 19.999 16.4559 20.214C16.2409 20.4177 15.9801 20.4974 15.6746 20.4523L9.54376 19.5011C9.28355 19.4672 9.06272 19.3091 8.88165 19.0265C8.70051 18.7435 8.78029 18.4431 9.11993 18.1261L10.9871 16.2413L8.20196 13.4562C7.99818 13.2524 7.89727 13.0025 7.89727 12.7081C7.89737 12.4142 7.99856 12.1656 8.20196 11.962C8.40574 11.7583 8.65566 11.6554 8.95001 11.6554Z" fill="#646464"/>
<path fill-rule="evenodd" clip-rule="evenodd" d="M10.9656 5.55383C16.7346 5.2767 23.5522 5.27668 29.3211 5.55383C30.7582 5.62287 32.0484 5.68073 33.1063 5.88586C34.2504 6.10784 35.3044 6.53127 36.2117 7.43274C37.1182 8.33351 37.5488 9.38309 37.7781 10.5245C37.9899 11.5794 38.0558 12.8673 38.1336 14.2999C38.2551 16.5363 38.3009 18.7406 38.2781 20.9503C39.2805 20.9894 40.1961 21.0416 40.9871 21.1886C42.1523 21.4053 43.2139 21.8403 44.1336 22.7628C45.0489 23.6809 45.4818 24.7341 45.6961 25.8937C45.8919 26.9542 45.9238 28.2375 45.9656 29.6456C46.009 31.106 46.009 32.5564 45.9656 34.0167C45.9238 35.4248 45.892 36.7082 45.6961 37.7687C45.4817 38.9278 45.0486 39.9817 44.1336 40.8995C43.214 41.8215 42.152 42.2571 40.9871 42.4738C39.9186 42.6723 38.6221 42.7082 37.1922 42.755L37.159 42.757H37.1258C34.0583 42.8557 30.7265 42.8552 27.6629 42.755C26.233 42.7082 24.9364 42.6724 23.868 42.4738C22.7032 42.257 21.641 41.8218 20.7215 40.8995C19.8065 39.9816 19.3733 38.9279 19.159 37.7687C18.9833 36.8179 18.9424 35.6884 18.9051 34.4503C16.1754 34.4345 13.4717 34.3696 10.9656 34.2491C9.52864 34.1801 8.23833 34.1242 7.18048 33.9191C6.0361 33.6971 4.98247 33.272 4.07501 32.3702C3.16879 31.4693 2.73785 30.42 2.5086 29.2784C2.297 28.2237 2.23292 26.937 2.15509 25.505C1.95043 21.7391 1.95041 18.0659 2.15509 14.2999C2.23294 12.8674 2.29678 11.5794 2.5086 10.5245C2.73799 9.38314 3.1686 8.33347 4.07501 7.43274C4.98229 6.5315 6.03645 6.10779 7.18048 5.88586C8.23826 5.68081 9.52878 5.62286 10.9656 5.55383ZM29.1297 9.54993C23.4889 9.27893 16.7999 9.27898 11.159 9.54993C9.60674 9.6245 8.65198 9.67604 7.9422 9.8136C7.31994 9.93433 7.07875 10.0886 6.89532 10.2706C6.7111 10.4537 6.55494 10.6943 6.43048 11.3136C6.28874 12.02 6.23331 12.9697 6.14923 14.5167C5.95241 18.1381 5.95243 21.6669 6.14923 25.2882C6.23332 26.8353 6.28877 27.7849 6.43048 28.4913C6.55497 29.1113 6.71101 29.3511 6.89532 29.5343C7.07884 29.7166 7.31925 29.8705 7.9422 29.9913C8.65183 30.1289 9.6052 30.1804 11.157 30.255C13.5897 30.3719 16.2174 30.4342 18.8719 30.4503C18.8769 30.1817 18.8815 29.9128 18.8895 29.6437C18.9313 28.2361 18.9632 26.9539 19.159 25.8937C19.3732 24.7345 19.8069 23.6807 20.7215 22.7628C21.6409 21.8407 22.7033 21.4054 23.868 21.1886C24.9364 20.9899 26.2331 20.9541 27.6629 20.9073C29.7975 20.8375 32.0632 20.8161 34.2781 20.8429C34.2984 18.7414 34.2551 16.6449 34.1395 14.5167C34.0554 12.9695 33.998 12.02 33.8563 11.3136C33.7318 10.694 33.5757 10.4537 33.3914 10.2706C33.208 10.0884 32.9671 9.93442 32.3445 9.8136C31.6349 9.67599 30.6817 9.62449 29.1297 9.54993Z" fill="#646464"/>
</svg>
