<svg width="48" height="48" viewBox="0 0 48 48" fill="none" xmlns="http://www.w3.org/2000/svg">
<path d="M8.92852 11.6671L15.0574 12.6183C15.3178 12.6522 15.5384 12.8119 15.7195 13.0948C15.9007 13.3779 15.8228 13.6782 15.4832 13.9952L13.6141 15.88L16.3992 18.6652C16.6029 18.8688 16.7058 19.1171 16.7059 19.4113C16.7059 19.7056 16.603 19.9555 16.3992 20.1593C16.1957 20.3627 15.947 20.4638 15.6531 20.464C15.3588 20.464 15.1089 20.363 14.9051 20.1593L12.1375 17.3741L10.2527 19.2413C9.92443 19.581 9.61781 19.6608 9.33477 19.4796C9.05204 19.2986 8.89416 19.0777 8.86017 18.8175L7.90899 12.6691C7.86399 12.3751 7.94369 12.1203 8.14727 11.9054C8.36227 11.702 8.62312 11.6219 8.92852 11.6671Z" fill="#646464"/>
<path fill-rule="evenodd" clip-rule="evenodd" d="M10.9656 5.55383C16.7346 5.2767 23.5522 5.27668 29.3211 5.55383C30.7582 5.62287 32.0484 5.68073 33.1063 5.88586C34.2504 6.10784 35.3044 6.53127 36.2117 7.43274C37.1182 8.33351 37.5488 9.38309 37.7781 10.5245C37.9899 11.5794 38.0558 12.8673 38.1336 14.2999C38.2551 16.5363 38.3009 18.7406 38.2781 20.9503C39.2805 20.9894 40.1961 21.0416 40.9871 21.1886C42.1523 21.4053 43.2139 21.8403 44.1336 22.7628C45.0489 23.6809 45.4818 24.7341 45.6961 25.8937C45.8919 26.9542 45.9238 28.2375 45.9656 29.6456C46.009 31.106 46.009 32.5564 45.9656 34.0167C45.9238 35.4248 45.892 36.7082 45.6961 37.7687C45.4817 38.9278 45.0486 39.9817 44.1336 40.8995C43.214 41.8215 42.152 42.2571 40.9871 42.4738C39.9186 42.6723 38.6221 42.7082 37.1922 42.755L37.159 42.757H37.1258C34.0583 42.8557 30.7265 42.8552 27.6629 42.755C26.233 42.7082 24.9364 42.6724 23.868 42.4738C22.7032 42.257 21.641 41.8218 20.7215 40.8995C19.8065 39.9816 19.3733 38.9279 19.159 37.7687C18.9833 36.8179 18.9424 35.6884 18.9051 34.4503C16.1754 34.4345 13.4717 34.3696 10.9656 34.2491C9.52864 34.1801 8.23833 34.1242 7.18048 33.9191C6.0361 33.6971 4.98247 33.272 4.07501 32.3702C3.16879 31.4693 2.73785 30.42 2.5086 29.2784C2.297 28.2237 2.23292 26.937 2.15509 25.505C1.95043 21.7391 1.95041 18.0659 2.15509 14.2999C2.23294 12.8674 2.29678 11.5794 2.5086 10.5245C2.73799 9.38314 3.1686 8.33347 4.07501 7.43274C4.98229 6.5315 6.03645 6.10779 7.18048 5.88586C8.23826 5.68081 9.52878 5.62286 10.9656 5.55383ZM29.1297 9.54993C23.4889 9.27893 16.7999 9.27898 11.159 9.54993C9.60674 9.6245 8.65198 9.67604 7.9422 9.8136C7.31994 9.93433 7.07875 10.0886 6.89532 10.2706C6.7111 10.4537 6.55494 10.6943 6.43048 11.3136C6.28874 12.02 6.23331 12.9697 6.14923 14.5167C5.95241 18.1381 5.95243 21.6669 6.14923 25.2882C6.23332 26.8353 6.28877 27.7849 6.43048 28.4913C6.55497 29.1113 6.71101 29.3511 6.89532 29.5343C7.07884 29.7166 7.31925 29.8705 7.9422 29.9913C8.65183 30.1289 9.6052 30.1804 11.157 30.255C13.5897 30.3719 16.2174 30.4342 18.8719 30.4503C18.8769 30.1817 18.8815 29.9128 18.8895 29.6437C18.9313 28.2361 18.9632 26.9539 19.159 25.8937C19.3732 24.7345 19.8069 23.6807 20.7215 22.7628C21.6409 21.8407 22.7033 21.4054 23.868 21.1886C24.9364 20.9899 26.2331 20.9541 27.6629 20.9073C29.7975 20.8375 32.0632 20.8161 34.2781 20.8429C34.2984 18.7414 34.2551 16.6449 34.1395 14.5167C34.0554 12.9695 33.998 12.02 33.8563 11.3136C33.7318 10.694 33.5757 10.4537 33.3914 10.2706C33.208 10.0884 32.9671 9.93442 32.3445 9.8136C31.6349 9.67599 30.6817 9.62449 29.1297 9.54993Z" fill="#646464"/>
</svg>
