<svg width="48" height="48" viewBox="0 0 48 48" fill="none" xmlns="http://www.w3.org/2000/svg">
<path fill-rule="evenodd" clip-rule="evenodd" d="M26.1499 26.3691C25.3998 26.3691 24.7916 26.9773 24.7916 27.7275C24.7916 28.4776 25.3998 29.0858 26.1499 29.0858C26.9 29.0858 27.5082 28.4776 27.5082 27.7275C27.5082 26.9773 26.9 26.3691 26.1499 26.3691ZM20.7916 27.7275C20.7916 24.7683 23.1905 22.3691 26.1499 22.3691C29.1092 22.3691 31.5082 24.7682 31.5082 27.7275C31.5082 30.6867 29.1092 33.0858 26.1499 33.0858C23.1905 33.0858 20.7916 30.6867 20.7916 27.7275Z" fill="#646464"/>
<path fill-rule="evenodd" clip-rule="evenodd" d="M22.8851 4.57379C19.7935 3.09345 16.4786 4.60433 15.0196 7.34156C11.0252 14.8349 7.93218 22.8439 6.05885 29.2276C5.12364 32.4144 4.47703 35.2482 4.18255 37.4414C4.03635 38.5304 3.96703 39.5317 4.01516 40.3706C4.03922 40.79 4.0956 41.2283 4.21522 41.6437C4.32906 42.039 4.54368 42.568 4.9877 43.012C5.43169 43.4559 5.9606 43.6706 6.35593 43.7844C6.77133 43.904 7.20958 43.9604 7.629 43.9844C8.46791 44.0326 9.46922 43.9632 10.5582 43.817C12.7514 43.5226 15.5852 42.8759 18.772 41.9407C24.7178 40.1959 32.0735 37.3931 39.1092 33.7893C39.6275 33.5239 40.144 33.2541 40.6581 32.98C43.3952 31.521 44.9062 28.2062 43.4258 25.1146C42.0371 22.2142 39.4404 17.96 34.74 13.2596C30.0396 8.55923 25.7854 5.96254 22.8851 4.57379ZM8.14698 37.9737C8.02947 38.8489 7.9888 39.5214 8.00246 39.9971C8.47816 40.0108 9.15067 39.9701 10.0259 39.8526L10.0246 39.7869C10.0246 35.3449 13.6255 31.7439 18.0675 31.7439C20.9979 31.7439 23.5593 33.3099 24.9653 35.6489C28.4056 34.3618 32.0433 32.8191 35.6298 31.0593C34.426 28.54 32.0839 24.6558 27.714 20.286C23.3438 15.9159 19.4596 13.5737 16.9404 12.37C16.4749 13.3186 16.0246 14.2709 15.5902 15.2221C18.0317 16.8093 19.6482 19.5611 19.6482 22.6937C19.6482 27.6126 15.6608 31.6001 10.742 31.6001C10.3428 31.6001 9.94916 31.5737 9.56296 31.5225C8.84733 34.0966 8.37152 36.3013 8.14698 37.9737ZM39.8181 26.8421C38.6131 24.3254 36.2729 20.4494 31.9116 16.0881C27.5502 11.7267 23.6742 9.38656 21.1576 8.18153C20.9196 8.06755 20.6626 8.00836 20.4023 8.00571C20.2975 8.00464 20.1922 8.01272 20.0874 8.0301C19.6621 8.10064 19.2451 8.32406 18.9047 8.70803C18.8706 8.74647 18.8373 8.78652 18.8048 8.82819C21.6989 10.229 25.9025 12.8177 30.5424 17.4575C35.1823 22.0973 37.7709 26.3009 39.1717 29.195C39.9869 28.5598 40.1828 27.6038 39.8181 26.8421ZM13.9512 18.982C12.7053 21.9784 11.6312 24.9005 10.7512 27.6001C13.4566 27.5951 15.6482 25.4004 15.6482 22.6937C15.6482 21.2126 14.9914 19.8825 13.9512 18.982ZM14.09 39.0586C16.1324 38.5663 18.4868 37.8885 21.0347 37.0401C20.2955 36.2426 19.2387 35.7439 18.0675 35.7439C16.0833 35.7439 14.4329 37.1733 14.09 39.0586Z" fill="#646464"/>
</svg>
