<svg width="48" height="48" viewBox="0 0 48 48" fill="none" xmlns="http://www.w3.org/2000/svg">
<path fill-rule="evenodd" clip-rule="evenodd" d="M18.6175 41.3816C21.1313 40.3803 24.3944 38.8926 28.558 36.6805C32.4916 34.5908 35.612 32.7136 38.0466 31.1169C40.6694 29.3965 42.1078 26.76 42.1078 24.0015C42.1078 21.243 40.6694 18.6064 38.0466 16.8861C35.6119 15.2892 32.4915 13.4121 28.558 11.3222C24.3944 9.11039 21.1313 7.62267 18.6176 6.62135C16.1346 5.63221 13.5907 5.85031 11.556 7.11034C9.53576 8.36141 8.19031 10.5301 7.83873 13.1214C7.44879 15.9964 7.13184 19.666 7.13184 24.0014C7.13184 28.3369 7.4488 32.0067 7.83874 34.8816C8.19032 37.4729 9.53576 39.6416 11.556 40.8926C13.5907 42.1526 16.1346 42.3708 18.6175 41.3816ZM13.6619 10.5111C12.7602 11.0695 12.0104 12.1264 11.8024 13.659C11.4346 16.3712 11.1318 19.8608 11.1318 24.0014C11.1318 28.1422 11.4346 31.6317 11.8024 34.3438C12.0104 35.8765 12.7602 36.9335 13.6619 37.4919C14.5492 38.0413 15.754 38.2166 17.1373 37.6656C19.4938 36.7269 22.6238 35.3038 26.6813 33.1481C30.5126 31.1127 33.5267 29.2977 35.8528 27.7721C37.4408 26.7305 38.1078 25.305 38.1078 24.0015C38.1078 22.6979 37.4408 21.2724 35.8528 20.2308C33.5267 18.7051 30.5126 16.8903 26.6814 14.8547C22.6238 12.6992 19.4938 11.2761 17.1372 10.3373C15.754 9.7863 14.5492 9.96162 13.6619 10.5111Z" fill="#646464"/>
</svg>
