<svg width="48" height="48" viewBox="0 0 48 48" fill="none" xmlns="http://www.w3.org/2000/svg">
<path fill-rule="evenodd" clip-rule="evenodd" d="M24 8C15.1634 8 8 15.1634 8 24C8 32.8366 15.1634 40 24 40C32.8366 40 40 32.8366 40 24C40 15.1634 32.8366 8 24 8ZM4 24C4 12.9543 12.9543 4 24 4C35.0457 4 44 12.9543 44 24C44 35.0457 35.0457 44 24 44C12.9543 44 4 35.0457 4 24Z" fill="#646464"/>
<path fill-rule="evenodd" clip-rule="evenodd" d="M21.8847 14.1427C20.3384 13.5267 18.7028 13.6495 17.376 14.4711C16.0637 15.2838 15.2259 16.6709 15.0099 18.2631C14.8035 19.7844 14.6367 21.7196 14.6367 24.0015C14.6367 26.2834 14.8035 28.2185 15.0099 29.7398C15.2259 31.332 16.0637 32.7192 17.376 33.5319C18.7028 34.3535 20.3384 34.4763 21.8847 33.8603C23.2185 33.329 24.9327 32.5465 27.1045 31.3927C29.1569 30.3023 30.791 29.3197 32.0721 28.4795C33.6747 27.4283 34.6031 25.7758 34.6031 24.0015C34.6031 22.2272 33.6748 20.5747 32.0722 19.5236C30.791 18.6832 29.1568 17.7006 27.1045 16.6103C24.9328 15.4565 23.2185 14.674 21.8847 14.1427ZM19.482 17.8719C19.2882 17.9919 19.046 18.2673 18.9736 18.8008C18.7893 20.1593 18.6367 21.9144 18.6367 24.0015C18.6367 26.0886 18.7893 27.8436 18.9736 29.2021C19.046 29.7356 19.2882 30.0111 19.482 30.1311C19.6613 30.2422 19.9579 30.3222 20.4044 30.1443C21.581 29.6756 23.1621 28.9577 25.2278 27.8602C27.1778 26.8243 28.7057 25.9038 29.8784 25.1347C30.4462 24.7622 30.6031 24.3209 30.6031 24.0015C30.6031 23.6821 30.4462 23.2407 29.8784 22.8683C28.7057 22.0991 27.1778 21.1787 25.2278 20.1427C23.1621 19.0453 21.581 18.3274 20.4044 17.8587C19.9578 17.6808 19.6613 17.7608 19.482 17.8719Z" fill="#646464"/>
</svg>
