<svg width="48" height="48" viewBox="0 0 48 48" fill="none" xmlns="http://www.w3.org/2000/svg">
<path d="M20.62 21.9058H14C12.9 21.9058 12 21.0058 12 19.9058C12 18.8058 12.9 17.9058 14 17.9058H20.62C21.72 17.9058 22.62 18.8058 22.62 19.9058C22.62 21.0058 21.72 21.9058 20.62 21.9058Z" fill="#646464"/>
<path d="M14 29.9458H20.62C21.72 29.9458 22.62 29.0458 22.62 27.9458C22.62 26.8458 21.72 25.9458 20.62 25.9458H14C12.9 25.9458 12 26.8458 12 27.9458C12 29.0458 12.9 29.9458 14 29.9458Z" fill="#646464"/>
<path d="M14 37.0859C12.9 37.0859 12 36.1859 12 35.0859C12 33.9859 12.9 33.0859 14 33.0859H35.76C36.86 33.0859 37.76 33.9859 37.76 35.0859C37.76 36.1859 36.86 37.0859 35.76 37.0859H14Z" fill="#646464"/>
<path fill-rule="evenodd" clip-rule="evenodd" d="M29.3201 30.0059C29.9401 30.0459 30.7001 30.0659 31.6601 30.0659H31.6401C32.3899 30.0659 33.0299 30.0415 33.5601 30.0212C33.7087 30.0156 33.8487 30.0102 33.9801 30.0059C35.9801 29.9059 37.5801 28.3059 37.6801 26.3059C37.7201 25.6859 37.7401 24.9259 37.7401 23.9659C37.7401 23.2161 37.7157 22.5762 37.6954 22.046C37.6898 21.8973 37.6844 21.7573 37.6801 21.6259C37.5801 19.6059 35.9801 18.0259 33.9801 17.9259C32.7601 17.8659 30.5201 17.8659 29.3201 17.9259C27.3001 18.0259 25.7201 19.6259 25.6201 21.6259C25.5801 22.2459 25.5601 23.0059 25.5601 23.9659C25.5601 24.9259 25.5801 25.7059 25.6201 26.3059C25.7201 28.3059 27.3201 29.9059 29.3201 30.0059ZM29.5401 21.9459C30.0801 21.9259 30.7801 21.9059 31.6601 21.9059V21.8859C31.8445 21.8859 32.021 21.8867 32.1891 21.8876C32.8229 21.8907 33.3365 21.8933 33.7001 21.8459C33.7401 22.3859 33.7401 23.0859 33.7401 23.9659C33.7401 24.1503 33.7392 24.3268 33.7383 24.4949C33.7352 25.1287 33.7326 25.6423 33.7801 26.0059C33.2401 26.0459 32.5401 26.0459 31.6601 26.0459C31.5077 26.0459 31.3607 26.0453 31.2195 26.0447C30.5449 26.0419 30.0004 26.0397 29.6201 26.1059C29.5801 25.5659 29.5801 24.8659 29.5801 23.9859C29.5801 23.8014 29.5809 23.6249 29.5818 23.4568C29.5849 22.823 29.5875 22.3094 29.5401 21.9459Z" fill="#646464"/>
<path fill-rule="evenodd" clip-rule="evenodd" d="M5.73408 29.6347C5.48142 27.9536 5.21067 26.0107 4.93992 23.8061C4.43992 19.6061 4.11992 15.8461 3.99992 12.6261C3.87992 9.48607 6.01992 6.74608 9.07992 6.14608C11.4799 5.66608 15.5799 4.94607 21.4799 4.18607C27.4199 3.44607 31.5599 3.14607 33.9799 3.00607C36.2999 2.90607 38.4799 4.04607 39.6799 6.02607C40.2399 6.96607 39.9399 8.20607 38.9999 8.76608C38.0599 9.32608 36.8199 9.02607 36.2599 8.08607C35.8199 7.36607 35.0599 6.96607 34.1999 7.00607C31.8399 7.12607 27.7999 7.42607 21.9999 8.16607C16.1999 8.88608 12.2199 9.60608 9.87992 10.0661C8.73992 10.2861 7.95992 11.2861 8.01992 12.4861C8.02519 12.627 8.03106 12.7743 8.03762 12.9279C9.08419 11.933 10.4777 11.2938 12.0402 11.1857C14.5202 11.0257 18.7602 10.8257 24.8602 10.8257C30.9602 10.8257 35.2002 11.0257 37.6802 11.1857C40.8402 11.4057 43.3402 13.8257 43.6202 16.9657C43.8802 19.9657 44.0002 23.4657 44.0002 27.3857C44.0002 31.3057 43.8602 34.8057 43.6202 37.8057C43.3602 40.9457 40.8602 43.3857 37.6802 43.5857C35.1802 43.7457 30.9402 43.9457 24.8602 43.9457C18.7802 43.9457 14.5402 43.7457 12.0402 43.5857C8.88021 43.3657 6.38021 40.9457 6.10021 37.8057C5.89097 35.4074 5.7724 32.6594 5.73408 29.6347ZM9.71988 29.9549C9.76349 32.7284 9.88059 35.2344 10.0802 37.4457C10.1802 38.6257 11.1002 39.5057 12.3002 39.5857C14.7402 39.7457 18.9002 39.9457 24.8602 39.9457C30.8202 39.9457 34.9802 39.7457 37.4202 39.5857C38.6202 39.5057 39.5402 38.6257 39.6402 37.4457C39.8802 34.5657 40.0202 31.1857 40.0202 27.3657C40.0202 23.5457 39.9002 20.1657 39.6402 17.2857C39.5402 16.1057 38.6202 15.2257 37.4202 15.1457C35.0002 14.9857 30.8602 14.7857 24.8602 14.7857C18.8602 14.7857 14.7202 14.9857 12.3002 15.1457C11.1002 15.2257 10.1802 16.1057 10.0802 17.2857C9.84021 20.1657 9.70021 23.5457 9.70021 27.3657C9.70021 27.9191 9.70273 28.4633 9.70783 28.998L9.73992 29.2061C9.78202 29.4634 9.7727 29.7163 9.71988 29.9549Z" fill="#646464"/>
</svg>
