<svg width="48" height="48" viewBox="0 0 48 48" fill="none" xmlns="http://www.w3.org/2000/svg">
<path d="M34 18.5H35C36.1 18.5 37 19.4 37 20.5C37 21.6 36.1 22.5 35 22.5H34C32.9 22.5 32 21.6 32 20.5C32 19.4 32.9 18.5 34 18.5Z" fill="#646464"/>
<path fill-rule="evenodd" clip-rule="evenodd" d="M43.6933 17.5158C43.8669 19.0477 44 21.1735 44 24.06C44 27.02 43.86 29.18 43.68 30.72C43.34 33.62 40.94 35.46 38.22 35.7C37.8007 35.7406 37.3264 35.772 36.8034 35.8067C36.5532 35.8233 36.2919 35.8406 36.02 35.86C36.0125 36.0784 36.0021 36.2883 35.9921 36.4907C35.9756 36.8259 35.96 37.1407 35.96 37.44C35.84 40.64 33.5 43.3 30.24 43.64C28.52 43.82 26.36 43.98 24 43.98C21.641 43.98 19.4818 43.8201 17.7621 43.6402L17.76 43.66C14.52 43.32 12.16 40.64 12.04 37.46C12.0342 37.3194 12.0266 37.1753 12.0188 37.0272C12 36.6702 11.98 36.29 11.98 35.88C11.7082 35.8606 11.4468 35.8433 11.1966 35.8267C10.6736 35.792 10.1994 35.7606 9.78002 35.72C7.0682 35.4728 4.67919 33.6329 4.34002 30.74C4.16002 29.2 4.02002 27.04 4.02002 24.08C4.02002 21.12 4.16002 18.96 4.34002 17.42C4.68002 14.52 7.08002 12.68 9.80002 12.44L9.80064 12.4469C10.6582 12.3703 11.8908 12.2976 13.1199 12.24V8.41998C13.3799 6.25998 15.0599 4.61998 17.1999 4.33998C18.6199 4.15998 21.6199 3.97998 24.0599 3.97998C26.4999 3.97998 29.4999 4.13998 30.9199 4.33998C33.0599 4.63998 34.7399 6.25998 34.9999 8.41998V12.24L35.6983 12.2831C36.677 12.3432 37.5211 12.395 38.2199 12.46C40.9399 12.68 43.3533 14.6158 43.6933 17.5158ZM24.0501 16C31.14 16.001 35.4057 16.2205 37.8599 16.44C39.024 16.537 39.5962 17.2372 39.7024 17.8997L39.7 17.9C39.86 19.26 40 21.26 40 24.08C40 26.9 39.86 28.92 39.7 30.26C39.62 30.94 39.06 31.62 37.86 31.72C37.686 31.7339 37.5 31.7478 37.3026 31.7626C36.9328 31.7903 36.5234 31.8209 36.08 31.86C36.1 30.38 36.12 28.7 36.12 26.78C36.12 26.22 35.9 25.7 35.5 25.32C35.1 24.94 34.56 24.74 34.02 24.78C31.74 24.92 28.52 25.02 24 25.02C19.48 25.02 16.24 24.92 13.98 24.78C13.42 24.74 12.9 24.94 12.5 25.32C12.1 25.7 11.88 26.22 11.88 26.78C11.88 28.68 11.9 30.36 11.92 31.86C11.24 31.82 10.66 31.78 10.16 31.72C8.96002 31.62 8.40002 30.94 8.32002 30.26C8.16002 28.9 8.02002 26.9 8.02002 24.08C8.02002 21.26 8.16002 19.24 8.32002 17.9C8.40002 17.22 8.96002 16.54 10.16 16.44L10.1596 16.4351C12.6303 16.218 17.057 16.001 24.0501 16ZM17.0199 8.93998C17.0599 8.65998 17.2599 8.41998 17.6599 8.35998C18.8399 8.19998 21.6399 8.01998 23.9999 8.01998C26.3599 8.01998 29.1399 8.19998 30.3399 8.35998C30.7399 8.41998 30.9399 8.65998 30.9799 8.93998V12.1C28.9999 12.04 26.6999 12.02 23.9999 12.02C21.2999 12.02 18.9799 12.06 17.0199 12.1V8.93998ZM29.84 39.66L29.8219 39.6781L29.82 39.66C28.2 39.82 26.18 39.98 24 39.98C21.82 39.98 19.8 39.84 18.18 39.66C17 39.54 16.08 38.58 16.04 37.3C15.96 35.38 15.9 32.62 15.88 28.88C18 28.96 20.66 29.02 24.02 29.02C27.38 29.02 30.02 28.96 32.14 28.88C32.12 32.62 32.04 35.38 31.98 37.3C31.94 38.58 31.02 39.54 29.84 39.66Z" fill="#646464"/>
</svg>
