<svg width="48" height="48" viewBox="0 0 48 48" fill="none" xmlns="http://www.w3.org/2000/svg">
<path fill-rule="evenodd" clip-rule="evenodd" d="M8.517 4.65799C8.89616 4.23903 9.43485 4 9.99991 4C13.2943 4 16.0328 4.82169 18.4917 5.55949L18.5746 5.58435C21.0943 6.34027 23.3314 7 25.9999 7C28.7439 7 31.2809 6.55207 33.4006 6.17781L33.5273 6.15543C34.5558 5.97394 35.5797 5.79441 36.4137 5.7388C36.8341 5.71078 37.3104 5.70551 37.7746 5.7835C38.224 5.85899 38.876 6.04764 39.4141 6.58579C40.2553 7.42701 40.1509 8.52057 40.0958 8.91401C40.0224 9.43828 39.8424 9.97663 39.6608 10.4436C39.2987 11.3747 38.7336 12.5049 38.1964 13.5792L38.1638 13.6444C37.5937 14.7846 37.0341 15.9059 36.6132 16.9217C36.165 18.0037 35.9999 18.6815 35.9999 19C35.9999 19.2674 36.1342 19.7964 36.5544 20.6369C36.9526 21.4333 37.4895 22.2855 38.0573 23.1686C38.1058 23.2441 38.155 23.3205 38.2046 23.3975C38.6973 24.1623 39.2321 24.9925 39.5856 25.6995C39.777 26.0822 39.9949 26.5802 40.0862 27.1101C40.1745 27.6234 40.2095 28.6191 39.414 29.4145C38.9053 29.9231 38.1382 30.3551 37.3925 30.7031C36.5846 31.0801 35.5823 31.4576 34.4392 31.7938C32.1542 32.4658 29.2138 33 25.9999 33C22.7054 33 19.9669 32.1783 17.5079 31.4405L17.4252 31.4157C15.8454 30.9418 14.3767 30.5056 12.843 30.2462C12.748 32.3447 12.6211 34.3745 12.4948 36.1425C12.3689 37.9057 12.2429 39.417 12.1484 40.4883C12.1011 41.0241 12.0617 41.4501 12.034 41.743L12.0017 42.0796L11.99 42.1987C11.99 42.1987 11.99 42.199 9.99991 42L11.99 42.1987C11.8801 43.2978 10.9 44.1 9.8009 43.9901C8.70181 43.8802 7.89992 42.9001 8.00983 41.801L8.01245 41.7746L8.02056 41.6919L8.05176 41.3663C8.07875 41.0811 8.11742 40.6634 8.1639 40.1367C8.25687 39.083 8.38093 37.5943 8.50499 35.8575C8.75371 32.3754 8.99991 27.93 8.99991 24C8.99991 20.07 8.75371 15.6246 8.50499 12.1425C8.38093 10.4057 8.25687 8.91696 8.1639 7.86329C8.11742 7.33657 8.07875 6.9189 8.05176 6.63366L8.02056 6.30815L8.01245 6.22543L8.00995 6.20021C7.95374 5.63797 8.13785 5.07694 8.517 4.65799Z" fill="#646464"/>
</svg>
