<svg width="48" height="48" viewBox="0 0 48 48" fill="none" xmlns="http://www.w3.org/2000/svg">
<path fill-rule="evenodd" clip-rule="evenodd" d="M8.16607 14.4074C8.13449 12.7015 8.10277 10.9875 8.08291 9.26963C8.05387 7.95306 8.0274 6.83604 8.0084 6.04825C7.98176 4.944 8.85534 4.02723 9.95958 4.00059C9.98516 3.99998 10.0106 3.99984 10.036 4.00018C10.0833 3.99956 10.1308 4.00061 10.1783 4.00337C14.2588 4.24008 17.0622 5.02065 19.5398 5.71052L19.56 5.71615C22.063 6.4131 24.161 6.99085 27.1325 6.99085C29.8118 6.99085 32.8377 6.28562 35.068 5.62197C36.3176 5.25015 37.6329 5.48824 38.607 6.17926C39.6124 6.89254 40.3857 8.23821 39.933 9.81328C39.2736 12.1079 38.0667 15.525 35.9834 19.1844C36.1778 19.8365 36.5332 20.673 37.0202 21.6241C37.6543 22.8625 38.4178 24.118 39.0578 25.1116C40.5022 27.3547 39.2748 30.0967 36.8121 30.8097C34.464 31.4896 30.668 32.4063 27.1325 32.4063C22.4816 32.4063 19.655 31.798 16.9489 31.2156C15.4292 30.8886 13.9715 30.5758 12.2087 30.3676C12.1877 31.7872 12.164 33.2318 12.1403 34.5972C12.1051 36.6276 12.07 38.4885 12.0436 39.8417C12.0304 40.5183 12.0194 41.0682 12.0117 41.4489L11.9996 42.0416C11.9766 43.1459 11.0627 44.0225 9.95841 43.9996C8.85408 43.9766 7.97747 43.0626 8.00044 41.9583L8.0125 41.368C8.02018 40.9881 8.03116 40.4393 8.04433 39.7637C8.07068 38.4125 8.10581 36.5546 8.14093 34.5279C8.1886 31.7775 8.23608 28.7257 8.26175 26.2078C8.26661 25.1376 8.2693 23.9897 8.2693 22.7599C8.2693 19.9876 8.218 17.2128 8.16624 14.4166L8.16607 14.4074ZM20.0556 12.4444C19.1965 11.5853 17.8035 11.5853 16.9444 12.4444C16.0852 13.3036 16.0852 14.6965 16.9444 15.5557L20.3887 19L16.9444 22.4444C16.0852 23.3036 16.0852 24.6965 16.9444 25.5557C17.8035 26.4148 19.1965 26.4148 20.0556 25.5557L23.5 22.1113L26.9444 25.5557C27.8035 26.4148 29.1965 26.4148 30.0556 25.5557C30.9148 24.6965 30.9148 23.3036 30.0556 22.4444L26.6113 19L30.0556 15.5557C30.9148 14.6965 30.9148 13.3036 30.0556 12.4444C29.1965 11.5853 27.8035 11.5853 26.9444 12.4444L23.5 15.8888L20.0556 12.4444Z" fill="#646464"/>
</svg>
