<svg width="48" height="48" viewBox="0 0 48 48" fill="none" xmlns="http://www.w3.org/2000/svg">
<path d="M38 29.8008C39.215 29.8008 40.1992 30.785 40.1992 32V35.8008H44L44.2246 35.8105C45.3342 35.923 46.1992 36.8608 46.1992 38C46.1992 39.1392 45.3342 40.077 44.2246 40.1895L44 40.1992H40.1992V44C40.1992 45.215 39.215 46.1992 38 46.1992C36.785 46.1992 35.8008 45.215 35.8008 44V40.1992H32C30.785 40.1992 29.8008 39.215 29.8008 38C29.8008 36.785 30.785 35.8008 32 35.8008H35.8008V32C35.8008 30.785 36.785 29.8008 38 29.8008Z" fill="#646464"/>
<path d="M24 3.80078C30.3669 3.80078 34.8412 4.03954 37.6719 4.26953L38.2754 4.3457C41.244 4.85418 43.4818 7.26763 43.7305 10.3281L43.9004 12.7637C44.0647 15.5147 44.1992 19.2251 44.1992 24C44.1992 25.215 43.215 26.1992 42 26.1992C40.785 26.1992 39.8008 25.215 39.8008 24C39.8008 19.3072 39.6686 15.6841 39.5098 13.0254L39.3457 10.6836C39.2605 9.63784 38.5314 8.84888 37.5215 8.67969L37.3164 8.6543C34.613 8.43465 30.2571 8.19922 24 8.19922C19.3072 8.19922 15.6841 8.33145 13.0254 8.49023L10.6836 8.6543C9.63783 8.73955 8.84887 9.46856 8.67969 10.4785L8.6543 10.6836C8.43465 13.387 8.19922 17.7429 8.19922 24C8.19922 30.2571 8.43465 34.613 8.6543 37.3164L8.67969 37.5215C8.84888 38.5314 9.63784 39.2605 10.6836 39.3457L13.0254 39.5098C15.241 39.6421 18.1262 39.7548 21.7422 39.7891L24 39.8008L24.2246 39.8105C25.3342 39.923 26.1992 40.8608 26.1992 42C26.1992 43.1392 25.3342 44.077 24.2246 44.1895L24 44.1992L21.7012 44.1895C18.0152 44.1545 15.0563 44.0373 12.7637 43.9004L10.3281 43.7305C7.26761 43.4818 4.85419 41.244 4.3457 38.2754L4.26953 37.6719C4.03954 34.8412 3.80078 30.3669 3.80078 24C3.80078 17.6332 4.03955 13.1588 4.26953 10.3281L4.3457 9.72461C4.85417 6.75597 7.26762 4.51819 10.3281 4.26953L12.7637 4.09961C15.5147 3.93532 19.2251 3.80078 24 3.80078Z" fill="#646464"/>
<path d="M28.2246 19.8105C29.3342 19.923 30.1992 20.8608 30.1992 22C30.1992 23.1392 29.3342 24.077 28.2246 24.1895L28 24.1992H14C12.785 24.1992 11.8008 23.215 11.8008 22C11.8008 20.785 12.785 19.8008 14 19.8008H28L28.2246 19.8105Z" fill="#646464"/>
<path d="M22 11.8008C23.215 11.8008 24.1992 12.785 24.1992 14C24.1992 15.215 23.215 16.1992 22 16.1992H14C12.785 16.1992 11.8008 15.215 11.8008 14C11.8008 12.785 12.785 11.8008 14 11.8008H22Z" fill="#646464"/>
<path d="M32.2246 11.8105C33.3342 11.923 34.1992 12.8608 34.1992 14C34.1992 15.1392 33.3342 16.077 32.2246 16.1895L32 16.1992H28C26.785 16.1992 25.8008 15.215 25.8008 14C25.8008 12.785 26.785 11.8008 28 11.8008H32L32.2246 11.8105Z" fill="#646464"/>
</svg>
