<svg width="48" height="48" viewBox="0 0 48 48" fill="none" xmlns="http://www.w3.org/2000/svg">
<path d="M24 4C17.6381 4 13.1691 4.23902 10.3442 4.46853C7.1772 4.72584 4.72585 7.17719 4.46854 10.3442C4.23902 13.1691 4 17.6381 4 24C4 30.3619 4.23902 34.8309 4.46853 37.6558C4.72585 40.8228 7.17719 43.2741 10.3442 43.5314C13.1691 43.761 17.6381 44 24 44C25.1046 44 26 43.1046 26 42C26 40.8954 25.1046 40 24 40C17.7379 40 13.3773 39.7647 10.6681 39.5446C9.45459 39.446 8.554 38.5454 8.4554 37.3319C8.23528 34.6227 8 30.2621 8 24C8 17.7379 8.23528 13.3773 8.45541 10.6681C8.554 9.45459 9.45459 8.55399 10.6681 8.4554C13.3773 8.23528 17.7379 8 24 8C30.2621 8 34.6227 8.23528 37.3319 8.45541C38.5454 8.554 39.446 9.45459 39.5446 10.6681C39.7647 13.3773 40 17.7379 40 24C40 25.1046 40.8954 26 42 26C43.1046 26 44 25.1046 44 24C44 17.6381 43.761 13.1691 43.5314 10.3442C43.2741 7.1772 40.8228 4.72585 37.6558 4.46854C34.8309 4.23902 30.3619 4 24 4Z" fill="#646464"/>
<path d="M22 12L14 12C12.8954 12 12 12.8954 12 14C12 15.1046 12.8954 16 14 16L22 16C23.1046 16 24 15.1046 24 14C24 12.8954 23.1046 12 22 12Z" fill="#646464"/>
<path d="M32 12L28 12C26.8954 12 26 12.8954 26 14C26 15.1046 26.8954 16 28 16L32 16C33.1046 16 34 15.1046 34 14C34 12.8954 33.1046 12 32 12Z" fill="#646464"/>
<path d="M14 20C12.8954 20 12 20.8954 12 22C12 23.1046 12.8954 24 14 24H28C29.1046 24 30 23.1046 30 22C30 20.8954 29.1046 20 28 20H14Z" fill="#646464"/>
<path d="M34.8159 28.202C35.3279 27.266 36.6721 27.266 37.1841 28.202L38.8763 31.2961C39.2982 32.0675 39.9325 32.7018 40.7039 33.1237L43.7979 34.8159C44.734 35.3279 44.734 36.6721 43.798 37.1841L40.7039 38.8763C39.9325 39.2982 39.2982 39.9325 38.8763 40.7039L37.1841 43.798C36.6721 44.734 35.3279 44.734 34.8159 43.798L33.1237 40.7039C32.7018 39.9325 32.0675 39.2982 31.296 38.8763L28.202 37.1841C27.266 36.6721 27.266 35.3279 28.202 34.8159L31.296 33.1237C32.0675 32.7018 32.7018 32.0675 33.1237 31.2961L34.8159 28.202Z" fill="#646464"/>
</svg>
