<svg width="48" height="48" viewBox="0 0 48 48" fill="none" xmlns="http://www.w3.org/2000/svg">
<path fill-rule="evenodd" clip-rule="evenodd" d="M19.5399 29.41C19.9153 29.7657 20.4079 29.9847 20.9404 29.9899C21.4725 29.9849 21.9647 29.7852 22.3399 29.41L34.3399 17.41C35.1199 16.63 35.1199 15.37 34.3399 14.59C33.5599 13.81 32.2999 13.81 31.5199 14.59L20.9399 25.17L16.4399 20.67C15.6599 19.89 14.3999 19.89 13.6199 20.67C12.8399 21.45 12.8399 22.71 13.6199 23.49L19.5399 29.41ZM20.9404 29.9899C20.9469 29.99 20.9534 29.99 20.9599 29.99H20.9199C20.9267 29.99 20.9336 29.99 20.9404 29.9899Z" fill="#646464"/>
<path fill-rule="evenodd" clip-rule="evenodd" d="M14.9799 41.47C18.8399 43.83 21.7999 44.99 23.9999 44.99V45.01C26.1999 45.01 29.1599 43.85 33.0199 41.49C39.8599 37.29 44.0199 29.89 44.1399 21.69V20.37C44.1399 15.81 43.7999 11.61 43.4999 8.88999C43.2399 6.48999 41.6599 4.62999 39.4799 4.14999C37.1199 3.60999 32.5199 2.98999 23.9999 2.98999C15.4799 2.98999 10.8799 3.62999 8.51986 4.14999C6.33986 4.62999 4.75986 6.48999 4.49986 8.88999C4.19986 11.61 3.85986 15.79 3.85986 20.37V21.69C3.99986 29.89 8.13986 37.29 14.9799 41.47ZM7.85986 20.37C7.85986 15.97 8.19986 11.93 8.47986 9.30999C8.51986 8.98999 8.67986 8.20999 9.39986 8.04999C11.5599 7.56999 15.8399 6.98999 23.9999 6.98999C32.1599 6.98999 36.4399 7.56999 38.5999 8.04999C39.3199 8.20999 39.4799 8.98999 39.5199 9.30999C39.7999 11.95 40.1199 15.99 40.1199 20.37V21.63C40.0199 28.45 36.5799 34.61 30.9199 38.07C26.7599 40.61 24.7999 40.99 23.9999 40.99C23.1999 40.99 21.2399 40.61 17.0799 38.07C11.3999 34.59 7.95986 28.45 7.85986 21.63V20.37Z" fill="#646464"/>
</svg>
