<svg width="48" height="48" viewBox="0 0 48 48" fill="none" xmlns="http://www.w3.org/2000/svg">
<path fill-rule="evenodd" clip-rule="evenodd" d="M4.28757 27.3876C4.09851 26.2861 4 25.1542 4 24C4 12.98 12.98 4 24 4C35.02 4 44 12.98 44 24C44 25.6439 43.8002 27.2425 43.4235 28.7726C42.7105 31.7357 41.3272 34.4566 39.3599 36.82C39.2936 36.9003 39.2218 36.9744 39.1453 37.0422C35.4736 41.2992 30.0436 44 24 44C21.2346 44 18.5977 43.4345 16.1989 42.4132C16.125 42.3921 16.0517 42.3676 15.98 42.34C9.81832 39.6205 5.41072 33.9715 4.28757 27.3876ZM15.8408 37.758C12.2819 35.6388 9.60962 32.1783 8.52742 28.08H8.54001C10.58 28.12 12.3 28.28 13.08 28.38C13.18 28.4 13.28 28.42 13.34 28.44C15.42 29.22 16.7 31.68 17.16 32.7C17.32 33.04 17.28 33.4 17.22 33.64C17.0001 34.4997 16.5603 36.0189 15.8408 37.758ZM19.5159 39.3601C20.3038 37.4957 20.8052 35.8342 21.1 34.64C21.4 33.42 21.32 32.18 20.82 31.08C19.98 29.24 18.1 25.94 14.7 24.7C14.34 24.56 13.96 24.46 13.54 24.42C12.6163 24.3085 10.5004 24.0956 8.00027 24.0942C8.00009 24.0629 8 24.0314 8 24C8 15.18 15.18 8 24 8C27.5039 8 30.749 9.13317 33.3879 11.0522C30.6774 11.6677 28.1644 12.339 26.2999 12.86C24.1199 13.48 22.5599 14.8 21.8799 16.58C21.6599 17.18 21.4799 17.82 21.3599 18.48C20.7999 21.62 22.9999 24.58 26.5999 25.54L28.6599 26.08C28.7999 26.12 28.9399 26.24 29.0199 26.4C30.1578 28.7098 32.3052 32.6781 35.0091 35.5983C32.1383 38.3246 28.2605 40 24 40C22.4441 40 20.9393 39.7766 19.5159 39.3601ZM27.3999 16.68C29.3585 16.1404 33.0348 15.1414 36.7921 14.4016C38.7861 17.0519 39.977 20.3387 39.9997 23.8967L39.9999 23.98C39.9999 26.98 39.1599 29.92 37.5799 32.44C35.2999 29.82 33.4199 26.24 32.6199 24.62C32.0199 23.4 30.9599 22.52 29.6799 22.18L27.6199 21.64C26.5599 21.36 25.0599 20.46 25.2999 19.14C25.3799 18.74 25.4799 18.34 25.6199 17.96C25.9199 17.18 26.9599 16.8 27.3999 16.68Z" fill="#646464"/>
</svg>
