<svg width="48" height="48" viewBox="0 0 48 48" fill="none" xmlns="http://www.w3.org/2000/svg">
<path fill-rule="evenodd" clip-rule="evenodd" d="M14.2401 8.74191C14.9349 9.60057 14.8021 10.8599 13.9434 11.5547C10.3145 14.4912 8 18.9746 8 24C8 29.0254 10.3145 33.5088 13.9434 36.4453C14.8021 37.1401 14.9349 38.3994 14.2401 39.2581C13.5452 40.1168 12.2859 40.2496 11.4272 39.5547C6.90015 35.8914 4 30.2837 4 24C4 17.7164 6.90015 12.1086 11.4272 8.44527C12.2859 7.75044 13.5452 7.88326 14.2401 8.74191ZM33.7599 8.74191C34.4548 7.88326 35.7141 7.75044 36.5728 8.44527C41.0999 12.1086 44 17.7164 44 24C44 30.2837 41.0999 35.8914 36.5728 39.5547C35.7141 40.2496 34.4548 40.1168 33.7599 39.2581C33.0651 38.3994 33.1979 37.1401 34.0566 36.4453C37.6855 33.5088 40 29.0254 40 24C40 18.9746 37.6855 14.4912 34.0566 11.5547C33.1979 10.8599 33.0651 9.60057 33.7599 8.74191ZM19.2688 14.9641C19.9636 15.8228 19.8308 17.0821 18.9722 17.777C17.1557 19.2468 16 21.4877 16 24C16 26.5123 17.1557 28.7532 18.9722 30.223C19.8308 30.9179 19.9636 32.1772 19.2688 33.0359C18.574 33.8945 17.3146 34.0273 16.456 33.3325C13.7413 31.1358 12 27.7705 12 24C12 20.2295 13.7413 16.8642 16.456 14.6675C17.3146 13.9727 18.574 14.1055 19.2688 14.9641ZM28.7312 14.9641C29.426 14.1055 30.6854 13.9727 31.544 14.6675C34.2587 16.8642 36 20.2295 36 24C36 27.7705 34.2587 31.1358 31.544 33.3325C30.6854 34.0273 29.426 33.8945 28.7312 33.0359C28.0364 32.1772 28.1692 30.9179 29.0278 30.223C30.8443 28.7532 32 26.5123 32 24C32 21.4877 30.8443 19.2468 29.0278 17.777C28.1692 17.0821 28.0364 15.8228 28.7312 14.9641ZM21.1716 21.1715C22.7337 19.6094 25.2663 19.6096 26.8283 21.1715C28.3904 22.7335 28.3906 25.2663 26.8285 26.8285C25.2663 28.3906 22.7337 28.3904 21.1717 26.8285C19.6096 25.2665 19.6094 22.7337 21.1716 21.1715Z" fill="#646464"/>
</svg>
