<svg width="48" height="48" viewBox="0 0 48 48" fill="none" xmlns="http://www.w3.org/2000/svg">
<path d="M5.05037 12.0734C5.10784 9.84481 6.63002 8.16017 8.74059 8.07482C9.82812 8.03085 11.224 8 13.0001 8C14.776 8 16.1718 8.03084 17.2592 8.07482C19.3699 8.16016 20.8922 9.845 20.9496 12.0738C20.9791 13.2177 21 14.6739 21 16.5041L20.9996 24.944C20.9996 32.9667 15.9779 37.9506 10.0106 39.8956C9.36855 40.1048 8.64966 40.0125 8.18361 39.5014C7.70638 38.9782 7.36593 38.3606 7.12619 37.7888C6.68676 36.7406 7.26445 35.6276 8.1903 35.0288C11.9298 32.6102 13 29.4851 13 24.944L13.0001 24.8885C11.3694 24.8885 10.0592 24.8708 9.0139 24.8447C6.77313 24.789 5.09895 23.0182 5.04344 20.653C5.01766 19.5544 5 18.1876 5 16.5041C5 14.6736 5.02088 13.2174 5.05037 12.0734Z" fill="#646464"/>
<path d="M27.0504 12.0735C27.1079 9.84484 28.6301 8.16018 30.7405 8.07483C31.8281 8.03085 33.224 8 35.0001 8C36.776 8 38.1718 8.03084 39.2592 8.07482C41.3699 8.16016 42.8922 9.84502 42.9496 12.0738C42.9791 13.2178 43 14.674 43 16.5043L42.9995 24.9439C42.9995 32.9667 37.9779 37.9505 32.0106 39.8956C31.3685 40.1048 30.6497 40.0125 30.1836 39.5014C29.7064 38.9781 29.366 38.3605 29.1262 37.7887C28.6867 36.7406 29.2644 35.6276 30.1903 35.0288C33.9298 32.6101 35.0001 29.4851 35.0001 24.9439V24.8887C33.3693 24.8887 32.0592 24.8711 31.0139 24.845C28.7731 24.7893 27.0989 23.0185 27.0435 20.6532C27.0177 19.5546 27 18.1877 27 16.5043C27 14.6737 27.0209 13.2175 27.0504 12.0735Z" fill="#646464"/>
</svg>
