<svg width="48" height="48" viewBox="0 0 48 48" fill="none" xmlns="http://www.w3.org/2000/svg">
<path fill-rule="evenodd" clip-rule="evenodd" d="M7.79078 7.77745C11.4181 7.07418 15.5819 7.07418 19.2092 7.77745C20.7345 8.07318 21.9322 9.26627 22.2203 10.8043C23.0043 14.9897 22.9237 20.5514 21.9403 24.4851L20.9403 28.4851C19.828 32.9343 17.5777 35.7818 15.5516 37.5185C14.5463 38.3802 13.6054 38.9612 12.9003 39.3323C12.5473 39.5181 12.2517 39.6522 12.0341 39.7433C11.9252 39.7889 11.8357 39.8238 11.768 39.8491C11.7341 39.8617 11.7057 39.872 11.683 39.88L11.6533 39.8903L11.6418 39.8942L11.6369 39.8959L11.6347 39.8967L11.6325 39.8974C10.5847 40.2467 9.45202 39.6804 9.10272 38.6325C8.75507 37.5895 9.3144 36.4626 10.3528 36.1076L10.368 36.1021C10.3891 36.0942 10.4304 36.0783 10.4895 36.0536C10.6079 36.004 10.7966 35.9194 11.0373 35.7927C11.5198 35.5387 12.2038 35.1198 12.9484 34.4815C14.4223 33.2182 16.172 31.0657 17.0597 27.5149L17.3081 26.5215C14.1667 26.9063 10.7902 26.8041 7.79082 26.2225C6.26559 25.9268 5.06784 24.7338 4.77974 23.1958C4.07344 19.4254 4.07343 14.5747 4.77965 10.8043C5.06774 9.26627 6.26551 8.07318 7.79078 7.77745ZM18.3142 22.3212C18.8911 19.1263 18.8995 14.9224 18.3141 11.6788C15.2644 11.1071 11.7356 11.1071 8.68589 11.6788C8.10469 14.8994 8.1047 19.1006 8.68595 22.3212C11.7466 22.895 15.2759 22.8909 18.3142 22.3212ZM28.7908 7.77746C32.4181 7.07418 36.5819 7.07418 40.2092 7.77745C41.7345 8.07318 42.9322 9.26627 43.2203 10.8043C44.0043 14.9897 43.9237 20.5514 42.9402 24.4851L41.9403 28.485C40.828 32.9343 38.5777 35.7818 36.5516 37.5185C35.5463 38.3802 34.6054 38.9612 33.9003 39.3323C33.5473 39.5181 33.2517 39.6522 33.0341 39.7433C32.9252 39.7889 32.8357 39.8238 32.7679 39.8491C32.7341 39.8617 32.7057 39.872 32.683 39.88L32.6533 39.8903L32.6418 39.8942L32.6369 39.8959L32.6347 39.8967L32.6325 39.8974C31.5847 40.2467 30.452 39.6803 30.1027 38.6325C29.7551 37.5895 30.3144 36.4626 31.3528 36.1076L31.368 36.1021C31.3891 36.0942 31.4304 36.0783 31.4895 36.0536C31.6079 36.004 31.7966 35.9194 32.0373 35.7927C32.5198 35.5387 33.2038 35.1198 33.9484 34.4815C35.4223 33.2182 37.172 31.0657 38.0597 27.515L38.3081 26.5215C35.1667 26.9063 31.7902 26.8041 28.7908 26.2225C27.2656 25.9268 26.0678 24.7338 25.7797 23.1958C25.0734 19.4254 25.0734 14.5746 25.7797 10.8042C26.0678 9.26624 27.2656 8.07318 28.7908 7.77746ZM39.3142 22.3212C39.891 19.1263 39.8995 14.9225 39.3141 11.6788C36.2644 11.1071 32.7356 11.1071 29.686 11.6788C29.1047 14.8994 29.1047 19.1006 29.686 22.3212C32.7466 22.895 36.2759 22.8909 39.3142 22.3212Z" fill="#646464"/>
</svg>
