<svg width="48" height="48" viewBox="0 0 48 48" fill="none" xmlns="http://www.w3.org/2000/svg">
<path fill-rule="evenodd" clip-rule="evenodd" d="M11.906 28.7154C11.5239 26.4281 13.4452 24.8421 15.2999 24.8421H30.8054C32.6601 24.8421 34.5813 26.4282 34.1992 28.7153C33.3055 34.0658 28.6572 38.1435 23.0526 38.1435C17.4481 38.1435 12.7998 34.0659 11.906 28.7154ZM16.028 28.8421C16.897 31.902 19.7147 34.1435 23.0526 34.1435C26.3905 34.1435 29.2082 31.902 30.0773 28.8421H16.028Z" fill="#646464"/>
<path fill-rule="evenodd" clip-rule="evenodd" d="M17.3684 16.3158C18.473 16.3158 19.3684 17.2112 19.3684 18.3158V20.2105C19.3684 21.3151 18.473 22.2105 17.3684 22.2105C16.2639 22.2105 15.3684 21.3151 15.3684 20.2105V18.3158C15.3684 17.2112 16.2639 16.3158 17.3684 16.3158Z" fill="#646464"/>
<path fill-rule="evenodd" clip-rule="evenodd" d="M28.7368 16.3158C29.8414 16.3158 30.7368 17.2112 30.7368 18.3158V20.2105C30.7368 21.3151 29.8414 22.2105 28.7368 22.2105C27.6323 22.2105 26.7368 21.3151 26.7368 20.2105V18.3158C26.7368 17.2112 27.6323 16.3158 28.7368 16.3158Z" fill="#646464"/>
<path fill-rule="evenodd" clip-rule="evenodd" d="M23.0526 9.89474C14.7393 9.89474 8 16.634 8 24.9474C8 33.2607 14.7393 40 23.0526 40C31.366 40 38.1053 33.2607 38.1053 24.9474C38.1053 23.8428 39.0007 22.9474 40.1053 22.9474C41.2098 22.9474 42.1053 23.8428 42.1053 24.9474C42.1053 35.4699 33.5751 44 23.0526 44C12.5301 44 4 35.4699 4 24.9474C4 14.4249 12.5301 5.89474 23.0526 5.89474C24.1572 5.89474 25.0526 6.79017 25.0526 7.89474C25.0526 8.99931 24.1572 9.89474 23.0526 9.89474Z" fill="#646464"/>
<path fill-rule="evenodd" clip-rule="evenodd" d="M36.3158 4C37.4204 4 38.3158 4.89543 38.3158 6V17.3684C38.3158 18.473 37.4204 19.3684 36.3158 19.3684C35.2112 19.3684 34.3158 18.473 34.3158 17.3684V6C34.3158 4.89543 35.2112 4 36.3158 4Z" fill="#646464"/>
<path fill-rule="evenodd" clip-rule="evenodd" d="M28.6316 11.6842C28.6316 10.5796 29.527 9.68421 30.6316 9.68421H42C43.1046 9.68421 44 10.5796 44 11.6842C44 12.7888 43.1046 13.6842 42 13.6842H30.6316C29.527 13.6842 28.6316 12.7888 28.6316 11.6842Z" fill="#646464"/>
</svg>
