<svg width="48" height="48" viewBox="0 0 48 48" fill="none" xmlns="http://www.w3.org/2000/svg">
<path fill-rule="evenodd" clip-rule="evenodd" d="M28.5858 6.58579C27.8047 7.36683 27.8047 8.63317 28.5858 9.41421L35.1716 16H19C11.8203 16 6 21.8203 6 29C6 36.1797 11.8203 42 19 42H26C27.1046 42 28 41.1046 28 40C28 38.8954 27.1046 38 26 38H19C14.0294 38 10 33.9706 10 29C10 24.0294 14.0294 20 19 20H35.1716L28.5858 26.5858C27.8047 27.3668 27.8047 28.6332 28.5858 29.4142C29.3668 30.1953 30.6332 30.1953 31.4142 29.4142L41.4142 19.4142C42.1953 18.6332 42.1953 17.3668 41.4142 16.5858L31.4142 6.58579C30.6332 5.80474 29.3668 5.80474 28.5858 6.58579Z" fill="#646464"/>
</svg>
