<svg width="48" height="48" viewBox="0 0 48 48" fill="none" xmlns="http://www.w3.org/2000/svg">
<path fill-rule="evenodd" clip-rule="evenodd" d="M18 6C16.8954 6 16 6.89543 16 8C16 9.10457 16.8954 10 18 10H23.1716L6.58579 26.5858C5.80474 27.3668 5.80474 28.6332 6.58579 29.4142C7.36683 30.1953 8.63317 30.1953 9.41421 29.4142L26 12.8284V18C26 19.1046 26.8954 20 28 20C29.1046 20 30 19.1046 30 18V8C30 6.89543 29.1046 6 28 6H18ZM30 42C31.1046 42 32 41.1046 32 40C32 38.8954 31.1046 38 30 38H24.8284L41.4142 21.4142C42.1953 20.6332 42.1953 19.3668 41.4142 18.5858C40.6332 17.8047 39.3668 17.8047 38.5858 18.5858L22 35.1716V30C22 28.8954 21.1046 28 20 28C18.8954 28 18 28.8954 18 30V40C18 41.1046 18.8954 42 20 42H30Z" fill="#646464"/>
</svg>
