<svg width="48" height="48" viewBox="0 0 48 48" fill="none" xmlns="http://www.w3.org/2000/svg">
<path fill-rule="evenodd" clip-rule="evenodd" d="M16.634 5.40011C15.338 4.51655 13.7719 4 12.0851 4C7.61982 4 4 7.61982 4 12.0851C4 13.7719 4.51655 15.338 5.40011 16.634C7.42981 11.5131 11.5131 7.42981 16.634 5.40011ZM31.366 5.40011C36.4869 7.42981 40.5702 11.5131 42.5999 16.634C43.4834 15.338 44 13.7719 44 12.0851C44 7.61982 40.3802 4 35.9149 4C34.2281 4 32.662 4.51655 31.366 5.40011ZM9.40677 35.0403C7.08163 31.9716 5.70213 28.1469 5.70213 24C5.70213 13.8944 13.8944 5.70213 24 5.70213C34.1056 5.70213 42.2979 13.8944 42.2979 24C42.2979 28.1469 40.9184 31.9716 38.5932 35.0403C39.3995 36.7156 40.2538 38.5314 40.8037 39.706C41.234 40.6253 41.2007 41.8007 40.3843 42.5683C40.1123 42.8241 39.7877 43.0848 39.425 43.2892C39.0374 43.5077 38.6146 43.6571 38.2314 43.7601C37.1906 44.0397 36.1973 43.5143 35.618 42.7198C35.0522 41.9441 34.2473 40.8368 33.4217 39.689C30.6696 41.3453 27.446 42.2979 24 42.2979C20.554 42.2979 17.3304 41.3453 14.5783 39.689C13.7527 40.8368 12.9478 41.9441 12.382 42.7198C11.8027 43.5143 10.8094 44.0397 9.76858 43.7601C9.38536 43.6571 8.96255 43.5077 8.57495 43.2892C8.21225 43.0848 7.88767 42.8241 7.61566 42.5683C6.79929 41.8007 6.76592 40.6253 7.19632 39.706C7.74624 38.5314 8.60054 36.7156 9.40677 35.0403ZM31.161 28.7539C31.8258 29.4186 31.8258 30.4963 31.161 31.161C30.4963 31.8258 29.4186 31.8258 28.7539 31.161L22.7964 25.2036C22.4772 24.8843 22.2979 24.4514 22.2979 24V15.4894C22.2979 14.5493 23.0599 13.7872 24 13.7872C24.9401 13.7872 25.7021 14.5493 25.7021 15.4894V23.295L31.161 28.7539Z" fill="#646464"/>
</svg>
