<svg width="48" height="48" viewBox="0 0 48 48" fill="none" xmlns="http://www.w3.org/2000/svg">
<path fill-rule="evenodd" clip-rule="evenodd" d="M10.1335 12.6958C10.0326 12.1866 9.97998 11.6642 9.97998 11.14C9.97998 7.14 12.84 4 16.48 4C19.74 4 22.34 6.18 23.98 8.74C25.62 6.18 28.22 4 31.48 4C35.12 4 37.98 7.14 37.98 11.14C37.98 11.6642 37.9273 12.1866 37.8264 12.6958C38.6126 12.7114 39.2554 12.7267 39.76 12.74C41.66 12.8 43.18 13.88 43.64 15.5C43.86 16.26 43.96 17.1 43.96 18C43.96 18.9 43.86 19.74 43.64 20.5C43.3237 21.6275 42.4969 22.4904 41.4001 22.9325V30C41.4001 33.02 41.3001 35.7 41.1001 38.02C40.8401 41.08 38.5001 43.38 35.4001 43.62C33.1873 43.7994 29.4248 43.9987 24.0134 44L24 44L23.9876 44C18.5543 43.9997 14.7784 43.7999 12.5601 43.62C9.48006 43.38 7.12006 41.06 6.86006 38.02C6.66006 35.72 6.56006 33.02 6.56006 30V22.9151C5.46817 22.4666 4.65521 21.6101 4.34 20.5H4.32C4.1 19.74 4 18.9 4 18C4 17.1 4.12 16.26 4.32 15.5C4.78 13.88 6.32 12.8 8.2 12.74C8.70464 12.7267 9.34741 12.7114 10.1335 12.6958ZM34.7107 16.6451C34.774 16.6489 34.8374 16.6498 34.9006 16.6477C37.0877 16.678 38.6658 16.713 39.68 16.74C39.7269 16.74 39.7737 16.7468 39.8125 16.7525C39.84 16.7565 39.8634 16.76 39.88 16.76C39.96 17.12 40 17.54 40 18C40 18.46 39.96 18.88 39.88 19.24C39.82 19.26 39.76 19.26 39.68 19.26L39.5268 19.264C39.4849 19.2614 39.4426 19.26 39.4001 19.26C39.323 19.26 39.247 19.2644 39.1721 19.273C36.7276 19.3334 31.8528 19.42 24 19.42C16.092 19.42 11.204 19.3322 8.77664 19.2717C8.70546 19.264 8.63321 19.26 8.56006 19.26C8.52159 19.26 8.48337 19.2611 8.44543 19.2633L8.32 19.26C8.24 19.26 8.12 19.24 8.12 19.24C8.04 18.88 8 18.46 8 18C8 17.54 8.04 17.12 8.12 16.76C8.18 16.74 8.24 16.74 8.32 16.74C10.5724 16.6807 15.5183 16.5824 23.6977 16.58C23.79 16.5932 23.8842 16.6 23.98 16.6C24.0758 16.6 24.17 16.5932 24.2623 16.58C28.6386 16.5811 32.0969 16.6096 34.7107 16.6451ZM33.7058 12.6319C33.8841 12.1801 33.98 11.67 33.98 11.16C33.98 9.64 33.1 8.02 31.48 8.02C29.2584 8.02 27.3635 10.5079 26.492 12.583C29.3271 12.5901 31.7238 12.6087 33.7058 12.6319ZM21.4679 12.583C20.5964 10.5079 18.7016 8.02 16.48 8.02C14.86 8.02 13.98 9.64 13.98 11.16C13.98 11.67 14.0758 12.1801 14.2541 12.6319C16.2362 12.6087 18.6329 12.5901 21.4679 12.583ZM10.5601 23.3126C13.0285 23.3595 16.7848 23.408 22 23.4181V39.9896C17.7393 39.9441 14.7234 39.7593 12.8601 39.62C11.7401 39.52 10.9401 38.74 10.8401 37.66C10.6601 35.48 10.5601 32.9 10.5601 30V23.3126ZM37.4001 23.3128C34.9326 23.3596 31.1947 23.4079 26 23.418V39.9901C30.2397 39.9476 33.2425 39.7763 35.1001 39.62C36.2201 39.54 37.0401 38.74 37.1201 37.66C37.3001 35.48 37.4001 32.9 37.4001 30V23.3128Z" fill="#646464"/>
</svg>
