<svg width="48" height="48" viewBox="0 0 48 48" fill="none" xmlns="http://www.w3.org/2000/svg">
<path fill-rule="evenodd" clip-rule="evenodd" d="M12.5886 4.58556C13.3697 3.80464 14.6361 3.80484 15.417 4.58601L23.4144 12.586C24.1954 13.3672 24.1952 14.6335 23.414 15.4144C22.6328 16.1954 21.3665 16.1952 20.5856 15.414L16.0026 10.8295V34C16.0026 35.1046 15.1071 36 14.0026 36C12.898 36 12.0026 35.1046 12.0026 34V10.8273L7.41399 15.4144C6.63281 16.1954 5.36648 16.1952 4.58556 15.414C3.80464 14.6328 3.80484 13.3665 4.58601 12.5856L12.5886 4.58556ZM34.002 12C35.1066 12 36.002 12.8954 36.002 14V37.1699L40.5857 32.5858C41.3668 31.8048 42.6331 31.8047 43.4142 32.5857C44.1952 33.3668 44.1953 34.6331 43.4143 35.4142L35.4163 43.4127C34.6353 44.1937 33.3692 44.1938 32.5881 43.4131L24.5861 35.4145C23.8049 34.6336 23.8046 33.3673 24.5855 32.5861C25.3664 31.8049 26.6327 31.8046 27.4139 32.5855L32.002 37.1716V14C32.002 12.8954 32.8974 12 34.002 12Z" fill="#646464"/>
</svg>
