<svg width="48" height="48" viewBox="0 0 48 48" fill="none" xmlns="http://www.w3.org/2000/svg">
<path fill-rule="evenodd" clip-rule="evenodd" d="M9.5 22.38C12.04 22.48 16.42 22.6 22.88 22.6L22.9 22.62C29.12 22.62 35.84 22.5 38.52 22.4C41.24 22.28 43.38 20.56 43.72 18.18C43.92 16.74 44.02 15.12 44.02 13.3C44.02 11.48 43.9 9.82 43.7 8.38C43.36 6.02 41.24 4.3 38.56 4.2C36.02 4.1 29.72 4 22.9 4C16.08 4 11.82 4.1 9.46 4.2C6.76 4.32 4.66 6.02 4.32 8.38C4.1 9.84 4 11.52 4 13.3C4 15.08 4.1 16.72 4.3 18.16C4.64 20.54 6.78 22.28 9.5 22.38ZM9.6 8.2C11.94 8.1 16.12 8 22.88 8L22.82 7.98C29.32 7.98 35.8 8.08 38.32 8.18C39.02 8.22 39.6 8.54 39.66 8.94C39.84 10.2 39.94 11.68 39.94 13.28C39.94 14.88 39.86 16.34 39.68 17.58C39.64 17.98 39.02 18.34 38.3 18.36C35.66 18.46 29.24 18.56 22.84 18.56C16.44 18.56 12.12 18.46 9.62 18.36C8.9 18.34 8.3 18 8.24 17.58C8.08 16.34 7.98 14.88 7.98 13.28C7.98 11.68 8.08 10.2 8.26 8.94C8.32 8.54 8.9 8.22 9.6 8.2Z" fill="#646464"/>
<path fill-rule="evenodd" clip-rule="evenodd" d="M9.5 43.7799C12 43.8799 16.36 43.9999 22.88 43.9999L22.9 44.0199C29.16 44.0199 35.88 43.8999 38.52 43.7999C41.24 43.6799 43.38 41.9599 43.72 39.5799C43.92 38.1399 44.02 36.5199 44.02 34.6999C44.02 32.8799 43.9 31.2199 43.7 29.7799C43.36 27.4199 41.24 25.6999 38.56 25.5999C35.96 25.4999 29.64 25.3999 22.9 25.3999C16.16 25.3999 11.88 25.4999 9.46 25.5999C6.78 25.6999 4.66 27.4199 4.32 29.7799C4.1 31.2399 4 32.9199 4 34.6999C4 36.4799 4.1 38.1199 4.3 39.5599C4.64 41.9399 6.78 43.6799 9.5 43.7799ZM9.6 29.5999C11.98 29.4999 16.22 29.3999 22.88 29.3999H22.82C29.26 29.3999 35.76 29.4999 38.32 29.5999C39.02 29.6399 39.6 29.9599 39.66 30.3599C39.84 31.6199 39.94 33.0999 39.94 34.6999C39.94 36.2999 39.86 37.7599 39.68 38.9999C39.62 39.3999 39.02 39.7599 38.3 39.7799C35.68 39.8799 29.28 39.9799 22.84 39.9799C16.4 39.9799 12.1 39.8799 9.62 39.7799C8.9 39.7599 8.3 39.4199 8.24 38.9999C8.08 37.7599 7.98 36.2999 7.98 34.6999C7.98 33.0999 8.08 31.6199 8.26 30.3599C8.32 29.9399 8.9 29.6199 9.6 29.5999Z" fill="#646464"/>
</svg>
