<svg width="48" height="48" viewBox="0 0 48 48" fill="none" xmlns="http://www.w3.org/2000/svg">
<path fill-rule="evenodd" clip-rule="evenodd" d="M10.6397 40.96C13.0573 41.4395 17.3112 41.9989 23.9797 42C23.973 42 23.9663 42 23.9597 42H23.9997C23.993 42 23.9863 42 23.9797 42C30.6482 41.9989 34.9021 41.4395 37.3197 40.96C39.7597 40.48 41.5797 38.48 41.9797 35.88C42.5997 31.74 43.7197 23.5 43.9597 14.78C43.9797 13.32 43.2797 12 42.0597 11.24C40.8597 10.5 39.3997 10.46 38.1397 11.12C36.4197 12.04 34.0797 13.3 31.8997 14.6C30.7597 12.96 29.2197 10.66 27.3597 7.84C26.6197 6.68 25.3397 6 23.9797 6C22.6197 6 21.3597 6.7 20.5997 7.84C19.2397 9.92 17.4797 12.58 16.0597 14.6C13.8797 13.3 11.5397 12.04 9.81967 11.12C8.53967 10.46 7.07967 10.52 5.87967 11.26C4.65967 12.02 3.95967 13.34 3.99967 14.8C4.23967 23.5 5.35967 31.76 5.97967 35.88C6.37967 38.48 8.21967 40.48 10.6397 40.96ZM7.94005 14.6707C10.0392 15.7706 13.0477 17.405 15.5397 18.96C16.4397 19.52 17.5997 19.28 18.2197 18.44C19.2362 17.0671 20.636 15.0145 22.0052 13.007C22.7104 11.973 23.4074 10.951 24.0397 10.04C25.8197 12.72 28.2597 16.38 29.7597 18.44C30.3797 19.28 31.5397 19.52 32.4397 18.96C34.9197 17.4 37.9597 15.76 39.9997 14.68C39.8618 19.5615 39.447 24.2979 39.0013 28.2111C36.0945 28.7772 31.2847 29.4001 24.0004 29.4001C16.7115 29.4001 11.9001 28.7933 8.99397 28.2141C8.54217 24.3008 8.11265 19.5618 7.94005 14.6707ZM9.5181 32.3707C12.6713 32.9055 17.3911 33.4001 24.0004 33.4001C30.6139 33.4001 35.3227 32.9048 38.4809 32.3697C38.3289 33.4841 38.1849 34.464 38.0597 35.28C37.9397 36.02 37.4997 36.86 36.5797 37.04C34.3397 37.48 30.3597 38 23.9997 38C17.6397 38 13.6597 37.48 11.4197 37.04C10.4997 36.86 10.0597 36.02 9.93967 35.28C9.8145 34.4643 9.67057 33.4848 9.5181 32.3707Z" fill="#646464"/>
</svg>
