<svg width="48" height="48" viewBox="0 0 48 48" fill="none" xmlns="http://www.w3.org/2000/svg">
<path d="M38.5645 20.2618C39.1804 19.6619 40.1423 20.1639 40.0964 21.0489C39.8951 24.9103 39.6433 28.5103 39.4108 30.687C42.0431 31.0467 44.0672 31.4706 45.2921 31.761C45.9434 31.9154 46.2121 32.7065 45.8119 33.2717C44.0977 35.688 39.9013 41.3789 35.4355 45.7382C34.8196 46.3381 33.8576 45.8361 33.9036 44.9511C34.1049 41.0895 34.3567 37.4897 34.5892 35.313C31.9569 34.9531 29.9328 34.5294 28.7079 34.239C28.0566 34.0846 27.7879 33.2936 28.1881 32.7283C29.9023 30.312 34.0987 24.6211 38.5645 20.2618Z" fill="#FFBA18"/>
<path d="M24 4C30.3619 4 34.8314 4.23923 37.6562 4.46875L38.2402 4.54297C41.1201 5.0357 43.2898 7.37475 43.5312 10.3438L43.6406 11.9297L43.7422 13.9082V14.1133C43.686 15.1251 42.8702 15.9503 41.8359 15.998C40.8023 16.0452 39.9168 15.2987 39.7676 14.2969L39.7461 14.0918L39.6465 12.166L39.5449 10.668C39.4524 9.53 38.6544 8.66668 37.5547 8.48242L37.332 8.45508C34.6228 8.23496 30.2621 8 24 8C19.3035 8 15.6766 8.13198 13.0137 8.29102L10.668 8.45508C9.52999 8.54759 8.66667 9.3456 8.48242 10.4453L8.45508 10.668C8.23496 13.3772 8 17.7379 8 24C8 30.2621 8.23497 34.6228 8.45508 37.332L8.48242 37.5547C8.66668 38.6544 9.53 39.4524 10.668 39.5449L13.0137 39.709C15.6766 39.868 19.3035 40 24 40C25.0427 40 26.0181 39.975 26.916 39.9375L27.1211 39.9395C28.1331 39.9996 28.9548 40.8188 28.998 41.8535C29.0438 42.9567 28.1872 43.8892 27.084 43.9355L25.6016 43.9824C25.0871 43.9938 24.5527 44 24 44C19.2288 44 15.5222 43.8652 12.7754 43.7012L10.3438 43.5312C7.37473 43.2898 5.0357 41.1201 4.54297 38.2402L4.46875 37.6562C4.23924 34.8314 4 30.3619 4 24C4 17.6381 4.23923 13.1686 4.46875 10.3438L4.54297 9.75977C5.03569 6.87989 7.37474 4.71018 10.3438 4.46875L12.7754 4.29883C15.5222 4.13479 19.2288 4 24 4Z" fill="#646464"/>
<path d="M16.6777 24.0352C17.4417 24.0959 17.9252 24.7496 17.9473 25.5156C17.9717 26.3645 17.9961 27.6684 17.9961 29.4922C17.9961 31.3159 17.9717 32.6198 17.9473 33.4688C17.9252 34.2348 17.4417 34.8884 16.6777 34.9492C16.4628 34.9663 16.2171 34.9766 15.9395 34.9766C15.6618 34.9766 15.4162 34.9663 15.2012 34.9492C14.4372 34.8885 13.9537 34.2348 13.9316 33.4688C13.9072 32.6198 13.8828 31.3159 13.8828 29.4922C13.8828 27.6684 13.9072 26.3645 13.9316 25.5156C13.9537 24.7495 14.4372 24.0959 15.2012 24.0352C15.4162 24.0181 15.6618 24.0078 15.9395 24.0078C16.2171 24.0078 16.4628 24.0181 16.6777 24.0352Z" fill="#646464"/>
<path d="M23.9492 19.2246C24.3736 19.2246 24.7226 19.2634 25 19.3145C25.5829 19.4221 25.883 19.8875 25.8965 20.3867C25.9559 22.592 25.8806 25.1942 25.8828 27.5391C25.8837 28.4826 25.5718 29.403 24.9785 30.1367L23.7305 31.6777C22.69 32.9646 22.0373 32.7291 22.0215 31.0742C21.9926 28.0579 21.9266 23.2591 22.0039 20.3867C22.0174 19.8873 22.3171 19.4219 22.9004 19.3145C23.1776 19.2634 23.5251 19.2246 23.9492 19.2246Z" fill="#646464"/>
<path d="M31.957 14.002C32.2865 14.002 32.5709 14.0303 32.8125 14.0742C34.1075 14.3102 34.1001 17.9286 34.043 19.3926C34.0273 19.7905 33.8782 20.1664 33.6309 20.4785C32.9677 21.3154 31.5852 23.0565 30.7305 24.1172C30.2845 24.6706 29.9976 24.5659 29.9941 23.8555C29.9839 21.6154 29.9629 16.8208 29.9629 16.2441C29.9819 15.1584 30.3977 14.2024 31.1016 14.0742C31.3431 14.0303 31.6275 14.002 31.957 14.002Z" fill="#646464"/>
</svg>
