<svg width="48" height="48" viewBox="0 0 48 48" fill="none" xmlns="http://www.w3.org/2000/svg">
<path fill-rule="evenodd" clip-rule="evenodd" d="M8.74198 8.39913L12.52 21.9999H37.5679C37.4042 21.8785 37.2332 21.7542 37.0549 21.6272C34.8234 20.0373 31.6925 18.1868 28.1978 16.3587C21.4242 12.8156 13.614 9.52788 8.74198 8.39913ZM37.5679 25.9999C37.4042 26.1213 37.2332 26.2456 37.0549 26.3726C34.8233 27.9625 31.6925 29.8131 28.1978 31.6411C21.4242 35.1843 13.614 38.472 8.74197 39.6008L12.52 25.9999H37.5679ZM8.92408 23.9999L4.77702 9.07054C4.42946 7.8193 4.70863 6.51581 5.49841 5.5687C6.31074 4.59453 7.61129 4.07333 9.00714 4.36229C14.3856 5.47574 22.9347 9.09149 30.0518 12.8144C33.632 14.6871 36.9386 16.633 39.3759 18.3694C40.5875 19.2326 41.6458 20.0873 42.4229 20.8933C42.8109 21.2958 43.175 21.7334 43.4526 22.1969C43.7176 22.6393 43.9998 23.2639 43.9998 23.9999C43.9998 24.7359 43.7176 25.3605 43.4526 25.8029C43.175 26.2664 42.8109 26.7039 42.4229 27.1064C41.6458 27.9125 40.5875 28.7672 39.3759 29.6304C36.9386 31.3669 33.632 33.3127 30.0518 35.1855C22.9347 38.9084 14.3856 42.5242 9.00714 43.6376C7.61129 43.9266 6.31075 43.4054 5.49841 42.4312C4.70863 41.4841 4.42945 40.1806 4.77702 38.9294L8.92408 23.9999Z" fill="#646464"/>
</svg>
