<svg width="48" height="48" viewBox="0 0 48 48" fill="none" xmlns="http://www.w3.org/2000/svg">
<path fill-rule="evenodd" clip-rule="evenodd" d="M27.3198 12.591C27.3198 8.3243 30.7787 4.86548 35.0453 4.86548C39.312 4.86548 42.7708 8.32429 42.7708 12.591C42.7708 16.8576 39.312 20.3165 35.0453 20.3165C32.577 20.3165 30.3791 19.1589 28.9648 17.357L20.1429 21.1641C20.4895 22.0421 20.68 22.9988 20.68 24C20.68 25.0106 20.4859 25.9759 20.1331 26.8606L28.9635 30.6447C30.3777 28.8419 32.5763 27.6836 35.0453 27.6836C39.312 27.6836 42.7708 31.1424 42.7708 35.4091C42.7708 39.6757 39.312 43.1346 35.0453 43.1346C30.7787 43.1346 27.3198 39.6757 27.3198 35.4091C27.3198 35.041 27.3456 34.6789 27.3954 34.3245L17.701 30.1703C17.6805 30.1614 17.6601 30.1523 17.64 30.1429C16.3404 31.1358 14.7163 31.7255 12.9545 31.7255C8.68782 31.7255 5.229 28.2667 5.229 24C5.229 19.7334 8.68782 16.2745 12.9545 16.2745C14.7278 16.2745 16.3616 16.872 17.6655 17.8766L27.3956 13.6776C27.3457 13.3226 27.3198 12.9598 27.3198 12.591ZM35.0453 8.31646C32.6846 8.31646 30.7708 10.2302 30.7708 12.591C30.7708 14.9517 32.6846 16.8655 35.0453 16.8655C37.406 16.8655 39.3198 14.9517 39.3198 12.591C39.3198 10.2302 37.406 8.31646 35.0453 8.31646ZM12.9545 19.7255C10.5938 19.7255 8.67998 21.6393 8.67998 24C8.67998 26.3608 10.5938 28.2745 12.9545 28.2745C15.3152 28.2745 17.229 26.3608 17.229 24C17.229 21.6393 15.3152 19.7255 12.9545 19.7255ZM30.7708 35.4091C30.7708 33.0484 32.6846 31.1346 35.0453 31.1346C37.406 31.1346 39.3198 33.0484 39.3198 35.4091C39.3198 37.7698 37.406 39.6836 35.0453 39.6836C32.6846 39.6836 30.7708 37.7698 30.7708 35.4091Z" fill="#646464"/>
</svg>
