<svg width="48" height="48" viewBox="0 0 48 48" fill="none" xmlns="http://www.w3.org/2000/svg">
<path fill-rule="evenodd" clip-rule="evenodd" d="M39.9391 22C41.0437 22.0031 41.9366 22.9011 41.9335 24.0056C41.9319 24.5877 41.9362 25.2556 41.9407 25.9376C41.9485 27.1385 41.9567 28.3827 41.9328 29.2774C41.8657 31.7935 41.7564 33.8129 41.643 35.3736C41.396 38.7704 38.7704 41.3961 35.3736 41.643C32.8427 41.827 29.1056 42 23.9999 42C19.882 42 16.6543 41.8875 14.2317 41.7474C14.1126 41.7405 13.9881 41.7343 13.859 41.7278C12.9332 41.6814 11.7764 41.6234 10.718 41.2311C8.26892 40.3231 6.55385 38.0823 6.35692 35.3736C6.23478 33.6934 6.11747 31.4815 6.05242 28.6906C6.03274 27.8467 6.03934 26.7516 6.04577 25.6859C6.04929 25.1008 6.05277 24.5246 6.05181 24.0037C6.04978 22.8991 6.94356 22.002 8.04813 22C9.1527 21.998 10.0498 22.8918 10.0518 23.9963C10.0529 24.5954 10.0491 25.2103 10.0453 25.8113C10.039 26.8278 10.0328 27.8044 10.0513 28.5974C10.1149 31.3256 10.2292 33.4718 10.3464 35.0836C10.4299 36.2322 11.1315 37.1183 12.1084 37.4805C12.5556 37.6463 13.0488 37.6741 14.1024 37.7336C14.2158 37.74 14.3356 37.7467 14.4626 37.7541C16.8041 37.8894 19.9547 38 23.9999 38C29.0155 38 32.6556 37.83 35.0835 37.6535C36.4999 37.5506 37.5505 36.5 37.6535 35.0836C37.7623 33.5865 37.8687 31.6283 37.9342 29.1708C37.9566 28.3313 37.9491 27.2271 37.9413 26.086C37.9365 25.3852 37.9316 24.6704 37.9335 23.9944C37.9366 22.8898 38.8346 21.9969 39.9391 22Z" fill="#646464"/>
<path fill-rule="evenodd" clip-rule="evenodd" d="M22.5857 6.58579C23.3668 5.80474 24.6331 5.80474 25.4141 6.58579L32.4141 13.5858C33.1952 14.3668 33.1952 15.6332 32.4141 16.4142C31.6331 17.1953 30.3668 17.1953 29.5857 16.4142L25.9999 12.8284V30C25.9999 31.1046 25.1045 32 23.9999 32C22.8953 32 21.9999 31.1046 21.9999 30V12.8284L18.4141 16.4142C17.6331 17.1953 16.3668 17.1953 15.5857 16.4142C14.8047 15.6332 14.8047 14.3668 15.5857 13.5858L22.5857 6.58579Z" fill="#646464"/>
</svg>
