<svg width="48" height="48" viewBox="0 0 48 48" fill="none" xmlns="http://www.w3.org/2000/svg">
<path d="M8 36C8 37.1046 8.89543 38 10 38C11.1046 38 12 37.1046 12 36V28C12 25.7909 13.7909 24 16 24H34.0496C33.6219 24.4086 33.1583 24.829 32.683 25.2448C31.7158 26.0912 30.743 26.8818 30.0086 27.4632C29.6089 27.7796 29.2066 28.0928 28.7998 28.4001C27.9163 29.0629 27.7373 30.3164 28.4 31.2C29.0627 32.0837 30.3167 32.2625 31.2003 31.5997C31.6348 31.2716 32.0645 30.9373 32.4914 30.5993C33.257 29.9932 34.2842 29.1588 35.317 28.2552C36.3402 27.3599 37.4127 26.3586 38.2448 25.4225C38.6585 24.9571 39.0552 24.4608 39.3596 23.9662C39.6245 23.5357 40 22.8261 40 22C40 21.1739 39.6245 20.4643 39.3596 20.0338C39.0552 19.5392 38.6585 19.0429 38.2448 18.5775C37.4127 17.6414 36.3402 16.6401 35.317 15.7448C34.2842 14.8412 33.257 14.0068 32.4914 13.4007C32.0644 13.0626 31.6346 12.7282 31.2 12.4C30.3163 11.7373 29.0627 11.9163 28.4 12.8C27.7373 13.6837 27.9168 14.9376 28.8005 15.6003C29.207 15.9075 29.6091 16.2206 30.0086 16.5368C30.743 17.1182 31.7158 17.9088 32.683 18.7552C33.1583 19.171 33.6219 19.5914 34.0496 20H16C11.5817 20 8 23.5817 8 28V36Z" fill="#646464"/>
</svg>
