<svg width="48" height="48" viewBox="0 0 48 48" fill="none" xmlns="http://www.w3.org/2000/svg">
<path fill-rule="evenodd" clip-rule="evenodd" d="M4 24C4 12.9543 12.9543 4 24 4C35.0457 4 44 12.9543 44 24C44 35.0457 35.0457 44 24 44C12.9543 44 4 35.0457 4 24ZM24 8C15.1634 8 8 15.1634 8 24C8 32.8366 15.1634 40 24 40C32.8366 40 40 32.8366 40 24C40 15.1634 32.8366 8 24 8Z" fill="#646464"/>
<path d="M33.0783 27.0455C31.4215 27.0455 30.0783 25.7023 30.0783 24.0455C30.0783 22.3886 31.4215 21.0455 33.0783 21.0455C34.7352 21.0455 36.0783 22.3886 36.0783 24.0455C36.0783 25.7023 34.7352 27.0455 33.0783 27.0455Z" fill="#646464"/>
<path d="M24 27C22.3431 27 21 25.6569 21 24C21 22.3431 22.3431 21 24 21C25.6569 21 27 22.3431 27 24C27 25.6569 25.6569 27 24 27Z" fill="#646464"/>
<path d="M14.9062 27C13.2494 27 11.9062 25.6569 11.9062 24C11.9062 22.3431 13.2494 21 14.9062 21C16.5631 21 17.9062 22.3431 17.9062 24C17.9062 25.6569 16.5631 27 14.9062 27Z" fill="#646464"/>
</svg>
