<svg width="48" height="48" viewBox="0 0 48 48" fill="none" xmlns="http://www.w3.org/2000/svg">
<path fill-rule="evenodd" clip-rule="evenodd" d="M45 24.0007C45 26.7444 44.9554 28.7663 44.8866 30.4014C44.7953 32.8256 44.6611 34.7358 44.5297 36.1727C44.2473 39.2608 41.6274 41.363 38.6378 41.5788C37.9486 41.6285 36.8005 41.6784 35.4431 41.7254C32.2141 41.8788 27.8352 42.0001 24.0625 42.0001C17.7119 42.0001 12.2411 41.7617 9.40672 41.5314C6.23972 41.2741 3.78836 38.8228 3.53107 35.6558L3.48486 35.0917C3.27259 32.5106 3.0625 29.9562 3.0625 24C3.0625 18.0438 3.27258 15.4894 3.48485 12.9084L3.53107 12.3442C3.78837 9.17717 6.23972 6.72584 9.40671 6.46853C12.2411 6.23823 17.712 6.00012 24.0625 6.00012C27.8657 6.00012 32.2851 6.12344 35.5213 6.27854C36.8446 6.32489 37.9619 6.37388 38.6379 6.42268C41.6274 6.6385 44.2473 8.74065 44.5297 11.8288C44.6609 13.2635 44.7949 15.17 44.8862 17.5891C44.9552 19.2261 45 21.2512 45 24.0007ZM25.0625 37.9974V10.0029C24.7254 10.0011 24.3917 10.0001 24.0625 10.0001C17.789 10.0001 12.4303 10.236 9.73064 10.4554C8.51711 10.554 7.61652 11.4546 7.51793 12.6681L7.47091 13.2419C7.26359 15.7602 7.0625 18.2029 7.0625 24C7.0625 29.7971 7.26359 32.2398 7.47091 34.7581L7.51793 35.3318C7.61652 36.5454 8.51711 37.446 9.73063 37.5445C12.4303 37.7639 17.7891 38.0001 24.0625 38.0001C24.3917 38.0001 24.7254 37.9992 25.0625 37.9974ZM39.125 16C39.125 15.1716 38.4534 14.5 37.625 14.5L32.5625 14.5C31.7341 14.5 31.0625 15.1716 31.0625 16C31.0625 16.8284 31.7341 17.5 32.5625 17.5L37.625 17.5C38.4534 17.5 39.125 16.8284 39.125 16ZM37.6338 20.5C38.4622 20.5051 39.1296 21.1808 39.1245 22.0092C39.1194 22.8377 38.4437 23.5051 37.6153 23.5L32.5528 23.4687C31.7244 23.4636 31.057 22.7879 31.0621 21.9595C31.0672 21.1311 31.7429 20.4637 32.5713 20.4688L37.6338 20.5Z" fill="#646464"/>
</svg>
