<svg width="48" height="48" viewBox="0 0 48 48" fill="none" xmlns="http://www.w3.org/2000/svg">
<path d="M8.9375 16C8.9375 15.1716 9.60907 14.5 10.4375 14.5L15.5 14.5C16.3284 14.5 17 15.1716 17 16C17 16.8284 16.3284 17.5 15.5 17.5L10.4375 17.5C9.60907 17.5 8.9375 16.8284 8.9375 16Z" fill="#646464"/>
<path d="M10.4287 20.5C9.60027 20.5051 8.93286 21.1808 8.93797 22.0092C8.94308 22.8377 9.61879 23.5051 10.4472 23.5L15.5097 23.4687C16.3381 23.4636 17.0055 22.7879 17.0004 21.9595C16.9953 21.1311 16.3196 20.4637 15.4912 20.4688L10.4287 20.5Z" fill="#646464"/>
<path fill-rule="evenodd" clip-rule="evenodd" d="M24 6.00012C18.7168 6.00012 12.2446 6.23808 9.40668 6.46867C6.23969 6.72597 3.78835 9.17732 3.53103 12.3443L3.48483 12.9084C3.27257 15.4895 3.0625 18.0439 3.0625 24.0001C3.0625 29.9564 3.27257 32.5108 3.48484 35.0919L3.53103 35.6559C3.78835 38.8229 6.2397 41.2743 9.40669 41.5316C12.2446 41.7621 18.7168 42.0001 24 42.0001C30.3506 42.0001 35.8214 41.7617 38.6558 41.5314C41.8228 41.2741 44.2741 38.8228 44.5314 35.6558L44.5776 35.0917C44.7899 32.5106 45 29.9562 45 24C45 18.0438 44.7899 15.4894 44.5777 12.9084L44.5314 12.3442C44.2741 9.17717 41.8228 6.72584 38.6558 6.46853C35.8214 6.23823 30.3505 6.00012 24 6.00012ZM23 10.0029C23.3371 10.0011 23.6708 10.0001 24 10.0001C30.2735 10.0001 35.6322 10.236 38.3319 10.4554C39.5454 10.554 40.446 11.4546 40.5446 12.6681L40.5916 13.2419C40.7989 15.7602 41 18.2029 41 24C41 29.7971 40.7989 32.2398 40.5916 34.7581L40.5446 35.3318C40.446 36.5454 39.5454 37.446 38.3319 37.5445C35.6322 37.7639 30.2734 38.0001 24 38.0001C23.6708 38.0001 23.3371 37.9992 23 37.9974V10.0029ZM19 10.0599C15.2179 10.144 11.597 10.3039 9.73061 10.4555C8.51709 10.5541 7.6165 11.4547 7.5179 12.6682L7.47087 13.242C7.26357 15.7604 7.0625 18.2031 7.0625 24.0001C7.0625 29.7972 7.26358 32.2399 7.47087 34.7582L7.5179 35.332C7.6165 36.5455 8.5171 37.4461 9.73062 37.5447C11.597 37.6963 15.2179 37.8563 19 37.9404V10.0599Z" fill="#646464"/>
</svg>
