<svg width="48" height="48" viewBox="0 0 48 48" fill="none" xmlns="http://www.w3.org/2000/svg">
<path opacity="0.3" d="M7.38635 37.5873C7.56214 39.7167 9.32774 40.5737 11.4572 40.75C14.1179 40.9703 15.0915 40.75 21.7072 40.75C24.5509 40.75 26.3124 38.5 23.0126 38.0625C19.068 37.5395 16.2061 33.3854 16.2061 29.2731C16.2061 24.2523 19.9952 19.7276 25.2061 19.7276C28.318 19.7276 30.9443 21.37 32.5364 23.7367C35.3465 22.5468 39.9999 24.3125 41.8124 24.6875C41.8124 14.75 29.7499 17.7341 19.5001 17.7341C9.04919 20.5411 11.4571 28 7.38635 37.5873Z" fill="#646464"/>
<path fill-rule="evenodd" clip-rule="evenodd" d="M20.4341 9.37072C19.8468 8.48976 18.8724 7.97849 17.8606 8.00071C14.8959 8.06582 12.4711 8.22894 10.6857 8.39115C9.46389 8.50215 8.5544 9.42072 8.45539 10.6393C8.23439 13.3595 8 16.8737 8 23.125C8 29.4651 8.241 32.707 8.46519 35.4226C8.56212 36.5968 9.40645 37.4366 10.5424 37.5307C13.1386 37.7456 17.4288 37.9711 24 37.9711C25.1046 37.9711 26 38.8666 26 39.9711C26 41.0757 25.1046 41.9711 24 41.9711C17.3398 41.9711 12.9376 41.7427 10.2123 41.517C7.08941 41.2585 4.73341 38.8366 4.47875 35.7517C4.24748 32.9503 4 29.5963 4 23.125C4 16.7524 4.23991 13.1293 4.46853 10.3154C4.72544 7.1535 7.16866 4.69421 10.3238 4.40755C12.1932 4.23771 14.7096 4.06894 17.7728 4.00167C20.1992 3.94839 22.4419 5.17141 23.7623 7.15192L24.9007 8.85961C25.0037 9.01408 25.1868 9.11721 25.3925 9.11854C30.7639 9.15321 34.8547 9.38359 37.5596 9.59895C40.7495 9.85291 43.2835 12.3057 43.5922 15.5137C43.6341 15.9492 43.6766 16.3378 43.7175 16.712C43.8696 18.1042 44 19.298 44 21.9712C44 23.0758 43.1046 23.9712 42 23.9712C40.8954 23.9712 40 23.0758 40 21.9712C40 19.5245 39.8914 18.5284 39.7443 17.1801C39.7024 16.795 39.6572 16.3813 39.6106 15.8969C39.4899 14.6425 38.5211 13.6882 37.2422 13.5863C34.6303 13.3784 30.6368 13.1525 25.3667 13.1185C23.8529 13.1087 22.4234 12.3547 21.5725 11.0784L20.4341 9.37072C20.4341 9.37072 20.4341 9.37072 20.4341 9.37072Z" fill="#646464"/>
<path fill-rule="evenodd" clip-rule="evenodd" d="M25.5455 26.7275C24.1396 26.7275 23 27.8672 23 29.273C23 30.6788 24.1396 31.8185 25.5455 31.8185H36.1716L34.1312 29.7781C33.3502 28.9971 33.3502 27.7307 34.1312 26.9497C34.9123 26.1686 36.1786 26.1686 36.9597 26.9497L42.4142 32.4042C43.1953 33.1853 43.1953 34.4516 42.4142 35.2327L36.9597 40.6872C36.1786 41.4683 34.9123 41.4683 34.1312 40.6872C33.3502 39.9062 33.3502 38.6398 34.1312 37.8588L36.1716 35.8185H25.5455C21.9305 35.8185 19 32.888 19 29.273C19 25.658 21.9305 22.7275 25.5455 22.7275C28.3617 22.7275 30.7577 24.5052 31.6822 26.9929C32.067 28.0282 31.5396 29.1795 30.5043 29.5643C29.4689 29.9491 28.3176 29.4217 27.9328 28.3863C27.5717 27.4146 26.6363 26.7275 25.5455 26.7275Z" fill="#646464"/>
<path fill-rule="evenodd" clip-rule="evenodd" d="M26.3184 16.0781C27.547 16.1113 28.6935 16.1415 29.6945 16.1415C34.2744 16.1415 37.2264 16.1704 39.2565 16.5473C42.4094 17.1327 44 20.0343 44 22.7922C44 23.8968 43.1046 24.7922 42 24.7922C40.8954 24.7922 40 23.8968 40 22.7922C40 21.3636 39.2514 20.6147 38.5264 20.4801C36.9451 20.1865 34.4334 20.1415 29.6945 20.1415C28.6294 20.1415 27.4267 20.1095 26.2104 20.0767L26.1287 20.0745C24.9276 20.042 23.7075 20.009 22.5339 20.0016C20.0235 19.9856 18.088 20.0981 17.1114 20.4157C15.7097 20.8715 15.1405 21.8744 14.0672 25.3292L10.9529 39.4313C10.7148 40.5099 9.64729 41.1911 8.56871 40.9529C7.49013 40.7148 6.80886 39.6473 7.04706 38.5687L10.1793 24.3852C10.1912 24.3313 10.2054 24.2778 10.2217 24.2251C11.1988 21.0688 12.2126 17.8026 15.8744 16.6118C17.5712 16.06 20.1703 15.9864 22.5594 16.0017C23.775 16.0094 25.0311 16.0433 26.2197 16.0755L26.3184 16.0781Z" fill="#646464"/>
</svg>
