<svg width="48" height="48" viewBox="0 0 48 48" fill="none" xmlns="http://www.w3.org/2000/svg">
<path fill-rule="evenodd" clip-rule="evenodd" d="M24 8.29417C23.0031 8.29417 22.195 9.10231 22.195 10.0992C22.195 11.0961 23.0031 11.9042 24 11.9042C24.9969 11.9042 25.805 11.0961 25.805 10.0992C25.805 9.10231 24.9969 8.29417 24 8.29417ZM18.5849 10.0992C18.5849 7.10852 21.0093 4.68408 24 4.68408C26.9907 4.68408 29.4151 7.10852 29.4151 10.0992C29.4151 12.457 27.9083 14.4628 25.805 15.2062V20.335C26.8029 20.6877 27.6659 21.3245 28.2976 22.1477L33.1713 20.5641C33.2408 17.6339 35.6379 15.2799 38.5849 15.2799C41.5756 15.2799 44 17.7043 44 20.695C44 23.6857 41.5756 26.1101 38.5849 26.1101C36.8351 26.1101 35.2815 25.2809 34.2922 23.9958L29.4134 25.581C29.3859 26.6681 29.0376 27.6754 28.4613 28.5116L31.4818 32.669C31.9715 32.5235 32.4898 32.4454 33.0252 32.4454C36.0159 32.4454 38.4403 34.8698 38.4403 37.8605C38.4403 40.8512 36.0159 43.2757 33.0252 43.2757C30.0345 43.2757 27.6101 40.8512 27.6101 37.8605C27.6101 36.7213 27.9626 35.6643 28.5626 34.7929L25.5412 30.6342C25.0522 30.7793 24.5346 30.8572 24 30.8572C23.4654 30.8572 22.9479 30.7793 22.4589 30.6342L19.4375 34.7929C20.0374 35.6643 20.3899 36.7213 20.3899 37.8605C20.3899 40.8512 17.9655 43.2757 14.9748 43.2757C11.9841 43.2757 9.55967 40.8512 9.55967 37.8605C9.55967 34.8698 11.9841 32.4454 14.9748 32.4454C15.5103 32.4454 16.0286 32.5236 16.5182 32.669L19.5387 28.5117C18.9624 27.6754 18.6141 26.6681 18.5866 25.581L13.7078 23.9958C12.7185 25.2809 11.1649 26.1101 9.41512 26.1101C6.42443 26.1101 4 23.6857 4 20.695C4 17.7043 6.42443 15.2799 9.41512 15.2799C12.3621 15.2799 14.7592 17.6339 14.8287 20.5641L19.7024 22.1477C20.3341 21.3245 21.1971 20.6877 22.195 20.335V15.2062C20.0917 14.4628 18.5849 12.457 18.5849 10.0992ZM9.41512 18.89C8.41823 18.89 7.61008 19.6981 7.61008 20.695C7.61008 21.6919 8.41823 22.5001 9.41512 22.5001C10.2132 22.5001 10.8947 21.9809 11.1315 21.2571C11.1886 21.0825 11.2202 20.8942 11.2202 20.695C11.2202 19.6981 10.412 18.89 9.41512 18.89ZM38.5849 18.89C37.588 18.89 36.7798 19.6981 36.7798 20.695C36.7798 20.8942 36.8114 21.0825 36.8685 21.2571C37.1053 21.9809 37.7868 22.5001 38.5849 22.5001C39.5818 22.5001 40.3899 21.6919 40.3899 20.695C40.3899 19.6981 39.5818 18.89 38.5849 18.89ZM24 23.637C23.2006 23.637 22.5181 24.1579 22.2825 24.8836C22.2261 25.0572 22.195 25.2442 22.195 25.4421C22.195 26.0411 22.4849 26.5722 22.9401 26.9035C23.2375 27.1199 23.6012 27.2471 24 27.2471C24.3988 27.2471 24.7625 27.1199 25.0599 26.9034C25.5151 26.5722 25.805 26.0411 25.805 25.4421C25.805 25.2442 25.7739 25.0572 25.7175 24.8836C25.4819 24.1579 24.7994 23.637 24 23.637ZM14.9748 36.0555C13.9779 36.0555 13.1698 36.8636 13.1698 37.8605C13.1698 38.8574 13.9779 39.6656 14.9748 39.6656C15.9717 39.6656 16.7798 38.8574 16.7798 37.8605C16.7798 37.2619 16.4902 36.7311 16.0356 36.3998C15.738 36.1829 15.374 36.0555 14.9748 36.0555ZM33.0252 36.0555C32.6261 36.0555 32.262 36.1829 31.9644 36.3998C31.5098 36.7311 31.2202 37.2619 31.2202 37.8605C31.2202 38.8574 32.0283 39.6656 33.0252 39.6656C34.0221 39.6656 34.8302 38.8574 34.8302 37.8605C34.8302 36.8636 34.0221 36.0555 33.0252 36.0555Z" fill="#646464"/>
</svg>
