<svg width="48" height="48" viewBox="0 0 48 48" fill="none" xmlns="http://www.w3.org/2000/svg">
<path fill-rule="evenodd" clip-rule="evenodd" d="M24.0486 4C18.0574 4 13.2406 6.0909 9.60785 8.94796C8.63694 9.71156 8.44578 11.0581 9.03447 12.0997L9.83379 13.514C10.647 14.9529 12.543 15.2347 13.8419 14.3187C16.6011 12.373 20.0893 10.8244 24.0486 10.8244C28.008 10.8244 31.4962 12.3729 34.2553 14.3187C35.5542 15.2347 37.4502 14.9529 38.2634 13.514L39.0627 12.0997C39.6513 11.0581 39.4602 9.71156 38.4894 8.94796C34.8566 6.0909 30.0398 4 24.0486 4ZM29.9625 31.0968C29.1312 31.0968 28.4572 31.7707 28.4572 32.6021V39.0537C28.4572 39.8852 29.1312 40.5592 29.9625 40.5592H32.1131C32.9445 40.5592 33.6185 39.8852 33.6185 39.0537V38.6236H32.1131C31.1629 38.6236 30.3926 37.8534 30.3926 36.9032C30.3926 35.9531 31.1629 35.1828 32.1131 35.1828H35.3389C36.2891 35.1828 37.0594 35.9531 37.0594 36.9032V39.0537C37.0594 41.7855 34.8448 44 32.1131 44H29.9626C27.2309 44 25.0164 41.7855 25.0164 39.0537V32.6021C25.0164 29.8704 27.2309 27.656 29.9626 27.656H32.1131C34.2694 27.656 36.0993 29.0348 36.7775 30.9536C37.0941 31.8495 36.6245 32.8323 35.7287 33.149C34.8329 33.4656 33.8499 32.9961 33.5333 32.1003C33.3258 31.5132 32.7658 31.0968 32.1131 31.0968H29.9625ZM21.3604 31.0968H15.8286L15.4834 33.1685C15.972 33.0782 16.4693 33.0322 16.9694 33.0322H18.6722C21.4039 33.0322 23.6185 35.2468 23.6185 37.9785V39.0537C23.6185 41.7855 21.4039 44 18.6722 44H16.5217C14.3654 44 12.5356 42.6212 11.8573 40.7024C11.5408 39.8065 12.0103 38.8236 12.9062 38.5069C13.802 38.1903 14.7849 38.6599 15.1016 39.5557C15.309 40.1427 15.869 40.5592 16.5217 40.5592H18.6722C19.5036 40.5592 20.1776 39.8852 20.1776 39.0537V37.9785C20.1776 37.1471 19.5036 36.4731 18.6722 36.4731H16.9694C16.235 36.4731 15.5105 36.6441 14.8536 36.9726L14.0653 37.3668C13.4865 37.6562 12.7943 37.5963 12.2738 37.2119C11.7533 36.8275 11.4925 36.1834 11.5989 35.5452L12.6742 29.0935C12.8124 28.2639 13.5301 27.656 14.3712 27.656H21.3604C22.3106 27.656 23.0808 28.4262 23.0808 29.3764C23.0808 30.3265 22.3106 31.0968 21.3604 31.0968ZM15.7123 17.0748C17.8403 15.3869 20.4197 14.3226 24.0486 14.3226C27.6775 14.3226 30.2568 15.3869 32.3849 17.0748C33.4414 17.9128 33.5647 19.3919 32.8886 20.4815L32.1103 21.7357C31.37 22.9287 29.7593 23.0618 28.6708 22.3703C27.4368 21.5864 25.8309 20.9349 24.0486 20.9349C22.2663 20.9349 20.6604 21.5864 19.4264 22.3703C18.3379 23.0618 16.7272 22.9287 15.9869 21.7357L15.2086 20.4815C14.5324 19.3919 14.6558 17.9128 15.7123 17.0748Z" fill="#646464"/>
</svg>
