<svg width="48" height="48" viewBox="0 0 48 48" fill="none" xmlns="http://www.w3.org/2000/svg">
<path d="M22.9627 43.7493C22.4632 43.7195 22.0195 43.6695 21.629 43.6084C19.6923 43.3053 18.6909 41.5275 18.6432 39.8357C18.5848 37.7646 18.5115 34.0351 18.5115 28.3524C18.5115 22.6697 18.5848 19.8836 18.6432 17.8126C18.6909 16.1208 19.6923 14.3429 21.629 14.0398C22.2716 13.9393 23.0582 13.8689 24.0004 13.8689C24.0003 13.8689 24.0004 13.8689 24.0004 13.8689C24.9425 13.8689 25.7294 13.9393 26.372 14.0398C28.3087 14.3429 29.3101 16.1208 29.3578 17.8126C29.4162 19.8836 29.4895 22.6697 29.4895 28.3524C29.4895 34.0351 29.4162 37.7646 29.3578 39.8357C29.3101 41.5275 28.3087 43.3053 26.372 43.6084C25.9703 43.6712 25.5123 43.7223 24.9953 43.7518C24.6852 43.7694 24.3538 43.7793 24.0006 43.7793" fill="#646464"/>
<path d="M22.9627 43.7493C23.2851 43.7685 23.631 43.7793 24.0006 43.7793L22.9627 43.7493Z" fill="#646464"/>
<path d="M7.61464 43.7209C8.1413 43.7563 8.75572 43.7793 9.4635 43.7793C10.1713 43.7793 10.7857 43.7563 11.3123 43.7209C13.4215 43.5789 14.8029 41.775 14.8728 39.7534C14.9155 38.5213 14.9524 36.7975 14.9524 34.5232C14.9524 32.2489 14.9155 31.1697 14.8728 29.9375C14.8029 27.916 13.4215 26.1121 11.3123 25.9701C10.7857 25.9347 10.1713 25.9117 9.4635 25.9117C8.75572 25.9117 8.14131 25.9347 7.61465 25.9701C5.50551 26.1121 4.12407 27.916 4.05416 29.9375C4.01154 31.1697 3.97461 32.2489 3.97461 34.5232C3.97461 36.7975 4.01154 38.5213 4.05416 39.7534C4.12407 41.775 5.50551 43.5789 7.61464 43.7209Z" fill="#646464"/>
<path d="M33.8746 43.1578L33.8712 43.1562C33.2817 42.9051 32.9218 42.1443 33.0214 41.3602C33.1208 40.5761 33.6504 40 34.2717 40H42.7164C43.3376 40 43.8672 40.5761 43.9667 41.3602C44.0662 42.1443 43.7055 42.9055 43.1161 43.1566L43.1134 43.1578L43.1001 43.1633L43.0757 43.1731C43.057 43.1805 43.0331 43.1897 43.0041 43.2003C42.9462 43.2214 42.8678 43.2484 42.7678 43.279C42.5681 43.3403 42.283 43.4163 41.9062 43.4905C41.1524 43.6388 40.0322 43.7793 38.494 43.7793C36.9558 43.7793 35.8356 43.6388 35.0819 43.4905C34.7049 43.4163 34.4198 43.3403 34.2201 43.279C34.1202 43.2484 34.0418 43.2214 33.9839 43.2003C33.9549 43.1897 33.9311 43.1805 33.9124 43.1731L33.888 43.1633L33.8746 43.1578Z" fill="#646464"/>
</svg>
