<svg width="48" height="48" viewBox="0 0 48 48" fill="none" xmlns="http://www.w3.org/2000/svg">
<path fill-rule="evenodd" clip-rule="evenodd" d="M24 8C15.1634 8 8 15.1634 8 24C8 32.2343 14.222 39.0181 22.2197 39.9023C23.3176 40.0236 24.1093 41.012 23.9879 42.1099C23.8665 43.2078 22.8781 43.9994 21.7803 43.878C11.7782 42.7724 4 34.2959 4 24C4 12.9543 12.9543 4 24 4C34.2959 4 42.7724 11.7782 43.878 21.7803C43.9994 22.8781 43.2078 23.8665 42.1099 23.9879C41.012 24.1093 40.0236 23.3176 39.9023 22.2197C39.0181 14.222 32.2343 8 24 8ZM24 12C25.1046 12 26 12.8954 26 14V24C26 24.7575 25.572 25.4501 24.8944 25.7889L16.8944 29.7889C15.9065 30.2828 14.7051 29.8824 14.2111 28.8944C13.7172 27.9065 14.1176 26.7051 15.1056 26.2111L22 22.7639V14C22 12.8954 22.8954 12 24 12ZM29 30C29 28.8954 29.8954 28 31 28H41C41.776 28 42.482 28.4489 42.8112 29.1517C43.1403 29.8545 43.0332 30.6842 42.5364 31.2804L35.2701 40H41C42.1046 40 43 40.8954 43 42C43 43.1046 42.1046 44 41 44H31C30.224 44 29.518 43.5511 29.1888 42.8483C28.8597 42.1455 28.9668 41.3158 29.4636 40.7196L36.7299 32H31C29.8954 32 29 31.1046 29 30Z" fill="#646464"/>
</svg>
