<svg width="48" height="48" viewBox="0 0 48 48" fill="none" xmlns="http://www.w3.org/2000/svg">
<path fill-rule="evenodd" clip-rule="evenodd" d="M12.0001 4C12.8337 4 13.58 4.51715 13.8727 5.29775L19.8727 21.2978C20.2606 22.332 19.7365 23.4848 18.7023 23.8727C17.6681 24.2605 16.5152 23.7365 16.1274 22.7022L15.1141 20H8.88605L7.87271 22.7022C7.48487 23.7365 6.33205 24.2605 5.29781 23.8727C4.26357 23.4848 3.73956 22.332 4.1274 21.2978L10.1274 5.29775C10.4201 4.51715 11.1664 4 12.0001 4ZM10.3861 16H13.6141L12.0001 11.696L10.3861 16ZM34.0001 8C35.1046 8 36.0001 8.89543 36.0001 10V33.1716L40.5858 28.5858C41.3669 27.8047 42.6332 27.8047 43.4143 28.5858C44.1953 29.3668 44.1953 30.6332 43.4143 31.4142L35.4143 39.4142C34.6332 40.1953 33.3669 40.1953 32.5858 39.4142L24.5858 31.4142C23.8048 30.6332 23.8048 29.3668 24.5858 28.5858C25.3669 27.8047 26.6332 27.8047 27.4143 28.5858L32.0001 33.1716V10C32.0001 8.89543 32.8955 8 34.0001 8ZM4.00005 28C4.00005 26.8954 4.89548 26 6.00005 26H18.0001C18.7811 26 19.4907 26.4547 19.8171 27.1643C20.1434 27.8739 20.0269 28.7086 19.5186 29.3016L10.3485 40H18.0001C19.1046 40 20.0001 40.8954 20.0001 42C20.0001 43.1046 19.1046 44 18.0001 44H6.00005C5.21899 44 4.5094 43.5453 4.18303 42.8357C3.85666 42.1261 3.97323 41.2914 4.48154 40.6984L13.6516 30H6.00005C4.89548 30 4.00005 29.1046 4.00005 28Z" fill="#646464"/>
</svg>
