<svg width="48" height="48" viewBox="0 0 48 48" fill="none" xmlns="http://www.w3.org/2000/svg">
<path fill-rule="evenodd" clip-rule="evenodd" d="M11.9597 34.118C13.3466 36.2256 14.7743 37.7789 16.3541 39.0014C18.1786 40.4133 20.1142 41.3107 22.1854 42.1334C24.8465 43.1902 27.4162 41.2383 27.6308 38.6689C27.8608 35.9148 28.1536 31.0289 28.1536 24.0129C28.1536 16.9968 27.8608 12.1116 27.6308 9.35746C27.4162 6.78808 24.8465 4.83608 22.1855 5.89292C20.1142 6.71555 18.1786 7.61304 16.3541 9.02485C14.7743 10.2474 13.3466 11.8007 11.9597 13.9083C11.7674 13.8969 11.5599 13.8874 11.3414 13.8814C10.3163 13.8537 8.81286 13.8953 7.52755 14.3367C5.93149 14.8848 4.78661 16.2502 4.50536 17.899C4.27243 19.2645 4 21.4147 4 24.0129C4 26.611 4.27242 28.7617 4.50536 30.1273C4.78661 31.7761 5.93149 33.1415 7.52755 33.6896C8.81286 34.131 10.3163 34.1726 11.3414 34.1449C11.5599 34.1389 11.7674 34.1294 11.9597 34.118ZM18.8021 12.1883C20.1767 11.1246 21.6941 10.3934 23.6292 9.62345C23.6352 9.63693 23.642 9.65829 23.6447 9.69026C23.8654 12.3341 24.1536 17.1083 24.1536 24.0129C24.1536 30.9174 23.8654 35.6922 23.6447 38.336C23.642 38.368 23.6352 38.3894 23.6292 38.4028C21.6941 37.6329 20.1767 36.9017 18.8021 35.838C17.4327 34.7783 16.1129 33.3154 14.714 30.9839C14.2997 30.2934 13.5112 29.9188 12.7142 30.0333C12.581 30.0512 12.4473 30.0658 12.3136 30.0788C12.0422 30.1053 11.6622 30.1347 11.2331 30.1463C10.3135 30.1712 9.40589 30.1054 8.82659 29.9064C8.62852 29.8384 8.48614 29.6759 8.44841 29.4547C8.24449 28.2592 8 26.3383 8 24.0129C8 21.6875 8.24448 19.7671 8.4484 18.5716C8.48614 18.3504 8.62866 18.1878 8.82673 18.1198C9.40603 17.9209 10.3135 17.8551 11.2331 17.88C11.6622 17.8916 12.0422 17.921 12.3136 17.9475C12.448 17.9606 12.5827 17.9742 12.7164 17.9934C13.5128 18.1071 14.3 17.7324 14.714 17.0424C16.1129 14.7109 17.4327 13.248 18.8021 12.1883Z" fill="#646464"/>
<path fill-rule="evenodd" clip-rule="evenodd" d="M30.9862 18.934C31.6909 18.0834 32.9517 17.9651 33.8023 18.6698C35.4878 20.0661 36.4212 21.9868 36.4212 23.9995C36.4212 26.0122 35.4878 27.9329 33.8023 29.3292C32.9517 30.0339 31.6909 29.9156 30.9862 29.065C30.2816 28.2144 30.3999 26.9536 31.2505 26.2489C32.0913 25.5523 32.4212 24.7299 32.4212 23.9995C32.4212 23.2691 32.0913 22.4467 31.2505 21.7501C30.3999 21.0454 30.2816 19.7846 30.9862 18.934Z" fill="#646464"/>
</svg>
