<svg width="48" height="48" viewBox="0 0 48 48" fill="none" xmlns="http://www.w3.org/2000/svg">
<path d="M37.7549 3.49792C39.203 3.40892 40.4945 3.82652 41.6455 4.56824C43.9249 6.0374 44.6578 8.35446 44.4639 10.7323C44.2796 12.9917 43.2715 15.4533 41.9424 17.83C41.8155 18.0568 41.6823 18.2831 41.5479 18.5116C43.059 21.2879 43.0635 23.4831 43.0635 25.8046V25.8456C43.0635 35.3568 35.3521 43.0682 25.8408 43.0682C23.1892 43.0682 20.233 42.4888 17.7607 40.9803C17.5076 41.0944 17.2571 41.2071 17.0068 41.3124C14.7126 42.2776 12.4476 42.9106 10.4287 43.0253C8.44146 43.138 6.36609 42.7576 4.89746 41.2889C4.03447 40.4257 3.38063 39.2217 3.28223 37.7889C3.1827 36.3373 3.6668 34.8546 4.72363 33.4725C5.3946 32.5951 6.6509 32.4285 7.52832 33.0995C8.40493 33.7706 8.57202 35.0251 7.90137 35.9022C7.33326 36.6451 7.25008 37.189 7.27246 37.5155C7.29628 37.86 7.45377 38.187 7.72754 38.4608C8.05114 38.7841 8.76487 39.1146 10.2021 39.0331C11.6081 38.9532 13.4061 38.4865 15.4541 37.6249C19.5393 35.9061 24.2306 32.7761 28.0947 28.912C31.8933 25.1134 36.0252 20.2164 38.4521 15.8768C39.6766 13.6873 40.362 11.8215 40.4775 10.4081C40.5831 9.11316 40.2222 8.4104 39.4795 7.93152C38.9292 7.57684 38.4705 7.4614 38.001 7.49011C37.4882 7.52163 36.7693 7.73803 35.7549 8.37878C34.8212 8.96797 33.5869 8.68911 32.9971 7.75574C32.4072 6.82187 32.6862 5.58585 33.6201 4.99597C34.9805 4.13679 36.3496 3.58432 37.7549 3.49792ZM38.8506 22.576C36.439 25.8666 33.5695 29.0934 30.9229 31.7401C28.2757 34.3873 25.2635 36.73 22.2471 38.5858C23.391 38.9078 24.6207 39.0682 25.8408 39.0682C33.1429 39.0682 39.0635 33.1477 39.0635 25.8456C39.0635 24.5627 39.0567 23.5599 38.8506 22.576ZM25.8408 8.62488C29.0222 8.62488 31.8705 9.04927 34.9951 11.2811C35.8935 11.9232 36.1016 13.1715 35.46 14.0702C34.8179 14.969 33.5678 15.1771 32.6689 14.535C30.4664 12.962 28.5474 12.6249 25.8408 12.6249C18.5391 12.625 12.6206 18.544 12.6201 25.8456C12.6201 28.6371 13.3083 31.1238 14.8193 32.9374C15.5265 33.7859 15.412 35.0486 14.5635 35.7557C13.7149 36.4624 12.4541 36.3463 11.7471 35.4979C9.45322 32.7451 8.62012 29.2391 8.62012 25.8456C8.6206 16.3348 16.33 8.625 25.8408 8.62488Z" fill="#646464"/>
</svg>
