<svg width="48" height="48" viewBox="0 0 48 48" fill="none" xmlns="http://www.w3.org/2000/svg">
<path fill-rule="evenodd" clip-rule="evenodd" d="M20.6506 4.27954C21.741 4.09557 22.8601 4 24 4C25.1399 4 26.259 4.09557 27.3494 4.27954C28.4385 4.46332 29.1725 5.49525 28.9887 6.58443C28.8049 7.6736 27.773 8.40757 26.6838 8.22379C25.8125 8.07676 24.916 8 24 8C23.084 8 22.1875 8.07676 21.3162 8.22379C20.227 8.40757 19.1951 7.6736 19.0113 6.58443C18.8275 5.49526 19.5615 4.46332 20.6506 4.27954ZM32.7866 8.15992C33.4266 7.25962 34.6752 7.04855 35.5755 7.68849C37.4071 8.9904 39.0096 10.5929 40.3115 12.4245C40.9514 13.3248 40.7404 14.5734 39.8401 15.2134C38.9398 15.8533 37.6912 15.6422 37.0512 14.7419C36.0086 13.2752 34.7248 11.9914 33.2581 10.9488C32.3578 10.3088 32.1467 9.06022 32.7866 8.15992ZM15.2134 8.15992C15.8533 9.06022 15.6422 10.3088 14.7419 10.9488C13.2752 11.9914 11.9914 13.2752 10.9488 14.7419C10.3088 15.6422 9.06022 15.8533 8.15992 15.2134C7.25962 14.5734 7.04855 13.3248 7.68849 12.4245C8.9904 10.5929 10.5929 8.9904 12.4245 7.6885C13.3248 7.04855 14.5734 7.25962 15.2134 8.15992ZM41.4156 19.0113C42.5047 18.8275 43.5367 19.5615 43.7205 20.6506C43.9044 21.741 44 22.8601 44 24C44 25.1399 43.9044 26.259 43.7205 27.3494C43.5367 28.4385 42.5047 29.1725 41.4156 28.9887C40.3264 28.8049 39.5924 27.773 39.7762 26.6838C39.9232 25.8125 40 24.916 40 24C40 23.084 39.9232 22.1875 39.7762 21.3162C39.5924 20.227 40.3264 19.1951 41.4156 19.0113ZM6.58443 19.0113C7.6736 19.1951 8.40757 20.227 8.22379 21.3162C8.07676 22.1875 8 23.084 8 24C8 24.916 8.07676 25.8125 8.22379 26.6838C8.40757 27.773 7.6736 28.8049 6.58443 28.9887C5.49526 29.1725 4.46332 28.4385 4.27954 27.3494C4.09557 26.259 4 25.1399 4 24C4 22.8601 4.09557 21.741 4.27954 20.6506C4.46332 19.5615 5.49525 18.8275 6.58443 19.0113ZM39.8401 32.7866C40.7404 33.4266 40.9515 34.6752 40.3115 35.5755C39.0096 37.4071 37.4071 39.0096 35.5755 40.3115C34.6752 40.9514 33.4266 40.7404 32.7866 39.8401C32.1467 38.9398 32.3578 37.6912 33.2581 37.0512C34.7248 36.0086 36.0086 34.7248 37.0512 33.2581C37.6912 32.3578 38.9398 32.1467 39.8401 32.7866ZM8.15992 32.7866C9.06022 32.1467 10.3088 32.3578 10.9488 33.2581C11.9914 34.7248 13.2752 36.0086 14.7419 37.0512C15.6422 37.6912 15.8533 38.9398 15.2134 39.8401C14.5734 40.7404 13.3248 40.9515 12.4245 40.3115C10.5929 39.0096 8.9904 37.4071 7.6885 35.5755C7.04855 34.6752 7.25962 33.4266 8.15992 32.7866ZM19.0113 41.4156C19.1951 40.3264 20.227 39.5924 21.3162 39.7762C22.1875 39.9232 23.084 40 24 40C24.916 40 25.8125 39.9232 26.6838 39.7762C27.773 39.5924 28.8049 40.3264 28.9887 41.4156C29.1725 42.5047 28.4385 43.5367 27.3494 43.7205C26.259 43.9044 25.1399 44 24 44C22.8601 44 21.741 43.9044 20.6506 43.7205C19.5615 43.5367 18.8275 42.5047 19.0113 41.4156Z" fill="#BBBBBB"/>
<path d="M19.1666 19.3082C19.1666 17.4251 21.4203 16.3372 23.0269 17.4448L29.8323 22.1366C31.167 23.0567 31.167 24.9433 29.8323 25.8634L23.0269 30.5552C21.4203 31.6628 19.1666 30.5749 19.1666 28.6918V19.3082Z" fill="#BBBBBB"/>
</svg>
