<svg width="48" height="48" viewBox="0 0 48 48" fill="none" xmlns="http://www.w3.org/2000/svg">
<path fill-rule="evenodd" clip-rule="evenodd" d="M21.9504 6.00348C22.1948 7.08067 21.5198 8.15205 20.4426 8.39647C13.3176 10.0132 8 16.388 8 24C8 32.8366 15.1634 40 24 40C31.612 40 37.9868 34.6824 39.6035 27.5575C39.848 26.4803 40.9194 25.8052 41.9965 26.0496C43.0737 26.294 43.7488 27.3654 43.5044 28.4426C41.4833 37.3495 33.5207 44 24 44C12.9543 44 4 35.0457 4 24C4 14.4793 10.6505 6.51672 19.5574 4.49564C20.6346 4.25121 21.706 4.9263 21.9504 6.00348Z" fill="#646464"/>
<path d="M26.0495 6.00348C26.294 4.9263 27.3653 4.25121 28.4425 4.49564C35.923 6.19305 41.8069 12.0769 43.5043 19.5574C43.7488 20.6346 43.0737 21.706 41.9965 21.9504C40.9193 22.1949 39.8479 21.5198 39.6035 20.4426C38.2469 14.4641 33.5359 9.75307 27.5574 8.39647C26.4802 8.15205 25.8051 7.08067 26.0495 6.00348Z" fill="#646464"/>
<path d="M19.1666 19.3082C19.1666 17.4251 21.4203 16.3372 23.0269 17.4448L29.8323 22.1366C31.167 23.0567 31.167 24.9433 29.8323 25.8634L23.0269 30.5552C21.4203 31.6628 19.1666 30.5749 19.1666 28.6918V19.3082Z" fill="#646464"/>
</svg>
