<svg width="48" height="48" viewBox="0 0 48 48" fill="none" xmlns="http://www.w3.org/2000/svg">
<path d="M4 24C4 12.9543 12.9543 4 24 4C34.7166 4 43.4635 12.4277 43.9763 23.0182C44.0297 24.1215 43.1786 25.0592 42.0753 25.1126C40.9721 25.166 40.0344 24.315 39.981 23.2117C39.5709 14.7421 32.5722 8 24 8C15.1634 8 8 15.1634 8 24C8 32.8366 15.1634 40 24 40C24.3649 40 24.7267 39.9878 25.085 39.9639C26.1871 39.8902 27.1402 40.7239 27.2139 41.826C27.2876 42.9282 26.4538 43.8813 25.3517 43.955C24.9047 43.9848 24.454 44 24 44C12.9543 44 4 35.0457 4 24Z" fill="#646464"/>
<path d="M28.2803 28C27.1757 28 26.2803 28.8954 26.2803 30C26.2803 31.1046 27.1757 32 28.2803 32H41.9946C43.0991 32 43.9946 31.1046 43.9946 30C43.9946 28.8954 43.0991 28 41.9946 28H28.2803Z" fill="#646464"/>
<path d="M27.9951 36C27.9951 34.8954 28.8905 34 29.9951 34H40.2808C41.3854 34 42.2808 34.8954 42.2808 36C42.2808 37.1046 41.3854 38 40.2808 38H29.9951C28.8905 38 27.9951 37.1046 27.9951 36Z" fill="#646464"/>
<path d="M31.4238 42C31.4238 40.8954 32.3193 40 33.4238 40H36.8524C37.957 40 38.8524 40.8954 38.8524 42C38.8524 43.1046 37.957 44 36.8524 44H33.4238C32.3193 44 31.4238 43.1046 31.4238 42Z" fill="#646464"/>
<path d="M27.6322 13.0995C26.2026 10 21.7974 10 20.3678 13.0995L18.7029 16.709L14.7556 17.177C11.366 17.5789 10.0047 21.7685 12.5107 24.0859L15.4291 26.7847L14.6544 30.6835C13.9892 34.0314 17.553 36.6206 20.5315 34.9534L22.4642 33.8716C23.428 33.3321 23.772 32.1133 23.2325 31.1495C22.693 30.1857 21.4743 29.8417 20.5104 30.3812L18.5777 31.463L19.3524 27.5643C19.6235 26.1998 19.1662 24.7925 18.1449 23.848L15.2265 21.1492L19.1739 20.6812C20.5553 20.5174 21.7525 19.6476 22.3351 18.3844L24 14.7749L25.6649 18.3844C26.2476 19.6476 27.4447 20.5174 28.8262 20.6812L32.7735 21.1492L32.2016 21.6781C31.3906 22.428 31.3412 23.6934 32.0911 24.5043C32.8411 25.3153 34.1065 25.3648 34.9174 24.6148L35.4893 24.086C37.9952 21.7685 36.6341 17.5789 33.2445 17.177L29.2971 16.709L27.6322 13.0995Z" fill="#646464"/>
</svg>
