<svg width="48" height="48" viewBox="0 0 48 48" fill="none" xmlns="http://www.w3.org/2000/svg">
<path fill-rule="evenodd" clip-rule="evenodd" d="M15.9971 14C11.5788 14 7.99707 17.5817 7.99707 22C7.99707 26.4183 11.5788 30 15.9971 30H37.1686L32.5829 25.4142C31.8018 24.6332 31.8018 23.3668 32.5829 22.5858C33.3639 21.8047 34.6302 21.8047 35.4113 22.5858L43.4113 30.5858C44.1923 31.3668 44.1923 32.6332 43.4113 33.4142L35.4113 41.4142C34.6302 42.1953 33.3639 42.1953 32.5829 41.4142C31.8018 40.6332 31.8018 39.3668 32.5829 38.5858L37.1686 34H15.9971C9.36965 34 3.99707 28.6274 3.99707 22C3.99707 15.3726 9.36965 10 15.9971 10C22.6245 10 27.9971 15.3726 27.9971 22C27.9971 23.1046 27.1016 24 25.9971 24C24.8925 24 23.9971 23.1046 23.9971 22C23.9971 17.5817 20.4153 14 15.9971 14Z" fill="#646464"/>
</svg>
