<svg width="48" height="48" viewBox="0 0 48 48" fill="none" xmlns="http://www.w3.org/2000/svg">
<path d="M24 4C12.9543 4 4 12.9543 4 24C4 35.0457 12.9543 44 24 44C24.5969 44 25.1882 43.9738 25.7727 43.9224C26.873 43.8256 27.6865 42.8552 27.5898 41.7549C27.493 40.6546 26.5226 39.841 25.4223 39.9378C24.9541 39.9789 24.4798 40 24 40C15.1634 40 8 32.8366 8 24C8 15.1634 15.1634 8 24 8C32.8366 8 40 15.1634 40 24C40 24.4378 39.9825 24.871 39.9481 25.2991C39.8598 26.4002 40.6808 27.3643 41.7818 27.4526C42.8828 27.5409 43.847 26.72 43.9353 25.6189C43.9782 25.0846 44 24.5446 44 24C44 12.9543 35.0457 4 24 4Z" fill="#646464"/>
<path d="M27.6322 13.0995C26.2026 10 21.7974 10 20.3678 13.0995L18.7029 16.709L14.7556 17.177C11.366 17.5789 10.0047 21.7685 12.5107 24.0859L15.4291 26.7847L14.6544 30.6835C13.9892 34.0314 17.553 36.6206 20.5315 34.9534L24 33.0119L25.0804 33.6166C26.0442 34.1562 27.2629 33.8122 27.8025 32.8483C28.342 31.8845 27.998 30.6658 27.0342 30.1262L25.9538 29.5215C24.7399 28.842 23.2601 28.842 22.0463 29.5215L18.5777 31.463L19.3524 27.5643C19.6235 26.1998 19.1662 24.7925 18.1449 23.848L15.2265 21.1492L19.1739 20.6812C20.5553 20.5174 21.7525 19.6476 22.3351 18.3844L24 14.7749L25.6649 18.3844C26.2476 19.6476 27.4447 20.5174 28.8262 20.6812L32.7735 21.1492L29.0332 24.6081C28.2223 25.3581 28.1728 26.6234 28.9228 27.4344C29.6727 28.2453 30.9381 28.2948 31.749 27.5448L35.4893 24.0859C37.9953 21.7685 36.634 17.5789 33.2445 17.177L29.2971 16.709L27.6322 13.0995Z" fill="#646464"/>
<path d="M32.2051 40.6871C31.346 41.5463 31.346 42.9392 32.2051 43.7984C33.0643 44.6575 34.4572 44.6575 35.3164 43.7984L38.0034 41.1113L40.6903 43.7982C41.5495 44.6574 42.9424 44.6574 43.8016 43.7982C44.6608 42.9391 44.6608 41.5461 43.8016 40.687L41.1147 38.0001L43.8017 35.3131C44.6608 34.4539 44.6608 33.061 43.8017 32.2018C42.9425 31.3427 41.5495 31.3427 40.6904 32.2018L38.0034 34.8888L35.3163 32.2017C34.4572 31.3425 33.0642 31.3425 32.205 32.2017C31.3459 33.0608 31.3459 34.4538 32.205 35.313L34.8921 38.0001L32.2051 40.6871Z" fill="#646464"/>
</svg>
