<svg width="48" height="48" viewBox="0 0 48 48" fill="none" xmlns="http://www.w3.org/2000/svg">
<path fill-rule="evenodd" clip-rule="evenodd" d="M31 18C27.72 18 24.2 17.88 22.54 17.76C20.24 17.6 18.44 15.94 18.16 13.74C18.1322 13.4957 18.1075 13.2482 18.0864 12.9981C18.0577 12.9994 18.0289 13 18 13H14C12.9 13 12 13.9 12 15V20C12 21.1 12.9 22 14 22H34C37.3 22 40 24.7 40 28V33C40 36.3 37.3 39 34 39H30C29.9705 39 29.9411 38.9994 29.9119 38.9981C29.8911 39.2414 29.867 39.4821 29.84 39.72C29.58 41.94 27.76 43.6 25.46 43.74C23.8 43.86 20.28 43.98 17 43.98V44C13.74 44 10.2 43.88 8.54 43.76C6.24 43.6 4.44 41.94 4.16 39.72C4.06 38.86 4 37.92 4 36.98C4 36.04 4.06 35.12 4.16 34.24C4.44 32.02 6.24 30.36 8.54 30.22C10.2 30.1 13.72 29.98 17 29.98C20.28 29.98 23.8 30.1 25.46 30.22C27.76 30.38 29.56 32.04 29.84 34.24C29.8685 34.4908 29.8938 34.7449 29.9153 35.0018C29.9434 35.0006 29.9716 35 30 35H34C35.1 35 36 34.1 36 33V28C36 26.9 35.1 26 34 26H14C10.7 26 8 23.3 8 20V15C8 11.7 10.7 9 14 9H18C18.0289 9 18.0577 9.00063 18.0864 9.00186C18.1075 8.75178 18.1322 8.50435 18.16 8.26C18.44 6.06 20.24 4.4 22.54 4.24C24.2 4.12 27.72 4 31 4C34.28 4 37.8 4.12 39.46 4.24C41.76 4.4 43.56 6.06 43.84 8.26C43.94 9.14 44 10.06 44 11C44 11.94 43.94 12.84 43.84 13.74C43.58 15.96 41.76 17.6 39.46 17.76C37.8 17.88 34.28 18 31 18ZM31 8C27.82 8 24.4 8.12 22.82 8.22C22.54 8.24 22.18 8.38 22.14 8.74C22.06 9.46 22 10.22 22 10.98C22 11.74 22.04 12.52 22.14 13.22C22.18 13.58 22.54 13.72 22.82 13.74C24.4 13.84 27.82 13.96 31 13.96C34.18 13.96 37.6 13.84 39.18 13.74C39.46 13.72 39.82 13.58 39.86 13.22C39.94 12.5 40 11.74 40 10.98C40 10.22 39.96 9.46 39.86 8.74C39.82 8.38 39.46 8.24 39.18 8.22C37.6 8.12 34.18 8 31 8ZM8.82 34.22C10.42 34.12 13.82 34 17 34C20.18 34 23.58 34.1 25.18 34.22C25.46 34.24 25.82 34.38 25.86 34.74C25.96 35.46 26 36.22 26 36.98C26 37.74 25.94 38.5 25.86 39.22C25.82 39.58 25.48 39.74 25.18 39.74C23.58 39.84 20.18 39.96 17 39.96C13.82 39.96 10.42 39.86 8.82 39.74C8.54 39.72 8.18 39.58 8.14 39.22C8.04 38.52 8 37.74 8 36.98C8 36.22 8.06 35.46 8.14 34.74C8.18 34.38 8.52 34.22 8.82 34.22Z" fill="#646464"/>
</svg>
