<svg width="48" height="48" viewBox="0 0 48 48" fill="none" xmlns="http://www.w3.org/2000/svg">
<path fill-rule="evenodd" clip-rule="evenodd" d="M26 20C22.66 20 20.1 19.88 18.54 19.76C16.24 19.6 14.44 17.94 14.16 15.74C14.1322 15.4957 14.1076 15.2482 14.0864 14.9981C14.0577 14.9994 14.0289 15 14 15H10C8.9 15 8 15.9 8 17V29C8 31.2 9.8 33 12 33H20.0865C20.1077 32.7505 20.1323 32.5037 20.16 32.26C20.44 30.04 22.24 28.38 24.54 28.24C26.1 28.14 28.66 28 32 28C35.34 28 37.9 28.12 39.46 28.24C41.76 28.4 43.56 30.06 43.84 32.28C43.94 33.16 44 34.08 44 35.02C44 35.96 43.94 36.88 43.84 37.76C43.58 39.98 41.76 41.64 39.46 41.78C37.9 41.88 35.34 42.02 32 42.02V42C28.68 42 26.1 41.88 24.54 41.76C22.24 41.6 20.44 39.94 20.16 37.74C20.1323 37.4963 20.1077 37.2495 20.0865 37H12C7.58 37 4 33.42 4 29V17C4 13.7 6.7 11 10 11H14C14.0289 11 14.0577 11.0006 14.0864 11.0019C14.1076 10.7518 14.1322 10.5043 14.16 10.26C14.44 8.06 16.24 6.4 18.54 6.24C20.1 6.14 22.66 6 26 6C29.34 6 31.9 6.12 33.46 6.24C35.76 6.4 37.56 8.06 37.84 10.26C37.94 11.14 38 12.06 38 13C38 13.94 37.94 14.84 37.84 15.74C37.58 17.96 35.76 19.6 33.46 19.76C31.9 19.86 29.34 20 26 20ZM26 10C22.78 10 20.32 10.12 18.82 10.22C18.54 10.24 18.18 10.38 18.14 10.74C18.06 11.46 18 12.22 18 12.98C18 13.74 18.04 14.52 18.14 15.22C18.18 15.58 18.54 15.72 18.82 15.74C20.32 15.84 22.78 15.96 26 15.96C29.22 15.96 31.68 15.84 33.18 15.74C33.46 15.72 33.82 15.58 33.86 15.22C33.94 14.5 34 13.74 34 12.98C34 12.22 33.96 11.46 33.86 10.74C33.82 10.38 33.46 10.24 33.18 10.22C31.68 10.12 29.22 10 26 10ZM24.82 32.22C26.32 32.12 28.78 32 32 32C35.2 32 37.68 32.12 39.18 32.22C39.46 32.24 39.82 32.38 39.86 32.74C39.96 33.46 40 34.22 40 34.98C40 35.74 39.94 36.5 39.86 37.22C39.82 37.58 39.48 37.74 39.18 37.74C37.68 37.84 35.2 37.96 32 37.96C28.8 37.96 26.32 37.84 24.82 37.74C24.54 37.72 24.18 37.58 24.14 37.22C24.04 36.52 24 35.74 24 34.98C24 34.22 24.06 33.46 24.14 32.74C24.18 32.38 24.52 32.22 24.82 32.22Z" fill="#646464"/>
</svg>
