<svg width="48" height="48" viewBox="0 0 48 48" fill="none" xmlns="http://www.w3.org/2000/svg">
<path d="M33.74 11.16C34.3 10.6 35.06 10.28 35.86 10.28C36.66 10.28 37.42 10.6 37.98 11.16C38.54 11.72 38.86 12.48 38.86 13.28C38.86 14.08 38.54 14.84 37.98 15.4C37.42 15.96 36.66 16.28 35.86 16.28C35.06 16.28 34.3 15.96 33.74 15.4C33.18 14.84 32.86 14.08 32.86 13.28C32.86 12.48 33.18 11.72 33.74 11.16Z" fill="#646464"/>
<path fill-rule="evenodd" clip-rule="evenodd" d="M35.86 23.98C35.06 23.98 34.26 23.8 33.52 23.46C32.62 23.04 31.7 22.58 30.8 22.04C29.88 21.52 29.02 20.96 28.22 20.38C26.88 19.44 26.02 17.94 25.86 16.32C25.76 15.36 25.72 14.32 25.72 13.26C25.72 12.2 25.76 11.16 25.86 10.2C26.02 8.56003 26.88 7.08003 28.22 6.12003C29 5.56003 29.88 5.00003 30.8 4.46003C31.72 3.94003 32.64 3.46003 33.52 3.04003C35 2.36003 36.72 2.36003 38.22 3.04003C39.12 3.44003 40.02 3.92003 40.94 4.46003C41.86 4.98003 42.72 5.54003 43.52 6.12003C44.86 7.08003 45.72 8.56003 45.86 10.18C45.96 11.16 46 12.2 46 13.24C46 14.28 45.96 15.32 45.86 16.3C45.7 17.94 44.84 19.42 43.5 20.38C42.7 20.94 41.84 21.5 40.92 22.04C40.02 22.56 39.1 23.04 38.2 23.44C37.46 23.78 36.64 23.96 35.84 23.96L35.86 23.98ZM35.86 6.58003C35.62 6.58003 35.4 6.64003 35.18 6.74003C34.4 7.10003 33.6 7.52003 32.8 7.98003C31.98 8.44003 31.22 8.94003 30.54 9.42003C30.14 9.70003 29.9 10.12 29.86 10.62C29.78 11.46 29.74 12.36 29.74 13.3C29.74 14.24 29.78 15.14 29.86 15.98C29.9 16.46 30.16 16.88 30.54 17.16C31.24 17.66 32 18.14 32.8 18.6C33.6 19.06 34.4 19.48 35.18 19.84C35.62 20.04 36.1 20.04 36.54 19.84C37.32 19.48 38.12 19.06 38.92 18.6C39.72 18.14 40.48 17.64 41.18 17.16C41.58 16.88 41.82 16.46 41.86 15.96C41.94 15.1 41.98 14.2 41.98 13.28C41.98 12.36 41.94 11.44 41.86 10.6C41.82 10.12 41.56 9.70003 41.18 9.42003C40.48 8.92003 39.72 8.44003 38.92 7.98003C38.12 7.52003 37.32 7.10003 36.54 6.74003C36.32 6.64003 36.08 6.58003 35.86 6.58003Z" fill="#646464"/>
<path d="M4 24.0001C4 35.0201 12.98 44 24 44H24.02C34.16 44 42.7 36.4001 43.88 26.3401C44 25.2401 43.22 24.2401 42.12 24.1201C41.04 24.0001 40.02 24.7801 39.9 25.8801C38.94 33.9401 32.12 40 24 40C15.18 40 8 32.8201 8 24.0001C8 15.7801 14.16 8.94005 22.32 8.08005C23.42 7.96005 24.22 6.98005 24.1 5.88005C23.98 4.78005 23 3.98005 21.9 4.10005C11.7 5.18005 4 13.7201 4 24.0001Z" fill="#646464"/>
<path d="M14 24.0001C14 29.5201 18.48 34.0001 24 34.0001V34.0201C27.96 34.0201 31.56 31.6801 33.16 28.0601C33.6 27.0401 33.16 25.8601 32.14 25.4201C31.12 24.9801 29.94 25.4401 29.5 26.4401C28.54 28.6201 26.38 30.0201 24 30.0201C20.7 30.0201 18 27.3201 18 24.0201C18 21.2401 19.88 18.8401 22.58 18.1801C23.66 17.9201 24.32 16.8401 24.06 15.7601C23.8 14.6801 22.72 14.0201 21.64 14.2801C17.14 15.3801 14 19.3801 14 24.0001Z" fill="#646464"/>
</svg>
