<svg width="48" height="48" viewBox="0 0 48 48" fill="none" xmlns="http://www.w3.org/2000/svg">
<path fill-rule="evenodd" clip-rule="evenodd" d="M38.2481 6.01547C37.152 5.87847 36.1524 6.65592 36.0154 7.75196L35.5922 11.1381C32.3476 7.96139 27.9033 6.00003 23 6.00003C13.0589 6.00003 5 14.0589 5 24C5 33.5641 12.458 41.3847 21.8769 41.9655C22.2486 41.9884 22.6231 42 23 42C24.1046 42 25 41.1046 25 40C25 38.8955 24.1046 38 23 38C22.7052 38 22.4129 37.9909 22.1231 37.9731C14.8006 37.5215 9 31.4374 9 24C9 16.268 15.268 10 23 10C26.4806 10 29.6655 11.2695 32.116 13.374L29.2481 13.0155C28.152 12.8785 27.1524 13.6559 27.0154 14.752C26.8784 15.848 27.6559 16.8476 28.7519 16.9846L36.7519 17.9846C37.848 18.1216 38.8476 17.3441 38.9846 16.2481L39.9846 8.2481C40.1216 7.15206 39.3441 6.15248 38.2481 6.01547ZM42 25C42 23.8955 41.1046 23 40 23H32C31.0047 23 30.1609 23.7319 30.0201 24.7172L29.0201 31.7172C28.9381 32.2911 29.1092 32.8724 29.4891 33.3104C29.869 33.7484 30.4202 34 31 34H35C36.1046 34 37 34.8955 37 36C37 37.1046 36.1046 38 35 38H30C28.8954 38 28 38.8955 28 40C28 41.1046 28.8954 42 30 42H35C38.3137 42 41 39.3137 41 36C41 32.6863 38.3137 30 35 30H33.306L33.7346 27H40C41.1046 27 42 26.1046 42 25Z" fill="#646464"/>
</svg>
