<svg width="48" height="48" viewBox="0 0 48 48" fill="none" xmlns="http://www.w3.org/2000/svg">
<path fill-rule="evenodd" clip-rule="evenodd" d="M8.75193 6.01547C9.84797 5.87847 10.8476 6.65592 10.9846 7.75196L11.4078 11.1381C14.6524 7.96139 19.0967 6.00003 24 6.00003C33.9411 6.00003 42 14.0589 42 24C42 33.5641 34.542 41.3847 25.1231 41.9655C24.7514 41.9884 24.3769 42 24 42C22.8954 42 22 41.1046 22 40C22 38.8955 22.8954 38 24 38C24.2948 38 24.5871 37.9909 24.8769 37.9731C32.1994 37.5215 38 31.4374 38 24C38 16.268 31.732 10 24 10C20.5194 10 17.3345 11.2695 14.884 13.374L17.7519 13.0155C18.848 12.8785 19.8476 13.6559 19.9846 14.752C20.1216 15.848 19.3441 16.8476 18.2481 16.9846L10.2481 17.9846C9.15203 18.1216 8.15245 17.3441 8.01544 16.2481L7.01544 8.2481C6.87844 7.15206 7.65589 6.15248 8.75193 6.01547ZM7.0201 24.7172C7.16086 23.7319 8.0047 23 9 23H17C18.1046 23 19 23.8955 19 25C19 26.1046 18.1046 27 17 27H10.7346L10.306 30H12C15.3137 30 18 32.6863 18 36C18 39.3137 15.3137 42 12 42H7C5.89543 42 5 41.1046 5 40C5 38.8955 5.89543 38 7 38H12C13.1046 38 14 37.1046 14 36C14 34.8955 13.1046 34 12 34H8C7.42022 34 6.86897 33.7484 6.48909 33.3104C6.10922 32.8724 5.93811 32.2911 6.0201 31.7172L7.0201 24.7172Z" fill="#646464"/>
</svg>
