<svg width="48" height="48" viewBox="0 0 48 48" fill="none" xmlns="http://www.w3.org/2000/svg">
<path d="M8.31424 34.6915C8.49776 37.42 10.58 39.5022 13.3085 39.6858C15.7726 39.8517 19.2928 40 24 40C28.7072 40 32.2274 39.8517 34.6915 39.6858C37.42 39.5022 39.5022 37.42 39.6858 34.6915C39.8517 32.2274 40 28.7072 40 24C40 19.2928 39.8517 15.7726 39.6858 13.3085C39.5022 10.58 37.42 8.49776 34.6915 8.31424C32.2274 8.14832 28.7072 8 24 8C19.2928 8 15.7726 8.14832 13.3085 8.31424C10.58 8.49776 8.49776 10.58 8.31424 13.3085C8.14832 15.7726 8 19.2928 8 24C8 28.7072 8.14832 32.2274 8.31424 34.6915Z" fill="#646464"/>
</svg>
