<svg width="48" height="48" viewBox="0 0 48 48" fill="none" xmlns="http://www.w3.org/2000/svg">
<path fill-rule="evenodd" clip-rule="evenodd" d="M24 8C15.1634 8 8 15.1634 8 24C8 32.8366 15.1634 40 24 40C32.8366 40 40 32.8366 40 24C40 15.1634 32.8366 8 24 8ZM4 24C4 12.9543 12.9543 4 24 4C35.0457 4 44 12.9543 44 24C44 35.0457 35.0457 44 24 44C12.9543 44 4 35.0457 4 24Z" fill="#646464"/>
<path d="M16.1571 29.3459C16.2489 30.7101 17.29 31.7512 18.6542 31.843C19.8863 31.926 21.6464 32.0001 24 32.0001C26.3536 32.0001 28.1137 31.926 29.3458 31.843C30.71 31.7512 31.7511 30.7101 31.8429 29.3459C31.9258 28.1138 32 26.3537 32 24.0001C32 21.6465 31.9258 19.8864 31.8429 18.6544C31.7511 17.2901 30.71 16.249 29.3458 16.1572C28.1137 16.0743 26.3536 16.0001 24 16.0001C21.6464 16.0001 19.8863 16.0743 18.6542 16.1572C17.29 16.249 16.2489 17.2901 16.1571 18.6544C16.0742 19.8864 16 21.6465 16 24.0001C16 26.3537 16.0742 28.1138 16.1571 29.3459Z" fill="#646464"/>
</svg>
