<svg width="48" height="48" viewBox="0 0 48 48" fill="none" xmlns="http://www.w3.org/2000/svg">
<path d="M40 4C41.1046 4 42 4.89543 42 6V42C42 43.1046 41.1046 44 40 44C38.8954 44 38 43.1046 38 42V6C38 4.89543 38.8954 4 40 4Z" fill="#646464"/>
<path d="M18.5858 8.58579C19.3668 7.80474 20.6332 7.80474 21.4142 8.58579L35.4142 22.5858C36.1953 23.3668 36.1953 24.6332 35.4142 25.4142L21.4142 39.4142C20.6332 40.1953 19.3668 40.1953 18.5858 39.4142C17.8047 38.6332 17.8047 37.3668 18.5858 36.5858L29.1716 26H6C4.89543 26 4 25.1046 4 24C4 22.8954 4.89543 22 6 22H29.1716L18.5858 11.4142C17.8047 10.6332 17.8047 9.36684 18.5858 8.58579Z" fill="#646464"/>
</svg>
