<svg width="48" height="48" viewBox="0 0 48 48" fill="none" xmlns="http://www.w3.org/2000/svg">
<path d="M22.9055 31.0252H25.0945V24.9748H30.6003V22.8235H25.0945V16.7731H22.9055V22.8235H17.466V24.9748H22.9055V31.0252Z" fill="#E8762D"/>
<path d="M12.7562 39.7647H14.6136V34.3866H19.5224V32.7059H14.6136V27.2605H12.7562V32.7059H7.84743V34.3866H12.7562V39.7647Z" fill="#C72037"/>
<path d="M33.3864 20.3361H35.2438V14.958H40.2189V13.3445H35.2438V7.89916H33.3864V13.3445H28.4776V14.958H33.3864V20.3361Z" fill="#5B879B"/>
<path d="M23.2372 44H24.8292V40.1681H28.2123V38.7563H24.8292V34.9244H23.2372V38.7563H19.9204V40.1681H23.2372V44Z" fill="#5C6692"/>
<path d="M12.8226 20.3361H14.5473V14.8908H19.5224V13.3445H14.5473V7.89916H12.8226V13.3445H7.84743V14.8908H12.8226V20.3361Z" fill="#EB9129"/>
<path d="M39.0249 28.4034H40.6169V24.6387H44V23.1597H40.6169V19.395H39.0249V23.1597H35.7081V24.6387H39.0249V28.4034Z" fill="#5C6692"/>
<path fill-rule="evenodd" clip-rule="evenodd" d="M33.3864 39.7647H35.2438V34.3866H40.2189V32.7059H35.2438V27.2605H33.3864V32.7059H28.4776V34.3866H33.3864V39.7647Z" fill="#1F457E"/>
<path d="M27.9469 8.84034V7.69748H24.6302V4H23.4362V7.69748H20.1194V8.84034H23.4362V12.5378H24.6302V8.84034H27.9469ZM7.31675 28.1345H8.51078V24.437H11.8275V23.2941H8.51078V19.6639H7.31675V23.2941H4V24.5042L7.31675 24.437V28.1345Z" fill="#7199A6"/>
</svg>
