<svg width="48" height="48" viewBox="0 0 48 48" fill="none" xmlns="http://www.w3.org/2000/svg">
<path fill-rule="evenodd" clip-rule="evenodd" d="M28.3457 8.00377C27.3476 7.95771 26.3714 8.29851 25.6176 8.95637C22.5255 11.6626 19.5288 14.476 16.633 17.3914L16.6244 17.4001C13.8856 20.1241 11.2343 22.9348 8.67482 25.8279C7.95819 26.6461 7.88998 27.6875 8.38716 28.4666C9.82976 30.6898 11.4782 32.7725 13.3108 34.687L13.3225 34.6993C15.1641 36.6561 17.2617 38.355 19.5584 39.7498C20.2374 40.1522 21.1615 40.0868 21.9325 39.413C25.5474 36.2264 29.035 32.8984 32.3873 29.4367L32.3964 29.4272C34.6584 27.1219 36.853 24.7514 38.9773 22.3187C39.6349 21.5655 39.9762 20.5875 39.9303 19.5887C39.8245 17.3919 39.5608 13.9299 38.8955 10.4393C38.7592 9.72578 38.2085 9.17471 37.4953 9.03858M28.3457 8.00377C30.5447 8.10956 34.0068 8.37329 37.4953 9.03858L28.3457 8.00377ZM22.9867 5.9433C24.517 4.60748 26.5026 3.91373 28.5329 4.00815L28.5361 4.0083C30.8291 4.11856 34.4982 4.39489 38.2447 5.1094C40.5714 5.55332 42.3808 7.36625 42.8245 9.6887C43.5389 13.4371 43.8154 17.1068 43.9257 19.3978L43.9259 19.4011C44.0202 21.4308 43.3269 23.4185 41.9907 24.9492C39.8167 27.4387 37.5708 29.8649 35.2561 32.2241C31.8311 35.7607 28.2678 39.1608 24.5745 42.4163L24.5695 42.4207C22.6748 44.0797 19.8706 44.5951 17.5027 43.1812L17.4903 43.1738C14.8847 41.5924 12.5048 39.6659 10.4154 37.4468C8.41022 35.3512 6.60652 33.0717 5.0281 30.6384L5.0224 30.6296C3.47072 28.2098 3.88686 25.2186 5.67107 23.1864L5.67602 23.1808C8.29149 20.2243 11.0006 17.3519 13.7993 14.5682C16.7599 11.5878 19.8236 8.7116 22.9849 5.94496L22.9867 5.9433Z" fill="#646464"/>
<path fill-rule="evenodd" clip-rule="evenodd" d="M32.1521 15.868V15.864L32.1501 15.858C32.1491 15.8564 32.1477 15.8551 32.1461 15.854L32.1401 15.85C32.1381 15.8498 32.1361 15.8498 32.1341 15.85H32.1261L32.1201 15.854L32.1181 15.858L32.1161 15.864V15.874L32.1201 15.88L32.1261 15.882C32.1287 15.883 32.1314 15.8837 32.1341 15.884H32.1401L32.1461 15.88L32.1501 15.874L32.1521 15.868ZM28.6421 15.868C28.6421 14.9419 29.01 14.0537 29.6649 13.3988C30.3198 12.7439 31.208 12.376 32.1341 12.376C33.0602 12.376 33.9484 12.7439 34.6033 13.3988C35.2582 14.0537 35.6261 14.9419 35.6261 15.868C35.6261 16.7941 35.2582 17.6823 34.6033 18.3372C33.9484 18.9921 33.0602 19.36 32.1341 19.36C31.208 19.36 30.3198 18.9921 29.6649 18.3372C29.01 17.6823 28.6421 16.7941 28.6421 15.868Z" fill="#646464"/>
</svg>
