<svg width="48" height="48" viewBox="0 0 48 48" fill="none" xmlns="http://www.w3.org/2000/svg">
<path d="M24 3.5C25.1046 3.5 26 4.39543 26 5.5V42.5C26 43.6046 25.1046 44.5 24 44.5C22.8954 44.5 22 43.6046 22 42.5V5.5C22 4.39543 22.8954 3.5 24 3.5Z" fill="#646464"/>
<path d="M16 12C17.1046 12 18 12.8954 18 14V34C18 35.1046 17.1046 36 16 36C14.8954 36 14 35.1046 14 34V14C14 12.8954 14.8954 12 16 12Z" fill="#646464"/>
<path d="M32 12C33.1046 12 34 12.8954 34 14V34C34 35.1046 33.1046 36 32 36C30.8954 36 30 35.1046 30 34V14C30 12.8954 30.8954 12 32 12Z" fill="#646464"/>
<path d="M8 20C9.10457 20 10 20.8954 10 22V26C10 27.1046 9.10457 28 8 28C6.89543 28 6 27.1046 6 26V22C6 20.8954 6.89543 20 8 20Z" fill="#646464"/>
<path d="M40 20C41.1046 20 42 20.8954 42 22V26C42 27.1046 41.1046 28 40 28C38.8954 28 38 27.1046 38 26V22C38 20.8954 38.8954 20 40 20Z" fill="#646464"/>
</svg>
