<svg width="48" height="48" viewBox="0 0 48 48" fill="none" xmlns="http://www.w3.org/2000/svg">
<path d="M28 24C28 26.2091 26.2091 28 24 28C21.7909 28 20 26.2091 20 24C20 21.7909 21.7909 20 24 20C26.2091 20 28 21.7909 28 24Z" fill="#646464"/>
<path fill-rule="evenodd" clip-rule="evenodd" d="M41.8902 22.0069C40.9669 13.6747 34.3253 7.03311 25.9931 6.10979C25.98 4.93725 25.95 4.10491 25.92 3.52C25.88 2.64 25.28 2 24.42 2H23.58C22.72 2.02 22.12 2.64 22.08 3.52C22.05 4.11943 22.0201 4.94343 22.0069 6.10979C13.6709 7.03351 7.0271 13.6807 6.10854 22.0182C4.97744 22.0336 3.97261 22.0568 3.52 22.08C2.64 22.12 2 22.72 2 23.58V24.42C2.02 25.28 2.64 25.88 3.52 25.92C3.98337 25.9432 4.98354 25.9663 6.10853 25.9817C7.02747 34.323 13.6769 40.9725 22.0182 41.8915C22.0336 43.0226 22.0568 44.0274 22.08 44.48C22.12 45.36 22.72 46 23.58 46H24.42C25.28 45.98 25.88 45.36 25.92 44.48C25.9432 44.0166 25.9663 43.0165 25.9817 41.8915C34.3193 40.9729 40.9665 34.3291 41.8902 25.9931C43.0627 25.98 43.8951 25.95 44.48 25.92C45.36 25.88 46 25.28 46 24.42V23.58C45.98 22.72 45.36 22.12 44.48 22.08C43.8806 22.05 43.0566 22.0201 41.8902 22.0069ZM22.08 12.48C22.12 13.36 22.72 14 23.58 14H24.42C25.28 13.98 25.88 13.36 25.92 12.48C25.9415 12.051 25.9629 11.1617 25.9782 10.1393C32.1183 11.0113 36.9886 15.8816 37.8607 22.0217C36.8323 22.037 35.9393 22.0585 35.52 22.08C34.64 22.12 34 22.72 34 23.58V24.42C34.02 25.28 34.64 25.88 35.52 25.92C35.949 25.9415 36.8383 25.9629 37.8607 25.9782C36.9892 32.1144 32.1246 36.9824 25.99 37.859C25.9756 36.8173 25.9478 36.0623 25.92 35.52C25.88 34.64 25.28 34 24.42 34H23.58C22.72 34.02 22.12 34.64 22.08 35.52C22.0522 36.0755 22.0244 36.824 22.0101 37.859C15.8794 36.983 11.017 32.1207 10.141 25.99C11.1827 25.9756 11.9377 25.9478 12.48 25.92C13.36 25.88 14 25.28 14 24.42V23.58C13.98 22.72 13.36 22.12 12.48 22.08C11.9245 22.0522 11.176 22.0244 10.141 22.0101C11.0175 15.8755 15.8855 11.0108 22.0217 10.1393C22.037 11.1677 22.0585 12.0607 22.08 12.48Z" fill="#646464"/>
</svg>
