<svg width="48" height="48" viewBox="0 0 48 48" fill="none" xmlns="http://www.w3.org/2000/svg">
<path fill-rule="evenodd" clip-rule="evenodd" d="M24.1676 8C17.4682 8 12.08 13.3571 12.08 19.913C12.08 26.469 17.4682 31.8261 24.1676 31.8261C29.9358 31.8261 34.7411 27.8486 35.9569 22.557C36.2042 21.4805 37.2774 20.8083 38.3539 21.0556C39.4305 21.303 40.1026 22.3762 39.8553 23.4527C38.224 30.5528 31.8082 35.8261 24.1676 35.8261C15.3062 35.8261 8.08 28.725 8.08 19.913C8.08 11.1011 15.3062 4 24.1676 4C26.0563 4 27.8712 4.34353 29.5554 4.9645C30.5917 5.34664 31.1221 6.49655 30.74 7.53292C30.3578 8.56928 29.2079 9.09964 28.1715 8.71751C26.9151 8.25421 25.5679 8 24.1676 8ZM39.3203 9.22348C40.1014 10.0045 40.1014 11.2709 39.3203 12.0519L25.4073 25.965C24.6262 26.746 23.3599 26.746 22.5789 25.965L17.9412 21.3273C17.1601 20.5462 17.1601 19.2799 17.9412 18.4988C18.7222 17.7178 19.9886 17.7178 20.7696 18.4988L23.9931 21.7223L36.4919 9.22348C37.2729 8.44243 38.5393 8.44243 39.3203 9.22348ZM8.21997 40C7.1154 40 6.21997 40.8955 6.21997 42C6.21997 43.1046 7.1154 44 8.21997 44H39.7755C40.8801 44 41.7755 43.1046 41.7755 42C41.7755 40.8955 40.8801 40 39.7755 40H8.21997Z" fill="#646464"/>
</svg>
