<svg width="48" height="48" viewBox="0 0 48 48" fill="none" xmlns="http://www.w3.org/2000/svg">
<path fill-rule="evenodd" clip-rule="evenodd" d="M34.18 21.64C32.68 21.64 31.36 21.58 30.26 21.44C28.14 21.18 26.56 19.46 26.44 17.26C26.4 16.44 26.36 15.32 26.36 13.8C26.36 12.28 26.4 11.16 26.44 10.34C26.56 8.13997 28.14 6.41997 30.26 6.15997C32.44 5.89997 35.92 5.89997 38.1 6.15997C40.22 6.41997 41.8 8.13997 41.92 10.34C41.96 11.16 42 12.28 42 13.78C42 15.28 41.96 16.42 41.92 17.24C41.8 19.44 40.22 21.16 38.1 21.42C37.02 21.56 35.7 21.62 34.18 21.62V21.64ZM34.18 9.99997C32.84 9.99997 31.68 10.06 30.74 10.16C30.64 10.16 30.44 10.2 30.42 10.58C30.38 11.34 30.34 12.38 30.34 13.8C30.34 15.22 30.38 16.26 30.42 17.02C30.4391 17.4023 30.6227 17.4375 30.7262 17.4573L30.74 17.46C32.6 17.68 35.76 17.68 37.62 17.46C37.72 17.46 37.92 17.42 37.94 17.04C37.98 16.28 38.02 15.24 38.02 13.82C38.02 12.4 37.98 11.36 37.94 10.6C37.9209 10.2176 37.7373 10.1825 37.6338 10.1626L37.62 10.16C36.68 10.04 35.54 9.99997 34.18 9.99997ZM9.9 21.44C11 21.58 12.32 21.64 13.82 21.64C15.34 21.64 16.64 21.58 17.74 21.44C19.86 21.18 21.44 19.46 21.56 17.26C21.6 16.46 21.64 15.32 21.64 13.82C21.64 12.32 21.6 11.2 21.56 10.38C21.44 8.18 19.86 6.46 17.74 6.2C15.56 5.94 12.1 5.94 9.9 6.2C7.78 6.46 6.2 8.18 6.08 10.4C6.04 11.2 6 12.34 6 13.84C6 15.34 6.04 16.46 6.08 17.28C6.2 19.48 7.78 21.18 9.9 21.44ZM10.38 10.16C11.32 10.06 12.48 10 13.82 10C15.18 10 16.32 10.04 17.26 10.16C17.36 10.16 17.56 10.18 17.58 10.58C17.62 11.34 17.66 12.38 17.66 13.8C17.66 15.22 17.62 16.26 17.58 17.02C17.56 17.4 17.36 17.44 17.26 17.44C15.38 17.66 12.24 17.66 10.38 17.44C10.28 17.44 10.08 17.42 10.06 17.02C10.02 16.26 9.98 15.22 9.98 13.8C9.98 12.38 10.02 11.34 10.06 10.58C10.08 10.2 10.28 10.16 10.38 10.16ZM9.9 41.56C11 41.7 12.32 41.76 13.82 41.76C15.32 41.76 16.64 41.7 17.74 41.56C19.86 41.3 21.44 39.58 21.56 37.38C21.6 36.58 21.64 35.44 21.64 33.94C21.64 32.44 21.6 31.32 21.56 30.5C21.44 28.28 19.86 26.58 17.74 26.32C15.56 26.06 12.06 26.06 9.9 26.32C7.78 26.58 6.2 28.3 6.08 30.5C6.04 31.3 6 32.44 6 33.94C6 35.44 6.04 36.56 6.08 37.38C6.2 39.58 7.76 41.3 9.9 41.56ZM10.38 30.26C11.32 30.16 12.46 30.1 13.82 30.1V30.08C15.18 30.08 16.32 30.14 17.26 30.26C17.38 30.26 17.56 30.28 17.58 30.68C17.62 31.44 17.66 32.48 17.66 33.9C17.66 35.32 17.62 36.36 17.58 37.12C17.54 37.5 17.36 37.54 17.26 37.54C15.38 37.76 12.26 37.76 10.38 37.54C10.28 37.54 10.08 37.52 10.06 37.12C10.02 36.36 9.98 35.32 9.98 33.9C9.98 32.48 10.02 31.44 10.06 30.68C10.08 30.3 10.28 30.26 10.38 30.26ZM30.26 41.56C31.36 41.7 32.68 41.76 34.18 41.76L34.2 41.74C35.7 41.74 37.02 41.68 38.12 41.54C40.24 41.28 41.82 39.56 41.94 37.36C41.98 36.54 42.02 35.42 42.02 33.9C42.02 32.38 41.98 31.28 41.94 30.46C41.82 28.24 40.24 26.54 38.12 26.28C35.94 26.02 32.44 26.02 30.28 26.28C28.14 26.54 26.56 28.26 26.44 30.46C26.4 31.28 26.36 32.4 26.36 33.92C26.36 35.44 26.4 36.56 26.44 37.38C26.56 39.58 28.12 41.3 30.26 41.56ZM30.74 30.26C31.68 30.16 32.82 30.1 34.18 30.1V30.08C35.54 30.08 36.68 30.14 37.62 30.26C37.72 30.26 37.92 30.28 37.94 30.68C37.98 31.44 38.02 32.48 38.02 33.9C38.02 35.32 37.98 36.36 37.94 37.12C37.9 37.5 37.72 37.54 37.62 37.54C35.74 37.76 32.6 37.76 30.74 37.54C30.64 37.54 30.44 37.52 30.42 37.12C30.38 36.36 30.34 35.32 30.34 33.9C30.34 32.48 30.38 31.44 30.42 30.68C30.44 30.3 30.64 30.26 30.74 30.26Z" fill="#646464"/>
</svg>
