<svg width="48" height="48" viewBox="0 0 48 48" fill="none" xmlns="http://www.w3.org/2000/svg">
<path fill-rule="evenodd" clip-rule="evenodd" d="M30 16C30.6101 16 31.0522 16.2727 31.1992 16.3711C31.2151 16.3815 31.2297 16.3924 31.2441 16.4023C31.3939 16.5055 31.5203 16.6158 31.6152 16.7051C31.6429 16.7312 31.6688 16.7569 31.6934 16.7812C31.8715 16.9582 32.0538 17.1676 32.2266 17.3789C32.2559 17.4149 32.285 17.4515 32.3145 17.4883C32.6473 17.9036 33.04 18.4397 33.4727 19.0547C33.6533 19.3115 33.8427 19.5827 34.0371 19.8672C34.9283 21.1724 35.9779 22.7871 37.0645 24.5176L37.0664 24.5156C37.6926 25.5128 38.332 26.5497 38.9609 27.5898L39.4219 28.3613C40.5959 30.3217 41.7215 32.2728 42.6426 33.9727C42.815 34.2909 42.9795 34.601 43.1367 34.9004C43.5963 35.7756 43.9974 36.5834 44.3066 37.2754C44.3999 37.4839 44.4842 37.6831 44.5605 37.8711C44.7175 38.2577 44.8613 38.6506 44.9492 39.0137C44.9546 39.0357 44.9579 39.0581 44.9629 39.0801C45.0056 39.2681 45.0525 39.5245 45.0527 39.8086C45.0527 39.8438 45.0503 39.8796 45.0488 39.916C45.0473 39.9533 45.0456 39.9965 45.041 40.0449L45.0156 40.248C44.9878 40.4025 44.9352 40.5881 44.8457 40.7852C44.7511 40.993 44.6164 41.2117 44.4141 41.4141C44.0846 41.7435 43.7169 41.8957 43.5703 41.9531L43.2812 42.0508C43.1877 42.0783 43.0979 42.1016 43.0156 42.1211L42.4766 42.2266C42.2859 42.2582 42.0862 42.2872 41.8828 42.3125L41.2188 42.3848C40.9166 42.4143 40.5909 42.4391 40.2461 42.4648C39.7828 42.4992 39.2845 42.5333 38.7598 42.5605C36.3075 42.6879 33.1457 42.75 30 42.75C26.8543 42.75 23.6925 42.6879 21.2402 42.5605C20.0197 42.4971 18.9412 42.4149 18.1172 42.3125C17.7103 42.2619 17.3177 42.2 16.9844 42.1211C16.8195 42.082 16.6243 42.0294 16.4297 41.9531C16.2831 41.8957 15.9153 41.7435 15.5859 41.4141C15.1936 41.0217 15.0378 40.5721 14.9785 40.2168C14.9632 40.1248 14.9553 40.0456 14.9512 39.9844C14.9472 39.9264 14.9455 39.8697 14.9453 39.8145C14.9452 39.7583 14.9472 39.7108 14.9492 39.6738C14.9506 39.6439 14.9509 39.6145 14.9531 39.5859C14.9556 39.5544 14.9614 39.5233 14.9648 39.4922L15.0078 39.207C15.0193 39.1476 15.0326 39.0877 15.0469 39.0273C15.0706 38.9278 15.096 38.8346 15.1211 38.75C15.1281 38.7259 15.1352 38.7018 15.1426 38.6777C15.295 38.1839 15.5358 37.6061 15.8125 37.0059C15.958 36.6903 16.1187 36.3552 16.293 36.0059L16.6934 35.2207C17.2855 34.0787 18.0087 32.7711 18.7988 31.3926C19.2963 30.5244 19.8232 29.6278 20.3613 28.7246L21.0391 27.5898C21.6678 26.5499 22.3057 25.5126 22.9316 24.5156L22.9336 24.5176C24.0203 22.7868 25.0714 21.1725 25.9629 19.8672C26.1573 19.5827 26.3465 19.3115 26.5273 19.0547C26.9603 18.4399 27.3526 17.9036 27.6855 17.4883C27.7185 17.4471 27.7503 17.4054 27.7832 17.3652C27.9524 17.1584 28.1304 16.9547 28.3047 16.7812C28.3292 16.7568 28.3551 16.7312 28.3828 16.7051C28.4761 16.6172 28.6012 16.5102 28.748 16.4082C28.8135 16.3626 28.8958 16.3113 28.9922 16.2598C29.2099 16.144 29.5607 16 30 16ZM29.543 21.7148C28.4773 23.2525 27.1031 25.3717 25.6895 27.6523C24.3188 29.8635 22.9226 32.2082 21.7461 34.2969C20.8359 35.9128 20.076 37.3467 19.5605 38.4355C20.1014 38.4816 20.735 38.5274 21.4473 38.5645C23.8075 38.6871 26.8958 38.75 30 38.75C33.1042 38.75 36.1925 38.6871 38.5527 38.5645C39.265 38.5274 39.8986 38.4816 40.4395 38.4355C40.1487 37.8216 39.7748 37.0849 39.3301 36.2539C37.9983 33.7655 36.1345 30.5949 34.3105 27.6523C32.8969 25.3717 31.5227 23.2525 30.457 21.7148C30.2969 21.4838 30.1419 21.271 30 21.0723C29.8581 21.271 29.7031 21.4838 29.543 21.7148Z" fill="#646464"/>
<path d="M15.4453 9.13672C15.3858 10.0144 15.3405 10.9937 15.3086 12.0254C10.1083 12.3806 6 16.7096 6 22C6.00002 27.5228 10.4772 32 16 32C16.0548 32 16.1095 31.995 16.1641 31.9941C15.711 32.8095 15.2892 33.5849 14.918 34.3008C14.6386 34.8396 14.3731 35.3687 14.1348 35.8711C7.28498 34.9588 2.00002 29.0993 2 22C2 14.4229 8.01942 8.25402 15.5371 8.00977C15.5029 8.3733 15.4714 8.75134 15.4453 9.13672Z" fill="#646464"/>
<path d="M30 3.25C32.4025 3.24999 34.8253 3.3124 36.7285 3.44141C37.6745 3.50553 38.5328 3.58979 39.209 3.69727C39.5427 3.75033 39.8815 3.81595 40.1836 3.9043C40.3345 3.94846 40.5132 4.00967 40.6953 4.09375C40.8556 4.16781 41.1444 4.31629 41.4141 4.58594C41.6832 4.85509 41.8321 5.14226 41.9062 5.30273C41.9905 5.48511 42.0515 5.66525 42.0957 5.81641C42.1841 6.11855 42.2497 6.45723 42.3027 6.79102C42.4102 7.46723 42.4945 8.32554 42.5586 9.27148C42.6876 11.1747 42.75 13.5975 42.75 16C42.75 18.4025 42.6876 20.8253 42.5586 22.7285C42.4945 23.6745 42.4102 24.5328 42.3027 25.209C42.2497 25.5427 42.1841 25.8815 42.0957 26.1836C42.0515 26.3345 41.9903 26.5132 41.9062 26.6953C41.8322 26.8556 41.6837 27.1444 41.4141 27.4141C41.3654 27.4627 41.3129 27.5037 41.2637 27.5449C41.0666 27.2149 40.8707 26.8835 40.6719 26.5547C39.9567 25.3719 39.2237 24.1938 38.5137 23.0684C38.53 22.8755 38.5519 22.6725 38.5664 22.459C38.6874 20.6748 38.75 18.3472 38.75 16C38.75 13.6528 38.6874 11.3252 38.5664 9.54102C38.5132 8.75673 38.4453 8.1083 38.377 7.62109C37.89 7.55287 37.2421 7.48669 36.459 7.43359C34.6748 7.31264 32.3472 7.24999 30 7.25C27.6528 7.25001 25.3252 7.31263 23.541 7.43359C22.7548 7.4869 22.1048 7.55256 21.6172 7.62109C21.6129 7.65195 21.6079 7.68395 21.6035 7.7168C21.5097 8.42177 21.4303 9.4064 21.3711 10.582C21.2309 13.3657 21.2119 17.0126 21.3145 20.043C21.3531 21.1842 21.4084 22.2183 21.4785 23.0742C20.77 24.1973 20.0417 25.3746 19.3281 26.5547C19.1291 26.8838 18.9316 27.2146 18.7344 27.5449C18.6855 27.504 18.6342 27.4623 18.5859 27.4141C18.2301 27.0582 18.0673 26.6487 18.002 26.4746C17.9163 26.2463 17.8537 26.0098 17.8066 25.7969C17.7115 25.3667 17.6365 24.8485 17.5762 24.2969C17.4544 23.1825 17.3693 21.7415 17.3164 20.1797C17.2302 17.6339 17.2318 14.6702 17.3125 12.0879L17.3086 12.0859C17.34 11.0762 17.3838 10.1219 17.4414 9.27148C17.4696 8.85604 17.5029 8.45762 17.5391 8.08398C17.5676 7.78707 17.5995 7.50803 17.6328 7.25C17.6442 7.16245 17.6559 7.07713 17.668 6.99414C17.7138 6.6788 17.7688 6.37433 17.834 6.09961C17.8504 6.03005 17.8664 5.9614 17.8848 5.89453C17.9216 5.76056 17.9677 5.61502 18.0254 5.46875C18.0374 5.43848 18.0493 5.40769 18.0625 5.37695C18.1384 5.20025 18.2933 4.87855 18.5859 4.58594L18.7891 4.40625C18.9915 4.24703 19.1844 4.14933 19.3047 4.09375C19.4868 4.00968 19.6654 3.94846 19.8164 3.9043C20.1185 3.81596 20.4573 3.75032 20.791 3.69727C21.4672 3.5898 22.3255 3.50554 23.2715 3.44141C25.1747 3.3124 27.5975 3.25001 30 3.25Z" fill="#646464"/>
</svg>
