<svg width="48" height="48" viewBox="0 0 48 48" fill="none" xmlns="http://www.w3.org/2000/svg">
<path fill-rule="evenodd" clip-rule="evenodd" d="M23.4795 4.05394C19.6195 4.11794 15.1195 4.39994 14.0815 4.64594C13.2179 4.85911 12.4115 5.2592 11.7193 5.81799C11.0271 6.37678 10.466 7.08065 10.0755 7.87994C9.9028 8.23236 9.75899 8.59823 9.64552 8.97394C9.33752 10.1939 9.06152 15.7759 9.02752 21.4799C9.01152 24.1399 9.02352 24.4719 9.14952 24.7599C9.30172 25.1108 9.55323 25.4095 9.87306 25.6191C10.1929 25.8288 10.5671 25.9403 10.9495 25.9399C11.322 25.9449 11.6882 25.8443 12.0057 25.6496C12.3232 25.4549 12.5791 25.1741 12.7435 24.8399C12.9075 24.5319 12.9155 24.3819 12.9695 20.5999C13.0415 15.6619 13.2555 10.9899 13.4455 10.1699C13.6315 9.37194 14.1655 8.75594 14.8715 8.52394C15.6795 8.25994 20.9715 8.00194 25.6075 7.99994H28.6955L28.7475 9.08394C28.8155 10.4999 29.0155 12.8519 29.1295 13.5599C29.5275 16.0399 31.5495 18.2279 33.9995 18.8279C34.5435 18.9619 36.2695 19.1379 38.6395 19.3019L40.0395 19.3999L40.0335 24.9599C40.0295 30.3399 39.9495 33.2139 39.7215 36.4119C39.5855 38.3099 39.4215 38.7399 38.6395 39.2379C38.2075 39.5119 37.8875 39.5859 36.7195 39.6759C33.9895 39.8879 32.4955 39.9399 27.6795 39.9879L22.5195 40.0399L22.1475 40.2579C20.8015 41.0499 20.8395 42.9919 22.2135 43.6899C22.6175 43.8939 22.6795 43.9019 24.6535 43.9559C28.8175 44.0699 37.1135 43.7399 38.7995 43.3919C39.5655 43.2339 40.6995 42.6839 41.3355 42.1659C42.2955 41.3799 43.1015 40.1239 43.3915 38.9599C43.4635 38.6739 43.5735 37.7379 43.6375 36.8799C43.9015 33.2939 43.9555 31.2439 43.9575 24.7599C43.9595 17.0399 44.0115 17.5639 43.0675 15.6799C40.8395 11.2279 36.7895 7.18594 32.3295 4.95994C30.9275 4.25994 30.5235 4.15794 28.8795 4.07794C27.5655 4.01394 26.3535 4.00794 23.4795 4.05394ZM33.3055 10.2159C34.1915 10.8879 35.2235 11.8059 36.0035 12.6099C36.7415 13.3719 38.1595 15.0859 38.1595 15.2159C38.1595 15.3079 37.7295 15.2959 36.3195 15.1639C34.6775 15.0119 34.2855 14.8639 33.6535 14.1639C33.0875 13.5399 33.0295 13.2819 32.7675 10.3399C32.7415 10.0639 32.7415 9.83994 32.7675 9.83994C32.7915 9.83994 33.0335 10.0079 33.3055 10.2159ZM18.8215 25.8039C18.1615 25.9799 17.4855 26.3619 17.0175 26.8179C16.6035 27.2219 15.3535 28.8559 14.2035 30.4979L13.6575 31.2759L12.8015 30.4579C11.8835 29.5819 11.4155 29.2939 10.5615 29.0739C9.86752 28.8959 8.76552 28.9499 8.15552 29.1939C7.33152 29.5219 5.66752 30.9439 5.15752 31.7599C4.49952 32.8099 4.46352 34.3879 5.07152 35.5819C5.32752 36.0859 6.06152 36.9339 7.66952 38.5799C9.39152 40.3459 11.0275 41.8639 11.6155 42.2439C13.2375 43.2919 15.5355 43.1479 16.9875 41.9059C17.4055 41.5479 18.6535 40.0259 20.2515 37.9199C21.8595 35.8039 24.0395 32.7879 24.3055 32.3159C24.9455 31.1699 24.9635 29.6259 24.3515 28.5779C23.7235 27.5059 21.8895 26.1179 20.6815 25.8039C20.0708 25.6519 19.4322 25.6519 18.8215 25.8039ZM20.1715 29.9179C20.9175 30.4119 20.9255 30.3279 20.0295 31.5759C17.4675 35.1499 14.5875 38.8419 14.2735 38.9619C14.1295 39.0159 13.9975 39.0059 13.8155 38.9279C13.2775 38.6919 8.60952 34.0239 8.65952 33.7679C8.66952 33.7079 8.89152 33.4739 9.14952 33.2479L9.61952 32.8399L11.2295 34.4879C12.1155 35.3939 12.9615 36.1979 13.1095 36.2739C13.5255 36.4899 14.1715 36.5279 14.6075 36.3619C15.1535 36.1519 15.4595 35.8399 15.9995 34.9339C16.7495 33.6799 19.6055 29.6799 19.7535 29.6799C19.7855 29.6799 19.9735 29.7879 20.1715 29.9179Z" fill="#646464"/>
</svg>
