<svg width="48" height="48" viewBox="0 0 48 48" fill="none" xmlns="http://www.w3.org/2000/svg">
<path fill-rule="evenodd" clip-rule="evenodd" d="M37.8538 8.54469C35.0644 8.32353 30.5689 8.09082 24 8.09082C17.4311 8.09082 12.9356 8.32353 10.1462 8.54469C7.0832 8.78753 4.69479 11.1514 4.41689 14.2098C4.2076 16.5138 4 19.8454 4 23.9998C4 28.1543 4.2076 31.4861 4.41689 33.7899C4.69478 36.8483 7.08319 39.2123 10.1462 39.4551C12.9357 39.6763 17.4312 39.909 24 39.909C30.5688 39.909 35.0643 39.6763 37.8538 39.4551C40.9168 39.2123 43.3052 36.8483 43.5831 33.7899C43.7924 31.4861 44 28.1543 44 23.9998C44 19.8454 43.7924 16.5138 43.5831 14.2098C43.3052 11.1514 40.9168 8.78753 37.8538 8.54469ZM24 35.909C30.4752 35.909 34.8646 35.6796 37.5376 35.4676C38.6566 35.3789 39.4978 34.5477 39.5995 33.428C39.799 31.2322 40 28.0218 40 23.9998C40 19.978 39.799 16.7676 39.5995 14.5718C39.4978 13.4522 38.6567 12.6209 37.5376 12.5322C34.8647 12.3202 30.4752 12.0908 24 12.0908C17.5248 12.0908 13.1353 12.3202 10.4624 12.5322C9.34332 12.6209 8.5022 13.4522 8.40047 14.5718C8.201 16.7676 8 19.978 8 23.9998C8 28.0218 8.201 31.2322 8.40047 33.428C8.50221 34.5477 9.34338 35.3789 10.4624 35.4676C13.1354 35.6796 17.5248 35.909 24 35.909Z" fill="#646464"/>
</svg>
