<svg width="48" height="48" viewBox="0 0 48 48" fill="none" xmlns="http://www.w3.org/2000/svg">
<path d="M24.04 45.4C18.14 45.4 12.74 44.98 10.62 44.56C8.25998 44.12 6.57998 42.22 6.33998 39.76C6.17998 37.96 5.97998 34.66 5.97998 29.14C5.97998 24.78 6.09998 21.1 6.33998 18.52C6.55998 16.06 8.23998 14.16 10.62 13.72C11.58 13.54 13.7 13.36 15.84 13.2C15.8 12.88 15.78 12.54 15.78 12.22C15.8 7.7 19.5 4 24.04 4C28.58 4 32.28 7.7 32.28 12.24C32.28 12.58 32.28 12.9 32.22 13.22C34.36 13.36 36.48 13.56 37.46 13.74C39.82 14.2 41.5 16.08 41.74 18.54C41.82 19.48 41.92 20.72 41.98 22.38C42.02 23.36 41.54 24.3 40.7 24.9C39.78 25.54 38.58 25.66 37.58 25.24C37.12 25.04 36.62 24.94 36.1 24.94C34 24.94 32.3 26.64 32.3 28.72C32.3 30.8 34 32.5 36.1 32.5C36.62 32.5 37.12 32.4 37.6 32.2C38.6 31.76 39.8 31.88 40.72 32.52C41.56 33.1 42.06 34.04 42.02 35.02C41.96 36.88 41.86 38.48 41.74 39.78C41.52 42.24 39.84 44.14 37.46 44.58C35.36 44.98 29.94 45.42 24.06 45.42L24.04 45.4ZM24.04 8C21.7 8 19.8 9.9 19.8 12.24C19.8 12.92 19.96 13.56 20.26 14.16C20.56 14.76 20.54 15.48 20.22 16.06C19.88 16.64 19.28 17.02 18.6 17.06C14.9 17.28 12.26 17.5 11.38 17.68C10.54 17.84 10.38 18.6 10.34 18.92C10.18 20.64 9.99998 23.8 9.99998 29.16C9.99998 34.52 10.18 37.7 10.34 39.4C10.36 39.72 10.52 40.48 11.38 40.64C13.04 40.96 18.04 41.4 24.04 41.4C30.04 41.4 35.06 40.96 36.7 40.64C37.56 40.48 37.72 39.72 37.74 39.4C37.82 38.5 37.9 37.46 37.94 36.28C37.34 36.42 36.7 36.5 36.06 36.5C31.76 36.5 28.26 33 28.26 28.72C28.26 24.44 31.76 20.94 36.06 20.94C36.68 20.94 37.3 21.02 37.88 21.16C37.84 20.26 37.78 19.54 37.72 18.94C37.7 18.62 37.54 17.86 36.68 17.7C35.8 17.54 33.18 17.3 29.46 17.08C28.78 17.04 28.18 16.66 27.84 16.08C27.5 15.5 27.48 14.78 27.8 14.18C28.1 13.58 28.26 12.94 28.26 12.26C28.26 9.92 26.36 8.02 24.02 8.02L24.04 8Z" fill="#646464"/>
</svg>
