<svg width="48" height="48" viewBox="0 0 48 48" fill="none" xmlns="http://www.w3.org/2000/svg">
<path d="M7.63672 6H40.364C41.4686 6 42.364 6.89543 42.364 8C42.364 9.10457 41.4686 10 40.364 10H37.8093C37.9125 14.4977 36.2716 17.6374 34.4953 19.9466C33.8347 20.8055 33.0837 21.6293 32.4896 22.281C32.2353 22.56 32.0095 22.8077 31.8321 23.0128C31.4924 23.4055 31.2875 23.6806 31.1695 23.8871C31.1421 23.935 31.1234 23.9724 31.1108 24.0001C31.1243 24.0297 31.1446 24.0703 31.1751 24.123C31.2996 24.338 31.5137 24.6219 31.8656 25.0265C32.0414 25.2286 32.2575 25.4655 32.4989 25.7303C33.1167 26.4076 33.9004 27.2667 34.598 28.1891C35.2642 29.0702 35.0901 30.3245 34.2091 30.9907C33.3281 31.657 32.0738 31.4829 31.4076 30.6019C30.8235 29.8296 30.2636 29.2169 29.6963 28.5963C29.4163 28.29 29.1346 27.9817 28.8473 27.6514C28.4519 27.1966 28.0338 26.6809 27.7129 26.1263C27.3884 25.5654 27.0921 24.845 27.0921 24C27.0921 23.1688 27.3789 22.4585 27.6965 21.9026C28.0103 21.3535 28.4189 20.8445 28.8065 20.3963C29.1125 20.0425 29.4082 19.7194 29.7014 19.3989C30.235 18.8158 30.7604 18.2416 31.3248 17.5079C32.6845 15.7402 33.9089 13.4508 33.8077 10H14.1937C14.0927 13.4508 15.3173 15.7401 16.6772 17.5078C17.2416 18.2415 17.7671 18.8157 18.3006 19.3988C18.5939 19.7193 18.8897 20.0425 19.1956 20.3962C19.5833 20.8444 19.992 21.3534 20.3058 21.9026C20.6234 22.4584 20.9103 23.1688 20.9103 24C20.9103 24.8312 20.6234 25.5416 20.3058 26.0974C19.992 26.6466 19.5833 27.1556 19.1956 27.6038C18.8897 27.9576 18.5939 28.2807 18.3006 28.6012C17.7671 29.1843 17.2416 29.7585 16.6772 30.4922C15.3173 32.2599 14.0927 34.5492 14.1937 38H23C24.1046 38 25 38.8954 25 40C25 41.1046 24.1046 42 23 42H7.63672C6.53215 42 5.63672 41.1046 5.63672 40C5.63672 38.8954 6.53215 38 7.63672 38H10.1921C10.0891 33.5022 11.7303 30.3625 13.5067 28.0533C14.1673 27.1945 14.9184 26.3708 15.5125 25.7191C15.7669 25.44 15.9928 25.1923 16.1702 24.9871C16.5099 24.5944 16.7148 24.3193 16.8329 24.1128C16.8602 24.065 16.8788 24.0277 16.8914 24C16.8788 23.9723 16.8602 23.935 16.8329 23.8872C16.7148 23.6807 16.5099 23.4056 16.1702 23.0129C15.9927 22.8076 15.767 22.5601 15.5126 22.281C14.9184 21.6293 14.1673 20.8055 13.5067 19.9467C11.7303 17.6375 10.0891 14.4978 10.1921 10H7.63672C6.53215 10 5.63672 9.10457 5.63672 8C5.63672 6.89543 6.53215 6 7.63672 6Z" fill="#646464"/>
<path d="M43.6635 32.115C44.2791 31.1979 44.0348 29.9553 43.1177 29.3397C42.2006 28.724 40.9581 28.9684 40.3424 29.8855L34.3697 38.7823L31.4725 35.6436C30.7233 34.832 29.458 34.7814 28.6464 35.5306C27.8347 36.2798 27.7841 37.5451 28.5333 38.3568L32.2896 42.4261C33.6043 43.8504 35.9044 43.6727 36.9848 42.0634L43.6635 32.115Z" fill="#646464"/>
</svg>
