<svg width="48" height="48" viewBox="0 0 48 48" fill="none" xmlns="http://www.w3.org/2000/svg">
<path d="M7.63672 10C6.53215 10 5.63672 9.10457 5.63672 8C5.63672 6.89543 6.53215 6 7.63672 6H40.364C41.4686 6 42.364 6.89543 42.364 8C42.364 9.10457 41.4686 10 40.364 10H37.8091C37.8734 12.8148 37.2551 15.1262 36.312 17.0539C35.2136 19.2989 33.6985 20.9565 32.6034 22.1547L32.4274 22.3473C31.6833 23.1637 30.4183 23.2222 29.602 22.4781C28.7857 21.734 28.7272 20.469 29.4713 19.6527L29.5799 19.5335C30.7089 18.2958 31.8788 17.0133 32.7189 15.296C33.393 13.9182 33.8729 12.2117 33.8078 10H14.1937C14.0927 13.4508 15.3173 15.7401 16.6772 17.5078C17.2416 18.2415 17.7671 18.8157 18.3006 19.3988C18.5939 19.7193 18.8897 20.0425 19.1956 20.3962C19.5833 20.8444 19.992 21.3534 20.3058 21.9026C20.6234 22.4584 20.9103 23.1688 20.9103 24C20.9103 24.8312 20.6234 25.5416 20.3058 26.0974C19.992 26.6466 19.5833 27.1556 19.1956 27.6038C18.8897 27.9576 18.5939 28.2807 18.3006 28.6012C17.7671 29.1843 17.2416 29.7585 16.6772 30.4922C15.3173 32.2599 14.0927 34.5492 14.1937 38H22.0002C23.1048 38 24.0002 38.8954 24.0002 40C24.0002 41.1046 23.1048 42 22.0002 42H7.63672C6.53215 42 5.63672 41.1046 5.63672 40C5.63672 38.8954 6.53215 38 7.63672 38H10.1921C10.0891 33.5022 11.7303 30.3625 13.5067 28.0533C14.1673 27.1945 14.9184 26.3708 15.5125 25.7191C15.7669 25.44 15.9928 25.1923 16.1702 24.9871C16.5099 24.5944 16.7148 24.3193 16.8329 24.1128C16.8602 24.065 16.8788 24.0277 16.8914 24C16.8788 23.9723 16.8602 23.935 16.8329 23.8872C16.7148 23.6807 16.5099 23.4056 16.1702 23.0129C15.9927 22.8076 15.767 22.5601 15.5126 22.281C14.9184 21.6293 14.1673 20.8055 13.5067 19.9467C11.7303 17.6375 10.0891 14.4978 10.1921 10H7.63672Z" fill="#646464"/>
<path d="M33.4238 40C32.3193 40 31.4238 40.8954 31.4238 42C31.4238 43.1046 32.3193 44 33.4238 44H36.8524C37.957 44 38.8524 43.1046 38.8524 42C38.8524 40.8954 37.957 40 36.8524 40H33.4238Z" fill="#646464"/>
<path d="M27.9951 36C27.9951 34.8954 28.8905 34 29.9951 34H40.2808C41.3854 34 42.2808 34.8954 42.2808 36C42.2808 37.1046 41.3854 38 40.2808 38H29.9951C28.8905 38 27.9951 37.1046 27.9951 36Z" fill="#646464"/>
<path d="M28.2803 28C27.1757 28 26.2803 28.8954 26.2803 30C26.2803 31.1046 27.1757 32 28.2803 32H41.9946C43.0991 32 43.9946 31.1046 43.9946 30C43.9946 28.8954 43.0991 28 41.9946 28H28.2803Z" fill="#646464"/>
</svg>
