<svg width="48" height="48" viewBox="0 0 48 48" fill="none" xmlns="http://www.w3.org/2000/svg">
<path d="M42.9381 12.7696C42.8709 13.5211 42.1493 13.9967 41.3019 14.0184C40.363 14.0424 28.9205 14.0664 26.9027 14.0664C24.8849 14.0664 23.4425 14.0424 22.5035 14.0184C21.6562 13.9967 20.9346 13.5211 20.8674 12.7696C20.8485 12.5582 20.8367 12.3167 20.8367 12.0436C20.8367 11.7705 20.8485 11.529 20.8674 11.3175C20.9346 10.566 21.6562 10.0905 22.5035 10.0688C23.4425 10.0448 24.8849 10.0208 26.9027 10.0208C28.9205 10.0208 40.363 10.0448 41.3019 10.0688C42.1493 10.0905 42.8709 10.566 42.9381 11.3175C42.957 11.529 42.9688 11.7705 42.9688 12.0436C42.9688 12.3167 42.957 12.5582 42.9381 12.7696Z" fill="#646464"/>
<path d="M27.0009 35.2787C26.9344 34.5264 26.2207 34.0503 25.3825 34.0285C24.4538 34.0045 13.0271 33.9805 11.0312 33.9805C9.03543 33.9805 7.6087 34.0045 6.67998 34.0285C5.84185 34.0503 5.12807 34.5264 5.06162 35.2787C5.04295 35.4904 5.03125 35.7322 5.03125 36.0055C5.03125 36.2789 5.04295 36.5207 5.06162 36.7324C5.12807 37.4847 5.84185 37.9608 6.67998 37.9825C7.6087 38.0066 9.03543 38.0306 11.0312 38.0306C13.0271 38.0306 24.4538 38.0066 25.3825 37.9825C26.2207 37.9608 26.9344 37.4847 27.0009 36.7324C27.0195 36.5207 27.0312 36.2789 27.0312 36.0055C27.0312 35.7322 27.0195 35.4904 27.0009 35.2787Z" fill="#646464"/>
<path d="M33.3825 22.0229C34.2207 22.0447 34.9344 22.5207 35.0009 23.2731C35.0195 23.4847 35.0312 23.7265 35.0312 23.9999C35.0312 24.2733 35.0195 24.5151 35.0009 24.7268C34.9344 25.4791 34.2207 25.9552 33.3825 25.9769C32.4538 26.001 21.0271 26.025 19.0312 26.025C17.0354 26.025 15.6087 26.001 14.68 25.9769C13.8419 25.9552 13.1281 25.4791 13.0616 24.7268C13.0429 24.5151 13.0312 24.2733 13.0312 23.9999C13.0312 23.7265 13.0429 23.4847 13.0616 23.2731C13.1281 22.5207 13.8419 22.0447 14.68 22.0229C15.6087 21.9989 17.0354 21.9749 19.0312 21.9749C21.0271 21.9749 32.4538 21.9989 33.3825 22.0229Z" fill="#646464"/>
</svg>
