<svg width="48" height="48" viewBox="0 0 48 48" fill="none" xmlns="http://www.w3.org/2000/svg">
<path d="M24 44.0004C35.0457 44.0004 44 35.0461 44 24.0004C44 12.9547 35.0457 4.00037 24 4.00037C12.9543 4.00037 4.00002 12.9547 4.00002 24.0004C4.00001 35.0461 12.9543 44.0004 24 44.0004Z" fill="#E1393F"/>
<path d="M25.3517 11.9267H22.5433L22.5433 25.9687L25.3517 25.9687L25.3517 11.9267ZM23.9607 34.407C18.5276 34.3808 14.1444 29.9845 14.1575 24.5383C14.1575 20.1157 17.1496 16.2181 21.441 15.0763V18.0028C17.8189 19.3939 16.021 23.4622 17.4121 27.0842C18.8032 30.7063 22.8714 32.5042 26.4935 31.1131C30.1155 29.722 31.9134 25.6538 30.5224 22.0317C29.8006 20.1944 28.3439 18.7246 26.4935 18.0028V15.0763C31.7297 16.4937 34.8531 21.8874 33.4357 27.1236C32.2809 31.4149 28.3832 34.3808 23.9607 34.407Z" fill="white"/>
</svg>
