<svg width="48" height="48" viewBox="0 0 48 48" fill="none" xmlns="http://www.w3.org/2000/svg">
<path fill-rule="evenodd" clip-rule="evenodd" d="M23.9751 12.19C23.7336 12.19 23.499 12.1889 23.2714 12.1869C20.5774 12.3162 18.0142 13.1867 15.8221 14.6994C15.7632 14.7531 15.7008 14.8035 15.6351 14.85C13.9751 16.03 12.5551 17.57 11.5351 19.33C11.5048 19.3811 11.4726 19.4305 11.4386 19.4782C10.2227 21.6186 9.57505 24.0468 9.57505 26.57C9.57505 30.41 11.0751 34.03 13.7951 36.75C16.5151 39.47 20.1351 40.97 23.9751 40.97C27.8151 40.97 31.4351 39.47 34.1551 36.75C36.8751 34.03 38.3751 30.41 38.3751 26.57C38.3751 24.47 37.8951 22.37 37.0151 20.47C36.5551 19.47 36.9751 18.27 37.9751 17.81C38.9751 17.35 40.1751 17.77 40.6351 18.77C41.7751 21.19 42.3751 23.89 42.3751 26.57C42.3751 31.49 40.4551 36.11 36.9751 39.59C33.4951 43.07 28.8751 44.99 23.9551 44.99L23.9751 45.01C19.0551 45.01 14.4351 43.09 10.9551 39.61C7.47505 36.13 5.55505 31.51 5.55505 26.59C5.55505 23.7982 6.17329 21.103 7.34397 18.6578C6.89536 18.2066 6.52131 17.8241 6.21507 17.49C4.51507 15.71 4.37507 13.11 5.85507 11.33C6.11507 11.03 6.41507 10.69 6.75507 10.35C7.09507 10.01 7.41507 9.71004 7.73507 9.45004C9.51507 7.97004 12.1151 8.11004 13.8951 9.81004C14.1514 10.045 14.4363 10.32 14.7589 10.6379C15.2722 10.3397 15.7987 10.0673 16.3369 9.82137C16.2055 9.53581 16.1097 9.23053 16.0551 8.90999C15.9751 8.50999 15.9351 8.04999 15.9351 7.58999C15.9351 7.12999 15.9751 6.66999 16.0551 6.26999C16.3551 4.50999 17.8951 3.22999 19.7751 3.10999C20.7551 3.04999 22.1751 2.98999 23.9751 2.98999C24.7351 2.98999 25.4151 2.98999 26.0351 3.00999C27.1351 3.02999 28.0151 3.94999 27.9951 5.04999C27.9751 6.14999 27.0951 7.04999 25.9551 7.00999C25.6807 7.00999 25.3885 7.00552 25.0805 7.0008C24.7374 6.99555 24.3745 6.98999 23.9951 6.98999C22.3145 6.98999 20.9661 7.04863 20.0467 7.08861L20.0151 7.08999C19.9751 7.12999 19.9351 7.34999 19.9351 7.56999C19.9351 7.78999 19.9551 8.00999 19.9951 8.20999C20.6857 8.15122 21.5921 8.15721 22.6987 8.16453C23.0983 8.16717 23.524 8.16999 23.9751 8.16999C24.6951 8.16999 25.3551 8.16999 25.9351 8.14999C27.0551 8.06999 27.9551 8.98999 27.9951 10.09C28.0151 11.19 27.1551 12.11 26.0551 12.15C25.7609 12.15 25.4532 12.1545 25.1298 12.1592C24.7718 12.1645 24.3943 12.17 23.9951 12.17L23.9751 12.19ZM10.9551 13.57C11.1323 13.3928 11.3124 13.2197 11.4955 13.0506C11.4383 12.9944 11.3774 12.9384 11.3191 12.8847C11.2596 12.8301 11.2028 12.7778 11.1551 12.73C11.0751 12.65 10.8151 12.45 10.5751 12.45L10.5551 12.43C10.5551 12.43 10.3751 12.45 10.2951 12.53C10.0751 12.71 9.83507 12.93 9.59507 13.19C9.33507 13.45 9.11507 13.69 8.93507 13.91C8.67507 14.23 9.01507 14.63 9.13507 14.75C9.26743 14.8824 9.39979 15.0148 9.53214 15.164C9.97247 14.6101 10.4471 14.078 10.9551 13.57Z" fill="#646464"/>
<path d="M39.9751 14.01C39.9751 15.11 40.8751 16.01 41.9751 16.01C43.0751 16.01 43.9751 15.11 43.9751 14.01V6.37537C44.0426 5.95273 43.9735 5.5127 43.7677 5.12568C43.4398 4.46607 42.7581 4.01001 41.9751 4.01001H33.9751C32.8751 4.01001 31.9751 4.91001 31.9751 6.01001C31.9751 7.11001 32.8751 8.01001 33.9751 8.01001H37.2352L30.6951 14.5501C29.9151 15.3301 29.9151 16.5901 30.6951 17.3701C31.0951 17.7501 31.5951 17.9501 32.1151 17.9501L32.0951 17.9301C32.6151 17.9301 33.1151 17.7301 33.5151 17.3501L39.9751 10.9031V14.01Z" fill="#646464"/>
<path d="M23.9751 28.61H33.5351C34.6351 28.61 35.5351 27.71 35.5351 26.61C35.5351 25.51 34.6351 24.61 33.5351 24.61H25.9751V16.83C25.9751 15.73 25.0751 14.83 23.9751 14.83C22.8751 14.83 21.9751 15.73 21.9751 16.83V26.61C21.9751 27.71 22.8751 28.61 23.9751 28.61Z" fill="#646464"/>
</svg>
