<svg width="48" height="48" viewBox="0 0 48 48" fill="none" xmlns="http://www.w3.org/2000/svg">
<path fill-rule="evenodd" clip-rule="evenodd" d="M16.0004 12C16.0004 10.8954 16.8959 10 18.0004 10V14C16.8959 14 16.0004 13.1046 16.0004 12ZM42.0004 14H18.0004V10H41.999L42.0004 14ZM42.0004 14C43.1049 14 44.0004 13.1046 44.0004 12C44.0004 10.8954 43.1036 10 41.999 10L42.0004 14Z" fill="#646464"/>
<path fill-rule="evenodd" clip-rule="evenodd" d="M37.8596 11.7615C38.9071 12.112 39.4721 13.2452 39.1217 14.2927L37.225 13.6582C39.1217 14.2927 39.1217 14.2927 39.1217 14.2927L39.1183 14.3028L39.1119 14.3216L39.0902 14.3845C39.0717 14.4375 39.0453 14.5122 39.0109 14.6067C38.9423 14.7957 38.8417 15.064 38.7096 15.3955C38.4458 16.0575 38.0538 16.9773 37.5355 18.0233C36.5119 20.089 34.9394 22.7633 32.8063 24.8964C31.3715 26.3312 29.5303 27.6297 27.7823 28.7039C26.8412 29.2823 25.6095 28.9882 25.0312 28.0472C24.4528 27.1061 24.7469 25.8744 25.6879 25.2961C27.3172 24.2948 28.8602 23.1856 29.9779 22.068C31.6712 20.3747 33.0151 18.137 33.9514 16.2473C34.413 15.3156 34.7618 14.4969 34.9938 13.9147C35.1096 13.6242 35.1957 13.3941 35.2517 13.24C35.2797 13.1631 35.3001 13.1052 35.3129 13.0685L35.3264 13.0295L35.3283 13.0237M37.8596 11.7615C36.8123 11.4112 35.679 11.9766 35.3283 13.0237L37.8596 11.7615Z" fill="#646464"/>
<path fill-rule="evenodd" clip-rule="evenodd" d="M25.1468 13.0228C24.796 11.9759 23.6631 11.4112 22.6159 11.7615C21.5684 12.112 21.0033 13.2452 21.3538 14.2927L23.2504 13.6582C21.3538 14.2927 21.3538 14.2927 21.3538 14.2927L21.3551 14.2967L21.3572 14.3028L21.3635 14.3216L21.3853 14.3845C21.4037 14.4375 21.4301 14.5122 21.4645 14.6067C21.5332 14.7957 21.6337 15.064 21.7658 15.3955C22.0297 16.0575 22.4216 16.9773 22.9399 18.0233C23.9635 20.089 25.5361 22.7633 27.6691 24.8964C29.798 27.0252 32.8609 28.8879 35.2679 30.1802C36.4939 30.8385 37.5946 31.3722 38.3899 31.7419C38.7881 31.9271 39.1112 32.0717 39.3368 32.171C39.4497 32.2207 39.5383 32.259 39.5998 32.2855L39.6716 32.3161L39.6916 32.3246L39.6995 32.3279C39.6995 32.3279 39.7007 32.3284 40.4749 30.4843L39.6995 32.3279C40.718 32.7555 41.8914 32.277 42.319 31.2585C42.7465 30.2401 42.2676 29.0681 41.2494 28.6404L41.2472 28.6395L41.2345 28.6341L41.1781 28.61C41.127 28.5881 41.0493 28.5544 40.9479 28.5098C40.7448 28.4205 40.447 28.2871 40.0762 28.1147C39.3334 27.7695 38.3037 27.2701 37.1601 26.6561C34.828 25.404 32.1951 23.7655 30.4976 22.068C28.8043 20.3747 27.4604 18.137 26.5241 16.2473C26.0624 15.3156 25.7136 14.4969 25.4817 13.9147C25.3659 13.6242 25.2798 13.3941 25.2238 13.24C25.1958 13.1631 25.1754 13.1052 25.1626 13.0685L25.1491 13.0295L25.1468 13.0228Z" fill="#646464"/>
<path fill-rule="evenodd" clip-rule="evenodd" d="M30.0004 4C31.105 4 32.0004 4.89543 32.0004 6V12C32.0004 13.1046 31.105 14 30.0004 14C28.8959 14 28.0004 13.1046 28.0004 12V6C28.0004 4.89543 28.8959 4 30.0004 4Z" fill="#646464"/>
<path fill-rule="evenodd" clip-rule="evenodd" d="M16.0004 20C16.758 20 17.4505 20.428 17.7893 21.1056L24.0213 33.5696C24.0343 33.5942 24.0467 33.6191 24.0587 33.6443L27.7893 41.1056C28.2833 42.0935 27.8828 43.2949 26.8949 43.7889C25.9069 44.2828 24.7056 43.8824 24.2116 42.8944L21.0144 36.5H10.9865L7.78929 42.8944C7.29531 43.8824 6.09397 44.2828 5.10601 43.7889C4.11805 43.2949 3.71761 42.0935 4.21158 41.1056L7.9422 33.6443C7.95416 33.6191 7.96662 33.5942 7.97958 33.5696L14.2116 21.1056C14.5504 20.428 15.2429 20 16.0004 20ZM12.9865 32.5H19.0144L16.0004 26.4721L12.9865 32.5Z" fill="#646464"/>
</svg>
