<svg width="48" height="48" viewBox="0 0 48 48" fill="none" xmlns="http://www.w3.org/2000/svg">
<path fill-rule="evenodd" clip-rule="evenodd" d="M40 10C41.1046 10 42 10.8954 42 12C42 13.1046 41.1046 14 40 14C37.4435 14 35.9125 14.6442 34.87 15.4543C33.7763 16.3042 33.0258 17.4815 32.2655 18.9297C32.1336 19.1809 31.9969 19.4512 31.8542 19.7335C31.4918 20.4503 31.0902 21.2444 30.6285 22H40C41.1046 22 42 22.8954 42 24C42 25.1046 41.1046 26 40 26H30.6285C31.0902 26.7556 31.4917 27.5497 31.8542 28.2666C31.9969 28.5488 32.1336 28.8191 32.2655 29.0703C33.0258 30.5185 33.7763 31.6958 34.87 32.5457C35.9125 33.3558 37.4435 34 40 34C41.1046 34 42 34.8954 42 36C42 37.1046 41.1046 38 40 38C36.7029 38 34.2687 37.1442 32.4157 35.7042C30.6139 34.3041 29.5386 32.4814 28.7239 30.9296C28.5196 30.5405 28.3355 30.1788 28.1638 29.8415C27.5899 28.7143 27.1548 27.8595 26.5684 27.1621C25.9601 26.4387 25.27 26 24 26C22.73 26 22.0399 26.4387 21.4316 27.1621C20.8452 27.8595 20.4101 28.7143 19.8362 29.8415C19.6645 30.1788 19.4804 30.5405 19.2761 30.9296C18.4614 32.4814 17.3861 34.3041 15.5843 35.7042C13.7313 37.1442 11.2971 38 8 38C6.89543 38 6 37.1046 6 36C6 34.8954 6.89543 34 8 34C10.5565 34 12.0875 33.3558 13.13 32.5457C14.2237 31.6958 14.9742 30.5185 15.7345 29.0703C15.8664 28.8191 16.0031 28.5488 16.1458 28.2665C16.5083 27.5497 16.9098 26.7556 17.3715 26H8C6.89543 26 6 25.1046 6 24C6 22.8954 6.89543 22 8 22L17.3715 22C16.9098 21.2444 16.5083 20.4503 16.1458 19.7335C16.0031 19.4512 15.8664 19.1809 15.7345 18.9297C14.9742 17.4815 14.2237 16.3042 13.13 15.4543C12.0875 14.6442 10.5565 14 8 14C6.89543 14 6 13.1046 6 12C6 10.8954 6.89543 10 8 10C11.2971 10 13.7313 10.8558 15.5843 12.2958C17.3861 13.6959 18.4614 15.5186 19.2761 17.0704C19.4804 17.4595 19.6645 17.8212 19.8362 18.1585C20.4101 19.2857 20.8452 20.1405 21.4316 20.8379C22.0399 21.5613 22.73 22 24 22C25.2699 22 25.9601 21.5613 26.5684 20.8379C27.1548 20.1405 27.5899 19.2857 28.1638 18.1585C28.3354 17.8213 28.5197 17.4594 28.7239 17.0704C29.5386 15.5186 30.6139 13.6959 32.4157 12.2958C34.2687 10.8558 36.7029 10 40 10Z" fill="#646464"/>
</svg>
