<svg width="48" height="48" viewBox="0 0 48 48" fill="none" xmlns="http://www.w3.org/2000/svg">
<path d="M18.5649 21.1058H22.9784V32.98H25.9438V21.1058H30.3558V18.2698H18.5649V21.1058Z" fill="black"/>
<path d="M43.7327 24.6905C42.9772 18.8948 40.1743 13.3236 35.839 9.00394C31.8944 5.07236 28.1536 3.6452 22.9309 4.07304C18.7718 4.41379 15.7988 6.10377 11.1447 10.7688L9.83443 12.0997C7.92497 14.0632 7.03154 15.1206 6.1565 16.4561C4.74663 18.609 4.06161 20.7589 4.00491 23.2236C3.88844 28.2217 6.07528 33.1358 10.3294 37.4326C14.2526 41.3947 18.3764 43.3093 24.1217 43.8365L24.3991 43.861C25.507 43.9526 26.5583 44 27.5605 44C32.9702 44 36.8872 42.6447 39.7406 39.8194C43.3435 36.253 44.6124 31.4474 43.7312 24.692L43.7327 24.6905ZM24.7806 42.6981L24.4987 42.6752C18.8469 42.2046 14.9866 40.4428 11.1784 36.5968C7.15567 32.5353 5.08683 27.9207 5.19564 23.2511C5.24774 21.0172 5.86993 19.0644 7.15261 17.107L7.407 16.728C8.24679 15.5102 9.19386 14.4375 11.4619 12.1379L11.7853 11.8109C16.3796 7.17185 19.112 5.57813 23.029 5.25725C23.5976 5.20988 24.1447 5.18696 24.6749 5.18696C28.7084 5.18696 31.7105 6.57134 34.9961 9.84434C39.146 13.9807 41.8294 19.3073 42.5512 24.8448C43.3803 31.2014 42.2202 35.6907 38.9024 38.9744C35.8267 42.0182 31.3396 43.2008 24.7806 42.6981Z" fill="black"/>
</svg>
