<svg width="48" height="48" viewBox="0 0 48 48" fill="none" xmlns="http://www.w3.org/2000/svg">
<path fill-rule="evenodd" clip-rule="evenodd" d="M7.41421 4.58579C6.63317 3.80474 5.36683 3.80474 4.58579 4.58579C3.80474 5.36684 3.80474 6.63317 4.58579 7.41421L12.9441 15.7725L7.44796 16.4241C4.05838 16.826 2.69713 21.0156 5.20312 23.333L11.9224 29.5468L10.1387 38.5233C9.47351 41.8712 13.0374 44.4604 16.0158 42.7932L24.0018 38.323L31.9878 42.7932C34.3151 44.096 36.9999 42.7998 37.7451 40.5735L40.5858 43.4142C41.3668 44.1953 42.6332 44.1953 43.4142 43.4142C44.1953 42.6332 44.1953 41.3668 43.4142 40.5858L7.41421 4.58579ZM33.3308 36.1592L16.5451 19.3735L7.91893 20.3963L14.6382 26.6101C15.6595 27.5546 16.1168 28.9619 15.8457 30.3264L14.062 39.3029L22.048 34.8326C23.2619 34.1532 24.7417 34.1532 25.9556 34.8326L33.9415 39.3029L33.3632 36.392C33.3477 36.3142 33.337 36.2365 33.3308 36.1592Z" fill="#646464"/>
<path d="M27.634 7.03604C26.2044 3.93656 21.7992 3.93655 20.3696 7.03604L19.3962 9.14632C18.9335 10.1493 19.3716 11.3375 20.3746 11.8001C21.3776 12.2628 22.5658 11.8247 23.0284 10.8217L24.0018 8.71143L27.8351 17.022C28.4177 18.2852 29.6149 19.155 30.9963 19.3187L40.0847 20.3963L35.8949 24.2709C35.084 25.0208 35.0345 26.2862 35.7845 27.0971C36.5344 27.9081 37.7998 27.9575 38.6107 27.2076L42.8005 23.333C45.3065 21.0156 43.9452 16.826 40.5556 16.4241L31.4673 15.3466L27.634 7.03604Z" fill="#646464"/>
</svg>
