<svg width="48" height="48" viewBox="0 0 48 48" fill="none" xmlns="http://www.w3.org/2000/svg">
<path fill-rule="evenodd" clip-rule="evenodd" d="M4.58579 4.58579C5.36683 3.80474 6.63317 3.80474 7.41421 4.58579L14.9326 12.1042C14.9343 12.1058 14.9359 12.1075 14.9376 12.1091C14.9392 12.1108 14.9409 12.1124 14.9425 12.1141L35.8867 33.0583C35.8881 33.0597 35.8895 33.0611 35.8909 33.0625C35.8923 33.0638 35.8937 33.0652 35.895 33.0666L43.4142 40.5858C44.1953 41.3668 44.1953 42.6332 43.4142 43.4142C42.6332 44.1953 41.3668 44.1953 40.5858 43.4142L36.1212 38.9496C36.0787 39.3787 36.0343 39.8026 35.9878 40.2209C35.8658 41.3187 34.8769 42.1098 33.7791 41.9878C32.6813 41.8658 31.8903 40.8769 32.0123 39.7791C32.1259 38.7563 32.2275 37.6945 32.3167 36.6017C26.9016 36.8663 21.0985 36.8663 15.6833 36.6017C15.7726 37.6945 15.8741 38.7563 15.9878 39.7791C16.1098 40.8769 15.3188 41.8658 14.2209 41.9878C13.1231 42.1098 12.1343 41.3187 12.0123 40.2209C11.8739 38.9759 11.7534 37.6809 11.6507 36.3493C10.3191 36.2466 9.02409 36.1261 7.77912 35.9878C6.68131 35.8658 5.89026 34.8769 6.01227 33.7791C6.13427 32.6813 7.12313 31.8902 8.22094 32.0122C9.24369 32.1259 10.3055 32.2274 11.3983 32.3167C11.1337 26.9015 11.1337 21.0984 11.3983 15.6833C10.3055 15.7726 9.24369 15.8741 8.22094 15.9878C7.12313 16.1098 6.13427 15.3187 6.01227 14.2209C5.89026 13.1231 6.68131 12.1342 7.77912 12.0122C8.1974 11.9658 8.62134 11.9213 9.05041 11.8788L4.58579 7.41421C3.80474 6.63317 3.80474 5.36683 4.58579 4.58579ZM15.2999 18.1284C15.135 22.9079 15.1739 27.9078 15.4168 32.5832C20.0922 32.8261 25.0922 32.8651 29.8717 32.7001L15.2999 18.1284ZM33.7791 6.01224C34.8769 5.89023 35.8658 6.68127 35.9878 7.77908C36.1262 9.02405 36.2466 10.3191 36.3494 11.6507C37.681 11.7534 38.976 11.8739 40.2209 12.0122C41.3188 12.1342 42.1098 13.1231 41.9878 14.2209C41.8658 15.3187 40.8769 16.1098 39.7791 15.9878C38.7564 15.8741 37.6946 15.7726 36.6018 15.6833C36.7342 18.393 36.8002 21.1977 36.8002 24C36.8002 25.1046 35.9048 26 34.8002 26C33.6956 26 32.8002 25.1046 32.8002 24C32.8002 21.098 32.7278 18.1987 32.5833 15.4168C29.8013 15.2723 26.902 15.1998 24 15.1998C22.8954 15.1998 22 14.3044 22 13.1998C22 12.0953 22.8954 11.1998 24 11.1998C26.8023 11.1998 29.607 11.2659 32.3167 11.3983C32.2275 10.3055 32.1259 9.24366 32.0123 8.22092C31.8903 7.12311 32.6813 6.13425 33.7791 6.01224Z" fill="#646464"/>
</svg>
