<svg width="48" height="48" viewBox="0 0 48 48" fill="none" xmlns="http://www.w3.org/2000/svg">
<path d="M23.3405 8.07821C23.7766 7.97393 24.223 7.97393 24.6591 8.07821C26.211 8.44931 29.4474 9.36515 33.5087 11.2991C36.1876 12.5748 38.1552 13.6979 39.4926 14.5337C38.1552 15.3695 36.1877 16.4926 33.5087 17.7683C32.3931 18.2996 31.3394 18.7542 30.3655 19.1418C29.3393 19.5502 28.8384 20.7133 29.2469 21.7396C29.6553 22.7659 30.8184 23.2667 31.8447 22.8582C32.8958 22.4399 34.0299 21.9505 35.2284 21.3798C38.6114 19.7689 40.9627 18.3665 42.4221 17.4072C44.5258 16.0243 44.5255 13.0429 42.422 11.6601C40.9628 10.7009 38.6115 9.29862 35.2284 7.68762C30.8693 5.61186 27.36 4.61129 25.5893 4.18789C24.5417 3.93737 23.4578 3.93737 22.4102 4.18789C21.308 4.45146 19.5346 4.93807 17.3033 5.76724C16.268 6.15201 15.7405 7.30327 16.1253 8.33866C16.5101 9.37405 17.6613 9.90148 18.6967 9.51671C20.7593 8.75021 22.3763 8.30876 23.3405 8.07821Z" fill="#646464"/>
<path fill-rule="evenodd" clip-rule="evenodd" d="M7.41401 4.71884C6.63296 3.93779 5.36663 3.93779 4.58558 4.71884C3.80453 5.49988 3.80453 6.76621 4.58558 7.54726L7.50327 10.465C6.74175 10.9134 6.10197 11.3154 5.57751 11.6602C3.47402 13.043 3.47376 16.0243 5.57748 17.4072C7.03679 18.3665 9.38805 19.7688 12.7712 21.3798C16.6441 23.2241 19.8462 24.2196 21.7539 24.7156L26.8725 29.8342C25.9523 30.1183 25.2022 30.315 24.6591 30.4449C24.223 30.5491 23.7766 30.5491 23.3404 30.4449C21.7886 30.0738 18.5521 29.1579 14.4909 27.2241C11.9434 26.011 9.5161 24.593 7.04934 23.0723C6.10908 22.4926 4.87695 22.7849 4.29731 23.7252C3.71766 24.6655 4.00999 25.8976 4.95025 26.4772C7.45984 28.0243 10.03 29.5302 12.7712 30.8355C17.1303 32.9112 20.6396 33.9118 22.4102 34.3352C23.4579 34.5857 24.5417 34.5857 25.5893 34.3352C26.5802 34.0983 28.1137 33.681 30.0349 32.9966L33.6681 36.6298L33.5087 36.7059C29.4474 38.6398 26.211 39.5557 24.6591 39.9268C24.223 40.031 23.7765 40.031 23.3404 39.9268C21.7886 39.5557 18.5521 38.6398 14.4909 36.7059C11.9434 35.4929 9.5161 34.0748 7.04934 32.5541C6.10908 31.9745 4.87696 32.2668 4.29731 33.2071C3.71766 34.1473 4.00999 35.3795 4.95025 35.9591C7.45984 37.5062 10.03 39.0121 12.7712 40.3174C17.1303 42.3931 20.6396 43.3937 22.4102 43.8171C23.4579 44.0676 24.5417 44.0676 25.5893 43.8171C27.36 43.3937 30.8693 42.3931 35.2284 40.3174C35.7078 40.0891 36.1836 39.8559 36.656 39.6177L40.5856 43.5473C41.3666 44.3283 42.6329 44.3283 43.414 43.5473C44.195 42.7662 44.195 41.4999 43.414 40.7188L7.41401 4.71884ZM10.4325 13.3942C9.68513 13.8147 9.04504 14.1974 8.50691 14.5337C9.84434 15.3695 11.8119 16.4926 14.4909 17.7683C14.691 17.8636 14.8892 17.9565 15.0852 18.0469L10.4325 13.3942Z" fill="#646464"/>
<path d="M43.0831 26.456C44.0116 25.8577 44.2793 24.62 43.681 23.6915C43.0827 22.7629 41.845 22.4952 40.9165 23.0935C39.3432 24.1073 37.7409 25.0479 36.0975 25.921C35.1221 26.4392 34.7514 27.65 35.2696 28.6255C35.7878 29.601 36.9987 29.9716 37.9741 29.4534C39.718 28.527 41.417 27.5295 43.0831 26.456Z" fill="#646464"/>
</svg>
