<svg width="48" height="48" viewBox="0 0 48 48" fill="none" xmlns="http://www.w3.org/2000/svg">
<path fill-rule="evenodd" clip-rule="evenodd" d="M10.2183 22.7229C9.70536 22.5051 9.20589 22.2908 8.72021 22.0799V35.1892C8.84174 35.247 8.96176 35.3102 9.08 35.3789C10.54 36.2189 11.46 37.7989 11.46 39.4789C11.46 41.1789 10.58 42.7189 9.1 43.5789C8.36 44.0189 7.54 44.2189 6.72 44.2189C5.92 44.2189 5.1 43.9989 4.36 43.5789C2.9 42.7389 2 41.1789 2 39.4789C2 37.7789 2.88 36.2389 4.36 35.3789C4.47838 35.3101 4.59854 35.2468 4.72021 35.189V20.2748C4.50931 20.1752 4.30256 20.0766 4.1 19.9792C2.82 19.3592 2 18.1192 2 16.7592C2 15.3992 2.8 14.1592 4.08 13.5392C6.2 12.5192 8.8 11.3792 11.76 10.1392C16.54 8.13916 19.86 6.93916 21.8 6.27916C23.24 5.77916 24.74 5.79916 26.18 6.27916C28.12 6.93916 31.44 8.15916 36.22 10.1392C39.2 11.3792 41.78 12.5192 43.9 13.5392C45.18 14.1592 45.98 15.3792 45.98 16.7592C45.98 18.1392 45.18 19.3592 43.9 19.9792C42.1597 20.8165 40.1094 21.7347 37.7823 22.7226C37.8062 23.442 37.8202 24.2355 37.8202 25.0989C37.8202 27.5189 37.7202 29.4989 37.5202 30.9989C37.3002 32.5789 36.3802 33.9189 34.9802 34.6389C32.9802 35.6789 29.4402 36.9389 24.0002 36.9389C18.5602 36.9389 15.0202 35.6989 13.0202 34.6389C11.6202 33.8989 10.7002 32.5789 10.4802 30.9989C10.2802 29.4989 10.1802 27.5189 10.1802 25.0989C10.1802 24.2321 10.1943 23.4429 10.2183 22.7229ZM21.82 27.2392C22.52 27.4792 23.26 27.5992 24 27.5992C24.72 27.5992 25.46 27.4792 26.18 27.2392C27.7733 26.6971 30.2973 25.7774 33.7965 24.3691C33.7989 24.6058 33.8002 24.8491 33.8002 25.0989C33.8002 27.8989 33.6602 29.5589 33.5402 30.4789C33.5202 30.6789 33.4202 30.9589 33.1202 31.1189C31.8202 31.7989 28.8602 32.9589 24.0002 32.9589C19.1402 32.9589 16.2002 31.7989 14.8802 31.1189C14.5802 30.9589 14.4802 30.6789 14.4602 30.4789C14.3402 29.5589 14.2002 27.8789 14.2002 25.0989C14.2002 24.8514 14.2008 24.6104 14.2022 24.3758C17.7021 25.7906 20.2265 26.6971 21.82 27.2392ZM6.59653 38.7552C6.50615 38.7758 6.43397 38.8119 6.38 38.8389C6.24 38.9189 6.02 39.0989 6.02 39.4789C6.02 39.7389 6.16 39.9989 6.38 40.1189C6.7 40.2989 6.98 40.1989 7.1 40.1189C7.24 40.0389 7.46 39.8589 7.46 39.4789C7.46 39.2189 7.32 38.9589 7.1 38.8389C7.03038 38.7925 6.95402 38.7663 6.88265 38.7524C6.82906 38.7568 6.77488 38.759 6.72021 38.759C6.67869 38.759 6.63744 38.7577 6.59653 38.7552ZM13.32 19.6592C10.78 18.6192 8.54 17.6392 6.64 16.7392C8.54 15.8592 10.78 14.8792 13.32 13.8192C18.02 11.8792 21.24 10.6992 23.12 10.0592C23.72 9.85916 24.34 9.85916 24.92 10.0592C26.82 10.7192 30.04 11.8992 34.72 13.8392C37.26 14.8792 39.5 15.8792 41.4 16.7592C39.5 17.6392 37.26 18.6192 34.72 19.6792C30.04 21.6192 26.8 22.7992 24.92 23.4392C24.32 23.6392 23.7 23.6392 23.12 23.4392C21.24 22.7792 18 21.6192 13.32 19.6592Z" fill="#646464"/>
</svg>
