<svg width="48" height="48" viewBox="0 0 48 48" fill="none" xmlns="http://www.w3.org/2000/svg">
<path d="M22.72 32.18C22.72 33.28 23.62 34.18 24.72 34.18C25.82 34.18 26.72 33.28 26.72 32.18V28.9C26.72 27.8 25.82 26.9 24.72 26.9C23.62 26.9 22.72 27.8 22.72 28.9V32.18Z" fill="#646464"/>
<path fill-rule="evenodd" clip-rule="evenodd" d="M14.9401 13.42L14.7875 17.4423C11.0301 17.8529 8.37558 20.6179 8.16 24.42C8.06 26.16 8 28.24 8 30.56C8 33.08 8.06 35.3 8.2 37.14C8.46 40.72 11.08 43.34 14.7 43.66C17.34 43.88 20.7 44 24.72 44L24.74 43.98C28.76 43.98 32.12 43.86 34.76 43.64C38.38 43.34 40.98 40.7 41.26 37.12C41.38 35.3 41.46 33.08 41.46 30.54C41.46 28 41.4 25.78 41.26 23.96C41 20.38 38.38 17.76 34.76 17.44C32.12 17.22 28.58 17.1 24.74 17.1C22.564 17.1 20.5743 17.1385 18.7817 17.2083L18.9201 13.56C19.0401 10.42 21.5801 7.98 24.7001 7.98C27.0201 7.98 29.1001 9.36 30.0201 11.48C30.4601 12.48 31.6401 12.96 32.6601 12.52C33.6801 12.1 34.1401 10.92 33.7001 9.9C32.1601 6.32 28.6201 4 24.7201 4C19.4401 4 15.1401 8.14 14.9401 13.42ZM12.14 24.64C12.04 26.32 12 28.3 12 30.54C12 32.98 12.06 35.08 12.2 36.82C12.32 38.46 13.4 39.52 15.06 39.66C17.58 39.88 20.84 39.98 24.74 39.98C28.64 39.98 31.9 39.86 34.42 39.66C36.08 39.52 37.16 38.46 37.28 36.82C37.42 35.08 37.48 32.98 37.48 30.54C37.48 28.1 37.42 25.98 37.28 24.26C37.16 22.62 36.08 21.56 34.42 21.42C31.9 21.2 28.64 21.1 24.74 21.1C20.84 21.1 17.84 21.2 15.34 21.4C13.48 21.54 12.26 22.8 12.16 24.64H12.14Z" fill="#646464"/>
</svg>
