<svg width="48" height="48" viewBox="0 0 48 48" fill="none" xmlns="http://www.w3.org/2000/svg">
<path fill-rule="evenodd" clip-rule="evenodd" d="M11.4876 16.4516C11.4876 9.5643 17.0971 4 23.9932 4C30.8895 4 36.4989 9.56431 36.4989 16.4516C36.4989 19.7395 35.2188 22.7262 33.1342 24.9487C37.7837 27.6251 40.7352 32.1986 41.8384 36.7971C42.6744 40.2816 40.0183 43.0998 36.8888 43.4305C34.1921 43.7153 29.9973 44 23.9992 44C17.9986 44 13.8 43.7151 11.1009 43.4301C7.97104 43.0996 5.31239 40.2807 6.15044 36.7945C7.25532 32.1982 10.2084 27.6283 14.8557 24.9522C12.7691 22.7293 11.4876 19.7412 11.4876 16.4516ZM23.9932 8C19.2846 8 15.4863 11.7943 15.4863 16.4516C15.4863 19.5331 17.1459 22.2362 19.6424 23.716C20.3147 24.1145 20.6932 24.8684 20.6115 25.6458C20.5298 26.4232 20.0027 27.0818 19.2623 27.3317C14.3151 29.0013 11.1087 33.2772 10.0383 37.7297C9.9369 38.1517 10.0361 38.5141 10.2712 38.8108C10.5204 39.1253 10.9524 39.3922 11.5207 39.4522C14.0668 39.721 18.1245 40 23.9992 40C29.8716 40 33.9254 39.7212 36.4688 39.4526C37.0365 39.3926 37.468 39.1259 37.7171 38.8116C37.952 38.5151 38.0514 38.1526 37.9501 37.7305C36.8812 33.2751 33.6769 28.9976 28.7289 27.3296C27.9884 27.0799 27.4611 26.4216 27.3791 25.6443C27.2971 24.8669 27.6753 24.113 28.3474 23.7142C30.8421 22.2339 32.5001 19.5318 32.5001 16.4516C32.5001 11.7943 28.702 8 23.9932 8Z" fill="#646464"/>
</svg>
