<svg width="48" height="48" viewBox="0 0 48 48" fill="none" xmlns="http://www.w3.org/2000/svg">
<path d="M11.5128 39.42C13.6728 39.66 18.0528 39.9 23.0128 39.96V39.98C24.1128 40 24.9928 40.9 24.9928 42C24.9728 43.1 24.0928 43.98 22.9928 43.98H22.9728C17.8728 43.92 13.3328 43.66 11.0928 43.42C9.39278 43.24 7.89278 42.36 6.95278 41.04C6.07278 39.8 5.79278 38.28 6.15278 36.78C7.35278 31.72 10.5928 27.42 14.8728 24.94C12.7328 22.66 11.4928 19.62 11.4928 16.44C11.4928 9.56 17.0928 4 23.9728 4C30.8528 4 36.4728 9.6 36.4728 16.46C36.4728 18.74 35.8528 20.96 34.6728 22.9C34.4728 23.22 34.2728 23.52 34.0528 23.82C33.3928 24.7 32.1528 24.9 31.2528 24.24C30.3728 23.58 30.1728 22.32 30.8328 21.44C30.9728 21.24 31.1128 21.02 31.2528 20.8C32.0528 19.48 32.4728 17.98 32.4728 16.44C32.4728 11.78 28.6528 7.98 23.9728 7.98C19.2928 7.98 15.4728 11.78 15.4728 16.44C15.4728 19.44 17.0328 22.16 19.6328 23.7C20.2928 24.08 20.6728 24.84 20.5928 25.62C20.5128 26.4 19.9928 27.06 19.2528 27.3C13.8728 29.12 10.9528 33.86 10.0328 37.7C9.93278 38.08 9.99278 38.42 10.2128 38.72C10.4928 39.1 10.9728 39.36 11.5128 39.42Z" fill="#646464"/>
<path fill-rule="evenodd" clip-rule="evenodd" d="M42.5527 29.56L44.6127 33.24L44.6327 33.28C45.2927 34.46 45.1127 35.9 44.1527 36.88L36.9727 44.2C36.4727 44.72 35.7727 45.02 35.0327 45.02C34.2927 45.02 33.5727 44.72 33.0727 44.2L25.8927 36.88C24.9327 35.9 24.7527 34.44 25.4127 33.26L27.4727 29.58C28.0127 28.6 29.0327 28 30.1527 28H39.8727C40.9727 28 42.0127 28.6 42.5527 29.56ZM29.2327 34.56L34.9927 40.44H35.0127L40.7727 34.56L39.3327 31.98H30.6727L29.2327 34.56Z" fill="#646464"/>
</svg>
