<svg width="48" height="48" viewBox="0 0 48 48" fill="none" xmlns="http://www.w3.org/2000/svg">
<path d="M11.4893 16.4516C11.4893 9.5643 17.1006 4 23.9989 4C30.8974 4 36.5085 9.56431 36.5085 16.4516C36.5085 18.392 36.0612 20.2338 35.2621 21.8754C34.7786 22.8685 33.5816 23.2817 32.5885 22.7983C31.5953 22.3148 31.1821 21.1178 31.6656 20.1246C32.2052 19.016 32.5085 17.7717 32.5085 16.4516C32.5085 11.7943 28.7091 8 23.9989 8C19.2888 8 15.4893 11.7943 15.4893 16.4516C15.4893 19.5331 17.1494 22.2362 19.6467 23.716C20.3192 24.1145 20.6979 24.8684 20.6161 25.6458C20.5344 26.4232 20.0072 27.0818 19.2665 27.3317C14.3178 29.0013 11.1103 33.2772 10.0396 37.7297C9.93815 38.1517 10.0374 38.5141 10.2726 38.8108C10.5218 39.1253 10.954 39.3922 11.5224 39.4522C13.5456 39.6657 16.5231 39.8857 20.6081 39.9671C21.7125 39.9891 22.5899 40.9022 22.5679 42.0066C22.5459 43.1109 21.6328 43.9883 20.5284 43.9663C16.3389 43.8828 13.2475 43.6565 11.1025 43.4301C7.97166 43.0996 5.31218 40.2807 6.15049 36.7945C7.25572 32.1982 10.2098 27.6283 14.8585 24.9522C12.7712 22.7293 11.4893 19.7412 11.4893 16.4516Z" fill="#646464"/>
<path fill-rule="evenodd" clip-rule="evenodd" d="M29.565 26.2071C32.9807 25.931 37.019 25.931 40.4348 26.2071C42.228 26.352 43.6479 27.7719 43.7928 29.5651C44.0689 32.9808 44.0689 37.0191 43.7928 40.4349C43.6479 42.2282 42.2279 43.6481 40.4346 43.793C37.019 44.069 32.9807 44.069 29.5651 43.793C27.7718 43.6481 26.3518 42.2282 26.2069 40.4349C25.9308 37.0192 25.9308 32.9808 26.2069 29.5651C26.3518 27.7719 27.7717 26.352 29.565 26.2071ZM30.1717 30.1719C29.9426 33.2179 29.9426 36.7821 30.1717 39.8282C33.2178 40.0573 36.7819 40.0573 39.828 39.8282C40.0571 36.7821 40.0571 33.2179 39.828 30.1719C36.7819 29.9427 33.2178 29.9427 30.1717 30.1719Z" fill="#646464"/>
</svg>
