<svg width="48" height="48" viewBox="0 0 48 48" fill="none" xmlns="http://www.w3.org/2000/svg">
<path fill-rule="evenodd" clip-rule="evenodd" d="M8 24C8 15.1634 15.1634 8 24 8C32.8366 8 40 15.1634 40 24V27C40 28.6569 38.6569 30 37 30C35.3431 30 34 28.6569 34 27V24C34 18.4772 29.5228 14 24 14C18.4772 14 14 18.4772 14 24C14 29.5228 18.4772 34 24 34C26.8316 34 29.3883 32.8231 31.2077 30.9318C32.4672 32.7837 34.5915 34 37 34C40.866 34 44 30.866 44 27V24C44 12.9543 35.0457 4 24 4C12.9543 4 4 12.9543 4 24C4 35.0457 12.9543 44 24 44C27.3261 44 30.468 43.1865 33.2321 41.7459C34.2116 41.2354 34.5918 40.0275 34.0813 39.048C33.5707 38.0685 32.3628 37.6883 31.3833 38.1988C29.1765 39.3489 26.6672 40 24 40C15.1634 40 8 32.8366 8 24ZM30 24C30 20.6863 27.3137 18 24 18C20.6863 18 18 20.6863 18 24C18 27.3137 20.6863 30 24 30C27.3137 30 30 27.3137 30 24Z" fill="#646464"/>
</svg>
