<svg width="48" height="48" viewBox="0 0 48 48" fill="none" xmlns="http://www.w3.org/2000/svg">
<path d="M11.4893 16.4516C11.4893 9.5643 17.1006 4 23.9989 4C30.8974 4 36.5085 9.56431 36.5085 16.4516C36.5085 18.2939 36.1053 20.0476 35.3802 21.6256C34.9191 22.6293 33.7316 23.0691 32.7279 22.608C31.7242 22.1468 31.2844 20.9593 31.7455 19.9556C32.235 18.8904 32.5085 17.7053 32.5085 16.4516C32.5085 11.7943 28.7091 8 23.9989 8C19.2888 8 15.4893 11.7943 15.4893 16.4516C15.4893 19.5331 17.1494 22.2362 19.6467 23.716C20.3192 24.1145 20.6979 24.8684 20.6161 25.6458C20.5344 26.4232 20.0072 27.0818 19.2665 27.3317C14.3178 29.0013 11.1103 33.2772 10.0396 37.7297C9.93815 38.1517 10.0374 38.5141 10.2726 38.8108C10.5218 39.1253 10.954 39.3922 11.5224 39.4522C13.2271 39.6321 15.6094 39.8166 18.761 39.919C19.865 39.9548 20.7309 40.8788 20.695 41.9828C20.6592 43.0868 19.7351 43.9527 18.6312 43.9169C15.3892 43.8116 12.9099 43.6209 11.1025 43.4301C7.97166 43.0996 5.31218 40.2807 6.15049 36.7945C7.25572 32.1982 10.2098 27.6283 14.8585 24.9522C12.7712 22.7293 11.4893 19.7412 11.4893 16.4516Z" fill="#646464"/>
<path fill-rule="evenodd" clip-rule="evenodd" d="M36.8832 27.3752C35.3616 25.5416 32.638 25.5416 31.1166 27.3752C30.1213 28.5746 28.7121 30.4863 27.0327 33.355C25.5374 35.909 24.7002 37.7316 24.2298 38.9947C23.8096 40.123 23.974 41.3194 24.6541 42.2478C25.3097 43.1427 26.3285 43.6405 27.3879 43.7326C28.8829 43.8625 31.1403 44 33.9999 44C36.8594 44 39.1168 43.8625 40.6117 43.7326C41.6712 43.6405 42.69 43.1427 43.3456 42.2478C44.0257 41.3194 44.1901 40.123 43.7699 38.9947C43.2995 37.7316 42.4623 35.909 40.967 33.355C39.2876 30.4863 37.8785 28.5747 36.8832 27.3752ZM33.9998 30.1676C33.1568 31.2107 31.9459 32.8799 30.4846 35.3759C29.3306 37.3471 28.6348 38.7845 28.2169 39.7874C29.6012 39.8957 31.5661 40 33.9999 40C36.4336 40 38.3986 39.8957 39.7828 39.7874C39.3649 38.7845 38.6691 37.3471 37.5151 35.3759C36.0538 32.8799 34.8429 31.2107 33.9998 30.1676Z" fill="#646464"/>
</svg>
