<svg width="48" height="48" viewBox="0 0 48 48" fill="none" xmlns="http://www.w3.org/2000/svg">
<path fill-rule="evenodd" clip-rule="evenodd" d="M4.33148 38.3449C3.88951 32.4303 3.88951 25.5696 4.33148 19.6552C4.54465 16.8026 6.80251 14.5447 9.6551 14.3315C15.5696 13.8895 22.4304 13.8895 28.3449 14.3315C31.1975 14.5447 33.4553 16.8026 33.6685 19.6552C34.1105 25.5696 34.1105 32.4303 33.6685 38.3449C33.4553 41.1976 31.1974 43.4555 28.3447 43.6686C22.4303 44.1105 15.5697 44.1105 9.65529 43.6686C6.80262 43.4555 4.54465 41.1976 4.33148 38.3449ZM8.32036 19.9533C7.89321 25.6692 7.89321 32.3307 8.32036 38.0468C8.38601 38.9254 9.07469 39.6141 9.9533 39.6797C15.6693 40.1068 22.3307 40.1068 28.0467 39.6797C28.9253 39.6141 29.614 38.9254 29.6796 38.0468C30.1068 32.3307 30.1068 25.6692 29.6796 19.9533C29.614 19.0747 28.9253 18.3861 28.0468 18.3204C22.3308 17.8932 15.6693 17.8932 9.95322 18.3204C9.07466 18.3861 8.38601 19.0747 8.32036 19.9533Z" fill="#646464"/>
<path fill-rule="evenodd" clip-rule="evenodd" d="M14.3315 28.3449C13.8895 22.4303 13.8895 15.5696 14.3315 9.6552C14.5447 6.80261 16.8025 4.54473 19.6551 4.33153C25.5696 3.8895 32.4304 3.88948 38.3449 4.33153C41.1975 4.54472 43.4553 6.8026 43.6685 9.65517C44.1105 15.5696 44.1105 22.4303 43.6685 28.3449C43.4553 31.1976 41.1974 33.4555 38.3447 33.6686C32.4303 34.1105 25.5697 34.1105 19.6553 33.6686C16.8026 33.4555 14.5447 31.1976 14.3315 28.3449ZM18.3204 9.95328C17.8932 15.6693 17.8932 22.3307 18.3204 28.0468C18.386 28.9254 19.0747 29.6141 19.9533 29.6797C25.6693 30.1068 32.3307 30.1068 38.0467 29.6797C38.9253 29.6141 39.614 28.9254 39.6796 28.0468C40.1068 22.3307 40.1068 15.6692 39.6796 9.95326C39.614 9.0747 38.9253 8.38606 38.0468 8.3204C32.3308 7.89319 25.6693 7.89321 19.9532 8.32041C19.0747 8.38607 18.386 9.07472 18.3204 9.95328Z" fill="#646464"/>
</svg>
