<svg width="48" height="48" viewBox="0 0 48 48" fill="none" xmlns="http://www.w3.org/2000/svg">
<path fill-rule="evenodd" clip-rule="evenodd" d="M37.0497 4.49803C40.5223 4.78017 43.2194 7.47726 43.5015 10.9499C43.7218 13.661 43.9498 17.9322 43.9498 23.9998C43.9498 30.0674 43.7218 34.3387 43.5015 37.0498C43.2194 40.5224 40.5223 43.2194 37.0497 43.5015C34.3386 43.7218 30.0674 43.9498 23.9998 43.9498C17.9322 43.9498 13.661 43.7218 10.9498 43.5015C7.47724 43.2194 4.78018 40.5223 4.49804 37.0497C4.27777 34.3387 4.0498 30.0674 4.0498 23.9998C4.0498 17.9323 4.27776 13.661 4.49803 10.9499C4.78017 7.47726 7.47725 4.78018 10.9498 4.49804C13.661 4.27776 17.9323 4.0498 23.9998 4.0498C30.0674 4.0498 34.3387 4.27776 37.0497 4.49803ZM13.8665 20.3354C13.8665 16.8365 16.703 14 20.2019 14C23.7008 14 26.5373 16.8365 26.5373 20.3354C26.5373 22.5166 25.4351 24.4395 23.7584 25.5789C26.2427 26.6927 28.0917 28.9393 28.6086 31.6524C28.7191 32.2325 28.6089 32.7953 28.2898 33.2387C27.9703 33.6826 27.4711 33.9655 26.8831 34.0408C25.7318 34.1882 23.7193 34.326 20.2038 34.326C16.6883 34.326 14.6758 34.1882 13.5245 34.0408C12.9365 33.9655 12.4374 33.6826 12.1179 33.2387C11.7987 32.7953 11.6885 32.2325 11.799 31.6524C12.3158 28.9401 14.1638 26.6941 16.6469 25.58C14.9694 24.4407 13.8665 22.5172 13.8665 20.3354ZM29.5752 34.1639C29.5388 34.2144 29.5014 34.2636 29.4628 34.3116C31.8535 34.2726 33.3447 34.1598 34.2744 34.0408C34.8624 33.9655 35.3615 33.6826 35.681 33.2387C36.0002 32.7953 36.1104 32.2325 35.9998 31.6524C35.483 28.9393 33.634 26.6927 31.1497 25.5789C32.8263 24.4395 33.9286 22.5166 33.9286 20.3354C33.9286 16.8365 31.0921 14 27.5932 14C26.831 14 26.1003 14.1346 25.4234 14.3813C27.0771 15.8327 28.121 17.9621 28.121 20.3354C28.121 22.215 27.4656 23.9407 26.3738 25.2973C28.3052 26.7557 29.6942 28.8881 30.1644 31.356C30.3471 32.3151 30.1755 33.3298 29.5752 34.1639Z" fill="#646464"/>
</svg>
