<svg width="48" height="48" viewBox="0 0 48 48" fill="none" xmlns="http://www.w3.org/2000/svg">
<path fill-rule="evenodd" clip-rule="evenodd" d="M8.34003 41.66C9.75458 41.8792 11.3279 41.9991 13.06 42C13.0534 42 13.0467 42 13.04 42H13.08C13.0734 42 13.0667 42 13.06 42C14.7923 41.9991 16.3854 41.8792 17.78 41.66C20.12 41.3 21.8 39.32 21.9 36.84L21.96 35.4L21.9647 35.2933C22.0431 33.5119 22.12 31.7646 22.12 25.98C22.12 18.68 22 13.88 21.9 11.14C21.82 8.66 20.12 6.68001 17.8 6.32C15 5.9 11.16 5.9 8.34003 6.32C6.02003 6.70001 4.32003 8.68 4.22003 11.16C4.12003 13.9 4.00003 18.7 4.02003 25.98C4.02003 31.8032 4.09743 33.5433 4.17611 35.3118L4.18003 35.4L4.24003 36.84C4.32003 39.32 6.02003 41.3 8.34003 41.66ZM8.96003 10.28C10.16 10.1 11.54 10 13.08 10C14.6 10 16 10.1 17.2 10.28C17.7 10.36 17.92 10.88 17.92 11.3C18.02 14.02 18.14 18.76 18.14 26C18.14 31.7034 18.0627 33.4035 17.984 35.1321L17.98 35.22L17.92 36.7C17.9 37.12 17.7 37.64 17.2 37.72C14.78 38.1 11.38 38.1 8.96003 37.72C8.46003 37.64 8.24003 37.12 8.24003 36.7L8.18003 35.22L8.17527 35.1155C8.09689 33.3934 8.02003 31.7047 8.02003 26C8.02003 18.76 8.14003 14 8.24003 11.3C8.26003 10.88 8.46003 10.36 8.96003 10.28Z" fill="#646464"/>
<path fill-rule="evenodd" clip-rule="evenodd" d="M30.88 27.14C32.1516 27.2393 33.5416 27.2795 35.05 27.28C35.04 27.28 35.03 27.28 35.02 27.28H35.08C35.07 27.28 35.06 27.28 35.05 27.28C36.5584 27.2795 37.9484 27.2393 39.22 27.14C41.84 26.96 43.82 24.88 43.96 22.22L44.02 21.34C44.08 20.5 44.12 19.88 44.12 17.64C44.12 15.18 44.08 12.96 43.98 11.06C43.84 8.4 41.86 6.34 39.24 6.14001C36.72 5.96 33.38 5.96 30.86 6.14001C28.24 6.32 26.26 8.4 26.12 11.06C26.02 12.96 25.98 15.18 25.98 17.64C25.98 19.88 26.02 20.5 26.08 21.34L26.14 22.22C26.28 24.88 28.26 26.94 30.88 27.14ZM30.14 11.26C30.18 10.6 30.58 10.16 31.18 10.12C33.5 9.96 36.64 9.96 38.98 10.12C39.58 10.18 39.98 10.62 40.02 11.26C40.12 13.1 40.16 15.24 40.16 17.64C40.16 19.5512 40.1262 20.196 40.0897 20.8932C40.0865 20.9547 40.0832 21.0167 40.08 21.08L40.02 22.02C39.98 22.68 39.58 23.12 38.98 23.16C36.64 23.32 33.52 23.32 31.18 23.16C30.58 23.1 30.18 22.66 30.14 22.02L30.08 21.08C30.0767 21.0167 30.0735 20.9547 30.0703 20.8931C30.0338 20.196 30 19.5512 30 17.64C30 15.24 30.04 13.1 30.14 11.26Z" fill="#646464"/>
</svg>
