<svg width="48" height="48" viewBox="0 0 48 48" fill="none" xmlns="http://www.w3.org/2000/svg">
<path fill-rule="evenodd" clip-rule="evenodd" d="M4.49828 37.05C4.27801 34.3389 4.05005 30.0676 4.05005 24.0001C4.05005 17.9325 4.27801 13.6612 4.49829 10.9501C4.78042 7.47749 7.47751 4.78041 10.9501 4.49828C13.6612 4.278 17.9325 4.05005 24 4.05005C30.0676 4.05005 34.3389 4.27801 37.05 4.49828C40.5226 4.78042 43.2197 7.47751 43.5018 10.9501C43.7221 13.6612 43.9501 17.9325 43.9501 24.0001C43.9501 30.0676 43.7221 34.3389 43.5018 37.05C43.2197 40.5226 40.5226 43.2197 37.05 43.5018C34.3389 43.7221 30.0676 43.9501 24 43.9501C17.9325 43.9501 13.6612 43.7221 10.9501 43.5018C7.47749 43.2197 4.78043 40.5226 4.49828 37.05ZM31.8089 33.6857C31.0386 33.5579 30.6137 32.8477 30.5947 32.067C30.5606 30.6729 30.5155 28.0596 30.5155 24.0024C30.5155 19.9453 30.5606 17.332 30.5947 15.9378C30.6137 15.1572 31.0386 14.447 31.8089 14.3192C32.1233 14.2671 32.5047 14.231 32.9584 14.231C33.4121 14.231 33.7936 14.2671 34.1078 14.3192C34.8781 14.447 35.303 15.1572 35.3221 15.9378C35.3561 17.332 35.4012 19.9453 35.4012 24.0024C35.4012 28.0596 35.3561 30.6729 35.3221 32.067C35.303 32.8477 34.8781 33.5579 34.1078 33.6857C33.7935 33.7378 33.4121 33.7739 32.9584 33.7739C32.5047 33.7739 32.1233 33.7378 31.8089 33.6857ZM23.0868 33.7357C22.1968 33.6569 21.6431 32.8909 21.6179 31.9977C21.5877 30.9313 21.5564 29.2468 21.5564 26.8524C21.5564 24.458 21.5877 22.7736 21.6179 21.7071C21.6431 20.814 22.1968 20.0479 23.0868 19.9692C23.3506 19.9458 23.654 19.931 23.9993 19.931C24.3445 19.931 24.6479 19.9458 24.9117 19.9692C25.8017 20.0479 26.3554 20.814 26.3806 21.7071C26.4108 22.7736 26.4421 24.458 26.4421 26.8524C26.4421 29.2468 26.4108 30.9313 26.3806 31.9977C26.3554 32.8909 25.8017 33.6569 24.9117 33.7357C24.6479 33.759 24.3445 33.7739 23.9993 33.7739C23.654 33.7739 23.3506 33.759 23.0868 33.7357ZM14.3751 33.7567C13.3681 33.7201 12.6603 32.9135 12.6302 31.9063C12.6129 31.3321 12.6 30.6004 12.6 29.6969C12.6 28.7933 12.6129 28.0616 12.6302 27.4875C12.6603 26.4803 13.3681 25.6736 14.3751 25.6371C14.5775 25.6298 14.7998 25.6254 15.0429 25.6254C15.286 25.6254 15.5084 25.6298 15.7107 25.6371C16.7178 25.6736 17.4255 26.4803 17.4557 27.4875C17.4729 28.0616 17.4858 28.7933 17.4858 29.6969C17.4858 30.6004 17.4729 31.3321 17.4557 31.9063C17.4255 32.9135 16.7178 33.7201 15.7107 33.7567C15.5084 33.764 15.286 33.7683 15.0429 33.7683C14.7998 33.7683 14.5775 33.764 14.3751 33.7567Z" fill="#AB4ABA"/>
</svg>
