<svg width="48" height="48" viewBox="0 0 48 48" fill="none" xmlns="http://www.w3.org/2000/svg">
<path fill-rule="evenodd" clip-rule="evenodd" d="M43.5506 10.9173C43.2678 7.43604 40.5639 4.7322 37.0826 4.44935C34.3648 4.22852 30.0828 4 24 4C17.9172 4 13.6353 4.22853 10.9173 4.44936C7.43604 4.7322 4.7322 7.43605 4.44935 10.9173C4.22852 13.6353 4 17.9172 4 24C4 30.0828 4.22853 34.3648 4.44936 37.0826C4.7322 40.5639 7.43603 43.2678 10.9173 43.5506C13.6352 43.7715 17.9172 44 24 44C30.0828 44 34.3647 43.7715 37.0826 43.5506C40.5639 43.2678 43.2678 40.564 43.5506 37.0827C43.7715 34.3648 44 30.0828 44 24C44 17.9172 43.7715 13.6353 43.5506 10.9173ZM20.7949 16.3698C18.9372 15.6353 17.1928 16.7539 16.9198 18.7328C16.7291 20.1148 16.5713 21.8985 16.5713 24.0172C16.5713 26.1361 16.7291 27.9196 16.9198 29.3018C17.1928 31.2806 18.9372 32.3993 20.7949 31.6646C21.9988 31.1886 23.5896 30.4674 25.647 29.3743C27.5983 28.3377 29.1302 27.4125 30.3101 26.6347C32.3283 25.3042 32.3283 22.7302 30.3101 21.3998C29.1302 20.622 27.5983 19.6968 25.647 18.6601C23.5896 17.5672 21.9988 16.8459 20.7949 16.3698Z" fill="#E5484D"/>
</svg>
