<svg width="48" height="48" viewBox="0 0 48 48" fill="none" xmlns="http://www.w3.org/2000/svg">
<path fill-rule="evenodd" clip-rule="evenodd" d="M10.34 43.54C12.98 43.74 17.5 44 24 44C30.5 44 35.02 43.76 37.66 43.54C40.82 43.28 43.28 40.8 43.54 37.66C43.74 35.04 44 30.56 44 24C44 17.44 43.76 12.96 43.54 10.34C43.28 7.18 40.8 4.72 37.66 4.46C35.02 4.26 30.52 4 24 4C17.48 4 12.98 4.24 10.34 4.46C7.2 4.72 4.72 7.2 4.46 10.34C4.26 12.98 4 17.48 4 24C4 30.52 4.24 35.02 4.46 37.66C4.72 40.82 7.2 43.28 10.34 43.54ZM18.28 8.07024C19.9706 8.02661 21.8755 8 24 8C30.4 8 34.78 8.26 37.34 8.46C38.56 8.56 39.46 9.48 39.56 10.68C39.6716 11.9787 39.7884 13.7408 39.8763 16H18.28V8.07024ZM18.28 20H39.9866C40.0079 21.2379 40.02 22.5769 40.02 24.02C40.02 25.4467 40.0072 26.7726 39.985 28H18.28V20ZM14.28 28V20H8.01593C7.99319 21.239 7.98 22.5783 7.98 24.02C7.98 25.4462 7.99192 26.7722 8.01288 28H14.28ZM8.12242 32H14.28V39.8112C12.8149 39.7368 11.6106 39.6543 10.66 39.58C9.44 39.48 8.54 38.56 8.44 37.36C8.32786 36.0551 8.21052 34.2772 8.12242 32ZM18.28 32V39.9653C19.9706 40.0112 21.8755 40.04 24 40.04C30.38 40.04 34.76 39.8 37.34 39.58C38.54 39.48 39.46 38.58 39.56 37.36C39.6622 36.0624 39.78 34.2846 39.8708 32H18.28ZM10.66 8.46C11.6106 8.37831 12.8149 8.29386 14.28 8.21997V16H8.13137C8.22189 13.7419 8.33865 11.9773 8.44 10.68C8.54 9.46 9.46 8.56 10.66 8.46Z" fill="#646464"/>
</svg>
