<svg width="48" height="48" viewBox="0 0 48 48" fill="none" xmlns="http://www.w3.org/2000/svg">
<path fill-rule="evenodd" clip-rule="evenodd" d="M15.6392 7.60657C14.7935 7.56925 14.0159 8.06841 13.6977 8.85286L8.32648 22.0945H6C4.89543 22.0945 4 22.99 4 24.0945C4 25.1991 4.89543 26.0945 6 26.0945H9.6735C10.4878 26.0945 11.2208 25.6009 11.5268 24.8463L15.2876 15.5749L22.455 38.981C22.7081 39.8076 23.4638 40.378 24.3282 40.395C25.1926 40.4119 25.97 39.8715 26.2553 39.0554L32.9061 20.0311L35.8643 25.1023C36.2227 25.7167 36.8805 26.0945 37.5918 26.0945H42C43.1046 26.0945 44 25.1991 44 24.0945C44 22.99 43.1046 22.0945 42 22.0945H38.7406L34.1765 14.2705C33.7834 13.5965 33.0342 13.2127 32.2575 13.2874C31.4808 13.3621 30.8185 13.8817 30.561 14.6182L24.4931 31.9753L17.4634 9.01903C17.2155 8.2096 16.4849 7.64389 15.6392 7.60657Z" fill="#646464"/>
</svg>
