<svg width="48" height="48" viewBox="0 0 48 48" fill="none" xmlns="http://www.w3.org/2000/svg">
<path fill-rule="evenodd" clip-rule="evenodd" d="M10.9501 4.49828C13.6612 4.278 17.9325 4.05005 24.0001 4.05005C30.0676 4.05005 34.3389 4.27801 37.05 4.49828C40.5226 4.78042 43.2197 7.47751 43.5018 10.9501C43.7221 13.6612 43.9501 17.9325 43.9501 24.0001C43.9501 30.0676 43.7221 34.3389 43.5018 37.05C43.2197 40.5226 40.5226 43.2197 37.05 43.5018C34.3389 43.7221 30.0676 43.9501 24.0001 43.9501C17.9325 43.9501 13.6612 43.7221 10.9501 43.5018C7.47748 43.2197 4.78041 40.5226 4.49828 37.05C4.278 34.3389 4.05005 30.0676 4.05005 24.0001C4.05005 17.9325 4.27801 13.6612 4.49829 10.9501C4.78042 7.47748 7.47752 4.78043 10.9501 4.49828Z" fill="#3E63DD"/>
<path d="M19.8834 12.7932C20.7951 12.9349 21.3791 13.7218 21.414 14.6438C21.4763 16.2831 21.5572 19.3171 21.5572 24C21.5572 28.683 21.4763 31.717 21.414 33.3563C21.3791 34.2783 20.7951 35.0652 19.8834 35.2069C19.2066 35.312 18.2809 35.4001 17.0786 35.4001C15.8763 35.4001 14.9506 35.312 14.2738 35.2069C13.3621 35.0652 12.7781 34.2783 12.7432 33.3563C12.681 31.717 12.6 28.683 12.6 24C12.6 19.3171 12.681 16.2831 12.7432 14.6438C12.7781 13.7218 13.3621 12.9349 14.2738 12.7932C14.9506 12.6881 15.8763 12.6 17.0786 12.6C18.2809 12.6 19.2066 12.6881 19.8834 12.7932Z" fill="white"/>
<path d="M28.3601 12.6846C27.3323 12.7598 26.5841 13.5735 26.5328 14.6028C26.486 15.5444 26.4437 16.8955 26.4437 18.7072C26.4437 20.519 26.486 21.87 26.5328 22.8116C26.5841 23.8409 27.3323 24.6546 28.3601 24.7298C29.0103 24.7774 29.8578 24.8143 30.9223 24.8143C31.9867 24.8143 32.8343 24.7774 33.4844 24.7298C34.5122 24.6546 35.2605 23.8409 35.3118 22.8116C35.3586 21.87 35.4008 20.519 35.4008 18.7072C35.4008 16.8955 35.3586 15.5444 35.3118 14.6028C35.2605 13.5735 34.5122 12.7598 33.4844 12.6846C32.8343 12.637 31.9867 12.6 30.9223 12.6C29.8578 12.6 29.0103 12.637 28.3601 12.6846Z" fill="white"/>
</svg>
