<svg width="48" height="48" viewBox="0 0 48 48" fill="none" xmlns="http://www.w3.org/2000/svg">
<path d="M36.8192 7.33892C38.8999 7.50797 40.4921 9.10014 40.6611 11.1809C40.8747 13.8096 41.1001 18.0036 41.1001 24C41.1001 29.9965 40.8747 34.1905 40.6611 36.8192C40.4921 38.8999 38.8999 40.4921 36.8192 40.6611C34.1905 40.8747 29.9965 41.1001 24 41.1001C18.0036 41.1001 13.8096 40.8747 11.1809 40.6611C9.10015 40.4921 7.50798 38.8999 7.33892 36.8192C7.12535 34.1905 6.90005 29.9965 6.90005 24C6.90005 18.0036 7.12534 13.8096 7.33892 11.1809C7.50797 9.10015 9.10014 7.50798 11.1809 7.33892C13.8096 7.12535 18.0036 6.90005 24 6.90005C29.9965 6.90005 34.1905 7.12534 36.8192 7.33892Z" fill="#12A594"/>
<path fill-rule="evenodd" clip-rule="evenodd" d="M7.33892 36.8192C7.12535 34.1905 6.90005 29.9965 6.90005 24C6.90005 18.0036 7.12534 13.8096 7.33892 11.1809C7.50797 9.10015 9.10014 7.50798 11.1809 7.33892C13.8096 7.12535 18.0036 6.90005 24 6.90005C29.9965 6.90005 34.1905 7.12534 36.8192 7.33892C38.8999 7.50797 40.4921 9.10014 40.6611 11.1809C40.8747 13.8096 41.1001 18.0036 41.1001 24C41.1001 29.9965 40.8747 34.1905 40.6611 36.8192C40.4921 38.8999 38.8999 40.4921 36.8192 40.6611C34.1905 40.8747 29.9965 41.1001 24 41.1001C18.0036 41.1001 13.8096 40.8747 11.1809 40.6611C9.10015 40.4921 7.50798 38.8999 7.33892 36.8192ZM37.05 4.49828C40.5226 4.78041 43.2197 7.4775 43.5018 10.9501C43.7221 13.6612 43.9501 17.9325 43.9501 24C43.9501 30.0676 43.7221 34.3389 43.5018 37.05C43.2197 40.5226 40.5226 43.2197 37.05 43.5018C34.3389 43.7221 30.0676 43.9501 24 43.9501C17.9325 43.9501 13.6612 43.7221 10.9501 43.5018C7.47748 43.2197 4.78042 40.5226 4.49828 37.05C4.27801 34.3389 4.05005 30.0676 4.05005 24C4.05005 17.9325 4.278 13.6612 4.49828 10.9501C4.78041 7.4775 7.4775 4.78042 10.9501 4.49828C13.6612 4.27801 17.9325 4.05005 24 4.05005C30.0676 4.05005 34.3389 4.278 37.05 4.49828Z" fill="#12A594"/>
<path fill-rule="evenodd" clip-rule="evenodd" d="M15.9844 30.5308C14.4188 30.5308 13.2154 30.462 12.3922 30.3912C11.3395 30.3006 10.536 29.4769 10.4653 28.4253C10.4042 27.5161 10.3438 26.0889 10.3438 23.9996C10.3438 21.9102 10.4042 20.4831 10.4653 19.5738C10.536 18.5222 11.3395 17.6985 12.3922 17.608C13.2154 17.5372 14.4188 17.4683 15.9844 17.4683C17.5501 17.4683 18.7534 17.5372 19.5766 17.608C20.6293 17.6985 21.4329 18.5222 21.5036 19.5738C21.5647 20.4831 21.625 21.9102 21.625 23.9996C21.625 26.0889 21.5647 27.5161 21.5036 28.4254C21.4329 29.477 20.6293 30.3006 19.5766 30.3912C18.7534 30.462 17.5501 30.5308 15.9844 30.5308ZM27.2657 30.5308C26.1771 30.5308 25.3419 30.4811 24.7338 30.4219C23.6909 30.3205 22.9612 29.479 22.9083 28.4747C22.8607 27.5722 22.8126 26.1319 22.8126 23.9996C22.8126 21.8673 22.8607 20.427 22.9083 19.5245C22.9612 18.5202 23.6909 17.6786 24.7338 17.5772C25.3419 17.5181 26.1771 17.4683 27.2657 17.4683C28.3543 17.4683 29.1894 17.5181 29.7975 17.5772C30.8404 17.6786 31.5702 18.5202 31.6231 19.5245C31.6706 20.427 31.7188 21.8673 31.7188 23.9996C31.7188 26.1319 31.6706 27.5722 31.6231 28.4747C31.5702 29.479 30.8404 30.3205 29.7975 30.4219C29.1894 30.4811 28.3543 30.5308 27.2657 30.5308ZM34.4606 30.4672C34.7086 30.5041 34.9886 30.5308 35.2813 30.5308C35.574 30.5308 35.854 30.5041 36.102 30.4672C37.0318 30.329 37.5843 29.5135 37.6066 28.6815C37.6301 27.8083 37.6563 26.3139 37.6563 23.9996C37.6563 21.6853 37.6301 20.1909 37.6066 19.3177C37.5843 18.4857 37.0318 17.6702 36.102 17.532C35.854 17.4951 35.574 17.4683 35.2813 17.4683C34.9886 17.4683 34.7086 17.4951 34.4606 17.532C33.5308 17.6702 32.9783 18.4857 32.956 19.3177C32.9325 20.1909 32.9063 21.6853 32.9063 23.9996C32.9063 26.3139 32.9325 27.8083 32.956 28.6815C32.9783 29.5135 33.5308 30.329 34.4606 30.4672Z" fill="white"/>
</svg>
