<svg width="48" height="48" viewBox="0 0 48 48" fill="none" xmlns="http://www.w3.org/2000/svg">
<path d="M7.78471 9.02761C6.66983 9.0842 6.02092 9.92193 6.00598 11.0381C6.00225 11.3168 6 11.6358 6 12C6 12.3642 6.00225 12.6832 6.00598 12.9619C6.02092 14.0781 6.66983 14.9158 7.78471 14.9724C8.12145 14.9895 8.52261 15 9 15C9.47739 15 9.87855 14.9895 10.2153 14.9724C11.3302 14.9158 11.9791 14.0781 11.994 12.9619C11.9977 12.6832 12 12.3642 12 12C12 11.6358 11.9977 11.3168 11.994 11.0381C11.9791 9.92193 11.3302 9.0842 10.2153 9.02761C9.87855 9.01052 9.47739 9 9 9C8.52261 9 8.12145 9.01052 7.78471 9.02761Z" fill="#646464"/>
<path d="M7.78471 21.0276C6.66983 21.0842 6.02092 21.9219 6.00598 23.0381C6.00225 23.3168 6 23.6358 6 24C6 24.3642 6.00225 24.6832 6.00598 24.9619C6.02092 26.0781 6.66983 26.9158 7.78471 26.9724C8.12145 26.9895 8.52261 27 9 27C9.47739 27 9.87855 26.9895 10.2153 26.9724C11.3302 26.9158 11.9791 26.0781 11.994 24.9619C11.9977 24.6832 12 24.3642 12 24C12 23.6358 11.9977 23.3168 11.994 23.0381C11.9791 21.9219 11.3302 21.0842 10.2153 21.0276C9.87855 21.0105 9.47739 21 9 21C8.52261 21 8.12145 21.0105 7.78471 21.0276Z" fill="#646464"/>
<path d="M6.00598 35.0381C6.02092 33.9219 6.66983 33.0842 7.78471 33.0276C8.12145 33.0105 8.52261 33 9 33C9.47739 33 9.87855 33.0105 10.2153 33.0276C11.3302 33.0842 11.9791 33.9219 11.994 35.0381C11.9977 35.3168 12 35.6358 12 36C12 36.3642 11.9977 36.6832 11.994 36.9619C11.9791 38.0781 11.3302 38.9158 10.2153 38.9724C9.87855 38.9895 9.47739 39 9 39C8.52261 39 8.12145 38.9895 7.78471 38.9724C6.66983 38.9158 6.02092 38.0781 6.00598 36.9619C6.00225 36.6832 6 36.3642 6 36C6 35.6358 6.00225 35.3168 6.00598 35.0381Z" fill="#646464"/>
<path d="M17.6 9.96377C16.76 10.0038 16.08 10.4838 16.02 11.2838C16 11.4838 16 11.7038 16 11.9638C16 12.1023 16.0057 12.2295 16.011 12.3483C16.0156 12.4525 16.02 12.5504 16.02 12.6438C16.08 13.4438 16.76 13.9238 17.6 13.9638C19.02 14.0238 23.44 14.0837 29 14.0837C34.5599 14.0837 38.9799 14.0238 40.3999 13.9638C41.2399 13.9238 41.9199 13.4438 41.9799 12.6438C41.9999 12.4438 41.9999 12.2238 41.9999 11.9638C41.9999 11.8253 41.9943 11.6982 41.9889 11.5794C41.9843 11.4752 41.9799 11.3772 41.9799 11.2838C41.9199 10.4838 41.2399 10.0038 40.3999 9.96377C38.9799 9.90377 34.5599 9.84375 29 9.84375C23.44 9.84375 19.02 9.90377 17.6 9.96377Z" fill="#646464"/>
<path d="M16.02 23.3238C16.08 22.5238 16.76 22.0438 17.6 22.0037C19.02 21.9438 23.44 21.8837 29 21.8837C34.5599 21.8837 38.9799 21.9437 40.3999 22.0037C41.2399 22.0437 41.9199 22.5238 41.9799 23.3237C41.9799 23.4171 41.9843 23.5148 41.9889 23.6189C41.9942 23.7375 41.9999 23.8656 41.9999 24.0037C41.9999 24.2637 41.9999 24.4837 41.9799 24.6837C41.9199 25.4837 41.2399 25.9637 40.3999 26.0037C38.9799 26.0637 34.5599 26.1237 29 26.1237C23.44 26.1237 19.02 26.0638 17.6 26.0038C16.76 25.9638 16.08 25.4838 16.02 24.6838C16.02 24.5903 16.0156 24.4926 16.011 24.3884C16.0057 24.2696 16 24.1423 16 24.0037C16 23.7438 16 23.5238 16.02 23.3238Z" fill="#646464"/>
<path d="M16.02 35.3438C16.08 34.5438 16.76 34.0638 17.6 34.0238C19.02 33.9638 24.44 33.9037 30 33.9037C35.56 33.9037 38.98 33.94 40.4 34C41.24 34.04 41.92 34.52 41.98 35.32C41.98 35.4135 41.9844 35.5113 41.989 35.6155C41.9943 35.7343 42 35.8615 42 36C42 36.26 42 36.48 41.98 36.68C41.92 37.48 41.24 37.96 40.4 38C38.98 38.06 35.56 38.1437 30 38.1437C24.44 38.1437 19.02 38.0838 17.6 38.0238C16.76 37.9838 16.08 37.5038 16.02 36.7038C16.02 36.6104 16.0156 36.5126 16.011 36.4084C16.0057 36.2896 16 36.1623 16 36.0238C16 35.7638 16 35.5438 16.02 35.3438Z" fill="#646464"/>
</svg>
