<svg width="48" height="48" viewBox="0 0 48 48" fill="none" xmlns="http://www.w3.org/2000/svg">
<path fill-rule="evenodd" clip-rule="evenodd" d="M43.5015 10.9499C43.2194 7.47726 40.5223 4.78017 37.0497 4.49803C34.3386 4.27776 30.0674 4.0498 23.9998 4.0498C17.9323 4.0498 13.661 4.27777 10.9499 4.49804C7.47725 4.78018 4.78017 7.47726 4.49803 10.9499C4.27776 13.661 4.0498 17.9323 4.0498 23.9998C4.0498 30.0674 4.27777 34.3387 4.49804 37.0497C4.78018 40.5223 7.47724 43.2194 10.9498 43.5015C13.661 43.7218 17.9322 43.9498 23.9998 43.9498C30.0674 43.9498 34.3386 43.7218 37.0497 43.5015C40.5223 43.2194 43.2194 40.5224 43.5015 37.0498C43.7218 34.3387 43.9498 30.0674 43.9498 23.9998C43.9498 17.9322 43.7218 13.661 43.5015 10.9499ZM15.2448 12C14.8931 12 14.5578 12.1554 14.3218 12.4277C14.0858 12.7 13.9712 13.0647 14.0062 13.4301L14.0077 13.4465L14.0128 13.5003L14.0322 13.7119C14.049 13.8973 14.0731 14.1688 14.102 14.5111C14.1599 15.196 14.2371 16.1637 14.3143 17.2926C14.4691 19.556 14.6223 22.4455 14.6223 25C14.6223 27.5544 14.4691 30.4439 14.3143 32.7073C14.2371 33.8362 14.1599 34.8039 14.102 35.4888C14.0731 35.8311 14.049 36.1026 14.0322 36.288L14.0128 36.4996L14.0077 36.5534L14.0061 36.5706C13.9377 37.285 14.4368 37.922 15.1209 37.9935C15.805 38.0649 16.4151 37.5435 16.4835 36.8291L16.4908 36.7517L16.5108 36.5329C16.5281 36.3425 16.5526 36.0656 16.5821 35.7173C16.6409 35.0209 16.7193 34.0386 16.7977 32.8925C16.8763 31.7434 16.9553 30.424 17.0144 29.06C17.969 29.2286 18.8832 29.5121 19.8665 29.8201L19.918 29.8363C21.4485 30.3158 23.153 30.8499 25.2036 30.8499C27.204 30.8499 29.0343 30.5027 30.4565 30.0659C31.168 29.8474 31.7919 29.602 32.2947 29.3569C32.7589 29.1307 33.2363 28.8499 33.553 28.5193C34.0481 28.0023 34.0263 27.3552 33.9713 27.0215C33.9145 26.6771 33.7789 26.3534 33.6598 26.1046C33.4398 25.6451 33.1069 25.1054 32.8002 24.6083L32.7085 24.4596C32.3551 23.8855 32.0209 23.3316 31.7731 22.8139C31.5115 22.2676 31.4279 21.9238 31.4279 21.75C31.4279 21.5429 31.5307 21.1024 31.8097 20.3991C32.0716 19.7388 32.4199 19.01 32.7748 18.2689L32.7951 18.2265C33.1294 17.5282 33.4812 16.7935 33.7066 16.1884C33.8196 15.8848 33.9317 15.5349 33.9773 15.1941C34.0116 14.9384 34.0766 14.2276 33.553 13.6808C33.2181 13.331 32.8122 13.2083 32.5326 13.1593C32.2436 13.1086 31.9471 13.112 31.6855 13.1302C31.1664 13.1664 30.5291 13.2831 29.8889 13.401L29.81 13.4156C28.4907 13.6588 26.9116 13.95 25.2036 13.95C23.5427 13.95 22.1503 13.5212 20.5819 13.0298L20.5303 13.0137C18.9998 12.5341 17.2953 12 15.2448 12Z" fill="#646464"/>
</svg>
