<svg width="48" height="48" viewBox="0 0 48 48" fill="none" xmlns="http://www.w3.org/2000/svg">
<path fill-rule="evenodd" clip-rule="evenodd" d="M37.05 4.49828C40.5226 4.78041 43.2197 7.4775 43.5018 10.9501C43.7221 13.6612 43.9501 17.9325 43.9501 24C43.9501 30.0676 43.7221 34.3389 43.5018 37.05C43.2197 40.5226 40.5226 43.2197 37.05 43.5018C34.3389 43.7221 30.0676 43.9501 24 43.9501C17.9325 43.9501 13.6612 43.7221 10.9501 43.5018C7.47748 43.2197 4.78042 40.5226 4.49828 37.05C4.27801 34.3389 4.05005 30.0676 4.05005 24C4.05005 17.9325 4.278 13.6612 4.49828 10.9501C4.78041 7.47751 7.4775 4.78042 10.9501 4.49828C13.6612 4.27801 17.9325 4.05005 24 4.05005C30.0676 4.05005 34.3389 4.278 37.05 4.49828Z" fill="#A18072"/>
<path d="M35.3675 15.9197C35.2953 16.8273 34.5204 17.4016 33.6104 17.4278C32.6021 17.4568 31.0531 17.4858 28.8862 17.4858C26.7193 17.4858 25.1703 17.4568 24.1619 17.4278C23.252 17.4016 22.477 16.8273 22.4049 15.9197C22.3846 15.6644 22.3719 15.3727 22.3719 15.0429C22.3719 14.7131 22.3846 14.4214 22.4049 14.1661C22.477 13.2586 23.252 12.6842 24.1619 12.658C25.1703 12.629 26.7193 12.6 28.8862 12.6C31.0531 12.6 32.6021 12.629 33.6104 12.658C34.5204 12.6842 35.2953 13.2586 35.3675 14.1661C35.3877 14.4214 35.4004 14.7131 35.4004 15.0429C35.4004 15.3727 35.3877 15.6644 35.3675 15.9197Z" fill="white"/>
<path d="M25.5956 32.0788C25.5235 31.1713 24.7485 30.5969 23.8386 30.5707C22.8302 30.5417 21.2812 30.5127 19.1143 30.5127C16.9474 30.5127 15.3984 30.5417 14.3901 30.5707C13.4801 30.5969 12.7052 31.1713 12.633 32.0788C12.6128 32.3341 12.6 32.6258 12.6 32.9556C12.6 33.2854 12.6128 33.5771 12.633 33.8324C12.7052 34.7399 13.4801 35.3143 14.3901 35.3405C15.3984 35.3695 16.9474 35.3985 19.1143 35.3985C21.2812 35.3985 22.8302 35.3695 23.8386 35.3405C24.7485 35.3143 25.5235 34.7399 25.5956 33.8324C25.6159 33.5771 25.6286 33.2854 25.6286 32.9556C25.6286 32.6258 25.6159 32.3341 25.5956 32.0788Z" fill="white"/>
<path d="M30.4802 24.8761C30.408 25.7836 29.6331 26.3579 28.7231 26.3841C27.7148 26.4131 26.1658 26.4421 23.9989 26.4421C21.832 26.4421 20.2829 26.4131 19.2746 26.3841C18.3647 26.3579 17.5897 25.7836 17.5176 24.8761C17.4973 24.6207 17.4846 24.329 17.4846 23.9993C17.4846 23.6695 17.4973 23.3778 17.5176 23.1224C17.5897 22.2149 18.3647 21.6406 19.2746 21.6144C20.2829 21.5854 21.832 21.5564 23.9989 21.5564C26.1658 21.5564 27.7148 21.5854 28.7231 21.6144C29.6331 21.6406 30.408 22.2149 30.4802 23.1224C30.5004 23.3778 30.5131 23.6695 30.5131 23.9993C30.5131 24.329 30.5004 24.6207 30.4802 24.8761Z" fill="white"/>
</svg>
