<svg width="48" height="48" viewBox="0 0 48 48" fill="none" xmlns="http://www.w3.org/2000/svg">
<path fill-rule="evenodd" clip-rule="evenodd" d="M43.5018 10.9501C43.2197 7.4775 40.5226 4.78041 37.05 4.49828C34.3389 4.278 30.0676 4.05005 24 4.05005C17.9325 4.05005 13.6612 4.27801 10.9501 4.49828C7.4775 4.78042 4.78041 7.4775 4.49828 10.9501C4.278 13.6612 4.05005 17.9325 4.05005 24C4.05005 30.0676 4.27801 34.3389 4.49828 37.05C4.78042 40.5226 7.47748 43.2197 10.9501 43.5018C13.6612 43.7221 17.9325 43.9501 24 43.9501C30.0676 43.9501 34.3389 43.7221 37.05 43.5018C40.5226 43.2197 43.2197 40.5226 43.5018 37.05C43.7221 34.3389 43.9501 30.0676 43.9501 24C43.9501 17.9325 43.7221 13.6612 43.5018 10.9501ZM28.9797 15.6266C29.6599 15.6063 30.285 15.9995 30.5614 16.6214L33.4718 23.17H36.5736C37.4995 23.17 38.25 23.9206 38.25 24.8465C38.25 25.7723 37.4995 26.5229 36.5736 26.5229H32.3824C31.7198 26.5229 31.1195 26.1327 30.8505 25.5274L29.161 21.7261L25.5698 31.3027C25.3289 31.9452 24.7207 32.3759 24.0348 32.3902C23.3489 32.4043 22.7234 31.9991 22.4561 31.3673L19.1506 23.5542L17.9041 25.6911C17.6036 26.2062 17.0522 26.5229 16.4559 26.5229H11.4265C10.5006 26.5229 9.75005 25.7724 9.75005 24.8465C9.75005 23.9205 10.5006 23.17 11.4265 23.17H15.4931L17.9416 18.9723C18.2615 18.424 18.8635 18.1034 19.4968 18.1439C20.1303 18.1845 20.6864 18.5793 20.9337 19.1638L23.9062 26.1897L27.4597 16.7137C27.6987 16.0764 28.2993 15.6468 28.9797 15.6266Z" fill="#0091FF"/>
</svg>
