<svg width="48" height="48" viewBox="0 0 48 48" fill="none" xmlns="http://www.w3.org/2000/svg">
<path d="M24 27C25.1 27 26 26.1 26 25V17C26 15.9 25.1 15 24 15C22.9 15 22 15.9 22 17V25C22 26.1 22.9 27 24 27Z" fill="#646464"/>
<path d="M24 35.5C25.3807 35.5 26.5 34.3807 26.5 33C26.5 31.6193 25.3807 30.5 24 30.5C22.6193 30.5 21.5 31.6193 21.5 33C21.5 34.3807 22.6193 35.5 24 35.5Z" fill="#646464"/>
<path fill-rule="evenodd" clip-rule="evenodd" d="M9.17852 41.3C12.2985 41.6 17.4185 41.96 23.9985 41.96L24.0385 41.98C30.6185 41.98 35.7185 41.62 38.8585 41.32C40.6985 41.14 42.2785 40.22 43.1985 38.8C44.0785 37.42 44.2785 35.78 43.7385 34.16C42.5185 30.48 40.4185 25.88 37.5185 20.5C33.6785 13.42 30.5385 8.86 28.5585 6.3C27.4185 4.84 25.7785 4 24.0185 4C22.2585 4 20.5985 4.84 19.4785 6.3C17.4985 8.86 14.3385 13.4 10.5185 20.5C7.59852 25.88 5.51852 30.48 4.29852 34.16C3.75852 35.78 3.95852 37.42 4.83852 38.78C5.77852 40.2 7.35852 41.12 9.17852 41.3ZM23.9985 37.96C17.5785 37.96 12.5985 37.62 9.55852 37.32C8.95852 37.26 8.45852 37 8.19852 36.6C7.97852 36.28 7.93852 35.88 8.09852 35.42C8.87852 33.04 10.5585 28.86 14.0385 22.4C17.7385 15.54 20.7585 11.18 22.6385 8.72C23.3785 7.76 24.6185 7.76 25.3585 8.72C27.2385 11.18 30.2585 15.54 33.9585 22.4C37.4385 28.86 39.1185 33.04 39.8985 35.42C40.0585 35.86 40.0185 36.26 39.7985 36.6C39.5385 37 39.0385 37.26 38.4385 37.32C35.3985 37.62 30.4185 37.96 23.9985 37.96Z" fill="#646464"/>
</svg>
