<svg width="48" height="48" viewBox="0 0 48 48" fill="none" xmlns="http://www.w3.org/2000/svg">
<path fill-rule="evenodd" clip-rule="evenodd" d="M4 22C4 20.8954 4.89543 20 6 20C7.36929 20 8.47342 20.3527 9.3905 20.9444C10.2477 21.4974 10.8549 22.2118 11.2706 22.7008L11.2739 22.7047C11.747 23.2614 11.9897 23.5417 12.2721 23.7411C12.4721 23.8823 12.7206 24 13.2 24C14.0354 24 14.4017 23.675 15.3134 22.6621C15.3356 22.6374 15.3581 22.6123 15.381 22.5869C16.2742 21.5924 17.7044 20 20.4 20C23.0956 20 24.5258 21.5924 25.419 22.5869C25.4419 22.6123 25.4644 22.6374 25.4866 22.6621C26.3983 23.675 26.7646 24 27.6 24C28.4354 24 28.8017 23.675 29.7134 22.6621C29.7356 22.6374 29.7581 22.6123 29.781 22.5869C30.6742 21.5924 32.1044 20 34.8 20C36.1206 20 37.1721 20.3823 38.0346 20.9911C38.7554 21.4998 39.3073 22.1529 39.6843 22.5989C39.7154 22.6357 39.7452 22.671 39.7739 22.7047C40.2081 23.2155 40.475 23.4989 40.778 23.6944C41.0234 23.8527 41.3693 24 42 24C43.1046 24 44 24.8954 44 26C44 27.1046 43.1046 28 42 28C40.6307 28 39.5266 27.6473 38.6095 27.0556C37.7523 26.5025 37.1451 25.7882 36.7294 25.2992L36.7261 25.2953C36.253 24.7386 36.0103 24.4583 35.7279 24.2589C35.5279 24.1177 35.2794 24 34.8 24C33.9646 24 33.5983 24.325 32.6866 25.3379C32.6644 25.3626 32.6419 25.3877 32.619 25.4131C31.7258 26.4076 30.2956 28 27.6 28C24.9044 28 23.4742 26.4076 22.581 25.4131C22.5581 25.3877 22.5356 25.3626 22.5134 25.3379C21.6017 24.325 21.2354 24 20.4 24C19.5646 24 19.1983 24.325 18.2866 25.3379C18.2644 25.3626 18.2419 25.3877 18.219 25.4131C17.3258 26.4076 15.8956 28 13.2 28C11.8794 28 10.8279 27.6177 9.96538 27.0089C9.24463 26.5002 8.69269 25.8471 8.31567 25.4011C8.28464 25.3643 8.25478 25.329 8.22612 25.2953C7.7919 24.7845 7.52502 24.5011 7.222 24.3056C6.97658 24.1473 6.63071 24 6 24C4.89543 24 4 23.1046 4 22Z" fill="#646464"/>
</svg>
