<svg width="48" height="48" viewBox="0 0 48 48" fill="none" xmlns="http://www.w3.org/2000/svg">
<path fill-rule="evenodd" clip-rule="evenodd" d="M22.4901 8.49629C23.146 7.80273 23.6569 7.63636 24 7.63636C24.2012 7.63636 24.5758 7.72723 25.1109 8.18911C25.6448 8.65005 26.2377 9.39957 26.8155 10.4703C27.9691 12.6079 28.9243 15.7692 29.2924 19.6272C29.3877 20.6268 30.2754 21.3599 31.275 21.2645C32.2746 21.1692 33.0077 20.2815 32.9123 19.2819C32.5118 15.084 31.4631 11.444 30.039 8.78678C36.0874 11.1898 40.3636 17.0955 40.3636 24C40.3636 25.0042 41.1777 25.8182 42.1818 25.8182C43.186 25.8182 44 25.0042 44 24C44 12.9543 35.0457 4 24 4C12.9543 4 4 12.9543 4 24C4 35.0457 12.9543 44 24 44C25.0042 44 25.8182 43.186 25.8182 42.1818C25.8182 41.1777 25.0042 40.3636 24 40.3636C23.6569 40.3636 23.146 40.1973 22.4901 39.5037C21.8306 38.8063 21.1529 37.6996 20.5455 36.1812C19.4885 33.5387 18.7526 29.9209 18.5828 25.8182H22.1818C23.186 25.8182 24 25.0042 24 24C24 22.9958 23.186 22.1818 22.1818 22.1818H18.5828C18.7526 18.0791 19.4885 14.4613 20.5455 11.8188C21.1529 10.3004 21.8306 9.19369 22.4901 8.49629ZM14.9436 22.1818C15.1149 17.6961 15.9153 13.6032 17.1693 10.4683C17.4018 9.8869 17.6538 9.32878 17.9256 8.80089C12.4336 10.9978 8.4102 16.085 7.73623 22.1818H14.9436ZM7.73623 25.8182C8.4102 31.915 12.4336 37.0022 17.9256 39.1991C17.6538 38.6712 17.4018 38.1131 17.1693 37.5317C15.9153 34.3968 15.1149 30.3039 14.9436 25.8182H7.73623Z" fill="#646464"/>
<path fill-rule="evenodd" clip-rule="evenodd" d="M33.167 29.1527C30.9495 29.1527 29.1518 30.9503 29.1518 33.1678C29.1518 35.3854 30.9495 37.183 33.167 37.183C35.3845 37.183 37.1821 35.3854 37.1821 33.1678C37.1821 30.9503 35.3845 29.1527 33.167 29.1527ZM25.5154 33.1678C25.5154 28.942 28.9411 25.5163 33.167 25.5163C37.3928 25.5163 40.8185 28.942 40.8185 33.1678C40.8185 34.6217 40.413 35.9809 39.7089 37.1385L41.9526 39.3822C42.6627 40.0922 42.6627 41.2435 41.9526 41.9535C41.2426 42.6635 40.0914 42.6635 39.3813 41.9535L37.1376 39.7098C35.98 40.4139 34.6209 40.8194 33.167 40.8194C28.9411 40.8194 25.5154 37.3937 25.5154 33.1678Z" fill="#646464"/>
</svg>
