<svg width="48" height="48" viewBox="0 0 48 48" fill="none" xmlns="http://www.w3.org/2000/svg">
<path fill-rule="evenodd" clip-rule="evenodd" d="M20.977 14.3517C20.1808 13.5861 18.9147 13.6109 18.1491 14.4071C18.1494 14.4068 18.1491 14.4071 19.5907 15.7933L18.1491 14.4071L18.146 14.4104L18.1401 14.4165L18.1205 14.4371L18.0508 14.5107C17.9914 14.5739 17.9067 14.6646 17.8011 14.7797C17.5901 15.0097 17.2943 15.3382 16.9489 15.7389C16.2624 16.5355 15.3602 17.6403 14.5345 18.8394C13.7288 20.0096 12.9051 21.3983 12.4833 22.7461C12.0896 24.0044 11.8348 25.9985 13.4087 27.4069C14.9894 28.8213 16.9046 28.4452 18.1672 27.9558C19.3822 27.4848 20.6573 26.6625 21.7104 25.9833L21.8725 25.8788C23.0771 25.1029 24.0022 24.5277 24.7469 24.2666C24.8897 24.2166 25.0029 24.187 25.0895 24.1706C25.0788 24.2254 25.061 24.2966 25.032 24.3863C24.8553 24.9322 24.4612 25.6002 23.8909 26.5146L23.7863 26.6821C23.3062 27.4493 22.6858 28.441 22.3541 29.3915C22.167 29.9278 22.0104 30.6099 22.098 31.3507C22.1929 32.1525 22.5595 32.8892 23.1946 33.4688C23.849 34.0661 24.6315 34.3811 25.4581 34.4235C26.2309 34.4632 26.9321 34.2603 27.4942 34.0242C28.5081 33.5984 29.5319 32.8521 30.3246 32.2743L30.4588 32.1765C31.3946 31.4956 32.0641 31.0296 32.6116 30.8112C32.7254 30.7658 32.8053 30.7436 32.8562 30.7326C33.6796 31.4104 34.8987 31.3234 35.6165 30.5213C36.3531 29.6982 36.283 28.4338 35.4599 27.6972C34.012 26.4015 32.3284 26.6176 31.1297 27.0958C30.0504 27.5263 28.9814 28.3044 28.1676 28.8968L28.1054 28.9421C27.4071 29.4502 26.8622 29.8417 26.4048 30.1045C26.6144 29.7093 26.9091 29.234 27.2849 28.6314L27.3011 28.6055C27.8092 27.7908 28.4851 26.7072 28.8377 25.618C29.216 24.449 29.3498 22.8386 28.1425 21.4618C27.4887 20.7161 26.6516 20.2932 25.7379 20.1829C24.8888 20.0803 24.0858 20.2597 23.4236 20.4919C22.1619 20.9342 20.8352 21.7889 19.7581 22.4827L19.7065 22.516C18.4986 23.294 17.5359 23.9105 16.7214 24.2262C16.4834 24.3185 16.3107 24.3629 16.1929 24.3828C16.2081 24.2801 16.2396 24.1363 16.3008 23.9406C16.5419 23.1701 17.0944 22.1748 17.829 21.1079C18.5437 20.07 19.346 19.0847 19.9789 18.3503C20.2932 17.9856 20.5609 17.6884 20.7483 17.4841C20.8419 17.3821 20.9153 17.3036 20.9641 17.2517L21.0183 17.1943L21.0306 17.1815L21.0327 17.1792C21.798 16.383 21.7731 15.1172 20.977 14.3517ZM16.1902 24.6039C16.1883 24.6054 16.1836 24.5937 16.1813 24.5645C16.1909 24.5879 16.192 24.6025 16.1902 24.6039Z" fill="#646464"/>
<path fill-rule="evenodd" clip-rule="evenodd" d="M37.9311 4.71093C29.7354 4.09545 18.2183 4.09635 10.0321 4.71369C7.18067 4.92873 4.92872 7.18067 4.71369 10.0322C4.09544 18.2303 4.09544 29.7697 4.71369 37.9678C4.92872 40.8193 7.18066 43.0713 10.0321 43.2863C18.2303 43.9046 29.7697 43.9046 37.9678 43.2863C40.8196 43.0713 43.0707 40.819 43.2886 37.9697C43.9102 29.8432 43.9033 18.7568 43.2708 10.0768C43.0624 7.2162 40.8112 4.92722 37.9311 4.71093ZM10.3329 8.70237C18.3189 8.10012 29.6354 8.0992 37.6316 8.69969C38.5154 8.76607 39.2155 9.46336 39.2814 10.3674C39.9003 18.8624 39.9057 29.7492 39.3003 37.6646C39.2328 38.5461 38.5464 39.2313 37.667 39.2976C29.6691 39.9008 18.3309 39.9008 10.3329 39.2976C9.45335 39.2313 8.76869 38.5466 8.70236 37.667C8.09921 29.6691 8.09921 18.3309 8.70236 10.3329C8.76869 9.45336 9.45335 8.7687 10.3329 8.70237Z" fill="#646464"/>
</svg>
