<svg width="48" height="48" viewBox="0 0 48 48" fill="none" xmlns="http://www.w3.org/2000/svg">
<path d="M23.864 38.7468L23.4806 38.7454C23.1493 38.7439 22.6732 38.7408 22.0929 38.7345C20.9326 38.7221 19.3535 38.6973 17.6802 38.6476C16.0086 38.5979 14.2345 38.5232 12.6869 38.4103C11.1693 38.2996 9.77843 38.1468 8.92723 37.9191L8.92126 37.9175C7.9495 37.6516 7.06275 37.1396 6.34667 36.4309C5.63059 35.7222 5.10941 34.8408 4.83346 33.8718C4.82374 33.8377 4.81572 33.8031 4.80942 33.7682C4.25226 30.6794 3.98163 27.5457 4.00097 24.4072C3.98594 21.2921 4.25656 18.1821 4.80941 15.1164C4.81366 15.0929 4.8187 15.0694 4.82452 15.0462C5.07482 14.0462 5.58459 13.1299 6.30234 12.39C7.02008 11.65 7.92039 11.1126 8.91232 10.832L8.92721 10.8278C9.7784 10.6001 11.1693 10.4474 12.6869 10.3367C14.2345 10.2238 16.0086 10.1491 17.6802 10.0994C19.3535 10.0497 20.9326 10.0248 22.0929 10.0124C22.6732 10.0062 23.1493 10.0031 23.4806 10.0016L23.864 10.0002L23.9998 10L24.1358 10.0002L24.519 10.0014C24.8501 10.0028 25.326 10.0057 25.9061 10.0113C27.066 10.0227 28.6445 10.0453 30.317 10.0907C31.988 10.136 33.7606 10.2043 35.3064 10.3072C36.8243 10.4083 38.2074 10.5475 39.05 10.7532C39.0626 10.7563 39.0752 10.7596 39.0877 10.7632C40.0796 11.0438 40.9799 11.5812 41.6977 12.3212C42.4154 13.0611 42.9252 13.9774 43.1755 14.9774L43.1906 15.0476C43.7478 18.1367 44.0184 21.2706 43.999 24.4095C44.0098 27.5013 43.7392 30.5877 43.1906 33.6305C43.1863 33.6541 43.1813 33.6775 43.1755 33.7008C42.9252 34.7008 42.4154 35.617 41.6977 36.357C40.9799 37.0969 40.0796 37.6344 39.0877 37.915L39.0728 37.9191C38.2216 38.1468 36.8307 38.2996 35.3132 38.4103C33.7655 38.5232 31.9914 38.5979 30.3198 38.6476C28.6465 38.6973 27.0674 38.7221 25.9071 38.7345C25.3268 38.7408 24.8507 38.7439 24.5194 38.7454L24.136 38.7468L23.9998 38.747L23.864 38.7468Z" fill="#FF0000"/>
<path d="M20.1292 30.0334L30.0212 24.4079L20.1292 18.7823V30.0334Z" fill="white"/>
</svg>
