<svg width="48" height="48" viewBox="0 0 48 48" fill="none" xmlns="http://www.w3.org/2000/svg">
<path d="M44 24C44 26.1387 43.8281 28.2359 43.4996 30.2807C42.4124 37.0502 37.0501 42.4124 30.2807 43.4996C28.2358 43.8281 26.1386 44 24 44C21.8614 44 19.7642 43.8281 17.7193 43.4996C10.9499 42.4124 5.58763 37.0502 4.50036 30.2807C4.17193 28.2359 4 26.1387 4 24C4 21.8613 4.17193 19.7641 4.50036 17.7193C5.58764 10.9498 10.9499 5.5876 17.7194 4.50036C19.7643 4.17193 21.8614 4 24 4C26.1386 4 28.2358 4.17193 30.2807 4.50036C37.0501 5.5876 42.4124 10.9498 43.4997 17.7193C43.8281 19.7641 44 21.8613 44 24Z" fill="#0B5CFF"/>
<path d="M44 24C44 26.1387 43.8281 28.2359 43.4996 30.2807C42.4124 37.0502 37.0501 42.4124 30.2807 43.4996C28.2358 43.8281 26.1386 44 24 44C21.8614 44 19.7642 43.8281 17.7193 43.4996C10.9499 42.4124 5.58763 37.0502 4.50036 30.2807C4.17193 28.2359 4 26.1387 4 24C4 21.8613 4.17193 19.7641 4.50036 17.7193C5.58764 10.9498 10.9499 5.5876 17.7194 4.50036C19.7643 4.17193 21.8614 4 24 4C26.1386 4 28.2358 4.17193 30.2807 4.50036C37.0501 5.5876 42.4124 10.9498 43.4997 17.7193C43.8281 19.7641 44 21.8613 44 24Z" fill="url(#paint0_radial_3_18396)"/>
<path d="M44 24C44 26.1387 43.8281 28.2359 43.4996 30.2807C42.4124 37.0502 37.0501 42.4124 30.2807 43.4996C28.2358 43.8281 26.1386 44 24 44C21.8614 44 19.7642 43.8281 17.7193 43.4996C10.9499 42.4124 5.58763 37.0502 4.50036 30.2807C4.17193 28.2359 4 26.1387 4 24C4 21.8613 4.17193 19.7641 4.50036 17.7193C5.58764 10.9498 10.9499 5.5876 17.7194 4.50036C19.7643 4.17193 21.8614 4 24 4C26.1386 4 28.2358 4.17193 30.2807 4.50036C37.0501 5.5876 42.4124 10.9498 43.4997 17.7193C43.8281 19.7641 44 21.8613 44 24Z" fill="url(#paint1_radial_3_18396)"/>
<path d="M28.2857 29C28.2857 30.1834 27.3263 31.1428 26.1429 31.1428H16.8571C14.4902 31.1428 12.5714 29.2241 12.5714 26.8571V19C12.5714 17.8166 13.5308 16.8571 14.7143 16.8571H24C26.3669 16.8571 28.2857 18.7759 28.2857 21.1428V29ZM33.7143 18.1427L30.5714 20.4998C30.0318 20.9045 29.7143 21.5397 29.7143 22.2142L29.7143 25.7856C29.7143 26.4601 30.0319 27.0952 30.5715 27.4998L33.7143 29.857C34.4206 30.3867 35.4286 29.8828 35.4286 28.9998V18.9999C35.4286 18.117 34.4206 17.613 33.7143 18.1427Z" fill="white"/>
<defs>
<radialGradient id="paint0_radial_3_18396" cx="0" cy="0" r="1" gradientUnits="userSpaceOnUse" gradientTransform="translate(24 21.6754) scale(26.9652 22.537)">
<stop offset="0.82" stop-color="#0B5CFF" stop-opacity="0"/>
<stop offset="0.98" stop-color="#003CB3"/>
</radialGradient>
<radialGradient id="paint1_radial_3_18396" cx="0" cy="0" r="1" gradientUnits="userSpaceOnUse" gradientTransform="translate(24 26.3154) scale(26.9556 22.5289)">
<stop offset="0.8" stop-color="#0B5CFF" stop-opacity="0"/>
<stop offset="1" stop-color="#71A5F1"/>
</radialGradient>
</defs>
</svg>
