<svg width="48" height="48" viewBox="0 0 48 48" fill="none" xmlns="http://www.w3.org/2000/svg">
<path fill-rule="evenodd" clip-rule="evenodd" d="M6.14211 8.90177C8.13033 8.65706 11.9317 8.36377 18.7618 8.36377C23.1125 8.36377 26.2322 8.4828 28.4356 8.63203C32.0125 8.87429 34.6632 11.4447 35.2134 14.8651C37.1871 13.1816 39.0816 12.0596 40.454 11.3665C42.8232 10.17 45.3062 11.8137 45.5665 14.2133C45.7736 16.1239 46.0005 19.2911 46.0005 24.0005C46.0005 28.71 45.7737 31.8771 45.5665 33.7878C45.3062 36.1876 42.823 37.8309 40.454 36.6346C39.0894 35.9455 37.2086 34.8322 35.2469 33.1646C35.184 34.0388 35.117 34.7532 35.054 35.3258C34.8407 37.266 33.3973 38.8503 31.3814 39.0984C29.3933 39.343 25.5918 39.6363 18.7618 39.6363C14.4113 39.6363 11.2916 39.5173 9.08824 39.3681C5.23458 39.1072 2.45573 36.1439 2.22078 32.3265C2.09692 30.3142 2 27.5923 2 24.0001C2 18.1492 2.2571 14.6053 2.46951 12.6743C2.68291 10.7343 4.12602 9.1499 6.14211 8.90177ZM18.7618 12.3638C12.0331 12.3638 8.40526 12.6534 6.63076 12.8718C6.56486 12.8799 6.5362 12.902 6.51862 12.9203C6.49864 12.9412 6.45826 12.996 6.44553 13.1117C6.25239 14.8676 6 18.2618 6 24.0001C6 27.5213 6.09503 30.1605 6.21322 32.0807C6.33095 33.9936 7.61035 35.2589 9.35844 35.3772C11.4539 35.5191 14.4815 35.6363 18.7618 35.6363C25.4902 35.6363 29.1181 35.3467 30.8927 35.1283C30.9586 35.1202 30.9874 35.0982 31.005 35.0798C31.025 35.0589 31.0653 35.0041 31.078 34.8884C31.2712 33.1325 31.5236 29.7383 31.5236 24.0001C31.5236 20.4788 31.4285 17.8396 31.3104 15.9192C31.1926 14.0065 29.9133 12.7413 28.1653 12.6229C26.0698 12.481 23.0423 12.3638 18.7618 12.3638ZM41.652 15.2554C41.8247 17.0657 42.0005 19.9122 42.0005 24.0005C42.0005 28.0889 41.8247 30.9354 41.652 32.7457C40.1104 31.9025 38.0121 30.5082 36.0125 28.3819C35.8424 28.201 35.7457 27.9884 35.7203 27.7764C35.6306 27.0301 35.5244 25.7714 35.5244 24.0005C35.5244 22.2298 35.6306 20.9713 35.7202 20.2251C35.7456 20.0131 35.8424 19.8002 36.0125 19.6193C38.0121 17.4928 40.1104 16.0986 41.652 15.2554Z" fill="#646464"/>
</svg>
