<svg width="48" height="48" viewBox="0 0 48 48" fill="none" xmlns="http://www.w3.org/2000/svg">
<path d="M23.6557 3.99951C20.1847 3.99951 17.4596 4.18627 15.3839 4.42881C11.2126 4.91621 8.3245 8.1922 7.95884 12.2274C7.71304 14.9398 7.50098 18.7893 7.50098 23.9995C7.50098 29.2097 7.71304 33.0593 7.95884 35.7717C8.32451 39.8068 11.2126 43.0828 15.3839 43.5702C17.4596 43.8127 20.1847 43.9995 23.6557 43.9995C26.2041 43.9995 28.3971 43.8988 30.247 43.7499C31.348 43.6613 32.1687 42.6969 32.0801 41.5959C31.9915 40.4949 31.0271 39.6742 29.9261 39.7628C28.1846 39.903 26.0987 39.9995 23.6557 39.9995C20.3279 39.9995 17.7583 39.8204 15.8481 39.5972C13.7018 39.3465 12.1509 37.7101 11.9425 35.4107C11.7087 32.8304 11.501 29.1019 11.501 23.9995C11.501 18.8971 11.7087 15.1687 11.9425 12.5884C12.1509 10.2889 13.7018 8.65257 15.8481 8.40178C17.7583 8.17858 20.3279 7.99951 23.6557 7.99951C25.5541 7.99951 27.2369 8.05778 28.71 8.14954C29.7941 8.21707 30.7647 8.30275 31.6241 8.3967C34.0646 8.6635 35.8591 10.5492 36.0805 13.1166C36.1652 14.0999 36.2457 15.2235 36.3131 16.4904C36.3718 17.5934 37.3135 18.44 38.4165 18.3813C39.5196 18.3226 40.3661 17.3809 40.3075 16.2779C40.2377 14.9677 40.1542 13.8004 40.0657 12.773C39.6908 8.42487 36.5183 4.9079 32.0588 4.42039C31.1371 4.31963 30.1045 4.22866 28.9587 4.15728C27.4017 4.0603 25.636 3.99951 23.6557 3.99951Z" fill="url(#paint0_linear_3_11591)"/>
<path d="M17.0009 13.4995C15.8963 13.4995 15.0009 14.3949 15.0009 15.4995C15.0009 16.6041 15.8963 17.4995 17.0009 17.4995H25.0009C26.1054 17.4995 27.0009 16.6041 27.0009 15.4995C27.0009 14.3949 26.1054 13.4995 25.0009 13.4995H17.0009Z" fill="url(#paint1_linear_3_11591)"/>
<path d="M15.0008 23.9995C15.0008 22.895 15.8962 21.9995 17.0008 21.9995H29.0018C30.1064 21.9995 31.0018 22.895 31.0018 23.9995C31.0018 25.1041 30.1064 25.9995 29.0018 25.9995H17.0008C15.8962 25.9995 15.0008 25.1041 15.0008 23.9995Z" fill="url(#paint2_linear_3_11591)"/>
<path d="M17.0009 34.4995C15.8963 34.4995 15.0009 33.6041 15.0009 32.4995C15.0009 31.3949 15.8963 30.4995 17.0009 30.4995H25.0116C26.1161 30.4995 27.0116 31.3949 27.0116 32.4995C27.0116 33.6041 26.1161 34.4995 25.0116 34.4995H17.0009Z" fill="url(#paint3_linear_3_11591)"/>
<path d="M36.8159 24.202C37.3279 23.266 38.6721 23.266 39.1841 24.202L40.8763 27.2961C41.2982 28.0675 41.9325 28.7018 42.7039 29.1237L45.7979 30.8159C46.734 31.3279 46.734 32.6721 45.798 33.1841L42.7039 34.8763C41.9325 35.2982 41.2982 35.9325 40.8763 36.7039L39.1841 39.798C38.6721 40.734 37.3279 40.734 36.8159 39.798L35.1237 36.7039C34.7018 35.9325 34.0675 35.2982 33.296 34.8763L30.202 33.1841C29.266 32.6721 29.266 31.3279 30.202 30.8159L33.296 29.1237C34.0675 28.7018 34.7018 28.0675 35.1237 27.2961L36.8159 24.202Z" fill="url(#paint4_linear_3_11591)"/>
<defs>
<linearGradient id="paint0_linear_3_11591" x1="7.50098" y1="23.9995" x2="46.5" y2="23.9995" gradientUnits="userSpaceOnUse">
<stop stop-color="#7A28E2"/>
<stop offset="1" stop-color="#C100B6"/>
</linearGradient>
<linearGradient id="paint1_linear_3_11591" x1="7.50098" y1="23.9995" x2="46.5" y2="23.9995" gradientUnits="userSpaceOnUse">
<stop stop-color="#7A28E2"/>
<stop offset="1" stop-color="#C100B6"/>
</linearGradient>
<linearGradient id="paint2_linear_3_11591" x1="7.50098" y1="23.9995" x2="46.5" y2="23.9995" gradientUnits="userSpaceOnUse">
<stop stop-color="#7A28E2"/>
<stop offset="1" stop-color="#C100B6"/>
</linearGradient>
<linearGradient id="paint3_linear_3_11591" x1="7.50098" y1="23.9995" x2="46.5" y2="23.9995" gradientUnits="userSpaceOnUse">
<stop stop-color="#7A28E2"/>
<stop offset="1" stop-color="#C100B6"/>
</linearGradient>
<linearGradient id="paint4_linear_3_11591" x1="7.50098" y1="23.9995" x2="46.5" y2="23.9995" gradientUnits="userSpaceOnUse">
<stop stop-color="#7A28E2"/>
<stop offset="1" stop-color="#C100B6"/>
</linearGradient>
</defs>
</svg>
