<svg width="48" height="48" viewBox="0 0 48 48" fill="none" xmlns="http://www.w3.org/2000/svg">
<path fill-rule="evenodd" clip-rule="evenodd" d="M8.51724 4.65799C8.8964 4.23903 9.43509 4 10.0001 4C13.2946 4 16.0331 4.82169 18.492 5.55949L18.5748 5.58435C21.0946 6.34027 23.3316 7 26.0001 7C28.7442 7 31.2811 6.55207 33.4008 6.17781L33.5276 6.15543C34.556 5.97394 35.58 5.79441 36.414 5.7388C36.8343 5.71078 37.3106 5.70551 37.7749 5.7835C38.2242 5.85899 38.8762 6.04764 39.4144 6.58579C40.2556 7.42701 40.1512 8.52057 40.0961 8.91401C40.0227 9.43828 39.8427 9.97663 39.661 10.4436C39.2989 11.3747 38.7338 12.5049 38.1966 13.5792L38.164 13.6444C37.5939 14.7846 37.0343 15.9059 36.6135 16.9217C36.1652 18.0037 36.0001 18.6815 36.0001 19C36.0001 19.2674 36.1344 19.7964 36.5546 20.6369C36.9528 21.4333 37.4898 22.2855 38.0575 23.1686C38.1061 23.2441 38.1552 23.3205 38.2049 23.3975C38.6975 24.1623 39.2324 24.9925 39.5859 25.6995C39.7772 26.0822 39.9952 26.5802 40.0864 27.1101C40.1748 27.6234 40.2098 28.6191 39.4143 29.4145C38.9056 29.9231 38.1385 30.3551 37.3927 30.7031C36.5848 31.0801 35.5825 31.4576 34.4395 31.7938C32.1545 32.4658 29.214 33 26.0001 33C22.7057 33 19.9671 32.1783 17.5082 31.4405L17.4255 31.4157C15.8456 30.9418 14.3769 30.5056 12.8433 30.2462C12.7483 32.3447 12.6213 34.3745 12.4951 36.1425C12.3691 37.9057 12.2432 39.417 12.1487 40.4883C12.1014 41.0241 12.0619 41.4501 12.0342 41.743L12.002 42.0796L11.9903 42.1987C11.9903 42.1987 11.9902 42.199 10.0001 42L11.9903 42.1987C11.8803 43.2978 10.9002 44.1 9.80114 43.9901C8.70205 43.8802 7.90017 42.9001 8.01008 41.801L8.01269 41.7746L8.0208 41.6919L8.05201 41.3663C8.07899 41.0811 8.11767 40.6634 8.16414 40.1367C8.25711 39.083 8.38117 37.5943 8.50523 35.8575C8.75396 32.3754 9.00015 27.93 9.00015 24C9.00015 20.07 8.75396 15.6246 8.50523 12.1425C8.38117 10.4057 8.25711 8.91696 8.16414 7.86329C8.11767 7.33657 8.07899 6.9189 8.05201 6.63366L8.0208 6.30815L8.01269 6.22543L8.0102 6.20021C7.95398 5.63797 8.1381 5.07694 8.51724 4.65799ZM12.2041 8.14917C12.2897 9.1499 12.3924 10.42 12.4951 11.8575C12.7463 15.3754 13.0001 19.93 13.0001 24C13.0001 24.7272 12.992 25.4699 12.9773 26.2193C15.0044 26.5131 16.8132 27.0558 18.4918 27.5595L18.5748 27.5844C21.0946 28.3403 23.3316 29 26.0001 29C28.7863 29 31.3458 28.5342 33.3108 27.9563C34.2928 27.6675 35.103 27.3575 35.7013 27.0783C35.7241 27.0677 35.7464 27.0571 35.7682 27.0468C35.5227 26.6219 35.1955 26.1132 34.8012 25.5002C34.7656 25.4448 34.7294 25.3887 34.6928 25.3316C34.1355 24.4647 33.485 23.4418 32.9769 22.4257C32.4909 21.4536 32.0001 20.2326 32.0001 19C32.0001 17.8185 32.4601 16.4963 32.9181 15.3908C33.3984 14.2312 34.0184 12.9914 34.569 11.8901L34.5863 11.8556C34.9584 11.1113 35.2906 10.4451 35.5566 9.86816C35.1719 9.92839 34.7303 10.005 34.2227 10.0946C34.1562 10.1063 34.089 10.1182 34.0209 10.1302C31.9332 10.4992 29.1001 11 26.0001 11C22.7057 11 19.9672 10.1783 17.5083 9.44051C17.4807 9.43221 17.453 9.42393 17.4255 9.41565C15.6275 8.87628 13.9736 8.38588 12.2041 8.14917ZM36.1347 8.35942C36.1347 8.35942 36.1336 8.36682 36.1329 8.37118C36.1351 8.31735 36.142 8.30743 36.1347 8.35942Z" fill="url(#paint0_linear_4071_242)"/>
<defs>
<linearGradient id="paint0_linear_4071_242" x1="8" y1="24.0001" x2="40.1322" y2="24.0001" gradientUnits="userSpaceOnUse">
<stop stop-color="#7A28E2"/>
<stop offset="1" stop-color="#C100B6"/>
</linearGradient>
</defs>
</svg>
