<svg width="48" height="48" viewBox="0 0 48 48" fill="none" xmlns="http://www.w3.org/2000/svg">
<path fill-rule="evenodd" clip-rule="evenodd" d="M22.5061 4.10718C22.9568 4.03974 23.4543 4 24.0003 4C24.5463 4 25.0438 4.03974 25.4944 4.10718C28.338 4.53268 29.3011 7.20503 29.336 9.05372C29.3602 10.3397 29.3886 12.1952 29.4108 14.6734C31.5873 13.4498 33.2221 12.544 34.3567 11.9207C35.9718 11.0334 38.7718 10.5205 40.5675 12.7596C40.5676 12.7597 40.5677 12.7598 40.5678 12.7599C40.8528 13.1152 41.1368 13.5247 41.4103 13.9956C41.6837 14.4665 41.8986 14.9161 42.0657 15.3393C42.0658 15.3394 42.0658 15.3395 42.0658 15.3396C43.1252 18.0219 41.2619 20.188 39.6835 21.1336C38.5778 21.796 36.9798 22.7456 34.8387 24C36.9798 25.2544 38.5778 26.204 39.6836 26.8665L39.6836 26.8665C41.2619 27.8121 43.1252 29.9781 42.0658 32.6604C42.0658 32.6605 42.0658 32.6606 42.0657 32.6607C41.8986 33.0839 41.6837 33.5335 41.4103 34.0044L39.6784 32.9986L41.4101 34.0046C41.1365 34.4756 40.8526 34.8849 40.5679 35.24L39.0075 33.989L40.5678 35.2402C38.772 37.4797 35.9717 36.9666 34.3567 36.0793C33.2221 35.456 31.5873 34.5503 29.4108 33.3266C29.3886 35.8048 29.3602 37.6604 29.336 38.9463C29.3011 40.7949 28.3381 43.4674 25.4944 43.8928C25.0438 43.9602 24.5463 44 24.0003 44C23.4543 44 22.9568 43.9602 22.5062 43.8928C19.6627 43.4674 18.6995 40.7949 18.6646 38.9463L18.6646 38.9463C18.6403 37.6604 18.612 35.8048 18.5898 33.3266C16.4133 34.5503 14.7785 35.456 13.6439 36.0793C12.0289 36.9666 9.2286 37.4797 7.43279 35.2402L8.99321 33.9889L7.43268 35.24C7.14799 34.8849 6.86397 34.4755 6.59039 34.0045L6.59038 34.0044C6.31672 33.5333 6.10195 33.0837 5.93484 32.6607L5.93482 32.6607C4.87521 29.9782 6.73866 27.8121 8.31703 26.8665L9.33846 28.5714L8.31705 26.8665C9.42281 26.204 11.0207 25.2544 13.1619 24C11.0208 22.7456 9.42287 21.796 8.31711 21.1336C8.31709 21.1336 8.31706 21.1335 8.31703 21.1335C6.73852 20.1879 4.87523 18.0217 5.9348 15.3393L5.93482 15.3393C6.10192 14.9163 6.31669 14.4667 6.59038 13.9955C6.86393 13.5245 7.14796 13.1151 7.43277 12.7599C7.4328 12.7599 7.43282 12.7598 7.43284 12.7598C9.22861 10.5204 12.0288 11.0333 13.6439 11.9207C14.7785 12.544 16.4133 13.4498 18.5898 14.6734C18.612 12.1952 18.6403 10.3397 18.6646 9.05372L18.6646 9.05369C18.6995 7.20497 19.6627 4.53269 22.5061 4.10718ZM10.5534 32.7379C10.5883 32.7813 10.6125 32.7952 10.6294 32.8033C10.6514 32.8137 10.7021 32.8323 10.7969 32.8369C11.0047 32.8468 11.3388 32.7818 11.7179 32.5736L11.7179 32.5735C13.3021 31.7032 15.8838 30.27 19.5792 28.1739C20.1968 27.8236 20.9537 27.8269 21.5681 28.1827C22.1825 28.5384 22.5623 29.1932 22.5659 29.9032C22.5877 34.1327 22.6299 37.0719 22.6639 38.8709C22.6719 39.2972 22.7813 39.6115 22.8905 39.7803C22.9401 39.857 22.98 39.89 22.9994 39.9031C23.0143 39.9133 23.0396 39.9281 23.0981 39.9368L23.0981 39.9369C23.3495 39.9745 23.6491 40 24.0003 40C24.3515 40 24.651 39.9745 24.9024 39.9369L24.9025 39.9368C24.961 39.9281 24.9863 39.9133 25.0013 39.9031C25.0206 39.89 25.0605 39.857 25.1101 39.7804C25.2193 39.6116 25.3287 39.2972 25.3367 38.8709C25.3706 37.0719 25.4128 34.1327 25.4346 29.9032C25.4383 29.1932 25.8181 28.5384 26.4325 28.1827C27.0469 27.8269 27.8038 27.8236 28.4214 28.1739C32.1168 30.27 34.6984 31.7032 36.2827 32.5735L36.2827 32.5736C36.6618 32.7818 36.9959 32.8468 37.2037 32.8369C37.2984 32.8323 37.3492 32.8137 37.3711 32.8033C37.3881 32.7952 37.4123 32.7813 37.4471 32.7379C37.6049 32.5411 37.7762 32.2969 37.9512 31.9956C38.1262 31.6943 38.2532 31.4248 38.3454 31.1913L40.2056 31.9259L38.3455 31.1911C38.3654 31.1408 38.3646 31.1161 38.3635 31.1019C38.3619 31.0821 38.3541 31.0331 38.3122 30.9522C38.2197 30.7738 37.9991 30.5202 37.6278 30.2978C36.0776 29.3691 33.5382 27.8631 29.8644 25.7295C29.2481 25.3716 28.8688 24.7127 28.8688 24C28.8688 23.2873 29.2481 22.6284 29.8644 22.2705C33.5382 20.1369 36.0776 18.6309 37.6279 17.7022L37.6279 17.7022C37.9991 17.4798 38.2197 17.2263 38.3122 17.0478C38.3541 16.967 38.3619 16.9179 38.3635 16.8981C38.3646 16.8839 38.3654 16.8592 38.3455 16.8089L40.2056 16.0741L38.3454 16.8087C38.2532 16.5752 38.1262 16.3057 37.9512 16.0044C37.7763 15.7031 37.605 15.459 37.4474 15.2625L37.4471 15.2622C37.4123 15.2188 37.3881 15.2048 37.3711 15.1968C37.3491 15.1863 37.2984 15.1677 37.2037 15.1632C36.9958 15.1532 36.6617 15.2182 36.2827 15.4264L36.2827 15.4265C34.6985 16.2968 32.1169 17.7301 28.4213 19.8262C27.8038 20.1764 27.0468 20.1731 26.4324 19.8173C25.818 19.4616 25.4383 18.8068 25.4346 18.0968C25.4128 13.8673 25.3706 10.9281 25.3367 9.12919C25.3287 8.70279 25.2193 8.38841 25.1101 8.21963C25.0605 8.14298 25.0206 8.11004 25.0012 8.09688C24.9863 8.08669 24.961 8.07189 24.9025 8.06313L24.9024 8.06313C24.6511 8.02552 24.3515 8 24.0003 8C23.649 8 23.3495 8.02552 23.0981 8.06313L23.0981 8.06313C23.0397 8.07188 23.0143 8.08667 22.9994 8.09687C22.98 8.11004 22.9401 8.14299 22.8905 8.21965C22.7813 8.38845 22.6719 8.70283 22.6639 9.12919C22.6299 10.9281 22.5877 13.8673 22.5659 18.0968C22.5623 18.8068 22.1825 19.4616 21.5681 19.8173C20.9537 20.1731 20.1968 20.1764 19.5793 19.8262C15.8837 17.7301 13.3021 16.2968 11.7179 15.4265L11.7179 15.4264C11.3389 15.2182 11.0047 15.1532 10.7969 15.1632C10.7022 15.1677 10.6515 15.1863 10.6295 15.1968C10.6125 15.2049 10.5883 15.2188 10.5534 15.2622L10.5533 15.2623C10.3957 15.4589 10.2243 15.7031 10.0493 16.0045C9.8744 16.3056 9.74745 16.575 9.65508 16.8089C9.65507 16.8089 9.65506 16.8089 9.65505 16.8089C9.63519 16.8593 9.63599 16.8839 9.63709 16.8981C9.63863 16.9179 9.64645 16.9669 9.68833 17.0478C9.7808 17.2263 10.0014 17.4798 10.3726 17.7021L10.3727 17.7022C11.923 18.6309 14.4624 20.1369 18.1362 22.2705C18.7525 22.6284 19.1317 23.2873 19.1317 24C19.1317 24.7127 18.7525 25.3716 18.1362 25.7295C14.4624 27.8631 11.923 29.3691 10.3727 30.2978C10.0015 30.5202 9.78081 30.7738 9.68834 30.9523C9.64646 31.0331 9.63864 31.0822 9.63711 31.1019C9.63601 31.1161 9.6352 31.1408 9.65509 31.1911C9.74746 31.4249 9.87442 31.6944 10.0493 31.9955C10.2243 32.2968 10.3956 32.541 10.5534 32.7379Z" fill="#646464"/>
</svg>
