<svg width="48" height="48" viewBox="0 0 48 48" fill="none" xmlns="http://www.w3.org/2000/svg">
<path d="M20.6562 38.419C21.9848 37.214 23.1461 36.0012 24.0001 35.0595C24.8541 36.0012 26.0154 37.214 27.344 38.419C28.7436 39.6884 30.381 40.997 32.081 41.9647C33.7389 42.9084 35.704 43.6715 37.6811 43.4917C38.6713 43.4017 39.445 42.598 39.4973 41.6051C39.9422 33.1518 39.9935 19.6443 39.6543 10.0235C39.5451 6.92656 37.0682 4.45867 33.9848 4.33365C27.1233 4.05545 20.8767 4.05545 14.0154 4.33365C10.932 4.45867 8.45515 6.92648 8.34588 10.0234C8.00645 19.6442 8.0578 33.1518 8.50288 41.6051C8.55515 42.598 9.32886 43.4017 10.319 43.4917C12.2962 43.6715 14.2612 42.9084 15.9192 41.9647C17.6192 40.997 19.2565 39.6884 20.6562 38.419Z" fill="#BBBBBB"/>
<path fill-rule="evenodd" clip-rule="evenodd" d="M33.8227 8.33037C27.0693 8.05654 20.9308 8.05655 14.1774 8.33037C13.171 8.37117 12.3785 9.17079 12.3434 10.1644C12.0353 18.8971 12.0535 30.8754 12.396 39.2163C12.8613 39.0491 13.3769 38.8092 13.9404 38.4884C15.2872 37.7218 16.6811 36.6241 17.969 35.4561C19.2477 34.2963 20.3708 33.1141 21.177 32.2175C21.5787 31.7708 21.8985 31.3986 22.116 31.1404C22.2246 31.0114 22.3075 30.9111 22.3622 30.8444L22.4225 30.7704L22.4361 30.7535L22.4384 30.7507L22.4387 30.7503L22.4387 30.7503C22.8183 30.2761 23.3927 30.0001 24.0001 30.0001C24.6075 30.0001 25.182 30.2761 25.5615 30.7503L25.5615 30.7503L25.5618 30.7507L25.5641 30.7535L25.5777 30.7704L25.6381 30.8444C25.6927 30.9111 25.7756 31.0114 25.8843 31.1404C26.1017 31.3986 26.4215 31.7708 26.8232 32.2175C27.6294 33.1141 28.7525 34.2963 30.0312 35.4561C31.319 36.6241 32.7129 37.7218 34.0598 38.4884C34.6233 38.8092 35.1388 39.0491 35.6042 39.2163C35.9465 30.8754 35.9647 18.8972 35.6567 10.1645C35.6217 9.17081 34.8291 8.37117 33.8227 8.33037ZM24.0001 35.0595C23.1461 36.0012 21.9848 37.214 20.6562 38.419C19.2565 39.6884 17.6192 40.997 15.9192 41.9647C14.2612 42.9084 12.2962 43.6715 10.319 43.4917C9.32886 43.4017 8.55515 42.598 8.50288 41.6051C8.0578 33.1518 8.00645 19.6442 8.34588 10.0234C8.45515 6.92648 10.932 4.45867 14.0154 4.33365C20.8767 4.05545 27.1233 4.05545 33.9848 4.33365C37.0682 4.45867 39.5451 6.92656 39.6543 10.0235C39.9935 19.6443 39.9422 33.1518 39.4973 41.6051C39.445 42.598 38.6713 43.4017 37.6811 43.4917C35.704 43.6715 33.7389 42.9084 32.081 41.9647C30.381 40.997 28.7436 39.6884 27.344 38.419C26.0154 37.214 24.8541 36.0012 24.0001 35.0595Z" fill="#646464"/>
</svg>
