<svg width="48" height="48" viewBox="0 0 48 48" fill="none" xmlns="http://www.w3.org/2000/svg">
<path fill-rule="evenodd" clip-rule="evenodd" d="M22.4102 4.18789C23.4579 3.93737 24.5417 3.93737 25.5893 4.18789C27.36 4.61129 30.8693 5.61186 35.2284 7.68762C38.6115 9.29862 40.9628 10.7009 42.422 11.6601C44.5255 13.0429 44.5258 16.0243 42.4221 17.4072M22.4102 4.18789C20.6396 4.61129 17.1303 5.61186 12.7712 7.68763L22.4102 4.18789ZM12.7712 7.68763C9.38805 9.29862 7.03679 10.7009 5.57755 11.6601L12.7712 7.68763ZM5.57755 11.6601C3.47407 13.0429 3.47376 16.0243 5.57748 17.4072L5.57755 11.6601ZM5.57748 17.4072C7.03679 18.3666 9.38808 19.7688 12.7712 21.3798C17.1303 23.4556 20.6396 24.4561 22.4101 24.8796C23.4578 25.1301 24.5417 25.1301 25.5893 24.8796C27.3599 24.4561 30.8692 23.4556 35.2284 21.3798C38.6114 19.7689 40.9627 18.3665 42.4221 17.4072M4.29731 23.7252C4.87695 22.7849 6.10908 22.4926 7.04934 23.0723C7.37893 23.2754 7.70798 23.4769 8.03696 23.6764C8.9814 24.2493 9.28266 25.4792 8.70984 26.4237C8.13703 27.3681 6.90705 27.6694 5.96262 27.0965C5.62413 26.8912 5.28673 26.6847 4.95025 26.4772C4.00999 25.8976 3.71766 24.6655 4.29731 23.7252ZM43.681 23.6915C44.2793 24.62 44.0116 25.8577 43.0831 26.456C42.7416 26.676 42.3987 26.8928 42.0544 27.1065C41.1158 27.6889 39.8828 27.4003 39.3004 26.4617C38.718 25.5232 39.0067 24.2902 39.9452 23.7078C40.2703 23.5061 40.594 23.3013 40.9165 23.0935C41.845 22.4952 43.0827 22.7629 43.681 23.6915ZM35.1048 26.4375C36.089 25.936 37.2933 26.3272 37.7949 27.3114C38.2964 28.2955 37.9052 29.4999 36.9211 30.0014C36.3616 30.2865 35.7975 30.5645 35.2284 30.8355C34.4553 31.2036 33.709 31.5379 32.9946 31.8411C31.9778 32.2726 30.8037 31.7981 30.3722 30.7813C29.9408 29.7645 30.4152 28.5904 31.432 28.1589C32.0953 27.8775 32.7891 27.5667 33.5087 27.2241M10.2229 27.3015C10.7299 26.3202 11.9364 25.9356 12.9177 26.4426C13.4383 26.7115 13.9622 26.9723 14.4909 27.2241C15.2105 27.5667 15.9043 27.8775 16.5676 28.1589C17.5844 28.5904 18.0588 29.7645 17.6273 30.7813C17.1958 31.7981 16.0218 32.2726 15.005 31.8411C14.2905 31.5379 13.5443 31.2036 12.7712 30.8355C12.2006 30.5638 11.6378 30.2836 11.0818 29.9964C10.1005 29.4894 9.71592 28.2829 10.2229 27.3015ZM35.1048 26.4375C34.5774 26.7063 34.0455 26.9684 33.5087 27.2241L35.1048 26.4375ZM19.0822 31.3169C19.3961 30.2579 20.5091 29.6538 21.5681 29.9677C22.2892 30.1814 22.8872 30.3365 23.3404 30.4449C23.7766 30.5491 24.223 30.5491 24.6591 30.4449C25.1124 30.3365 25.7104 30.1814 26.4314 29.9677C27.4904 29.6538 28.6034 30.2579 28.9173 31.3169C29.2312 32.3759 28.6271 33.4889 27.5681 33.8028C26.775 34.0378 26.108 34.2112 25.5893 34.3352C24.5417 34.5857 23.4579 34.5857 22.4102 34.3352C21.8915 34.2112 21.2245 34.0378 20.4315 33.8028C19.3724 33.4889 18.7684 32.3759 19.0822 31.3169ZM4.29731 33.2071C4.87696 32.2668 6.10908 31.9745 7.04934 32.5541C7.37893 32.7573 7.70798 32.9588 8.03696 33.1583C8.9814 33.7311 9.28266 34.9611 8.70984 35.9055C8.13703 36.85 6.90705 37.1512 5.96262 36.5784C5.62413 36.3731 5.28673 36.1665 4.95025 35.9591C4.00999 35.3795 3.71766 34.1473 4.29731 33.2071ZM43.681 33.1734C44.2793 34.1019 44.0116 35.3396 43.0831 35.9379C42.7416 36.1579 42.3987 36.3747 42.0544 36.5884C41.1158 37.1708 39.8828 36.8821 39.3004 35.9436C38.718 35.0051 39.0067 33.7721 39.9452 33.1897C40.2703 32.988 40.594 32.7832 40.9165 32.5754C41.845 31.9771 43.0827 32.2448 43.681 33.1734ZM10.2229 36.7834C10.7299 35.8021 11.9364 35.4175 12.9177 35.9245C13.4383 36.1934 13.9622 36.4542 14.4909 36.7059C15.2105 37.0486 15.9043 37.3593 16.5676 37.6408C17.5844 38.0723 18.0588 39.2464 17.6273 40.2632C17.1958 41.28 16.0218 41.7545 15.005 41.323C14.2905 41.0198 13.5443 40.6855 12.7712 40.3174C12.2006 40.0457 11.6378 39.7655 11.0818 39.4783C10.1005 38.9713 9.71592 37.7648 10.2229 36.7834ZM35.0921 35.9259C36.0763 35.4246 37.2806 35.8161 37.7819 36.8004C38.2833 37.7846 37.8918 38.9889 36.9075 39.4902C36.3525 39.7729 35.793 40.0486 35.2284 40.3174C34.4553 40.6855 33.709 41.0198 32.9946 41.323C31.9778 41.7545 30.8037 41.28 30.3722 40.2632C29.9407 39.2464 30.4152 38.0723 31.432 37.6408C32.0953 37.3593 32.7891 37.0486 33.5087 36.7059C34.0412 36.4524 34.5688 36.1924 35.0921 35.9259ZM19.0822 40.7988C19.3961 39.7397 20.5091 39.1357 21.5681 39.4496C22.2892 39.6633 22.8872 39.8184 23.3404 39.9268C23.7765 40.031 24.223 40.031 24.6591 39.9268C25.1124 39.8184 25.7104 39.6633 26.4314 39.4496C27.4905 39.1357 28.6034 39.7397 28.9173 40.7988C29.2312 41.8578 28.6271 42.9708 27.5681 43.2847C26.775 43.5197 26.108 43.6931 25.5893 43.8171C24.5417 44.0676 23.4579 44.0676 22.4102 43.8171C21.8915 43.6931 21.2245 43.5197 20.4315 43.2847C19.3724 42.9708 18.7684 41.8578 19.0822 40.7988Z" fill="#646464"/>
<path d="M25.5893 4.18789C24.5417 3.93737 23.4579 3.93737 22.4102 4.18789C20.6396 4.61129 17.1303 5.61186 12.7712 7.68763C9.38805 9.29862 7.03679 10.7009 5.57755 11.6601C3.47407 13.0429 3.47376 16.0243 5.57748 17.4072C7.03679 18.3666 9.38808 19.7688 12.7712 21.3798C17.1303 23.4556 20.6396 24.4561 22.4101 24.8796C23.4578 25.1301 24.5417 25.1301 25.5893 24.8796C27.3599 24.4561 30.8692 23.4556 35.2284 21.3798C38.6114 19.7689 40.9627 18.3665 42.4221 17.4072C44.5258 16.0243 44.5255 13.0429 42.422 11.6601C40.9628 10.7009 38.6115 9.29862 35.2284 7.68762C30.8693 5.61186 27.36 4.61129 25.5893 4.18789Z" fill="#646464"/>
</svg>
