<svg width="48" height="48" viewBox="0 0 48 48" fill="none" xmlns="http://www.w3.org/2000/svg">
<path fill-rule="evenodd" clip-rule="evenodd" d="M22.4102 43.8171C23.4579 44.0676 24.5417 44.0676 25.5893 43.8171C27.36 43.3937 30.8693 42.3931 35.2284 40.3173C38.6115 38.7063 40.9628 37.304 42.422 36.3448C44.5255 34.962 44.5258 31.9806 42.4221 30.5977M22.4102 43.8171C20.6396 43.3937 17.1303 42.3931 12.7712 40.3173L22.4102 43.8171ZM12.7712 40.3173C9.38805 38.7063 7.03679 37.304 5.57755 36.3448L12.7712 40.3173ZM5.57755 36.3448C3.47407 34.962 3.47376 31.9806 5.57748 30.5978L5.57755 36.3448ZM5.57748 30.5978C7.03679 29.6384 9.38808 28.2361 12.7712 26.6252C17.1303 24.5493 20.6396 23.5488 22.4101 23.1254C23.4578 22.8749 24.5417 22.8749 25.5893 23.1254C27.3599 23.5488 30.8692 24.5493 35.2284 26.6252C38.6114 28.2361 40.9627 29.6384 42.4221 30.5977M4.29731 24.2797C4.87695 25.22 6.10908 25.5123 7.04934 24.9327C7.37893 24.7295 7.70798 24.528 8.03696 24.3285C8.9814 23.7557 9.28266 22.5257 8.70984 21.5813C8.13703 20.6368 6.90705 20.3356 5.96262 20.9084C5.62413 21.1137 5.28673 21.3203 4.95025 21.5277C4.00999 22.1074 3.71766 23.3395 4.29731 24.2797ZM43.681 24.3135C44.2793 23.385 44.0116 22.1473 43.0831 21.549C42.7416 21.329 42.3987 21.1121 42.0544 20.8984C41.1158 20.316 39.8828 20.6047 39.3004 21.5432C38.718 22.4818 39.0067 23.7148 39.9452 24.2972C40.2703 24.4989 40.594 24.7036 40.9165 24.9114C41.845 25.5097 43.0827 25.242 43.681 24.3135ZM35.1048 21.5674C36.089 22.0689 37.2933 21.6777 37.7949 20.6936C38.2964 19.7094 37.9052 18.505 36.9211 18.0035C36.3616 17.7184 35.7975 17.4404 35.2284 17.1694C34.4553 16.8013 33.709 16.467 32.9946 16.1639C31.9778 15.7324 30.8037 16.2069 30.3722 17.2237C29.9408 18.2405 30.4152 19.4145 31.432 19.846C32.0953 20.1275 32.7891 20.4382 33.5087 20.7809M10.2229 20.7034C10.7299 21.6848 11.9364 22.0693 12.9177 21.5624C13.4383 21.2934 13.9622 21.0326 14.4909 20.7809C15.2105 20.4382 15.9043 20.1275 16.5676 19.846C17.5844 19.4145 18.0588 18.2405 17.6273 17.2237C17.1958 16.2069 16.0218 15.7324 15.005 16.1639C14.2905 16.467 13.5443 16.8013 12.7712 17.1694C12.2006 17.4412 11.6378 17.7213 11.0818 18.0086C10.1005 18.5155 9.71592 19.7221 10.2229 20.7034ZM35.1048 21.5674C34.5774 21.2986 34.0455 21.0365 33.5087 20.7809L35.1048 21.5674ZM19.0822 16.6881C19.3961 17.7471 20.5091 18.3512 21.5681 18.0373C22.2892 17.8236 22.8872 17.6685 23.3404 17.5601C23.7766 17.4558 24.223 17.4558 24.6591 17.5601C25.1124 17.6685 25.7104 17.8236 26.4314 18.0373C27.4904 18.3512 28.6034 17.7471 28.9173 16.6881C29.2312 15.629 28.6271 14.5161 27.5681 14.2022C26.775 13.9671 26.108 13.7938 25.5893 13.6697C24.5417 13.4192 23.4579 13.4192 22.4102 13.6697C21.8915 13.7938 21.2245 13.9671 20.4315 14.2022C19.3724 14.5161 18.7684 15.629 19.0822 16.6881ZM4.29731 14.7979C4.87696 15.7381 6.10908 16.0304 7.04934 15.4508C7.37893 15.2476 7.70798 15.0462 8.03696 14.8466C8.9814 14.2738 9.28266 13.0438 8.70984 12.0994C8.13703 11.155 6.90705 10.8537 5.96262 11.4265C5.62413 11.6318 5.28673 11.8384 4.95025 12.0458C4.00999 12.6255 3.71766 13.8576 4.29731 14.7979ZM43.681 14.8316C44.2793 13.9031 44.0116 12.6654 43.0831 12.0671C42.7416 11.8471 42.3987 11.6302 42.0544 11.4165C41.1158 10.8341 39.8828 11.1228 39.3004 12.0613C38.718 12.9999 39.0067 14.2329 39.9452 14.8153C40.2703 15.017 40.594 15.2217 40.9165 15.4295C41.845 16.0278 43.0827 15.7601 43.681 14.8316ZM10.2229 11.2215C10.7299 12.2029 11.9364 12.5874 12.9177 12.0805C13.4383 11.8115 13.9622 11.5507 14.4909 11.299C15.2105 10.9564 15.9043 10.6456 16.5676 10.3641C17.5844 9.93264 18.0588 8.75857 17.6273 7.74176C17.1958 6.72496 16.0218 6.25048 15.005 6.68197C14.2905 6.98515 13.5443 7.31941 12.7712 7.68755C12.2006 7.95927 11.6378 8.23944 11.0818 8.52667C10.1005 9.03364 9.71592 10.2402 10.2229 11.2215ZM35.0921 12.079C36.0763 12.5803 37.2806 12.1888 37.7819 11.2046C38.2833 10.2203 37.8918 9.01605 36.9075 8.51472C36.3525 8.23204 35.793 7.95637 35.2284 7.68755C34.4553 7.31942 33.709 6.98515 32.9946 6.68196C31.9778 6.25048 30.8037 6.72497 30.3722 7.74177C29.9407 8.75858 30.4152 9.93265 31.432 10.3641C32.0953 10.6456 32.7891 10.9563 33.5087 11.299C34.0412 11.5526 34.5688 11.8125 35.0921 12.079ZM19.0822 7.20617C19.3961 8.2652 20.5091 8.86926 21.5681 8.55537C22.2892 8.34166 22.8872 8.18657 23.3404 8.07819C23.7765 7.97391 24.223 7.9739 24.6591 8.07819C25.1124 8.18656 25.7104 8.34166 26.4314 8.55537C27.4905 8.86926 28.6034 8.2652 28.9173 7.20617C29.2312 6.14713 28.6271 5.03416 27.5681 4.72028C26.775 4.48521 26.108 4.31187 25.5893 4.18785C24.5417 3.93735 23.4579 3.93735 22.4102 4.18785C21.8915 4.31187 21.2245 4.48521 20.4315 4.72028C19.3724 5.03416 18.7684 6.14713 19.0822 7.20617Z" fill="#646464"/>
<path d="M25.5893 43.8171C24.5417 44.0676 23.4579 44.0676 22.4102 43.8171C20.6396 43.3937 17.1303 42.3931 12.7712 40.3173C9.38805 38.7063 7.03679 37.304 5.57755 36.3448C3.47407 34.962 3.47376 31.9806 5.57748 30.5978C7.03679 29.6384 9.38808 28.2361 12.7712 26.6252C17.1303 24.5493 20.6396 23.5488 22.4101 23.1254C23.4578 22.8749 24.5417 22.8749 25.5893 23.1254C27.3599 23.5488 30.8692 24.5493 35.2284 26.6252C38.6114 28.2361 40.9627 29.6384 42.4221 30.5977C44.5258 31.9806 44.5255 34.962 42.422 36.3448C40.9628 37.304 38.6115 38.7063 35.2284 40.3173C30.8693 42.3931 27.36 43.3937 25.5893 43.8171Z" fill="#646464"/>
</svg>
