<svg width="48" height="48" viewBox="0 0 48 48" fill="none" xmlns="http://www.w3.org/2000/svg">
<path fill-rule="evenodd" clip-rule="evenodd" d="M3.99957 6C3.99957 4.89543 4.895 4 5.99957 4C11.3803 4 15.6311 5.54874 18.5341 8.47873C21.2773 11.2475 22.5853 15.0165 22.7161 19.2034L25.921 23.2824L25.921 23.2825C26.5744 24.114 26.7303 25.1657 26.6733 25.9662C26.6184 26.7386 26.3123 27.9146 25.2741 28.6397L25.2739 28.6399C24.6077 29.1049 23.8646 29.3602 23.2263 29.5392C23.0235 29.596 22.7995 29.653 22.5677 29.7095L21.9937 35.1606C21.8319 37.7705 19.4614 39.6853 16.8699 39.2859L9.36919 38.2157L7.89693 42.6325C7.54764 43.6803 6.415 44.2467 5.36711 43.8974C4.31922 43.5481 3.7529 42.4154 4.1022 41.3675L5.57446 36.9508C6.18569 35.1171 8.0207 33.9828 9.93421 34.2558L17.4475 35.3278L17.4769 35.3322C17.7441 35.3744 17.9889 35.1753 18.0018 34.9048C18.0036 34.8667 18.0066 34.8286 18.0106 34.7906L18.738 27.8815C18.8263 27.0432 19.4306 26.3503 20.2491 26.1488C20.583 26.0667 20.8667 26.0007 21.1214 25.9415C21.5052 25.8523 21.8229 25.7784 22.1462 25.6877C22.3373 25.6341 22.4884 25.585 22.6082 25.5405L19.1544 21.1447C18.8775 20.7924 18.727 20.3572 18.727 19.9091C18.727 16.1956 17.6597 13.2796 15.6925 11.294C13.7317 9.3149 10.6188 8 5.99957 8C4.895 8 3.99957 7.10457 3.99957 6ZM13.9996 18C15.1041 18 15.9996 18.8954 15.9996 20V22C15.9996 23.1046 15.1041 24 13.9996 24C12.895 24 11.9996 23.1046 11.9996 22V20C11.9996 18.8954 12.895 18 13.9996 18ZM36.6098 20.5613C37.4044 19.794 38.6705 19.8161 39.4378 20.6107C45.5196 26.9085 45.5196 37.0915 39.4378 43.3893C38.6705 44.1839 37.4044 44.206 36.6098 43.4387C35.8152 42.6714 35.7931 41.4052 36.5604 40.6107C41.1453 35.8629 41.1453 28.1371 36.5604 23.3893C35.7931 22.5948 35.8152 21.3286 36.6098 20.5613ZM30.4598 26.7238C31.1644 25.8732 32.4252 25.7549 33.2758 26.4596C35.0315 27.914 35.9999 29.9108 35.9999 31.9997C35.9999 34.0886 35.0315 36.0854 33.2758 37.5399C32.4252 38.2445 31.1644 38.1262 30.4598 37.2756C29.7551 36.425 29.8734 35.1642 30.724 34.4596C31.635 33.7049 31.9999 32.8062 31.9999 31.9997C31.9999 31.1932 31.635 30.2945 30.724 29.5399C29.8734 28.8352 29.7551 27.5744 30.4598 26.7238Z" fill="#646464"/>
</svg>
