<svg width="48" height="48" viewBox="0 0 48 48" fill="none" xmlns="http://www.w3.org/2000/svg">
<path d="M35.0401 43.98C34.3201 43.98 33.6201 43.74 33.0401 43.26C32.8601 43.12 32.7201 42.96 32.6001 42.76L29.0201 37.06C27.2001 37.04 25.5201 36.98 24.0201 36.88C21.2601 36.7 19.1401 34.6 18.9401 31.86C18.8001 29.94 18.7401 27.72 18.7401 25.26C18.7401 23.04 18.8001 22.4 18.8801 21.56L18.9601 20.68C19.1601 17.94 21.3001 15.84 24.0401 15.66C26.1801 15.52 28.6401 15.46 31.4001 15.46C34.1601 15.46 36.6201 15.52 38.7601 15.66C41.5201 15.84 43.6401 17.94 43.8401 20.68L43.9201 21.56C44.0001 22.4 44.0601 23.06 44.0601 25.26C44.0601 27.72 43.9801 29.94 43.8601 31.86C43.6601 34.6 41.5401 36.7 38.7801 36.88C38.6401 36.88 38.4801 36.88 38.3401 36.9V40.74C38.3401 42 37.6401 43.1 36.5001 43.64C36.0601 43.86 35.5801 43.96 35.1001 43.96L35.0401 43.98ZM31.3601 19.46C28.7001 19.46 26.3001 19.52 24.2601 19.66C23.5001 19.7 22.9601 20.24 22.9201 20.98L22.8401 21.94C22.7801 22.7 22.7201 23.26 22.7201 25.28C22.7201 27.64 22.7801 29.76 22.9201 31.58C22.9801 32.32 23.5201 32.84 24.2601 32.9C25.9801 33 27.9601 33.08 30.1401 33.1C30.8201 33.1 31.4601 33.46 31.8201 34.04L34.2801 37.96V35.04C34.2801 33.96 35.1401 33.08 36.2001 33.04C37.0801 33 37.8201 32.96 38.4601 32.92C39.2201 32.88 39.7601 32.34 39.8001 31.6C39.9201 29.78 40.0001 27.66 40.0001 25.28C40.0001 23.24 39.9601 22.7 39.8801 21.94L39.8001 20.98C39.7401 20.24 39.2001 19.72 38.4601 19.66C36.4201 19.54 34.0201 19.46 31.3601 19.46ZM12.9401 36.52C12.4801 36.52 12.0001 36.42 11.5601 36.2C10.4201 35.66 9.70012 34.54 9.70012 33.28V28.02C6.78012 27.68 4.52012 25.36 4.28012 22.42C3.90012 17.58 3.90012 14.78 4.28012 9.94C4.52012 6.88 6.94012 4.52 10.0201 4.3C13.0601 4.1 16.6601 4 20.7001 4C24.7401 4 28.3401 4.1 31.3801 4.3C34.4601 4.5 36.8801 6.88 37.1201 9.94C37.1601 10.48 37.2001 11.1 37.2401 11.78C37.3001 12.88 36.4601 13.82 35.3601 13.9C34.2601 13.96 33.3201 13.12 33.2401 12.02C33.2001 11.36 33.1601 10.78 33.1201 10.26C33.0401 9.16 32.2201 8.38 31.1001 8.3C28.1801 8.1 24.5801 8 20.6801 8C15.7601 8 12.3001 8.16 10.2601 8.3C9.14012 8.38 8.34012 9.16 8.24012 10.26C7.88012 14.92 7.88012 17.46 8.24012 22.1C8.32012 23.2 9.14012 23.98 10.2601 24.06C10.7201 24.1 11.2201 24.12 11.7801 24.16C12.8401 24.22 13.6801 25.1 13.6801 26.16V31.66L14.0601 31.34C14.9001 30.64 16.1601 30.74 16.8801 31.6C17.5801 32.44 17.4801 33.7 16.6201 34.42L14.9601 35.8C14.3601 36.3 13.6401 36.56 12.9001 36.56L12.9401 36.52Z" fill="#646464"/>
</svg>
