<svg width="48" height="48" viewBox="0 0 48 48" fill="none" xmlns="http://www.w3.org/2000/svg">
<path fill-rule="evenodd" clip-rule="evenodd" d="M10.0321 4.71369C18.2183 4.09635 29.7354 4.09545 37.9311 4.71093C40.8112 4.92722 43.0624 7.2162 43.2708 10.0768C43.9033 18.7568 43.9102 29.8432 43.2886 37.9697C43.0707 40.819 40.8196 43.0713 37.9678 43.2863C29.7697 43.9046 18.2303 43.9046 10.0321 43.2863C7.18066 43.0713 4.92872 40.8193 4.71369 37.9678C4.09544 29.7697 4.09544 18.2303 4.71369 10.0322C4.92872 7.18067 7.18067 4.92873 10.0321 4.71369ZM37.6316 8.69969C29.6354 8.0992 18.3189 8.10012 10.3329 8.70237C9.45335 8.7687 8.76869 9.45336 8.70236 10.3329C8.09921 18.3309 8.09921 29.6691 8.70236 37.667C8.76869 38.5466 9.45335 39.2313 10.3329 39.2976C18.3309 39.9008 29.6691 39.9008 37.667 39.2976C38.5464 39.2313 39.2328 38.5461 39.3003 37.6646C39.9057 29.7492 39.9003 18.8624 39.2814 10.3674C39.2155 9.46336 38.5154 8.76607 37.6316 8.69969Z" fill="#646464"/>
<path fill-rule="evenodd" clip-rule="evenodd" d="M21.8847 14.1425C20.3385 13.5266 18.7028 13.6493 17.376 14.471C16.0637 15.2836 15.2259 16.6709 15.0099 18.263C14.8035 19.7843 14.6367 21.7195 14.6367 24.0013C14.6367 26.2832 14.8035 28.2184 15.0099 29.7397C15.2259 31.3319 16.0637 32.719 17.376 33.5317C18.7028 34.3533 20.3384 34.4761 21.8847 33.8601C23.2185 33.3288 24.9327 32.5464 27.1045 31.3925C29.1569 30.3022 30.7911 29.3195 32.0722 28.4793C33.6748 27.4281 34.6031 25.7757 34.6031 24.0013C34.6031 22.227 33.6748 20.5746 32.0722 19.5234C30.791 18.683 29.1568 17.7004 27.1045 16.6101C24.9327 15.4563 23.2185 14.6739 21.8847 14.1425ZM18.9736 18.8006C19.046 18.2671 19.2882 17.9917 19.482 17.8717C19.6613 17.7606 19.9578 17.6806 20.4044 17.8585C21.581 18.3272 23.1621 19.0451 25.2278 20.1425C27.1778 21.1786 28.7057 22.099 29.8784 22.8681C30.4462 23.2406 30.6031 23.6819 30.6031 24.0013C30.6031 24.3208 30.4462 24.7621 29.8784 25.1345C28.7057 25.9036 27.1778 26.8241 25.2278 27.8601C23.1621 28.9575 21.581 29.6754 20.4044 30.1441C19.9579 30.322 19.6613 30.242 19.482 30.131C19.2882 30.011 19.046 29.7354 18.9736 29.202C18.7893 27.8434 18.6367 26.0884 18.6367 24.0013C18.6367 21.9142 18.7893 20.1592 18.9736 18.8006Z" fill="#646464"/>
</svg>
