<svg width="48" height="48" viewBox="0 0 48 48" fill="none" xmlns="http://www.w3.org/2000/svg">
<path d="M24 44C22.9 44 22 43.1 22 42V32.82L19.42 35.4C18.64 36.18 17.38 36.18 16.6 35.4C15.82 34.62 15.82 33.36 16.6 32.58L22.6 26.58C22.8 26.38 23.02 26.24 23.26 26.14C23.5 26.04 23.74 25.98 24.02 25.98C24.28 25.98 24.54 26.04 24.78 26.14C25.02 26.24 25.24 26.38 25.44 26.58L31.44 32.58C32.22 33.36 32.22 34.62 31.44 35.4C30.66 36.18 29.4 36.18 28.62 35.4L26.04 32.82V42C26.04 43.1 25.14 44 24.04 44H24Z" fill="#646464"/>
<path d="M12.92 21.68C10.2 21.46 8.22 19.42 8.08 16.74C8.04 15.8 8 14.58 8 13C8 11.42 8.04 10.2 8.08 9.26C8.22 6.58 10.2 4.54 12.92 4.32C15.52 4.1 19.26 4 24 4C28.74 4 32.48 4.1 35.08 4.32C37.78 4.54 39.76 6.56 39.9 9.24C39.94 10.18 39.98 11.4 39.98 12.98C39.98 14.56 39.94 15.78 39.9 16.72C39.76 19.4 37.78 21.42 35.08 21.64C32.48 21.86 26.04 21.96 24 21.96C21.96 21.96 14.0827 21.7784 12.92 21.68ZM24 8C18.22 8 14.96 8.16 13.24 8.32C12.52 8.38 12.12 8.78 12.08 9.46C12.04 10.34 12 11.5 12 13C12 14.5 12.04 15.66 12.08 16.54C12.12 17.22 12.52 17.64 13.24 17.7C14.96 17.84 18.22 18.02 24 18.02C29.78 18.02 33.04 17.86 34.76 17.7C35.26 17.66 35.88 17.42 35.92 16.56C35.96 15.68 36 14.52 36 13.02C36 11.52 35.96 10.36 35.92 9.48C35.88 8.6 35.26 8.38 34.76 8.34C33.04 8.2 29.78 8.02 24 8.02V8Z" fill="#646464"/>
<path d="M24 44C22.9 44 22 43.1 22 42V32.82L19.42 35.4C18.64 36.18 17.38 36.18 16.6 35.4C15.82 34.62 15.82 33.36 16.6 32.58L22.6 26.58C22.8 26.38 23.02 26.24 23.26 26.14C23.5 26.04 23.74 25.98 24.02 25.98C24.28 25.98 24.54 26.04 24.78 26.14C25.02 26.24 25.24 26.38 25.44 26.58L31.44 32.58C32.22 33.36 32.22 34.62 31.44 35.4C30.66 36.18 29.4 36.18 28.62 35.4L26.04 32.82V42C26.04 43.1 25.14 44 24.04 44H24Z" fill="#646464"/>
<path d="M12.92 21.68C10.2 21.46 8.22 19.42 8.08 16.74C8.04 15.8 8 14.58 8 13C8 11.42 8.04 10.2 8.08 9.26C8.22 6.58 10.2 4.54 12.92 4.32C15.52 4.1 19.26 4 24 4C28.74 4 32.48 4.1 35.08 4.32C37.78 4.54 39.76 6.56 39.9 9.24C39.94 10.18 39.98 11.4 39.98 12.98C39.98 14.56 39.94 15.78 39.9 16.72C39.76 19.4 37.78 21.42 35.08 21.64C32.48 21.86 26.04 21.96 24 21.96C21.96 21.96 14.0827 21.7784 12.92 21.68ZM24 8C18.22 8 14.96 8.16 13.24 8.32C12.52 8.38 12.12 8.78 12.08 9.46C12.04 10.34 12 11.5 12 13C12 14.5 12.04 15.66 12.08 16.54C12.12 17.22 12.52 17.64 13.24 17.7C14.96 17.84 18.22 18.02 24 18.02C29.78 18.02 33.04 17.86 34.76 17.7C35.26 17.66 35.88 17.42 35.92 16.56C35.96 15.68 36 14.52 36 13.02C36 11.52 35.96 10.36 35.92 9.48C35.88 8.6 35.26 8.38 34.76 8.34C33.04 8.2 29.78 8.02 24 8.02V8Z" fill="#646464"/>
</svg>
