<svg width="48" height="48" viewBox="0 0 48 48" fill="none" xmlns="http://www.w3.org/2000/svg">
<path d="M32.8 28C32.8 26.8954 31.9046 26 30.8 26C29.6955 26 28.8 26.8954 28.8 28C28.8 30.2288 27.0288 32 24.8 32C23.6955 32 22.8 32.8954 22.8 34C22.8 35.1046 23.6955 36 24.8 36C29.238 36 32.8 32.4379 32.8 28Z" fill="#646464"/>
<path fill-rule="evenodd" clip-rule="evenodd" d="M27.6684 5.29289C25.4862 3.62079 22.5137 3.62079 20.3315 5.29289C18.1491 6.9652 14.9142 9.76832 12.2103 13.4613C9.50851 17.1515 7.24634 21.8568 7.24634 27.2852C7.24634 36.5862 14.6989 44.0388 23.9999 44.0388C33.301 44.0388 40.7535 36.5862 40.7535 27.2852C40.7535 21.8568 38.4914 17.1515 35.7896 13.4613C33.0857 9.76832 29.8508 6.9652 27.6684 5.29289ZM22.7644 8.46796C23.5112 7.89577 24.4887 7.89577 25.2355 8.46796C27.248 10.0101 30.1639 12.5488 32.5621 15.8243C34.9624 19.1027 36.7535 22.9925 36.7535 27.2852C36.7535 34.3771 31.0918 40.0388 23.9999 40.0388C16.9081 40.0388 11.2463 34.3771 11.2463 27.2852C11.2463 22.9925 13.0375 19.1027 15.4377 15.8243C17.8359 12.5488 20.7519 10.0101 22.7644 8.46796Z" fill="#646464"/>
</svg>
