<svg width="48" height="48" viewBox="0 0 48 48" fill="none" xmlns="http://www.w3.org/2000/svg">
<path fill-rule="evenodd" clip-rule="evenodd" d="M43.7363 34.5893C43.7363 35.6939 42.8409 36.5893 41.7363 36.5893H36.5893V42.5893C36.5893 43.6939 35.6939 44.5893 34.5893 44.5893C33.4848 44.5893 32.5893 43.6939 32.5893 42.5893V36.5893H15.147C12.9378 36.5893 11.147 34.7985 11.147 32.5893L11.147 16H6C4.89543 16 4 15.1046 4 14C4 12.8954 4.89543 12 6 12H11.147L11.147 6C11.147 4.89543 12.0424 4 13.147 4C14.2516 4 15.147 4.89543 15.147 6L15.147 32.5893L41.7363 32.5893C42.8409 32.5893 43.7363 33.4848 43.7363 34.5893ZM20.5796 12C19.475 12 18.5796 12.8954 18.5796 14C18.5796 15.1046 19.475 16 20.5796 16H32.5889L32.5889 28C32.5889 29.1046 33.4844 30 34.5889 30C35.6935 30 36.5889 29.1046 36.5889 28V16C36.5889 13.7909 34.7981 12 32.5889 12H20.5796Z" fill="#646464"/>
</svg>
