<svg width="48" height="48" viewBox="0 0 48 48" fill="none" xmlns="http://www.w3.org/2000/svg">
<path fill-rule="evenodd" clip-rule="evenodd" d="M13.3265 9.5032C10.4097 9.5032 8.00029 11.9064 8.00029 14.9267C8.00029 16.7495 8.88052 18.3549 10.2277 19.3384C10.2602 19.3621 10.292 19.3869 10.323 19.4126C11.1744 20.1168 12.6619 21.1221 14.5753 22.2946C15.1686 22.6582 15.5304 23.304 15.5304 23.9999C15.5304 24.6958 15.1686 25.3416 14.5753 25.7052C12.6618 26.8777 11.1741 27.8831 10.3227 28.5872C10.2917 28.6129 10.2599 28.6376 10.2274 28.6614C8.88023 29.6449 8 31.2503 8 33.0731C8 36.0934 10.4094 38.4966 13.3262 38.4966C16.2429 38.4966 18.6523 36.0934 18.6523 33.0731C18.6523 32.1355 18.4203 31.2598 18.0142 30.4962L17.992 30.4531C17.9535 30.3761 17.9143 30.2984 17.8753 30.221C17.7328 29.9379 17.5923 29.6586 17.4889 29.4352C17.423 29.2929 17.3431 29.1119 17.2804 28.9268C17.2489 28.8339 17.207 28.6975 17.1777 28.5367C17.1533 28.4033 17.1063 28.0955 17.179 27.722C17.2623 27.2931 17.5418 26.652 18.2535 26.286C18.864 25.9722 19.4275 26.0591 19.6524 26.1084C20.0844 26.2029 20.4189 26.4216 20.5296 26.4939L20.5342 26.4969C20.8464 26.7009 21.2285 27.0129 21.6407 27.3639C21.867 27.5566 22.1001 27.7562 22.3396 27.9613C24.0796 29.4515 26.1549 31.2287 28.378 32.7165C30.9565 34.4421 33.3913 35.5356 35.4186 35.5356C37.6015 35.5356 39.0849 34.7068 39.7087 34.0098C39.8213 33.884 39.8904 33.7819 39.9328 33.706C32.107 29.7896 32.0541 29.7632 24.0386 25.792C23.3575 25.4545 22.9265 24.7601 22.9265 23.9999C22.9265 23.2397 23.3575 22.5453 24.0386 22.2078C28.0906 20.2002 30.1079 19.2008 32.123 18.1973C34.0942 17.2158 36.0634 16.2304 39.9331 14.2938C39.8907 14.2179 39.8215 14.1157 39.709 13.99C39.0852 13.293 37.6018 12.4642 35.4189 12.4642C33.3916 12.4642 30.9568 13.5577 28.3783 15.2833C26.1552 16.7711 24.0799 18.5483 22.3399 20.0385C22.1004 20.2435 21.8673 20.4432 21.641 20.6359C21.2288 20.9869 20.8467 21.2989 20.5345 21.5029L20.5299 21.5059C20.4192 21.5782 20.0847 21.7969 19.6527 21.8914C19.4278 21.9407 18.8643 22.0276 18.2538 21.7138C17.542 21.3478 17.2626 20.7067 17.1792 20.2778C17.1066 19.9043 17.1536 19.5964 17.178 19.463C17.2073 19.3023 17.2492 19.1659 17.2807 19.073C17.3434 18.8879 17.4233 18.7069 17.4892 18.5646C17.5926 18.3412 17.7331 18.0619 17.8756 17.7788C17.9146 17.7014 17.9538 17.6237 17.9923 17.5467L18.0145 17.5036C18.4206 16.74 18.6526 15.8643 18.6526 14.9267C18.6526 11.9064 16.2432 9.5032 13.3265 9.5032ZM4.00029 14.9267C4.00029 9.74723 8.15095 5.5032 13.3265 5.5032C18.3805 5.5032 22.4572 9.55037 22.6458 14.5636C23.7402 13.6824 24.9253 12.781 26.1536 11.9591C28.8739 10.1385 32.1483 8.46424 35.4189 8.46424C38.5338 8.46424 41.1797 9.63545 42.6895 11.3223C43.4358 12.1561 44.0355 13.2772 43.9987 14.545C43.9585 15.9316 43.1706 17.0583 41.9862 17.7358C41.954 17.7542 41.9213 17.7717 41.8882 17.7883C35.3072 21.0818 34.1415 21.6651 29.4311 23.9999C34.1219 26.325 35.2972 26.9132 41.8064 30.1707L41.8879 30.2115C41.9211 30.2281 41.9537 30.2456 41.9859 30.264C43.1703 30.9415 43.9582 32.0682 43.9984 33.4548C44.0352 34.7226 43.4355 35.8436 42.6892 36.6775C41.1794 38.3643 38.5335 39.5356 35.4186 39.5356C32.1481 39.5356 28.8736 37.8613 26.1533 36.0407C24.925 35.2188 23.7399 34.3174 22.6455 33.4362C22.4569 38.4494 18.3802 42.4966 13.3262 42.4966C8.15066 42.4966 4 38.2526 4 33.0731C4 29.9546 5.50202 27.1826 7.81894 25.4674C8.35629 25.0266 9.03821 24.5308 9.82258 23.9998C9.03831 23.4689 8.35651 22.9731 7.81921 22.5324C5.5023 20.8172 4.00029 18.0452 4.00029 14.9267ZM18.357 29.8526C18.3211 29.8322 18.3156 29.8254 18.3467 29.8458C18.3467 29.8458 18.3533 29.8501 18.357 29.8526ZM18.347 18.154C18.3159 18.1744 18.3214 18.1676 18.3573 18.1472C18.3536 18.1497 18.347 18.154 18.347 18.154Z" fill="#646464"/>
<path d="M15.7202 14.9271C15.7202 16.2938 14.6124 17.4016 13.2457 17.4016C11.8791 17.4016 10.7712 16.2938 10.7712 14.9271C10.7712 13.5605 11.8791 12.4526 13.2457 12.4526C14.6124 12.4526 15.7202 13.5605 15.7202 14.9271Z" fill="#646464"/>
<path d="M15.7202 33.0745C15.7202 34.4412 14.6124 35.549 13.2457 35.549C11.8791 35.549 10.7712 34.4412 10.7712 33.0745C10.7712 31.7078 11.8791 30.6 13.2457 30.6C14.6124 30.6 15.7202 31.7078 15.7202 33.0745Z" fill="#646464"/>
</svg>
