<svg width="48" height="48" viewBox="0 0 48 48" fill="none" xmlns="http://www.w3.org/2000/svg">
<path d="M42 35C42 31.134 38.866 28 35 28C31.1341 28 28 31.134 28 35C28 38.866 31.1341 42 35 42C38.866 42 42 38.866 42 35ZM32 4C34.6498 4 36.8114 6.06155 36.9825 8.66797C40.481 9.18306 43.1747 12.062 43.4161 15.6465C43.51 17.0407 43.5845 18.4729 43.6387 19.9258C43.6797 21.0293 42.8184 21.9566 41.7149 21.998C40.6111 22.0392 39.6819 21.178 39.6407 20.0742C39.5879 18.6591 39.5168 17.2676 39.4258 15.916C39.3244 14.4104 38.3158 13.1803 36.9375 12.752C36.5745 15.1562 34.5056 17 32 17C29.3298 17 27.1529 14.9066 27.0118 12.2715C25.0133 12.2453 22.9848 12.2453 20.9864 12.2715C20.8452 14.9065 18.6703 17 16.0001 17C13.4944 17 11.4236 15.1563 11.0606 12.752C9.68316 13.1807 8.67561 14.4096 8.57427 15.9141C8.14095 22.347 8.14095 29.6531 8.57427 36.0859C8.69546 37.885 10.1116 39.2937 11.9083 39.4062C14.4116 39.563 17.1797 39.6672 20.0352 39.7168C21.1393 39.7362 22.019 40.6459 22 41.75C21.9809 42.8544 21.0693 43.734 19.9649 43.7148C17.0606 43.6644 14.2319 43.5596 11.6583 43.3984C7.85379 43.1601 4.84035 40.1557 4.58403 36.3555C4.13865 29.7436 4.13866 22.2565 4.58403 15.6445C4.82577 12.0607 7.51889 9.18375 11.0157 8.66797C11.1867 6.06149 13.3503 4 16.0001 4C18.5137 4 20.5884 5.85577 20.9415 8.27148C22.9699 8.24498 25.0282 8.245 27.0567 8.27148C27.4096 5.85563 29.4863 4 32 4ZM33 32C33 30.8954 33.8955 30 35 30C36.1046 30 37 30.8954 37 32V34.1719L38.4141 35.5859C39.1952 36.367 39.1952 37.633 38.4141 38.4141C37.6331 39.1951 36.367 39.1951 35.586 38.4141L33.586 36.4141C33.2109 36.039 33 35.5304 33 35V32ZM16.0001 8C15.4478 8 15.0001 8.44771 15.0001 9V12C15.0001 12.5523 15.4478 13 16.0001 13C16.5523 13 17.0001 12.5523 17.0001 12V9C17.0001 8.44772 16.5523 8 16.0001 8ZM32 8C31.4478 8 31 8.44772 31 9V12C31 12.5523 31.4478 13 32 13C32.5523 13 33 12.5523 33 12V9C33 8.44772 32.5523 8 32 8ZM46 35C46 41.0751 41.0752 46 35 46C28.9249 46 24 41.0751 24 35C24 28.9249 28.9249 24 35 24C41.0752 24 46 28.9249 46 35Z" fill="#646464"/>
</svg>
