<svg width="48" height="48" viewBox="0 0 48 48" fill="none" xmlns="http://www.w3.org/2000/svg">
<path fill-rule="evenodd" clip-rule="evenodd" d="M6 24C6 22.8954 6.89543 22 8 22C9.10457 22 10 22.8954 10 24C10 25.1046 9.10457 26 8 26C6.89543 26 6 25.1046 6 24Z" fill="#646464"/>
<path fill-rule="evenodd" clip-rule="evenodd" d="M14 24C14 22.8954 14.8954 22 16 22C17.1046 22 18 22.8954 18 24C18 25.1046 17.1046 26 16 26C14.8954 26 14 25.1046 14 24Z" fill="#646464"/>
<path fill-rule="evenodd" clip-rule="evenodd" d="M22 24C22 22.8954 22.8954 22 24 22C25.1046 22 26 22.8954 26 24C26 25.1046 25.1046 26 24 26C22.8954 26 22 25.1046 22 24Z" fill="#646464"/>
<path fill-rule="evenodd" clip-rule="evenodd" d="M30 24C30 22.8954 30.8954 22 32 22C33.1046 22 34 22.8954 34 24C34 25.1046 33.1046 26 32 26C30.8954 26 30 25.1046 30 24Z" fill="#646464"/>
<path fill-rule="evenodd" clip-rule="evenodd" d="M38 24C38 22.8954 38.8954 22 40 22C41.1046 22 42 22.8954 42 24C42 25.1046 41.1046 26 40 26C38.8954 26 38 25.1046 38 24Z" fill="#646464"/>
</svg>
