<svg width="48" height="48" viewBox="0 0 48 48" fill="none" xmlns="http://www.w3.org/2000/svg">
<path fill-rule="evenodd" clip-rule="evenodd" d="M10.1854 6.42874C12.9927 6.22135 17.5092 6 24 6C30.4908 6 35.0073 6.22135 37.8146 6.42874C40.8983 6.65655 43.2889 9.05317 43.5594 12.1555C43.7805 14.692 44 18.5756 44 24C44 29.4244 43.7805 33.308 43.5594 35.8444C43.2889 38.9469 40.8983 41.3435 37.8146 41.5712C35.0072 41.7787 30.4908 42 24 42C17.5092 42 12.9927 41.7787 10.1854 41.5712C7.10171 41.3435 4.71111 38.9469 4.44062 35.8445C4.21946 33.308 4 29.4244 4 24C4 18.5756 4.21946 14.692 4.44062 12.1555C4.71112 9.05316 7.10173 6.65654 10.1854 6.42874ZM8 24C8 29.3168 8.21512 33.0841 8.4255 35.497C8.52891 36.6831 9.39124 37.5017 10.4801 37.5821C13.1819 37.7817 17.5998 38 24 38C30.4002 38 34.8181 37.7817 37.5199 37.5821C38.6087 37.5017 39.4711 36.6831 39.5745 35.497C39.7849 33.0841 40 29.3168 40 24L39.9996 23.6052C38.81 24.3237 37.361 25.1736 35.8132 26.0251C33.841 27.11 31.6752 28.2158 29.6635 29.0558C27.7304 29.863 25.6661 30.5455 23.9999 30.5455C22.3337 30.5455 20.2695 29.863 18.3364 29.0558C16.3247 28.2158 14.1589 27.11 12.1867 26.0251C10.6389 25.1737 9.19001 24.3238 8.0004 23.6053L8 24ZM10.4801 10.4179C13.1819 10.2183 17.5998 10 24 10C30.4002 10 34.8181 10.2183 37.5199 10.4179C38.6087 10.4983 39.4711 11.3169 39.5745 12.503C39.7108 14.0659 39.849 16.197 39.9295 18.9493C39.6237 19.1419 39.2543 19.3726 38.833 19.6318C37.5488 20.4218 35.7903 21.4724 33.8852 22.5204C31.9739 23.5718 29.9478 24.6024 28.1222 25.3647C26.218 26.1598 24.7994 26.5455 23.9999 26.5455C23.2004 26.5455 21.7819 26.1598 19.8776 25.3647C18.0521 24.6024 16.026 23.5718 14.1147 22.5204C12.2096 21.4724 10.4511 20.4218 9.16698 19.6318C8.74565 19.3726 8.37625 19.142 8.07048 18.9494C8.15098 16.197 8.28923 14.0659 8.4255 12.503C8.52892 11.3169 9.39127 10.4983 10.4801 10.4179Z" fill="#646464"/>
</svg>
