<svg width="48" height="48" viewBox="0 0 48 48" fill="none" xmlns="http://www.w3.org/2000/svg">
<path fill-rule="evenodd" clip-rule="evenodd" d="M22.5858 6.58579C23.3668 5.80474 24.6332 5.80474 25.4142 6.58579L35.4142 16.5858C36.1953 17.3668 36.1953 18.6332 35.4142 19.4142C34.6332 20.1953 33.3668 20.1953 32.5858 19.4142L24 10.8284L15.4142 19.4142C14.6332 20.1953 13.3668 20.1953 12.5858 19.4142C11.8047 18.6332 11.8047 17.3668 12.5858 16.5858L22.5858 6.58579ZM12.5858 28.5858C13.3668 27.8047 14.6332 27.8047 15.4142 28.5858L24 37.1716L32.5858 28.5858C33.3668 27.8047 34.6332 27.8047 35.4142 28.5858C36.1953 29.3668 36.1953 30.6332 35.4142 31.4142L25.4142 41.4142C25.0391 41.7893 24.5304 42 24 42C23.4696 42 22.9609 41.7893 22.5858 41.4142L12.5858 31.4142C11.8047 30.6332 11.8047 29.3668 12.5858 28.5858Z" fill="#646464"/>
</svg>
