<svg width="48" height="48" viewBox="0 0 48 48" fill="none" xmlns="http://www.w3.org/2000/svg">
<path d="M10.1351 8.68162C17.446 8.10615 30.5539 8.10611 37.8649 8.68161C38.6532 8.74366 39.2562 9.34509 39.3187 10.1398C39.3673 10.7569 39.4119 11.418 39.4525 12.1163C39.5166 13.219 40.4625 14.0609 41.5652 13.9968C42.6679 13.9327 43.5099 12.9868 43.4458 11.8841C43.4038 11.1628 43.3574 10.4743 43.3064 9.82615C43.0901 7.07622 40.935 4.91091 38.1788 4.69394C30.6589 4.102 17.341 4.10204 9.8212 4.69396C7.06499 4.91091 4.90986 7.07618 4.69355 9.82609C4.64257 10.4742 4.59615 11.1627 4.55421 11.8839C4.49009 12.9866 5.33203 13.9325 6.43473 13.9966C7.53744 14.0608 8.48334 13.2188 8.54747 12.1161C8.58807 11.4179 8.63269 10.7569 8.68123 10.1398C8.74374 9.3451 9.34673 8.74368 10.1351 8.68162Z" fill="#646464"/>
<path d="M8.54747 35.8837C8.48335 34.781 7.53745 33.939 6.43474 34.0032C5.33203 34.0673 4.49009 35.0132 4.55421 36.1159C4.59616 36.8372 4.64257 37.5257 4.69356 38.1739C4.90987 40.9238 7.06497 43.0891 9.82117 43.3061C17.341 43.898 30.6589 43.898 38.1788 43.306C40.935 43.0891 43.0901 40.9238 43.3064 38.1738C43.3574 37.5257 43.4038 36.8371 43.4458 36.1159C43.5099 35.0132 42.6679 34.0673 41.5652 34.0032C40.4625 33.939 39.5166 34.781 39.4525 35.8837C39.4119 36.582 39.3673 37.243 39.3187 37.8602C39.2562 38.6549 38.6532 39.2563 37.8649 39.3184C30.5539 39.8939 17.446 39.8939 10.1351 39.3184C9.34673 39.2563 8.74375 38.6549 8.68124 37.8602C8.6327 37.2431 8.58807 36.582 8.54747 35.8837Z" fill="#646464"/>
<path d="M26.9 18.8C26.4455 18.4591 25.8374 18.4043 25.3292 18.6584C24.821 18.9125 24.5 19.4319 24.5 20V28C24.5 28.8284 25.1716 29.5 26 29.5C26.8284 29.5 27.5 28.8284 27.5 28V23L29.1 24.2C29.6333 24.6 30.3667 24.6 30.9 24.2L32.5 23V28C32.5 28.8284 33.1716 29.5 34 29.5C34.8284 29.5 35.5 28.8284 35.5 28V20C35.5 19.4319 35.179 18.9125 34.6708 18.6584C34.1626 18.4043 33.5545 18.4591 33.1 18.8L30 21.125L26.9 18.8Z" fill="#646464"/>
<path d="M5.5 20C5.5 19.1716 4.82843 18.5 4 18.5C3.17157 18.5 2.5 19.1716 2.5 20V28C2.5 28.8284 3.17157 29.5 4 29.5C4.82843 29.5 5.5 28.8284 5.5 28V24.5H8.5002V28C8.5002 28.8284 9.17177 29.5 10.0002 29.5C10.8286 29.5 11.5002 28.8284 11.5002 28L11.5 19.9999C11.4999 19.1715 10.8283 18.5 9.9999 18.5C9.17147 18.5001 8.49995 19.1717 8.5 20.0001L8.5001 21.5H5.5V20Z" fill="#646464"/>
<path d="M15.0002 18.5C14.1718 18.5 13.5002 19.1716 13.5002 20C13.5002 20.8284 14.1718 21.5 15.0002 21.5H16.5002V28C16.5002 28.8284 17.1718 29.5 18.0002 29.5C18.8286 29.5 19.5002 28.8284 19.5002 28V21.5H21C21.8284 21.5 22.5 20.8284 22.5 20C22.5 19.1716 21.8284 18.5 21 18.5H15.0002Z" fill="#646464"/>
<path d="M41.5 20C41.5 19.1716 40.8284 18.5 40 18.5C39.1716 18.5 38.5 19.1716 38.5 20V28C38.5 28.8284 39.1716 29.5 40 29.5H44C44.8284 29.5 45.5 28.8284 45.5 28C45.5 27.1716 44.8284 26.5 44 26.5H41.5V20Z" fill="#646464"/>
</svg>
