<svg width="48" height="48" viewBox="0 0 48 48" fill="none" xmlns="http://www.w3.org/2000/svg">
<path d="M25.0754 12.7696C25.0082 13.5211 24.2866 13.9967 23.4393 14.0184C22.5003 14.0424 21.0579 14.0664 19.0401 14.0664C17.0223 14.0664 7.57983 14.0424 6.64088 14.0184C5.79352 13.9967 5.07189 13.5211 5.00471 12.7696C4.98583 12.5582 4.974 12.3167 4.974 12.0436C4.974 11.7705 4.98583 11.529 5.00471 11.3175C5.07189 10.566 5.79352 10.0905 6.64088 10.0688C7.57983 10.0448 17.0223 10.0208 19.0401 10.0208C21.0579 10.0208 22.5003 10.0448 23.4393 10.0688C24.2866 10.0905 25.0082 10.566 25.0754 11.3175C25.0943 11.529 25.1061 11.7705 25.1061 12.0436C25.1061 12.3167 25.0943 12.5582 25.0754 12.7696Z" fill="#646464"/>
<path d="M27.1382 35.2787C27.0718 34.5264 26.358 34.0503 25.5199 34.0285C24.5911 34.0045 23.1644 33.9805 21.1686 33.9805C19.1728 33.9805 9.74603 34.0045 8.8173 34.0285C7.97918 34.0503 7.2654 34.5264 7.19895 35.2787C7.18028 35.4904 7.16858 35.7322 7.16858 36.0055C7.16858 36.2789 7.18028 36.5207 7.19895 36.7324C7.2654 37.4847 7.97918 37.9608 8.8173 37.9825C9.74603 38.0066 19.1728 38.0306 21.1686 38.0306C23.1644 38.0306 24.5911 38.0066 25.5199 37.9825C26.358 37.9608 27.0718 37.4847 27.1382 36.7324C27.1569 36.5207 27.1686 36.2789 27.1686 36.0055C27.1686 35.7322 27.1569 35.4904 27.1382 35.2787Z" fill="#646464"/>
<path d="M42.998 24.747C42.9369 25.498 42.2808 25.9733 41.5103 25.995C40.6566 26.0189 31.345 26.0429 29.5104 26.0429C27.6757 26.0429 21.538 26.0189 20.6843 25.995C19.9138 25.9733 19.2576 25.498 19.1966 24.747C19.1794 24.5357 19.1686 24.2944 19.1686 24.0215C19.1686 23.7486 19.1794 23.5072 19.1966 23.2959C19.2576 22.5449 19.9138 22.0697 20.6843 22.048C21.538 22.024 27.6757 22 29.5104 22C31.345 22 40.6566 22.024 41.5103 22.048C42.2808 22.0697 42.9369 22.5449 42.998 23.2959C43.0152 23.5072 43.0259 23.7486 43.0259 24.0215C43.0259 24.2944 43.0152 24.5357 42.998 24.747Z" fill="#646464"/>
</svg>
