<svg width="48" height="48" viewBox="0 0 48 48" fill="none" xmlns="http://www.w3.org/2000/svg">
<path d="M20.28 8.44024C19.54 7.84024 18.88 7.94024 18.58 8.18024H18.5647L18.58 8.19963C18.5794 8.20022 18.5788 8.20084 18.5781 8.20148C18.547 8.23113 18.4536 8.32001 18.2803 8.47999C18.1903 8.55999 18.0953 8.65499 17.9953 8.75499C17.8953 8.85499 17.7903 8.95999 17.6803 9.05999L24.3803 15.76C25.1603 16.54 25.1603 17.8 24.3803 18.58C23.6003 19.36 22.3403 19.36 21.5603 18.58L11.9803 8.99999C11.7603 9.11999 11.4803 9.29999 11.1803 9.59999C10.8803 9.89999 10.7003 10.18 10.5803 10.4L20.8803 20.7C21.6603 21.48 21.6603 22.74 20.8803 23.52C20.1003 24.3 18.8403 24.3 18.0603 23.52L9.70032 15.16C9.63997 15.227 9.57737 15.2919 9.51404 15.3574C9.38846 15.4874 9.25997 15.6205 9.14032 15.78C8.82032 16.2 8.64032 16.54 8.56032 16.78V16.82L18.2003 26.46C18.9803 27.24 18.9803 28.5 18.2003 29.28C17.4203 30.06 16.1603 30.06 15.3803 29.28L9.14032 23.04C8.96032 23.22 8.80032 23.38 8.62032 23.6C8.30032 24.02 8.12032 24.36 8.04032 24.6C8.02032 24.66 8.02032 24.68 8.02032 24.72L8.04186 24.7485C9.5797 26.7857 11.6546 29.5342 14.7003 32.58C17.1603 35.06 18.6803 36.16 22.0603 38.28C24.7803 39.98 28.4403 39.82 30.5803 37.88C31.3403 37.18 32.2203 36.36 33.1603 35.42C35.5003 33.1 37.5603 30.76 38.4203 29.64C39.0708 28.7727 39.5076 27.7111 39.6924 26.5509L43.5803 27.14C43.3203 28.92 42.6603 30.64 41.5203 32.12C40.5003 33.42 38.3203 35.9 35.9203 38.3C34.9403 39.3 34.0203 40.16 33.2003 40.9C29.5203 44.22 23.8603 44.22 19.8803 41.74C16.3403 39.52 14.5403 38.24 11.8003 35.48C8.38032 32.04 6.08032 28.96 4.52032 26.86C4.44032 26.74 4.38032 26.62 4.32032 26.5C3.82032 25.4 3.92032 24.3 4.20032 23.42C4.48032 22.56 4.96032 21.82 5.42032 21.22C5.67456 20.8875 5.96704 20.5742 6.24167 20.28L6.26032 20.26L5.26032 19.26C5.10032 19.08 4.96032 18.9 4.86032 18.68C4.36032 17.58 4.46032 16.48 4.74032 15.6C5.02032 14.74 5.50032 14 5.96032 13.4C6.23621 13.0256 6.57034 12.6706 6.8862 12.335L6.90032 12.32C6.26032 11.26 6.40032 10.08 6.68032 9.29999C7.02032 8.33999 7.66032 7.45999 8.32032 6.79999C9.00032 6.13999 9.86032 5.49999 10.8203 5.15999C11.7603 4.81999 13.2603 4.65999 14.4203 5.81999L14.8403 6.23999C15.0603 6.01999 15.3003 5.77998 15.5003 5.59999C15.6702 5.43008 15.9114 5.2067 16.0725 5.08126L16.04 5.04024C18.22 3.34024 21 3.94024 22.74 5.36024C24.9858 7.19426 27.3891 9.65868 30.3433 12.688C30.5462 12.8961 30.7518 13.1068 30.96 13.3202C31.0217 13.0737 31.0833 12.8153 31.1472 12.5473C31.2492 12.1196 31.3571 11.6675 31.48 11.2002C32.12 8.66024 34.6 6.26024 37.8 7.14024C38.72 7.38024 39.74 7.78024 40.74 8.40024C42.52 9.50024 42.98 11.4002 43.1 12.7202C43.146 13.2105 43.2257 13.8166 43.3181 14.5191C43.708 17.4849 44.3239 22.1684 43.58 27.1002L40.22 26.6002L39.6983 26.5133C39.6963 26.5258 39.6944 26.5384 39.6924 26.5509L39.6203 26.54L39.6799 26.5102L39.62 26.5002C40.2623 22.2393 39.7635 18.3342 39.3825 15.3519C39.2771 14.5267 39.1807 13.7721 39.12 13.1002C39.04 12.1602 38.78 11.9002 38.64 11.8002C38.04 11.4402 37.38 11.1802 36.74 11.0002C36.48 10.9202 36.26 10.9802 36.02 11.1402C35.76 11.3402 35.5 11.6802 35.38 12.1602L33.44 11.6802L33.66 11.7402L35.38 12.1802C34.98 13.7802 34.64 15.1802 34.42 16.1802C34.3598 16.4696 34.2995 16.7299 34.2479 16.9524C34.214 17.0989 34.1839 17.229 34.16 17.3402C34.1509 17.4041 34.1376 17.4597 34.1259 17.5088C34.1119 17.5674 34.1 17.6168 34.1 17.6602V17.7402C33.98 18.2602 33.68 18.7202 33.22 19.0002C31.24 20.2402 29.7 22.7402 29.88 25.4602C29.96 26.5602 29.12 27.5002 28.02 27.5802C26.92 27.6602 25.98 26.8202 25.9 25.7202C25.68 22.3202 27.12 19.2602 29.2 17.1602C28.4008 16.3486 27.6565 15.5859 26.9566 14.8686C24.276 12.1216 22.2466 10.042 20.28 8.44024Z" fill="#646464"/>
<path d="M18.58 8.19963C18.5928 8.18687 18.5936 8.18668 18.58 8.19963V8.19963Z" fill="#646464"/>
</svg>
