<svg width="48" height="48" viewBox="0 0 48 48" fill="none" xmlns="http://www.w3.org/2000/svg">
<path d="M4.58012 43.42C4.98012 43.8 5.48012 44 6.00012 44C6.52012 44 7.02012 43.82 7.42012 43.42L43.4001 7.4C44.1801 6.62 44.1801 5.35999 43.4001 4.58C42.6201 3.8 41.3601 3.8 40.5801 4.58L4.58012 40.6C3.80012 41.38 3.80012 42.64 4.58012 43.42Z" fill="#646464"/>
<path d="M28 8H20C18.9 8 18 7.1 18 6C18 4.9 18.9 4 20 4H28C29.1 4 30 4.9 30 6C30 7.1 29.1 8 28 8Z" fill="#646464"/>
<path d="M33.1399 41.82C33.1999 42.88 34.0799 43.7 35.1399 43.7H35.2599C36.1599 43.66 36.9599 43.6 37.6599 43.54C40.8199 43.28 43.2799 40.8 43.5399 37.66C43.566 37.2026 43.6007 36.7025 43.6383 36.1598C43.6583 35.8719 43.6791 35.5719 43.6999 35.26C43.7599 34.16 42.9199 33.2 41.8199 33.14C40.7399 33.1 39.7599 33.92 39.6999 35.02C39.6789 35.3211 39.6603 35.6101 39.6425 35.8876C39.6095 36.402 39.5789 36.8784 39.5399 37.32C39.4399 38.54 38.5199 39.44 37.3199 39.54C36.8912 39.5789 36.412 39.6095 35.893 39.6425C35.6131 39.6604 35.3212 39.6789 35.0199 39.7C33.9199 39.76 33.0799 40.72 33.1399 41.82Z" fill="#646464"/>
<path d="M6.1799 14.86H6.2799C7.3399 14.86 8.2199 14.04 8.2799 12.98C8.3199 12.12 8.3799 11.34 8.4399 10.68C8.5399 9.45996 9.4599 8.55996 10.6599 8.45996C11.1092 8.41912 11.6048 8.38755 12.153 8.35262C12.4099 8.33626 12.6793 8.3191 12.9599 8.29996C14.0599 8.23996 14.8999 7.27996 14.8399 6.17996C14.7799 5.07996 13.8199 4.21996 12.7199 4.29996C11.8199 4.33996 11.0399 4.39996 10.3399 4.45996C7.1999 4.71996 4.7199 7.19996 4.4599 10.34C4.43377 10.7972 4.39911 11.297 4.3615 11.8396C4.34153 12.1275 4.3207 12.4279 4.2999 12.74C4.2399 13.84 5.0799 14.8 6.1799 14.86Z" fill="#646464"/>
<path d="M40 28C40 29.1 40.9 30 42 30C43.1 30 44 29.1 44 28V20C44 18.9 43.1 18 42 18C40.9 18 40 18.9 40 20V28Z" fill="#646464"/>
<path d="M6 30C4.9 30 4 29.1 4 28V20C4 18.9 4.9 18 6 18C7.1 18 8 18.9 8 20V28C8 29.1 7.1 30 6 30Z" fill="#646464"/>
<path d="M20 44H28C29.1 44 30 43.1 30 42C30 40.9 29.1 40 28 40H20C18.9 40 18 40.9 18 42C18 43.1 18.9 44 20 44Z" fill="#646464"/>
</svg>
