<svg width="48" height="48" viewBox="0 0 48 48" fill="none" xmlns="http://www.w3.org/2000/svg">
<path d="M40.6872 22.9991C39.7961 21.4781 38.5247 20.2151 36.9979 19.3341C35.8322 18.6567 34.6268 18.2264 33.2658 18.0403V13.1669C33.9258 12.8934 34.4886 12.4282 34.8814 11.8314C35.2742 11.2346 35.4789 10.5337 35.469 9.81935C35.4714 9.33692 35.3785 8.85878 35.1956 8.41238C35.0126 7.96598 34.7433 7.56014 34.403 7.21816C34.0627 6.87618 33.6582 6.60481 33.2127 6.41964C32.7672 6.23447 32.2896 6.13915 31.8071 6.13915C30.83 6.13915 29.8926 6.52649 29.2005 7.21631C28.5084 7.90613 28.118 8.84218 28.1147 9.81935C28.1147 11.3146 28.9081 12.5902 30.2722 13.1669V18.0128C29.1423 18.1763 28.046 18.5205 27.0253 19.032L13.9799 9.1541C14.0714 8.80928 14.1507 8.45224 14.1507 8.0769C14.1507 5.82484 12.3259 4 10.0738 4C7.82179 4 6 5.82484 6 8.0769C6 10.329 7.82484 12.1538 10.0769 12.1538C10.8459 12.1538 11.5569 11.928 12.1703 11.5587L13.0247 12.2057L24.7275 20.6433C24.108 21.2109 23.5313 21.8578 23.0705 22.5841C22.1367 24.0641 21.5661 25.6906 21.5661 27.4666V27.8328C21.5702 29.0372 21.7871 30.2315 22.2069 31.3604C22.5609 32.3247 23.0796 33.2035 23.7235 33.9969L19.8358 37.8938C18.6854 37.4666 17.3946 37.7504 16.5249 38.6201C15.9329 39.209 15.6002 40.0116 15.6033 40.8477C15.6063 41.6839 15.9329 42.4803 16.5279 43.0754C17.123 43.6704 17.9194 44 18.7556 44C19.5917 44 20.3943 43.6704 20.9832 43.0754C21.5722 42.4803 21.9078 41.6839 21.9048 40.8477C21.9046 40.5268 21.8552 40.2077 21.7583 39.9017L25.7742 35.8859C26.3235 36.2673 26.9185 36.5877 27.5594 36.8624C28.8765 37.44 30.2987 37.7393 31.737 37.7412H32.0116C33.6961 37.7412 35.2859 37.3445 36.7782 36.5359C38.312 35.7134 39.6007 34.4994 40.5133 33.0174C41.4501 31.5221 41.9628 29.8651 41.9628 28.0433V27.9518C41.9628 26.1605 41.5478 24.5096 40.6811 22.996L40.6872 22.9991ZM35.7833 31.4275C34.6939 32.639 33.4397 33.3866 32.0238 33.3866H31.7553C30.9466 33.3866 30.1532 33.1639 29.3811 32.755C28.5346 32.3148 27.8173 31.6616 27.3 30.8599C26.7385 30.0665 26.4333 29.1999 26.4333 28.2814V28.0067C26.4333 27.1034 26.6073 26.246 27.0436 25.4373C27.5105 24.5218 28.1422 23.8657 28.9814 23.3195C29.8206 22.7733 30.6842 22.5108 31.6668 22.5108H31.7583C32.6433 22.5108 33.4886 22.6848 34.282 23.0906C35.0857 23.5134 35.7684 24.1341 36.2655 24.8941C36.7576 25.6563 37.0619 26.5243 37.1535 27.4269L37.1749 27.9976C37.1749 29.2395 36.6988 30.39 35.7498 31.4336L35.7833 31.4275Z" fill="#F8761F"/>
</svg>
