<svg width="48" height="48" viewBox="0 0 48 48" fill="none" xmlns="http://www.w3.org/2000/svg">
<path fill-rule="evenodd" clip-rule="evenodd" d="M36 8C33.7908 8 32 9.79086 32 12C32 14.2092 33.7908 16 36 16C38.2092 16 40 14.2092 40 12C40 9.79086 38.2092 8 36 8ZM28 12C28 7.58173 31.5817 4 36 4C40.4183 4 44 7.58173 44 12C44 16.4183 40.4183 20 36 20C31.5817 20 28 16.4183 28 12ZM10.1521 12.5443C12.8393 12.3671 17.1028 12.1818 23.1818 12.1818C24.2864 12.1818 25.1818 13.0772 25.1818 14.1818C25.1818 15.2864 24.2864 16.1818 23.1818 16.1818C17.1838 16.1818 13.0083 16.3647 10.4153 16.5356M10.1521 12.5443C7.12527 12.7439 4.66854 15.0207 4.38907 18.1139L10.1521 12.5443ZM4.38907 18.1139L7.2706 15.3291L10.1521 12.5443M10.4153 16.5356C9.28074 16.6104 8.46863 17.4136 8.37285 18.4738C8.28421 19.4549 8.1967 20.6705 8.12876 22.1353C8.31322 22.2521 8.51217 22.3788 8.72158 22.5121C9.01368 22.698 9.32614 22.8969 9.6481 23.1003C10.942 23.9177 12.5982 24.9459 14.3522 25.9532C16.1127 26.9642 17.9367 27.9336 19.5689 28.6448C21.2797 29.3901 22.5092 29.7276 23.1812 29.7276C23.853 29.7276 25.0818 29.3903 26.7919 28.6453C28.4235 27.9345 30.2467 26.9654 32.0068 25.9547C33.7604 24.9477 35.4164 23.9197 36.7107 23.1021C37.0313 22.8996 37.3425 22.7016 37.6335 22.5163C38.1592 22.1818 38.6193 21.889 38.9508 21.687C39.2863 21.3885 39.7237 21.2006 40.2075 21.1831C41.3114 21.1433 42.2385 22.0059 42.2783 23.1098C42.3309 24.5686 42.3636 26.2255 42.3636 28.0909C42.3636 32.5706 42.1751 35.8485 41.9746 38.0679C41.6951 41.1612 39.2384 43.438 36.2116 43.6376C33.5243 43.8147 29.2608 44 23.1818 44C17.1028 44 12.8393 43.8147 10.1521 43.6376C7.12527 43.438 4.66853 41.1612 4.38907 38.0679C4.18856 35.8485 4 32.5706 4 28.0909C4 26.2762 4.03095 24.6586 4.08109 23.2288C4.08095 23.1779 4.08276 23.1268 4.08656 23.0757C4.16036 21.0465 4.27271 19.4019 4.38907 18.1139L7.2706 15.3291L10.1521 12.5443M8.00554 26.793C8.00191 27.2132 8 27.6458 8 28.0909C8 32.4586 8.18386 35.6161 8.37285 37.708C8.46863 38.7682 9.28071 39.5714 10.4153 39.6462C13.0083 39.8171 17.1838 40 23.1818 40C29.1798 40 33.3552 39.8171 35.9484 39.6462M8.00554 26.793C9.24067 27.5686 10.7562 28.5008 12.3603 29.4219C14.1787 30.4662 16.1463 31.5168 17.9713 32.3118C19.7178 33.0728 21.6113 33.7276 23.1812 33.7276C24.7508 33.7276 26.6436 33.073 28.3895 32.3124C30.2138 31.5176 32.1807 30.4674 33.9987 29.4235C35.6046 28.5013 37.1219 27.568 38.3581 26.7918C38.3617 27.2124 38.3636 27.6453 38.3636 28.0909C38.3636 32.4586 38.1798 35.6161 37.9908 37.708C37.895 38.7682 37.0829 39.5714 35.9484 39.6462" fill="#646464"/>
</svg>
