<svg width="48" height="48" viewBox="0 0 48 48" fill="none" xmlns="http://www.w3.org/2000/svg">
<path fill-rule="evenodd" clip-rule="evenodd" d="M30 4C31.1046 4 32 4.89543 32 6V42C32 43.1046 31.1046 44 30 44C28.8954 44 28 43.1046 28 42V6C28 4.89543 28.8954 4 30 4ZM42 4C43.1046 4 44 4.89543 44 6V42C44 43.1046 43.1046 44 42 44C40.8954 44 40 43.1046 40 42V6C40 4.89543 40.8954 4 42 4ZM14 8C15.1046 8 16 8.89543 16 10V33.1716L20.5858 28.5858C21.3668 27.8047 22.6332 27.8047 23.4142 28.5858C24.1953 29.3668 24.1953 30.6332 23.4142 31.4142L15.4142 39.4142C14.6332 40.1953 13.3668 40.1953 12.5858 39.4142L4.58579 31.4142C3.80474 30.6332 3.80474 29.3668 4.58579 28.5858C5.36683 27.8047 6.63317 27.8047 7.41421 28.5858L12 33.1716V10C12 8.89543 12.8954 8 14 8Z" fill="#646464"/>
</svg>
