<svg width="48" height="48" viewBox="0 0 48 48" fill="none" xmlns="http://www.w3.org/2000/svg">
<path fill-rule="evenodd" clip-rule="evenodd" d="M22.666 11.76C20.5201 8.19142 15.6963 6.91072 11.8957 9.01745C8.13971 11.0995 6.9196 15.6367 9.03509 19.1547C9.85951 20.5256 11.0733 21.5587 12.4844 22.1934C13.4917 22.6465 13.941 23.8305 13.4879 24.8378C13.0348 25.8452 11.8508 26.2945 10.8435 25.8414C8.73191 24.8915 6.87528 23.3248 5.60716 21.216L7.32112 20.1853L5.60716 21.216C2.28322 15.6885 4.29111 8.65937 9.95646 5.51898C15.5772 2.40331 22.8005 4.22181 26.094 9.69866C27.3633 11.8094 27.8601 14.1604 27.6572 16.4341C27.5591 17.5343 26.5876 18.3466 25.4874 18.2484C24.3872 18.1502 23.5749 17.1787 23.6731 16.0785C23.8022 14.631 23.4893 13.129 22.666 11.76ZM14.1774 12.5383C16.4334 11.2878 19.3541 11.9995 20.705 14.2458L24.2456 20.1337L36.0511 18.5007C37.9522 18.2377 39.8736 19.105 40.8774 20.7744L42.0083 22.655C46.1242 29.4995 43.6463 38.2127 36.6092 42.1135C32.2658 44.5211 26.953 44.6303 22.5084 42.4062L14.5311 38.4143C12.4855 37.3906 11.3859 35.0866 12.0126 32.8409C12.8359 29.8907 16.136 28.5119 18.8382 29.7101L12.4031 19.0089C11.0218 16.7119 11.8768 13.8136 14.1774 12.5383ZM17.277 16.3072C17.0737 15.9691 16.5525 15.7952 16.1166 16.0368C15.7254 16.2537 15.6581 16.6601 15.831 16.9475L25.6799 33.3258C26.1345 34.0816 26.0402 35.046 25.4479 35.6995C24.8556 36.3531 23.9051 36.5414 23.1083 36.1632L17.2414 33.3781C16.6248 33.0854 15.9943 33.4543 15.8654 33.9162C15.7758 34.237 15.9126 34.6327 16.3211 34.8371L24.2984 38.8291C27.5651 40.4638 31.4826 40.3818 34.67 38.615C39.7977 35.7726 41.4878 29.5513 38.5804 24.7163L37.4495 22.8357C37.3027 22.5916 36.9759 22.4108 36.5992 22.4629L23.486 24.2769C22.6928 24.3866 21.9107 24.0126 21.498 23.3264L17.277 16.3072Z" fill="#646464"/>
</svg>
