<svg width="48" height="48" viewBox="0 0 48 48" fill="none" xmlns="http://www.w3.org/2000/svg">
<path fill-rule="evenodd" clip-rule="evenodd" d="M14.2199 13.42L14.0681 17.4221C10.3103 17.8325 7.65538 20.5976 7.43979 24.4C7.33979 26.14 7.27979 28.22 7.27979 30.54C7.27979 33.06 7.33979 35.28 7.47978 37.12C7.73979 40.7 10.3598 43.32 13.9798 43.64C16.6198 43.86 19.9798 43.98 23.9998 43.98L24.0198 43.96C28.0398 43.96 31.3998 43.84 34.0398 43.62C37.6598 43.32 40.2598 40.68 40.5398 37.1C40.6598 35.28 40.7398 33.06 40.7398 30.52C40.7398 27.98 40.6798 25.76 40.5398 23.94C40.2798 20.36 37.6598 17.74 34.0398 17.42L33.9313 17.411L33.7799 13.42C33.5799 8.14 29.2799 4 23.9999 4C18.7199 4 14.4199 8.14 14.2199 13.42ZM29.7799 13.56L29.9173 17.183C28.1042 17.1154 26.1063 17.08 24.0198 17.08C21.8525 17.08 19.87 17.1182 18.083 17.1874L18.2199 13.58C18.3399 10.44 20.8799 8 23.9999 8C27.1199 8 29.6599 10.44 29.7799 13.56ZM21.9998 32.16C21.9998 33.26 22.8998 34.16 23.9998 34.16C25.0998 34.16 25.9998 33.26 25.9998 32.16V28.88C25.9998 27.78 25.0998 26.88 23.9998 26.88C22.8998 26.88 21.9998 27.78 21.9998 28.88V32.16Z" fill="#646464"/>
</svg>
