<svg width="48" height="48" viewBox="0 0 48 48" fill="none" xmlns="http://www.w3.org/2000/svg">
<path d="M23.9999 4C30.8978 4.00053 36.5075 9.5644 36.5077 16.4512C36.5077 19.7367 35.2251 22.7174 33.1425 24.9395C33.606 25.2054 34.0826 25.5106 34.5487 25.8574C35.4348 26.5168 35.6183 27.7701 34.9589 28.6562C34.2995 29.5413 33.0478 29.7248 32.162 29.0664C30.8443 28.0858 29.328 27.5295 28.7362 27.3301C27.9956 27.0805 27.4688 26.4217 27.3866 25.6445C27.3046 24.8672 27.6831 24.1136 28.3554 23.7148C30.8506 22.2345 32.5077 19.5312 32.5077 16.4512C32.5075 11.7944 28.7095 8.00053 23.9999 8C19.2899 8 15.4904 11.7941 15.4901 16.4512C15.4901 19.5326 17.1491 22.237 19.6464 23.7168C20.3188 24.1153 20.6988 24.8691 20.6171 25.6465C20.5352 26.4234 20.0076 27.082 19.2675 27.332C14.3188 29.0017 11.1096 33.278 10.039 37.7305C9.93784 38.1521 10.0383 38.5141 10.2733 38.8105C10.5227 39.1249 10.955 39.3931 11.5233 39.4531C13.7729 39.6905 17.2015 39.9342 22.0214 39.9883C23.1259 40.0007 24.0123 40.9072 23.9999 42.0117C23.9873 43.1157 23.0823 44.0001 21.9784 43.9883C17.0446 43.933 13.4885 43.6814 11.1034 43.4297C7.97315 43.0986 5.31243 40.2806 6.15028 36.7949C7.25601 32.1966 10.2128 27.6248 14.8651 24.9492C12.7769 22.7262 11.4901 19.7416 11.4901 16.4512C11.4904 9.56406 17.1017 4 23.9999 4Z" fill="#646464"/>
<path d="M40.5858 30.5547C41.3669 29.7737 42.6329 29.7737 43.414 30.5547C44.195 31.3357 44.195 32.6018 43.414 33.3828L35.414 41.3828C34.6329 42.1638 33.3669 42.1638 32.5858 41.3828L28.5858 37.3828C27.8048 36.6018 27.8048 35.3357 28.5858 34.5547C29.318 33.8225 30.4761 33.7773 31.2616 34.418L31.414 34.5547L33.9999 37.1406L40.5858 30.5547Z" fill="#646464"/>
</svg>
