<svg width="48" height="48" viewBox="0 0 48 48" fill="none" xmlns="http://www.w3.org/2000/svg">
<path d="M23.9986 4C30.5284 4.00006 35.8228 9.19964 35.8228 15.6133C35.8227 19.8559 33.5058 23.5674 30.0474 25.5938C32.4544 26.395 34.5312 27.6606 36.2584 29.2227L33.9908 31.4922L33.3365 30.9824C31.159 29.5235 28.2406 29.639 26.1842 31.3379L25.7584 31.7266C23.4152 34.0697 23.4152 37.8678 25.7584 40.2109L29.4674 43.9199C27.8236 43.9675 26.0064 44 24.0064 44C17.3249 44 12.6785 43.6865 9.72713 43.3789C7.2997 43.1258 5.54057 41.0681 6.10799 38.7363C7.46163 33.1766 11.5355 27.7351 17.9556 25.5957C14.4947 23.5701 12.1765 19.8578 12.1763 15.6133C12.1763 9.19971 17.469 4.00017 23.9986 4Z" fill="#646464"/>
<path d="M40.5865 30.5547C41.3676 29.7739 42.6337 29.7737 43.4146 30.5547C44.1953 31.3357 44.1953 32.6018 43.4146 33.3828L35.4146 41.3828C34.6337 42.1638 33.3676 42.1636 32.5865 41.3828L28.5865 37.3828C27.8055 36.6018 27.8055 35.3357 28.5865 34.5547C29.3188 33.8227 30.4768 33.7774 31.2623 34.418L31.4146 34.5547L34.0006 37.1406L40.5865 30.5547Z" fill="#646464"/>
</svg>
