<svg width="48" height="48" viewBox="0 0 48 48" fill="none" xmlns="http://www.w3.org/2000/svg">
<path fill-rule="evenodd" clip-rule="evenodd" d="M21.9794 5.93516C22.014 7.03798 21.1481 7.96006 20.0453 7.99468C17.2741 8.08167 14.9954 8.252 13.1903 8.44004C10.6442 8.70526 8.76706 10.5824 8.50184 13.1285C8.23029 15.7353 7.99565 19.3299 7.99565 23.9691C7.99565 28.7448 8.2443 32.4136 8.5259 35.0373C8.78804 37.4797 10.549 39.2517 12.9528 39.5041C15.5102 39.7725 19.1362 40.0044 24.0309 40.0044C28.9256 40.0044 32.5516 39.7725 35.109 39.5041C37.5117 39.2518 39.2741 37.4775 39.5362 35.0341C39.7336 33.1947 39.9147 30.842 40.0053 27.9547C40.0399 26.8519 40.962 25.986 42.0648 26.0206C43.1677 26.0552 44.0336 26.9773 43.999 28.0801C43.9053 31.0662 43.7173 33.5193 43.5091 35.4603C43.0505 39.7352 39.8432 43.0247 35.5261 43.4779C32.817 43.7622 29.0511 44 24.0309 44C19.0107 44 15.2448 43.7622 12.5357 43.4779C8.21966 43.0248 5.01199 39.7395 4.55308 35.4637C4.2559 32.6949 4 28.8837 4 23.9691C4 19.195 4.24148 15.4621 4.5277 12.7145C4.98867 8.28927 8.35107 4.92687 12.7763 4.4659C14.6788 4.26771 17.0538 4.09097 19.9199 4.001C21.0227 3.96638 21.9448 4.83234 21.9794 5.93516Z" fill="#646464"/>
<path fill-rule="evenodd" clip-rule="evenodd" d="M37.9772 8.68111C37.197 7.90091 35.932 7.90091 35.1518 8.68111L21.8201 22.0129C21.5601 22.2728 21.3769 22.5994 21.2907 22.9568L20.0742 27.9968L25.1142 26.7803C25.4715 26.694 25.7981 26.5108 26.0581 26.2509L39.3899 12.9191C40.1701 12.1389 40.1701 10.874 39.3899 10.0938L37.9772 8.68111ZM32.3265 5.85576C34.6671 3.51517 38.4619 3.51516 40.8025 5.85576L42.2152 7.26843C44.5558 9.60903 44.5558 13.4039 42.2152 15.7445L28.8834 29.0763C28.1036 29.8561 27.1237 30.4056 26.0517 30.6644L21.0117 31.8809C18.1072 32.582 15.489 29.9637 16.1901 27.0593L17.4066 22.0193C17.6653 20.9472 18.2149 19.9674 18.9947 19.1875L32.3265 5.85576Z" fill="#646464"/>
</svg>
