<svg width="48" height="48" viewBox="0 0 48 48" fill="none" xmlns="http://www.w3.org/2000/svg">
<path fill-rule="evenodd" clip-rule="evenodd" d="M16.1902 24.6039C16.1902 24.6039 16.1836 24.5937 16.1814 24.5645C16.1909 24.5878 16.1902 24.6039 16.1902 24.6039Z" fill="#646464"/>
<path d="M31.5612 36H35.6866V32C35.6866 30.9 36.6148 30 37.7492 30C38.8837 30 39.8119 30.9 39.8119 32V36H43.9372C45.0717 36 45.9999 36.9 45.9999 38C45.9999 39.1 45.0717 40 43.9372 40H39.8119V44C39.8119 45.1 38.8837 46 37.7492 46C36.6148 46 35.6866 45.1 35.6866 44V40H31.5612C30.4267 40 29.4985 39.1 29.4985 38C29.4985 36.9 30.4267 36 31.5612 36Z" fill="#646464"/>
<path d="M11.0429 8.94257C13.6753 8.7287 17.9133 8.5 24 8.5C30.0867 8.5 34.3247 8.72869 36.957 8.94256C38.1097 9.03622 38.9638 9.89026 39.0574 11.0429C39.1625 12.3366 39.3045 15.5668 39.4214 18.5282C39.4794 19.997 39.5306 21.3822 39.5673 22.4005C39.5857 22.9095 39.6004 23.3267 39.6105 23.6165L39.6262 24.0681C39.6638 25.172 40.5892 26.0365 41.6932 25.9988C42.7971 25.9612 43.6614 25.0338 43.6238 23.9298L43.6081 23.4768C43.5979 23.1857 43.5831 22.7671 43.5647 22.2564C43.5279 21.2352 43.4766 19.8451 43.4183 18.3704C43.3028 15.4449 43.1577 12.1156 43.0443 10.719C42.7919 7.61286 40.3871 5.20808 37.281 4.9557C34.533 4.73243 30.1866 4.5 24 4.5C17.8134 4.5 13.467 4.73244 10.719 4.95571C7.61286 5.20808 5.20807 7.61286 4.9557 10.719C4.73243 13.467 4.5 17.8134 4.5 24C4.5 30.1866 4.73244 34.533 4.95571 37.281C5.20808 40.3871 7.61287 42.7919 10.719 43.0443C12.1287 43.1588 15.4707 43.2722 18.3916 43.3566C19.8671 43.3991 21.2578 43.4349 22.2794 43.46C22.7903 43.4725 23.2091 43.4824 23.5003 43.4891L23.9556 43.4995C25.0599 43.5239 25.9751 42.6485 25.9995 41.5442C26.0239 40.4399 25.1467 39.5249 24.0424 39.5005L23.593 39.4902C23.3034 39.4835 22.8864 39.4736 22.3775 39.4612C21.3597 39.4362 19.975 39.4006 18.507 39.3582C15.541 39.2726 12.3235 39.1614 11.0429 39.0574C9.89026 38.9638 9.03622 38.1097 8.94257 36.957C8.7287 34.3247 8.5 30.0867 8.5 24C8.5 17.9133 8.72869 13.6753 8.94256 11.0429C9.03622 9.89026 9.89026 9.03622 11.0429 8.94257Z" fill="#646464"/>
<path fill-rule="evenodd" clip-rule="evenodd" d="M21.0329 17.1791C21.798 16.3828 21.773 15.1171 20.977 14.3517C20.1808 13.5861 18.9147 13.6109 18.1491 14.4071L18.1401 14.4165L18.1205 14.4371L18.0508 14.5107C17.9914 14.5739 17.9067 14.6646 17.8011 14.7797C17.5901 15.0097 17.2943 15.3381 16.9489 15.7389C16.2624 16.5355 15.3602 17.6403 14.5345 18.8394C13.7288 20.0096 12.9051 21.3983 12.4833 22.7461C12.0896 24.0044 11.8348 25.9985 13.4087 27.4069C14.9894 28.8213 16.9046 28.4452 18.1672 27.9558C19.3823 27.4848 20.6573 26.6624 21.7104 25.9832L21.8725 25.8787C23.0771 25.1029 24.0022 24.5277 24.747 24.2666C24.8897 24.2166 25.0029 24.187 25.0895 24.1706C25.0788 24.2254 25.061 24.2966 25.032 24.3862C24.8553 24.9322 24.4612 25.6002 23.8909 26.5146L23.7863 26.6821C23.3062 27.4493 22.6858 28.441 22.3541 29.3915C22.167 29.9277 22.0104 30.6098 22.098 31.3507C22.1929 32.1524 22.5595 32.8891 23.1946 33.4688C23.8796 34.094 24.6998 34.4055 25.5559 34.4273C26.3502 34.4475 27.0681 34.2169 27.6388 33.9615C28.6087 33.5274 29.6091 32.7971 30.3975 32.2215C30.4937 32.1513 30.5867 32.0834 30.6762 32.0186C31.5707 31.3706 31.7705 30.1201 31.1224 29.2256C30.4744 28.3311 29.224 28.1313 28.3295 28.7793L28.0891 28.9537C27.4088 29.4474 26.8718 29.8371 26.4047 30.1047C26.6143 29.7095 26.909 29.2341 27.2849 28.6314L27.3011 28.6055C27.8093 27.7908 28.4851 26.7072 28.8377 25.618C29.216 24.449 29.3498 22.8386 28.1426 21.4618C27.4887 20.7161 26.6516 20.2932 25.7379 20.1828C24.8888 20.0803 24.0858 20.2597 23.4236 20.4918C22.1619 20.9342 20.8352 21.7888 19.7581 22.4827L19.7065 22.516C18.4986 23.294 17.5359 23.9105 16.7214 24.2262C16.4834 24.3185 16.3107 24.3628 16.1929 24.3828C16.2081 24.2801 16.2396 24.1362 16.3008 23.9406C16.5419 23.17 17.0944 22.1748 17.829 21.1079C18.5437 20.07 19.346 19.0847 19.9789 18.3503C20.2932 17.9856 20.5609 17.6884 20.7483 17.4841C20.842 17.3821 20.9153 17.3035 20.9641 17.2516L21.0183 17.1943L21.0306 17.1815L21.0329 17.1791ZM16.1902 24.6039C16.1902 24.6039 16.1836 24.5937 16.1814 24.5645C16.1909 24.5878 16.1902 24.6039 16.1902 24.6039Z" fill="#646464"/>
</svg>
