<svg width="48" height="48" viewBox="0 0 48 48" fill="none" xmlns="http://www.w3.org/2000/svg">
<path d="M4 12C4 7.58172 7.58172 4 12 4H36C40.4183 4 44 7.58172 44 12V36C44 40.4183 40.4183 44 36 44H12C7.58172 44 4 40.4183 4 36V12Z" fill="#B30B00"/>
<path d="M31.1953 30V18.3636H39.3771V20.9091H34.3544V22.9091H38.8771V25.4546H34.3544V30H31.1953Z" fill="white"/>
<path d="M23.9382 30H19.4609V18.3636H23.8928C25.0897 18.3636 26.1238 18.5966 26.995 19.0625C27.87 19.5246 28.5443 20.1913 29.0178 21.0625C29.495 21.9299 29.7337 22.9697 29.7337 24.1818C29.7337 25.394 29.4969 26.4356 29.0234 27.3068C28.55 28.1743 27.8795 28.8409 27.0121 29.3068C26.1446 29.769 25.12 30 23.9382 30ZM22.62 27.3182H23.8246C24.4003 27.3182 24.8909 27.2254 25.2962 27.0398C25.7053 26.8542 26.0159 26.5341 26.228 26.0796C26.4439 25.625 26.5518 24.9924 26.5518 24.1818C26.5518 23.3712 26.442 22.7386 26.2223 22.2841C26.0064 21.8296 25.6882 21.5095 25.2678 21.3239C24.8511 21.1383 24.3397 21.0455 23.7337 21.0455H22.62V27.3182Z" fill="white"/>
<path d="M8.96094 30V18.3636H13.9837C14.8473 18.3636 15.603 18.5341 16.2507 18.875C16.8984 19.2159 17.4022 19.6951 17.7621 20.3125C18.1219 20.9299 18.3018 21.6515 18.3018 22.4773C18.3018 23.3106 18.1162 24.0322 17.745 24.6421C17.3776 25.2519 16.8606 25.7216 16.1939 26.0511C15.531 26.3807 14.7564 26.5455 13.87 26.5455H10.87V24.0909H13.2337C13.6049 24.0909 13.9212 24.0265 14.1825 23.8977C14.4477 23.7652 14.6503 23.5777 14.7905 23.3352C14.9344 23.0928 15.0064 22.8068 15.0064 22.4773C15.0064 22.1439 14.9344 21.8599 14.7905 21.625C14.6503 21.3864 14.4477 21.2046 14.1825 21.0796C13.9212 20.9508 13.6049 20.8864 13.2337 20.8864H12.12V30H8.96094Z" fill="white"/>
</svg>
