<svg width="48" height="48" viewBox="0 0 48 48" fill="none" xmlns="http://www.w3.org/2000/svg">
<path fill-rule="evenodd" clip-rule="evenodd" d="M14.5 25.5C14.5 30.74 18.76 35 24 35C29.24 35 33.5 30.74 33.5 25.5C33.5 20.26 29.24 16 24 16C18.76 16 14.5 20.26 14.5 25.5ZM18.5 25.5C18.5 22.46 20.96 20 24 20C27.04 20 29.5 22.46 29.5 25.5C29.5 28.54 27.04 31 24 31C20.96 31 18.5 28.54 18.5 25.5Z" fill="#646464"/>
<path fill-rule="evenodd" clip-rule="evenodd" d="M10.5 41.6399C13.22 41.7999 17.78 41.9999 24 41.9999C30.22 41.9999 34.78 41.7999 37.5 41.6399C40.7 41.4599 43.24 39.0199 43.54 35.8799C43.74 33.6799 43.98 30.2599 43.98 26.3999C43.98 22.5399 43.74 19.1199 43.54 16.9199C43.26 13.7799 40.72 11.3599 37.5 11.1599C36.4 11.0799 35.08 11.0199 33.52 10.9599L32.72 9.33988C31.8 7.47988 30.06 6.27988 28.04 6.13988C25.48 5.95988 22.52 5.95988 19.96 6.13988C17.98 6.29988 16.18 7.51988 15.28 9.33988L14.48 10.9599C13.142 11.0113 11.9658 11.0775 10.9766 11.1332C10.8126 11.1424 10.6537 11.1513 10.5 11.1599C7.30002 11.3399 4.76002 13.7799 4.46002 16.9199C4.26002 19.1199 4.02002 22.5599 4.02002 26.3999C4.02002 30.2399 4.26002 33.6799 4.46002 35.8799C4.74002 39.0199 7.28002 41.4399 10.5 41.6399ZM20.26 10.1399C21.44 10.0399 22.7 9.99988 24 9.99988C25.3 9.99988 26.56 10.0599 27.74 10.1399C28.34 10.1799 28.86 10.5399 29.14 11.1199L30.48 13.8199C30.8 14.4799 31.46 14.8999 32.2 14.9199C34.24 14.9799 35.94 15.0599 37.26 15.1399C38.5 15.1999 39.46 16.0999 39.56 17.2799C39.76 19.3799 40 22.6799 40 26.3799C40 30.0799 39.76 33.3799 39.56 35.4799C39.46 36.6599 38.5 37.5399 37.26 37.6199C34.6 37.7799 30.12 37.9599 24 37.9599C17.88 37.9599 13.4 37.7799 10.74 37.6199C9.50002 37.5599 8.56002 36.6599 8.44002 35.4799C8.24002 33.3599 8.00002 30.0599 8.00002 26.3799C8.00002 22.6999 8.24002 19.3999 8.44002 17.2799C8.54002 16.0999 9.50002 15.2199 10.74 15.1399C12.06 15.0599 13.76 14.9799 15.8 14.9199C16.52 14.8999 17.2 14.4799 17.52 13.8199L18.86 11.1199C19.14 10.5599 19.66 10.1799 20.26 10.1399Z" fill="#646464"/>
</svg>
