<svg width="48" height="48" viewBox="0 0 48 48" fill="none" xmlns="http://www.w3.org/2000/svg">
<path fill-rule="evenodd" clip-rule="evenodd" d="M36.9969 3.74743C38.869 4.06147 40.7076 4.71747 41.9125 5.92238C43.1176 7.1275 43.763 8.94311 44.0604 10.7927C44.3675 12.7031 44.3496 14.9297 43.9919 17.244C43.5176 20.3127 42.4263 23.6526 40.5747 26.7204C42.5379 30.4358 42.0309 34.0783 40.8726 36.9606C39.8479 39.5104 38.2128 41.6727 37.348 42.8163C37.1715 43.0496 37.0272 43.2405 36.9266 43.3837C36.5933 43.858 36.0847 44.2003 35.479 44.3077C34.9451 44.4024 34.495 44.2873 34.2223 44.1883C33.7011 43.9993 33.2693 43.6618 32.9908 43.4227C32.3807 42.899 31.7145 42.1417 31.1106 41.3972C30.466 40.6027 29.8085 39.7174 29.2413 38.9186C28.5783 39.4092 27.9003 39.8473 27.2258 40.1897C25.8739 40.876 23.9031 41.4874 22.1218 40.3863C22.0024 40.3125 21.8779 40.2369 21.7476 40.1577C21.0974 39.7628 20.3013 39.2794 19.2606 38.4861C19.1085 38.3702 18.9514 38.2478 18.7885 38.1182C18.5228 38.4137 18.2275 38.7337 17.9135 39.0607C17.2942 39.7054 16.5765 40.4036 15.8488 41.0011C15.1625 41.5645 14.3012 42.1792 13.4067 42.4804C12.2951 42.8546 10.7671 43.2951 9.40157 43.4153C8.73656 43.4738 7.9137 43.4767 7.14626 43.2246C6.29267 42.9443 5.36764 42.2789 5.07515 41.0433C4.9686 40.5931 4.97257 40.0251 4.98125 39.6512C4.99198 39.1891 5.02594 38.6469 5.07467 38.0941C5.17047 37.0074 5.33524 35.7469 5.53835 34.8588C5.65071 34.3676 5.8847 33.9183 6.07517 33.593C6.28431 33.2358 6.53875 32.8664 6.80373 32.5094C7.33469 31.794 7.98686 31.0227 8.60153 30.3294C9.01898 29.8585 9.42991 29.4115 9.79078 29.0263C9.27753 28.3199 8.9295 27.7214 8.64403 27.2304C8.53491 27.0428 8.43493 26.8708 8.33835 26.7146C7.30727 25.0466 7.70066 23.0944 8.23522 21.6534C8.41017 21.1818 8.62268 20.7041 8.86271 20.2265C7.98353 19.7347 6.99343 19.1522 6.10223 18.5733C5.29829 18.0512 4.47506 17.4684 3.88998 16.9169C3.62289 16.6651 3.24181 16.2713 2.9989 15.7729C2.87182 15.5121 2.70986 15.0767 2.74781 14.5358C2.79086 13.9221 3.07761 13.3803 3.51423 12.9989C3.64598 12.8839 3.82068 12.7201 4.03413 12.5201C5.08024 11.5397 7.05832 9.68588 9.48601 8.39831C12.261 6.92653 15.8792 6.03524 19.832 7.66947C23.1909 5.46416 26.9825 4.22986 30.4303 3.74524C32.79 3.41356 35.0585 3.42226 36.9969 3.74743ZM16.0309 10.8223C14.9252 11.9591 12.7852 14.285 10.9722 16.8156C10.1255 16.3453 9.14615 15.773 8.28456 15.2134C8.01849 15.0406 7.77568 14.8767 7.55908 14.724C8.56146 13.8127 9.81823 12.7572 11.3632 11.9378C12.7936 11.1791 14.3537 10.6939 16.0309 10.8223ZM19.9383 33.8489L13.9233 27.7908C13.5899 27.3999 13.3302 27.073 13.1195 26.7901C12.6841 26.2057 12.4738 25.843 12.2113 25.3899C12.0807 25.1645 11.9371 24.9167 11.7463 24.608C11.7364 24.5921 11.5588 24.2133 11.9915 23.0469C12.3874 21.9798 13.134 20.7015 14.0767 19.3633C15.949 16.7055 18.3184 14.1956 19.2084 13.3055C22.4643 10.0497 26.9281 8.28335 30.988 7.71269C33.0093 7.42857 34.861 7.45156 36.3341 7.69868C37.8735 7.95691 38.7379 8.41378 39.0795 8.75539C39.4209 9.09679 39.8649 9.93716 40.1047 11.4287C40.3347 12.8594 40.3374 14.6592 40.0325 16.632C39.4207 20.5902 37.6149 24.9781 34.3419 28.2511C34.0334 28.5596 33.5583 29.0874 33.0118 29.6945C32.7063 30.0338 32.3785 30.3979 32.0451 30.7623C31.0607 31.8382 29.9059 33.0555 28.7188 34.1437C27.5107 35.2512 26.3682 36.1319 25.4123 36.6172C24.5667 37.0464 24.2557 36.9816 24.2148 36.97C24.073 36.8824 23.9351 36.7985 23.7983 36.7153C23.1615 36.3278 22.5505 35.9562 21.6894 35.2998C21.2 34.9268 20.6276 34.4592 19.9383 33.8489ZM15.7823 35.4695C15.2886 35.0007 14.7568 34.4821 14.1811 33.9064C13.5044 33.2298 12.9199 32.6294 12.4114 32.0912C12.1525 32.3713 11.8768 32.6744 11.5995 32.9872C11.018 33.6431 10.4522 34.316 10.021 34.8971C9.80483 35.1883 9.64207 35.4303 9.53259 35.6173C9.47106 35.7224 9.44229 35.7834 9.43183 35.8061C9.29179 36.4411 9.15219 37.4642 9.06565 38.446C9.03413 38.8034 9.0112 39.1381 8.99782 39.4286C9.01503 39.4272 9.03257 39.4258 9.05043 39.4242C9.93074 39.3468 11.0953 39.0311 12.1284 38.6833C12.3062 38.6235 12.7053 38.3981 13.3065 37.9046C13.8662 37.445 14.463 36.8693 15.0241 36.2852C15.2938 36.0044 15.5495 35.7278 15.7823 35.4695ZM32.2863 36.2847C32.8544 37.0962 33.5515 38.0467 34.222 38.8731C34.4218 39.1195 34.6104 39.3437 34.7851 39.543C35.5857 38.4503 36.503 37.0893 37.1551 35.4666C37.7834 33.9032 38.1025 32.2313 37.7326 30.5054C37.5509 30.701 37.365 30.894 37.1749 31.0841C36.9353 31.3237 36.5875 31.7105 36.1194 32.2311C35.8029 32.5832 35.4313 32.9965 35.001 33.4668C34.2124 34.3287 33.2813 35.3189 32.2863 36.2847ZM22.2634 18.1325C22.2634 14.1121 25.5226 10.8529 29.543 10.8529C33.5634 10.8529 36.8225 14.1121 36.8225 18.1325C36.8225 22.1529 33.5634 25.4121 29.543 25.4121C25.5226 25.4121 22.2634 22.1529 22.2634 18.1325ZM29.543 14.8594C27.7353 14.8594 26.2698 16.3248 26.2698 18.1325C26.2698 19.9402 27.7353 21.4057 29.543 21.4057C31.3507 21.4057 32.8161 19.9402 32.8161 18.1325C32.8161 16.3248 31.3507 14.8594 29.543 14.8594Z" fill="#646464"/>
</svg>
