<svg width="48" height="48" viewBox="0 0 48 48" fill="none" xmlns="http://www.w3.org/2000/svg">
<path fill-rule="evenodd" clip-rule="evenodd" d="M12.3359 20.8906C12.9486 19.9715 14.1903 19.7232 15.1094 20.3359L15.1168 20.3408L15.1328 20.3516L15.1895 20.3898C15.2379 20.4227 15.3071 20.4699 15.3942 20.53C15.5682 20.6501 15.8142 20.8224 16.1085 21.0349C16.6942 21.4579 17.4836 22.0496 18.2804 22.7136C19.066 23.3683 19.913 24.1379 20.581 24.9172C20.9148 25.3066 21.2438 25.7442 21.498 26.2103C21.7401 26.6541 22 27.2778 22 28C22 28.7222 21.7401 29.3459 21.498 29.7897C21.2438 30.2558 20.9148 30.6934 20.581 31.0828C19.913 31.8621 19.066 32.6317 18.2804 33.2864C17.4836 33.9504 16.6942 34.5421 16.1085 34.9651C15.8142 35.1776 15.5682 35.3499 15.3942 35.47C15.3071 35.5301 15.2379 35.5773 15.1895 35.6102L15.1328 35.6484L15.1168 35.6592L15.1098 35.6638C14.1908 36.2765 12.9486 36.0285 12.3359 35.1094C11.7233 34.1905 11.9715 32.949 12.8902 32.3362L12.8919 32.335L12.9016 32.3285L12.9453 32.299C12.9848 32.2723 13.0444 32.2316 13.1214 32.1784C13.2755 32.072 13.4983 31.9161 13.7665 31.7224C14.3058 31.3329 15.0164 30.7996 15.7196 30.2136C16.434 29.6183 17.087 29.0129 17.544 28.4797C17.7104 28.2855 17.8297 28.1252 17.9109 28C17.8297 27.8748 17.7104 27.7145 17.544 27.5203C17.087 26.9871 16.434 26.3817 15.7196 25.7864C15.0164 25.2004 14.3058 24.6671 13.7665 24.2776C13.4983 24.0839 13.2755 23.928 13.1214 23.8216C13.0444 23.7684 12.9848 23.7277 12.9453 23.701L12.9016 23.6715L12.8919 23.665C11.9731 23.0522 11.7233 21.8096 12.3359 20.8906Z" fill="#646464"/>
<path d="M26 32C24.8954 32 24 32.8954 24 34C24 35.1046 24.8954 36 26 36H34C35.1046 36 36 35.1046 36 34C36 32.8954 35.1046 32 34 32H26Z" fill="#646464"/>
<path fill-rule="evenodd" clip-rule="evenodd" d="M24 4C17.6381 4 13.1691 4.23902 10.3442 4.46853C7.1772 4.72584 4.72585 7.17719 4.46854 10.3442C4.23902 13.1691 4 17.6381 4 24C4 30.3619 4.23902 34.8309 4.46853 37.6558C4.72585 40.8228 7.17719 43.2741 10.3442 43.5314C13.1691 43.761 17.6381 44 24 44C30.3619 44 34.8309 43.761 37.6558 43.5314C40.8228 43.2741 43.2741 40.8228 43.5314 37.6558C43.761 34.8309 44 30.3619 44 24C44 17.6381 43.761 13.1691 43.5314 10.3442C43.2741 7.1772 40.8228 4.72585 37.6558 4.46854C34.8309 4.23902 30.3619 4 24 4ZM10.6681 8.4554C13.3773 8.23528 17.7379 8 24 8C30.2621 8 34.6227 8.23528 37.3319 8.45541C38.5454 8.554 39.446 9.4546 39.5446 10.6681C39.7647 13.3773 40 17.7379 40 24C40 30.2621 39.7647 34.6227 39.5446 37.3319C39.446 38.5454 38.5454 39.446 37.3319 39.5446C34.6227 39.7647 30.2621 40 24 40C17.7379 40 13.3773 39.7647 10.6681 39.5446C9.45459 39.446 8.554 38.5454 8.4554 37.3319C8.23528 34.6227 8 30.2621 8 24C8 17.7379 8.23528 13.3773 8.45541 10.6681C8.554 9.45459 9.45459 8.55399 10.6681 8.4554Z" fill="#646464"/>
</svg>
