<svg width="48" height="48" viewBox="0 0 48 48" fill="none" xmlns="http://www.w3.org/2000/svg">
<path fill-rule="evenodd" clip-rule="evenodd" d="M20.5858 4.58579C21.3668 3.80474 22.6332 3.80474 23.4142 4.58579L29.4142 10.5858C30.1953 11.3668 30.1953 12.6332 29.4142 13.4142L23.4142 19.4142C22.6332 20.1953 21.3668 20.1953 20.5858 19.4142C19.8047 18.6332 19.8047 17.3668 20.5858 16.5858L23.1716 14H18C12.4772 14 8 18.4772 8 24C8 26.762 9.1171 29.2592 10.9289 31.0711C11.71 31.8521 11.71 33.1184 10.9289 33.8995C10.1479 34.6805 8.88155 34.6805 8.1005 33.8995C5.56919 31.3682 4 27.8654 4 24C4 16.268 10.268 10 18 10H23.1716L20.5858 7.41421C19.8047 6.63317 19.8047 5.36683 20.5858 4.58579ZM37.0711 14.1004C37.8521 13.3194 39.1184 13.3194 39.8995 14.1004C42.4308 16.6317 44 20.1345 44 23.9999C44 31.7319 37.732 37.9999 30 37.9999L24.8284 38L27.4142 40.5858C28.1953 41.3668 28.1953 42.6332 27.4142 43.4142C26.6332 44.1953 25.3668 44.1953 24.5858 43.4142L18.5858 37.4142C17.8047 36.6332 17.8047 35.3668 18.5858 34.5858L24.5858 28.5858C25.3668 27.8047 26.6332 27.8047 27.4142 28.5858C28.1953 29.3668 28.1953 30.6332 27.4142 31.4142L24.8285 34L30 33.9999C35.5228 33.9999 40 29.5228 40 23.9999C40 21.238 38.8829 18.7407 37.0711 16.9289C36.29 16.1478 36.29 14.8815 37.0711 14.1004Z" fill="#646464"/>
</svg>
