<svg width="48" height="48" viewBox="0 0 48 48" fill="none" xmlns="http://www.w3.org/2000/svg">
<path fill-rule="evenodd" clip-rule="evenodd" d="M24 10C29.166 10 33.6815 12.7992 36.1076 16.9653L32.4851 16.0597C31.4135 15.7918 30.3276 16.4433 30.0597 17.5149C29.7918 18.5865 30.4434 19.6724 31.5149 19.9403L39.5149 21.9403C40.5865 22.2082 41.6724 21.5567 41.9403 20.4851L43.9403 12.4851C44.2082 11.4135 43.5567 10.3276 42.4851 10.0597C41.4135 9.79182 40.3276 10.4433 40.0597 11.5149L39.3071 14.5256C36.1335 9.40866 30.4664 6 24 6C14.0589 6 6.00002 14.0589 6.00002 24C6.00002 33.9411 14.0589 42 24 42C30.6651 42 36.4814 38.3764 39.5907 33.0015C40.1438 32.0453 39.8171 30.8219 38.861 30.2688C37.9048 29.7157 36.6814 30.0424 36.1283 30.9985C33.7046 35.1884 29.1795 38 24 38C16.268 38 10 31.732 10 24C10 16.268 16.268 10 24 10Z" fill="#646464"/>
</svg>
