<svg width="48" height="48" viewBox="0 0 48 48" fill="none" xmlns="http://www.w3.org/2000/svg">
<path fill-rule="evenodd" clip-rule="evenodd" d="M21 4C30.3888 4 38 11.6112 38 21C38 24.9736 36.632 28.625 34.3477 31.5195L42.1133 39.2852C42.8943 40.0662 42.8943 41.3322 42.1133 42.1133C41.3322 42.8943 40.0662 42.8943 39.2852 42.1133L31.5195 34.3477C28.625 36.632 24.9736 38 21 38C11.6112 38 4 30.3888 4 21C4 11.6112 11.6112 4 21 4ZM21 8C13.8203 8 8 13.8203 8 21C8 28.1797 13.8203 34 21 34C28.1797 34 34 28.1797 34 21C34 13.8203 28.1797 8 21 8Z" fill="#646464"/>
</svg>
