<svg width="48" height="48" viewBox="0 0 48 48" fill="none" xmlns="http://www.w3.org/2000/svg">
<path d="M34.7187 28.4629C35.5672 27.7558 36.8299 27.8704 37.5371 28.7188C38.2442 29.5672 38.1296 30.83 37.2812 31.5371L25.2812 41.5371C24.5396 42.1552 23.4604 42.1552 22.7187 41.5371L10.7187 31.5371C9.87036 30.83 9.75581 29.5672 10.4629 28.7188C11.17 27.8704 12.4328 27.7558 13.2812 28.4629L24 37.3945L34.7187 28.4629ZM22.8633 6.35547C23.5955 5.84867 24.586 5.88353 25.2812 6.4629L37.2812 16.4629C38.1296 17.1701 38.2442 18.4328 37.5371 19.2813C36.8299 20.1296 35.5672 20.2442 34.7187 19.5371L24 10.6035L13.2812 19.5371C12.4328 20.2442 11.17 20.1296 10.4629 19.2813C9.75581 18.4328 9.87036 17.1701 10.7187 16.4629L22.7187 6.4629L22.8633 6.35547Z" fill="#646464"/>
</svg>
