<svg width="48" height="48" viewBox="0 0 48 48" fill="none" xmlns="http://www.w3.org/2000/svg">
<path fill-rule="evenodd" clip-rule="evenodd" d="M6.46488 36.2155C5.84504 28.5459 5.84504 19.454 6.46489 11.7846C6.69459 8.94252 8.94245 6.69464 11.7845 6.4649C19.454 5.84497 28.546 5.84496 36.2155 6.4649C39.0575 6.69463 41.3054 8.9425 41.5351 11.7846C42.155 19.4539 42.155 28.5459 41.5351 36.2155C41.3054 39.0577 39.0574 41.3056 36.2152 41.5352C28.5459 42.1549 19.4541 42.1549 11.7847 41.5352C8.94256 41.3056 6.69459 39.0577 6.46488 36.2155ZM10.4519 12.1069C9.84937 19.5617 9.84937 28.4382 10.4519 35.8932C10.5236 36.7806 11.2196 37.4765 12.1069 37.5482C19.5618 38.1506 28.4382 38.1506 35.8931 37.5482C36.7804 37.4765 37.4764 36.7806 37.5481 35.8932C38.1506 28.4382 38.1506 19.5617 37.5481 12.1068C37.4764 11.2195 36.7805 10.5236 35.8932 10.4519C28.4382 9.84929 19.5618 9.84931 12.1068 10.4519C11.2195 10.5236 10.5236 11.2196 10.4519 12.1069Z" fill="#646464"/>
</svg>
