<svg width="48" height="48" viewBox="0 0 48 48" fill="none" xmlns="http://www.w3.org/2000/svg">
<path fill-rule="evenodd" clip-rule="evenodd" d="M24 44C35.0457 44 44 35.0457 44 24C44 12.9543 35.0457 4 24 4C12.9543 4 4 12.9543 4 24C4 35.0457 12.9543 44 24 44ZM17.9858 32.8236C16.4511 32.7203 15.2798 31.5491 15.1766 30.0143C15.0833 28.6282 14.9998 26.6481 14.9998 24.0003C14.9998 21.3525 15.0833 19.3724 15.1766 17.9863C15.2798 16.4516 16.4511 15.2803 17.9858 15.1771C19.3719 15.0837 21.352 15.0003 23.9998 15.0003C26.6476 15.0003 28.6277 15.0837 30.0138 15.1771C31.5486 15.2803 32.7198 16.4516 32.8231 17.9863C32.9164 19.3724 32.9998 21.3525 32.9998 24.0003C32.9998 26.6481 32.9164 28.6282 32.8231 30.0143C32.7198 31.5491 31.5486 32.7203 30.0138 32.8236C28.6277 32.9169 26.6476 33.0003 23.9998 33.0003C21.352 33.0003 19.3719 32.9169 17.9858 32.8236Z" fill="#646464"/>
</svg>
