<svg width="48" height="48" viewBox="0 0 48 48" fill="none" xmlns="http://www.w3.org/2000/svg">
<path fill-rule="evenodd" clip-rule="evenodd" d="M10.0597 5.51491C10.3276 4.44332 11.4135 3.7918 12.4851 4.0597L20.4851 6.0597C21.5567 6.3276 22.2082 7.41347 21.9403 8.48506L19.9403 16.4851C19.6724 17.5566 18.5865 18.2082 17.5149 17.9403C16.4433 17.6724 15.7918 16.5865 16.0597 15.5149L16.9653 11.8924C12.7992 14.3185 10 18.834 10 24C10 29.2684 12.9092 33.86 17.2184 36.2512C18.1842 36.7871 18.5327 38.0046 17.9968 38.9704C17.4608 39.9362 16.2434 40.2847 15.2776 39.7488C9.74906 36.681 6 30.7797 6 24C6 17.5336 9.40866 11.8665 14.5256 8.69294L11.5149 7.94027C10.4433 7.67237 9.79182 6.5865 10.0597 5.51491ZM30.0032 9.02958C30.5392 8.06374 31.7566 7.71524 32.7224 8.25118C38.2509 11.319 42 17.2203 42 24C42 30.4663 38.5913 36.1335 33.4744 39.307L36.4851 40.0597C37.5567 40.3276 38.2082 41.4135 37.9403 42.4851C37.6724 43.5566 36.5865 44.2082 35.5149 43.9403L27.5149 41.9403C27.0003 41.8116 26.5579 41.4838 26.285 41.029C26.0121 40.5741 25.9311 40.0295 26.0597 39.5149L28.0597 31.5149C28.3276 30.4433 29.4135 29.7918 30.4851 30.0597C31.5567 30.3276 32.2082 31.4135 31.9403 32.4851L31.0347 36.1076C35.2008 33.6815 38 29.166 38 24C38 18.7316 35.0908 14.1399 30.7816 11.7488C29.8158 11.2128 29.4673 9.99541 30.0032 9.02958Z" fill="#646464"/>
</svg>
