<svg width="48" height="48" viewBox="0 0 48 48" fill="none" xmlns="http://www.w3.org/2000/svg">
<path d="M44 24C44 35.0457 35.0457 44 24 44C12.9543 44 4 35.0457 4 24C4 12.9543 12.9543 4 24 4C35.0457 4 44 12.9543 44 24Z" fill="#455272"/>
<path fill-rule="evenodd" clip-rule="evenodd" d="M23.413 10.6229C23.4244 10.126 23.8365 9.73241 24.3335 9.74382C32.0553 9.92115 38.2601 16.2358 38.2601 24C38.2601 31.8756 31.8757 38.26 24.0001 38.26C16.1246 38.26 9.74014 31.8756 9.74014 24C9.74014 18.6348 12.7035 13.9629 17.0785 11.5297C17.5129 11.2881 18.0609 11.4444 18.3025 11.8788C18.5441 12.3132 18.3878 12.8612 17.9534 13.1028C14.1263 15.2313 11.5401 19.3142 11.5401 24C11.5401 30.8815 17.1187 36.46 24.0001 36.46C30.8816 36.46 36.4601 30.8815 36.4601 24C36.4601 17.2161 31.0385 11.6983 24.2921 11.5433C23.7952 11.5319 23.4016 11.1198 23.413 10.6229Z" fill="white"/>
<path fill-rule="evenodd" clip-rule="evenodd" d="M23.5227 14.1309C23.5436 13.6343 23.9632 13.2487 24.4598 13.2697C30.1784 13.5109 34.7399 18.2225 34.7399 24C34.7399 24.9188 34.6244 25.8119 34.4065 26.665C34.2835 27.1466 33.7934 27.4373 33.3118 27.3143C32.8302 27.1913 32.5395 26.7012 32.6625 26.2196C32.8435 25.5108 32.9399 24.7673 32.9399 24C32.9399 19.1912 29.1429 15.2689 24.3839 15.0681C23.8873 15.0471 23.5017 14.6276 23.5227 14.1309Z" fill="#D0D3DB"/>
<path fill-rule="evenodd" clip-rule="evenodd" d="M23.6269 17.6278C23.6676 17.1324 24.1021 16.7638 24.5975 16.8044C26.893 16.9927 28.882 18.2536 30.0649 20.0809C30.3351 20.4981 30.2158 21.0554 29.7985 21.3255C29.3813 21.5956 28.8241 21.4763 28.5539 21.0591C27.6634 19.6835 26.1693 18.7394 24.4504 18.5984C23.955 18.5577 23.5863 18.1232 23.6269 17.6278Z" fill="#8F97AA"/>
</svg>
