<svg width="48" height="48" viewBox="0 0 48 48" fill="none" xmlns="http://www.w3.org/2000/svg">
<path d="M23.9994 44.0003C35.045 44.0003 43.9992 35.046 43.9992 24.0004C43.9992 12.9548 35.045 4.00061 23.9994 4.00061C12.9538 4.00061 3.99957 12.9548 3.99957 24.0004C3.99957 35.046 12.9538 44.0003 23.9994 44.0003Z" fill="#DE6C2D"/>
<path d="M37.5942 24.4379V23.1815H40.263C40.1434 20.0302 39.1032 16.9829 37.271 14.4162C39.2318 11.9598 44.2862 5.02991 43.8196 4.24016C43.4111 3.55026 36.1835 7.78043 33.1207 10.3512C30.562 8.61529 27.5589 7.64997 24.4679 7.56983V10.068H23.197V7.56983C14.8129 7.97833 8.08096 14.7684 7.77051 23.1797H10.0853V24.4361H7.77051C8.0973 32.8601 14.8147 39.6375 23.2116 40.046V37.5623H24.4679V40.046C33.019 39.8063 39.9235 32.96 40.2484 24.4361L37.5942 24.4379Z" fill="white"/>
<path fill-rule="evenodd" clip-rule="evenodd" d="M22.7976 22.6023L16.8699 17.9001L14.8093 19.9608L24.1411 30.4055C28.3168 22.5007 35.6443 12.8493 41.4177 6.45325C38.0589 8.04728 27.8012 17.0813 22.8013 22.6005L22.7976 22.6023Z" fill="#384158"/>
</svg>
