<svg width="48" height="48" viewBox="0 0 48 48" fill="none" xmlns="http://www.w3.org/2000/svg">
<path fill-rule="evenodd" clip-rule="evenodd" d="M25.4664 10.5374C24.6431 9.51492 23.3566 9.51485 22.5331 10.5374L20.9757 9.28327L22.5331 10.5374C20.5343 13.0197 17.5619 17.1526 13.946 23.517L13.946 23.517C10.7196 29.1959 9.01425 33.0725 8.11523 35.5602C7.89906 36.1583 8.01386 36.5983 8.23209 36.9053C8.46897 37.2384 8.94516 37.5685 9.69108 37.6353L9.51266 39.6274L9.69108 37.6353C12.8864 37.9214 17.7749 38.23 23.9999 38.23C30.2248 38.23 35.1134 37.9214 38.3086 37.6353L38.487 39.6274L38.3086 37.6353C38.3086 37.6353 38.3086 37.6353 38.3086 37.6353C39.0546 37.5685 39.5307 37.2384 39.7676 36.9053C39.9858 36.5983 40.1006 36.1583 39.8845 35.5602C38.9854 33.0725 37.28 29.1959 34.0537 23.517C30.4377 17.1526 27.4654 13.0197 25.4665 10.5374L25.4664 10.5374ZM19.4177 8.02861C21.8422 5.01784 26.1575 5.01777 28.582 8.02864L27.0242 9.283L28.582 8.02864C30.7264 10.6916 33.818 15.0049 37.5315 21.5411L37.5316 21.5411C40.8407 27.3656 42.6525 31.4507 43.6463 34.2007C44.2928 35.9894 44.0324 37.8098 43.0277 39.2229C42.0417 40.6099 40.4474 41.4598 38.6654 41.6194C35.3644 41.915 30.3562 42.23 23.9999 42.23C17.6435 42.23 12.6353 41.915 9.3343 41.6194L9.33424 41.6194C7.55226 41.4598 5.95796 40.6099 4.97197 39.2229C3.96733 37.8098 3.7069 35.9895 4.35334 34.2007C5.34717 31.4507 7.15899 27.3656 10.4682 21.5411C14.1817 15.0048 17.2734 10.6916 19.4177 8.02865L19.4177 8.02861Z" fill="#646464"/>
</svg>
