<svg width="48" height="48" viewBox="0 0 48 48" fill="none" xmlns="http://www.w3.org/2000/svg">
<path fill-rule="evenodd" clip-rule="evenodd" d="M17.4098 40.869C17.6957 39.8021 18.7924 39.1689 19.8593 39.4548C28.3948 41.7419 37.1682 36.6765 39.4553 28.1411C40.5052 24.2224 40.007 20.2584 38.3339 16.8895C37.8426 15.9002 38.2463 14.6999 39.2356 14.2086C40.2249 13.7173 41.4252 14.1211 41.9165 15.1103C44.0062 19.3183 44.6307 24.281 43.319 29.1764C40.4601 39.8457 29.4934 46.1773 18.8241 43.3185C17.7571 43.0326 17.124 41.9359 17.4098 40.869Z" fill="#646464"/>
<path fill-rule="evenodd" clip-rule="evenodd" d="M8.54557 19.8588C8.29958 20.7769 8.13884 21.6961 8.05799 22.6085C7.9605 23.7087 6.98953 24.5216 5.88927 24.4241C4.78901 24.3267 3.97611 23.3557 4.0736 22.2554C4.17478 21.1136 4.37573 19.966 4.68187 18.8235C4.98801 17.681 5.38775 16.5867 5.87105 15.5473C6.33675 14.5457 7.52622 14.1112 8.52782 14.5769C9.52942 15.0426 9.96386 16.2321 9.49816 17.2337C9.11198 18.0643 8.79157 18.9407 8.54557 19.8588ZM6.39876 28.2778C7.43639 27.8991 8.58453 28.4333 8.96321 29.471C9.60308 31.2243 10.5452 32.8561 11.7437 34.2869C12.453 35.1337 12.3415 36.3951 11.4948 37.1044C10.648 37.8137 9.3866 37.7022 8.67733 36.8555C7.1807 35.0687 6.00466 33.0318 5.20562 30.8423C4.82694 29.8046 5.36113 28.6565 6.39876 28.2778ZM10.8959 11.4943C10.1866 10.6475 10.2981 9.38611 11.1448 8.67684C12.9316 7.18021 14.9685 6.00417 17.158 5.20513C18.1956 4.82645 19.3438 5.36064 19.7225 6.39827C20.1011 7.4359 19.567 8.58404 18.5293 8.96272C16.776 9.60259 15.1441 10.5447 13.7133 11.7432C12.8666 12.4525 11.6052 12.3411 10.8959 11.4943ZM14.5774 39.4725C15.0431 38.4709 16.2326 38.0364 17.2342 38.5021C18.0648 38.8883 18.9413 39.2088 19.8593 39.4548C20.7774 39.7008 21.6966 39.8614 22.609 39.9423C23.7092 40.0398 24.5221 41.0108 24.4246 42.111C24.3271 43.2113 23.3562 44.0242 22.2559 43.9267C21.1141 43.8255 19.9666 43.6246 18.8241 43.3185C17.6815 43.0123 16.5872 42.6125 15.5478 42.1292C14.5462 41.6635 14.1117 40.4741 14.5774 39.4725ZM23.5761 5.88878C23.6736 4.78852 24.6446 3.97562 25.7449 4.07311C26.8867 4.17429 28.0342 4.37524 29.1768 4.68138C30.319 4.98745 31.413 5.38706 32.4522 5.8702C33.4539 6.33585 33.8883 7.52531 33.4227 8.52693C32.957 9.52854 31.7676 9.96303 30.766 9.49738C29.9356 9.11133 29.0593 8.79102 28.1415 8.54509C27.2234 8.29909 26.3042 8.13835 25.3918 8.0575C24.2915 7.96001 23.4786 6.98904 23.5761 5.88878ZM36.5059 10.8953C37.3527 10.186 38.6141 10.2975 39.3234 11.1442C40.0718 12.0378 40.74 12.9937 41.3209 13.9999C41.9018 15.0061 42.3956 16.0627 42.7952 17.1577C43.1739 18.1953 42.6397 19.3434 41.6021 19.7221C40.5644 20.1008 39.4163 19.5666 39.0376 18.529C38.7177 17.6524 38.3222 16.8061 37.8568 15.9999C37.3914 15.1938 36.8562 14.4281 36.257 13.7128C35.5477 12.866 35.6592 11.6046 36.5059 10.8953Z" fill="#646464"/>
<path d="M34.4144 20.4142C35.1954 19.6331 35.1954 18.3668 34.4144 17.5857C33.6333 16.8047 32.367 16.8047 31.586 17.5857L21.0002 28.1715L16.4144 23.5857C15.6333 22.8047 14.367 22.8047 13.586 23.5857C12.8049 24.3668 12.8049 25.6331 13.586 26.4142L19.586 32.4142C20.367 33.1952 21.6333 33.1952 22.4144 32.4142L34.4144 20.4142Z" fill="#646464"/>
</svg>
