<svg width="48" height="48" viewBox="0 0 48 48" fill="none" xmlns="http://www.w3.org/2000/svg">
<path d="M18.3045 29.6882C20.9084 29.6882 23.0619 27.5786 23.0619 24.9513C23.0619 24.9168 23.0619 24.8478 23.0619 24.8133L23.1312 23.2237C23.1312 23.1892 23.1312 23.1547 23.1312 23.0856V22.9821C23.3738 19.4898 26.1856 16.7936 29.4851 16.7936C33.0272 16.7936 35.9431 19.6969 35.9431 23.2237V23.2582V23.2927L35.9084 27.8916C35.9084 28.3746 35.5272 28.7566 35.0396 28.7566C34.5545 28.7566 34.1708 28.3426 34.2054 27.8571L34.2401 23.2582C34.2401 20.6309 32.1213 18.5213 29.4827 18.5213C27.0866 18.5213 25.0025 20.5964 24.8292 23.1201V23.2237V23.2927L24.7599 25.0203C24.7599 25.0548 24.7599 25.0893 24.7599 25.1238C24.6559 28.6161 21.8094 31.4159 18.3366 31.4159C14.7946 31.4159 11.9134 28.5471 11.9134 25.0203L11.948 24.9858H11.9134V20.5964C11.9134 20.1134 12.2946 19.8004 12.7822 19.8004C13.2673 19.8004 13.651 20.1454 13.6163 20.5964L13.547 24.9858C13.5842 27.5786 15.7005 29.6882 18.3045 29.6882ZM24.0347 4H23.9307C13.3738 4.0345 4.76485 12.1947 4 22.5311V25.4689C4.76485 35.8398 13.4084 44 23.9653 44C35.0421 44 44 35.0462 44 23.9827C44 12.9883 35.0767 4.0345 24.0347 4Z" fill="#3AAFA9"/>
</svg>
