<svg width="48" height="48" viewBox="0 0 48 48" fill="none" xmlns="http://www.w3.org/2000/svg">
<path d="M35.38 35.38C35.46 36.44 36.34 37.24 37.38 37.24H37.48C38.52 37.16 39.34 37.08 40 37C41.24 36.84 42.3 36.22 42.98 35.28C43.68 34.34 43.92 33.14 43.68 31.9C42.94 28.08 40.62 24.74 37.38 22.66C39.34 20.66 40.48 17.92 40.48 15C40.48 8.94 35.54 4 29.48 4C27.9 4 26.38 4.32 24.96 4.96C23.96 5.4 23.5 6.6 23.96 7.6C24.4 8.6 25.6 9.06 26.6 8.6C27.5 8.18 28.48 7.98 29.48 7.98C33.34 7.98 36.48 11.12 36.48 14.98C36.48 17.62 35 20.02 32.64 21.22C31.94 21.58 31.5 22.34 31.56 23.14C31.62 23.96 32.16 24.64 32.92 24.9C36.46 26.1 39.08 29.06 39.76 32.64C39.7922 32.7689 39.7725 32.8588 39.7636 32.8994C39.7615 32.9092 39.76 32.92 39.76 32.92C39.76 32.96 39.68 33.02 39.52 33.02C38.94 33.1 38.2 33.18 37.24 33.24C36.14 33.32 35.3 34.28 35.38 35.38Z" fill="#646464"/>
<path fill-rule="evenodd" clip-rule="evenodd" d="M7.79989 43.3799C10.1799 43.6799 13.7799 43.8399 18.4799 43.8399C23.1999 43.8399 26.7799 43.6799 29.1599 43.3799C30.3999 43.2199 31.4599 42.6199 32.1599 41.6599C32.8799 40.6999 33.1199 39.4799 32.8799 38.2399C32.1399 34.3399 29.7799 30.9599 26.4599 28.8399C28.4799 26.7999 29.6399 24.0199 29.6399 21.0399C29.6399 14.8799 24.6399 9.87988 18.4799 9.87988C12.3199 9.87988 7.31989 14.8799 7.31989 21.0399C7.31989 24.0199 8.47989 26.7999 10.4999 28.8399C7.17989 30.9599 4.81989 34.3399 4.07989 38.2399C3.85989 39.4799 4.09989 40.6999 4.79989 41.6599C5.47989 42.5999 6.55989 43.2199 7.79989 43.3799ZM18.4399 13.88C14.5181 13.9015 11.3199 17.0933 11.3199 21.0399C11.3199 23.7399 12.8199 26.1999 15.2399 27.4199C15.9599 27.7799 16.3799 28.5399 16.3199 29.3399C16.2599 30.1399 15.7199 30.8399 14.9599 31.0999C11.3599 32.3199 8.67989 35.3399 7.99989 38.9799C7.96943 39.1017 7.98536 39.2004 7.99469 39.2581C7.99761 39.2762 7.99989 39.2903 7.99989 39.2999C8.01989 39.3399 8.11989 39.3799 8.27989 39.3999C9.79989 39.5999 12.7999 39.8199 18.4399 39.8199C24.0799 39.8199 27.0799 39.5799 28.5999 39.3999C28.7279 39.3999 28.8047 39.3487 28.8508 39.318C28.8623 39.3103 28.8719 39.3039 28.8799 39.2999C28.8999 39.2599 28.9399 39.1599 28.8799 38.9799C28.1799 35.3399 25.5199 32.3199 21.9199 31.0999C21.1599 30.8399 20.6199 30.1599 20.5599 29.3399C20.4999 28.5399 20.9399 27.7799 21.6399 27.4199C24.0599 26.1999 25.5599 23.7399 25.5599 21.0399C25.5599 17.1132 22.3814 13.9016 18.4399 13.88Z" fill="#646464"/>
</svg>
