<svg width="48" height="48" viewBox="0 0 48 48" fill="none" xmlns="http://www.w3.org/2000/svg">
<path d="M33.5002 24C33.5002 23.293 33.4877 22.6549 33.467 22.082L33.385 20.5566C33.339 19.9393 33.2424 19.5221 33.1565 19.2637C31.6445 19.1455 28.826 19 24.0002 19C19.1724 19 16.3536 19.1455 14.842 19.2637C14.786 19.4324 14.7273 19.669 14.6799 19.9844L14.6155 20.5566C14.5491 21.4479 14.5002 22.5866 14.5002 24C14.5002 25.4134 14.5491 26.552 14.6155 27.4433L14.6799 28.0156C14.7271 28.3299 14.7862 28.5658 14.842 28.7344C16.3536 28.8525 19.1722 29 24.0002 29C28.8262 29 31.6445 28.8525 33.1565 28.7344C33.2423 28.4758 33.3391 28.0593 33.385 27.4433L33.467 25.918C33.4877 25.3451 33.5002 24.707 33.5002 24ZM37.5002 24C37.5002 25.1299 37.4702 26.1085 37.4241 26.9473L37.3733 27.7402C37.2869 28.8995 37.0553 29.9404 36.637 30.7695C36.2729 31.491 35.5595 32.4207 34.3694 32.6387L34.1233 32.6719C32.6517 32.8109 29.6239 33 24.0002 33C19.7812 33 17.0233 32.893 15.2874 32.7812L13.8772 32.6719C12.5388 32.5452 11.7519 31.5393 11.3635 30.7695C10.9976 30.0442 10.7743 29.1568 10.6663 28.1699L10.6272 27.7402C10.553 26.7443 10.5002 25.5067 10.5002 24C10.5002 22.4933 10.553 21.2556 10.6272 20.2598L10.6663 19.8301C10.7743 18.8432 10.9976 17.9558 11.3635 17.2305C11.7519 16.4607 12.5388 15.4547 13.8772 15.3281L15.2874 15.2187C17.0233 15.107 19.7812 15 24.0002 15C28.2193 15 30.9772 15.107 32.7131 15.2187L34.1233 15.3281L34.3694 15.3613C35.5595 15.5793 36.2729 16.509 36.637 17.2305C37.0553 18.0596 37.2869 19.1005 37.3733 20.2598L37.4241 21.0527C37.4702 21.8915 37.5002 22.8701 37.5002 24Z" fill="#646464"/>
<path d="M3 16.2852V16.1191C3.00047 16.0126 3.00205 15.8569 3.00391 15.6602C3.00762 15.2668 3.01451 14.7061 3.0293 14.0332C3.05882 12.6901 3.11908 10.8868 3.23828 9.06836L3.29102 8.58789C3.66736 6.21718 5.63126 4.39598 8.07031 4.23633L9.42383 4.1582C10.7606 4.09 12.0261 4.05141 13.0332 4.0293C13.706 4.01453 14.2669 4.00762 14.6602 4.00391C14.8569 4.00205 15.0126 4.00047 15.1191 4H15.2852L15.4902 4.00977C16.4987 4.11217 17.2851 4.96447 17.2852 6C17.2852 7.03554 16.4988 7.88783 15.4902 7.99023L15.2852 8H15.1367C15.0364 8.00044 14.8868 8.00212 14.6973 8.00391C14.3181 8.00748 13.7744 8.01495 13.1211 8.0293C12.1384 8.05087 10.9139 8.08875 9.62891 8.1543L8.33203 8.22852C7.80826 8.2628 7.38699 8.62292 7.26367 9.11328L7.22852 9.33008C7.11445 11.0702 7.0581 12.8109 7.0293 14.1211C7.01493 14.7745 7.00749 15.318 7.00391 15.6973C7.00212 15.8868 7.00044 16.0364 7 16.1367V16.2852L6.99023 16.4902C6.88783 17.4988 6.03554 18.2852 5 18.2852C3.96446 18.2852 3.11217 17.4988 3.00977 16.4902L3 16.2852Z" fill="#646464"/>
<path d="M41.0056 16.2852V16.1367C41.0051 16.0364 41.0035 15.8868 41.0017 15.6973C40.9981 15.318 40.9926 14.7745 40.9782 14.1211C40.9566 13.1385 40.9189 11.9139 40.8532 10.6289L40.7771 9.33008C40.7426 8.80669 40.3826 8.38691 39.8923 8.26367L39.6755 8.22852C37.9355 8.11462 36.1946 8.05806 34.8845 8.0293C34.231 8.01495 33.6875 8.00748 33.3083 8.00391C33.1192 8.00212 32.9711 8.00044 32.8708 8H32.7204L32.5154 7.99023C31.5071 7.88757 30.7204 7.03535 30.7204 6C30.7204 4.89544 31.6159 4 32.7204 4H32.8884C32.9948 4.00047 33.1494 4.00206 33.3454 4.00391C33.7387 4.00762 34.2997 4.01453 34.9724 4.0293C36.3154 4.05878 38.119 4.11732 39.9372 4.23633L40.4177 4.29102C42.788 4.66722 44.6092 6.62957 44.7693 9.06836L44.8474 10.4238C44.9157 11.7606 44.9542 13.0261 44.9763 14.0332C44.9911 14.7061 44.998 15.2668 45.0017 15.6602C45.0035 15.8569 45.0051 16.0126 45.0056 16.1191V16.2852L44.9958 16.4902C44.8934 17.4987 44.0411 18.2852 43.0056 18.2852C41.9703 18.2849 41.1198 17.4985 41.0173 16.4902L41.0056 16.2852Z" fill="#646464"/>
<path d="M41.0056 31.7149C41.0056 30.6105 41.9013 29.7152 43.0056 29.7149C44.0409 29.7149 44.8931 30.5015 44.9958 31.5098L45.0056 31.7149V31.8828C45.0051 31.9892 45.0035 32.1438 45.0017 32.3399C44.998 32.7331 44.9911 33.2941 44.9763 33.9668C44.9541 34.9743 44.9157 36.2408 44.8474 37.5781L44.7693 38.9317C44.6094 41.3707 42.7881 43.3327 40.4177 43.709L39.9372 43.7637C38.119 43.8827 36.3154 43.9412 34.9724 43.9707C34.2997 43.9855 33.7387 43.9924 33.3454 43.9961C33.1494 43.998 32.9948 43.9995 32.8884 44H32.7204C31.6159 44 30.7204 43.1046 30.7204 42C30.7207 40.8957 31.6161 40 32.7204 40H32.8708C32.9711 39.9996 33.1192 39.9979 33.3083 39.9961C33.6875 39.9925 34.231 39.987 34.8845 39.9727C36.1946 39.9439 37.9356 39.8854 39.6755 39.7715L39.8923 39.7383C40.383 39.6151 40.7428 39.1937 40.7771 38.6699L40.8532 37.3711C40.9189 36.0863 40.9566 34.8614 40.9782 33.8789C40.9926 33.2254 40.9981 32.6819 41.0017 32.3027C41.0035 32.1136 41.0051 31.9655 41.0056 31.8652V31.7149Z" fill="#646464"/>
<path d="M3.00024 31.7149C3.00024 30.6103 3.89567 29.7149 5.00024 29.7149C6.0356 29.7149 6.88782 30.5015 6.99048 31.5098L7.00024 31.7149V31.8652C7.00069 31.9655 7.00237 32.1136 7.00415 32.3027C7.00773 32.6819 7.01518 33.2254 7.02954 33.8789C7.05834 35.1891 7.11469 36.9298 7.22876 38.6699L7.26392 38.8867C7.38706 39.3773 7.80828 39.7372 8.33228 39.7715L9.62915 39.8477C10.9141 39.9132 12.1387 39.9511 13.1213 39.9727C13.7747 39.987 14.3183 39.9925 14.6975 39.9961C14.8871 39.9979 15.0367 39.9996 15.137 40H15.2854L15.4905 40.0117C16.4988 40.1142 17.2851 40.9648 17.2854 42C17.2854 43.0355 16.499 43.8878 15.4905 43.9902L15.2854 44H15.1194C15.0129 43.9995 14.8571 43.998 14.6604 43.9961C14.2671 43.9924 13.7063 43.9855 13.0334 43.9707C12.0263 43.9486 10.7608 43.91 9.42407 43.8418L8.07056 43.7637C5.63137 43.604 3.6674 41.7831 3.29126 39.4121L3.23853 38.9317C3.11932 37.1132 3.05906 35.3099 3.02954 33.9668C3.01476 33.2941 3.00786 32.7331 3.00415 32.3399C3.0023 32.1438 3.00071 31.9892 3.00024 31.8828V31.7149Z" fill="#646464"/>
</svg>
