<svg width="48" height="48" viewBox="0 0 48 48" fill="none" xmlns="http://www.w3.org/2000/svg">
<path d="M34.4939 9.3569C34.5527 8.7442 34.6123 8.01591 34.6567 7.2259C34.6624 7.12404 34.6653 7.02245 34.6655 6.92175C35.3432 6.96558 35.9582 7.01102 36.5104 7.05597C38.8823 7.24906 40.7211 9.05792 40.9221 11.4343C41.1579 14.2229 41.4062 18.7182 41.4062 25.2838C41.4062 31.8494 41.1579 36.3448 40.9221 39.1333C40.7211 41.5097 38.8823 43.3186 36.5104 43.5116C33.8255 43.7302 29.6563 43.9603 24.0031 43.9603C18.3499 43.9603 14.1807 43.7302 11.4958 43.5116C9.12395 43.3186 7.28502 41.5097 7.0841 39.1333C6.84831 36.3448 6.59998 31.8494 6.59998 25.2838C6.59998 18.7182 6.84831 14.2229 7.0841 11.4343C7.28502 9.05792 9.12395 7.24906 11.4958 7.05597C12.0478 7.01103 12.6627 6.9656 13.3403 6.92178C13.3404 7.02244 13.3433 7.12373 13.349 7.22556C13.3934 8.01571 13.4531 8.74436 13.5118 9.35713C13.7505 11.8465 15.6813 13.9126 18.3011 14.1444C19.5677 14.2564 21.4358 14.3607 24.0026 14.3607C26.5696 14.3607 28.4378 14.2564 29.7045 14.1444C32.3241 13.9127 34.2554 11.8466 34.4939 9.3569Z" fill="#5A3CD7"/>
<path d="M24.0026 4.06006C21.6459 4.06006 19.8305 4.13248 18.5564 4.2108C17.0503 4.30337 15.9202 5.56767 16.0048 7.07633C16.0469 7.82558 16.1036 8.51857 16.1597 9.1031C16.2814 10.3729 17.2477 11.3806 18.5355 11.4945C19.718 11.5991 21.5076 11.7005 24.0026 11.7005C26.4978 11.7005 28.2875 11.5991 29.4702 11.4945C30.758 11.3806 31.7244 10.3728 31.8461 9.103C31.9021 8.51851 31.9588 7.82557 32.0009 7.0764C32.0856 5.5677 30.9555 4.30338 29.4494 4.21081C28.175 4.13249 26.3594 4.06006 24.0026 4.06006Z" fill="white"/>
<path fill-rule="evenodd" clip-rule="evenodd" d="M16.0048 7.07633C15.9202 5.56767 17.0503 4.30337 18.5564 4.2108C19.8305 4.13248 21.6459 4.06006 24.0026 4.06006C26.3594 4.06006 28.175 4.13249 29.4494 4.21081C30.9555 4.30338 32.0856 5.5677 32.0009 7.0764C31.9588 7.82557 31.9021 8.51851 31.8461 9.103C31.7244 10.3728 30.758 11.3806 29.4702 11.4945C28.2875 11.5991 26.4978 11.7005 24.0026 11.7005C21.5076 11.7005 19.718 11.5991 18.5355 11.4945C17.2477 11.3806 16.2814 10.3729 16.1597 9.1031C16.1036 8.51857 16.0469 7.82558 16.0048 7.07633Z" fill="#5A3CD7"/>
<path d="M30.8018 25.4528C31.2058 24.8369 31.3062 24.032 30.8537 23.4507C30.4222 22.8965 29.9018 22.4888 29.4233 22.1965C28.6148 21.7025 27.632 22.0801 27.1051 22.8675C24.4456 26.8421 23.0628 28.8954 23.0628 28.8954C23.0628 28.8954 22.1261 27.9004 20.9443 26.5483C20.2262 25.7265 19.0163 25.5158 18.2098 26.2511C17.9135 26.5212 17.6067 26.8336 17.3231 27.1819C16.7857 27.8419 16.8971 28.7747 17.4343 29.4349C18.9646 31.3162 20.3326 32.7799 21.3693 33.8167C22.4661 34.9137 24.1733 34.7991 25.1198 33.57C26.3249 32.0051 28.1866 29.4404 30.8018 25.4528Z" fill="white"/>
</svg>
