<svg width="48" height="48" viewBox="0 0 48 48" fill="none" xmlns="http://www.w3.org/2000/svg">
<path d="M26.3621 10.5799C23.892 9.15379 20.7335 10.0001 19.3074 12.4702C17.8812 14.9403 18.7276 18.0988 21.1977 19.5249C21.6635 19.7938 22.0013 20.2391 22.1349 20.7601C22.2686 21.281 22.1867 21.8339 21.9079 22.2938L14.523 34.4745C13.9504 35.419 12.7204 35.7205 11.7759 35.1478C10.8314 34.5752 10.5299 33.3452 11.1026 32.4007L17.5461 21.7728C14.4759 18.93 13.6629 14.2467 15.8433 10.4702C18.3739 6.08694 23.9788 4.58512 28.3621 7.1158C31.6469 9.0123 33.3098 12.6327 32.8781 16.1671C32.7442 17.2635 31.7468 18.0437 30.6503 17.9098C29.5539 17.7759 28.7737 16.7785 28.9076 15.6821C29.1517 13.6836 28.2089 11.6462 26.3621 10.5799Z" fill="#646464"/>
<path d="M12.2037 25.4547C12.636 26.4712 12.1623 27.6456 11.1458 28.0779C9.29302 28.8657 8 30.7009 8 32.8334C8 35.6856 10.3122 37.9978 13.1644 37.9978C16.0166 37.9978 18.3288 35.6856 18.3288 32.8334C18.3288 31.7289 19.2242 30.8334 20.3288 30.8334H35.1875C36.2921 30.8334 37.1875 31.7289 37.1875 32.8334C37.1875 33.938 36.2921 34.8334 35.1875 34.8334H22.1099C21.1974 38.933 17.5388 41.9978 13.1644 41.9978C8.10304 41.9978 4 37.8948 4 32.8334C4 29.0404 6.30387 25.7901 9.5806 24.3968C10.5971 23.9646 11.7715 24.4382 12.2037 25.4547Z" fill="#646464"/>
<path d="M25.3052 13.8522C24.7058 12.9244 23.4678 12.6582 22.54 13.2576C21.6122 13.8569 21.3459 15.095 21.9453 16.0228L29.572 27.8285C30.1503 28.7237 31.329 29.0082 32.2519 28.4753C34.722 27.0492 37.8805 27.8955 39.3066 30.3656C40.7327 32.8357 39.8864 35.9942 37.4163 37.4203C35.5694 38.4866 33.3336 38.2844 31.725 37.0737C30.8424 36.4095 29.5885 36.5866 28.9243 37.4691C28.2601 38.3517 28.4371 39.6056 29.3197 40.2698C32.1647 42.4109 36.1315 42.7809 39.4163 40.8844C43.7996 38.3537 45.3014 32.7489 42.7707 28.3656C40.568 24.5503 36.0361 22.9181 32.0081 24.228L25.3052 13.8522Z" fill="#646464"/>
</svg>
