<svg width="48" height="48" viewBox="0 0 48 48" fill="none" xmlns="http://www.w3.org/2000/svg">
<path d="M35.9994 27.9993C37.1037 27.9993 37.999 28.8951 37.9994 29.9993V33.9993H41.9994C43.1037 33.9993 43.999 34.8951 43.9994 35.9993C43.9994 37.1039 43.104 37.9993 41.9994 37.9993H37.9994V41.9993C37.9994 43.1039 37.104 43.9993 35.9994 43.9993C34.8952 43.9989 33.9994 43.1036 33.9994 41.9993V37.9993H29.9994C28.8952 37.9989 27.9994 37.1036 27.9994 35.9993C27.9998 34.8953 28.8955 33.9997 29.9994 33.9993H33.9994V29.9993C33.9998 28.8953 34.8955 27.9997 35.9994 27.9993ZM8.01894 28.0012C9.12273 27.9607 10.0506 28.8232 10.0912 29.927C10.1666 31.9796 10.2827 33.984 10.4369 35.8919C10.5088 36.7787 11.2063 37.4761 12.0932 37.5481C14.0009 37.7022 16.0056 37.8185 18.058 37.8938C19.1618 37.9344 20.0243 38.8623 19.9838 39.9661C19.9426 41.0692 19.0148 41.9302 17.9115 41.8899C15.8064 41.8126 13.7426 41.6957 11.7709 41.5364C8.92917 41.3064 6.67845 39.0559 6.44863 36.2141C6.28929 34.2423 6.1724 32.1788 6.09511 30.0735C6.05478 28.9704 6.916 28.0426 8.01894 28.0012ZM17.9115 6.11061C19.0152 6.07028 19.9433 6.93268 19.9838 8.03639C20.0237 9.13969 19.1614 10.0681 18.058 10.1087C16.0056 10.184 14.0009 10.2982 12.0932 10.4524C11.2063 10.5245 10.5086 11.2217 10.4369 12.1087C10.2827 14.0165 10.1666 16.0209 10.0912 18.0735C10.0504 19.1771 9.12261 20.0398 8.01894 19.9993C6.91604 19.9579 6.05487 19.0301 6.09511 17.927C6.1724 15.8217 6.28929 13.7582 6.44863 11.7864C6.67831 8.9446 8.92919 6.69615 11.7709 6.46608C13.7426 6.30673 15.8064 6.18791 17.9115 6.11061ZM30.0736 6.11061C32.1786 6.1879 34.2427 6.30675 36.2143 6.46608C39.0559 6.69619 41.3049 8.94466 41.5346 11.7864C41.6939 13.7583 41.8127 15.8216 41.89 17.927C41.9303 19.0306 41.0679 19.9587 39.9643 19.9993C38.8609 20.0394 37.9327 19.1769 37.892 18.0735C37.8166 16.0209 37.7024 14.0165 37.5482 12.1087C37.4766 11.2217 36.7789 10.5245 35.892 10.4524C33.9841 10.2982 31.9778 10.184 29.9252 10.1087C28.8225 10.0673 27.9615 9.13918 28.0014 8.03639C28.0419 6.93283 28.9701 6.07052 30.0736 6.11061Z" fill="#646464"/>
</svg>
