<svg width="48" height="48" viewBox="0 0 48 48" fill="none" xmlns="http://www.w3.org/2000/svg">
<path d="M29.2774 3.22651C29.7511 1.59117 32.248 1.59117 32.7218 3.22651L33.3932 5.54285C34.8389 10.5336 36.8165 14.4321 42.1874 15.7759C42.1874 15.7759 42.9198 15.9594 44.6799 16.3997C46.44 16.8399 46.44 19.1601 44.6799 19.6003L42.1874 20.2241C36.8165 21.5679 34.8389 25.4664 33.3932 30.4572L32.7218 32.7735C32.248 34.4088 29.7511 34.4088 29.2774 32.7735L28.6068 30.4572C27.1602 25.4664 25.1835 21.5679 19.8126 20.2241L17.3201 19.6003C15.56 19.1601 15.56 16.8399 17.3201 16.3997L19.8126 15.7759C25.1835 14.4321 27.1602 10.5336 28.6068 5.54285L29.2774 3.22651Z" fill="url(#paint0_linear_3_18398)"/>
<path d="M9.96641 26.7666C10.2507 25.7445 11.7488 25.7445 12.0331 26.7666L12.4359 28.2143C13.3034 31.3335 14.4899 33.7701 17.7124 34.6099L19.208 34.9998C20.264 35.2749 20.264 36.7251 19.208 37.0002L17.7124 37.3901C14.4899 38.2299 13.3034 40.6665 12.4359 43.7857L12.0331 45.2334C11.7488 46.2555 10.2507 46.2555 9.96641 45.2334L9.56405 43.7857C8.69611 40.6665 7.51008 38.2299 4.28756 37.3901L2.79204 37.0002C1.73599 36.7251 1.73599 35.2749 2.79204 34.9998L4.28756 34.6099C7.51008 33.7701 8.69611 31.3335 9.56405 28.2143L9.96641 26.7666Z" fill="url(#paint1_linear_3_18398)"/>
<defs>
<linearGradient id="paint0_linear_3_18398" x1="23.8811" y1="46" x2="23.8811" y2="2" gradientUnits="userSpaceOnUse">
<stop stop-color="#8930FD"/>
<stop offset="1" stop-color="#FF02F0"/>
</linearGradient>
<linearGradient id="paint1_linear_3_18398" x1="23.8811" y1="46" x2="23.8811" y2="2" gradientUnits="userSpaceOnUse">
<stop stop-color="#8930FD"/>
<stop offset="1" stop-color="#FF02F0"/>
</linearGradient>
</defs>
</svg>
