<svg width="48" height="48" viewBox="0 0 48 48" fill="none" xmlns="http://www.w3.org/2000/svg">
<path d="M42 8C42 6.9 41.1 6 40 6C38.9 6 38 6.9 38 8V40C38 41.1 38.9 42 40 42C41.1 42 42 41.1 42 40V8Z" fill="#646464"/>
<path fill-rule="evenodd" clip-rule="evenodd" d="M9.43982 32.24C11.8198 32.44 15.1998 32.54 19.4998 32.54C23.7998 32.54 27.1798 32.44 29.5598 32.24C32.0998 32.02 33.9798 30.06 34.0998 27.5C34.1398 26.62 34.1798 25.48 34.1798 24C34.1798 22.52 34.1398 21.38 34.0998 20.5C33.9798 17.92 32.0998 15.98 29.5598 15.76C27.1798 15.56 23.7798 15.46 19.4998 15.46C15.2198 15.46 11.8198 15.56 9.43982 15.76C6.89982 15.98 5.01982 17.94 4.89982 20.5C4.85982 21.38 4.81982 22.52 4.81982 24C4.81982 25.48 4.85982 26.62 4.89982 27.5C5.01982 30.08 6.89982 32.02 9.43982 32.24ZM9.77982 19.76C11.3398 19.62 14.2998 19.46 19.4998 19.46C24.6998 19.46 27.6598 19.62 29.2198 19.76C29.7798 19.8 30.0798 20.12 30.0998 20.7C30.1598 21.52 30.1798 22.62 30.1798 24C30.1798 25.38 30.1398 26.46 30.0998 27.3C30.0798 27.88 29.7798 28.2 29.2198 28.24C27.6598 28.36 24.7198 28.52 19.4998 28.52C14.2798 28.52 11.3398 28.38 9.77982 28.24C9.21982 28.2 8.91982 27.88 8.89982 27.3C8.85982 26.48 8.81982 25.38 8.81982 24C8.81982 22.62 8.85982 21.52 8.89982 20.7C8.91982 20.12 9.21982 19.8 9.77982 19.76Z" fill="#646464"/>
</svg>
