<svg width="48" height="48" viewBox="0 0 48 48" fill="none" xmlns="http://www.w3.org/2000/svg">
<path fill-rule="evenodd" clip-rule="evenodd" d="M24.3599 6C25.4599 6 26.3599 6.9 26.3599 8V15.445C32.5568 15.4769 36.0541 15.6549 37.94 15.7999C40.54 15.9999 42.46 17.9399 42.62 20.4999C42.68 21.3799 42.72 22.5199 42.72 23.9999C42.72 25.4799 42.68 26.5999 42.62 27.4799C42.46 30.0599 40.54 31.9799 37.94 32.1799C36.0364 32.325 32.5389 32.4864 26.3599 32.5154L26.3599 32.52V40C26.3599 41.1 25.4599 42 24.3599 42C23.2599 42 22.3599 41.1 22.3599 40V32.5351C17.4112 32.5107 13.4316 32.3944 10.78 32.1999C8.18 31.9999 6.26 30.0599 6.1 27.4999C6.04 26.6199 6 25.4799 6 23.9999C6 22.5199 6.04 21.3799 6.1 20.4999C6.26 17.9399 8.18 15.9999 10.78 15.7999C13.415 15.6054 17.3948 15.4734 22.3599 15.4455V8C22.3599 6.9 23.2599 6 24.3599 6ZM11.08 19.7999C13.1 19.6399 17.02 19.4599 24.36 19.4599V19.4799C31.7 19.4799 35.64 19.6599 37.64 19.8199C38.08 19.8399 38.6 20.0399 38.64 20.7799C38.68 21.5999 38.72 22.6599 38.72 24.0199C38.72 25.3799 38.7 26.4399 38.64 27.2599C38.6 27.9999 38.06 28.1799 37.64 28.2199C35.62 28.3799 31.68 28.5599 24.36 28.5599C17.04 28.5599 13.1 28.3799 11.08 28.2199C10.64 28.1799 10.12 27.9799 10.08 27.2399C10.04 26.4199 10 25.3599 10 23.9999C10 22.6399 10.02 21.5799 10.08 20.7599C10.12 20.0199 10.66 19.8399 11.08 19.7999Z" fill="#646464"/>
</svg>
