<svg width="48" height="48" viewBox="0 0 48 48" fill="none" xmlns="http://www.w3.org/2000/svg">
<path d="M27.6357 22.1819C29.4811 22.1819 31.0083 22.6391 32.2836 23.0128C33.5927 23.3965 34.651 23.6964 35.9071 23.6964C37.2793 23.6964 38.553 23.4734 39.6691 23.2809C40.1882 23.1915 40.7623 23.092 41.2421 23.0608C41.4847 23.045 41.7958 23.04 42.1173 23.0927C42.3849 23.1367 42.8138 23.2458 43.2127 23.5615L43.3814 23.7089L43.5092 23.8456C44.1002 24.5362 44.0041 25.3567 43.9708 25.5891C43.9188 25.9519 43.7969 26.2971 43.6956 26.5515C43.4871 27.0753 43.1656 27.6991 42.8896 28.2383C42.5918 28.8202 42.3158 29.3592 42.112 29.8398C41.9248 30.2813 41.8752 30.4998 41.8635 30.5536C41.8726 30.5846 41.9099 30.7277 42.057 31.0152C42.2397 31.3723 42.4944 31.7677 42.7902 32.2172C43.0509 32.6134 43.3978 33.1289 43.6246 33.572C43.7347 33.787 43.893 34.1261 43.962 34.5166C44.025 34.8741 44.0644 35.6353 43.5021 36.2832L43.3814 36.4111C43.0156 36.7684 42.5142 37.0329 42.1138 37.2154C41.6562 37.424 41.1015 37.6264 40.4805 37.8049C39.2391 38.1615 37.6479 38.4441 35.9071 38.4441C34.1549 38.444 32.6985 38.0337 31.4652 37.6735C30.8797 37.5025 30.3509 37.3477 29.8371 37.2225C29.7777 38.2897 29.7093 39.2899 29.6436 40.1166C29.5903 40.7876 29.5415 41.3481 29.5052 41.7412C29.487 41.9376 29.4712 42.0928 29.4608 42.1993C29.4556 42.2524 29.4512 42.2937 29.4483 42.3218C29.447 42.3355 29.4455 42.3464 29.4448 42.3538V42.3662C29.3426 43.365 28.4496 44.0928 27.4511 43.9908C26.4524 43.8886 25.7247 42.9956 25.8266 41.9969V41.9951C25.8267 41.9937 25.8281 41.9911 25.8284 41.988C25.829 41.9819 25.8289 41.9723 25.8301 41.9596C25.8327 41.9343 25.8377 41.8962 25.8426 41.846C25.8524 41.7453 25.8658 41.5956 25.8834 41.4057C25.9186 41.0257 25.9664 40.4817 26.0183 39.829C26.1224 38.5199 26.241 36.7847 26.2988 35.0617L26.3255 34.062C26.3316 33.7327 26.3343 33.4079 26.3343 33.0908C26.3343 31.1358 26.2085 28.9133 26.0805 27.1623C26.0168 26.291 25.9542 25.5439 25.9065 25.0156C25.8826 24.7516 25.8617 24.5419 25.8479 24.3995C25.841 24.3287 25.8355 24.2742 25.8319 24.238C25.8301 24.2199 25.8293 24.206 25.8284 24.1971C25.828 24.1932 25.8268 24.1903 25.8266 24.1882V24.1847C25.7744 23.6732 25.9419 23.1637 26.2864 22.782C26.6311 22.4002 27.1213 22.1819 27.6357 22.1819ZM27.6357 15.3194C27.6357 14.8504 27.5952 14.3923 27.5167 13.9487L27.4262 13.5102C26.6233 10.1233 23.6235 7.63667 20.0833 7.63667C15.9366 7.63699 12.5329 11.0527 12.5327 15.3194C12.5327 18.1375 14.0208 20.5939 16.2343 21.9315C16.8384 22.2966 17.1772 22.9785 17.1024 23.6804C17.0277 24.3823 16.5536 24.9777 15.8863 25.2074C11.7702 26.6235 8.99559 30.1194 7.87587 33.8969L7.67348 34.6551C7.51156 35.3417 7.96444 36.1219 8.96772 36.23L9.88204 36.3205C11.8392 36.5023 14.5739 36.672 18.2014 36.7165L20.0886 36.7271L20.275 36.736C21.1918 36.8291 21.9066 37.6039 21.9066 38.5453C21.9066 39.4867 21.1918 40.2615 20.275 40.3545L20.0886 40.3634L18.157 40.351C14.44 40.3055 11.6078 40.1322 9.54649 39.9408L8.57892 39.845C5.73462 39.5387 3.39721 36.9499 4.13518 33.8205L4.25413 33.3483C5.32054 29.3373 7.91124 25.3943 11.9166 23.0484C10.0443 21.0235 8.89671 18.306 8.89671 15.3194C8.89692 9.09199 13.8813 4.00069 20.0833 4.00037C25.3788 4.00037 29.7876 7.71469 30.9627 12.6721L31.0959 13.3166C31.211 13.9678 31.2716 14.6372 31.2716 15.3194C31.2716 16.3236 30.4577 17.1376 29.4537 17.1376C28.4496 17.1376 27.6357 16.3236 27.6357 15.3194ZM29.965 33.5276C30.9022 33.7095 31.7418 33.9659 32.4842 34.1828C33.7013 34.5383 34.7205 34.8077 35.9071 34.8077C37.2683 34.8077 38.5216 34.5852 39.4774 34.3106C39.5743 34.2827 39.6654 34.2482 39.7543 34.22L39.7526 34.2165C39.4668 33.7822 39.1062 33.2301 38.8205 32.6718C38.5562 32.1552 38.2259 31.3932 38.2257 30.566C38.2257 29.7859 38.5271 28.9814 38.7655 28.4194C38.9649 27.9492 39.2064 27.4583 39.4348 27.0078C38.4484 27.1681 37.2241 27.3327 35.9071 27.3327C34.0621 27.3327 32.5362 26.8755 31.261 26.5018C30.6848 26.3329 30.1556 26.1849 29.6383 26.0668C29.6591 26.3281 29.6862 26.6059 29.7075 26.8977C29.838 28.682 29.9703 31.0055 29.9703 33.0908C29.9703 33.2355 29.9662 33.3811 29.965 33.5276Z" fill="#646464"/>
</svg>
