<svg width="48" height="48" viewBox="0 0 48 48" fill="none" xmlns="http://www.w3.org/2000/svg">
<path fill-rule="evenodd" clip-rule="evenodd" d="M28.5 8C24.3579 8 21 11.3579 21 15.5V28C21 29.6569 22.3431 31 24 31C25.6569 31 27 29.6569 27 28V16C27 14.8954 27.8954 14 29 14C30.1046 14 31 14.8954 31 16V28C31 31.866 27.866 35 24 35C20.134 35 17 31.866 17 28V15.5C17 9.14873 22.1487 4 28.5 4C34.8513 4 40 9.14873 40 15.5V28C40 36.8366 32.8366 44 24 44C15.1634 44 8 36.8366 8 28V16C8 14.8954 8.89543 14 10 14C11.1046 14 12 14.8954 12 16V28C12 34.6274 17.3726 40 24 40C30.6274 40 36 34.6274 36 28V15.5C36 11.3579 32.6421 8 28.5 8Z" fill="#646464"/>
</svg>
