<svg width="48" height="48" viewBox="0 0 48 48" fill="none" xmlns="http://www.w3.org/2000/svg">
<path fill-rule="evenodd" clip-rule="evenodd" d="M4.00004 24C4.00004 12.9543 12.9543 4.00004 24 4.00004C35.0458 4.00004 44 12.9543 44 24C44 35.0458 35.0458 44 24 44C12.9543 44 4.00004 35.0458 4.00004 24ZM24 8.00004C15.1635 8.00004 8.00004 15.1635 8.00004 24C8.00004 32.8366 15.1635 40 24 40C32.8366 40 40 32.8366 40 24C40 15.1635 32.8366 8.00004 24 8.00004Z" fill="#646464"/>
<path fill-rule="evenodd" clip-rule="evenodd" d="M43.9977 23.9041C44.0507 25.0074 43.1993 25.9447 42.096 25.9977C38.292 26.1805 34.3444 28.1854 31.2649 31.2649C28.1854 34.3444 26.1805 38.292 25.9977 42.096C25.9447 43.1993 25.0074 44.0507 23.9041 43.9977C22.8008 43.9447 21.9493 43.0074 22.0023 41.9041C22.2434 36.886 24.8274 32.0455 28.4365 28.4365C32.0455 24.8274 36.886 22.2434 41.9041 22.0023C43.0074 21.9493 43.9447 22.8008 43.9977 23.9041Z" fill="#646464"/>
<path fill-rule="evenodd" clip-rule="evenodd" d="M38.142 9.85927C38.923 10.6403 38.923 11.9066 38.142 12.6877L12.6861 38.1435C11.9051 38.9246 10.6387 38.9246 9.85768 38.1435C9.07663 37.3625 9.07663 36.0961 9.85768 35.3151L35.3136 9.85927C36.0946 9.07822 37.3609 9.07822 38.142 9.85927Z" fill="#646464"/>
<path fill-rule="evenodd" clip-rule="evenodd" d="M10.5177 10.5177C11.2987 9.73666 12.565 9.73666 13.3461 10.5177L37.4824 34.6541C38.2635 35.4351 38.2635 36.7015 37.4824 37.4825C36.7014 38.2636 35.4351 38.2636 34.654 37.4825L10.5177 13.3461C9.7366 12.5651 9.7366 11.2988 10.5177 10.5177Z" fill="#646464"/>
<path fill-rule="evenodd" clip-rule="evenodd" d="M24.0962 4.00235C25.1995 4.05545 26.0508 4.99288 25.9977 6.09617C25.7563 11.1137 23.172 15.9539 19.5629 19.5629C15.9539 23.172 11.1137 25.7563 6.09617 25.9977C4.99288 26.0508 4.05545 25.1995 4.00235 24.0962C3.94926 22.9929 4.80062 22.0554 5.90391 22.0024C9.70739 21.8193 13.6549 19.8142 16.7345 16.7345C19.8142 13.6549 21.8193 9.70739 22.0024 5.90391C22.0554 4.80062 22.9929 3.94926 24.0962 4.00235Z" fill="#646464"/>
</svg>
