<svg width="48" height="48" viewBox="0 0 48 48" fill="none" xmlns="http://www.w3.org/2000/svg">
<path fill-rule="evenodd" clip-rule="evenodd" d="M9.0238 16.9389C9.66453 9.14339 16.1783 3.14307 24 3.14307C24.7821 3.14307 25.5521 3.20319 26.3054 3.31949C27.397 3.48805 28.1453 4.50964 27.9767 5.60127C27.8082 6.69291 26.7866 7.4412 25.6949 7.27264C25.1428 7.18739 24.5768 7.14307 24 7.14307C18.2604 7.14307 13.4805 11.5462 13.0104 17.2665L12.5486 22.8849C12.3456 25.3547 11.5613 27.7416 10.2598 29.8505L9.01215 31.8721C8.60966 32.5243 8.68078 32.9135 8.71646 33.0076C8.73339 33.0523 8.76009 33.0951 8.82646 33.143C8.89934 33.1957 9.06593 33.2855 9.38829 33.3284C12.0005 33.6758 16.4677 34.0002 24 34.0002C31.5324 34.0002 35.9996 33.6758 38.6119 33.3284C38.9342 33.2855 39.1008 33.1957 39.1737 33.143C39.24 33.0951 39.2667 33.0523 39.2837 33.0076C39.3193 32.9135 39.3905 32.5243 38.988 31.8721M38.988 31.8721L37.7404 29.8505C37.5551 29.5504 37.3803 29.2446 37.2162 28.9337C36.7006 27.9569 37.0744 26.747 38.0512 26.2313C39.028 25.7157 40.2379 26.0895 40.7536 27.0663C40.8759 27.298 41.0062 27.526 41.1443 27.7497L42.3919 29.7714C43.2556 31.171 43.6146 32.8674 43.024 34.4254C42.4032 36.0632 40.9214 37.0564 39.1393 37.2934C37.5829 37.5005 35.489 37.6919 32.6693 37.8232C31.8291 41.8406 28.2669 44.858 23.9999 44.858C19.7328 44.858 16.1706 41.8406 15.3304 37.8232C12.5109 37.6919 10.4171 37.5005 8.86085 37.2934C7.07878 37.0564 5.59699 36.0632 4.97616 34.4254C4.38557 32.8674 4.74446 31.171 5.60819 29.7714L6.85584 27.7498C7.82603 26.1777 8.41069 24.3984 8.56201 22.5573L9.0238 16.9389M19.5538 37.9594C20.3069 39.6665 22.0142 40.858 23.9999 40.858C25.9855 40.858 27.6929 39.6665 28.4459 37.9594C27.0896 37.9858 25.6114 38.0002 24 38.0002C22.3886 38.0002 20.9102 37.9858 19.5538 37.9594ZM30.0001 10C30.0001 8.89543 30.8956 8 32.0001 8H41.0004C41.7765 8 42.4824 8.44892 42.8116 9.15169C43.1408 9.85446 43.0337 10.6842 42.5369 11.2804L37.0884 17.8185H41.8187C42.9232 17.8185 43.8187 18.7139 43.8187 19.8185C43.8187 20.9231 42.9232 21.8185 41.8187 21.8185H32.8184C32.0423 21.8185 31.3363 21.3696 31.0072 20.6668C30.678 19.9641 30.7851 19.1343 31.2819 18.5381L36.7304 12H32.0001C30.8956 12 30.0001 11.1046 30.0001 10ZM20.0001 18C20.0001 16.8954 20.8956 16 22.0001 16H28.0003C28.7763 16 29.4823 16.4489 29.8114 17.1517C30.1406 17.8545 30.0335 18.6842 29.5367 19.2804L26.8157 22.5456H28.5458C29.6503 22.5456 30.5458 23.441 30.5458 24.5456C30.5458 25.6502 29.6503 26.5456 28.5458 26.5456H22.5456C21.7695 26.5456 21.0635 26.0967 20.7344 25.3939C20.4052 24.6912 20.5123 23.8614 21.0091 23.2652L23.7302 20H22.0001C20.8956 20 20.0001 19.1046 20.0001 18Z" fill="#646464"/>
</svg>
