<svg width="48" height="48" viewBox="0 0 48 48" fill="none" xmlns="http://www.w3.org/2000/svg">
<path fill-rule="evenodd" clip-rule="evenodd" d="M11.993 23.0017C8.95904 21.5223 6.85273 20.2485 5.58 19.4C4.6 18.76 4 17.68 4 16.52C4 15.36 4.58 14.3 5.58 13.64C6.96 12.74 9.32 11.32 12.78 9.66C17.16 7.6 20.7 6.6 22.42 6.18C23.46 5.94 24.56 5.94 25.6 6.18C27.32 6.6 30.86 7.6 35.24 9.68C38.68 11.32 41.06 12.74 42.44 13.66C43.42 14.3 44.02 15.38 44.02 16.54C44.02 17.7 43.42 18.76 42.44 19.42C41.1701 20.2482 39.0702 21.5338 36.0469 23.0116C38.999 24.4651 41.099 25.7179 42.4399 26.5996C44.5399 27.9796 44.5399 30.9596 42.4399 32.3396C40.9799 33.2996 38.6199 34.6996 35.2399 36.3196C30.8799 38.3996 27.3799 39.3996 25.5999 39.8196C24.5599 40.0796 23.4599 40.0796 22.4199 39.8196C20.6399 39.3996 17.1399 38.3996 12.7799 36.3196C9.39988 34.6996 7.03988 33.2996 5.57988 32.3396C3.47988 30.9596 3.47988 27.9796 5.57988 26.5996C6.92381 25.7159 9.03034 24.4594 11.993 23.0017ZM14.48 19.78C11.8 18.5 9.82 17.36 8.5 16.54H8.52C9.84 15.72 11.8 14.58 14.5 13.3C18.54 11.38 21.78 10.46 23.34 10.08C23.78 9.98 24.22 9.98 24.66 10.08C26.22 10.46 29.44 11.38 33.5 13.3C36.18 14.58 38.16 15.72 39.48 16.54C38.16 17.38 36.18 18.5 33.5 19.78C29.46 21.7 26.22 22.62 24.66 23C24.22 23.1 23.78 23.1 23.34 23C21.76 22.62 18.54 21.7 14.48 19.78Z" fill="#646464"/>
</svg>
