<svg width="48" height="48" viewBox="0 0 48 48" fill="none" xmlns="http://www.w3.org/2000/svg">
<path d="M16 14C16 17.3137 13.3137 20 10 20C6.68629 20 4 17.3137 4 14C4 10.6863 6.68629 8 10 8C13.3137 8 16 10.6863 16 14Z" fill="#646464"/>
<path d="M20 14C20 12.8954 20.8954 12 22 12L42 12C43.1046 12 44 12.8954 44 14C44 15.1046 43.1046 16 42 16L22 16C20.8954 16 20 15.1046 20 14Z" fill="#646464"/>
<path d="M20 34C20 32.8954 20.8954 32 22 32H42C43.1046 32 44 32.8954 44 34C44 35.1046 43.1046 36 42 36H22C20.8954 36 20 35.1046 20 34Z" fill="#646464"/>
<path d="M10 40C13.3137 40 16 37.3137 16 34C16 30.6863 13.3137 28 10 28C6.68629 28 4 30.6863 4 34C4 37.3137 6.68629 40 10 40Z" fill="#646464"/>
</svg>
