<svg width="48" height="48" viewBox="0 0 48 48" fill="none" xmlns="http://www.w3.org/2000/svg">
<path fill-rule="evenodd" clip-rule="evenodd" d="M20.5801 30.4201C20.9751 30.7954 21.4676 30.9951 21.9806 31C22.4933 30.9954 22.9854 30.8149 23.3801 30.4201L32.3801 21.4201C33.1601 20.6401 33.1601 19.3801 32.3801 18.6001C31.6001 17.8201 30.3401 17.8201 29.5601 18.6001L21.9801 26.1801L18.4001 22.6001C17.6201 21.8201 16.3601 21.8201 15.5801 22.6001C14.8001 23.3801 14.8001 24.6401 15.5801 25.4201L20.5801 30.4201ZM21.9806 31C21.9871 31.0001 21.9936 31.0001 22.0001 31.0001H21.9601C21.967 31.0001 21.9738 31.0001 21.9806 31Z" fill="#646464"/>
<path fill-rule="evenodd" clip-rule="evenodd" d="M11.84 41.58C14.2 41.78 18.2 42 24 42C29.8 42 33.82 41.76 36.16 41.58C39.06 41.36 41.34 39.06 41.58 36.16C41.78 33.8 42 29.8 42 24C42 18.2 41.76 14.18 41.58 11.84C41.36 8.94 39.06 6.66 36.16 6.42C33.8 6.22 29.8 6 24 6C18.2 6 14.18 6.22 11.84 6.42C8.94 6.66 6.66 8.94 6.42 11.84C6.22 14.2 6 18.2 6 24C6 29.8 6.22 33.82 6.42 36.16C6.64 39.06 8.94 41.34 11.84 41.58ZM10.4 12.16C10.48 11.18 11.18 10.48 12.16 10.4C14.44 10.22 18.32 10 24 10C29.68 10 33.56 10.22 35.84 10.4C36.82 10.48 37.52 11.18 37.6 12.16C37.78 14.44 38 18.32 38 24C38 29.68 37.78 33.56 37.6 35.84C37.52 36.82 36.82 37.52 35.84 37.6C33.56 37.78 29.68 38 24 38C18.32 38 14.44 37.78 12.16 37.6C11.18 37.52 10.48 36.82 10.4 35.84C10.22 33.56 10 29.68 10 24C10 18.32 10.22 14.44 10.4 12.16Z" fill="#646464"/>
</svg>
