<svg width="48" height="48" viewBox="0 0 48 48" fill="none" xmlns="http://www.w3.org/2000/svg">
<path d="M14 26H26C27.1 26 28 25.1 28 24C28 22.9 27.1 22 26 22H14C12.9 22 12 22.9 12 24C12 25.1 12.9 26 14 26Z" fill="#646464"/>
<path fill-rule="evenodd" clip-rule="evenodd" d="M9.58 33.74C12.34 33.86 17.1 34 24 34C30.92 34 35.66 33.86 38.42 33.74C41.38 33.62 43.74 31.28 43.9 28.32C43.96 27.18 44 25.76 44 24C44 22.24 43.96 20.82 43.9 19.68C43.74 16.72 41.38 14.38 38.42 14.26C35.62 14.14 30.86 14 24 14C17.14 14 12.38 14.14 9.58 14.26C6.62 14.4 4.26 16.72 4.1 19.68C4.04 20.82 4 22.24 4 24C4 25.76 4.04 27.18 4.1 28.32C4.26 31.28 6.62 33.62 9.58 33.74ZM8.1 19.9C8.16 18.98 8.84 18.3 9.76 18.26C12.52 18.14 17.22 18 24 18C30.78 18 35.48 18.14 38.24 18.26C39.16 18.3 39.86 18.98 39.9 19.9C39.96 20.98 40 22.32 40 24C40 25.68 39.96 27.02 39.9 28.1C39.84 29.02 39.16 29.7 38.24 29.74C35.52 29.86 30.82 30 24 30C17.18 30 12.48 29.86 9.76 29.74C8.84 29.7 8.16 29.02 8.1 28.1C8.04 27.02 8 25.66 8 24C8 22.34 8.04 20.98 8.1 19.9Z" fill="#646464"/>
</svg>
