<svg width="48" height="48" viewBox="0 0 48 48" fill="none" xmlns="http://www.w3.org/2000/svg">
<path fill-rule="evenodd" clip-rule="evenodd" d="M24 44C35.0457 44 44 35.0457 44 24C44 12.9543 35.0457 4 24 4C12.9543 4 4 12.9543 4 24C4 35.0457 12.9543 44 24 44ZM34.4142 20.4142C35.1953 19.6332 35.1953 18.3668 34.4142 17.5858C33.6332 16.8047 32.3668 16.8047 31.5858 17.5858L21 28.1716L16.4142 23.5858C15.6332 22.8047 14.3668 22.8047 13.5858 23.5858C12.8047 24.3668 12.8047 25.6332 13.5858 26.4142L19.5858 32.4142C20.3668 33.1953 21.6332 33.1953 22.4142 32.4142L34.4142 20.4142Z" fill="#646464"/>
</svg>
