<svg width="48" height="48" viewBox="0 0 48 48" fill="none" xmlns="http://www.w3.org/2000/svg">
<mask id="mask0_3_18087" style="mask-type:alpha" maskUnits="userSpaceOnUse" x="8" y="3" width="33" height="43">
<path d="M8.30957 39.7505V8.25049C8.30957 5.351 10.6601 3.00049 13.5596 3.00049H27.1346C28.5273 3.00049 29.8629 3.55383 30.8475 4.53873L39.1088 12.8025C40.093 13.787 40.6459 15.1221 40.6459 16.5142V39.7505C40.6459 42.65 38.2954 45.0005 35.3959 45.0005H13.5596C10.6601 45.0005 8.30957 42.65 8.30957 39.7505Z" fill="#D9D9D9"/>
</mask>
<g mask="url(#mask0_3_18087)">
<path d="M13.5597 3.27954H27.1359C28.4537 3.27973 29.7177 3.80471 30.6495 4.73657L38.9132 13.0002C39.8451 13.9321 40.37 15.196 40.3702 16.5139V39.7502C40.3702 42.4951 38.1444 44.7209 35.3995 44.7209H13.5597C10.8148 44.7209 8.58899 42.4951 8.58899 39.7502V8.25024C8.58899 5.50539 10.8148 3.27954 13.5597 3.27954Z" fill="url(#paint0_linear_3_18087)" stroke="url(#paint1_linear_3_18087)" stroke-width="0.28"/>
<path fill-rule="evenodd" clip-rule="evenodd" d="M15.7297 31.9438L18.9599 29.4697C20.6752 31.7092 22.4968 32.7412 24.5266 32.7412C26.5452 32.7412 28.3167 31.7211 29.9551 29.4993L33.2298 31.9142C30.8675 35.1175 27.9284 36.8099 24.5266 36.8099C21.136 36.8099 18.1698 35.1294 15.7297 31.9438Z" fill="white"/>
<path fill-rule="evenodd" clip-rule="evenodd" d="M24.5162 21.1908L18.7671 26.1447L16.1111 23.0624L24.5276 15.81L32.8787 23.0681L30.2097 26.1391L24.5162 21.1908Z" fill="white"/>
<g filter="url(#filter0_d_3_18087)">
<path d="M27.2098 3H40.6499V16.4348C40.6499 16.4382 40.6499 16.44 40.6499 16.44V16.4348C40.6489 16.3195 40.5819 14.34 37.1499 14.34H33.5564C31.2108 14.34 29.3098 12.439 29.3098 10.0934V6.5C29.3098 3 27.2098 3 27.2098 3Z" fill="#A5B6FF"/>
</g>
</g>
<defs>
<filter id="filter0_d_3_18087" x="19.1874" y="-3.13484" width="29.485" height="29.485" filterUnits="userSpaceOnUse" color-interpolation-filters="sRGB">
<feFlood flood-opacity="0" result="BackgroundImageFix"/>
<feColorMatrix in="SourceAlpha" type="matrix" values="0 0 0 0 0 0 0 0 0 0 0 0 0 0 0 0 0 0 127 0" result="hardAlpha"/>
<feOffset dy="0.943821"/>
<feGaussianBlur stdDeviation="2.00562"/>
<feComposite in2="hardAlpha" operator="out"/>
<feColorMatrix type="matrix" values="0 0 0 0 0.0670153 0 0 0 0 0.0512073 0 0 0 0 0.29184 0 0 0 0.24 0"/>
<feBlend mode="normal" in2="BackgroundImageFix" result="effect1_dropShadow_3_18087"/>
<feBlend mode="normal" in="SourceGraphic" in2="effect1_dropShadow_3_18087" result="shape"/>
</filter>
<linearGradient id="paint0_linear_3_18087" x1="40.6849" y1="3.00013" x2="8.30986" y2="44.1252" gradientUnits="userSpaceOnUse">
<stop stop-color="#879DFF"/>
<stop offset="1" stop-color="#5F55EE"/>
</linearGradient>
<linearGradient id="paint1_linear_3_18087" x1="11.8097" y1="5.62503" x2="39.8097" y2="45.0001" gradientUnits="userSpaceOnUse">
<stop stop-color="white" stop-opacity="0.24"/>
<stop offset="1" stop-opacity="0.04"/>
</linearGradient>
</defs>
</svg>
