<svg width="48" height="48" viewBox="0 0 48 48" fill="none" xmlns="http://www.w3.org/2000/svg">
<path d="M32.7804 17.2855C32.3703 17.6955 32.3703 18.3603 32.7804 18.7704L37.2677 23.2577C37.6777 23.6678 37.6777 24.3326 37.2677 24.7427L32.7804 29.2301C32.3703 29.6401 32.3703 30.305 32.7804 30.715L35.0078 32.9424C35.4178 33.3525 36.0826 33.3525 36.4927 32.9424L44.6923 24.7427C45.1023 24.3326 45.1023 23.6678 44.6923 23.2577L36.4927 15.058C36.0826 14.648 35.4178 14.648 35.0078 15.058L32.7804 17.2855Z" fill="#3730A3"/>
<path d="M29.0681 34.4274C28.658 34.0172 27.9932 34.0172 27.5831 34.4274L24.7422 37.2682C24.3322 37.6783 23.6673 37.6783 23.2573 37.2682L10.732 24.7426C10.3219 24.3326 10.3219 23.6677 10.732 23.2577L23.2573 10.7322C23.6673 10.3221 24.3322 10.3221 24.7422 10.7322L27.5831 13.573C27.9932 13.9831 28.658 13.9831 29.0681 13.573L31.2954 11.3456C31.7055 10.9355 31.7055 10.2707 31.2954 9.86068L24.7422 3.30742C24.3322 2.89736 23.6673 2.89736 23.2573 3.30742L3.30735 23.2577C2.89731 23.6677 2.89731 24.3326 3.30735 24.7426L23.2573 44.693C23.6673 45.103 24.3322 45.103 24.7422 44.693L31.2954 38.1397C31.7055 37.7296 31.7055 37.0648 31.2954 36.6548L29.0681 34.4274Z" fill="#3730A3"/>
<path d="M29.25 24.0001C29.25 26.8996 26.8995 29.2501 24 29.2501C21.1005 29.2501 18.7499 26.8996 18.7499 24.0001C18.7499 21.1006 21.1005 18.7501 24 18.7501C26.8995 18.7501 29.25 21.1006 29.25 24.0001Z" fill="#3730A3"/>
</svg>
