<svg width="48" height="48" viewBox="0 0 48 48" fill="none" xmlns="http://www.w3.org/2000/svg">
<path d="M28 40C26.8954 40 26 40.8954 26 42C26 43.1046 26.8954 44 28 44H42C43.1046 44 44 43.1046 44 42C44 40.8954 43.1046 40 42 40H28Z" fill="#646464"/>
<path fill-rule="evenodd" clip-rule="evenodd" d="M34.82 4.94842C31.8921 3.08101 28.5581 4.1942 26.5302 6.22209L5.62249 27.1289C4.90692 27.8444 4.35734 28.8105 4.2251 29.9501C4.03778 31.5642 3.82094 34.9305 4.24423 40.4348C4.3806 42.2079 5.79181 43.6194 7.56525 43.7558C13.0699 44.1791 16.4365 43.9622 18.0505 43.7749C19.1898 43.6426 20.1559 43.0932 20.8715 42.3776L41.7791 21.471C43.8072 19.443 44.9206 16.1087 43.0528 13.1807C42.2239 11.8812 41.038 10.335 39.3521 8.64918C37.666 6.96314 36.1195 5.77724 34.82 4.94842ZM32.6691 8.32089C31.8049 7.7697 30.511 7.89814 29.3585 9.05059L28.3491 10.06C29.8197 11.0826 31.5801 12.5031 33.5354 14.4584C35.4935 16.4165 36.9161 18.1801 37.9402 19.653L38.9508 18.6425C40.1033 17.49 40.2317 16.196 39.6805 15.3319C39.0095 14.2799 38.0065 12.9604 36.5237 11.4777C35.0408 9.99485 33.7212 8.99188 32.6691 8.32089ZM35.0589 22.5342C34.1669 21.1676 32.7892 19.3691 30.707 17.2868C28.6272 15.2071 26.832 13.8316 25.4678 12.9411L8.45083 29.9574C8.27392 30.1343 8.21169 30.297 8.19843 30.4112C8.04708 31.7154 7.83593 34.7195 8.20728 39.7927C13.2809 40.1641 16.2851 39.9529 17.5894 39.8016C17.7037 39.7883 17.8663 39.726 18.0431 39.5492L35.0589 22.5342Z" fill="#646464"/>
</svg>
