<svg width="48" height="48" viewBox="0 0 48 48" fill="none" xmlns="http://www.w3.org/2000/svg">
<path d="M44.5594 11.1382C44.1145 10.9202 43.9229 11.3356 43.6628 11.5467C43.5737 11.6147 43.4985 11.7032 43.4232 11.7849C42.7729 12.4793 42.0132 12.9356 41.0208 12.881C39.5697 12.7993 38.3309 13.2556 37.2357 14.3654C37.003 12.9969 36.2296 12.1797 35.0523 11.6555C34.4364 11.3832 33.8135 11.1108 33.3822 10.5184C33.0811 10.0964 32.999 9.62655 32.8484 9.16353C32.7525 8.88441 32.6567 8.59835 32.335 8.55067C31.9859 8.49626 31.849 8.78891 31.7121 9.03417C31.1646 10.0351 30.9524 11.1381 30.9729 12.2547C31.0208 14.7672 32.0817 16.7689 34.1898 18.1919C34.4294 18.3554 34.4909 18.5187 34.4157 18.7571C34.2719 19.2473 34.1008 19.7239 33.9503 20.2141C33.8544 20.5274 33.7106 20.5955 33.3753 20.4592C32.2186 19.9759 31.2192 19.2609 30.3363 18.3963C28.8373 16.946 27.4821 15.3459 25.7916 14.0931C25.3946 13.8003 24.9976 13.528 24.5868 13.2692C22.862 11.5943 24.8127 10.2189 25.2645 10.0556C25.7367 9.88534 25.4287 9.29968 23.9024 9.30663C22.376 9.31336 20.9798 9.82406 19.2002 10.5049C18.9402 10.6071 18.6663 10.6819 18.3857 10.7432C16.7704 10.4368 15.0935 10.3686 13.3413 10.5662C10.0422 10.9338 7.40712 12.493 5.47012 15.1553C3.14304 18.3554 2.59549 21.9911 3.26627 25.7837C3.97127 29.7803 6.01087 33.0893 9.14571 35.6768C12.3969 38.3593 16.1409 39.6734 20.4118 39.4215C23.0059 39.2717 25.8943 38.9245 29.1523 36.167C29.9736 36.5756 30.8361 36.7388 32.2666 36.8614C33.3686 36.9636 34.4295 36.807 35.2508 36.6368C36.5376 36.3644 36.4486 35.1729 35.9832 34.955C32.2119 33.1984 33.04 33.9133 32.2872 33.3345C34.2036 31.0673 37.0921 28.7114 38.2214 21.0788C38.3103 20.4728 38.2351 20.0915 38.2214 19.6013C38.2145 19.3018 38.283 19.1861 38.6252 19.1519C39.5697 19.043 40.4869 18.7843 41.3288 18.3213C43.7723 16.9868 44.7578 14.7944 44.9906 12.1662C45.0249 11.7645 44.9838 11.3491 44.5594 11.1382ZM23.266 34.7915C19.611 31.9184 17.8384 30.9719 17.1059 31.0127C16.4215 31.0536 16.5447 31.8366 16.6952 32.3473C16.8527 32.8511 17.058 33.1984 17.3454 33.6409C17.5439 33.9337 17.6809 34.3694 17.147 34.6963C15.9697 35.4249 13.9232 34.4511 13.8273 34.4035C11.4455 33.0009 9.45375 31.1488 8.05054 28.6162C6.69532 26.1785 5.90826 23.564 5.77816 20.7724C5.74393 20.0984 5.94242 19.86 6.61319 19.7376C7.49612 19.5741 8.40648 19.54 9.28942 19.6693C13.0198 20.2141 16.1956 21.8822 18.8581 24.524C20.3775 26.0287 21.5274 27.8263 22.7116 29.5829C23.9709 31.4484 25.3261 33.2256 27.051 34.6826C27.6601 35.1933 28.1461 35.5814 28.6115 35.8674C27.2084 36.024 24.8676 36.0581 23.266 34.7915ZM25.0182 23.5232C25.0182 23.2236 25.2578 22.9853 25.559 22.9853C25.6275 22.9853 25.689 22.9988 25.7438 23.0192C25.8191 23.0465 25.8876 23.0874 25.9423 23.1485C26.0382 23.244 26.0929 23.3801 26.0929 23.5231C26.0929 23.8227 25.8534 24.0609 25.5523 24.0609C25.2512 24.0609 25.0182 23.8228 25.0182 23.5232ZM30.4596 26.3148C30.1106 26.4578 29.7615 26.5802 29.4261 26.5939C28.9059 26.6211 28.3378 26.41 28.0299 26.1513C27.5508 25.7495 27.2085 25.525 27.0648 24.8236C27.0032 24.524 27.0374 24.061 27.0922 23.7956C27.2154 23.2236 27.0785 22.856 26.6747 22.5222C26.3461 22.2498 25.9286 22.175 25.47 22.175C25.2989 22.175 25.1416 22.1001 25.0251 22.0388C24.8334 21.9435 24.6761 21.7052 24.8266 21.4124C24.8745 21.3172 25.1073 21.0856 25.1621 21.0448C25.785 20.6907 26.5037 20.8065 27.1676 21.072C27.7836 21.3239 28.2491 21.787 28.9198 22.4406C29.6042 23.2303 29.7274 23.4484 30.1175 24.0406C30.4256 24.5036 30.7062 24.9802 30.8979 25.525C31.0142 25.8654 30.8635 26.1445 30.4596 26.3148Z" fill="#4D6BFE"/>
</svg>
