<svg width="48" height="48" viewBox="0 0 48 48" fill="none" xmlns="http://www.w3.org/2000/svg">
<path fill-rule="evenodd" clip-rule="evenodd" d="M4.58579 4.58579C5.36683 3.80474 6.63317 3.80474 7.41421 4.58579L9.52131 6.69288C10.555 5.31621 12.1769 4.40819 14.0154 4.33365C20.8767 4.05545 27.1233 4.05545 33.9848 4.33365C37.0685 4.45868 39.5451 6.92726 39.6543 10.0239C39.9357 18.0054 39.948 28.649 39.6912 36.8628L43.4142 40.5858C44.1953 41.3668 44.1953 42.6332 43.4142 43.4142C42.6332 44.1953 41.3668 44.1953 40.5858 43.4142L4.58579 7.41421C3.80474 6.63317 3.80474 5.36683 4.58579 4.58579ZM35.789 32.9606C35.9377 25.5258 35.8936 16.881 35.6568 10.1649C35.6217 9.17097 34.8288 8.37116 33.8227 8.33037C27.0693 8.05654 20.9308 8.05655 14.1774 8.33037C13.3668 8.36323 12.6931 8.89082 12.4447 9.61623L35.789 32.9606ZM10.1582 18.0001C11.2627 18.0093 12.1507 18.9121 12.1415 20.0167C12.0858 26.6954 12.1713 33.7434 12.396 39.2167C13.3361 38.8782 14.4422 38.256 15.6646 37.3565C17.6332 35.908 19.4946 34.05 20.7877 32.6454C21.5358 31.8328 22.8011 31.7805 23.6137 32.5286C24.4263 33.2767 24.4786 34.542 23.7305 35.3546C22.3624 36.8406 20.302 38.9105 18.0352 40.5784C15.8788 42.165 13.072 43.742 10.319 43.4917C9.32886 43.4017 8.55516 42.598 8.50288 41.6051C8.1974 35.803 8.07789 27.6331 8.14161 19.9833C8.15081 18.8788 9.05367 17.9909 10.1582 18.0001Z" fill="#646464"/>
</svg>
