<svg width="48" height="48" viewBox="0 0 48 48" fill="none" xmlns="http://www.w3.org/2000/svg">
<path fill-rule="evenodd" clip-rule="evenodd" d="M39.252 23.2454L22.0364 40.461C21.2954 41.202 20.3644 41.677 19.3574 41.791C18.5214 41.886 17.0774 42 14.9874 42H14.9684C13.4484 42 11.6054 41.943 9.38241 41.772C7.69142 41.639 6.36142 40.309 6.22842 38.618C5.82942 33.317 6.03842 30.106 6.22842 28.662C6.34242 27.655 6.79842 26.743 7.55842 25.983L24.5844 8.92445C24.6309 8.86427 24.681 8.80607 24.7346 8.75006L27.3756 6.10906C28.7789 4.71734 30.5079 3.99815 32.1952 3.99902C33.2721 3.99959 34.3321 4.29348 35.2796 4.89306C35.3731 4.95338 35.4667 5.01474 35.5603 5.07713C36.9069 5.97382 38.2658 7.08364 39.5755 8.39124C39.5812 8.39684 39.5869 8.40245 39.5926 8.40806C39.6225 8.43794 39.6522 8.46789 39.6819 8.49791C41.0492 9.87633 42.2148 11.3078 43.1074 12.721C44.6654 15.153 44.1714 18.326 41.8914 20.606L41.8325 20.6649C41.8206 20.6769 41.8086 20.689 41.7966 20.701L39.2696 23.228C39.2638 23.2339 39.2579 23.2396 39.252 23.2454ZM35.4977 21.6192C34.6456 20.3132 33.3409 18.6103 31.3656 16.635C29.3891 14.6585 27.6853 13.3534 26.379 12.5014L10.2184 28.662C10.2184 28.662 10.0094 28.909 9.97141 29.099C9.81941 30.391 9.62941 33.222 9.97141 38.01H9.99041C14.7594 38.352 17.6284 38.162 18.9014 38.01C19.0646 37.9919 19.2104 37.87 19.3225 37.7763C19.3279 37.7718 19.3332 37.7674 19.3384 37.763L35.4977 21.6192ZM34.0446 13.937C32.1826 12.056 30.5106 10.7071 29.1236 9.75705L30.0736 8.80705C30.8526 8.02806 32.1256 7.40106 33.2276 8.10406C34.4436 8.88306 35.6786 9.89005 36.8946 11.1061C38.7186 12.93 39.5356 14.659 39.9156 15.78C40.2386 16.768 39.3646 17.737 39.0796 18.022L38.2246 18.877C37.2746 17.49 35.9066 15.818 34.0446 13.937Z" fill="#646464"/>
</svg>
