<svg width="48" height="48" viewBox="0 0 48 48" fill="none" xmlns="http://www.w3.org/2000/svg">
<path fill-rule="evenodd" clip-rule="evenodd" d="M17 18C13.72 18 10.2 17.88 8.54 17.76C6.24 17.6 4.44 15.94 4.16 13.74C4.06 12.86 4 11.94 4 11C4 10.06 4.06 9.14 4.16 8.26C4.44 6.06 6.24 4.4 8.54 4.24C10.2 4.12 13.72 4 17 4C20.28 4 23.8 4.12 25.46 4.24C27.76 4.4 29.56 6.06 29.84 8.26C29.8678 8.50435 29.8925 8.75178 29.9136 9.00186C29.9423 9.00063 29.9711 9 30 9H34C37.3 9 40 11.7 40 15V20C40 23.3 37.3 26 34 26H14C12.9 26 12 26.9 12 28V33C12 34.1 12.9 35 14 35H18C18.0284 35 18.0566 35.0006 18.0847 35.0018C18.1062 34.7449 18.1315 34.4908 18.16 34.24C18.44 32.02 20.24 30.36 22.54 30.22C24.2 30.1 27.72 29.98 31 29.98C34.28 29.98 37.8 30.1 39.46 30.22C41.76 30.38 43.56 32.04 43.84 34.26C43.94 35.14 44 36.06 44 37C44 37.94 43.94 38.86 43.84 39.74C43.58 41.96 41.76 43.62 39.46 43.76C37.8 43.88 34.26 44 31 44C27.74 44 24.2 43.88 22.54 43.76C20.24 43.6 18.44 41.94 18.16 39.72C18.1327 39.4848 18.1083 39.2436 18.0873 38.9981C18.0584 38.9994 18.0293 39 18 39H14C10.7 39 8 36.3 8 33V28C8 24.7 10.7 22 14 22H34C35.1 22 36 21.1 36 20V15C36 13.9 35.1 13 34 13H30C29.9708 13 29.9418 12.9994 29.9129 12.9981C29.8919 13.246 29.8674 13.493 29.84 13.74C29.58 15.96 27.76 17.62 25.46 17.76C23.8 17.88 20.28 18 17 18ZM17 8C13.82 8 10.4 8.12 8.82 8.22C8.54 8.24 8.18 8.38 8.14 8.74C8.06 9.46 8 10.22 8 10.98C8 11.74 8.04 12.52 8.14 13.22C8.18 13.58 8.54 13.72 8.82 13.74C10.4 13.84 13.82 13.96 17 13.96C20.18 13.96 23.6 13.84 25.18 13.74C25.46 13.72 25.82 13.58 25.86 13.22C25.94 12.5 26 11.74 26 10.98C26 10.22 25.96 9.46 25.86 8.74C25.82 8.38 25.46 8.24 25.18 8.22C23.6 8.12 20.18 8 17 8ZM22.82 34.22C24.42 34.12 27.82 34 31 34C34.16 34 37.58 34.1 39.18 34.22C39.46 34.24 39.82 34.38 39.86 34.74C39.96 35.46 40 36.22 40 36.98C40 37.74 39.94 38.5 39.86 39.22C39.82 39.58 39.48 39.74 39.18 39.74C37.58 39.84 34.18 39.96 31 39.96C27.82 39.96 24.42 39.86 22.82 39.74C22.54 39.72 22.18 39.58 22.14 39.22C22.04 38.52 22 37.74 22 36.98C22 36.22 22.06 35.46 22.14 34.74C22.18 34.38 22.52 34.22 22.82 34.22Z" fill="#646464"/>
</svg>
