<svg width="48" height="48" viewBox="0 0 48 48" fill="none" xmlns="http://www.w3.org/2000/svg">
<path opacity="0.3" d="M10.2188 38.4062L15.6562 20.3438L25.8125 19.25L40.6562 20L42.8438 21.3125L39.4688 36.2188L33.875 38.4062H10.2188Z" fill="#646464"/>
<path fill-rule="evenodd" clip-rule="evenodd" d="M23.5598 41.9708C17.1452 41.961 12.8771 41.7377 10.2123 41.517C7.08941 41.2585 4.73341 38.8366 4.47875 35.7517C4.24748 32.9503 4 29.5963 4 23.125C4 16.7524 4.23991 13.1293 4.46853 10.3154C4.72544 7.1535 7.16866 4.69421 10.3238 4.40755C12.1932 4.23771 14.7096 4.06894 17.7728 4.00167C20.1992 3.94839 22.4419 5.17141 23.7623 7.15192L24.9007 8.85961C25.0037 9.01408 25.1868 9.11721 25.3925 9.11854C29.3161 9.14387 30.5186 9.27933 31.8414 9.42833C32.3446 9.48502 32.8652 9.54366 33.5596 9.59895C36.7495 9.85291 39.2835 12.3057 39.5922 15.5137C39.6224 15.827 39.6513 16.1035 39.6798 16.367C40.1568 16.4151 40.5937 16.4733 40.9956 16.5437C43.8363 17.0418 46.5421 19.5401 45.9116 23.1374C45.7026 24.3302 44.9704 27.453 44.3138 30.1895C43.9809 31.5772 43.6603 32.8945 43.4231 33.8645C43.3044 34.3497 43.2065 34.7482 43.1383 35.0256L43.0282 35.4721C42.4931 37.5794 41.4616 39.1575 39.8052 40.1907C38.2566 41.1566 36.3687 41.5083 34.4175 41.683C30.8611 42.0013 27.1767 42.005 23.9301 42.005C23.8036 42.005 23.6798 41.9933 23.5598 41.9708ZM17.8606 8.00071C18.8724 7.97849 19.8468 8.48976 20.4341 9.37072L21.5725 11.0784C22.4234 12.3547 23.8529 13.1087 25.3667 13.1185C29.0737 13.1424 30.077 13.2558 31.3457 13.3991C31.8653 13.4579 32.4295 13.5216 33.2422 13.5863C34.5211 13.6882 35.4899 14.6425 35.6106 15.8969C35.6195 15.9894 35.6285 16.0804 35.6375 16.1698C34.2781 16.1456 32.7163 16.1415 30.9121 16.1415C29.8485 16.1415 28.6314 16.1112 27.3312 16.078L27.2276 16.0754C25.9684 16.0433 24.6405 16.0094 23.3557 16.0016C20.8201 15.9864 18.105 16.0618 16.3466 16.6019C12.5442 17.7697 11.463 20.9992 10.416 24.1935C10.398 24.2487 10.3823 24.3046 10.3691 24.3611L8.2964 33.225C8.13472 30.8736 8 27.8652 8 23.125C8 16.8737 8.23439 13.3595 8.45539 10.6393C8.5544 9.42072 9.46389 8.50215 10.6857 8.39115C12.4711 8.22894 14.8959 8.06582 17.8606 8.00071ZM11.3822 37.5959C14.0292 37.7889 18.093 37.9711 24 37.9711C27.3554 37.9711 30.7106 37.9988 34.0609 37.6989C35.8656 37.5374 36.968 37.246 37.6883 36.7968C38.2999 36.4153 38.8151 35.8071 39.1498 34.4934C39.2795 33.9671 39.4088 33.4407 39.5376 32.9142C39.774 31.9478 40.0931 30.6366 40.4242 29.2563C41.0959 26.4569 41.7896 23.4858 41.9717 22.447C42.0626 21.928 41.9266 21.5352 41.6697 21.2238C41.3881 20.8824 40.9109 20.5899 40.3048 20.4836C38.6054 20.1857 35.921 20.0016 30.9121 20.0016C28.3847 20.0016 25.8589 20.0168 23.3316 20.0016C20.6795 19.9856 18.5931 20.0963 17.5209 20.4256C15.9631 20.904 15.3672 21.9425 14.2441 25.3571L11.3822 37.5959Z" fill="#646464"/>
</svg>
