<svg width="48" height="48" viewBox="0 0 48 48" fill="none" xmlns="http://www.w3.org/2000/svg">
<path fill-rule="evenodd" clip-rule="evenodd" d="M46.5 6C46.5 5.17157 47.1716 4.5 48 4.5H56C56.8284 4.5 57.5 5.17157 57.5 6C57.5 6.82843 56.8284 7.5 56 7.5H48C47.1716 7.5 46.5 6.82843 46.5 6ZM46.5 18C46.5 17.1716 47.1716 16.5 48 16.5H56C56.8284 16.5 57.5 17.1716 57.5 18C57.5 18.8284 56.8284 19.5 56 19.5H48C47.1716 19.5 46.5 18.8284 46.5 18ZM46.5 30C46.5 29.1716 47.1716 28.5 48 28.5H56C56.8284 28.5 57.5 29.1716 57.5 30C57.5 30.8284 56.8284 31.5 56 31.5H48C47.1716 31.5 46.5 30.8284 46.5 30ZM-9.5 42C-9.5 41.1716 -8.82843 40.5 -8 40.5H56C56.8284 40.5 57.5 41.1716 57.5 42C57.5 42.8284 56.8284 43.5 56 43.5H-8C-8.82843 43.5 -9.5 42.8284 -9.5 42Z" fill="#646464"/>
<path d="M27.1055 32.334C23.2461 32.334 20.4443 29.959 20.4443 26.2666V26.2295C20.4443 22.6113 23.209 20.4961 28.1445 20.1992L33.3584 19.8838V18.1396C33.3584 16.1172 32.041 15.0039 29.5547 15.0039C27.4395 15.0039 26.0664 15.7646 25.6025 17.1006L25.584 17.1748H21.2236L21.2422 17.0078C21.6875 13.5938 24.9531 11.3301 29.7773 11.3301C34.9912 11.3301 37.9229 13.8535 37.9229 18.1396V32H33.3584V29.2168H33.043C31.9297 31.1836 29.7773 32.334 27.1055 32.334ZM25.0088 26.0439C25.0088 27.7695 26.4746 28.79 28.5156 28.79C31.2988 28.79 33.3584 26.9717 33.3584 24.5596V22.9268L28.7939 23.2236C26.2148 23.3906 25.0088 24.3369 25.0088 26.0068V26.0439Z" fill="#646464"/>
<path d="M-6.68262 32L2.81738 5.22559H8.2168L17.7168 32H12.707L10.4619 25.0791H0.553711L-1.67285 32H-6.68262ZM5.35938 10.1982L1.75977 21.3867H9.27441L5.6748 10.1982H5.35938Z" fill="#646464"/>
</svg>
