<svg width="48" height="48" viewBox="0 0 48 48" fill="none" xmlns="http://www.w3.org/2000/svg">
<path d="M31.0199 24.2C31.4599 23.52 31.5799 22.64 31.0799 22C30.5999 21.38 30.0199 20.94 29.4999 20.62C28.6199 20.08 27.5399 20.5 26.9599 21.36C24.0399 25.72 22.5199 27.98 22.5199 27.98C22.5199 27.98 21.4999 26.88 20.1999 25.4C19.4199 24.5 18.0799 24.28 17.1999 25.08C16.8599 25.38 16.5399 25.72 16.2199 26.1C15.6199 26.82 15.7399 27.86 16.3399 28.58C18.0199 30.66 19.5199 32.26 20.6599 33.4C21.8599 34.6 23.7399 34.48 24.7799 33.12C26.0999 31.4 28.1399 28.58 31.0199 24.2Z" fill="#646464"/>
<path fill-rule="evenodd" clip-rule="evenodd" d="M28.9001 4.14001C30.2229 4.21915 31.354 4.87995 32.0621 5.86223C33.1645 5.92258 34.1238 5.98576 34.94 6.05996C38 6.29996 40.38 8.69996 40.64 11.74C40.84 14.24 41.08 18.52 41.08 24.82C41.08 31.12 40.84 35.4 40.64 37.9C40.4 40.94 38 43.34 34.94 43.58C32.64 43.76 28.78 44 23.54 44C18.3 44 14.44 43.78 12.14 43.58C9.08 43.34 6.7 40.94 6.44 37.9C6.24 35.42 6 31.14 6 24.82C6 18.5 6.24 14.22 6.44 11.74C6.68 8.69996 9.08 6.29996 12.14 6.05996L12.2299 6.05342C13.0259 5.99551 13.9545 5.92795 15.0158 5.86532C15.7237 4.88133 16.8558 4.21923 18.1801 4.14001C21.3801 3.96 25.7001 3.96 28.9001 4.14001ZM23.5401 14.54C21.5001 14.54 19.6601 14.48 18.1401 14.34C17.6518 14.2956 17.1891 14.1673 16.7661 13.9692C16.5457 13.866 16.3362 13.7439 16.1393 13.6049C15.1813 12.9281 14.525 11.85 14.4 10.6L14.3996 10.5952C14.3772 10.3788 14.3549 10.1458 14.3336 9.90033C13.6362 9.94021 13.0183 9.98014 12.46 10.04C11.34 10.14 10.52 10.94 10.42 12.06C10.22 14.46 10 18.64 10 24.82C10 31 10.24 35.18 10.42 37.58C10.52 38.7 11.32 39.52 12.46 39.6C14.7 39.78 18.44 40 23.54 40C28.64 40 32.38 39.78 34.62 39.6C35.74 39.52 36.56 38.7 36.66 37.58C36.86 35.16 37.08 30.98 37.08 24.82C37.08 18.66 36.84 14.48 36.66 12.06C36.58 10.94 35.76 10.14 34.62 10.04C34.4166 10.0254 34.2053 10.0083 33.9851 9.99037C33.601 9.95917 33.1897 9.92576 32.7466 9.90034L32.7379 9.99937C32.7324 10.1324 32.7171 10.2646 32.7023 10.3925L32.6921 10.4816L32.6801 10.6C32.4801 12.6 30.9201 14.16 28.9401 14.34C27.4001 14.48 25.5801 14.54 23.5401 14.54ZM28.6001 10.36C28.7588 9.7052 28.7994 9.07009 28.8391 8.37653C28.8275 8.33103 28.8175 8.28521 28.8093 8.23917C28.7755 8.17974 28.7157 8.14001 28.6401 8.14001C27.1201 8.04 25.4001 8 23.5401 8C21.6601 8 19.9601 8.04 18.4401 8.14001C18.3001 8.14001 18.2401 8.24 18.2401 8.36C18.2666 8.81045 18.3018 9.24335 18.3343 9.64126C18.3508 9.84397 18.3666 10.0378 18.3801 10.22C19.4601 10.44 21.1401 10.54 23.5401 10.54C25.9401 10.54 27.6201 10.44 28.6001 10.36Z" fill="#646464"/>
</svg>
