<svg width="48" height="48" viewBox="0 0 48 48" fill="none" xmlns="http://www.w3.org/2000/svg">
<path d="M43.15 24.45C43.15 23.1334 43.0333 21.8834 42.8333 20.6667H24V28.1834H34.7833C34.3 30.65 32.8833 32.7334 30.7833 34.15V39.15H37.2167C40.9833 35.6667 43.15 30.5334 43.15 24.45Z" fill="#4285F4"/>
<path d="M24 44C29.4 44 33.9167 42.2 37.2167 39.15L30.7834 34.15C28.9834 35.35 26.7 36.0833 24 36.0833C18.7834 36.0833 14.3667 32.5666 12.7834 27.8167H6.15002V32.9667C9.43336 39.5 16.1834 44 24 44Z" fill="#34A853"/>
<path d="M12.7833 27.8167C12.3667 26.6167 12.15 25.3333 12.15 24C12.15 22.6667 12.3833 21.3833 12.7833 20.1833V15.0333H6.15C4.78333 17.7333 4 20.7667 4 24C4 27.2333 4.78333 30.2667 6.15 32.9667L12.7833 27.8167Z" fill="#FBBC05"/>
<path d="M24 11.9167C26.95 11.9167 29.5834 12.9333 31.6667 14.9167L37.3667 9.21667C33.9167 5.98334 29.4 4 24 4C16.1834 4 9.43336 8.5 6.15002 15.0333L12.7834 20.1833C14.3667 15.4333 18.7834 11.9167 24 11.9167Z" fill="#EA4335"/>
</svg>
