<svg width="48" height="48" viewBox="0 0 48 48" fill="none" xmlns="http://www.w3.org/2000/svg">
<path d="M33.4736 14.5263H14.5262V33.4737H33.4736V14.5263Z" fill="white"/>
<path d="M33.4738 42.0001L42.0001 33.4737L33.4736 33.4737L33.4738 42.0001Z" fill="#EA4335"/>
<path d="M42.0001 14.5263H33.4736V33.4737L42.0001 33.4737V14.5263Z" fill="#FBBC04"/>
<path d="M33.4736 33.4737H14.5262V42.0001H33.4738L33.4736 33.4737Z" fill="#34A853"/>
<path d="M6 33.4737V39.1579C6 40.7282 7.27184 42.0001 8.84211 42.0001H14.5262V33.4737L6 33.4737Z" fill="#188038"/>
<path d="M42.0001 14.5263V8.84211C42.0001 7.27184 40.7282 6 39.158 6H33.4738L33.4736 14.5263H42.0001Z" fill="#1967D2"/>
<path d="M33.4738 6H8.84211C7.27184 6 6 7.27184 6 8.84211V33.4737L14.5262 33.4737V14.5263H33.4736L33.4738 6Z" fill="#4285F4"/>
<path d="M18.413 29.2248C17.7048 28.7464 17.2145 28.0477 16.9469 27.124L18.5906 26.4466C18.7398 27.015 19.0003 27.4556 19.3722 27.7682C19.7416 28.0808 20.1916 28.2348 20.7174 28.2348C21.2551 28.2348 21.7169 28.0714 22.103 27.7445C22.489 27.4177 22.6832 27.0008 22.6832 26.4964C22.6832 25.98 22.4795 25.5585 22.0722 25.2316C21.6648 24.9048 21.1532 24.7414 20.5422 24.7414H19.5924V23.1142H20.4451C20.9708 23.1142 21.4137 22.9721 21.7737 22.6879C22.1337 22.4037 22.3137 22.0153 22.3137 21.5203C22.3137 21.0798 22.1527 20.7292 21.8306 20.4663C21.5085 20.2035 21.1011 20.0708 20.6061 20.0708C20.123 20.0708 19.7393 20.1987 19.4551 20.4569C19.171 20.7157 18.9575 21.0425 18.8345 21.4066L17.2074 20.7292C17.423 20.1182 17.8185 19.5782 18.3987 19.1116C18.979 18.645 19.7203 18.4106 20.6203 18.4106C21.2858 18.4106 21.8851 18.5384 22.4156 18.7966C22.9461 19.0548 23.363 19.4124 23.6637 19.8671C23.9645 20.3242 24.1137 20.8358 24.1137 21.4042C24.1137 21.9845 23.974 22.4748 23.6945 22.8774C23.4151 23.28 23.0716 23.5879 22.6643 23.8035V23.9006C23.1903 24.1174 23.6472 24.4736 23.9858 24.9308C24.3293 25.3927 24.5022 25.9445 24.5022 26.5887C24.5022 27.2329 24.3387 27.8085 24.0119 28.3129C23.6851 28.8174 23.2327 29.2153 22.6595 29.5043C22.084 29.7932 21.4374 29.94 20.7198 29.94C19.8885 29.9424 19.1211 29.7032 18.413 29.2248ZM28.5095 21.0679L26.7048 22.3729L25.8024 21.004L29.0401 18.6687H30.2811V29.6843H28.5095V21.0679Z" fill="#4285F4"/>
</svg>
