<svg width="48" height="48" viewBox="0 0 48 48" fill="none" xmlns="http://www.w3.org/2000/svg">
<path d="M8 6C8 4.89543 7.10457 4 6 4C4.89543 4 4 4.89543 4 6V38C4 39.1046 4.89543 40 6 40C7.10457 40 8 39.1046 8 38V24H22V38C22 39.1046 22.8954 40 24 40C25.1046 40 26 39.1046 26 38V6C26 4.89543 25.1046 4 24 4C22.8954 4 22 4.89543 22 6V20H8V6Z" fill="#646464"/>
<path d="M37.3144 24C34.7443 24 32.7802 25.851 32.09 28.0735C31.7624 29.1284 32.352 30.2491 33.4069 30.5767C34.4618 30.9043 35.5825 30.3147 35.9101 29.2598C36.1848 28.3752 36.8241 28 37.3144 28H38.577C39.1275 28 40 28.5979 40 29.8962C40 30.7912 39.5345 31.4379 39.0574 31.6755C38.9785 31.7148 38.9024 31.7593 38.8293 31.8086L35.0365 34.3712C34.0313 34.9696 33.2251 35.7186 32.6943 36.6959C32.1581 37.6832 32.0001 38.7256 32.0001 39.7272V42C32.0001 43.1046 32.8955 44 34.0001 44H42C43.1046 44 44 43.1046 44 42C44 40.8954 43.1046 40 42 40H36.0001V39.7272C36.0001 39.1396 36.0934 38.8184 36.2093 38.605C36.3203 38.4008 36.5456 38.1222 37.1155 37.7889C37.1529 37.767 37.1895 37.7439 37.2254 37.7197L40.9719 35.1884C42.905 34.1581 44 32.0489 44 29.8962C44 26.8909 41.8074 24 38.577 24H37.3144Z" fill="#646464"/>
</svg>
