<svg width="48" height="48" viewBox="0 0 48 48" fill="none" xmlns="http://www.w3.org/2000/svg">
<path d="M24 4C12.98 4 4 12.92 4 23.86V37.62C4 40.06 5.62 42.18 7.96 42.76C9.7 43.2 12.32 43.76 14.86 43.98C15 43.98 15.14 43.98 15.28 43.98C17.38 43.98 19.12 42.6 19.52 40.56C19.84 38.9 20 36.8 20 34.34C20 31.88 19.84 29.78 19.52 28.12C19.1 25.94 17.14 24.52 14.86 24.72C12.34 24.94 9.76 25.5 8 25.94V23.88C8 15.12 15.18 8.02 24 8.02C32.82 8.02 40 15.14 40 23.88V25.94C38.24 25.5 35.66 24.96 33.14 24.72C30.88 24.52 28.9 25.96 28.48 28.12C28.16 29.78 28 31.88 28 34.34C28 36.8 28.16 38.9 28.48 40.56C28.88 42.6 30.62 43.98 32.72 43.98C32.86 43.98 33 43.98 33.14 43.98C35.68 43.76 38.3 43.2 40.04 42.76C42.36 42.18 44 40.08 44 37.62V23.86C44 12.92 35.02 4 24 4ZM8.92 29.82C10.54 29.42 12.94 28.9 15.22 28.7C15.24 28.7 15.28 28.7 15.3 28.7C15.44 28.7 15.58 28.74 15.6 28.88C15.78 29.84 16 31.58 16 34.34C16 37.1 15.78 38.84 15.6 39.8C15.56 39.98 15.38 39.98 15.22 39.98C12.94 39.78 10.54 39.26 8.92 38.86C8.38 38.72 8 38.22 8 37.6V31.06C8 30.46 8.38 29.94 8.92 29.8V29.82ZM40 37.62C40 38.22 39.62 38.74 39.08 38.88C37.48 39.28 35.08 39.8 32.78 40C32.62 40 32.44 40 32.4 39.82C32.22 38.86 31.98 37.12 31.98 34.36C31.98 31.6 32.2 29.86 32.4 28.9C32.42 28.76 32.56 28.72 32.7 28.72C32.72 28.72 32.76 28.72 32.78 28.72C35.06 28.92 37.46 29.44 39.08 29.84C39.62 29.98 40 30.5 40 31.1V37.64V37.62Z" fill="#646464"/>
</svg>
