<svg width="48" height="48" viewBox="0 0 48 48" fill="none" xmlns="http://www.w3.org/2000/svg">
<path fill-rule="evenodd" clip-rule="evenodd" d="M24 4C35.0457 4 44 12.9543 44 24C44 35.0457 35.0457 44 24 44C12.9543 44 4 35.0457 4 24C4 12.9543 12.9543 4 24 4ZM25.4141 12.5859C24.6818 11.8537 23.5238 11.8085 22.7383 12.4492L22.5859 12.5859L14.5859 20.5859C13.8049 21.367 13.8049 22.633 14.5859 23.4141C15.367 24.1951 16.633 24.1951 17.4141 23.4141L22 18.8281V34C22 35.1046 22.8954 36 24 36C25.1046 36 26 35.1046 26 34V18.8281L30.5859 23.4141L30.7383 23.5508C31.5238 24.1915 32.6818 24.1463 33.4141 23.4141C34.1463 22.6818 34.1915 21.5238 33.5508 20.7383L33.4141 20.5859L25.4141 12.5859Z" fill="#646464"/>
</svg>
