<svg width="48" height="48" viewBox="0 0 48 48" fill="none" xmlns="http://www.w3.org/2000/svg">
<path d="M37.2 25.7927C37.1966 26.1087 37.0687 26.4106 36.844 26.6329C36.6193 26.8551 36.3161 26.9798 36 26.9798C35.684 26.9798 35.3807 26.8551 35.156 26.6329C34.9314 26.4106 34.8034 26.1087 34.8 25.7927V15C34.8034 14.684 34.9314 14.3821 35.156 14.1598C35.3807 13.9376 35.684 13.8129 36 13.8129C36.3161 13.8129 36.6193 13.9376 36.844 14.1598C37.0687 14.3821 37.1966 14.684 37.2 15V25.7927ZM36.7813 33.3039C36.5958 33.4627 32.1505 37.1929 24 37.1929C15.8497 37.1929 11.4045 33.4625 11.219 33.3038C10.9774 33.0966 10.828 32.8019 10.8036 32.4846C10.7792 32.1673 10.8818 31.8533 11.0889 31.6116C11.2956 31.3703 11.5895 31.2209 11.9062 31.1961C12.2229 31.1712 12.5365 31.273 12.7783 31.4791C12.8487 31.5382 16.8183 34.7927 24.0001 34.7927C31.2721 34.7927 35.1803 31.5147 35.2189 31.4817C35.7211 31.0504 36.48 31.1083 36.9111 31.6118C37.1182 31.8534 37.2209 32.1674 37.1966 32.4847C37.1723 32.802 37.0229 33.0967 36.7813 33.3039ZM10.8 15C10.8034 14.684 10.9313 14.3821 11.156 14.1598C11.3807 13.9376 11.6839 13.8129 12 13.8129C12.316 13.8129 12.6193 13.9376 12.844 14.1598C13.0686 14.3821 13.1966 14.684 13.2 15V25.7927C13.1966 26.1087 13.0686 26.4106 12.844 26.6329C12.6193 26.8551 12.316 26.9798 12 26.9798C11.6839 26.9798 11.3807 26.8551 11.156 26.6329C10.9313 26.4106 10.8034 26.1087 10.8 25.7927V15ZM16.8001 12.6C16.805 12.2849 16.9335 11.9844 17.158 11.7633C17.3825 11.5422 17.685 11.4182 18.0001 11.4182C18.3152 11.4182 18.6177 11.5422 18.8422 11.7633C19.0667 11.9844 19.1952 12.2849 19.2 12.6V28.6313C19.1952 28.9464 19.0667 29.2469 18.8422 29.468C18.6177 29.6891 18.3152 29.8131 18.0001 29.8131C17.685 29.8131 17.3825 29.6891 17.158 29.468C16.9335 29.2469 16.805 28.9464 16.8001 28.6313V12.6ZM22.8 11.9927C22.8 11.8351 22.8311 11.6791 22.8913 11.5335C22.9516 11.3879 23.04 11.2556 23.1515 11.1442C23.2629 11.0328 23.3952 10.9444 23.5408 10.8841C23.6864 10.8238 23.8424 10.7928 24 10.7928C24.1576 10.7927 24.3137 10.8238 24.4593 10.884C24.6049 10.9443 24.7372 11.0327 24.8486 11.1441C24.9601 11.2556 25.0485 11.3879 25.1088 11.5335C25.1691 11.6791 25.2001 11.8351 25.2001 11.9927V29.3927C25.1967 29.7087 25.0687 30.0106 24.8441 30.2329C24.6194 30.4551 24.3161 30.5798 24.0001 30.5798C23.684 30.5798 23.3808 30.4551 23.1561 30.2329C22.9314 30.0106 22.8035 29.7087 22.8 29.3927V11.9927ZM28.8001 12.6C28.8049 12.2849 28.9335 11.9844 29.158 11.7633C29.3825 11.5422 29.6849 11.4182 30 11.4182C30.3152 11.4182 30.6176 11.5422 30.8421 11.7633C31.0666 11.9844 31.1952 12.2849 31.2 12.6V28.6313C31.1952 28.9464 31.0666 29.2469 30.8421 29.468C30.6176 29.6891 30.3152 29.8131 30 29.8131C29.6849 29.8131 29.3825 29.6891 29.158 29.468C28.9335 29.2469 28.8049 28.9464 28.8001 28.6313V12.6ZM37.5 6H10.5C8.01473 6 6 8.01473 6 10.5V37.5C6 39.9851 8.01473 42 10.5 42H37.5C39.9853 42 42 39.9851 42 37.5V10.5C42 8.01473 39.9853 6 37.5 6Z" fill="#1F8DED"/>
</svg>
