<svg width="48" height="48" viewBox="0 0 48 48" fill="none" xmlns="http://www.w3.org/2000/svg">
<path d="M38.737 6H9.26397C7.46158 6 6.00049 7.46109 6.00049 9.26348V38.7365C6.00049 40.5389 7.46158 42 9.26397 42H38.737C40.5394 42 42.0005 40.5389 42.0005 38.7365V9.26348C42.0005 7.46109 40.5394 6 38.737 6Z" fill="#DC395F"/>
<path d="M18.0318 17.3267C19.2285 17.3267 20.231 16.3887 20.231 15.1593C20.231 13.9308 19.2285 12.993 18.0318 12.993C16.8351 12.993 15.8328 13.9308 15.8328 15.1593C15.8328 16.3885 16.8351 17.3267 18.0318 17.3267ZM13.4719 28.931C13.3427 29.4809 13.2778 30.0746 13.2778 30.5589C13.2778 32.4673 14.3127 33.7342 16.5119 33.7342C18.3358 33.7342 19.8145 32.6511 20.8792 30.9022L20.2291 33.5112H23.8509L25.9209 25.2088C26.4384 23.1068 27.4409 22.0157 28.961 22.0157C30.1576 22.0157 30.9014 22.7598 30.9014 23.9883C30.9014 24.3443 30.869 24.732 30.7397 25.1526L29.6723 28.9687C29.5106 29.5186 29.4462 30.0687 29.4462 30.5858C29.4462 32.3974 30.5131 33.7225 32.7447 33.7225C34.6528 33.7225 36.1727 32.4942 37.0136 29.551L35.5908 29.0018C34.8792 30.9735 34.2647 31.3299 33.7795 31.3299C33.2944 31.3299 33.0356 31.0068 33.0356 30.3603C33.0356 30.0692 33.1006 29.7462 33.1974 29.3573L34.2325 25.6394C34.4911 24.7664 34.5883 23.9923 34.5883 23.281C34.5883 20.4997 32.9064 19.0482 30.869 19.0482C28.961 19.0482 27.0204 20.7693 26.0504 22.5807L26.7617 19.3294H21.2317L20.4555 22.1931H23.0428L21.4495 28.5719C20.1984 31.3532 17.9002 31.3983 17.6118 31.3337C17.1381 31.2269 16.8352 31.047 16.8352 30.4316C16.8352 30.0766 16.8999 29.5665 17.0616 28.9516L19.4874 19.3294H13.3427L12.5664 22.1931H15.1211L13.4719 28.931Z" fill="white"/>
</svg>
