<svg width="48" height="48" viewBox="0 0 48 48" fill="none" xmlns="http://www.w3.org/2000/svg">
<path d="M37.2813 8.38885H44.9418C45.5251 8.38885 46 8.86368 46 9.44703V37.7261C46 38.3094 45.5251 38.7842 44.9418 38.7842H37.2813C36.698 38.7842 36.2231 38.3094 36.2231 37.7261V9.44703C36.2231 8.86368 36.698 8.38885 37.2813 8.38885Z" fill="black"/>
<path fill-rule="evenodd" clip-rule="evenodd" d="M37.2813 8.38885H44.9418C45.5251 8.38885 46 8.86368 46 9.44703V37.7261C46 38.3094 45.5251 38.7842 44.9418 38.7842H37.2813C36.698 38.7842 36.2231 38.3094 36.2231 37.7261V9.44703C36.2231 8.86368 36.698 8.38885 37.2813 8.38885Z" fill="url(#paint0_linear_3_18232)"/>
<path d="M14.811 8.76194L2.11288 34.0293C1.8506 34.5516 2.06087 35.1869 2.58318 35.4492L9.4274 38.8883C9.9497 39.1505 10.5851 38.9403 10.8473 38.418L23.5454 13.1507C23.8077 12.6283 23.5974 11.993 23.0751 11.7307L16.2309 8.29164C16.0772 8.21477 15.9166 8.17859 15.7561 8.17859C15.3695 8.17859 14.9964 8.39113 14.811 8.76194Z" fill="black"/>
<path fill-rule="evenodd" clip-rule="evenodd" d="M14.811 8.76194L2.11288 34.0293C1.8506 34.5516 2.06087 35.1869 2.58318 35.4492L9.4274 38.8883C9.9497 39.1505 10.5851 38.9403 10.8473 38.418L23.5454 13.1507C23.8077 12.6283 23.5974 11.993 23.0751 11.7307L16.2309 8.29164C16.0772 8.21477 15.9166 8.17859 15.7561 8.17859C15.3695 8.17859 14.9964 8.39113 14.811 8.76194Z" fill="url(#paint1_linear_3_18232)"/>
<path d="M25.4924 8.85242L20.0591 36.3944C19.9461 36.9664 20.3169 37.5204 20.8889 37.6357L28.3979 39.1506C28.9722 39.2659 29.5329 38.8928 29.646 38.3185L35.0793 10.7766C35.1924 10.2045 34.8215 9.65057 34.2495 9.53526L26.7405 8.02035C26.6704 8.00678 26.6003 8 26.5302 8C26.0351 8 25.5919 8.3482 25.4924 8.85242Z" fill="black"/>
<path fill-rule="evenodd" clip-rule="evenodd" d="M25.4924 8.85242L20.0591 36.3944C19.9461 36.9664 20.3169 37.5204 20.8889 37.6357L28.3979 39.1506C28.9722 39.2659 29.5329 38.8928 29.646 38.3185L35.0793 10.7766C35.1924 10.2045 34.8215 9.65057 34.2495 9.53526L26.7405 8.02035C26.6704 8.00678 26.6003 8 26.5302 8C26.0351 8 25.5919 8.3482 25.4924 8.85242Z" fill="url(#paint2_linear_3_18232)"/>
<defs>
<linearGradient id="paint0_linear_3_18232" x1="26.5344" y1="28.4812" x2="47.2079" y2="20.8585" gradientUnits="userSpaceOnUse">
<stop stop-color="#B02DE9"/>
<stop offset="0.02" stop-color="#B02DE9"/>
<stop offset="0.8" stop-color="#6D00CC"/>
<stop offset="1" stop-color="#6D00CC"/>
</linearGradient>
<linearGradient id="paint1_linear_3_18232" x1="8.54403" y1="25.2245" x2="30.7675" y2="15.6167" gradientUnits="userSpaceOnUse">
<stop stop-color="#FF00FF"/>
<stop offset="0.17" stop-color="#E90CF9"/>
<stop offset="0.54" stop-color="#C023ED"/>
<stop offset="0.73" stop-color="#B02DE9"/>
<stop offset="1" stop-color="#B02DE9"/>
</linearGradient>
<linearGradient id="paint2_linear_3_18232" x1="3.58693" y1="32.695" x2="49.143" y2="15.9246" gradientUnits="userSpaceOnUse">
<stop stop-color="#FF00FF"/>
<stop offset="0.02" stop-color="#FF00FF"/>
<stop offset="0.09" stop-color="#E90CF9"/>
<stop offset="0.23" stop-color="#C023ED"/>
<stop offset="0.3" stop-color="#B02DE9"/>
<stop offset="0.42" stop-color="#A42BE3"/>
<stop offset="0.63" stop-color="#8626D5"/>
<stop offset="0.85" stop-color="#6021C3"/>
<stop offset="1" stop-color="#6021C3"/>
</linearGradient>
</defs>
</svg>
