<svg width="48" height="48" viewBox="0 0 48 48" fill="none" xmlns="http://www.w3.org/2000/svg">
<path d="M11.4305 11.013C12.6747 12.0237 13.1414 11.9466 15.4776 11.7907L37.5025 10.4682C37.9694 10.4682 37.581 10.0022 37.4254 9.92476L33.7674 7.28044C33.0666 6.73632 32.1327 6.11315 30.3432 6.26904L9.01653 7.82453C8.23878 7.90165 8.08341 8.29051 8.39318 8.60225L11.4305 11.013ZM12.7529 16.1458V39.3197C12.7529 40.5651 13.3752 41.0312 14.7761 40.9541L38.9813 39.5535C40.3827 39.4765 40.5389 38.6196 40.5389 37.6081V14.5896C40.5389 13.5795 40.1504 13.0348 39.2924 13.1125L13.9977 14.5896C13.0642 14.6681 12.7529 15.135 12.7529 16.1458ZM36.6482 17.3889C36.8035 18.0895 36.6482 18.7895 35.9463 18.8682L34.7801 19.1006V36.2089C33.7674 36.7532 32.8337 37.0643 32.0556 37.0643C30.8099 37.0643 30.4979 36.6753 29.5648 35.5094L21.9361 23.5334V35.1206L24.3501 35.6652C24.3501 35.6652 24.3501 37.0643 22.4025 37.0643L17.0334 37.3758C16.8775 37.0644 17.0334 36.2875 17.578 36.1316L18.9791 35.7435V20.4231L17.0338 20.2672C16.8778 19.5666 17.2663 18.5565 18.3567 18.478L24.1166 18.0898L32.0556 30.2217V19.4894L30.0315 19.2571C29.8761 18.4006 30.4979 17.7787 31.2763 17.7016L36.6482 17.3889ZM7.2259 5.72492L29.409 4.09134C32.1333 3.8577 32.834 4.01421 34.5463 5.25796L41.6272 10.2349C42.7958 11.0907 43.1851 11.3238 43.1851 12.2567V39.5535C43.1851 41.264 42.562 42.2759 40.383 42.4306L14.622 43.9864C12.9864 44.0643 12.208 43.8312 11.3514 42.7417L6.13677 35.9761C5.20237 34.7307 4.81381 33.7989 4.81381 32.7088V8.44577C4.81381 7.04678 5.43716 5.87985 7.2259 5.72492Z" fill="#202020"/>
</svg>
