<svg width="48" height="48" viewBox="0 0 48 48" fill="none" xmlns="http://www.w3.org/2000/svg">
<path fill-rule="evenodd" clip-rule="evenodd" d="M13.33 11.4252C13.7927 11.3327 14.2628 11.5466 14.497 11.9564L16.0158 14.6143C16.5143 15.4868 16.3673 16.585 15.6567 17.2956L15.3495 17.6028C13.8787 19.0736 13.0855 21.3913 14.0219 23.6201C14.7138 25.267 15.9349 27.5402 17.9682 29.4958C19.9389 31.3911 22.1364 32.5936 23.7388 33.3026C26.0332 34.3179 28.451 33.3538 29.7656 31.601C30.2049 31.0153 31.0001 30.8276 31.655 31.155L35.3986 33.0268C35.8256 33.2403 36.0568 33.7132 35.9632 34.1813C35.0988 38.5032 31.7876 41.2045 28.2702 40.4906C24.1961 39.6637 19.0998 37.6564 14.4262 32.9827C9.78926 28.3458 7.77704 23.2931 6.93809 19.2355C6.20014 15.6664 8.9441 12.3024 13.33 11.4252ZM17.9699 9.9718C16.8816 8.06719 14.6966 7.07268 12.5455 7.50289C6.83975 8.64405 1.6751 13.5362 3.02094 20.0454C3.98646 24.7152 6.30797 30.5214 11.5977 35.8111C16.9298 41.1432 22.7862 43.4592 27.4746 44.4107C33.9199 45.7189 38.7562 40.6123 39.8855 34.9657C40.3329 32.7288 39.2278 30.4693 37.1874 29.4491L33.4438 27.5773C31.0599 26.3854 28.1648 27.0688 26.5656 29.201C26.1721 29.7257 25.6663 29.7814 25.3574 29.6447C24.0207 29.0532 22.2679 28.0813 20.741 26.6128C19.2298 25.1594 18.2736 23.413 17.7096 22.0708C17.5284 21.6393 17.6083 21.0008 18.1779 20.4312L18.4851 20.124C20.4712 18.138 20.8822 15.0684 19.4887 12.6297L17.9699 9.9718Z" fill="#646464"/>
<path fill-rule="evenodd" clip-rule="evenodd" d="M25.7644 12.999C25.7644 11.8945 26.6598 10.999 27.7644 10.999C33.6292 10.999 36.7644 16.1411 36.7644 20.4611C36.7644 21.5657 35.8689 22.4611 34.7644 22.4611C33.6598 22.4611 32.7644 21.5657 32.7644 20.4611C32.7644 17.6695 30.7958 14.999 27.7644 14.999C26.6598 14.999 25.7644 14.1036 25.7644 12.999Z" fill="#646464"/>
<path fill-rule="evenodd" clip-rule="evenodd" d="M26.6621 4.47083C26.6715 3.36562 27.574 2.46967 28.6779 2.46967C33.7398 2.46967 38.0282 4.38861 41.0376 7.66844C44.0329 10.9328 45.6597 15.4303 45.6597 20.4439C45.6597 21.5491 44.7648 22.4527 43.6608 22.4621C42.5569 22.4715 41.662 21.5833 41.662 20.4781C41.662 16.3268 40.3215 12.8292 38.0831 10.3897C35.8589 7.96568 32.6472 6.47199 28.6438 6.47199C27.5399 6.47199 26.6526 5.57604 26.6621 4.47083Z" fill="#646464"/>
</svg>
