<svg width="48" height="48" viewBox="0 0 48 48" fill="none" xmlns="http://www.w3.org/2000/svg">
<path fill-rule="evenodd" clip-rule="evenodd" d="M21.1456 12.4422C19.3875 11.7418 17.5465 11.8861 16.0597 12.8069C14.5873 13.7187 13.6347 15.2825 13.3881 17.1006C13.1402 18.9279 12.9395 21.2553 12.9395 24.0014C12.9395 26.7477 13.1402 29.075 13.3881 30.9023C13.6347 32.7204 14.5873 34.2843 16.0597 35.1961C17.5465 36.1168 19.3875 36.2612 21.1456 35.5608C22.7462 34.9232 24.8106 33.9813 27.4327 32.5882C29.9104 31.2719 31.8805 30.087 33.4224 29.0758C35.2557 27.8733 36.2995 25.9983 36.2995 24.0015C36.2995 22.0046 35.2558 20.1297 33.4225 18.9272C31.8805 17.9158 29.9104 16.731 27.4327 15.4147C24.8106 14.0217 22.7462 13.0797 21.1456 12.4422Z" fill="#646464"/>
</svg>
