<svg width="48" height="48" viewBox="0 0 48 48" fill="none" xmlns="http://www.w3.org/2000/svg">
<path fill-rule="evenodd" clip-rule="evenodd" d="M30.4914 12.4336C23.6455 11.8873 15.7643 11.857 8.80083 12.344C7.64514 12.4248 6.8838 13.5376 7.23595 14.6535C9.19905 20.8741 11.8233 27.6842 14.4868 33.4546C15.0416 34.6567 16.1945 35.4615 17.509 35.5664C24.3548 36.1127 32.236 36.143 39.1995 35.656C40.3552 35.5752 41.1165 34.4624 40.7644 33.3465C38.8013 27.1259 36.177 20.3158 33.5135 14.5454C32.9587 13.3433 31.8058 12.5385 30.4914 12.4336ZM8.52182 8.3537C15.6796 7.8532 23.7605 7.88371 30.8096 8.44624C33.5702 8.66654 35.9869 10.3593 37.1453 12.869C39.882 18.798 42.5667 25.7663 44.5789 32.1427C45.7062 35.7149 43.2268 39.3842 39.4785 39.6463C32.3208 40.1468 24.2399 40.1163 17.1908 39.5538C14.4301 39.3335 12.0135 37.6407 10.855 35.131C8.11832 29.202 5.43366 22.2337 3.42139 15.8573C2.2941 12.2851 4.77356 8.61579 8.52182 8.3537Z" fill="#646464"/>
</svg>
