<svg width="48" height="48" viewBox="0 0 48 48" fill="none" xmlns="http://www.w3.org/2000/svg">
<path d="M42.0601 40.12C41.3801 40.12 40.7201 39.7801 40.3401 39.2001C34.9001 30.8801 29.5001 30.9 23.2601 31C23.2601 32.24 23.2201 33.5201 23.1801 34.16C23.0601 35.8 22.1801 37.14 20.8201 37.74C19.5001 38.34 17.9601 38.14 16.7001 37.22C15.0201 35.98 13.1001 34.4001 10.9601 32.5401C8.30012 30.2001 6.28012 28.08 4.94012 26.2001C3.68012 24.4401 3.68012 21.6801 4.94012 19.9201C6.28012 18.0401 8.30012 15.9001 10.9601 13.58C13.0801 11.72 15.0201 10.14 16.7001 8.90005C17.9601 7.98005 19.5001 7.78005 20.8201 8.38005C22.1801 9.00005 23.0601 10.3401 23.1801 11.9601C23.2201 12.5201 23.2601 14.3601 23.2601 15.8401C37.3001 16.4801 44.1201 23.76 44.1201 38.08C44.1201 39 43.5201 39.8001 42.6601 40.0601C42.4601 40.1201 42.2601 40.14 42.0801 40.14L42.0601 40.12ZM19.0601 12.24C17.4001 13.46 15.6201 14.9201 13.6601 16.6401C10.6601 19.2801 9.08012 21.1601 8.28012 22.2801C8.04012 22.6201 8.04012 23.4601 8.28012 23.8001C9.08012 24.9201 10.6401 26.8001 13.6601 29.4401C15.6801 31.2001 17.4801 32.7001 19.0601 33.8601C19.1201 33.1201 19.1401 30.8 19.1401 28.98C19.1401 27.84 20.0601 26.92 21.2001 26.92C21.8201 26.92 22.4401 26.92 23.0601 26.92C28.2201 26.8601 33.9201 26.76 39.4001 31.74C37.6401 23.54 31.9201 19.9601 21.2001 19.9601C20.0601 19.9601 19.1401 19.0401 19.1401 17.9201C19.1401 16.0601 19.1001 12.9201 19.0601 12.3201V12.24Z" fill="#646464"/>
</svg>
