<svg width="48" height="48" viewBox="0 0 48 48" fill="none" xmlns="http://www.w3.org/2000/svg">
<path d="M27.7875 34H20.2125L19.5702 37.3922C19.3931 38.327 18.6159 39 17.7132 39H16.86C15.506 39 14.3401 40.0093 14.0746 41.4116L14.0374 41.6077C13.8031 42.8453 14.6994 44 15.8944 44H32.1056C33.3006 44 34.1969 42.8453 33.9626 41.6077L33.9254 41.4116C33.6599 40.0093 32.494 39 31.14 39H30.2868C29.3841 39 28.6069 38.327 28.4299 37.3922L27.7875 34Z" fill="#646464"/>
<path fill-rule="evenodd" clip-rule="evenodd" d="M10.1898 4.34892C12.9855 4.1806 17.4998 4 24 4C30.5002 4 35.0145 4.1806 37.8102 4.34892C40.7187 4.52402 43.2798 6.57884 43.5892 9.627C43.801 11.7132 44 14.7927 44 19C44 23.2073 43.801 26.2868 43.5892 28.373C43.2798 31.4211 40.7187 33.476 37.8102 33.6511C35.0145 33.8194 30.5002 34 24 34C17.4998 34 12.9855 33.8194 10.1898 33.6511C7.28136 33.476 4.72023 31.4211 4.41078 28.3731C4.19898 26.2868 4 23.2073 4 19C4 14.7927 4.19898 11.7132 4.41078 9.62696C4.72023 6.57885 7.28133 4.52401 10.1898 4.34892ZM24 8C17.5736 8 13.1397 8.17856 10.4302 8.34169C9.18896 8.41641 8.47368 9.20992 8.39032 10.031C8.19303 11.9743 8 14.9186 8 19C8 23.0814 8.19303 26.0256 8.39032 27.969C8.47367 28.7901 9.18895 29.5836 10.4302 29.6584C13.1398 29.8215 17.5736 30 24 30C30.4264 30 34.8603 29.8215 37.5698 29.6583C38.8111 29.5836 39.5263 28.7901 39.6096 27.9691C39.8069 26.0257 40 23.0813 40 19C40 14.9187 39.8069 11.9743 39.6096 10.031C39.5263 9.20996 38.8111 8.41642 37.5698 8.34169C34.8603 8.17856 30.4264 8 24 8Z" fill="#646464"/>
</svg>
