<svg width="48" height="48" viewBox="0 0 48 48" fill="none" xmlns="http://www.w3.org/2000/svg">
<path fill-rule="evenodd" clip-rule="evenodd" d="M12.4142 9.58579C11.6332 8.80474 10.3668 8.80474 9.58579 9.58579C8.80474 10.3668 8.80474 11.6332 9.58579 12.4142L27.1716 30H20C18.8954 30 18 30.8954 18 32C18 33.1046 18.8954 34 20 34H32C33.1046 34 34 33.1046 34 32V20C34 18.8954 33.1046 18 32 18C30.8954 18 30 18.8954 30 20V27.1716L12.4142 9.58579ZM8 38C6.89543 38 6 38.8954 6 40C6 41.1046 6.89543 42 8 42H40C41.1046 42 42 41.1046 42 40C42 38.8954 41.1046 38 40 38H8Z" fill="#646464"/>
</svg>
