<svg width="48" height="48" viewBox="0 0 48 48" fill="none" xmlns="http://www.w3.org/2000/svg">
<path fill-rule="evenodd" clip-rule="evenodd" d="M24 20C21.7909 20 20 21.7908 20 23.9999C20 26.209 21.7909 27.9999 24 27.9999C26.2091 27.9999 28 26.209 28 23.9999C28 21.7908 26.2091 20 24 20ZM16 23.9999C16 19.5816 19.5817 15.9999 24 15.9999C28.4183 15.9999 32 19.5816 32 23.9999C32 28.4182 28.4183 31.9999 24 31.9999C19.5817 31.9999 16 28.4182 16 23.9999Z" fill="#646464"/>
<path fill-rule="evenodd" clip-rule="evenodd" d="M20.886 4.25896C21.9684 3.95379 23.1523 3.82551 24.296 3.85235C25.2469 3.87466 26.2139 4.00517 27.1141 4.25896C27.609 4.39846 28.3885 4.63312 29.0464 5.16883C29.8239 5.80187 30.2377 6.67577 30.3331 7.68359C30.3699 8.0726 30.3884 8.40981 30.4057 8.72647C30.4287 9.14426 30.4496 9.52626 30.5081 9.94425C31.2047 10.2873 31.8798 10.68 32.5276 11.1207C32.5371 11.1271 32.5459 11.1326 32.5539 11.1371C33.0517 10.9929 33.5889 10.8123 34.1293 10.6305C34.2443 10.5918 34.3594 10.5531 34.4744 10.5147C34.804 10.4044 35.1402 10.2941 35.4366 10.2078C35.6857 10.1353 36.0756 10.0276 36.445 10.0003C37.8755 9.89506 38.9005 10.8308 39.214 11.1171C39.2367 11.1379 39.2557 11.1552 39.2708 11.1685C40.1518 11.9419 40.9202 12.9275 41.5202 13.9615C42.3174 15.3355 42.9191 16.973 42.9885 18.5357C43.0289 19.45 42.6429 20.1437 42.2842 20.5839C41.9779 20.9598 41.6095 21.2474 41.4334 21.3848C41.4226 21.3932 41.4126 21.4011 41.4033 21.4084C41.1305 21.6222 40.8773 21.8098 40.6327 21.991C40.2763 22.255 39.9383 22.5054 39.585 22.8035C39.5829 22.8153 39.5807 22.8292 39.5788 22.8454C39.5736 22.8906 39.5712 22.9465 39.574 23.011C39.6035 23.675 39.593 24.4314 39.5583 25.0591C39.5557 25.105 39.5574 25.1439 39.5611 25.1743L39.5618 25.1803C39.9239 25.4937 40.3296 25.8064 40.7489 26.1295C40.8275 26.19 40.9065 26.251 40.9859 26.3123C41.2365 26.5062 41.5011 26.7134 41.7284 26.9086C41.9167 27.0702 42.2359 27.3526 42.4722 27.6947C43.2904 28.8794 42.9946 30.2346 42.9037 30.6509C42.8973 30.6805 42.8919 30.7053 42.8879 30.725C42.6496 31.9246 42.1453 33.1325 41.5072 34.2005C40.9014 35.2147 40.1299 36.1784 39.2484 36.9294C39.2327 36.9428 39.2139 36.9593 39.1919 36.9786C38.8686 37.2626 37.8738 38.1366 36.4796 38.0298C36.1302 38.003 35.7612 37.9075 35.512 37.8387C35.2228 37.7589 34.8965 37.6572 34.5756 37.5551C34.4529 37.5161 34.3299 37.4767 34.2069 37.4373C33.6878 37.271 33.1703 37.1053 32.6833 36.9699C32.6902 36.9662 32.6963 36.9633 32.7016 36.961C32.7146 36.9554 32.7163 36.9553 32.7163 36.9553C32.7163 36.9553 32.6994 36.9585 32.6777 36.9582C32.6618 36.9579 32.6433 36.9562 32.6232 36.9523C32.6429 36.9577 32.6635 36.9644 32.6833 36.9699C32.6733 36.9752 32.6617 36.982 32.6489 36.9906C31.9987 37.4278 31.3156 37.8209 30.6041 38.1655C30.6145 38.1031 30.6255 38.0418 30.637 37.9816C30.6265 38.0363 30.6086 38.0848 30.5884 38.1241C30.5838 38.1331 30.5792 38.1413 30.5748 38.1488C30.5603 38.1732 30.5473 38.1894 30.5394 38.1984C30.5342 38.2042 30.5314 38.2069 30.5314 38.2069C30.5314 38.2069 30.5478 38.1927 30.5869 38.1738C30.5926 38.1711 30.5983 38.1683 30.6041 38.1655C30.5491 38.4938 30.5077 38.8533 30.4687 39.2372C30.4603 39.3202 30.4517 39.4074 30.4429 39.4971C30.4077 39.8545 30.3687 40.2509 30.3195 40.5766C30.2561 40.9965 30.0406 42.4224 28.6688 43.1355C27.2484 43.8736 25.4793 44.1692 23.8537 44.1504C22.3198 44.1326 20.6726 43.8324 19.3317 43.1358C17.9591 42.4219 17.7449 40.9964 17.6819 40.5758L17.6816 40.5739C17.6311 40.2366 17.5913 39.8232 17.5551 39.448C17.5462 39.3554 17.5375 39.265 17.5289 39.1788C17.4886 38.7741 17.4459 38.3951 17.389 38.0521C17.3955 38.0552 17.4019 38.0583 17.4084 38.0614C17.4468 38.08 17.4629 38.0938 17.4629 38.0938C17.4629 38.0938 17.4599 38.0911 17.4544 38.0848C17.4466 38.076 17.4341 38.0603 17.4201 38.0371C17.4151 38.0289 17.4099 38.0197 17.4047 38.0094C17.3844 37.9696 17.3664 37.9207 17.356 37.8658C17.3675 37.9266 17.3785 37.9887 17.389 38.0521C16.6783 37.7078 15.9959 37.315 15.3464 36.8782C15.3393 36.8735 15.3327 36.8694 15.3266 36.8657C15.3384 36.8622 15.3502 36.8586 15.3619 36.8551C15.3868 36.8477 15.4115 36.8404 15.4361 36.8332C15.4118 36.8403 15.3886 36.8446 15.3674 36.8469C15.3572 36.8481 15.3474 36.8487 15.3383 36.8489C15.3109 36.8497 15.293 36.8467 15.2861 36.8453L15.2828 36.8445C15.2828 36.8445 15.2875 36.846 15.2945 36.849C15.3027 36.8526 15.3136 36.858 15.3266 36.8657C14.9306 36.9853 14.5005 37.1337 14.058 37.2901C13.9699 37.3213 13.8801 37.3532 13.7895 37.3854C13.4087 37.5207 13.0145 37.6608 12.6822 37.7669C12.6713 37.7704 12.6595 37.7742 12.6469 37.7783C12.4506 37.8414 12.0432 37.9724 11.6003 38.0195C11.087 38.0741 10.3601 38.0384 9.64885 37.5916C8.31969 36.7568 7.191 35.4143 6.39494 34.0334C5.61846 32.6865 5.03156 31.0832 4.96798 29.5457C4.93214 28.679 5.28363 28.0135 5.61438 27.584C5.90393 27.2079 6.25131 26.921 6.41848 26.783C6.42593 26.7768 6.43302 26.771 6.43973 26.7654C6.7616 26.499 7.0557 26.2727 7.34027 26.0536C7.70832 25.7704 8.06042 25.4994 8.43603 25.1699C8.43844 25.2126 8.43382 25.2337 8.43382 25.2337C8.43382 25.2337 8.43436 25.2317 8.43565 25.2279C8.43915 25.2175 8.448 25.195 8.46678 25.1655L8.46921 25.1618C8.48827 25.1325 8.51429 25.1008 8.54733 25.0712C8.51244 25.1025 8.47778 25.1333 8.44332 25.1635L8.43603 25.1699L8.43566 25.1641C8.3824 24.3917 8.3824 23.6085 8.43565 22.8362L8.436 22.8306L8.44302 22.8367C8.47826 22.8675 8.51303 22.8983 8.54731 22.9291C8.51428 22.8994 8.48827 22.8678 8.46921 22.8385L8.46678 22.8347C8.44799 22.8052 8.43914 22.7828 8.43564 22.7724C8.43435 22.7685 8.43381 22.7666 8.43381 22.7666C8.43381 22.7666 8.43845 22.7877 8.436 22.8306C8.07305 22.5138 7.66165 22.1947 7.23596 21.8646C7.16854 21.8123 7.10077 21.7597 7.03277 21.7068C6.77838 21.509 6.50942 21.2976 6.27902 21.0994C6.08809 20.9351 5.76546 20.6493 5.52786 20.3054C5.24149 19.8908 4.93475 19.2536 4.96778 18.4544C5.03135 16.9168 5.61838 15.3133 6.39498 13.9663C6.99112 12.9323 7.75722 11.947 8.63445 11.1724C9.05196 10.8037 9.62349 10.3629 10.3839 10.1462C11.1948 9.91498 11.9664 10.0058 12.6729 10.2276C13.0072 10.3325 13.4036 10.471 13.7871 10.6051C13.8751 10.6358 13.9624 10.6663 14.0482 10.6962C14.4925 10.8507 14.9253 10.9977 15.3241 11.1165C15.3309 11.1126 15.3383 11.108 15.3463 11.1027C15.9962 10.6657 16.6789 10.2727 17.39 9.92829C17.465 9.4882 17.5024 9.089 17.5426 8.66042C17.5728 8.33766 17.6047 7.99823 17.6553 7.61213C17.7819 6.64569 18.189 5.79859 18.9503 5.17536C19.6049 4.63948 20.3755 4.40285 20.886 4.25896ZM24.2022 7.85124C23.4026 7.83248 22.6214 7.92562 21.9713 8.1089C21.8103 8.1543 21.6952 8.19114 21.6103 8.22259C21.5958 8.34795 21.5791 8.51653 21.5597 8.71252C21.4992 9.32237 21.4124 10.1976 21.286 10.8619C21.0246 12.2357 20.0305 13.0952 19.1476 13.5215C18.6016 13.7851 18.0773 14.0864 17.5782 14.422C16.7499 14.979 15.5692 15.3521 14.3177 14.9899C13.7796 14.8341 13.2225 14.644 12.7341 14.4742C12.6311 14.4383 12.532 14.4037 12.4369 14.3705C12.0588 14.2384 11.742 14.1278 11.4749 14.044C11.4644 14.0407 11.4545 14.0377 11.4453 14.035C11.405 14.0658 11.3515 14.1094 11.2821 14.1707C10.7816 14.6126 10.2773 15.2409 9.86029 15.9642C9.4079 16.7488 9.12338 17.5304 9.01359 18.1727C9.14191 18.2782 9.29901 18.402 9.48832 18.5492C9.54851 18.5961 9.61172 18.645 9.67739 18.6959C10.1356 19.0509 10.7137 19.4986 11.219 19.9521C12.2316 20.8609 12.4946 22.1186 12.4262 23.1114C12.3856 23.7005 12.3856 24.2997 12.4262 24.8889C12.4946 25.8816 12.2316 27.1395 11.2189 28.0482C10.7354 28.4821 10.0474 29.0178 9.54076 29.4123C9.32009 29.5842 9.13381 29.7292 9.0138 29.8274C9.1236 30.4696 9.40806 31.2511 9.86033 32.0356C10.3369 32.8624 10.9093 33.5355 11.4418 33.964C11.4495 33.9616 11.4574 33.959 11.4656 33.9564C11.73 33.872 12.0428 33.7609 12.4167 33.6281C12.5151 33.5932 12.6176 33.5567 12.7247 33.5189C13.2134 33.3461 13.772 33.1525 14.312 32.9944C15.5672 32.6268 16.751 33.0025 17.5784 33.5589C18.0774 33.8945 18.6017 34.1957 19.1476 34.4593C20.0305 34.8856 21.025 35.7454 21.2858 37.1199C21.3951 37.6958 21.4601 38.289 21.5092 38.7826C21.5217 38.9077 21.5329 39.0238 21.5434 39.1319C21.5679 39.3851 21.5883 39.5947 21.61 39.775C22.2157 39.9962 23.0161 40.1404 23.9001 40.1506C24.8577 40.1618 25.7369 40.014 26.392 39.7744C26.4125 39.6055 26.4318 39.4104 26.4551 39.1745C26.4655 39.0692 26.4767 38.9557 26.4892 38.8328C26.5373 38.3593 26.6011 37.7888 26.7086 37.2283C26.9717 35.8561 27.9654 34.9977 28.8476 34.5718C29.3936 34.3081 29.9178 34.0068 30.4169 33.6712C31.2496 33.1113 32.4157 32.751 33.6493 33.0871C34.2551 33.2521 34.9077 33.4613 35.4586 33.638C35.5733 33.6747 35.6836 33.7101 35.7881 33.7433C36.0919 33.84 36.3445 33.9182 36.5477 33.975C36.5782 33.9494 36.613 33.9198 36.6543 33.8846C37.1461 33.4656 37.6491 32.8593 38.0733 32.1492C38.5211 31.3996 38.8309 30.6185 38.9646 29.9455C39.0077 29.7289 38.6986 29.6001 38.5386 29.4763C38.4719 29.4247 38.4012 29.3703 38.3275 29.3136C37.8834 28.9718 37.3274 28.5438 36.8367 28.111C35.7612 27.1623 35.5095 25.8313 35.5644 24.8383C35.593 24.3216 35.6006 23.6996 35.578 23.1882C35.5358 22.2363 35.747 20.8274 36.895 19.8406C37.3673 19.4345 37.9856 18.9733 38.4471 18.6291C38.6479 18.4793 38.819 18.3517 38.9355 18.2603L38.9412 18.2559C38.8261 17.5876 38.5288 16.7762 38.0604 15.9689C37.6382 15.2413 37.1321 14.6136 36.6319 14.1745L36.6203 14.1643C36.5764 14.1258 36.5402 14.094 36.5044 14.0631C36.2996 14.124 36.0463 14.2067 35.7429 14.3082C35.6438 14.3413 35.5397 14.3764 35.4316 14.4128C34.8576 14.606 34.1726 14.8366 33.5434 15.0145C32.2911 15.3685 31.1098 14.994 30.2777 14.4279C29.776 14.0867 29.2525 13.7831 28.7119 13.5185C27.8463 13.0949 26.8319 12.2283 26.5965 10.8231C26.4797 10.1257 26.4242 9.20755 26.3871 8.59452C26.3782 8.447 26.3704 8.31714 26.363 8.2123C26.2801 8.18303 26.1724 8.1494 26.0288 8.1089C25.4923 7.95766 24.8628 7.86675 24.2022 7.85124Z" fill="#646464"/>
</svg>
