<svg width="48" height="48" viewBox="0 0 48 48" fill="none" xmlns="http://www.w3.org/2000/svg">
<path fill-rule="evenodd" clip-rule="evenodd" d="M27.0163 4.92975C25.1657 3.68992 22.8344 3.69016 20.984 4.93C19.1071 6.18763 16.1346 8.61424 12.0594 13.2364C8.9147 16.803 6.80779 19.4774 5.43106 21.36C4.44104 22.7138 4.20869 24.3945 4.88381 25.8506C5.55712 27.3028 6.98474 28.2136 8.65047 28.3551C9.76487 28.4498 11.1467 28.5426 12.8499 28.6213L12.8498 31.3475C12.8498 35.0057 12.9642 37.6148 13.0784 39.3085C13.2385 41.6832 15.0674 43.5632 17.4687 43.7635C18.9456 43.8867 21.0945 44 24.0043 44C26.9142 44 29.0631 43.8867 30.54 43.7635C32.9413 43.5632 34.7702 41.6832 34.9303 39.3085C35.0445 37.6148 35.1588 35.0056 35.1588 31.3475V28.6209C36.8575 28.5423 38.2363 28.4497 39.3486 28.3552C41.0147 28.2137 42.4424 27.3026 43.1157 25.8502C43.7908 24.394 43.5583 22.7131 42.5681 21.3592C41.1913 19.4767 39.0847 16.8026 35.9411 13.2365C31.8663 8.61401 28.8935 6.18734 27.0163 4.92975ZM15.0597 15.8818C18.9627 11.455 21.6818 9.2774 23.2106 8.25299C23.714 7.91567 24.2866 7.91571 24.7899 8.25288C26.3189 9.27717 29.0382 11.4547 32.9405 15.8816C36.0154 19.3697 38.0439 21.9491 39.3394 23.7205C39.4597 23.8849 39.49 24.004 39.4973 24.0625C39.5045 24.1208 39.4941 24.1519 39.4867 24.1679C39.4791 24.1842 39.4595 24.2173 39.402 24.2552C39.3444 24.2932 39.2238 24.3514 39.0101 24.3695C37.5804 24.491 35.6522 24.612 33.0894 24.7011C32.0125 24.7385 31.1588 25.6223 31.1588 26.6999V31.3475C31.1588 34.9226 31.0471 37.4417 30.9394 39.0395C30.9117 39.4492 30.63 39.7421 30.2074 39.7773C28.8482 39.8907 26.8106 40 24.0043 40C21.1981 40 19.1604 39.8907 17.8012 39.7773C17.3786 39.7421 17.097 39.4493 17.0693 39.0395C16.9616 37.4417 16.8498 34.9225 16.8498 31.3475L16.8499 26.7002C16.8499 25.6226 15.9962 24.7388 14.9193 24.7014C12.3516 24.6123 10.4204 24.491 8.98906 24.3694C8.77541 24.3513 8.65484 24.2932 8.59725 24.2552C8.53978 24.2173 8.52022 24.1842 8.51271 24.168C8.50533 24.1521 8.49488 24.1211 8.50215 24.0629C8.50943 24.0045 8.53967 23.8855 8.65985 23.7211C9.95517 21.9499 11.9839 19.3703 15.0597 15.8818Z" fill="#646464"/>
</svg>
