<svg width="48" height="48" viewBox="0 0 48 48" fill="none" xmlns="http://www.w3.org/2000/svg">
<path fill-rule="evenodd" clip-rule="evenodd" d="M38.494 43.7793C37.3714 43.7793 36.4613 43.6506 35.7463 43.4779C33.9738 43.0495 33.1926 41.3497 33.1565 39.866C33.0966 37.4048 33.0051 32.2779 33.0051 23.9446C33.0051 15.6113 33.0966 10.4844 33.1565 8.02324C33.1926 6.53946 33.9738 4.8397 35.7463 4.41141C36.4613 4.23864 37.3714 4.10999 38.494 4.10999C39.6166 4.10999 40.5266 4.23864 41.2417 4.41141C43.0142 4.8397 43.7954 6.53946 43.8315 8.02323C43.8913 10.4844 43.9829 15.6113 43.9829 23.9446C43.9829 32.2779 43.8913 37.4048 43.8315 39.866C43.7954 41.3497 43.0142 43.0495 41.2417 43.4779C40.5266 43.6506 39.6166 43.7793 38.494 43.7793ZM24.0004 43.7793C23.0582 43.7793 22.2716 43.7089 21.629 43.6084C19.6923 43.3053 18.6909 41.5274 18.6432 39.8356C18.5848 37.7646 18.5115 34.035 18.5115 28.3524C18.5115 22.6697 18.5848 19.8836 18.6432 17.8125C18.6909 16.1207 19.6923 14.3428 21.629 14.0398C22.2716 13.9393 23.0582 13.8688 24.0004 13.8688C24.9425 13.8688 25.7291 13.9393 26.3717 14.0398C28.3085 14.3428 29.3098 16.1207 29.3575 17.8125C29.416 19.8836 29.4893 22.6697 29.4893 28.3524C29.4893 34.035 29.416 37.7646 29.3575 39.8356C29.3098 41.5274 28.3085 43.3053 26.3717 43.6084C25.7291 43.7089 24.9425 43.7793 24.0004 43.7793ZM7.61464 43.7209C8.1413 43.7563 8.75572 43.7793 9.4635 43.7793C10.1713 43.7793 10.7857 43.7563 11.3123 43.7209C13.4215 43.5788 14.8029 41.7749 14.8728 39.7534C14.9155 38.5213 14.9524 36.7974 14.9524 34.5231C14.9524 32.2489 14.9155 31.1696 14.8728 29.9375C14.8029 27.916 13.4215 26.1121 11.3123 25.97C10.7857 25.9346 10.1713 25.9116 9.4635 25.9116C8.75572 25.9116 8.14131 25.9346 7.61465 25.97C5.50551 26.1121 4.12407 27.916 4.05416 29.9375C4.01154 31.1696 3.97461 32.2489 3.97461 34.5231C3.97461 36.7974 4.01154 38.5213 4.05416 39.7534C4.12407 41.7749 5.50551 43.5788 7.61464 43.7209Z" fill="#646464"/>
</svg>
