<svg width="48" height="48" viewBox="0 0 48 48" fill="none" xmlns="http://www.w3.org/2000/svg">
<path d="M4.30041 42V38C4.30041 36.8954 5.19584 36 6.30041 36C7.40487 36.0001 8.30041 36.8955 8.30041 38V42C8.30041 43.1045 7.40487 43.9999 6.30041 44C5.19584 44 4.30041 43.1046 4.30041 42ZM39.6988 42V38C39.6988 36.8957 40.5946 36.0004 41.6988 36C42.8034 36 43.6988 36.8954 43.6988 38V42C43.6988 43.1046 42.8034 44 41.6988 44C40.5946 43.9996 39.6988 43.1043 39.6988 42ZM33.9996 36C35.1042 36 35.9996 36.8954 35.9996 38C35.9996 39.1046 35.1042 40 33.9996 40H25.9996C24.8951 39.9999 23.9996 39.1045 23.9996 38C23.9996 36.8955 24.8951 36.0001 25.9996 36H33.9996ZM4.30041 32V28C4.30041 26.8954 5.19584 26 6.30041 26C7.40487 26.0001 8.30041 26.8955 8.30041 28V32C8.30041 33.1045 7.40487 33.9999 6.30041 34C5.19584 34 4.30041 33.1046 4.30041 32ZM27.9996 30C29.1042 30 29.9996 30.8954 29.9996 32C29.9996 33.1046 29.1042 34 27.9996 34H19.9996C18.8951 33.9999 17.9996 33.1045 17.9996 32C17.9996 30.8955 18.8951 30.0001 19.9996 30H27.9996ZM39.6988 32V28C39.6988 26.8957 40.5946 26.0004 41.6988 26C42.8034 26 43.6988 26.8954 43.6988 28V32C43.6988 33.1046 42.8034 34 41.6988 34C40.5946 33.9996 39.6988 33.1043 39.6988 32ZM21.9996 24C23.1042 24 23.9996 24.8954 23.9996 26C23.9996 27.1046 23.1042 28 21.9996 28H13.9996C12.8951 27.9999 11.9996 27.1045 11.9996 26C11.9996 24.8955 12.8951 24.0001 13.9996 24H21.9996ZM31.9996 4C34.6493 4 36.8109 6.06155 36.9821 8.66797C40.4806 9.18299 43.1742 12.0619 43.4156 15.6465C43.5529 17.6845 43.6482 19.8032 43.7008 21.9512C43.7278 23.0554 42.8538 23.973 41.7496 24C40.6457 24.0267 39.7298 23.1528 39.7028 22.0488C39.6514 19.9535 39.5585 17.8924 39.4254 15.916C39.324 14.4104 38.3155 13.1803 36.9371 12.752C36.574 15.1562 34.5051 17 31.9996 17C29.3294 16.9999 27.1525 14.9065 27.0113 12.2715C25.0129 12.2453 22.9844 12.2453 20.986 12.2715C20.8448 14.9065 18.6699 17 15.9996 17C13.4941 16.9999 11.4231 15.1563 11.0602 12.752C9.68304 13.1809 8.6752 14.4112 8.57385 15.916C8.44076 17.8924 8.34978 19.9536 8.29846 22.0488C8.27141 23.153 7.3538 24.027 6.24963 24C5.14545 23.973 4.2715 23.0553 4.29846 21.9512C4.35107 19.8032 4.44636 17.6844 4.58362 15.6465C4.82498 12.0628 7.5179 9.18399 11.0153 8.66797C11.1863 6.06153 13.3499 4.00007 15.9996 4C18.5133 4 20.588 5.85578 20.941 8.27148C22.9695 8.24498 25.0278 8.245 27.0563 8.27148C27.4092 5.85567 29.4859 4.00007 31.9996 4ZM15.9996 8C15.4474 8.00008 14.9996 8.44776 14.9996 9V12C14.9996 12.5522 15.4474 12.9999 15.9996 13C16.5519 13 16.9996 12.5523 16.9996 12V9C16.9996 8.44772 16.5519 8 15.9996 8ZM31.9996 8C31.4474 8.00008 30.9996 8.44776 30.9996 9V12C30.9996 12.5522 31.4474 12.9999 31.9996 13C32.5519 13 32.9996 12.5523 32.9996 12V9C32.9996 8.44772 32.5519 8 31.9996 8Z" fill="#646464"/>
</svg>
