<svg width="48" height="48" viewBox="0 0 48 48" fill="none" xmlns="http://www.w3.org/2000/svg">
<path fill-rule="evenodd" clip-rule="evenodd" d="M6 8C6 6.89543 6.89543 6 8 6H40C41.1046 6 42 6.89543 42 8C42 9.10457 41.1046 10 40 10H8C6.89543 10 6 9.10457 6 8ZM23.9999 14C24.5303 14 25.039 14.2107 25.4141 14.5858L35.4142 24.5858C36.1953 25.3668 36.1953 26.6332 35.4142 27.4142C34.6332 28.1953 33.3668 28.1953 32.5858 27.4142L25.9999 20.8284V40C25.9999 41.1046 25.1045 42 23.9999 42C22.8953 42 21.9999 41.1046 21.9999 40V20.8285L15.4142 27.4142C14.6332 28.1953 13.3668 28.1953 12.5858 27.4142C11.8047 26.6332 11.8047 25.3668 12.5858 24.5858L22.5857 14.5858C22.9608 14.2107 23.4695 14 23.9999 14Z" fill="#646464"/>
</svg>
