<svg width="48" height="48" viewBox="0 0 48 48" fill="none" xmlns="http://www.w3.org/2000/svg">
<path d="M40 24C40 17.7379 39.7651 13.3772 39.5449 10.668C39.4463 9.45455 38.5454 8.55372 37.332 8.45508C34.6228 8.23496 30.2621 8 24 8C17.7379 8 13.3772 8.23496 10.668 8.45508C9.45455 8.55372 8.55371 9.45454 8.45508 10.668C8.23496 13.3772 8 17.7379 8 24C8 30.2621 8.23496 34.6228 8.45508 37.332C8.55373 38.5455 9.45455 39.4463 10.668 39.5449C13.3772 39.7651 17.7379 40 24 40C30.2621 40 34.6228 39.7651 37.332 39.5449C38.5454 39.4463 39.4463 38.5454 39.5449 37.332C39.7651 34.6228 40 30.2621 40 24ZM44 24C44 30.3619 43.7608 34.8314 43.5312 37.6562C43.2738 40.8229 40.8229 43.2738 37.6562 43.5312C34.8314 43.7608 30.3619 44 24 44C17.6381 44 13.1686 43.7608 10.3438 43.5312C7.17712 43.2738 4.72625 40.8229 4.46875 37.6562C4.23923 34.8314 4 30.3619 4 24C4 17.6381 4.23923 13.1686 4.46875 10.3438C4.72624 7.17713 7.17713 4.72625 10.3438 4.46875C13.1686 4.23923 17.6381 4 24 4C30.3619 4 34.8314 4.23923 37.6562 4.46875C40.8229 4.72625 43.2738 7.17713 43.5312 10.3438C43.7608 13.1686 44 17.6381 44 24Z" fill="#646464"/>
<path d="M34 24C33.9999 18.4771 29.5229 14 24 14C18.4772 14.0001 14.0001 18.4772 14 24C14 29.5229 18.4771 33.9999 24 34C29.523 34 34 29.523 34 24ZM38 24C38 31.7321 31.7321 38 24 38C16.268 37.9999 10 31.7321 10 24C10.0001 16.268 16.268 10.0001 24 10C31.7321 10 37.9999 16.268 38 24Z" fill="#646464"/>
<path d="M22 17.2501C22 16.1456 22.8954 15.2501 24 15.2501C25.1046 15.2501 26 16.1456 26 17.2501V23.172L29.9141 27.0861C30.6951 27.8671 30.6951 29.1331 29.9141 29.9142C29.1818 30.6465 28.0238 30.6917 27.2383 30.0509L27.0859 29.9142L22.5859 25.4142C22.2109 25.0391 22 24.5305 22 24.0001V17.2501Z" fill="#646464"/>
</svg>
