<svg width="48" height="48" viewBox="0 0 48 48" fill="none" xmlns="http://www.w3.org/2000/svg">
<path fill-rule="evenodd" clip-rule="evenodd" d="M24 8C15.1634 8 8 15.1634 8 24C8 25.1046 7.10457 26 6 26C4.89543 26 4 25.1046 4 24C4 12.9543 12.9543 4 24 4C35.0457 4 44 12.9543 44 24C44 25.1046 43.1046 26 42 26C40.8954 26 40 25.1046 40 24C40 15.1634 32.8366 8 24 8ZM24 12C25.1046 12 26 12.8955 26 14V22H32C33.1046 22 34 22.8954 34 24C34 25.1046 33.1046 26 32 26H24C22.8954 26 22 25.1046 22 24V14C22 12.8955 22.8954 12 24 12ZM6 32C7.10457 32 8 32.8954 8 34V42C8 43.1046 7.10457 44 6 44C4.89543 44 4 43.1046 4 42V34C4 32.8954 4.89543 32 6 32ZM24 32C25.1046 32 26 32.8954 26 34V42C26 43.1046 25.1046 44 24 44C22.8954 44 22 43.1046 22 42V34C22 32.8954 22.8954 32 24 32ZM42 32C43.1046 32 44 32.8954 44 34V42C44 43.1046 43.1046 44 42 44C40.8954 44 40 43.1046 40 42V34C40 32.8954 40.8954 32 42 32ZM15 34C16.1046 34 17 34.8954 17 36V40C17 41.1046 16.1046 42 15 42C13.8954 42 13 41.1046 13 40V36C13 34.8954 13.8954 34 15 34ZM33 34C34.1046 34 35 34.8954 35 36V40C35 41.1046 34.1046 42 33 42C31.8954 42 31 41.1046 31 40V36C31 34.8954 31.8954 34 33 34Z" fill="#646464"/>
</svg>
