<svg width="48" height="48" viewBox="0 0 48 48" fill="none" xmlns="http://www.w3.org/2000/svg">
<path fill-rule="evenodd" clip-rule="evenodd" d="M28 26.0504V18C28 16.9 27.1 16 26 16H12.82L15.4 18.58C16.18 19.36 16.18 20.62 15.4 21.4C14.62 22.18 13.36 22.18 12.58 21.4L6.58 15.42C6.38 15.22 6.24 15 6.14 14.78H6.16C6.06 14.54 6 14.28 6 14.02C6 13.74 6.06 13.48 6.16 13.26C6.26 13.02 6.4 12.8 6.6 12.6L12.58 6.58C13.36 5.8 14.62 5.8 15.4 6.58C16.18 7.36 16.18 8.62 15.4 9.4L12.82 11.98H26C29.3 11.98 32 14.68 32 17.98V26.1358C33.6922 26.1839 35.1512 26.2419 36.18 26.3C39.1 26.46 41.38 28.28 41.76 30.72C41.92 31.78 42 32.88 42 34C42 35.12 41.92 36.22 41.76 37.28C41.38 39.72 39.1 41.54 36.18 41.72C33.72 41.86 28.74 42 24 42C19.26 42 14.28 41.86 11.82 41.72C8.9 41.56 6.62 39.74 6.24 37.3C6.08 36.24 6 35.14 6 34.02C6 32.9 6.08 31.8 6.24 30.74C6.6 28.3 8.9 26.48 11.82 26.3C14.3 26.16 19.28 26.02 24 26.02C25.3333 26.02 26.6874 26.0312 28 26.0504ZM12.04 30.28C14.4 30.14 19.4 30 24 30L24.02 30.02C28.62 30.02 33.62 30.16 35.98 30.3C37.04 30.36 37.74 30.88 37.82 31.34C37.96 32.2 38.02 33.12 38.02 34.04C38.02 34.96 37.94 35.86 37.82 36.72C37.74 37.18 37.04 37.7 35.96 37.76C33.6 37.9 28.62 38.04 24 38.04C19.38 38.04 14.38 37.9 12.04 37.76C10.98 37.7 10.26 37.18 10.2 36.72C10.06 35.84 10 34.96 10 34.02C10 33.08 10.08 32.18 10.2 31.32C10.26 30.86 10.98 30.34 12.04 30.28Z" fill="#646464"/>
</svg>
