<svg width="48" height="48" viewBox="0 0 48 48" fill="none" xmlns="http://www.w3.org/2000/svg">
<path d="M24.002 4C28.0203 4.00057 31.486 6.4265 32.9902 9.9082C33.4279 10.9218 32.9606 12.0988 31.9473 12.5371C30.9335 12.9748 29.7565 12.5078 29.3184 11.4941C28.4266 9.43058 26.3736 8.00057 24.002 8C20.8898 8 18.3346 10.4604 18.2168 13.5703L18.0781 17.1914C19.7351 17.1297 21.6931 17.0918 24 17.0918C28.6221 17.0918 31.8241 17.2462 34.0156 17.4355C37.5934 17.745 40.2423 20.328 40.5176 23.959C40.6392 25.5643 40.7285 27.7073 40.7285 30.5469C40.7285 33.3858 40.6392 35.5278 40.5176 37.1328C40.2419 40.7635 37.5932 43.3488 34.0156 43.6582C31.8241 43.8476 28.622 44 24 44C19.3789 44 16.1778 43.8475 13.9863 43.6582C10.4085 43.3491 7.75814 40.7636 7.48242 37.1328C7.36079 35.5278 7.27347 33.3858 7.27344 30.5469C7.27344 27.9583 7.33598 25.9525 7.42578 24.4082C7.64672 20.6157 10.3255 17.8207 14.0664 17.4258L14.2188 13.4199C14.4178 8.1612 18.7396 4 24.002 4ZM24 26.9102C22.8954 26.9102 22 27.8056 22 28.9102V32.1836C22.0009 33.2874 22.896 34.1836 24 34.1836C25.104 34.1836 25.9991 33.2874 26 32.1836V28.9102C26 27.8056 25.1046 26.9102 24 26.9102Z" fill="#646464"/>
</svg>
