<svg width="48" height="48" viewBox="0 0 48 48" fill="none" xmlns="http://www.w3.org/2000/svg">
<path d="M11.6658 39.4357C13.7692 39.6522 16.1901 39.9014 21.0128 39.96V39.98C22.1128 40 22.9928 40.9 22.9928 42C22.9728 43.1 22.0928 43.98 20.9928 43.98H20.9728C15.9176 43.921 13.2999 43.6492 11.1981 43.4309L11.0928 43.42C9.39278 43.24 7.89278 42.36 6.95278 41.04C6.07278 39.8 5.79278 38.28 6.15278 36.78C7.35278 31.72 10.5928 27.42 14.8728 24.94C12.7328 22.66 11.4928 19.62 11.4928 16.44C11.4928 9.56 17.1328 4 24.0128 4C30.8928 4 36.5128 9.6 36.5128 16.46C36.5128 16.84 36.4928 17.24 36.4528 17.62C36.3528 18.72 35.3928 19.52 34.2728 19.44C33.1728 19.34 32.3528 18.36 32.4528 17.26C32.4928 16.98 32.4928 16.72 32.4928 16.44C32.4928 11.78 28.6728 7.98 23.9928 7.98C19.3128 7.98 15.4928 11.78 15.4928 16.44C15.4928 19.44 17.0528 22.16 19.6528 23.7C20.3128 24.08 20.6928 24.84 20.6128 25.62C20.5128 26.4 19.9928 27.06 19.2528 27.3C13.8728 29.12 10.9528 33.86 10.0328 37.7C9.93278 38.08 9.99278 38.42 10.2128 38.72C10.4928 39.1 10.9728 39.36 11.5128 39.42L11.6658 39.4357Z" fill="#646464"/>
<path fill-rule="evenodd" clip-rule="evenodd" d="M43.7727 29.3602C44.8927 29.5002 45.8727 30.2602 46.2327 31.3402C46.5928 32.4402 46.2927 33.5802 45.4527 34.3602L42.2527 37.3202L43.0927 41.6002C43.3127 42.7202 42.8727 43.8402 41.9527 44.5002C41.0327 45.1602 39.8327 45.2402 38.8327 44.6802L35.0327 42.5602L31.2327 44.6802C30.7727 44.9402 30.2927 45.0602 29.8127 45.0602C29.2127 45.0602 28.6127 44.8802 28.1127 44.5002C27.1927 43.8402 26.7527 42.7202 26.9727 41.6002L27.8127 37.3202L24.6127 34.3602C23.7927 33.5802 23.4727 32.4202 23.8327 31.3402C24.1727 30.2602 25.0927 29.5002 26.2327 29.3602L30.5727 28.8402L32.3927 24.8802C32.8727 23.8402 33.8727 23.2002 35.0127 23.2002C36.1527 23.2002 37.1527 23.8402 37.6327 24.8802L39.4527 28.8402L43.7727 29.3602ZM38.1527 37.5002C37.9527 36.5002 38.2727 35.5002 39.0127 34.8202L38.9927 34.8402L40.8927 33.0802L38.3327 32.7802C37.3327 32.6602 36.4727 32.0202 36.0527 31.1202L34.9727 28.7802L33.8927 31.1202C33.4727 32.0202 32.6127 32.6602 31.6127 32.7802L29.0527 33.0802L30.9527 34.8202C31.7127 35.5002 32.0327 36.5002 31.8327 37.5002L31.3327 40.0202L33.5727 38.7602C34.4527 38.2602 35.5127 38.2802 36.3927 38.7602L38.6527 40.0202L38.1527 37.5002Z" fill="#646464"/>
</svg>
