<svg width="48" height="48" viewBox="0 0 48 48" fill="none" xmlns="http://www.w3.org/2000/svg">
<path d="M19.4488 9.23547C23.0135 9.31149 25.855 9.63464 27.8384 9.94833L28.2067 10.022C30.0152 10.4685 31.2912 12.0145 31.4373 13.9091L31.5001 14.9231C31.562 16.1016 31.6199 17.6886 31.6648 18.9186V29.0827C31.605 30.723 31.5218 33.0833 31.4373 34.1789L31.3918 34.5537C31.0976 36.3979 29.715 37.8428 27.8384 38.1397L26.937 38.274C24.711 38.5853 21.6452 38.8698 17.8757 38.8698L16.3049 38.8525C12.7402 38.7765 9.8987 38.4533 7.91528 38.1397C5.91335 37.823 4.47217 36.1996 4.31634 34.1789C4.19608 32.619 4.07737 29.9487 4.026 27.0048L4 23.9996C4.00001 20.9667 4.08785 17.9769 4.19934 15.7942L4.31634 13.9091C4.46246 12.0142 5.73798 10.4682 7.54694 10.022L7.91528 9.94833C10.1819 9.58986 13.5691 9.21818 17.8757 9.21814L19.4488 9.23547Z" fill="#646464"/>
<path d="M38.5897 13.3804C40.9519 12.8046 43.2361 14.4357 43.5493 16.845L43.7162 18.2794C43.8742 19.8431 44 21.7839 44 23.9996C44 26.2159 43.8742 28.1579 43.7162 29.7219L43.5493 31.1563C43.2357 33.5653 40.9518 35.1947 38.5897 34.6187L38.1173 34.4735C36.756 33.9687 35.5271 33.0123 34.4946 32.0641C34.5367 31.0759 34.5835 30.0201 34.6137 29.1911L34.6159 29.0827V18.9186L34.6137 18.8103C34.5829 17.9648 34.5352 16.9129 34.4924 15.935C35.5252 14.9865 36.7554 14.0306 38.1173 13.5256L38.5897 13.3804Z" fill="#646464"/>
</svg>
