<svg width="48" height="48" viewBox="0 0 48 48" fill="none" xmlns="http://www.w3.org/2000/svg">
<path fill-rule="evenodd" clip-rule="evenodd" d="M10.9501 43.5018C7.47751 43.2197 4.78042 40.5226 4.49828 37.05C4.27801 34.3389 4.05005 30.0676 4.05005 24C4.05005 17.9325 4.278 13.6612 4.49828 10.9501C4.78041 7.47751 7.4775 4.78042 10.9501 4.49828C13.6612 4.27801 17.9325 4.05005 24 4.05005C30.0676 4.05005 34.3389 4.278 37.05 4.49828C40.5226 4.78043 43.2197 7.47749 43.5018 10.9501C43.7221 13.6612 43.9501 17.9325 43.9501 24C43.9501 30.0676 43.7221 34.3389 43.5018 37.05C43.2197 40.5226 40.5226 43.2197 37.05 43.5018C34.3389 43.7221 30.0676 43.9501 24 43.9501C17.9325 43.9501 13.6612 43.7221 10.9501 43.5018Z" fill="#FFC53D"/>
<path fill-rule="evenodd" clip-rule="evenodd" d="M20.1079 15.4855L20.1046 15.4889C20.1016 15.4921 20.0965 15.4974 20.0895 15.5048C20.0755 15.5195 20.0537 15.5425 20.0247 15.5733C19.9666 15.635 19.8799 15.7279 19.7695 15.8482C19.5485 16.0891 19.2336 16.4388 18.8639 16.8676C18.1206 17.7301 17.1749 18.8913 16.33 20.1183C15.4662 21.3728 14.7929 22.5753 14.4923 23.536C14.3434 24.012 14.3233 24.314 14.3404 24.4731C14.3454 24.5199 14.3527 24.5459 14.3565 24.5569L14.358 24.5585C14.3849 24.5861 14.5777 24.7836 15.5551 24.4047C16.5547 24.0172 17.718 23.2697 19.112 22.3719L19.1499 22.3474C20.4206 21.5289 21.9305 20.5563 23.3517 20.0581C24.0895 19.7994 24.9539 19.6109 25.8523 19.7194C26.8118 19.8352 27.6888 20.2772 28.3792 21.0645C29.6441 22.507 29.5189 24.1996 29.1024 25.4866C28.7082 26.7045 27.944 27.9297 27.3442 28.8914L27.3378 28.9017C26.6617 29.9857 26.1747 30.7697 25.9513 31.4099C25.9152 31.5134 25.8933 31.5942 25.88 31.655C25.9628 31.6427 26.1032 31.6088 26.3147 31.52C27.0098 31.2281 27.8302 30.6385 28.9193 29.846L28.9742 29.8061C29.9349 29.107 31.1426 28.228 32.3486 27.747C33.6646 27.222 35.428 27.0122 36.9429 28.3678C37.7229 29.0658 37.7894 30.264 37.0914 31.044C36.3933 31.824 35.1952 31.8904 34.4152 31.1924L34.4108 31.1867C34.3907 31.1565 34.3153 31.0434 33.7529 31.2677C33.054 31.5465 32.2274 32.1267 31.1495 32.9111C31.1016 32.9459 31.0531 32.9812 31.004 33.017C30.0698 33.6977 28.9151 34.5391 27.7824 35.0148C27.1616 35.2755 26.4125 35.4884 25.6007 35.4467C24.738 35.4024 23.922 35.0752 23.2343 34.4474C22.5718 33.8428 22.1936 33.0804 22.0953 32.2496C22.0038 31.4765 22.1662 30.7522 22.3724 30.1612C22.7419 29.1022 23.4393 27.987 24.0045 27.0832C24.0442 27.0196 24.0833 26.9571 24.1216 26.8958C24.7795 25.8408 25.2706 25.0159 25.4961 24.3194C25.6882 23.7259 25.5743 23.6098 25.5357 23.5704L25.5292 23.5636C25.465 23.4904 25.4435 23.4879 25.4041 23.4833L25.3978 23.4825C25.2931 23.4699 25.0488 23.4798 24.6057 23.6351C23.6794 23.9599 22.5553 24.6627 21.1645 25.5585C21.1061 25.5962 21.0471 25.6342 20.9876 25.6726C19.7496 26.4708 18.2982 27.4067 16.9252 27.9389C15.501 28.491 13.4817 28.8606 11.8279 27.3808C10.1936 25.9183 10.4295 23.827 10.8747 22.4041C11.3465 20.8963 12.2769 19.3209 13.208 17.9686C14.1581 16.5889 15.1985 15.3145 15.9926 14.3931C16.3918 13.93 16.7333 13.5506 16.9767 13.2854C17.0985 13.1527 17.1959 13.0483 17.2639 12.976C17.298 12.9398 17.3247 12.9116 17.3434 12.8919C17.3528 12.8821 17.3602 12.8743 17.3655 12.8688C17.3682 12.866 17.372 12.862 17.372 12.862L17.3747 12.8592C17.3747 12.8592 17.3752 12.8586 18.7414 14.1723L17.3747 12.8592C18.1002 12.1047 19.3005 12.0806 20.055 12.8061C20.8094 13.5315 20.8329 14.731 20.1079 15.4855Z" fill="#202020"/>
</svg>
