<svg width="48" height="48" viewBox="0 0 48 48" fill="none" xmlns="http://www.w3.org/2000/svg">
<path d="M43.4143 40.5858C44.1953 41.3668 44.1953 42.6332 43.4143 43.4142C42.6332 44.1953 41.3669 44.1953 40.5858 43.4142L25.2719 28.1002C24.8588 28.0344 24.4341 28 24.0001 28C21.4878 28 19.2469 29.1557 17.777 30.9722C17.0822 31.8308 15.8228 31.9636 14.9642 31.2688C14.1055 30.574 13.9727 29.3146 14.6675 28.456C16.3533 26.3727 18.7273 24.8627 21.4446 24.2729L18.2394 21.0678C15.6053 22.0848 13.3049 23.7807 11.5548 25.9434C10.86 26.8021 9.60062 26.9349 8.74196 26.2401C7.8833 25.5452 7.75049 24.2859 8.44531 23.4272C10.2688 21.1738 12.5733 19.3235 15.2048 18.0332L12.2432 15.0716C9.68023 16.5147 7.40782 18.4159 5.53778 20.6645C4.83151 21.5138 3.57049 21.6297 2.72123 20.9234C1.87196 20.2172 1.75605 18.9561 2.46232 18.1069C4.40571 15.77 6.72273 13.7542 9.3226 12.151L4.58585 7.41422C3.8048 6.63316 3.8048 5.36684 4.58585 4.58579C5.3669 3.80474 6.63323 3.80474 7.41428 4.58579L43.4143 40.5858Z" fill="#646464"/>
<path d="M42.4623 20.6645C38.0568 15.3671 31.4225 12 24.0001 12C23.3778 12 22.7614 12.0236 22.1518 12.07C21.9986 12.0817 21.8458 12.0948 21.6935 12.1093C20.5939 12.214 19.6176 11.4075 19.5128 10.3079C19.4081 9.20834 20.2146 8.23204 21.3142 8.1273C21.4918 8.11038 21.6698 8.09512 21.8483 8.08154C22.5589 8.02749 23.2764 8 24.0001 8C32.6611 8 40.4049 11.9348 45.5378 18.1069C46.2441 18.9561 46.1281 20.2172 45.2789 20.9234C44.4296 21.6297 43.1686 21.5138 42.4623 20.6645Z" fill="#646464"/>
<path d="M28.1784 20.5506C27.112 20.2629 26.4806 19.1652 26.7683 18.0988C27.0559 17.0323 28.1536 16.4009 29.2201 16.6886C33.3491 17.8022 36.9449 20.202 39.5548 23.4272C40.2496 24.2859 40.1168 25.5452 39.2581 26.2401C38.3995 26.9349 37.1401 26.8021 36.4453 25.9434C34.3529 23.3576 31.4741 21.4395 28.1784 20.5506Z" fill="#646464"/>
<path d="M21.1716 33.1716C22.7338 31.6094 25.2665 31.6096 26.8286 33.1717C28.3905 34.7337 28.3906 37.2663 26.8285 38.8285C25.2663 40.3906 22.7335 40.3904 21.1715 38.8283C19.6096 37.2663 19.6095 34.7337 21.1716 33.1716Z" fill="#646464"/>
</svg>
