<svg width="48" height="48" viewBox="0 0 48 48" fill="none" xmlns="http://www.w3.org/2000/svg">
<path d="M12.32 20.2403C14.4503 20.2403 15.4543 20.636 16.9969 22.1943L25.2732 30.5548C25.5181 30.8021 25.5671 30.901 25.616 31.0494C25.6405 31.0989 25.6405 31.1731 25.6405 31.2226C25.6405 31.2721 25.6405 31.3463 25.616 31.3957C25.5671 31.5442 25.5181 31.6431 25.2732 31.8904L19.6169 37.629C19.372 37.8763 19.2741 37.9258 19.1272 37.9753C19.0782 38 19.0047 38 18.9558 38C18.9068 38 18.8333 38 18.7844 37.9753C18.6375 37.9258 18.5395 37.8763 18.2947 37.629L2.25619 21.4275C1.79096 20.9576 1.96236 20.2403 2.74592 20.2403H12.32Z" fill="#08CF65"/>
<path d="M35.68 10.0247C33.5496 10.0247 32.5457 10.4205 31.003 11.9788L22.7267 20.3392C22.4818 20.5866 22.4329 20.6855 22.3839 20.8339C22.3594 20.8834 22.3594 20.9576 22.3594 21.0071C22.3594 21.0565 22.3594 21.1307 22.3839 21.1802C22.4329 21.3286 22.4818 21.4276 22.7267 21.6749L28.383 27.3887C28.6279 27.636 28.7258 27.6855 28.8727 27.735C28.9217 27.7597 28.9952 27.7597 29.0441 27.7597C29.0931 27.7597 29.1666 27.7597 29.2155 27.735C29.3625 27.6855 29.4604 27.636 29.7053 27.3887L45.7439 11.1873C46.209 10.7173 46.0377 10 45.2539 10H35.68V10.0247Z" fill="#08CF65"/>
</svg>
