<svg width="48" height="48" viewBox="0 0 48 48" fill="none" xmlns="http://www.w3.org/2000/svg">
<path d="M28.9998 24.0088C28.9992 25.4951 28.7271 26.9172 28.2319 28.2313C26.9185 28.7265 25.4951 28.9986 24.0082 29.0005H23.9912C22.5056 28.9986 21.0822 28.7271 19.7687 28.2319C19.2735 26.9185 19.0008 25.4951 19.0002 24.0088V23.9912C19.0008 22.5056 19.2729 21.0822 19.7675 19.7694C21.0809 19.2735 22.5049 19.0008 23.9912 19.0002H24.0082C25.4951 19.0008 26.9185 19.2735 28.2319 19.7694C28.7271 21.0822 28.9992 22.5056 28.9998 23.9912V24.0088ZM43.7222 20.6668H32.0478L40.3023 12.4116C39.6537 11.5004 38.9304 10.6457 38.1417 9.85703V9.8564C37.353 9.06834 36.4984 8.34627 35.5877 7.69772L27.3326 15.9529V4.2784C26.2523 4.09678 25.1425 4.00063 24.0101 4H23.9893C22.8569 4.00063 21.7477 4.09678 20.6668 4.2784V15.9529L12.4116 7.69772C11.5004 8.34627 10.6463 9.06897 9.85892 9.85766L9.85452 9.8608C9.06709 10.6482 8.34564 11.5016 7.69709 12.4116L15.9529 20.6668H4.2784C4.2784 20.6668 4 22.8594 4 23.9931V24.0069C4 25.1406 4.09615 26.2517 4.2784 27.3332H15.9529L7.69709 35.5884C8.99544 37.4102 10.5898 39.0052 12.4116 40.3029L20.6668 32.0471V43.7222C21.7471 43.9032 22.855 43.9987 23.9855 44H24.0138C25.145 43.9987 26.2542 43.9032 27.3326 43.7222V32.0471L35.5884 40.3029C36.499 39.6544 37.353 38.9317 38.1417 38.1436L38.1436 38.1417C38.931 37.353 39.6544 36.4983 40.3023 35.5884L32.0465 27.3332H43.7222C43.9039 26.2536 43.9987 25.1456 44 24.0145V23.9855C43.9987 22.8544 43.9039 21.7464 43.7222 20.6668Z" fill="#FF4A00"/>
</svg>
