<svg width="48" height="48" viewBox="0 0 48 48" fill="none" xmlns="http://www.w3.org/2000/svg">
<path d="M23.2001 18.8H27C28.22 18.8 29.2001 19.78 29.2001 21C29.2001 22.22 28.22 23.2 27 23.2H23.2001V27C23.2001 28.22 22.22 29.2 21 29.2C19.78 29.2 18.8 28.22 18.8 27V23.2H15C13.78 23.2 12.8 22.22 12.8 21C12.8 19.78 13.78 18.8 15 18.8H18.8V15C18.8 13.78 19.78 12.8 21 12.8C22.22 12.8 23.2001 13.78 23.2001 15V18.8Z" fill="#646464"/>
<path fill-rule="evenodd" clip-rule="evenodd" d="M38.32 30.8C39.58 31.84 40.88 32.92 42.16 34.1C43.3 35.16 43.96 36.54 44 38C44.04 39.4 43.5 40.74 42.48 41.78L41.78 42.48C40.78 43.46 39.48 44 38.14 44H38C36.54 43.96 35.16 43.3 34.1 42.16C32.9728 40.9356 31.94 39.6923 30.8915 38.4301L30.8 38.32C30.18 37.56 29.54 36.8 28.88 36.04C26.52 37.28 23.84 38 21 38C11.62 38 4 30.38 4 21C4 11.62 11.62 4 21 4C30.38 4 38 11.62 38.02 21.02C38.02 23.86 37.3 26.54 36.06 28.9C36.82 29.54 37.58 30.18 38.32 30.8ZM21 8C13.84 8 8 13.84 8 21C8 28.16 13.84 34 21 34C28.16 34 34 28.16 34 21C34 13.84 28.16 8 21 8ZM39.4186 39.1857C39.4874 39.1147 39.5548 39.0452 39.62 38.98L39.64 38.96C39.9 38.68 40.02 38.4 40.02 38.08C40 37.72 39.8 37.34 39.46 37.02C38.4491 36.1085 37.4244 35.2519 36.3974 34.3934C36.185 34.2158 35.9725 34.0382 35.76 33.86C35.1765 33.3826 34.5774 32.8739 33.9903 32.3755C33.9133 32.3101 33.8365 32.2449 33.76 32.18C33.26 32.74 32.74 33.26 32.18 33.76C32.76 34.42 33.34 35.1 33.88 35.76C34.0952 36.0166 34.3087 36.2732 34.522 36.5295C35.339 37.5115 36.1518 38.4883 37.04 39.44C37.36 39.8 37.74 40 38.1 40C38.44 40.02 38.72 39.88 38.98 39.62C39.1282 39.4852 39.2765 39.3323 39.4186 39.1857Z" fill="#646464"/>
</svg>
