<svg width="48" height="48" viewBox="0 0 48 48" fill="none" xmlns="http://www.w3.org/2000/svg">
<path d="M36 27.8008C37.215 27.8008 38.1992 28.785 38.1992 30V33.8008H42L42.2246 33.8105C43.3342 33.923 44.1992 34.8608 44.1992 36C44.1992 37.1392 43.3342 38.077 42.2246 38.1895L42 38.1992H38.1992V42C38.1992 43.215 37.215 44.1992 36 44.1992C34.785 44.1992 33.8008 43.215 33.8008 42V38.1992H30C28.785 38.1992 27.8008 37.215 27.8008 36C27.8008 34.785 28.785 33.8008 30 33.8008H33.8008V30C33.8008 28.785 34.785 27.8008 36 27.8008Z" fill="#646464"/>
<path d="M8.12891 26C8.81721 31.518 12.3116 36.1615 17.1426 38.457C16.9918 38.1505 16.8448 37.8372 16.707 37.5156C15.3797 34.4185 14.529 30.3993 14.3301 26H8.12891ZM40 24C40 17.617 36.2615 12.1087 30.8555 9.54102C31.0066 9.84826 31.1548 10.162 31.293 10.4844C32.819 14.0453 33.7148 18.8251 33.7148 24C33.7148 25.1043 32.8191 25.9996 31.7148 26C30.6103 26 29.7148 25.1046 29.7148 24C29.7148 19.2342 28.8829 15.0143 27.6172 12.0605C26.9827 10.5801 26.2777 9.50902 25.5977 8.83789C24.9263 8.17537 24.3887 8 24 8C23.6112 8 23.0737 8.17541 22.4023 8.83789C21.7223 9.50902 21.0173 10.5801 20.3828 12.0605C19.2973 14.5938 18.5341 18.0585 18.3379 22H24C25.1045 22.0001 26 22.8955 26 24C26 25.1045 25.1045 25.9999 24 26H18.3379C18.5341 29.9415 19.2973 33.4062 20.3828 35.9395C21.0173 37.4199 21.7223 38.491 22.4023 39.1621C23.0737 39.8246 23.6112 40 24 40C25.1046 40 26 40.8954 26 42C26 43.1046 25.1046 44 24 44C12.9543 44 4 35.0457 4 24C4 12.9543 12.9543 4 24 4C35.0457 4 44 12.9543 44 24C44 25.1046 43.1046 26 42 26C40.8954 26 40 25.1046 40 24ZM17.1426 9.54102C12.3112 11.8365 8.81725 16.4817 8.12891 22H14.3301C14.529 17.6007 15.3797 13.5815 16.707 10.4844C16.8451 10.1623 16.9915 9.84802 17.1426 9.54102Z" fill="#646464"/>
</svg>
