<svg width="48" height="48" viewBox="0 0 48 48" fill="none" xmlns="http://www.w3.org/2000/svg">
<path fill-rule="evenodd" clip-rule="evenodd" d="M11.4895 16.4516C11.4895 9.5643 17.1008 4 23.9992 4C30.8976 4 36.5088 9.56431 36.5088 16.4516C36.5088 21.0088 34.0488 24.9873 30.3954 27.1544C29.4454 27.718 28.2185 27.4047 27.6549 26.4547C27.0914 25.5047 27.4047 24.2777 28.3547 23.7142C30.8502 22.2339 32.5088 19.5318 32.5088 16.4516C32.5088 11.7943 28.7094 8 23.9992 8C19.289 8 15.4895 11.7943 15.4895 16.4516C15.4895 19.5331 17.1496 22.2362 19.6469 23.716C20.3194 24.1145 20.6981 24.8684 20.6164 25.6458C20.5346 26.4232 20.0074 27.0818 19.2667 27.3317C14.318 29.0013 11.1105 33.2772 10.0399 37.7297C9.93839 38.1517 10.0376 38.5141 10.2728 38.8108C10.5221 39.1253 10.9542 39.3922 11.5227 39.4522C14.0696 39.721 18.1285 40 24.0051 40C25.1097 40 26.0051 40.8954 26.0051 42C26.0051 43.1046 25.1097 44 24.0051 44C18.0026 44 13.8027 43.7151 11.1028 43.4301C7.97191 43.0996 5.31242 40.2807 6.15073 36.7945C7.25597 32.1982 10.21 27.6283 14.8587 24.9522C12.7714 22.7293 11.4895 19.7412 11.4895 16.4516Z" fill="#646464"/>
<path fill-rule="evenodd" clip-rule="evenodd" d="M36.0001 28C37.1047 28 38.0001 28.8954 38.0001 30V34H42.0001C43.1047 34 44.0001 34.8954 44.0001 36C44.0001 37.1046 43.1047 38 42.0001 38H38.0001V42C38.0001 43.1046 37.1047 44 36.0001 44C34.8955 44 34.0001 43.1046 34.0001 42L34.0001 38H30.0001C28.8955 38 28.0001 37.1046 28.0001 36C28.0001 34.8954 28.8955 34 30.0001 34H34.0001V30C34.0001 28.8954 34.8955 28 36.0001 28Z" fill="#646464"/>
</svg>
