<svg width="48" height="48" viewBox="0 0 48 48" fill="none" xmlns="http://www.w3.org/2000/svg">
<path fill-rule="evenodd" clip-rule="evenodd" d="M6 8C4.89543 8 4 8.89543 4 10C4 11.1046 4.89543 12 6 12H38C39.1046 12 40 11.1046 40 10C40 8.89543 39.1046 8 38 8H6ZM6 20C4.89543 20 4 20.8954 4 22C4 23.1046 4.89543 24 6 24H38C39.1046 24 40 23.1046 40 22C40 20.8954 39.1046 20 38 20H6ZM6 32C4.89543 32 4 32.8954 4 34C4 35.1046 4.89543 36 6 36H22C23.1046 36 24 35.1046 24 34C24 32.8954 23.1046 32 22 32H6ZM40 32C40 30.8954 39.1046 30 38 30C36.8954 30 36 30.8954 36 32V36H32C30.8954 36 30 36.8954 30 38C30 39.1046 30.8954 40 32 40H36V44C36 45.1046 36.8954 46 38 46C39.1046 46 40 45.1046 40 44V40H44C45.1046 40 46 39.1046 46 38C46 36.8954 45.1046 36 44 36H40V32Z" fill="#646464"/>
</svg>
