<svg width="48" height="48" viewBox="0 0 48 48" fill="none" xmlns="http://www.w3.org/2000/svg">
<path fill-rule="evenodd" clip-rule="evenodd" d="M39.9992 23.8383C39.91 15.0022 32.6745 7.91147 23.8384 8.00072C15.0023 8.08996 7.91159 15.3254 8.00084 24.1615C8.09008 32.9976 15.3255 40.0883 24.1616 39.9991C25.2661 39.9879 26.1706 40.8743 26.1817 41.9788C26.1929 43.0833 25.3065 43.9877 24.202 43.9989C13.1569 44.1104 4.1126 35.247 4.00104 24.2019C3.88949 13.1568 12.7529 4.11248 23.798 4.00092C34.8432 3.88936 43.8874 12.7528 43.999 23.7979C44.0102 24.9024 43.1238 25.8069 42.0193 25.818C40.9148 25.8292 40.0104 24.9428 39.9992 23.8383ZM23.9998 12C25.1044 12 25.9998 12.8954 25.9998 14V24C25.9998 24.7575 25.5718 25.4501 24.8942 25.7888L16.8942 29.7888C15.9063 30.2828 14.7049 29.8824 14.211 28.8944C13.717 27.9065 14.1174 26.7051 15.1054 26.2111L21.9998 22.7639V14C21.9998 12.8954 22.8952 12 23.9998 12Z" fill="#646464"/>
<path fill-rule="evenodd" clip-rule="evenodd" d="M37.1839 28.202C36.6719 27.266 35.3277 27.266 34.8157 28.202L33.1235 31.2961C32.7016 32.0675 32.0673 32.7018 31.2958 33.1237L28.2018 34.8159C27.2658 35.3279 27.2658 36.6721 28.2018 37.1841L31.2958 38.8763C32.0673 39.2982 32.7016 39.9325 33.1235 40.7039L34.8157 43.798C35.3277 44.734 36.6719 44.734 37.1839 43.7979L38.8761 40.7039C39.298 39.9325 39.9323 39.2982 40.7037 38.8763L43.7978 37.1841C44.7338 36.6721 44.7338 35.3279 43.7977 34.8159L40.7037 33.1237C39.9323 32.7018 39.298 32.0675 38.8761 31.2961L37.1839 28.202Z" fill="#646464"/>
</svg>
