<svg width="48" height="48" viewBox="0 0 48 48" fill="none" xmlns="http://www.w3.org/2000/svg">
<path fill-rule="evenodd" clip-rule="evenodd" d="M20 8C16.6863 8 14 10.6863 14 14V19.1716L16.5858 16.5858C17.3668 15.8047 18.6332 15.8047 19.4142 16.5858C20.1953 17.3668 20.1953 18.6332 19.4142 19.4142L13.4142 25.4142C12.6332 26.1953 11.3668 26.1953 10.5858 25.4142L4.58579 19.4142C3.80474 18.6332 3.80474 17.3668 4.58579 16.5858C5.36683 15.8047 6.63317 15.8047 7.41421 16.5858L10 19.1716V14C10 8.47715 14.4772 4 20 4H28C33.5228 4 38 8.47715 38 14V16C38 17.1046 37.1046 18 36 18C34.8954 18 34 17.1046 34 16V14C34 10.6863 31.3137 8 28 8H20ZM28.5858 28.5858L34.5858 22.5858C35.3668 21.8047 36.6332 21.8047 37.4142 22.5858L43.4142 28.5858C44.1953 29.3668 44.1953 30.6332 43.4142 31.4142C42.6332 32.1953 41.3668 32.1953 40.5858 31.4142L38 28.8284V34C38 39.5228 33.5228 44 28 44H20C14.4772 44 10 39.5228 10 34V32C10 30.8954 10.8954 30 12 30C13.1046 30 14 30.8954 14 32V34C14 37.3137 16.6863 40 20 40H28C31.3137 40 34 37.3137 34 34V28.8284L31.4142 31.4142C30.6332 32.1953 29.3668 32.1953 28.5858 31.4142C27.8047 30.6332 27.8047 29.3668 28.5858 28.5858Z" fill="url(#paint0_linear_4071_236)"/>
<defs>
<linearGradient id="paint0_linear_4071_236" x1="4" y1="24" x2="44" y2="24" gradientUnits="userSpaceOnUse">
<stop stop-color="#7A28E2"/>
<stop offset="1" stop-color="#C100B6"/>
</linearGradient>
</defs>
</svg>
