<svg width="48" height="48" viewBox="0 0 48 48" fill="none" xmlns="http://www.w3.org/2000/svg">
<path fill-rule="evenodd" clip-rule="evenodd" d="M37.1841 28.202C36.6721 27.266 35.3279 27.266 34.8159 28.202L33.1237 31.2961C32.7018 32.0675 32.0675 32.7018 31.296 33.1237L28.202 34.8159C27.266 35.3279 27.266 36.6721 28.202 37.1841L31.296 38.8763C32.0675 39.2982 32.7018 39.9325 33.1237 40.7039L34.8159 43.798C35.3279 44.734 36.6721 44.734 37.1841 43.798L38.8763 40.7039C39.2982 39.9325 39.9325 39.2982 40.7039 38.8763L43.798 37.1841C44.734 36.6721 44.734 35.3279 43.7979 34.8159L40.7039 33.1237C39.9325 32.7018 39.2982 32.0675 38.8763 31.2961L37.1841 28.202Z" fill="#646464"/>
<path fill-rule="evenodd" clip-rule="evenodd" d="M5.63672 8C5.63672 6.89543 6.53215 6 7.63672 6H40.364C41.4686 6 42.364 6.89543 42.364 8C42.364 9.10457 41.4686 10 40.364 10H37.8091C37.9123 14.4977 36.2714 17.6374 34.4951 19.9466C33.8345 20.8055 33.0835 21.6293 32.4894 22.281C32.235 22.5601 32.0093 22.8076 31.8318 23.0128C31.4922 23.4055 31.2873 23.6806 31.1693 23.8871C31.1212 23.9712 31.0999 24.0229 31.0913 24.0469C31.0664 25.1298 30.1808 26 29.0919 26C27.9873 26 27.0919 25.1046 27.0919 24C27.0919 23.1688 27.3786 22.4585 27.6962 21.9026C28.01 21.3535 28.4187 20.8445 28.8063 20.3963C29.1123 20.0425 29.4079 19.7194 29.7012 19.3989C30.2347 18.8158 30.7602 18.2416 31.3246 17.5079C32.6843 15.7402 33.9086 13.4508 33.8075 10H14.1935C14.0925 13.4508 15.3171 15.7401 16.6769 17.5078C17.2413 18.2415 17.7668 18.8157 18.3004 19.3988C18.5937 19.7193 18.8894 20.0424 19.1954 20.3962C19.5831 20.8444 19.9918 21.3534 20.3056 21.9026C20.6232 22.4584 20.91 23.1688 20.91 24C20.91 24.8312 20.6232 25.5416 20.3056 26.0974C19.9918 26.6466 19.5831 27.1556 19.1954 27.6038C18.8894 27.9576 18.5937 28.2807 18.3004 28.6012C17.7668 29.1843 17.2413 29.7585 16.6769 30.4922C15.3171 32.2599 14.0925 34.5492 14.1935 38H23C24.1046 38 25 38.8954 25 40C25 41.1046 24.1046 42 23 42H7.63672C6.53215 42 5.63672 41.1046 5.63672 40C5.63672 38.8954 6.53215 38 7.63672 38H10.1919C10.0889 33.5022 11.7301 30.3625 13.5065 28.0533C14.1672 27.1944 14.9182 26.3707 15.5124 25.719C15.7668 25.4399 15.9925 25.1924 16.17 24.9871C16.5097 24.5944 16.7146 24.3193 16.8326 24.1128C16.8599 24.065 16.8786 24.0277 16.8912 24C16.8786 23.9723 16.8599 23.935 16.8326 23.8872C16.7146 23.6807 16.5097 23.4056 16.17 23.0129C15.9925 22.8076 15.7668 22.5601 15.5124 22.281C14.9182 21.6293 14.1672 20.8056 13.5065 19.9467C11.7301 17.6375 10.0889 14.4978 10.1919 10H7.63672C6.53215 10 5.63672 9.10457 5.63672 8Z" fill="#646464"/>
</svg>
