<svg width="48" height="48" viewBox="0 0 48 48" fill="none" xmlns="http://www.w3.org/2000/svg">
<path fill-rule="evenodd" clip-rule="evenodd" d="M8 24C8 15.1634 15.1634 8 24 8C32.8366 8 40 15.1634 40 24C40 32.8366 32.8366 40 24 40C15.1634 40 8 32.8366 8 24ZM24 4C12.9543 4 4 12.9543 4 24C4 35.0457 12.9543 44 24 44C35.0457 44 44 35.0457 44 24C44 12.9543 35.0457 4 24 4ZM20 20C20 17.7909 21.7909 16 24 16H24.7889C26.5623 16 28 17.4377 28 19.2111C28 20.2847 27.4634 21.2873 26.5701 21.8829L25.5624 22.5547C23.7926 23.7345 22.5852 25.5554 22.1646 27.5963C21.9416 28.6782 22.6379 29.7359 23.7197 29.9588C24.8016 30.1818 25.8593 29.4855 26.0822 28.4037C26.2926 27.3829 26.8966 26.4726 27.7812 25.8829L28.7889 25.2111C30.795 23.8737 32 21.6222 32 19.2111C32 15.2285 28.7715 12 24.7889 12H24C19.5817 12 16 15.5817 16 20C16 21.1046 16.8954 22 18 22C19.1046 22 20 21.1046 20 20ZM24 36.5C25.3807 36.5 26.5 35.3807 26.5 34C26.5 32.6193 25.3807 31.5 24 31.5C22.6193 31.5 21.5 32.6193 21.5 34C21.5 35.3807 22.6193 36.5 24 36.5Z" fill="url(#paint0_linear_4071_243)"/>
<defs>
<linearGradient id="paint0_linear_4071_243" x1="4" y1="24" x2="44" y2="24" gradientUnits="userSpaceOnUse">
<stop stop-color="#7A28E2"/>
<stop offset="1" stop-color="#C100B6"/>
</linearGradient>
</defs>
</svg>
