<svg width="48" height="48" viewBox="0 0 48 48" fill="none" xmlns="http://www.w3.org/2000/svg">
<path d="M42.0601 40.12C41.3801 40.12 40.7201 39.78 40.3401 39.2C34.9001 30.88 29.5001 30.9 23.2601 31C23.2601 32.24 23.2201 33.52 23.1801 34.16C23.0601 35.8 22.1801 37.14 20.8201 37.74C19.5001 38.34 17.9601 38.14 16.7001 37.22C15.0201 35.98 13.1001 34.4 10.9601 32.54C8.30012 30.2 6.28012 28.08 4.94012 26.2C3.68012 24.44 3.68012 21.68 4.94012 19.92C6.28012 18.04 8.30012 15.9 10.9601 13.58C13.0801 11.72 15.0201 10.14 16.7001 8.89999C17.9601 7.97999 19.5001 7.77999 20.8201 8.37999C22.1801 8.99999 23.0601 10.34 23.1801 11.96C23.2201 12.52 23.2601 14.36 23.2601 15.84C37.3001 16.48 44.1201 23.76 44.1201 38.08C44.1201 39 43.5201 39.8 42.6601 40.06C42.4601 40.12 42.2601 40.14 42.0801 40.14L42.0601 40.12ZM19.0601 12.24C17.4001 13.46 15.6201 14.92 13.6601 16.64C10.6601 19.28 9.08012 21.16 8.28012 22.28C8.04012 22.62 8.04012 23.46 8.28012 23.8C9.08012 24.92 10.6401 26.8 13.6601 29.44C15.6801 31.2 17.4801 32.7 19.0601 33.86C19.1201 33.12 19.1401 30.8 19.1401 28.98C19.1401 27.84 20.0601 26.92 21.2001 26.92C21.8201 26.92 22.4401 26.92 23.0601 26.92C28.2201 26.86 33.9201 26.76 39.4001 31.74C37.6401 23.54 31.9201 19.96 21.2001 19.96C20.0601 19.96 19.1401 19.04 19.1401 17.92C19.1401 16.06 19.1001 12.92 19.0601 12.32V12.24Z" fill="url(#paint0_linear_4071_245)"/>
<defs>
<linearGradient id="paint0_linear_4071_245" x1="3.99512" y1="24.0891" x2="44.1201" y2="24.0891" gradientUnits="userSpaceOnUse">
<stop stop-color="#7A28E2"/>
<stop offset="1" stop-color="#C100B6"/>
</linearGradient>
</defs>
</svg>
