<svg width="48" height="48" viewBox="0 0 48 48" fill="none" xmlns="http://www.w3.org/2000/svg">
<path d="M20.28 12.0651C20.42 12.3251 20.7 12.4851 21 12.4851C21.3 12.4851 21.58 12.3251 21.72 12.0651L22.36 10.9051C22.48 10.6651 22.68 10.4651 22.92 10.3451L24.08 9.70514C24.34 9.56514 24.5 9.28514 24.5 8.98514C24.5 8.68514 24.34 8.40514 24.08 8.26514L22.92 7.62514C22.68 7.50514 22.48 7.30514 22.36 7.06514L21.72 5.90514C21.42 5.38514 20.56 5.38514 20.28 5.90514L19.64 7.06514C19.52 7.30514 19.32 7.50514 19.08 7.62514L17.92 8.26514C17.66 8.40514 17.5 8.68514 17.5 8.98514C17.5 9.28514 17.66 9.56514 17.92 9.70514L19.08 10.3451C19.32 10.4651 19.52 10.6651 19.64 10.9051L20.28 12.0651Z" fill="url(#paint0_linear_4071_248)"/>
<path fill-rule="evenodd" clip-rule="evenodd" d="M26.3422 12.748C26.4134 12.6609 26.4927 12.5794 26.5798 12.5048L32.3798 7.36479C33.9798 5.94479 36.0398 5.56479 37.7198 6.40479C38.5598 6.82479 39.3198 7.34479 39.9598 8.00479C40.6198 8.66479 41.1398 9.40479 41.5598 10.2448C41.8437 10.8333 41.9861 11.4626 41.9922 12.1002C42.0145 13.3172 41.5391 14.5671 40.6004 15.6248L19.3604 39.6048C17.9604 41.1848 16.2204 42.0248 14.4804 42.0248V42.0048C13.8004 42.0048 13.1404 41.8848 12.4804 41.6048C11.1004 41.0448 9.86036 40.2248 8.82036 39.1648C7.76036 38.1048 6.94036 36.8648 6.38036 35.5048C5.44036 33.2048 6.22036 30.5648 8.40036 28.6248L26.3422 12.748ZM27.8147 16.7849L11.0604 31.6248C10.3804 32.2248 9.76036 33.1848 10.1004 34.0048C10.4604 34.8848 10.9804 35.6648 11.6604 36.3448C12.3404 37.0248 13.1204 37.5448 14.0004 37.9048C14.8204 38.2248 15.7804 37.6248 16.3804 36.9448L31.2169 20.1786C30.5865 19.565 29.9329 18.9179 29.2598 18.2448C28.7624 17.7474 28.2799 17.26 27.8147 16.7849ZM31.4249 14.7797C31.2149 14.5648 31.0074 14.3524 30.7998 14.1448L30.797 14.1434L35.0404 10.3848C35.2617 10.1951 35.4955 10.0554 35.6924 10.0052C35.7413 9.99621 35.7872 9.99306 35.829 9.99622L35.8204 10.0048C35.8534 10.0048 35.8804 10.0109 35.9046 10.0163C35.9153 10.0187 35.9254 10.021 35.9353 10.0226L35.9398 10.0248C36.3798 10.2448 36.7598 10.5248 37.0998 10.8648C37.4398 11.1848 37.7198 11.5848 37.9398 12.0248C38.0398 12.2248 37.8798 12.6248 37.5798 12.9648L33.8398 17.1848C33.2799 16.6449 32.6801 16.0451 32.0802 15.4452C31.8577 15.2227 31.6398 14.9997 31.4249 14.7797Z" fill="url(#paint1_linear_4071_248)"/>
<path d="M10.1 19.9448C10.28 20.2848 10.62 20.4848 11 20.4848C11.38 20.4848 11.72 20.2848 11.9 19.9448L12.96 18.0048C13.2 17.5648 13.56 17.1848 14.02 16.9448L15.96 15.8848C16.3 15.7048 16.5 15.3648 16.5 14.9848C16.5 14.6048 16.3 14.2648 15.96 14.0848L14.02 13.0248C13.58 12.7848 13.2 12.4248 12.96 11.9648L11.9 10.0248C11.54 9.36479 10.46 9.36479 10.1 10.0248L9.04 11.9648C8.8 12.4048 8.44 12.7848 7.98 13.0248L6.04 14.0848C5.7 14.2648 5.5 14.6048 5.5 14.9848C5.5 15.3648 5.7 15.7048 6.04 15.8848L7.98 16.9448C8.42 17.1848 8.8 17.5448 9.04 18.0048L10.1 19.9448Z" fill="url(#paint2_linear_4071_248)"/>
<path d="M35 41.8848C35.2 42.2648 35.58 42.4848 36 42.4848C36.42 42.4848 36.8 42.2448 37 41.8848L38.26 39.5648C38.56 39.0048 39.02 38.5448 39.58 38.2448L41.9 36.9848C42.28 36.7848 42.5 36.4048 42.5 35.9848C42.5 35.5648 42.26 35.1848 41.9 34.9848L39.58 33.7248C39.02 33.4248 38.56 32.9648 38.26 32.4048L37 30.0848C36.6 29.3448 35.4 29.3448 35 30.0848L33.74 32.4048C33.44 32.9648 32.98 33.4248 32.42 33.7248L30.1 34.9848C29.72 35.1848 29.5 35.5648 29.5 35.9848C29.5 36.4048 29.74 36.7848 30.1 36.9848L32.42 38.2448C32.98 38.5448 33.44 39.0048 33.74 39.5648L35 41.8848Z" fill="url(#paint3_linear_4071_248)"/>
<defs>
<linearGradient id="paint0_linear_4071_248" x1="5.5" y1="24" x2="42.5" y2="24" gradientUnits="userSpaceOnUse">
<stop stop-color="#7A28E2"/>
<stop offset="1" stop-color="#C100B6"/>
</linearGradient>
<linearGradient id="paint1_linear_4071_248" x1="5.5" y1="24" x2="42.5" y2="24" gradientUnits="userSpaceOnUse">
<stop stop-color="#7A28E2"/>
<stop offset="1" stop-color="#C100B6"/>
</linearGradient>
<linearGradient id="paint2_linear_4071_248" x1="5.5" y1="24" x2="42.5" y2="24" gradientUnits="userSpaceOnUse">
<stop stop-color="#7A28E2"/>
<stop offset="1" stop-color="#C100B6"/>
</linearGradient>
<linearGradient id="paint3_linear_4071_248" x1="5.5" y1="24" x2="42.5" y2="24" gradientUnits="userSpaceOnUse">
<stop stop-color="#7A28E2"/>
<stop offset="1" stop-color="#C100B6"/>
</linearGradient>
</defs>
</svg>
