<svg width="48" height="48" viewBox="0 0 48 48" fill="none" xmlns="http://www.w3.org/2000/svg">
<path d="M34.8164 28.2012C35.3286 27.2663 36.6714 27.2663 37.1836 28.2012L38.877 31.2969C39.2987 32.0676 39.9324 32.7013 40.7031 33.123L43.7988 34.8164C44.7336 35.3286 44.7337 36.6714 43.7988 37.1836L40.7031 38.877C39.9324 39.2987 39.2987 39.9324 38.877 40.7031L37.1836 43.7988C36.6714 44.7337 35.3286 44.7337 34.8164 43.7988L33.123 40.7031C32.7013 39.9324 32.0676 39.2987 31.2969 38.877L28.2012 37.1836C27.2663 36.6714 27.2663 35.3286 28.2012 34.8164L31.2969 33.123C32.0676 32.7013 32.7013 32.0676 33.123 31.2969L34.8164 28.2012Z" fill="#646464"/>
<path fill-rule="evenodd" clip-rule="evenodd" d="M13.8242 26.2461C15.528 26.2461 16.7995 26.3327 17.7402 26.4473C20.0135 26.7241 21.4499 28.5576 21.5664 30.6504L21.625 32.1348C21.6394 32.7096 21.6484 33.3691 21.6484 34.123C21.6484 35.6315 21.6129 36.7595 21.5664 37.5957C21.4499 39.6885 20.0136 41.522 17.7402 41.7988C16.7995 41.9134 15.5279 42 13.8242 42C12.1206 42 10.849 41.9134 9.9082 41.7988C7.63485 41.522 6.19652 39.6886 6.08008 37.5957C6.03355 36.7595 6 35.6315 6 34.123C6 32.6147 6.03356 31.4866 6.08008 30.6504L6.11719 30.2617C6.37929 28.3347 7.77688 26.7068 9.9082 26.4473C10.849 26.3327 12.1205 26.2461 13.8242 26.2461ZM13.8242 30.2734C12.2504 30.2734 11.1421 30.3536 10.3887 30.4453C10.2578 30.4613 10.2086 30.5047 10.1836 30.5332C10.1508 30.5707 10.0857 30.6709 10.0742 30.875C10.0327 31.6222 10 32.6751 10 34.123C10 35.571 10.0327 36.6219 10.0742 37.3691C10.0856 37.5736 10.1508 37.6753 10.1836 37.7129C10.2086 37.7414 10.2578 37.7868 10.3887 37.8027C11.1421 37.8945 12.2505 37.9727 13.8242 37.9727C15.398 37.9727 16.5063 37.8945 17.2598 37.8027C17.3907 37.7868 17.4398 37.7414 17.4648 37.7129C17.4977 37.6752 17.5629 37.5735 17.5742 37.3691C17.6158 36.6219 17.6484 35.571 17.6484 34.123C17.6484 32.675 17.6158 31.6242 17.5742 30.877C17.5627 30.673 17.4976 30.5707 17.4648 30.5332C17.4398 30.5047 17.3906 30.4613 17.2598 30.4453C16.5063 30.3536 15.3981 30.2734 13.8242 30.2734Z" fill="#646464"/>
<path fill-rule="evenodd" clip-rule="evenodd" d="M13.8242 6C15.5279 6 16.7995 6.0866 17.7402 6.20117C20.0136 6.47803 21.45 8.31142 21.5664 10.4043L21.625 11.8887C21.6394 12.4636 21.6484 13.1229 21.6484 13.877C21.6484 15.3853 21.6129 16.5134 21.5664 17.3496C21.4498 19.4423 20.0135 21.2759 17.7402 21.5527C16.7995 21.6673 15.5279 21.7539 13.8242 21.7539C12.1205 21.7539 10.849 21.6673 9.9082 21.5527C7.63494 21.2759 6.19665 19.4423 6.08008 17.3496C6.03356 16.5134 6 15.3853 6 13.877C6 12.3685 6.03356 11.2405 6.08008 10.4043L6.11719 10.0156C6.37929 8.0886 7.7769 6.46072 9.9082 6.20117C10.849 6.0866 12.1205 6 13.8242 6ZM13.8242 10.0273C12.2505 10.0273 11.1421 10.1055 10.3887 10.1973C10.2578 10.2132 10.2086 10.2586 10.1836 10.2871C10.1508 10.3247 10.0857 10.4252 10.0742 10.6289C10.0327 11.3761 10 12.4291 10 13.877C10 15.325 10.0327 16.3758 10.0742 17.123C10.0856 17.3278 10.1508 17.4293 10.1836 17.4668C10.2086 17.4953 10.2578 17.5387 10.3887 17.5547C11.1421 17.6464 12.2504 17.7266 13.8242 17.7266C15.3981 17.7266 16.5063 17.6464 17.2598 17.5547C17.3906 17.5387 17.4398 17.4953 17.4648 17.4668C17.4976 17.4293 17.5628 17.3277 17.5742 17.123C17.6158 16.3758 17.6484 15.325 17.6484 13.877C17.6484 12.4291 17.6158 11.3781 17.5742 10.6309C17.5627 10.4273 17.4977 10.3248 17.4648 10.2871C17.4398 10.2586 17.3907 10.2132 17.2598 10.1973C16.5063 10.1055 15.398 10.0273 13.8242 10.0273Z" fill="#646464"/>
<path fill-rule="evenodd" clip-rule="evenodd" d="M34.1758 6C35.8792 6.00001 37.1511 6.08662 38.0918 6.20117C40.3652 6.47802 41.8016 8.31143 41.918 10.4043L41.9766 11.8887C41.991 12.4635 42 13.123 42 13.877C42 15.3853 41.9645 16.5135 41.918 17.3496C41.8013 19.4422 40.3649 21.2759 38.0918 21.5527C37.1511 21.6673 35.8792 21.7539 34.1758 21.7539C32.4724 21.7539 31.2004 21.6673 30.2598 21.5527C27.9868 21.2757 26.5483 19.4421 26.4316 17.3496C26.3851 16.5135 26.3516 15.3852 26.3516 13.877C26.3516 12.3686 26.3851 11.2405 26.4316 10.4043L26.4688 10.0156C26.7308 8.08875 28.1287 6.46091 30.2598 6.20117C31.2004 6.08662 32.4724 6.00002 34.1758 6ZM34.1758 10.0273C32.6023 10.0274 31.4936 10.1055 30.7402 10.1973C30.6097 10.2133 30.5602 10.2586 30.5352 10.2871C30.5023 10.3249 30.4372 10.4256 30.4258 10.6289C30.3842 11.3762 30.3516 12.4285 30.3516 13.877C30.3516 15.325 30.3842 16.3759 30.4258 17.123C30.4371 17.3274 30.5023 17.4291 30.5352 17.4668C30.5602 17.4953 30.6099 17.5387 30.7402 17.5547C31.4936 17.6464 32.6023 17.7265 34.1758 17.7266C35.7493 17.7266 36.8579 17.6464 37.6113 17.5547C37.7418 17.5388 37.7913 17.4953 37.8164 17.4668C37.8492 17.4293 37.9144 17.3277 37.9258 17.123C37.9673 16.3759 38 15.325 38 13.877C38 12.4285 37.9674 11.3762 37.9258 10.6289C37.9143 10.4255 37.8492 10.3249 37.8164 10.2871C37.7913 10.2586 37.7419 10.2132 37.6113 10.1973C36.8579 10.1055 35.7493 10.0273 34.1758 10.0273Z" fill="#646464"/>
</svg>
