<svg width="48" height="48" viewBox="0 0 48 48" fill="none" xmlns="http://www.w3.org/2000/svg">
<path d="M4.00003 11.56C3.94003 12.7 4.80003 13.68 5.94003 13.74C7.08003 13.8 8.06003 12.94 8.12003 11.8C8.16003 11.08 8.20003 10.4 8.26003 9.76003C8.32003 8.94003 8.94003 8.32003 9.76003 8.26003C10.4 8.20003 11.08 8.16003 11.8 8.12003C12.94 8.06003 13.8 7.08003 13.74 5.94003C13.68 4.80003 12.7 3.94003 11.56 4.00003C11.1337 4.02307 10.714 4.05275 10.3086 4.08143C10.0104 4.10252 9.71978 4.12307 9.44003 4.14003C6.60003 4.38003 4.38003 6.60003 4.14003 9.44003C4.08003 10.1 4.04003 10.82 4.00003 11.56Z" fill="url(#paint0_linear_4572_112)"/>
<path d="M8.12003 36.32C8.06003 35.18 7.08003 34.32 5.94003 34.38C4.80003 34.44 3.94003 35.42 4.00003 36.56C4.02307 36.9864 4.05275 37.406 4.08143 37.8114C4.10252 38.1097 4.12307 38.4003 4.14003 38.68C4.36003 41.52 6.60003 43.76 9.44003 43.98C10.1 44.04 10.82 44.08 11.56 44.12C12.7 44.18 13.68 43.32 13.74 42.18C13.8 41.04 12.94 40.06 11.8 40C11.08 39.96 10.4 39.92 9.76003 39.86C8.94003 39.8 8.32003 39.18 8.26003 38.36C8.20003 37.72 8.16003 37.04 8.12003 36.32Z" fill="url(#paint1_linear_4572_112)"/>
<path d="M44.12 36.56C44.18 35.42 43.32 34.44 42.18 34.38C41.04 34.32 40.06 35.18 40 36.32C39.96 37.04 39.92 37.72 39.86 38.36C39.8 39.18 39.18 39.8 38.36 39.86C37.72 39.92 37.04 39.96 36.32 40C35.18 40.06 34.32 41.04 34.38 42.18C34.44 43.32 35.42 44.18 36.56 44.12C36.9863 44.097 37.406 44.0673 37.8114 44.0386C38.1095 44.0175 38.4004 43.997 38.68 43.98C41.52 43.76 43.76 41.52 43.98 38.68C44.04 38.02 44.08 37.3 44.12 36.56Z" fill="url(#paint2_linear_4572_112)"/>
<path d="M40 11.8C40.06 12.94 41.04 13.8 42.18 13.74C43.32 13.68 44.18 12.7 44.12 11.56C44.097 11.1337 44.0673 10.7141 44.0386 10.3087C44.0176 10.0106 43.997 9.71964 43.98 9.44003C43.76 6.60003 41.52 4.36003 38.68 4.14003C38.02 4.08003 37.3 4.04003 36.56 4.00003C35.42 3.94003 34.44 4.80003 34.38 5.94003C34.32 7.08003 35.18 8.06003 36.32 8.12003C37.04 8.16003 37.72 8.20003 38.36 8.26003C39.18 8.32003 39.8 8.94003 39.86 9.76003C39.92 10.4 39.96 11.08 40 11.8Z" fill="url(#paint3_linear_4572_112)"/>
<path d="M24.0601 28.02C26.2401 28.02 28.0201 26.24 28.0201 24.06C28.0201 21.88 26.2401 20.1 24.0601 20.1C21.8801 20.1 20.1001 21.88 20.1001 24.06C20.1001 26.24 21.8801 28.02 24.0601 28.02Z" fill="url(#paint4_linear_4572_112)"/>
<path fill-rule="evenodd" clip-rule="evenodd" d="M24.06 35.8801C17.26 35.8801 11.22 31.4401 9.4 25.0801C9.2 24.3601 9.2 23.6001 9.4 22.8801C11.24 16.5001 17.26 12.0601 24.08 12.0601C30.9 12.0601 36.92 16.5001 38.74 22.8801C38.94 23.6001 38.94 24.3601 38.74 25.0601C36.9 31.4401 30.88 35.8801 24.06 35.8801ZM13.24 23.9801C14.58 28.6401 19.04 31.8801 24.06 31.8801C29.08 31.8801 33.54 28.6201 34.88 23.9601C33.54 19.3201 29.08 16.0601 24.06 16.0601C19.04 16.0601 14.58 19.3201 13.24 23.9801Z" fill="url(#paint5_linear_4572_112)"/>
<defs>
<linearGradient id="paint0_linear_4572_112" x1="3.99707" y1="24.06" x2="44.123" y2="24.06" gradientUnits="userSpaceOnUse">
<stop stop-color="#7A28E2"/>
<stop offset="1" stop-color="#C100B6"/>
</linearGradient>
<linearGradient id="paint1_linear_4572_112" x1="3.99707" y1="24.06" x2="44.123" y2="24.06" gradientUnits="userSpaceOnUse">
<stop stop-color="#7A28E2"/>
<stop offset="1" stop-color="#C100B6"/>
</linearGradient>
<linearGradient id="paint2_linear_4572_112" x1="3.99707" y1="24.06" x2="44.123" y2="24.06" gradientUnits="userSpaceOnUse">
<stop stop-color="#7A28E2"/>
<stop offset="1" stop-color="#C100B6"/>
</linearGradient>
<linearGradient id="paint3_linear_4572_112" x1="3.99707" y1="24.06" x2="44.123" y2="24.06" gradientUnits="userSpaceOnUse">
<stop stop-color="#7A28E2"/>
<stop offset="1" stop-color="#C100B6"/>
</linearGradient>
<linearGradient id="paint4_linear_4572_112" x1="3.99707" y1="24.06" x2="44.123" y2="24.06" gradientUnits="userSpaceOnUse">
<stop stop-color="#7A28E2"/>
<stop offset="1" stop-color="#C100B6"/>
</linearGradient>
<linearGradient id="paint5_linear_4572_112" x1="3.99707" y1="24.06" x2="44.123" y2="24.06" gradientUnits="userSpaceOnUse">
<stop stop-color="#7A28E2"/>
<stop offset="1" stop-color="#C100B6"/>
</linearGradient>
</defs>
</svg>
