<svg width="48" height="48" viewBox="0 0 48 48" fill="none" xmlns="http://www.w3.org/2000/svg">
<path d="M7.0528 23.0852C6.11255 22.5056 4.88042 22.7979 4.30077 23.7382C3.72113 24.6784 4.01346 25.9106 4.95371 26.4902C7.4633 28.0373 10.0335 29.5432 12.7747 30.8485C17.1337 32.9242 20.643 33.9248 22.4137 34.3482C23.4613 34.5987 24.5451 34.5987 25.5928 34.3482C27.3634 33.9248 30.8728 32.9242 35.2319 30.8485C37.953 29.5527 40.5572 28.0987 43.0865 26.4689C44.015 25.8707 44.2827 24.6329 43.6845 23.7044C43.0862 22.7759 41.8485 22.5082 40.92 23.1065C38.5324 24.6449 36.0773 26.0155 33.5122 27.237C29.4509 29.1709 26.2144 30.0868 24.6626 30.4578C24.2265 30.5621 23.78 30.5621 23.3439 30.4578C21.792 30.0868 18.5556 29.1709 14.4944 27.237C11.9468 26.0239 9.51957 24.6059 7.0528 23.0852Z" fill="url(#paint0_linear_4742_138)"/>
<path d="M7.05275 32.5453C6.1125 31.9657 4.88037 32.258 4.30072 33.1982C3.72108 34.1385 4.01341 35.3706 4.95366 35.9503C7.46325 37.4974 10.0334 39.0032 12.7746 40.3085C17.1337 42.3843 20.643 43.3849 22.4136 43.8083C23.4613 44.0588 24.5451 44.0588 25.5927 43.8083C27.3634 43.3849 30.8727 42.3843 35.2319 40.3085C37.9529 39.0128 40.5572 37.5588 43.0865 35.929C44.015 35.3307 44.2827 34.093 43.6844 33.1645C43.0861 32.236 41.8484 31.9683 40.9199 32.5666C38.5323 34.105 36.0773 35.4756 33.5121 36.6971C29.4508 38.631 26.2144 39.5469 24.6625 39.9179C24.2264 40.0222 23.78 40.0222 23.3438 39.9179C21.792 39.5469 18.5556 38.631 14.4943 36.6971C11.9468 35.484 9.51952 34.066 7.05275 32.5453Z" fill="url(#paint1_linear_4742_138)"/>
<path fill-rule="evenodd" clip-rule="evenodd" d="M25.6007 4.19082C24.553 3.9403 23.4692 3.9403 22.4215 4.19082C20.6509 4.61422 17.1416 5.61479 12.7825 7.69056C9.3994 9.30155 7.04814 10.7038 5.5889 11.6631C3.48541 13.0459 3.48525 16.0273 5.58897 17.4102C7.04828 18.3696 9.3995 19.7718 12.7825 21.3827C17.1416 23.4585 20.651 24.4591 22.4216 24.8825C23.4692 25.133 24.5531 25.133 25.6008 24.8825C27.3713 24.459 30.8806 23.4585 35.2398 21.3827C38.6229 19.7717 40.9741 18.3695 42.4334 17.4101C44.5372 16.0272 44.5369 13.0458 42.4333 11.663C40.9741 10.7038 38.6229 9.30155 35.2398 7.69055C30.8806 5.61479 27.3713 4.61422 25.6007 4.19082ZM24.6704 8.08114C24.2343 7.97686 23.7879 7.97686 23.3518 8.08114C21.7999 8.45224 18.5635 9.36808 14.5023 11.302C13.2926 11.878 12.2279 12.423 11.3008 12.9244C10.1748 13.5334 9.25179 14.0783 8.51826 14.5366C8.64847 14.618 8.78466 14.7021 8.92689 14.7888C10.2455 15.5925 12.0841 16.6198 14.5023 17.7713C18.5634 19.7052 21.7998 20.621 23.3518 20.9922C23.7878 21.0964 24.2344 21.0964 24.6705 20.9922C26.2224 20.621 29.4589 19.7052 33.5201 17.7713C36.199 16.4956 38.1665 15.3724 39.504 14.5366C38.1665 13.7009 36.199 12.5777 33.5201 11.302C29.4588 9.36808 26.2223 8.45224 24.6704 8.08114Z" fill="url(#paint2_linear_4742_138)"/>
<defs>
<linearGradient id="paint0_linear_4742_138" x1="4.00293" y1="23.9995" x2="44.0111" y2="23.9995" gradientUnits="userSpaceOnUse">
<stop stop-color="#7A28E2"/>
<stop offset="1" stop-color="#C100B6"/>
</linearGradient>
<linearGradient id="paint1_linear_4742_138" x1="4.00293" y1="23.9995" x2="44.0111" y2="23.9995" gradientUnits="userSpaceOnUse">
<stop stop-color="#7A28E2"/>
<stop offset="1" stop-color="#C100B6"/>
</linearGradient>
<linearGradient id="paint2_linear_4742_138" x1="4.00293" y1="23.9995" x2="44.0111" y2="23.9995" gradientUnits="userSpaceOnUse">
<stop stop-color="#7A28E2"/>
<stop offset="1" stop-color="#C100B6"/>
</linearGradient>
</defs>
</svg>
