<svg width="48" height="48" viewBox="0 0 48 48" fill="none" xmlns="http://www.w3.org/2000/svg">
<path d="M42 24C42 14.0588 33.9412 6 24 6M6 24C6 33.9412 14.0588 42 24 42C19.7395 42 16.2856 33.9412 16.2856 24M6 24C6 14.0588 14.0588 6 24 6M6 24H16.2856M24 6C28.2604 6 31.7141 14.0588 31.7141 24M24 6C19.7395 6 16.2856 14.0588 16.2856 24M16.2856 24H23.9999" stroke="#646464" stroke-width="2" stroke-linecap="round" stroke-linejoin="round"/>
<path fill-rule="evenodd" clip-rule="evenodd" d="M37.1841 28.202C36.6721 27.266 35.3279 27.266 34.8159 28.202L33.1237 31.2961C32.7018 32.0675 32.0675 32.7018 31.296 33.1237L28.202 34.8159C27.266 35.3279 27.266 36.6721 28.202 37.1841L31.296 38.8763C32.0675 39.2982 32.7018 39.9325 33.1237 40.7039L34.8159 43.798C35.3279 44.734 36.6721 44.734 37.1841 43.798L38.8763 40.7039C39.2982 39.9325 39.9325 39.2982 40.7039 38.8763L43.798 37.1841C44.734 36.6721 44.734 35.3279 43.7979 34.8159L40.7039 33.1237C39.9325 32.7018 39.2982 32.0675 38.8763 31.2961L37.1841 28.202Z" fill="#646464"/>
</svg>
