<svg width="48" height="48" viewBox="0 0 48 48" fill="none" xmlns="http://www.w3.org/2000/svg">
<path fill-rule="evenodd" clip-rule="evenodd" d="M34.82 4.94842C31.8921 3.08101 28.5581 4.1942 26.5302 6.22209L23.7788 8.97338L23.7145 9.0376L5.62249 27.1289C4.90692 27.8444 4.35733 28.8106 4.22509 29.9502C4.03778 31.5642 3.82094 34.9305 4.24423 40.4348C4.3806 42.2079 5.79181 43.6194 7.56525 43.7558C13.0699 44.1791 16.4365 43.9622 18.0505 43.7749C19.1898 43.6426 20.1559 43.0932 20.8715 42.3776L24.1383 39.111C24.9194 38.33 24.9194 37.0636 24.1384 36.2826C23.3574 35.5015 22.091 35.5015 21.31 36.2825L18.0431 39.5492C17.8663 39.726 17.7037 39.7883 17.5894 39.8016C16.2851 39.9529 13.2809 40.1641 8.20728 39.7927C7.83593 34.7195 8.04708 31.7154 8.19843 30.4112C8.21169 30.297 8.27392 30.1343 8.45083 29.9574L25.4678 12.9411C26.832 13.8316 28.6272 15.2071 30.707 17.2868C33.5217 20.1016 35.049 22.3978 35.8296 23.8096C36.1337 24.3594 36.6784 24.7344 37.3005 24.8222C37.9226 24.91 38.5498 24.7003 38.9941 24.256L41.7792 21.471C43.8072 19.443 44.9206 16.1087 43.0528 13.1807C42.2239 11.8812 41.038 10.335 39.3521 8.64918C37.666 6.96314 36.1195 5.77724 34.82 4.94842ZM28.3491 10.06C29.8197 11.0826 31.5801 12.5031 33.5354 14.4584C35.4936 16.4165 36.9162 18.1801 37.9402 19.6531L38.9508 18.6425C40.1033 17.49 40.2317 16.196 39.6805 15.3319C39.0095 14.2799 38.0065 12.9604 36.5237 11.4777C35.0408 9.99485 33.7212 8.99188 32.6691 8.32089C31.8049 7.7697 30.511 7.89814 29.3585 9.05059L28.3491 10.06Z" fill="#646464"/>
<path fill-rule="evenodd" clip-rule="evenodd" d="M37.1841 28.202C36.6721 27.266 35.3279 27.266 34.8159 28.202L33.1237 31.2961C32.7018 32.0675 32.0675 32.7018 31.296 33.1237L28.202 34.8159C27.266 35.3279 27.266 36.6721 28.202 37.1841L31.296 38.8763C32.0675 39.2982 32.7018 39.9325 33.1237 40.7039L34.8159 43.798C35.3279 44.734 36.6721 44.734 37.1841 43.7979L38.8763 40.7039C39.2982 39.9325 39.9325 39.2982 40.7039 38.8763L43.798 37.1841C44.734 36.6721 44.734 35.3279 43.7979 34.8159L40.7039 33.1237C39.9325 32.7018 39.2982 32.0675 38.8763 31.2961L37.1841 28.202Z" fill="#646464"/>
</svg>
