<svg width="48" height="48" viewBox="0 0 48 48" fill="none" xmlns="http://www.w3.org/2000/svg">
<path d="M14.4999 12.0044C14.4996 12.7475 14.3636 13.4586 14.1159 14.1156C13.4592 14.3632 12.7475 14.4993 12.0041 14.5002H11.9956C11.2528 14.4993 10.5411 14.3636 9.88437 14.1159C9.63676 13.4592 9.50039 12.7475 9.50008 12.0044V11.9956C9.50039 11.2528 9.63645 10.5411 9.88374 9.88468C10.5405 9.63676 11.2525 9.50039 11.9956 9.50008H12.0041C12.7475 9.50039 13.4592 9.63676 14.1159 9.88468C14.3636 10.5411 14.4996 11.2528 14.4999 11.9956V12.0044ZM21.8611 10.3334H16.0239L20.1511 6.20581C19.8269 5.7502 19.4652 5.32286 19.0709 4.92852C18.6765 4.53449 18.2492 4.17313 17.7939 3.84886L13.6663 7.97643V2.1392C13.1262 2.04839 12.5712 2.00031 12.005 2H11.9947C11.4284 2.00031 10.8738 2.04839 10.3334 2.1392V7.97643L6.20581 3.84886C5.7502 4.17313 5.32317 4.53449 4.92946 4.92883L4.92726 4.9304C4.53354 5.32412 4.17282 5.75082 3.84855 6.20581L7.97643 10.3334H2.1392C2.1392 10.3334 2 11.4297 2 11.9965V12.0035C2 12.5703 2.04808 13.1258 2.1392 13.6666H7.97643L3.84855 17.7942C4.49772 18.7051 5.29489 19.5026 6.20581 20.1515L10.3334 16.0236V21.8611C10.8735 21.9516 11.4275 21.9994 11.9928 22H12.0069C12.5725 21.9994 13.1271 21.9516 13.6663 21.8611V16.0236L17.7942 20.1515C18.2495 19.8272 18.6765 19.4658 19.0709 19.0718C19.4646 18.6775 19.8272 18.2492 20.1511 17.7942L16.0233 13.6666H21.8611C21.9519 13.1268 21.9994 12.5728 22 12.0072V11.9928C21.9994 11.4272 21.9519 10.8732 21.8611 10.3334Z" fill="#FF4A00"/>
<path d="M36 12C36 11.1159 36.3688 10.2681 37.0252 9.64298C37.6815 9.01786 38.5718 8.66667 39.5 8.66667C40.4283 8.66667 41.3185 9.01786 41.9749 9.64298C42.6313 10.2681 43 11.1159 43 12C43 12.8841 42.6313 13.7319 41.9749 14.357C41.3185 14.9821 40.4283 15.3333 39.5 15.3333C38.5718 15.3333 37.6815 14.9821 37.0252 14.357C36.3688 13.7319 36 12.8841 36 12Z" fill="#1ABCFE"/>
<path d="M29 18.6667C29 17.7826 29.3688 16.9348 30.0252 16.3096C30.6815 15.6845 31.5718 15.3333 32.5 15.3333H36V18.6667C36 19.5507 35.6313 20.3986 34.9749 21.0237C34.3185 21.6488 33.4283 22 32.5 22C31.5718 22 30.6815 21.6488 30.0252 21.0237C29.3688 20.3986 29 19.5507 29 18.6667Z" fill="#0ACF83"/>
<path d="M36 2V8.66667H39.5C40.4283 8.66667 41.3185 8.31548 41.9749 7.69036C42.6313 7.06523 43 6.21739 43 5.33333C43 4.44928 42.6313 3.60143 41.9749 2.97631C41.3185 2.35119 40.4283 2 39.5 2H36Z" fill="#FF7262"/>
<path d="M29 5.33333C29 6.21739 29.3688 7.06523 30.0252 7.69036C30.6815 8.31548 31.5718 8.66667 32.5 8.66667H36V2H32.5C31.5718 2 30.6815 2.35119 30.0252 2.97631C29.3688 3.60143 29 4.44928 29 5.33333Z" fill="#F24E1E"/>
<path d="M29 12C29 12.8841 29.3688 13.7319 30.0252 14.357C30.6815 14.9821 31.5718 15.3333 32.5 15.3333H36V8.66667H32.5C31.5718 8.66667 30.6815 9.01786 30.0252 9.64298C29.3688 10.2681 29 11.1159 29 12Z" fill="#A259FF"/>
<path d="M27.512 42.4268L28.394 43.9614C28.5773 44.2845 28.8408 44.5384 29.1501 44.723L32.3001 39.2307H26C26 39.5884 26.0916 39.9461 26.2749 40.2691L27.512 42.4268Z" fill="#0066DA"/>
<path d="M36 32.7691L32.8499 27.2768C32.5407 27.4614 32.2772 27.7153 32.0939 28.0384L26.2749 38.1922C26.095 38.5083 26.0002 38.8663 26 39.2307H32.3001L36 32.7691Z" fill="#00AC47"/>
<path d="M42.8499 44.723C43.1592 44.5384 43.4227 44.2845 43.606 43.9614L43.9725 43.3268L45.7251 40.2691C45.9084 39.9461 46 39.5884 46 39.2307H39.6994L41.0401 41.8845L42.8499 44.723Z" fill="#EA4335"/>
<path d="M36 32.7691L39.1501 27.2768C38.8408 27.0922 38.4857 26.9999 38.1191 26.9999H33.8809C33.5143 26.9999 33.1592 27.1038 32.8499 27.2768L36 32.7691Z" fill="#00832D"/>
<path d="M39.6994 39.2307H32.3001L29.1501 44.723C29.4593 44.9076 29.8144 44.9999 30.181 44.9999H41.819C42.1856 44.9999 42.5407 44.8961 42.8499 44.723L39.6994 39.2307Z" fill="#2684FC"/>
<path d="M42.8156 33.1153L39.9061 28.0384C39.7228 27.7153 39.4593 27.4614 39.1501 27.2768L36 32.7691L39.6994 39.2307H45.9885C45.9885 38.873 45.8969 38.5153 45.7136 38.1922L42.8156 33.1153Z" fill="#FFBA00"/>
<path fill-rule="evenodd" clip-rule="evenodd" d="M12 26C6.475 26 2 30.475 2 36C2 40.425 4.8625 44.1625 8.8375 45.4875C9.3375 45.575 9.525 45.275 9.525 45.0125C9.525 44.775 9.5125 43.9875 9.5125 43.15C7 43.6125 6.35 42.5375 6.15 41.975C6.0375 41.6875 5.55 40.8 5.125 40.5625C4.775 40.375 4.275 39.9125 5.1125 39.9C5.9 39.8875 6.4625 40.625 6.65 40.925C7.55 42.4375 8.9875 42.0125 9.5625 41.75C9.65 41.1 9.9125 40.6625 10.2 40.4125C7.975 40.1625 5.65 39.3 5.65 35.475C5.65 34.3875 6.0375 33.4875 6.675 32.7875C6.575 32.5375 6.225 31.5125 6.775 30.1375C6.775 30.1375 7.6125 29.875 9.525 31.1625C10.325 30.9375 11.175 30.825 12.025 30.825C12.875 30.825 13.725 30.9375 14.525 31.1625C16.4375 29.8625 17.275 30.1375 17.275 30.1375C17.825 31.5125 17.475 32.5375 17.375 32.7875C18.0125 33.4875 18.4 34.375 18.4 35.475C18.4 39.3125 16.0625 40.1625 13.8375 40.4125C14.2 40.725 14.5125 41.325 14.5125 42.2625C14.5125 43.6 14.5 44.675 14.5 45.0125C14.5 45.275 14.6875 45.5875 15.1875 45.4875C17.1726 44.8173 18.8976 43.5414 20.1197 41.8395C21.3418 40.1375 21.9994 38.0952 22 36C22 30.475 17.525 26 12 26Z" fill="#202020"/>
</svg>
