<svg width="48" height="48" viewBox="0 0 48 48" fill="none" xmlns="http://www.w3.org/2000/svg">
<path d="M40 12C40 10.8954 39.1046 10 38 10H10C8.89558 10 8 10.8954 8.00001 12C8.00001 13.0771 7.99999 14.136 8.00001 15H40V12ZM10.0117 19C10.0233 20.2156 10.047 21.9032 10.0918 23.8301C10.183 27.7558 10.3633 32.6362 10.7227 36.5586C10.8672 38.1326 12.0894 39.327 13.6816 39.4375C19.6855 39.853 28.2474 39.8536 34.3926 39.4414C36.0497 39.3301 37.3279 38.0563 37.4453 36.3867C37.7215 32.4502 37.8599 27.6095 37.9297 23.7344C37.9637 21.8466 37.9813 20.1954 37.9902 19H10.0117ZM30 23C31.1046 23 32 23.8954 32 25C32 26.1046 31.1046 27 30 27H18C16.8954 27 16 26.1046 16 25C16 23.8954 16.8954 23 18 23H30ZM44 15C44 16.4821 43.1917 17.7718 41.9941 18.4629C41.9932 18.6131 41.9934 18.7735 41.9922 18.9434C41.9834 20.156 41.9648 21.856 41.9297 23.8066C41.8595 27.6996 41.7192 32.6231 41.4356 36.666C41.1795 40.3163 38.3239 43.1877 34.6602 43.4336C28.3382 43.8576 19.5954 43.856 13.4063 43.4277C9.87105 43.1831 7.06498 40.4661 6.74024 36.9219C6.36806 32.8595 6.1835 27.8695 6.0918 23.9219C6.04583 21.9425 6.02322 20.2143 6.01172 18.9805C6.01002 18.7976 6.00906 18.6252 6.00782 18.4648C4.80967 17.7748 4.00026 16.4854 4.00001 15.002C3.99999 14.1377 4.00001 13.0776 4.00001 12C4 8.68643 6.6863 6 10 6H38C41.3137 6 44 8.68632 44 12V15Z" fill="#646464"/>
</svg>
