<svg width="48" height="48" viewBox="0 0 48 48" fill="none" xmlns="http://www.w3.org/2000/svg">
<path fill-rule="evenodd" clip-rule="evenodd" d="M35.8658 25.1174C30.8211 25.1174 26.7316 29.1206 26.7316 34.0588C26.7316 38.9969 30.8211 43 35.8658 43C40.9106 43 45 38.9969 45 34.0588C45 29.1206 40.9106 25.1174 35.8658 25.1174ZM12.1342 25.1182C7.08959 25.1182 3 29.1206 3 34.0588C3 38.9969 7.08959 43 12.1342 43C17.1791 43 21.2689 38.9969 21.2689 34.0588C21.2689 29.1206 17.1791 25.1182 12.1342 25.1182ZM33.1341 13.9409C33.1341 18.8792 29.0447 22.8827 24.0001 22.8827C18.9552 22.8827 14.8658 18.8792 14.8658 13.9409C14.8658 9.00348 18.9552 5 24.0001 5C29.0447 5 33.1341 9.00348 33.1341 13.9409Z" fill="#F06A6A"/>
</svg>
