<svg width="48" height="48" viewBox="0 0 48 48" fill="none" xmlns="http://www.w3.org/2000/svg">
<path d="M17.8676 41.7614C17.8376 42.8939 17.4354 43.8456 16.7227 43.9509C16.5183 43.9811 16.279 44 16 44C15.721 44 15.4817 43.9811 15.2774 43.9509C14.5646 43.8456 14.1624 42.8939 14.1324 41.7614C14.0743 39.5722 14 32.846 14 23C14 13.154 14.0743 8.42785 14.1324 6.23857C14.1624 5.10609 14.5646 4.15448 15.2774 4.04908C15.4817 4.01887 15.721 4 16 4C16.279 4 16.5183 4.01887 16.7227 4.04908C17.4354 4.15448 17.8376 5.10609 17.8676 6.23857C17.9257 8.42785 18 13.1539 18 23C18 32.8461 17.9257 39.5722 17.8676 41.7614Z" fill="#646464"/>
<path d="M7.57498 33.9925C6.70735 33.9604 6.1156 32.9138 6.07209 31.4512C6.03295 30.1349 6 26.105 6 23C6 19.895 6.03295 17.8651 6.07209 16.5488C6.1156 15.0862 6.70735 14.0396 7.57498 14.0075C7.70517 14.0027 7.84658 14 8 14C8.15342 14 8.29483 14.0027 8.42502 14.0075C9.29265 14.0396 9.8844 15.0862 9.92791 16.5488C9.96705 17.8651 10 19.8951 10 23C10 26.1049 9.96705 30.1349 9.92791 31.4512C9.8844 32.9138 9.29265 33.9604 8.42502 33.9925C8.29483 33.9973 8.15342 34 8 34C7.84658 34 7.70517 33.9973 7.57498 33.9925Z" fill="#646464"/>
<path d="M39.575 31.994C38.7074 31.9683 38.1156 31.1311 38.0721 29.961C38.0329 28.908 38 25.684 38 23.2C38 20.716 38.0329 19.092 38.0721 18.039C38.1156 16.8689 38.7074 16.0317 39.575 16.006C39.7052 16.0022 39.8466 16 40 16C40.1534 16 40.2948 16.0022 40.425 16.006C41.2926 16.0317 41.8844 16.8689 41.9279 18.039C41.9671 19.092 42 20.7161 42 23.2C42 25.6839 41.9671 28.908 41.9279 29.961C41.8844 31.1311 41.2926 31.9683 40.425 31.994C40.2948 31.9978 40.1534 32 40 32C39.8466 32 39.7052 31.9978 39.575 31.994Z" fill="#646464"/>
<path d="M24.4846 35.9878C25.3225 35.9435 25.8645 34.9872 25.9042 33.7223C25.9528 32.177 26 27.652 26 23.0769C26 18.5019 25.9528 15.8229 25.9042 14.2777C25.8645 13.0128 25.3225 12.0565 24.4846 12.0122C24.3383 12.0044 24.1771 12 24 12C23.8229 12 23.6617 12.0044 23.5154 12.0122C22.6775 12.0565 22.1355 13.0128 22.0958 14.2777C22.0472 15.8229 22 18.5019 22 23.0769C22 27.652 22.0472 32.177 22.0958 33.7223C22.1355 34.9872 22.6775 35.9435 23.5154 35.9878C23.6617 35.9956 23.8229 36 24 36C24.1771 36 24.3383 35.9956 24.4846 35.9878Z" fill="#646464"/>
<path d="M33.876 37.9718C33.8434 39.0286 33.4027 39.892 32.6525 39.969C32.4641 39.9883 32.2477 40 32 40C31.7523 40 31.5359 39.9883 31.3475 39.969C30.5973 39.892 30.1566 39.0286 30.124 37.9718C30.0674 36.1397 30 30.4029 30 23C30 15.5971 30.0674 11.8603 30.124 10.0282C30.1566 8.97141 30.5973 8.108 31.3475 8.03106C31.5359 8.01174 31.7523 8 32 8C32.2477 8 32.4641 8.01174 32.6525 8.03106C33.4027 8.108 33.8434 8.9714 33.876 10.0282C33.9326 11.8603 34 15.5971 34 23C34 30.4029 33.9326 36.1397 33.876 37.9718Z" fill="#646464"/>
</svg>
