<svg width="48" height="48" viewBox="0 0 48 48" fill="none" xmlns="http://www.w3.org/2000/svg">
<path fill-rule="evenodd" clip-rule="evenodd" d="M24 3.14282C16.1783 3.14282 9.66453 9.14315 9.0238 16.9386L8.56202 22.557C8.41069 24.3981 7.82603 26.1775 6.85584 27.7495L5.60819 29.7712C4.74446 31.1707 4.38557 32.8672 4.97616 34.4252C5.59699 36.063 7.07878 37.0561 8.86085 37.2932C10.4172 37.5002 12.5111 37.6917 15.3309 37.823C16.1712 41.8402 19.7333 44.8575 24.0003 44.8575C28.2672 44.8575 31.8294 41.8402 32.6697 37.823C35.4892 37.6917 37.583 37.5002 39.1393 37.2932C40.9214 37.0561 42.4032 36.063 43.024 34.4252C43.6146 32.8671 43.2556 31.1707 42.3919 29.7712L41.1443 27.7495C40.1741 26.1775 39.5894 24.3982 39.4381 22.557L38.9764 16.9387C38.3356 9.14317 31.8219 3.14282 24 3.14282Z" fill="#646464"/>
</svg>
