<svg width="48" height="48" viewBox="0 0 48 48" fill="none" xmlns="http://www.w3.org/2000/svg">
<path fill-rule="evenodd" clip-rule="evenodd" d="M36.4565 3.7181C37.2433 2.9429 38.5096 2.95235 39.2848 3.7392C42.5127 7.01566 44.6259 11.7211 44.998 17.0022C45.0756 18.1041 44.2454 19.0602 43.1435 19.1379C42.0417 19.2155 41.0855 18.3852 41.0079 17.2834C40.6974 12.8766 38.9421 9.09083 36.4354 6.54645C35.6602 5.75959 35.6696 4.4933 36.4565 3.7181Z" fill="#646464"/>
<path fill-rule="evenodd" clip-rule="evenodd" d="M11.5466 3.71809C12.3334 4.49329 12.3429 5.75959 11.5677 6.54644C9.06099 9.09082 7.30566 12.8766 6.99514 17.2834C6.9175 18.3852 5.96134 19.2155 4.85951 19.1379C3.75767 19.0602 2.92739 18.1041 3.00503 17.0022C3.37716 11.7211 5.4903 7.01566 8.71821 3.7392C9.49341 2.95235 10.7597 2.9429 11.5466 3.71809Z" fill="#646464"/>
<path fill-rule="evenodd" clip-rule="evenodd" d="M23.9998 3.14285C16.1781 3.14285 9.66434 9.14318 9.02362 16.9386L8.56183 22.557C8.41051 24.3982 7.82584 26.1775 6.85565 27.7495L5.608 29.7712C4.74428 31.1708 4.38538 32.8672 4.97598 34.4252C5.59681 36.063 7.0786 37.0562 8.86066 37.2932C10.4171 37.5002 12.511 37.6917 15.3307 37.823C16.171 41.8403 19.7332 44.8576 24.0001 44.8576C28.267 44.8576 31.8292 41.8403 32.6695 37.823C35.489 37.6917 37.5828 37.5002 39.1391 37.2932C40.9212 37.0562 42.403 36.063 43.0238 34.4252C43.6144 32.8672 43.2555 31.1707 42.3918 29.7712L41.1441 27.7495C40.1739 26.1775 39.5893 24.3982 39.4379 22.5571L38.9762 16.9387C38.3354 9.14319 31.8217 3.14285 23.9998 3.14285ZM13.0102 17.2663C13.4803 11.5459 18.2602 7.14285 23.9998 7.14285C29.7395 7.14285 34.5194 11.546 34.9896 17.2664L35.4514 22.8847C35.6294 25.051 36.2546 27.1535 37.2839 29.0605L38.9878 31.8719C39.3903 32.5241 39.3192 32.9133 39.2835 33.0074C39.2666 33.0521 39.2399 33.0949 39.1735 33.1428C39.1006 33.1955 38.934 33.2853 38.6117 33.3281C35.9994 33.6756 31.5323 34 23.9998 34C16.4675 34 12.0004 33.6756 9.3881 33.3281C9.06575 33.2853 8.89916 33.1955 8.82627 33.1428C8.75991 33.0949 8.73321 33.0521 8.71627 33.0074C8.6806 32.9133 8.60948 32.5241 9.01196 31.8719L10.2596 29.8503C11.5611 27.7414 12.3454 25.3545 12.5484 22.8847L13.0102 17.2663ZM19.5541 37.9592C20.3072 39.6661 22.0145 40.8576 24.0001 40.8576C25.9857 40.8576 27.693 39.6661 28.4461 37.9592C27.0899 37.9858 25.6113 38 23.9998 38C22.3884 38 20.9103 37.9858 19.5541 37.9592Z" fill="#646464"/>
</svg>
