<svg width="48" height="48" viewBox="0 0 48 48" fill="none" xmlns="http://www.w3.org/2000/svg">
<path fill-rule="evenodd" clip-rule="evenodd" d="M6.1875 7.23553C6.1875 5.49949 7.59484 4.09215 9.33088 4.09215H26.0956C32.4611 4.09215 37.6213 9.2524 37.6213 15.6179C37.6213 18.0425 36.8726 20.2923 35.5938 22.1487C39.2887 24.0686 41.8125 27.9309 41.8125 32.3826C41.8125 38.7481 36.6523 43.9083 30.2868 43.9083H9.33088C7.59484 43.9083 6.1875 42.501 6.1875 40.7649C6.1875 39.0289 7.59484 37.6216 9.33088 37.6216H10.3787V10.3789H9.33088C7.59484 10.3789 6.1875 8.97157 6.1875 7.23553ZM16.6654 10.3789V20.8569H26.0956C28.989 20.8569 31.3346 18.5113 31.3346 15.6179C31.3346 12.7245 28.989 10.3789 26.0956 10.3789H16.6654ZM16.6654 27.1436V37.6216H30.2868C33.1802 37.6216 35.5257 35.276 35.5257 32.3826C35.5257 29.4892 33.1802 27.1436 30.2868 27.1436H16.6654Z" fill="#646464"/>
</svg>
