<svg width="48" height="48" viewBox="0 0 48 48" fill="none" xmlns="http://www.w3.org/2000/svg">
<path fill-rule="evenodd" clip-rule="evenodd" d="M23.9976 9.91176L25.3656 7.52653L25.3703 7.52173C27.3047 4.15265 31.5813 3.00082 34.9316 4.94452C38.2819 6.88823 39.429 11.198 37.4947 14.567L36.1268 16.9523H39.0019C42.8657 16.9523 46 20.1054 46 23.9976C46 27.8898 42.8657 31.0429 39.0019 31.0429H36.1268L37.4947 33.4282C39.4242 36.7972 38.2819 41.107 34.9316 43.0507C31.5813 44.9944 27.2999 43.8426 25.3656 40.4783L23.9976 38.093L22.6297 40.4783C20.6953 43.8474 16.4187 44.9992 13.0684 43.0555C9.71812 41.1118 8.57096 36.802 10.5053 33.433L11.8732 31.0477H8.99815C5.13429 31.0477 2 27.8946 2 24.0024C2 20.1102 5.13429 16.9571 8.99815 16.9571H11.8732L10.5053 14.5718C8.57576 11.2028 9.71812 6.89303 13.0684 4.94932C16.4139 3.00082 20.6953 4.15744 22.6297 7.52653L23.9976 9.91176ZM22.8796 16.6951L21.2832 19.6042C20.8929 20.3314 20.2898 20.9168 19.5626 21.3248L16.6535 22.9212C15.7666 23.4002 15.7666 24.6596 16.6535 25.1385L19.5626 26.735C20.2898 27.1252 20.8752 27.7283 21.2832 28.4556L22.8796 31.3647C23.3586 32.2516 24.618 32.2516 25.0969 31.3647L26.6934 28.4556C27.0836 27.7283 27.6867 27.143 28.414 26.735L31.3231 25.1385C32.21 24.6596 32.21 23.4002 31.3231 22.9212L28.414 21.3248C27.6867 20.9345 27.1014 20.3314 26.6934 19.6042L25.0969 16.6951C24.618 15.8081 23.3586 15.8081 22.8796 16.6951Z" fill="#646464"/>
</svg>
