<svg width="48" height="48" viewBox="0 0 48 48" fill="none" xmlns="http://www.w3.org/2000/svg">
<path fill-rule="evenodd" clip-rule="evenodd" d="M12.62 33.82C14.7 33.94 16.84 34 19 34H18.98C19.9889 34 20.9979 33.988 22.0002 33.9606C22.0083 34.4982 22.0222 35.0331 22.04 35.56L22.0411 35.5923C22.1405 38.5142 22.2062 40.4462 23.88 42.12C25.5539 43.7938 27.4858 43.8595 30.4077 43.9589L30.44 43.96C31.28 44 32.14 44 33 44H33.02C33.88 44 34.74 43.98 35.58 43.96L35.6123 43.9589C38.5343 43.8595 40.4662 43.7938 42.14 42.12C43.8139 40.4462 43.8796 38.5142 43.9789 35.5923L43.98 35.56C44.04 33.86 44.04 32.14 43.98 30.44L43.9789 30.4077C43.8796 27.4858 43.8139 25.5538 42.14 23.88C40.4662 22.2062 38.5343 22.1405 35.6123 22.0411L35.58 22.04C35.0399 22.0217 34.4955 22.0118 33.9489 22.0064C34.0295 18.8718 33.9897 15.6671 33.8 12.6C33.62 9.64 33.5 7.68 31.9 6.08C30.3 4.48 28.34 4.36 25.38 4.18C21.26 3.94 16.74 3.94 12.62 4.18C9.66 4.36 7.68 4.5 6.08 6.1C4.48 7.7 4.36 9.66 4.18 12.62C3.94 16.74 3.94 21.26 4.18 25.4H4.2L4.20663 25.5092C4.3827 28.4083 4.5 30.3397 6.1 31.92C7.7 33.52 9.66 33.64 12.62 33.82ZM33.7614 26.0051C33.595 28.6209 33.3846 30.4154 31.9 31.9C30.4155 33.3845 28.6211 33.595 26.0055 33.7614C26.0107 34.3108 26.0207 34.8577 26.04 35.4C26.12 38.04 26.2 38.76 26.7 39.26C27.2 39.76 27.94 39.84 30.56 39.94C32.16 40 33.8 40 35.42 39.94C38.06 39.86 38.78 39.78 39.28 39.28C39.78 38.78 39.86 38.04 39.96 35.42C40.02 33.8 40.02 32.18 39.96 30.56C39.88 27.92 39.8 27.2 39.3 26.7C38.8 26.2 38.08 26.12 35.44 26.04C34.8846 26.0202 34.3242 26.0102 33.7614 26.0051ZM8.92 29.08C8.42 28.58 8.34 27.7 8.18 25.14L8.16 25.16C7.92 21.18 7.92 16.82 8.16 12.86C8.32 10.28 8.4 9.42 8.9 8.92C9.4 8.42 10.28 8.34 12.84 8.18C16.82 7.94 21.18 7.94 25.14 8.18C27.72 8.34 28.58 8.42 29.08 8.92C29.58 9.44 29.66 10.34 29.82 12.86C30.04 16.58 30.06 20.54 29.86 24.3L29.82 25.16C29.66 27.68 29.6 28.58 29.08 29.08C28.56 29.58 27.66 29.66 25.14 29.82L24.28 29.86C20.52 30.06 16.56 30.04 12.84 29.82C10.32 29.66 9.44 29.58 8.92 29.08Z" fill="#646464"/>
</svg>
