<svg width="48" height="48" viewBox="0 0 48 48" fill="none" xmlns="http://www.w3.org/2000/svg">
<path fill-rule="evenodd" clip-rule="evenodd" d="M23.9999 7.98487C24.5382 7.98405 25.0766 8.04905 25.5999 8.17986C27.3799 8.59986 30.8799 9.59986 35.2399 11.6799C38.6199 13.2999 40.9799 14.6999 42.4399 15.6599C44.5399 17.0399 44.5399 20.0199 42.4399 21.3999L42.4299 21.3933C42.4299 21.3933 42.4232 21.3977 42.4199 21.3999H42.4399C41.099 22.2815 38.9989 23.5344 36.0468 24.9879C39.0701 26.4632 41.17 27.7333 42.44 28.5799C43.42 29.2199 44.02 30.2999 44.02 31.4399C44.02 32.5799 43.44 33.6599 42.44 34.3199C41.06 35.2199 38.68 36.6599 35.24 38.2999C30.84 40.3999 27.32 41.3999 25.6 41.7999C25.08 41.9199 24.54 41.9799 24.02 41.9799L24 41.9999C23.46 41.9999 22.92 41.9399 22.4 41.8199C20.68 41.3999 17.16 40.4199 12.76 38.3199C9.3 36.6799 6.94 35.2599 5.56 34.3399C4.58 33.6999 4 32.6199 4 31.4599C4 30.2999 4.6 29.2399 5.58 28.5799C6.84917 27.7522 8.94724 26.4847 11.9676 24.9951C9.00773 23.5385 6.90297 22.283 5.55986 21.3999C3.45986 20.0199 3.45986 17.0399 5.55986 15.6599C7.01986 14.6999 9.37986 13.2999 12.7599 11.6799C17.1199 9.59986 20.6199 8.59986 22.3999 8.17986C22.9231 8.04905 23.4615 7.98405 23.9999 7.98487ZM16.9036 27.1575C16.1306 27.4769 15.3134 27.8363 14.46 28.2399C11.76 29.5199 9.8 30.6599 8.48 31.4799H8.5C9.82 32.2999 11.8 33.4399 14.48 34.7199C18.54 36.6599 21.76 37.5599 23.32 37.9399C23.76 38.0399 24.2 38.0399 24.64 37.9399C26.2 37.5599 29.44 36.6599 33.5 34.7199C36.18 33.4399 38.16 32.3199 39.48 31.4799C38.16 30.6599 36.2 29.5199 33.5 28.2399C32.6569 27.837 31.8499 27.479 31.0864 27.1612C28.6785 28.0784 26.7685 28.6041 25.5999 28.8799C25.0766 29.0107 24.5382 29.0757 23.9999 29.0749C23.4615 29.0757 22.9231 29.0107 22.3999 28.8799C21.2297 28.6038 19.3161 28.077 16.9036 27.1575Z" fill="#646464"/>
</svg>
