<svg width="48" height="48" viewBox="0 0 48 48" fill="none" xmlns="http://www.w3.org/2000/svg">
<path fill-rule="evenodd" clip-rule="evenodd" d="M25.3857 4.18635C21.2478 3.93788 16.7523 3.93788 12.6143 4.18635L12.4889 4.19387C11.2116 4.27041 10.043 4.34044 9.06773 4.54778C7.96524 4.78217 6.96713 5.21572 6.09141 6.09144C5.21569 6.96717 4.78214 7.96528 4.54775 9.06777C4.34042 10.043 4.27039 11.2117 4.19386 12.489L4.18634 12.6144C3.93789 16.7523 3.93789 21.2477 4.18634 25.3856L4.19385 25.511C4.27039 26.7883 4.34041 27.957 4.54775 28.9323C4.78214 30.0348 5.21569 31.0329 6.09142 31.9086C6.96718 32.7844 7.96538 33.2179 9.06791 33.4523C10.0432 33.6596 11.212 33.7296 12.4895 33.8062L12.6148 33.8137C15.6484 33.9958 18.8726 34.0443 22.0059 33.9596C22.0124 34.4957 22.0245 35.0301 22.0421 35.5601C22.0467 35.6991 22.051 35.8377 22.0552 35.9758L22.0553 35.978C22.1259 38.2823 22.1918 40.4323 23.8797 42.1203C25.5677 43.8082 27.7178 43.8741 30.0222 43.9447L30.0243 43.9448C30.1624 43.949 30.301 43.9533 30.4402 43.9579C32.5566 44.0281 34.746 44.0105 36.8292 43.9047L37.0475 43.8938C38.3081 43.8316 39.4571 43.7749 40.6312 43.1594C41.6208 42.6406 42.6406 41.6208 43.1594 40.6312C43.7749 39.4572 43.8316 38.3082 43.8938 37.0476L43.9047 36.8292C44.0105 34.746 44.0281 32.5565 43.9579 30.4401C43.9533 30.301 43.949 30.1623 43.9448 30.0242L43.9447 30.0221C43.8741 27.7178 43.8082 25.5677 42.1203 23.8797C40.4323 22.1918 38.2823 22.1259 35.9781 22.0553C35.8393 22.051 35.7 22.0468 35.5602 22.0421C35.0302 22.0245 34.4957 22.0124 33.9596 22.0059C34.0443 18.8726 33.9958 15.6484 33.8137 12.6148L33.8062 12.4893C33.7296 11.2119 33.6596 10.0432 33.4522 9.06789C33.2179 7.96537 32.7843 6.9672 31.9086 6.09145C31.0329 5.21573 30.0348 4.78217 28.9323 4.54778C27.957 4.34044 26.7884 4.27041 25.5111 4.19387L25.3857 4.18635ZM29.9566 22.0573C30.0444 18.9871 29.999 15.8207 29.8209 12.8545C29.7342 11.4105 29.6771 10.5461 29.5397 9.89965C29.4225 9.34864 29.2778 9.11752 29.0801 8.91987C28.8825 8.72219 28.6514 8.57746 28.1004 8.46033C27.4541 8.32293 26.5898 8.26586 25.146 8.17916C21.1677 7.94028 16.8323 7.94028 12.8541 8.17916C11.4102 8.26586 10.5459 8.32292 9.89955 8.46033C9.34863 8.57746 9.11752 8.72219 8.91984 8.91987C8.72217 9.11754 8.57744 9.34865 8.46031 9.89957C8.32291 10.5459 8.26584 11.4102 8.17915 12.8541C7.94029 16.8323 7.94028 21.1677 8.17914 25.1459C8.26584 26.5898 8.3229 27.4541 8.46031 28.1005C8.57744 28.6514 8.72217 28.8825 8.91985 29.0802C9.11749 29.2778 9.34861 29.4226 9.89965 29.5397C10.5461 29.6771 11.4105 29.7342 12.8546 29.8209C15.8208 29.999 18.9872 30.0443 22.0573 29.9566C22.1273 27.6771 22.2077 25.5517 23.8797 23.8797C25.5517 22.2078 27.6771 22.1273 29.9566 22.0573ZM30.5726 26.0399C32.1757 25.9867 33.8244 25.9867 35.4274 26.0399C38.4263 26.1395 38.8475 26.2639 39.2918 26.7082C39.7361 27.1525 39.8605 27.5737 39.9601 30.5728C40.0267 32.5802 40.0099 34.6577 39.9099 36.6262C39.8294 38.209 39.781 38.4604 39.6167 38.774C39.4753 39.0435 39.0435 39.4754 38.774 39.6167C38.4604 39.7811 38.209 39.8294 36.6262 39.9099C34.6577 40.0099 32.5803 40.0267 30.5729 39.9601C27.5737 39.8605 27.1525 39.7362 26.7082 39.2919C26.2638 38.8475 26.1395 38.4263 26.0399 35.4273C25.9867 33.8243 25.9867 32.1757 26.0399 30.5727C26.1395 27.5737 26.2638 27.1525 26.7082 26.7082C27.1525 26.2639 27.5737 26.1395 30.5726 26.0399Z" fill="#646464"/>
</svg>
