<svg width="48" height="48" viewBox="0 0 48 48" fill="none" xmlns="http://www.w3.org/2000/svg">
<path fill-rule="evenodd" clip-rule="evenodd" d="M23.06 21.1C18.58 21.1 15.08 21 12.64 20.78C10.08 20.56 8.22 18.62 8.08 16.04C8.04 15.16 8 14.02 8 12.54C8 11.06 8.04 9.92 8.08 9.04C8.22 6.48 10.08 4.52 12.62 4.32C15.06 4.12 18.56 4 23.04 4C27.52 4 31.02 4.1 33.46 4.32C36 4.54 37.88 6.48 38.02 9.06C38.0332 9.35068 38.0464 9.66972 38.0582 10.02H39.5396C41.8996 10.02 43.8396 11.84 43.9396 14.18C43.9796 15.3 44.0196 18.8 43.9796 20.38C43.8996 22.92 41.8996 25.02 39.2996 25.24C38.4475 25.3191 37.438 25.4112 36.3112 25.514C33.7349 25.749 30.545 26.04 27.2196 26.36C26.5596 26.42 26.0596 26.96 26.0596 27.62V28.0624C26.1504 28.0682 26.2372 28.0741 26.32 28.08C28.24 28.22 29.7 29.62 29.9 31.5C30.02 32.66 30.08 34.18 30.08 36C30.08 37.82 30.02 39.34 29.9 40.5C29.7 42.38 28.24 43.78 26.32 43.92C25.76 43.96 25.02 44 24.08 44H24.06C23.1 44 22.38 43.96 21.8 43.92C19.88 43.78 18.42 42.38 18.22 40.5C18.1 39.32 18.04 37.8 18.04 36C18.04 34.2 18.1 32.68 18.22 31.5C18.42 29.62 19.88 28.22 21.8 28.08C21.8826 28.0741 21.9691 28.0682 22.0596 28.0624V27.62C22.0596 24.88 24.1196 22.62 26.8396 22.38C31.3242 21.9672 35.5799 21.572 38.4011 21.31L38.9396 21.26C39.5196 21.2 39.9596 20.78 39.9796 20.26C40.0196 18.78 39.9796 15.38 39.9396 14.34C39.9396 14.12 39.7196 14.02 39.5396 14.02H38.0865C38.0714 14.8215 38.0457 15.4945 38.02 16.06C37.88 18.64 36.02 20.58 33.46 20.8C31.02 21 27.52 21.12 23.04 21.12L23.06 21.1ZM23.06 8C17.62 8 14.58 8.16 12.98 8.3C12.42 8.34 12.12 8.66 12.08 9.26C12.04 10.08 12 11.16 12 12.56C12 13.96 12.04 15.02 12.08 15.86C12.12 16.44 12.42 16.76 12.98 16.82C14.58 16.96 17.64 17.12 23.06 17.12C28.48 17.12 31.54 16.96 33.14 16.82C33.7 16.78 34 16.46 34.04 15.86C34.08 15.02 34.12 13.96 34.12 12.56C34.12 11.16 34.1 10.1 34.04 9.26C34.02 8.68 33.7 8.34 33.14 8.3C31.54 8.16 28.5 8 23.06 8ZM25.92 39.94C24.98 40 23.2 40.02 22.18 39.94C22.12 39.2 22.04 37.94 22.04 36C22.04 34.06 22.12 32.8 22.18 32.06C23.12 32 24.9 31.98 25.92 32.06C25.98 32.8 26.06 34.06 26.06 36C26.06 37.94 26 39.2 25.92 39.94Z" fill="#646464"/>
</svg>
