<svg width="48" height="48" viewBox="0 0 48 48" fill="none" xmlns="http://www.w3.org/2000/svg">
<path d="M17.0598 4.23596C17.6472 4.56427 18.0111 5.18472 18.0108 5.85768L18.0286 22.1828H23.8933C27.0983 22.1823 29.988 24.1126 31.2149 27.0735C32.4417 30.0344 31.7641 33.4428 29.498 35.7093C27.2318 37.9758 23.8235 38.6539 20.8624 37.4275C17.9013 36.2011 15.9706 33.3117 15.9706 30.1067L15.9635 24.2504H12.0664V30.1067C12.0664 36.6385 17.3615 41.9336 23.8933 41.9336C30.4251 41.9336 35.7202 36.6385 35.7202 30.1067C35.7202 23.5749 30.4251 18.2798 23.8933 18.2798H22.1007C21.5301 18.2798 21.0675 17.8172 21.0675 17.2466C21.0675 16.676 21.5301 16.2134 22.1007 16.2134H23.8933C31.5664 16.2134 37.7866 22.4336 37.7866 30.1067C37.7866 37.7798 31.5664 44 23.8933 44C16.2238 43.9915 10.0085 37.7762 10 30.1067V23.2172C10 22.6464 10.4624 22.1834 11.0332 22.1828H15.9611L15.9444 6.23262L12.0664 8.6192V17.7013C12.0664 18.2719 11.6038 18.7345 11.0332 18.7345C10.4626 18.7345 10 18.2719 10 17.7013V8.50136C10.0016 7.85664 10.336 7.25846 10.8844 6.91943L15.1802 4.27575C15.7533 3.92288 16.4724 3.90766 17.0598 4.23596ZM23.8874 24.2504H18.031V30.1055C18.0305 32.4743 19.4571 34.6101 21.6454 35.5169C23.8337 36.4237 26.3528 35.923 28.028 34.2482C29.7031 32.5734 30.2044 30.0544 29.298 27.8658C28.3916 25.6773 26.2561 24.2504 23.8874 24.2504ZM23.8933 28.4498C24.8084 28.4498 25.5502 29.1916 25.5502 30.1067C25.5502 31.0218 24.8084 31.7636 23.8933 31.7636C22.9782 31.7636 22.2364 31.0218 22.2364 30.1067C22.2364 29.1916 22.9782 28.4498 23.8933 28.4498Z" fill="white"/>
</svg>
