<svg width="48" height="48" viewBox="0 0 48 48" fill="none" xmlns="http://www.w3.org/2000/svg">
<path fill-rule="evenodd" clip-rule="evenodd" d="M24.0001 6C22.7887 6 21.4093 6.35602 20.0859 6.81639C18.7234 7.29036 17.2479 7.93756 15.7899 8.64611C12.8719 10.0642 9.89359 11.7921 7.80639 13.0577C5.36664 14.537 4.0587 17.1839 4.03775 19.8883C4.03464 20.2905 4.02914 20.6964 4.02329 21.1286C4.01228 21.9427 4 22.8499 4 24.0001C4 29.4245 4.21946 33.3081 4.44062 35.8446C4.71111 38.947 7.10176 41.3436 10.1854 41.5713C12.9927 41.7788 17.5092 42.0001 24 42.0001C30.4908 42.0001 35.0072 41.7788 37.8146 41.5713C40.8983 41.3436 43.2889 38.947 43.5594 35.8445C43.7805 33.3081 44 29.4245 44 24.0001C44 22.8499 43.9877 21.9427 43.9767 21.1285C43.9709 20.6964 43.9654 20.2904 43.9622 19.8883C43.9413 17.1838 42.6334 14.5369 40.1936 13.0576C38.1064 11.7921 35.1281 10.0641 32.2102 8.64608C30.7522 7.93754 29.2767 7.29035 27.9142 6.81638C26.5908 6.35602 25.2115 6 24.0001 6ZM17.5383 12.2438C14.7811 13.5837 11.9228 15.2396 9.88027 16.4781C8.99618 17.0141 8.3738 17.92 8.13989 18.9931C8.4316 19.1766 8.77705 19.392 9.16698 19.6318C10.4511 20.4218 12.2096 21.4724 14.1147 22.5204C16.026 23.5718 18.0521 24.6024 19.8776 25.3647C21.7819 26.1598 23.2004 26.5455 23.9999 26.5455C24.7994 26.5455 26.218 26.1598 28.1222 25.3647C29.9478 24.6024 31.9739 23.5718 33.8852 22.5204C35.7903 21.4724 37.5488 20.4218 38.833 19.6318C39.2229 19.3919 39.5684 19.1765 39.8601 18.993C39.6262 17.9199 39.0038 17.014 38.1197 16.478C36.0773 15.2396 33.219 13.5836 30.4618 12.2438C29.0823 11.5733 27.7607 10.9981 26.6 10.5943C25.4002 10.177 24.5304 10 24.0001 10C23.4698 10 22.5999 10.177 21.4001 10.5943C20.2395 10.9981 18.9178 11.5734 17.5383 12.2438ZM8 24.0001C8 29.3169 8.21512 33.0842 8.4255 35.4971C8.52891 36.6832 9.39124 37.5018 10.4801 37.5822C13.1819 37.7818 17.5998 38.0001 24 38.0001C30.4002 38.0001 34.8181 37.7818 37.5199 37.5822C38.6087 37.5018 39.4711 36.6832 39.5745 35.4971C39.7849 33.0842 40 29.3169 40 24.0001L39.9995 23.6052C38.8099 24.3238 37.361 25.1736 35.8132 26.0251C33.841 27.11 31.6752 28.2158 29.6635 29.0558C27.7304 29.863 25.6661 30.5455 23.9999 30.5455C22.3337 30.5455 20.2695 29.863 18.3364 29.0558C16.3247 28.2158 14.1589 27.11 12.1867 26.0251C10.6389 25.1737 9.19007 24.3239 8.00048 23.6053L8 24.0001Z" fill="#646464"/>
</svg>
