<svg width="48" height="48" viewBox="0 0 48 48" fill="none" xmlns="http://www.w3.org/2000/svg">
<path fill-rule="evenodd" clip-rule="evenodd" d="M20.5171 4.02506C21.6083 4.00895 22.7687 4 24 4C26.9521 4 29.4965 4.05147 31.6582 4.12956C34.1552 4.21977 36.1416 4.34552 37.6558 4.46854C39.2236 4.59592 40.634 5.26452 41.6848 6.31525C42.7355 7.36597 43.4041 8.77645 43.5314 10.3442C43.6545 11.8583 43.7802 13.8448 43.8704 16.3418C43.9485 18.5035 44 21.0479 44 24C44 25.2313 43.991 26.3917 43.9749 27.4829C43.9078 32.0301 43.7165 35.3776 43.5314 37.6558C43.2741 40.8228 40.8228 43.2741 37.6558 43.5314C35.3776 43.7165 32.0301 43.9078 27.4829 43.9749C26.3917 43.991 25.2313 44 24 44C21.0479 44 18.5035 43.9485 16.3418 43.8704C13.8448 43.7802 11.8583 43.6545 10.3442 43.5314C8.77645 43.4041 7.36597 42.7355 6.31525 41.6848C5.26452 40.634 4.59591 39.2236 4.46853 37.6558C4.34552 36.1417 4.21978 34.1554 4.12957 31.6586C4.05147 29.4969 4 26.9523 4 24C4 22.7687 4.00895 21.6083 4.02506 20.5171C4.09216 15.9699 4.28344 12.6224 4.46854 10.3442C4.72585 7.17719 7.1772 4.72584 10.3442 4.46853C12.6224 4.28343 15.9699 4.09216 20.5171 4.02506ZM21.3857 8.01418L8.01418 21.3857C8.00498 22.2174 8 23.0885 8 24C8 25.005 8.00606 25.961 8.01714 26.8691L26.8688 8.01714C25.9608 8.00606 25.0049 8 24 8C23.0885 8 22.2174 8.00498 21.3857 8.01418ZM32.3821 8.1606L8.16061 32.3825C8.23275 34.1242 8.32159 35.5782 8.41071 36.7609L36.7609 8.41072C35.5781 8.32159 34.124 8.23274 32.3821 8.1606ZM39.5893 11.2392L11.2392 39.5893C12.422 39.6784 13.8761 39.7672 15.6179 39.8394L39.8394 15.6179C39.7672 13.8761 39.6784 12.422 39.5893 11.2392ZM39.9829 21.1313L21.1313 39.9829C22.0393 39.9939 22.9951 40 24 40C24.9115 40 25.7826 39.995 26.6143 39.9858L39.9858 26.6143C39.995 25.7826 40 24.9115 40 24C40 22.9951 39.9939 22.0393 39.9829 21.1313ZM39.8379 32.4191L32.4191 39.8379C34.4353 39.7539 36.0643 39.6476 37.3319 39.5446C38.5454 39.446 39.446 38.5454 39.5446 37.3319C39.6476 36.0643 39.7539 34.4353 39.8379 32.4191ZM8.16213 15.5809L15.5809 8.16213C13.5647 8.2461 11.9356 8.35241 10.6681 8.4554C9.45459 8.55399 8.554 9.45459 8.45541 10.6681C8.35242 11.9356 8.24611 13.5647 8.16213 15.5809Z" fill="#646464"/>
</svg>
