<svg width="48" height="48" viewBox="0 0 48 48" fill="none" xmlns="http://www.w3.org/2000/svg">
<path d="M13.8953 26.6796C11.9906 27.0118 11.3987 29.2828 12.6865 31.045C13.6114 32.3106 14.8869 33.954 16.6206 36.0114C18.7068 38.4878 20.351 40.0643 21.5526 41.0585C23.0692 42.3137 24.9317 42.3139 26.4484 41.0587C27.65 40.0645 29.2942 38.488 31.3803 36.0114C33.1133 33.9544 34.3884 32.3112 35.3132 31.0458C36.6015 29.2833 36.0094 27.0115 34.1044 26.6794C32.0423 26.3199 28.8462 26 24.0004 26C19.1536 26 15.9574 26.3201 13.8953 26.6796Z" fill="#646464"/>
<path d="M34.1047 21.3204C36.0094 20.9882 36.6013 18.7172 35.3135 16.955C34.3886 15.6894 33.1131 14.046 31.3794 11.9886C29.2932 9.51222 27.649 7.93572 26.4474 6.94147C24.9308 5.68631 23.0683 5.68611 21.5516 6.94126C20.35 7.93551 18.7058 9.51201 16.6197 11.9886C14.8867 14.0456 13.6116 15.6888 12.6868 16.9542C11.3985 18.7168 11.9906 20.9885 13.8956 21.3206C15.9577 21.6801 19.1538 22 23.9996 22C28.8464 22 32.0426 21.6799 34.1047 21.3204Z" fill="#646464"/>
</svg>
