<svg width="48" height="48" viewBox="0 0 48 48" fill="none" xmlns="http://www.w3.org/2000/svg">
<path d="M28.0999 24.6201C31.0799 28.7201 32.3799 28.7201 32.9999 28.7201C33.6199 28.7201 34.9199 28.7201 37.8999 24.6201C38.5599 23.7201 38.3599 22.4601 37.4599 21.8201C36.5599 21.1601 35.2999 21.3601 34.6599 22.2601C34.1199 23.0001 33.4799 23.7601 32.9999 24.2801C32.4999 23.7601 31.8599 22.9801 31.3399 22.2601C30.6799 21.3601 29.4399 21.1601 28.5399 21.8201C27.6599 22.4801 27.4599 23.7201 28.0999 24.6201Z" fill="#646464"/>
<path fill-rule="evenodd" clip-rule="evenodd" d="M24 38.54C17.38 38.54 12.82 38.36 10.16 38.2C7.12 38.02 4.68 35.74 4.38 32.76C4.14 30.3 4 27.44 4 24.26C4 21.08 4.12 18.22 4.38 15.76C4.68 12.8 7.1 10.5 10.16 10.34C12.8 10.18 17.36 10 24 10C30.64 10 35.2 10.18 37.84 10.34C40.88 10.52 43.32 12.8 43.62 15.78C43.86 18.26 44 21.12 44 24.28C44 27.44 43.88 30.3 43.62 32.78C43.32 35.76 40.88 38.04 37.84 38.22C35.18 38.38 30.62 38.56 24 38.56V38.54ZM10.38 14.32C12.7066 14.1947 16.5226 14.0374 22 14.0057V34.5143C16.5363 34.4825 12.7059 34.3252 10.38 34.2C9.28 34.14 8.46 33.4 8.36 32.36C8.12 30.04 8 27.3 8 24.26C8 21.22 8.12 18.48 8.36 16.16C8.46 15.12 9.28 14.38 10.38 14.32ZM37.62 34.2C35.2985 34.325 31.4783 34.4819 26.0312 34.5141V14.0059C31.4954 14.038 35.3156 14.195 37.62 14.32C38.72 14.38 39.54 15.12 39.64 16.16C39.88 18.5 40 21.24 40 24.26C40 27.28 39.88 30.02 39.64 32.36C39.54 33.4 38.72 34.14 37.62 34.2Z" fill="#646464"/>
</svg>
