<svg width="48" height="48" viewBox="0 0 48 48" fill="none" xmlns="http://www.w3.org/2000/svg">
<path d="M9.85995 44C5.71995 44 4.21995 40.16 3.99995 38.12C3.87995 37.02 4.67995 36.04 5.77995 35.92C6.87995 35.8 7.85995 36.6 7.97995 37.7C7.99995 37.92 8.29995 40 9.83995 40C14.1499 40 15.633 31.7189 17.0699 23.6964L17.08 23.64C17.2819 22.5189 17.4846 21.3934 17.6973 20.2798H14.5601C13.4601 20.2798 12.5601 19.3798 12.5601 18.2798C12.5601 17.1798 13.4601 16.2798 14.5601 16.2798H18.5374C20.1379 9.49659 22.5952 4 28.28 4C32.78 4 34.36 8.4 34.56 10.74C34.66 11.84 33.84 12.82 32.74 12.9C31.64 13 30.68 12.18 30.58 11.1C30.58 10.96 30.24 8 28.28 8C25.4527 8 23.8419 11.5635 22.6626 16.2798H28.2801C29.3801 16.2798 30.2801 17.1798 30.2801 18.2798C30.2801 19.3798 29.3801 20.2798 28.2801 20.2798H21.7912C21.534 21.6014 21.2914 22.9561 21.0501 24.3036L21.04 24.36C19.32 34.02 17.54 44 9.85995 44Z" fill="#646464"/>
<path d="M20.28 37.9C20.28 40.84 21.84 44 25.28 44C28.5511 44 30.5464 41.8987 31.9922 39.135C32.9114 41.8617 34.5073 44 37.7199 44L37.6999 44.02C41.2399 44.02 43.2599 40.56 43.8999 38.52C44.2399 37.46 43.6399 36.36 42.5999 36.02C41.5399 35.68 40.4199 36.28 40.0799 37.32C39.8999 37.9 38.9399 40.02 37.6999 40.02C35.9599 40.02 35.3799 37.2 34.7199 32.9L34.639 32.3726C35.9772 28.5935 37.1707 26 39 26C39.24 26 39.96 26 40 27.3C40.02 28.4 40.9 29.28 42 29.28C43.1 29.28 44 28.38 44 27.28C44 25.16 42.66 22 39 22C36.2087 22 34.3943 23.6696 33.0516 25.9704C32.0328 23.6866 30.3721 22.02 27.4199 22.02C24.1799 22.02 22.5199 25 22.0599 26.78C21.7799 27.84 22.4199 28.92 23.4799 29.2C24.5599 29.48 25.6399 28.86 25.9399 27.8C25.9399 27.78 26.4999 26 27.4399 26C29.122 26 29.8434 27.8571 30.5496 31.958L30.4805 32.1586C28.8405 36.8986 27.6 40 25.28 40C24.36 40 24.28 37.9 24.28 37.9C24.28 36.8 23.38 35.9 22.28 35.9C21.18 35.9 20.28 36.8 20.28 37.9Z" fill="#646464"/>
</svg>
