<svg width="48" height="48" viewBox="0 0 48 48" fill="none" xmlns="http://www.w3.org/2000/svg">
<path d="M38.9999 23.1575C38.2999 23.1575 37.6399 22.7975 37.2599 22.1575L36 19.9736L34.7401 22.1574C34.3601 22.7974 33.7001 23.1574 33.0001 23.1574C32.6601 23.1574 32.3201 23.0774 32.0001 22.8974C31.0401 22.3374 30.7201 21.1174 31.2601 20.1574L32.5293 17.9575H30C28.9 17.9575 28 17.0575 28 15.9575C28 14.8575 28.9 13.9575 30 13.9575H32.5292L31.2599 11.7575C30.6999 10.7975 31.0399 9.57751 31.9999 9.01751C32.9599 8.45751 34.1799 8.79751 34.7399 9.75751L36 11.9416L37.2601 9.75742C37.8201 8.79742 39.0401 8.47742 40.0001 9.01742C40.9601 9.57742 41.2801 10.7974 40.7401 11.7574L39.4708 13.9575H42C43.1 13.9575 44 14.8575 44 15.9575C44 17.0575 43.1 17.9575 42 17.9575H39.4707L40.7399 20.1575C41.2999 21.1175 40.9599 22.3375 39.9999 22.8975C39.6799 23.0775 39.3399 23.1575 38.9999 23.1575Z" fill="#646464"/>
<path d="M23.98 33.9575C17.0908 33.9572 12.3373 33.8174 9.58 33.6975C6.62 33.5775 4.26 31.2375 4.1 28.2775C4.04 27.1375 4 25.7175 4 23.9575C4 22.1975 4.04 20.7775 4.1 19.6375C4.26 16.6775 6.62 14.3575 9.58 14.2175C12.08 14.1175 16.3 13.9775 22.3 13.9575C23.4 13.9575 24.3 14.8575 24.3 15.9575C24.3 17.0575 23.42 17.9575 22.3 17.9575C16.38 17.9775 12.2 18.1175 9.74 18.2175C8.82 18.2575 8.14 18.9375 8.08 19.8575C8.02 20.9375 7.98 22.2975 7.98 23.9575C7.98 25.6175 8.02 26.9775 8.08 28.0575C8.14 28.9775 8.82 29.6575 9.74 29.6975C12.46 29.8175 17.16 29.9575 23.98 29.9575C30.8 29.9575 35.5 29.8175 38.22 29.6975C39.14 29.6575 39.82 28.9775 39.88 28.0575C39.94 26.9575 40.88 26.0375 41.98 26.1775C43.08 26.2375 43.92 27.1775 43.86 28.2775C43.7 31.2375 41.34 33.5575 38.38 33.6975C35.6227 33.8174 30.8891 33.9572 23.98 33.9575Z" fill="#646464"/>
<path d="M26 25.9575H14C12.9 25.9575 12 25.0575 12 23.9575C12 22.8575 12.9 21.9575 14 21.9575H26C27.1 21.9575 28 22.8575 28 23.9575C28 25.0575 27.1 25.9575 26 25.9575Z" fill="#646464"/>
</svg>
