<svg width="48" height="48" viewBox="0 0 48 48" fill="none" xmlns="http://www.w3.org/2000/svg">
<path fill-rule="evenodd" clip-rule="evenodd" d="M5.13178 17.3511C4.39876 19.4312 4 21.669 4 24C4 35.0457 12.9543 44 24 44C35.0457 44 44 35.0457 44 24C44 21.6747 43.6032 19.442 42.8735 17.3661C42.8661 17.3438 42.8582 17.3216 42.85 17.2996C40.095 9.54928 32.6956 4 24 4C15.2989 4 7.89557 9.55638 5.1447 17.3145C5.14028 17.3266 5.13597 17.3388 5.13178 17.3511ZM8.5042 19.9995C8.17506 21.2781 8 22.6186 8 24C8 25.3808 8.17491 26.7208 8.50379 27.9989H14.4677C14.3479 26.7036 14.2856 25.3655 14.2856 24C14.2856 22.6339 14.348 21.2953 14.4679 19.9995H8.5042ZM10.1408 15.9995H15.0454C15.4533 13.9618 16.0153 12.0979 16.7068 10.4842C16.8447 10.1625 16.989 9.84779 17.1398 9.54116C14.2039 10.9366 11.7604 13.1999 10.1408 15.9995ZM24 8C23.6112 8 23.0735 8.17539 22.4021 8.83803C21.722 9.50916 21.0179 10.5795 20.3834 12.0599C19.8954 13.1987 19.4718 14.5256 19.1356 15.9995H28.8642C28.528 14.5256 28.1045 13.1986 27.6164 12.0599C26.982 10.5794 26.2778 9.50913 25.5978 8.83801C24.9264 8.17537 24.3888 8 24 8ZM29.513 19.9995H18.4867C18.3559 21.275 18.2856 22.6144 18.2856 24C18.2856 25.385 18.3559 26.7239 18.4866 27.9989H29.5132C29.6439 26.7239 29.7141 25.385 29.7141 24C29.7141 22.6144 29.6439 21.275 29.513 19.9995ZM33.532 27.9989C33.6518 26.7036 33.7141 25.3655 33.7141 24C33.7141 22.6339 33.6518 21.2953 33.5319 19.9995H39.4958C39.8249 21.2781 40 22.6186 40 24C40 25.3808 39.8251 26.7208 39.4962 27.9989H33.532ZM28.8645 31.9989H19.1353C19.4715 33.4734 19.8952 34.8009 20.3834 35.9401C21.0179 37.4205 21.722 38.4908 22.4021 39.162C23.0735 39.8246 23.6112 40 24 40C24.3888 40 24.9264 39.8246 25.5978 39.162C26.2778 38.4909 26.982 37.4206 27.6164 35.9401C28.1046 34.8009 28.5283 33.4735 28.8645 31.9989ZM30.86 38.4589C31.0108 38.1523 31.1552 37.8375 31.293 37.5158C31.9848 35.9017 32.5468 34.0372 32.9547 31.9989H37.8601C36.2405 34.7993 33.7965 37.0632 30.86 38.4589ZM17.1398 38.4588C16.989 38.1522 16.8447 37.8375 16.7068 37.5158C16.0151 35.9017 15.453 34.0372 15.0451 31.9989H10.1399C11.7595 34.7992 14.2034 37.0631 17.1398 38.4588ZM37.8592 15.9995H32.9544C32.5465 13.9619 31.9846 12.0979 31.293 10.4842C31.1552 10.1625 31.0108 9.84773 30.86 9.54108C33.796 10.9365 36.2396 13.1998 37.8592 15.9995Z" fill="#646464"/>
</svg>
