<svg width="48" height="48" viewBox="0 0 48 48" fill="none" xmlns="http://www.w3.org/2000/svg">
<path fill-rule="evenodd" clip-rule="evenodd" d="M16.0948 45.6641C14.7948 45.0641 13.9748 43.8041 13.9748 42.3641V38.1834C12.1748 38.1034 11.36 37.94 10.2 37.86C7.14 37.64 4.72 35.3 4.44 32.26C4.16 29.1 4 25.34 4 21.12C4 16.9 4.14 13.14 4.44 9.98C4.7 6.98 7.12 4.62 10.18 4.4C12.82 4.22 17.38 4 24 4C30.62 4 35.16 4.22 37.82 4.4C40.88 4.62 43.3 6.96 43.58 10C43.86 13.16 44.02 16.92 44.02 21.14C44.02 25.36 43.88 29.1 43.58 32.28C43.3 35.3 40.88 37.66 37.82 37.88C35.5 38.04 32.4557 38.1901 26.8357 38.2301L20 45.0608C18.7854 46.0967 17.4505 46.2855 16.0948 45.6641ZM31.92 15.12C32.78 15.14 33.46 15.68 33.48 16.44V17.64C33.44 18.4 32.78 18.92 31.94 18.94C30.64 18.98 28.22 19.04 23.76 19.04C19.3 19.04 16.88 19 15.58 18.94C14.72 18.92 14.04 18.38 14.02 17.62V16.42C14.06 15.66 14.72 15.14 15.58 15.1C16.88 15.06 19.3 15 23.76 15C28.22 15 30.64 15.04 31.94 15.1L31.92 15.12ZM24.46 23.06C25.34 23.1 25.98 23.66 26 24.44V25.56C25.98 26.34 25.36 26.88 24.48 26.92C23.6 26.96 22.2 26.98 20 26.98C18.0633 26.98 16.7621 26.949 15.878 26.9279L15.54 26.92C14.66 26.88 14.02 26.32 14 25.54V24.42C14.02 23.64 14.66 23.08 15.54 23.04C16.42 23 17.82 22.98 20 22.98C21.9272 22.98 23.2448 23.0112 24.1325 23.0323L24.46 23.04V23.06Z" fill="#646464"/>
</svg>
