<svg width="48" height="48" viewBox="0 0 48 48" fill="none" xmlns="http://www.w3.org/2000/svg">
<path fill-rule="evenodd" clip-rule="evenodd" d="M6 16.8254C6 15.7209 6.89543 14.8254 8 14.8254H40C41.1046 14.8254 42 15.7209 42 16.8254C42 17.93 41.1046 18.8254 40 18.8254H8C6.89543 18.8254 6 17.93 6 16.8254Z" fill="#646464"/>
<path fill-rule="evenodd" clip-rule="evenodd" d="M6 30.0703C6 28.9657 6.89543 28.0703 8 28.0703H40C41.1046 28.0703 42 28.9657 42 30.0703C42 31.1749 41.1046 32.0703 40 32.0703H8C6.89543 32.0703 6 31.1749 6 30.0703Z" fill="#646464"/>
<path fill-rule="evenodd" clip-rule="evenodd" d="M30.5788 41.9921C29.4785 41.8943 28.6659 40.9232 28.7637 39.8229L31.6082 7.82292C31.706 6.72269 32.6772 5.91006 33.7774 6.00786C34.8776 6.10565 35.6902 7.07685 35.5924 8.17708L32.748 40.1771C32.6502 41.2773 31.679 42.0899 30.5788 41.9921Z" fill="#646464"/>
<path fill-rule="evenodd" clip-rule="evenodd" d="M14.2238 41.9921C13.1236 41.8943 12.3109 40.9232 12.4087 39.8229L15.2532 7.82292C15.351 6.72269 16.3222 5.91006 17.4224 6.00786C18.5226 6.10565 19.3353 7.07685 19.2375 8.17708L16.393 40.1771C16.2952 41.2773 15.324 42.0899 14.2238 41.9921Z" fill="#646464"/>
</svg>
