<svg width="48" height="48" viewBox="0 0 48 48" fill="none" xmlns="http://www.w3.org/2000/svg">
<path d="M27.4159 12.3657C28.0091 11.4342 29.2459 11.1595 30.1776 11.7525C31.1091 12.3456 31.3838 13.5825 30.7909 14.5142L18.3378 34.0806C16.9754 36.2215 13.982 36.5504 12.1874 34.7564L6.08584 28.6548C5.30517 27.8737 5.30492 26.6076 6.08584 25.8267C6.8668 25.0461 8.13301 25.0461 8.91397 25.8267L14.9843 31.897L27.4159 12.3657Z" fill="#646464"/>
<path d="M32.4999 32.2564L32.705 32.2661C33.7132 32.3688 34.4999 33.221 34.4999 34.2564C34.4999 35.2917 33.7132 36.1439 32.705 36.2466L32.4999 36.2564H24.4999C23.3953 36.2564 22.4999 35.3609 22.4999 34.2564C22.4999 33.1518 23.3953 32.2564 24.4999 32.2564H32.4999Z" fill="#646464"/>
<path d="M36.4999 26.2564L36.705 26.2661C37.7132 26.3688 38.4999 27.221 38.4999 28.2564C38.4999 29.2917 37.7132 30.1439 36.705 30.2466L36.4999 30.2564H28.4999C27.3953 30.2564 26.4999 29.3609 26.4999 28.2564C26.4999 27.1518 27.3953 26.2564 28.4999 26.2564H36.4999Z" fill="#646464"/>
<path d="M40.4999 20.2564L40.705 20.2661C41.7132 20.3688 42.4999 21.221 42.4999 22.2564C42.4999 23.2917 41.7132 24.1439 40.705 24.2466L40.4999 24.2564H32.4999C31.3953 24.2564 30.4999 23.3609 30.4999 22.2564C30.4999 21.1518 31.3953 20.2564 32.4999 20.2564H40.4999Z" fill="#646464"/>
</svg>
