<svg width="48" height="48" viewBox="0 0 48 48" fill="none" xmlns="http://www.w3.org/2000/svg">
<path fill-rule="evenodd" clip-rule="evenodd" d="M12.5858 12.5858C13.3668 11.8047 14.6332 11.8047 15.4142 12.5858L24 21.1716L32.5858 12.5858C33.3668 11.8047 34.6332 11.8047 35.4142 12.5858C36.1953 13.3668 36.1953 14.6332 35.4142 15.4142L26.8284 24L35.4142 32.5858C36.1953 33.3668 36.1953 34.6332 35.4142 35.4142C34.6332 36.1953 33.3668 36.1953 32.5858 35.4142L24 26.8284L15.4142 35.4142C14.6332 36.1953 13.3668 36.1953 12.5858 35.4142C11.8047 34.6332 11.8047 33.3668 12.5858 32.5858L21.1716 24L12.5858 15.4142C11.8047 14.6332 11.8047 13.3668 12.5858 12.5858Z" fill="#646464"/>
</svg>
