<svg width="48" height="48" viewBox="0 0 48 48" fill="none" xmlns="http://www.w3.org/2000/svg">
<path d="M31.8984 18.3242C32.6274 17.6675 33.999 18.0743 34 18.9473V29.0527C33.999 29.9257 32.6274 30.3325 31.8984 29.6758L26.2969 24.623C25.9013 24.2663 25.9013 23.7337 26.2969 23.377L31.8984 18.3242Z" fill="#646464"/>
<path fill-rule="evenodd" clip-rule="evenodd" d="M24 4C30.3618 4 34.8314 4.23923 37.6562 4.46875C40.8228 4.72632 43.2738 7.1772 43.5312 10.3438C43.7608 13.1686 44 17.6381 44 24C44 30.3619 43.7608 34.8314 43.5312 37.6562C43.2738 40.8228 40.8228 43.2737 37.6562 43.5312C34.8314 43.7608 30.3618 44 24 44C18.9834 44 15.144 43.8472 12.3594 43.6719C11.6074 43.6254 10.9335 43.5792 10.3438 43.5312C7.17693 43.2738 4.72606 40.8231 4.46875 37.6562C4.23923 34.8313 4 30.3619 4 24C4.00001 17.6383 4.23924 13.1686 4.46875 10.3438C4.72642 7.17726 7.17715 4.72614 10.3438 4.46875C10.9335 4.42083 11.6073 4.3726 12.3594 4.32617C15.144 4.1507 18.9835 4 24 4ZM24 8C22.9467 8 21.9469 8.00739 21 8.01953V39.9785C21.9469 39.9906 22.9466 40 24 40C30.262 40 34.6229 39.765 37.332 39.5449C38.5454 39.4462 39.4463 38.5454 39.5449 37.332C39.765 34.6228 40 30.2621 40 24C40 17.738 39.765 13.3772 39.5449 10.668C39.4463 9.45465 38.5453 8.5538 37.332 8.45508C34.6229 8.23496 30.262 8 24 8ZM17 8.11328C14.3385 8.20222 12.1934 8.33114 10.668 8.45508C9.45462 8.55366 8.55389 9.45472 8.45508 10.668C8.23496 13.3772 8.00001 17.7381 8 24C8 30.2618 8.23496 34.6227 8.45508 37.332C8.55367 38.5456 9.45446 39.4463 10.668 39.5449C12.1935 39.6688 14.3385 39.7978 17 39.8867V8.11328Z" fill="#646464"/>
</svg>
