<svg width="48" height="48" viewBox="0 0 48 48" fill="none" xmlns="http://www.w3.org/2000/svg">
<path d="M42 29.4585C42 25.312 39.6598 22.3544 36.0859 21.2144C35.3014 20.964 34.7497 20.2588 34.6973 19.437C34.5087 16.4796 33.4269 14.053 31.752 12.3745C30.0886 10.7079 27.7283 9.66326 24.7461 9.64209C24.5026 9.64036 24.2539 9.64014 24 9.64014C23.7461 9.64014 23.4974 9.64036 23.2539 9.64209C20.2717 9.66326 17.9114 10.7079 16.248 12.3745C14.5731 14.053 13.4913 16.4796 13.3027 19.437C13.2503 20.2588 12.6986 20.964 11.9141 21.2144C8.34022 22.3544 6 25.312 6 29.4585C6.00004 32.0879 6.93871 34.1868 8.44531 35.6597C9.96327 37.1433 12.1712 38.0994 14.8711 38.2065C17.3066 38.3032 20.3127 38.3667 24 38.3667C27.6873 38.3667 30.6934 38.3032 33.1289 38.2065C35.8287 38.0994 38.0367 37.1433 39.5547 35.6597C41.0613 34.1868 42 32.0879 42 29.4585ZM46 29.4585C46 33.0973 44.6745 36.248 42.3516 38.519C40.04 40.7788 36.852 42.061 33.2891 42.2026C30.7941 42.3016 27.7335 42.3667 24 42.3667C20.2665 42.3667 17.2059 42.3016 14.7109 42.2026C11.148 42.061 7.95998 40.7788 5.64844 38.519C3.3255 36.248 2.00004 33.0973 2 29.4585C2 24.033 4.93854 19.8169 9.44141 17.8745C9.89484 14.613 11.2519 11.7191 13.416 9.55029C15.877 7.08415 19.2693 5.67027 23.2246 5.64209C23.4778 5.64029 23.7366 5.64014 24 5.64014C24.2634 5.64014 24.5222 5.64029 24.7754 5.64209C28.7307 5.67027 32.123 7.08415 34.584 9.55029C36.748 11.7191 38.1032 14.6131 38.5566 17.8745C43.0605 19.8166 46 24.0323 46 29.4585Z" fill="#646464"/>
</svg>
