<svg width="48" height="48" viewBox="0 0 48 48" fill="none" xmlns="http://www.w3.org/2000/svg">
<path fill-rule="evenodd" clip-rule="evenodd" d="M12.5853 7.58579C13.3663 6.80474 14.6327 6.80474 15.4137 7.58579L23.9995 16.1716L32.5853 7.58579C33.3663 6.80474 34.6327 6.80474 35.4137 7.58579C36.1948 8.36684 36.1948 9.63317 35.4137 10.4142L25.4137 20.4142C25.0387 20.7893 24.5299 21 23.9995 21C23.4691 21 22.9604 20.7893 22.5853 20.4142L12.5853 10.4142C11.8042 9.63316 11.8042 8.36683 12.5853 7.58579ZM12.5859 37.5858L22.5859 27.5858C22.9764 27.1953 23.4882 27 24 27C24.5119 27 25.0238 27.1952 25.4144 27.5858L35.4144 37.5858C36.1954 38.3668 36.1954 39.6332 35.4144 40.4142C34.6333 41.1953 33.367 41.1953 32.5859 40.4142L24.0002 31.8284L15.4144 40.4142C14.6333 41.1953 13.367 41.1953 12.5859 40.4142C11.8049 39.6332 11.8049 38.3668 12.5859 37.5858Z" fill="#646464"/>
</svg>
