<svg width="48" height="48" viewBox="0 0 48 48" fill="none" xmlns="http://www.w3.org/2000/svg">
<path d="M16.4912 33.1526C17.4997 33.2551 18.2881 34.1073 18.2881 35.1428C18.2881 36.1783 17.4997 37.0306 16.4912 37.1331L16.2881 37.1428H14.5732C13.4687 37.1428 12.5732 36.2474 12.5732 35.1428C12.5732 34.0383 13.4687 33.1428 14.5732 33.1428H16.2881L16.4912 33.1526Z" fill="#646464"/>
<path fill-rule="evenodd" clip-rule="evenodd" d="M15.4287 4.00024C17.9327 4.00024 19.8996 4.11285 21.4033 4.26001L21.7178 4.29712C23.6253 4.58011 25.075 5.69659 25.9424 7.17603C27.697 6.71962 29.6305 7.01785 31.2256 8.32837L32.1572 9.11353C33.1456 9.96969 34.3037 11.0393 35.6318 12.3674C37.4023 14.1379 38.7137 15.6064 39.6729 16.7737L39.8682 17.0237C41.0178 18.5737 41.2567 20.3907 40.8232 22.051C42.3851 22.969 43.5422 24.5448 43.7432 26.5979L43.8467 27.8127C43.9401 29.1165 44.0029 30.6918 44.0029 32.5686C44.0029 34.4458 43.9401 36.0223 43.8467 37.3264L43.7432 38.5432C43.41 41.9398 40.4998 43.9979 37.4365 43.9983H15.4424C15.4378 43.9983 15.4333 44.0002 15.4287 44.0002L15.4268 43.9983C9.11645 43.998 4.00098 38.8829 4.00098 32.5725V28.2854L4.00293 28.2444V17.1838C4.00265 17.1702 4.00098 17.1565 4.00098 17.1428C4.00098 17.1291 4.00265 17.1155 4.00293 17.1018V10.5647C4.00293 7.50173 6.06088 4.5906 9.45801 4.25806L10.6729 4.15649C11.9768 4.06305 13.5514 4.00026 15.4287 4.00024ZM8.00293 32.5745C8.00319 34.7979 8.98182 36.7916 10.5303 38.1526C10.799 38.3887 11.0848 38.6052 11.3857 38.801C12.5427 39.5539 13.9213 39.9932 15.4033 39.9983C15.4127 39.9982 15.4232 39.9983 15.4326 39.9983L15.79 39.9905C16.7835 39.9429 17.7665 39.6937 18.6787 39.2502C18.7563 39.2124 18.8331 39.1735 18.9092 39.1331C18.9313 39.1213 18.9536 39.1099 18.9756 39.0979C19.3446 38.8968 19.6927 38.6631 20.0205 38.4045C20.0508 38.3807 20.0824 38.3586 20.1123 38.3342C20.1249 38.324 20.1388 38.3153 20.1514 38.3049C21.8033 36.9422 22.8562 34.879 22.8564 32.5706V30.2854H8.00293V32.5745ZM24.167 39.9983H37.4365C38.8007 39.9979 39.6634 39.1623 39.7627 38.1526L39.8564 37.0413C39.9426 35.8385 40.0029 34.3574 40.0029 32.5686C40.0029 30.781 39.9425 29.3018 39.8564 28.0999L39.7627 26.9866C39.6985 26.3341 39.328 25.7726 38.7178 25.4456L24.167 39.9983ZM28.6865 11.4182C28.1794 11.0017 27.5217 10.8678 26.8584 11.0686V31.6487L36.2432 22.2639L36.2783 22.2249L36.4541 22.0237C37.1524 21.1677 37.1765 20.1797 36.6963 19.4651L36.583 19.3127C35.7135 18.2546 34.4904 16.8823 32.8037 15.1956C31.5388 13.9307 30.4512 12.9263 29.54 12.137L28.6865 11.4182ZM8.00293 26.2854H22.8584V19.1428H8.00293V26.2854ZM15.4287 8.00024C13.6397 8.00026 12.1605 8.06053 10.958 8.14673L9.84668 8.24048C8.8376 8.33955 8.00293 9.2004 8.00293 10.5647V15.1428H22.8584V10.5647C22.8577 9.28607 22.1239 8.44891 21.2002 8.26782L21.0127 8.24048C19.6497 8.10709 17.8142 8.00024 15.4287 8.00024Z" fill="#646464"/>
</svg>
