<svg width="48" height="48" viewBox="0 0 48 48" fill="none" xmlns="http://www.w3.org/2000/svg">
<path d="M20.9806 29.04C20.9871 29.04 20.9936 29.0401 21.0001 29.0401H20.9601C20.9669 29.0401 20.9738 29.04 20.9806 29.04Z" fill="#646464"/>
<path d="M19.5801 28.4601C19.9555 28.8157 20.4481 29.0347 20.9806 29.04C21.5128 29.035 22.0049 28.8352 22.3801 28.4601L33.3801 17.4601C34.1601 16.6801 34.1601 15.4201 33.3801 14.6401C32.6001 13.8601 31.3401 13.8601 30.5601 14.6401L20.9801 24.2201L17.4001 20.6401C16.6201 19.8601 15.3601 19.8601 14.5801 20.6401C13.8001 21.4201 13.8001 22.6801 14.5801 23.4601L19.5801 28.4601Z" fill="#646464"/>
<path fill-rule="evenodd" clip-rule="evenodd" d="M16.24 45.64C16.86 45.92 17.5 46.06 18.14 46.06H18.16C19.1 46.06 19.98 45.76 20.66 45.18L20.84 45L26.88 38.28C32 38.24 35.16 38.06 37.82 37.88C40.88 37.66 43.3 35.3 43.58 32.28C43.88 29.1 44.02 25.36 44.02 21.14C44.02 16.92 43.86 13.16 43.58 10C43.3 6.96 40.88 4.62 37.82 4.4C35.18 4.22 30.64 4 24 4C17.36 4 12.82 4.22 10.18 4.4C7.11998 4.62 4.69998 6.98 4.41998 10C4.11998 13.16 3.97998 16.92 3.97998 21.14C3.97998 26.42 4.21998 30.1 4.41998 32.28C4.69998 35.32 7.11998 37.66 10.18 37.88V37.9H10.56C10.8684 37.9181 11.1786 37.9381 11.5 37.9588C12.2417 38.0065 13.0432 38.0581 14.02 38.1V42.42C14.02 43.78 14.88 45.02 16.24 45.64ZM18.1 42.04H18.04L18.02 42.02V36.16C18.02 35.08 17.16 34.2 16.08 34.16C13.66 34.08 12.24 33.98 10.84 33.86H10.46C9.31998 33.78 8.49998 33 8.39998 31.9C8.19998 29.8 7.97998 26.24 7.97998 21.12C7.97998 16 8.19998 12.44 8.39998 10.34C8.49998 9.24 9.33998 8.46 10.46 8.38C13.04 8.2 17.48 7.98 24 7.98C30.52 7.98 34.96 8.2 37.54 8.38C38.66 8.46 39.48 9.24 39.58 10.34C39.78 12.44 40 16 40 21.12C40 26.24 39.78 29.8 39.58 31.9C39.48 33 38.66 33.78 37.54 33.86C34.8 34.06 31.5 34.24 25.96 34.26C25.4 34.26 24.86 34.5 24.48 34.92L18.1 42.04Z" fill="#646464"/>
</svg>
