<svg width="48" height="48" viewBox="0 0 48 48" fill="none" xmlns="http://www.w3.org/2000/svg">
<path fill-rule="evenodd" clip-rule="evenodd" d="M16.24 45.6029C16.86 45.8829 17.5 46.0229 18.14 46.0229H18.16C19.1 46.0229 19.98 45.7229 20.66 45.1429L20.84 44.9629L26.88 38.2429C32 38.2029 35.16 38.0229 37.82 37.8429C40.88 37.6229 43.3 35.2629 43.58 32.2429C43.88 29.0629 44.02 25.3229 44.02 21.1029C44.02 16.0029 43.8 11.3229 43.58 8.94287C43.3 5.90287 40.88 3.56287 37.82 3.34287C35.16 3.16287 30.62 2.94287 24 2.94287C17.38 2.94287 12.82 3.16287 10.18 3.34287C7.11998 3.56287 4.69998 5.92287 4.43998 8.94287C4.21998 11.3229 3.97998 15.8229 3.97998 21.1029C3.97998 26.3829 4.21998 30.0629 4.41998 32.2429C4.69998 35.2829 7.11998 37.6229 10.18 37.8429V37.8629H10.56C10.8684 37.881 11.1786 37.901 11.5001 37.9217C12.2418 37.9694 13.0433 38.021 14.02 38.0629V42.3829C14.02 43.7429 14.88 44.9829 16.24 45.6029ZM18.1 42.0029H18.04L18.02 41.9829V36.1229C18.02 35.0526 17.1755 34.1788 16.1092 34.1242C17.2016 31.667 18.7587 30.098 21.0801 29.0429C21.7601 28.7429 22.2201 28.1029 22.2601 27.3629C22.3001 26.6429 21.9401 25.9429 21.3201 25.5429C19.8401 24.6029 18.9401 23.0029 18.9401 21.2429C18.9401 18.4429 21.2201 16.1629 24.0201 16.1629C26.8201 16.1629 29.1001 18.4429 29.1001 21.2429C29.1001 23.0029 28.2201 24.6029 26.7201 25.5429C26.0801 25.9429 25.7401 26.6429 25.7801 27.3829C25.8401 28.1029 26.2801 28.7629 26.9601 29.0629C29.2731 30.1143 30.8667 31.7413 31.8677 34.1238C30.2093 34.178 28.2813 34.2145 25.96 34.2229C25.4 34.2229 24.86 34.4629 24.48 34.8829L18.1 42.0029ZM36.045 33.925C35.0593 30.8989 33.4341 28.5828 31.1401 26.9029C32.4001 25.3229 33.1001 23.3629 33.1001 21.2629C33.1001 16.2629 29.0201 12.1829 24.0201 12.1829C19.0201 12.1829 14.9401 16.2629 14.9401 21.2629C14.9401 23.3629 15.6401 25.3229 16.9001 26.9029C14.6289 28.5563 13.018 30.8369 11.9174 33.9097C11.5465 33.8821 11.1926 33.8531 10.84 33.8229H10.46C9.31998 33.7429 8.49998 32.9629 8.39998 31.8629C8.19998 29.7629 7.97998 26.0629 7.97998 21.0829C7.97998 16.1029 8.19998 11.5629 8.39998 9.28287C8.49998 8.18287 9.33998 7.40287 10.46 7.32287C13.06 7.14287 17.48 6.92287 24 6.92287C30.52 6.92287 34.96 7.14287 37.54 7.32287C38.66 7.40287 39.48 8.18287 39.58 9.28287C39.8 11.5629 40 15.9629 40 21.0829C40 26.2029 39.78 29.7629 39.58 31.8629C39.48 32.9629 38.66 33.7429 37.54 33.8229C37.0617 33.8578 36.5664 33.8921 36.045 33.925Z" fill="#646464"/>
</svg>
