<svg width="48" height="48" viewBox="0 0 48 48" fill="none" xmlns="http://www.w3.org/2000/svg">
<path d="M42.5496 13.9012C42.9633 13.2266 43.428 12.4437 43.8226 11.82C43.9923 11.5331 44.0428 11.191 43.9631 10.8673C43.8833 10.5436 43.6798 10.2641 43.3961 10.0888L35.1221 4.99714C34.9773 4.89958 34.8139 4.83287 34.6422 4.80116C34.4704 4.76945 34.294 4.77342 34.1238 4.81282C33.9537 4.85222 33.7935 4.92621 33.6532 5.03019C33.5129 5.13416 33.3954 5.2659 33.3082 5.41721C32.9773 5.97093 32.5508 6.69013 32.0862 7.46024C28.8084 12.8702 25.5116 12.2082 19.567 9.36962L11.3885 5.48722C11.2347 5.41402 11.0677 5.37242 10.8976 5.3649C10.7274 5.35739 10.5575 5.38409 10.3978 5.44344C10.2382 5.50279 10.0921 5.59358 9.96815 5.71042C9.84422 5.82726 9.74501 5.96779 9.67638 6.12368L5.73668 15.0341C5.60289 15.34 5.59463 15.6862 5.71368 15.9981C5.83274 16.31 6.06957 16.5627 6.37314 16.7016C8.10432 17.5163 11.5476 19.1393 14.6471 20.635C25.8234 26.0449 35.3003 25.6821 42.5496 13.9012Z" fill="#8D8D8D"/>
<path d="M5.45037 34.1215C5.03667 34.7962 4.57205 35.579 4.17744 36.2028C4.00765 36.4897 3.95721 36.8318 4.03695 37.1555C4.11669 37.4792 4.32024 37.7587 4.60387 37.9339L12.8779 43.0256C13.0217 43.1144 13.1817 43.1737 13.3486 43.1999C13.5155 43.2262 13.686 43.219 13.8501 43.1787C14.0142 43.1384 14.1686 43.0659 14.3044 42.9653C14.4402 42.8647 14.5545 42.7381 14.6409 42.5928C14.9718 42.0391 15.3983 41.3199 15.8629 40.5498C19.1407 35.1399 22.4375 35.8018 28.3821 38.6404L36.5861 42.5419C36.7399 42.6151 36.9068 42.6567 37.077 42.6642C37.2471 42.6717 37.417 42.645 37.5767 42.5857C37.7363 42.5263 37.8825 42.4356 38.0064 42.3187C38.1303 42.2019 38.2295 42.0613 38.2982 41.9055L42.2379 32.995C42.3717 32.6891 42.3799 32.3429 42.2609 32.031C42.1418 31.7191 41.905 31.4664 41.6014 31.3275C39.8702 30.5128 36.427 28.8898 33.3274 27.3942C22.1766 21.9779 12.6997 22.3279 5.45037 34.1215Z" fill="#8D8D8D"/>
</svg>
