<svg width="48" height="48" viewBox="0 0 48 48" fill="none" xmlns="http://www.w3.org/2000/svg">
<path fill-rule="evenodd" clip-rule="evenodd" d="M35.3003 7.99999C32.3732 7.99999 30.0003 10.3729 30.0003 13.3C30.0003 16.2271 32.3732 18.6 35.3003 18.6C38.2274 18.6 40.6003 16.2271 40.6003 13.3C40.6003 10.3729 38.2274 7.99999 35.3003 7.99999ZM26.0003 13.3C26.0003 8.16375 30.1641 3.99999 35.3003 3.99999C40.4366 3.99999 44.6003 8.16375 44.6003 13.3C44.6003 18.4362 40.4366 22.6 35.3003 22.6C30.1641 22.6 26.0003 18.4362 26.0003 13.3Z" fill="#646464"/>
<path fill-rule="evenodd" clip-rule="evenodd" d="M18.9642 3.98847C25.1664 3.97313 33.3429 3.95289 35.6201 4.00039L35.5367 7.99952C33.3093 7.95306 25.2633 7.97298 19.0786 7.98828C16.7534 7.99404 14.6913 7.99914 13.3003 7.99982C10.3732 7.99982 8.00033 10.3729 8.00033 13.3C8.00033 16.1455 10.2427 18.4672 13.0567 18.5945C14.3261 18.5946 16.2983 18.599 18.5672 18.6041C24.7779 18.6179 33.2115 18.6368 35.5352 18.5865L35.6217 22.5856C33.2459 22.637 24.6819 22.6178 18.46 22.6039C16.3667 22.5993 14.5386 22.5952 13.3003 22.5946V22.6C8.16408 22.6 4.00033 18.4362 4.00033 13.3C4.00033 8.26415 8.00288 4.16315 13.0003 4.00474V3.9999C14.3472 3.9999 16.4999 3.99457 18.9642 3.98847Z" fill="#646464"/>
<path fill-rule="evenodd" clip-rule="evenodd" d="M13.3 40.0193C16.2271 40.0193 18.6 37.6464 18.6 34.7193C18.6 31.7922 16.2271 29.4193 13.3 29.4193C10.3729 29.4193 8 31.7922 8 34.7193C8 37.6464 10.3729 40.0193 13.3 40.0193ZM22.6 34.7193C22.6 39.8555 18.4363 44.0193 13.3 44.0193C8.16374 44.0193 4 39.8555 4 34.7193C4 29.583 8.16375 25.4193 13.3 25.4193C18.4363 25.4193 22.6 29.583 22.6 34.7193Z" fill="#646464"/>
<path fill-rule="evenodd" clip-rule="evenodd" d="M29.6361 44.0308C23.434 44.0462 15.2574 44.0664 12.9802 44.0189L13.0636 40.0198C15.291 40.0662 23.337 40.0463 29.5218 40.031C31.8469 40.0252 33.909 40.0201 35.3 40.0195C38.2271 40.0195 40.6 37.6464 40.6 34.7193C40.6 31.8738 38.3576 29.5521 35.5436 29.4248C34.2743 29.4247 32.302 29.4203 30.0331 29.4152C23.8224 29.4013 15.3888 29.3825 13.0652 29.4328L12.9786 25.4337C15.3545 25.3823 23.9185 25.4014 30.1404 25.4153C32.2336 25.42 34.0618 25.4241 35.3 25.4247V25.4193C40.4363 25.4193 44.6 29.583 44.6 34.7193C44.6 39.7551 40.5974 43.8561 35.6001 44.0145V44.0194C34.2531 44.0194 32.1005 44.0247 29.6361 44.0308Z" fill="#646464"/>
</svg>
