<svg width="48" height="48" viewBox="0 0 48 48" fill="none" xmlns="http://www.w3.org/2000/svg">
<path fill-rule="evenodd" clip-rule="evenodd" d="M5 24C5 22.8954 5.89543 22 7 22H13C14.1046 22 15 22.8954 15 24C15 25.1046 14.1046 26 13 26H7C5.89543 26 5 25.1046 5 24ZM19 24C19 22.8954 19.8954 22 21 22H27C28.1046 22 29 22.8954 29 24C29 25.1046 28.1046 26 27 26H21C19.8954 26 19 25.1046 19 24ZM33 24C33 22.8954 33.8954 22 35 22H41C42.1046 22 43 22.8954 43 24C43 25.1046 42.1046 26 41 26H35C33.8954 26 33 25.1046 33 24Z" fill="#646464"/>
</svg>
