<svg width="48" height="48" viewBox="0 0 48 48" fill="none" xmlns="http://www.w3.org/2000/svg">
<path d="M42.29 24.17C42.29 24.17 42.29 24.05 42.29 24.01C42.29 17.15 41.87 12.87 41.87 12.87C41.87 7.83001 34.19 4.01001 24.01 4.01001C13.83 4.01001 6.24996 7.77001 6.12996 12.75C6.06996 13.43 5.70996 17.59 5.70996 24.01C5.70996 24.07 5.70996 24.13 5.70996 24.17C5.70996 30.91 6.12996 35.13 6.12996 35.13C6.12996 40.17 13.81 43.99 23.99 43.99C34.17 43.99 41.85 40.19 41.83 35.33C41.83 35.15 42.25 30.93 42.27 24.17H42.29ZM9.70996 24.01C9.70996 21.85 9.74996 19.97 9.80996 18.37C13.01 20.43 18.07 21.73 23.99 21.73C29.91 21.73 34.95 20.43 38.17 18.37C38.23 19.97 38.27 21.85 38.27 24.01C38.27 24.07 38.27 24.13 38.27 24.19C38.27 25.79 33.21 28.87 23.99 28.87C14.77 28.87 9.70996 25.79 9.70996 24.19C9.70996 24.13 9.70996 24.07 9.70996 24.01ZM23.99 8.01001C32.15 8.01001 37.61 10.81 37.83 12.93C37.71 14.87 32.23 17.71 23.99 17.71C15.75 17.71 10.13 14.79 10.13 12.85C10.13 10.91 15.65 7.99001 23.99 7.99001V8.01001ZM23.99 40.01C15.65 40.01 10.13 37.09 10.13 34.95C10.13 34.93 9.94996 33.03 9.82996 29.85C13.35 31.83 18.69 32.87 24.01 32.87C29.33 32.87 34.65 31.85 38.19 29.85C38.07 33.05 37.89 34.99 37.87 35.15C37.87 37.09 32.35 40.01 24.01 40.01H23.99Z" fill="#646464"/>
</svg>
