<svg width="48" height="48" viewBox="0 0 48 48" fill="none" xmlns="http://www.w3.org/2000/svg">
<path d="M36 44V40H32C30.8955 40 30 39.1046 30 38C30 36.8954 30.8955 36 32 36H36V32C36 30.8954 36.8955 30 38 30C39.1046 30 40 30.8954 40 32V36H44C45.1046 36 46 36.8954 46 38C46 39.1046 45.1046 40 44 40H40V44C40 45.1046 39.1046 46 38 46C36.8955 46 36 45.1046 36 44ZM32 4C34.6498 4 36.8114 6.06155 36.9825 8.66797C40.4809 9.18304 43.1747 12.0619 43.4161 15.6465C43.5962 18.3219 43.7039 21.1377 43.7383 23.9766C43.7513 25.0807 42.866 25.9866 41.7618 26C40.6576 26.013 39.7517 25.1277 39.7383 24.0234C39.7047 21.2519 39.6006 18.5112 39.4258 15.916C39.3244 14.4104 38.3158 13.1803 36.9375 12.752C36.5745 15.1562 34.5056 17 32 17C29.3298 17 27.1529 14.9066 27.0118 12.2715C25.0133 12.2453 22.9848 12.2453 20.9864 12.2715C20.8452 14.9065 18.6703 17 16.0001 17C13.4944 17 11.4236 15.1563 11.0606 12.752C9.68316 13.1807 8.67561 14.4096 8.57427 15.9141C8.14095 22.347 8.14095 29.6531 8.57427 36.0859C8.69546 37.885 10.1103 39.2934 11.9063 39.4062C15.5608 39.6352 19.776 39.75 24 39.75C25.1046 39.75 26 40.6455 26 41.75C26 42.8546 25.1046 43.75 24 43.75C19.7101 43.75 15.4098 43.6335 11.6563 43.3984C7.85196 43.1598 4.84032 40.1552 4.58403 36.3555C4.13865 29.7436 4.13866 22.2565 4.58403 15.6445C4.82577 12.0607 7.51889 9.18375 11.0157 8.66797C11.1867 6.06149 13.3503 4 16.0001 4C18.5137 4 20.5884 5.85577 20.9415 8.27148C22.9699 8.24498 25.0282 8.245 27.0567 8.27148C27.4096 5.85563 29.4863 4 32 4ZM16.0001 8C15.4478 8 15.0001 8.44771 15.0001 9V12C15.0001 12.5523 15.4478 13 16.0001 13C16.5523 13 17.0001 12.5523 17.0001 12V9C17.0001 8.44772 16.5523 8 16.0001 8ZM32 8C31.4478 8 31 8.44772 31 9V12C31 12.5523 31.4478 13 32 13C32.5523 13 33 12.5523 33 12V9C33 8.44772 32.5523 8 32 8Z" fill="#646464"/>
</svg>
