<svg width="48" height="48" viewBox="0 0 48 48" fill="none" xmlns="http://www.w3.org/2000/svg">
<path d="M22.1987 10C22.1987 9.46957 21.9879 8.96101 21.6128 8.58594C21.2377 8.21086 20.7292 8 20.1987 8C19.6683 8 19.1597 8.21086 18.7847 8.58594C18.4096 8.96101 18.1987 9.46957 18.1987 10V18C18.1987 18.5304 18.4096 19.039 18.7847 19.4141C19.1597 19.7891 19.6683 20 20.1987 20C20.7292 20 21.2377 19.7891 21.6128 19.4141C21.9879 19.039 22.1987 18.5304 22.1987 18V10ZM26.1987 18C26.1987 19.5913 25.5661 21.117 24.4409 22.2422C23.3157 23.3674 21.79 24 20.1987 24C18.6074 24 17.0818 23.3674 15.9565 22.2422C14.8313 21.117 14.1987 19.5913 14.1987 18V10C14.1987 8.4087 14.8313 6.88303 15.9565 5.75781C17.0818 4.6326 18.6074 4 20.1987 4C21.79 4 23.3157 4.6326 24.4409 5.75781C25.5661 6.88303 26.1987 8.4087 26.1987 10V18Z" fill="#646464"/>
<path d="M10.2183 20.0003C11.3228 20.0003 12.2183 20.8957 12.2183 22.0003C12.2183 23.1049 11.3228 24.0003 10.2183 24.0003H10.1987C9.09416 24.0003 8.19873 23.1049 8.19873 22.0003C8.19873 20.8957 9.09416 20.0003 10.1987 20.0003H10.2183Z" fill="#646464"/>
<path d="M27.1294 28.5856C26.3483 27.8046 25.0804 27.8046 24.2993 28.5856L18.2993 34.5856C17.9246 34.9607 17.7153 35.4695 17.7153 35.9997C17.7153 36.5299 17.9246 37.0387 18.2993 37.4138L24.2993 43.4138C25.0804 44.1948 26.3483 44.1948 27.1294 43.4138C27.9099 42.6328 27.9099 41.3666 27.1294 40.5856L24.5435 37.9997H41.1431C42.2476 37.9997 43.1431 37.1043 43.1431 35.9997C43.1431 34.8951 42.2476 33.9997 41.1431 33.9997H24.5435L27.1294 31.4138C27.9099 30.6328 27.9099 29.3666 27.1294 28.5856Z" fill="#646464"/>
</svg>
