<svg width="48" height="48" viewBox="0 0 48 48" fill="none" xmlns="http://www.w3.org/2000/svg">
<path d="M36.0002 10C36.0002 9.46957 35.7894 8.96101 35.4143 8.58594C35.0392 8.21086 34.5307 8 34.0002 8C33.4698 8 32.9613 8.21086 32.5862 8.58594C32.2111 8.96101 32.0002 9.46957 32.0002 10V18C32.0002 18.5304 32.2111 19.039 32.5862 19.4141C32.9613 19.7891 33.4698 20 34.0002 20C34.5307 20 35.0392 19.7891 35.4143 19.4141C35.7894 19.039 36.0002 18.5304 36.0002 18V10ZM40.0002 18C40.0002 19.5913 39.3676 21.117 38.2424 22.2422C37.1172 23.3674 35.5915 24 34.0002 24C32.4089 24 30.8833 23.3674 29.7581 22.2422C28.6328 21.117 28.0002 19.5913 28.0002 18V10C28.0002 8.4087 28.6328 6.88303 29.7581 5.75781C30.8833 4.6326 32.4089 4 34.0002 4C35.5915 4 37.1172 4.6326 38.2424 5.75781C39.3676 6.88303 40.0002 8.4087 40.0002 10V18Z" fill="#646464"/>
<path d="M22.0005 10C22.0005 9.46957 21.7896 8.96101 21.4146 8.58594C21.0395 8.21086 20.5309 8 20.0005 8C19.4701 8 18.9615 8.21086 18.5864 8.58594C18.2114 8.96101 18.0005 9.46957 18.0005 10V18C18.0005 18.5304 18.2114 19.039 18.5864 19.4141C18.9615 19.7891 19.4701 20 20.0005 20C20.5309 20 21.0395 19.7891 21.4146 19.4141C21.7896 19.039 22.0005 18.5304 22.0005 18V10ZM26.0005 18C26.0005 19.5913 25.3679 21.117 24.2427 22.2422C23.1175 23.3674 21.5918 24 20.0005 24C18.4092 24 16.8835 23.3674 15.7583 22.2422C14.6331 21.117 14.0005 19.5913 14.0005 18V10C14.0005 8.4087 14.6331 6.88303 15.7583 5.75781C16.8835 4.6326 18.4092 4 20.0005 4C21.5918 4 23.1175 4.6326 24.2427 5.75781C25.3679 6.88303 26.0005 8.4087 26.0005 10V18Z" fill="#646464"/>
<path d="M10.02 20.0003C11.1246 20.0003 12.02 20.8957 12.02 22.0003C12.02 23.1049 11.1246 24.0003 10.02 24.0003H10.0005C8.89592 24.0003 8.00049 23.1049 8.00049 22.0003C8.00049 20.8957 8.89592 20.0003 10.0005 20.0003H10.02Z" fill="#646464"/>
<path d="M31.2437 28.5856C32.0247 27.8046 33.2927 27.8046 34.0737 28.5856L40.0737 34.5856C40.4485 34.9607 40.6577 35.4695 40.6577 35.9997C40.6577 36.5299 40.4485 37.0387 40.0737 37.4138L34.0737 43.4138C33.2927 44.1948 32.0247 44.1948 31.2437 43.4138C30.4632 42.6328 30.4632 41.3666 31.2437 40.5856L33.8296 37.9997H17.23C16.1254 37.9997 15.23 37.1043 15.23 35.9997C15.23 34.8951 16.1254 33.9997 17.23 33.9997H33.8296L31.2437 31.4138C30.4632 30.6328 30.4632 29.3666 31.2437 28.5856Z" fill="#646464"/>
</svg>
