<svg width="48" height="48" viewBox="0 0 48 48" fill="none" xmlns="http://www.w3.org/2000/svg">
<path fill-rule="evenodd" clip-rule="evenodd" d="M22.0003 12.2574C17.5849 12.2901 13.3126 12.4315 10.1354 12.6816C9.34326 12.744 8.7246 13.3512 8.65123 14.1595C8.43572 16.5336 8.30716 19.2351 8.26548 22H21.9998L22.0003 12.2574ZM26.0003 12.2574L25.9998 22H39.7355C39.6937 19.2353 39.565 16.5339 39.3495 14.1598C39.2761 13.3513 38.6573 12.7439 37.8652 12.6816C34.6878 12.4315 30.4157 12.2901 26.0003 12.2574ZM43.7506 23.9555C43.7493 20.4018 43.6101 16.8502 43.3331 13.7982C43.0851 11.0654 40.9317 8.91059 38.179 8.69393C30.6589 8.10201 17.3412 8.10203 9.82146 8.69394C7.069 8.9106 4.91566 11.0652 4.66761 13.7979C4.11122 19.9275 4.11158 28.0722 4.66791 34.2018C4.91623 36.9378 7.07734 39.0901 9.82696 39.3064C10.4748 39.3573 11.163 39.4037 11.8839 39.4456C12.9866 39.5097 13.9325 38.6678 13.9966 37.5651C14.0607 36.4624 13.2188 35.5165 12.1161 35.4524C11.4182 35.4118 10.7574 35.3672 10.1406 35.3187C9.34531 35.2561 8.72462 34.6455 8.65153 33.8402C8.43606 31.4661 8.30739 28.7648 8.26558 26H39.7356C39.694 28.765 39.5654 31.4666 39.3498 33.8407C39.2766 34.6457 38.6562 35.2562 37.8611 35.3187C37.2444 35.3672 36.5838 35.4118 35.886 35.4524C34.7833 35.5165 33.9414 36.4624 34.0055 37.5651C34.0697 38.6678 35.0156 39.5098 36.1183 39.4456C36.839 39.4037 37.527 39.3573 38.1747 39.3064C40.9239 39.0901 43.0849 36.9382 43.3334 34.2025C43.6106 31.1503 43.7496 27.5984 43.7506 24.0445C43.7509 24.0297 43.7511 24.0149 43.7511 24C43.7511 23.9851 43.7509 23.9703 43.7506 23.9555ZM18.5858 32.5858C19.3668 31.8047 20.6332 31.8047 21.4142 32.5858L24 35.1716L26.5858 32.5858C27.3668 31.8047 28.6332 31.8047 29.4142 32.5858C30.1953 33.3668 30.1953 34.6332 29.4142 35.4142L26.8284 38L29.4142 40.5858C30.1953 41.3668 30.1953 42.6332 29.4142 43.4142C28.6332 44.1953 27.3668 44.1953 26.5858 43.4142L24 40.8284L21.4142 43.4142C20.6332 44.1953 19.3668 44.1953 18.5858 43.4142C17.8047 42.6332 17.8047 41.3668 18.5858 40.5858L21.1716 38L18.5858 35.4142C17.8047 34.6332 17.8047 33.3668 18.5858 32.5858Z" fill="#646464"/>
</svg>
