<svg width="48" height="48" viewBox="0 0 48 48" fill="none" xmlns="http://www.w3.org/2000/svg">
<path fill-rule="evenodd" clip-rule="evenodd" d="M7.38 15.8C8.34 15.9 9.92 16 12 16V16.02C14.08 16.02 15.66 15.92 16.62 15.82C18.3832 15.6615 19.7342 14.0901 19.9151 12H20C21.1 12 22 12.9 22 14V18.048C19.0965 18.0706 16.2838 18.1387 14.82 18.22C12.38 18.34 10.52 19.74 10.18 21.7C10.06 22.44 10 23.24 10 24.02C10 24.8 10.06 25.58 10.18 26.34C10.52 28.3 12.38 29.7 14.82 29.82C16.2702 29.8852 19.0746 29.9637 22 29.9905V34C22 37.3 24.7 40 28 40H28.0893C28.302 42.0897 29.6278 43.6425 31.38 43.8C32.34 43.9 33.94 44 36 44C38.06 44 39.64 43.88 40.62 43.8C42.4 43.64 43.76 42.04 43.92 39.92C43.98 39.36 44 38.74 44 38C44 37.26 43.96 36.62 43.92 36.08C43.74 33.94 42.4 32.34 40.62 32.18C39.66 32.08 38.06 31.98 36 31.98C33.94 31.98 32.36 32.1 31.38 32.18C29.6168 32.3385 28.2657 33.9099 28.0849 36H28C26.9 36 26 35.1 26 34V30.0305C28.9254 30.0037 31.7298 29.9252 33.18 29.86C35.64 29.72 37.5 28.32 37.82 26.36C37.94 25.62 38 24.82 38 24.04C38 23.26 37.94 22.48 37.82 21.72C37.48 19.74 35.62 18.34 33.18 18.22C31.7162 18.155 28.9035 18.0767 26 18.0497V14C26 10.7 23.3 8 20 8H19.9107C19.6974 5.91031 18.3525 4.3575 16.62 4.2C15.66 4.1 14.08 4 12 4C9.92 4 8.34 4.1 7.38 4.2C5.6 4.36 4.24 5.96 4.08 8.06C4.04 8.62 4 9.24 4 9.98C4 10.72 4.04 11.36 4.08 11.9C4.26 14.04 5.62 15.64 7.38 15.8ZM24.0123 26C27.5287 25.9998 31.242 25.8999 32.98 25.82C33.52 25.8 33.86 25.6 33.92 25.52C33.96 25.14 34 24.58 34 24C34 23.42 33.96 22.88 33.86 22.34C33.86 22.3652 33.8 22.3481 33.6904 22.3168C33.539 22.2735 33.2931 22.2032 32.98 22.18C31.22 22.1 27.48 22 24 22C20.52 22 16.78 22.1 15.02 22.18C14.54 22.2 14.22 22.36 14.12 22.44C14.04 22.94 14 23.46 14 24C14 24.58 14.04 25.14 14.14 25.66H14.16C14.16 25.66 14.56 25.8 15.02 25.82C16.758 25.8999 20.4713 25.9998 23.9877 26C23.9918 26 23.9959 26 24 26C24.0041 26 24.0082 26 24.0123 26ZM16 10C16 10.62 15.98 11.14 15.94 11.6C15.94 11.6564 15.9273 11.7127 15.9162 11.7619C15.9076 11.8 15.9 11.8338 15.9 11.86C15 11.92 13.68 12 12 12C10.32 12 9 11.94 8.1 11.86C8.08 11.8 8.06 11.7 8.06 11.6C8.02 11.14 8 10.62 8 10C8 9.38 8.02 8.86 8.06 8.4C8.06 8.34365 8.0727 8.2873 8.08379 8.2381C8.09238 8.2 8.1 8.16619 8.1 8.14C9 8.08 10.32 8 12 8C13.68 8 15 8.06 15.9 8.14C15.92 8.2 15.94 8.3 15.94 8.4C15.98 8.86 16 9.38 16 10ZM32.1 39.86C33 39.94 34.32 40 36 40C37.68 40 39 39.92 39.9 39.86C39.9 39.8338 39.9076 39.8 39.9162 39.7619C39.9273 39.7127 39.94 39.6563 39.94 39.6C39.98 39.14 40 38.6 40 38C40 37.4 39.98 36.86 39.94 36.42C39.94 36.32 39.92 36.22 39.9 36.16C39 36.08 37.68 36.02 36 36.02C34.32 36.02 33 36.1 32.1 36.16C32.1 36.1862 32.0924 36.22 32.0838 36.258C32.0727 36.3072 32.06 36.3636 32.06 36.42C32.02 36.88 32 37.42 32 38.02C32 38.62 32.02 39.16 32.06 39.6C32.06 39.72 32.08 39.8 32.1 39.86Z" fill="#646464"/>
</svg>
