<svg width="48" height="48" viewBox="0 0 48 48" fill="none" xmlns="http://www.w3.org/2000/svg">
<path d="M32.0884 25.9525C33.0602 25.9311 33.8877 25.4609 33.9648 24.7179C33.9864 24.5088 34 24.27 34 24C34 23.73 33.9864 23.4912 33.9648 23.2821C33.8877 22.5391 33.0602 22.0689 32.0884 22.0475C31.0117 22.0237 29.3575 22 27.0435 22C24.7295 22 16.9883 22.0237 15.9116 22.0475C14.9398 22.0689 14.1123 22.5391 14.0352 23.2821C14.0136 23.4912 14 23.73 14 24C14 24.27 14.0136 24.5088 14.0352 24.7179C14.1123 25.4609 14.9398 25.9311 15.9116 25.9525C16.9883 25.9763 24.7295 26 27.0435 26C29.3575 26 31.0117 25.9763 32.0884 25.9525Z" fill="#646464"/>
<path fill-rule="evenodd" clip-rule="evenodd" d="M24 4C12.9543 4 4 12.9543 4 24C4 35.0457 12.9543 44 24 44C35.0457 44 44 35.0457 44 24C44 12.9543 35.0457 4 24 4ZM8 24C8 15.1634 15.1634 8 24 8C32.8366 8 40 15.1634 40 24C40 32.8366 32.8366 40 24 40C15.1634 40 8 32.8366 8 24Z" fill="#646464"/>
</svg>
