<svg width="48" height="48" viewBox="0 0 48 48" fill="none" xmlns="http://www.w3.org/2000/svg">
<path fill-rule="evenodd" clip-rule="evenodd" d="M6 12C6 10.8954 6.89543 10 8 10H39C40.1046 10 41 10.8954 41 12C41 13.1046 40.1046 14 39 14H8C6.89543 14 6 13.1046 6 12ZM6 24C6 22.8954 6.89543 22 8 22H39C40.1046 22 41 22.8954 41 24C41 25.1046 40.1046 26 39 26H8C6.89543 26 6 25.1046 6 24ZM8 34C6.89543 34 6 34.8954 6 36C6 37.1046 6.89543 38 8 38H23C24.1046 38 25 37.1046 25 36C25 34.8954 24.1046 34 23 34H8Z" fill="#646464"/>
</svg>
