<svg width="48" height="48" viewBox="0 0 48 48" fill="none" xmlns="http://www.w3.org/2000/svg">
<path fill-rule="evenodd" clip-rule="evenodd" d="M19.9193 5.53758C22.2903 3.48877 25.7097 3.48878 28.0807 5.53759C29.7965 7.02026 32.269 9.27334 35.4983 12.5027C38.7276 15.7319 40.9807 18.2044 42.4634 19.9203C44.5122 22.2913 44.5122 25.7107 42.4634 28.0817L40.9501 26.774L42.4634 28.0817C40.9807 29.7975 38.7276 32.27 35.4983 35.4993C32.269 38.7286 29.7965 40.9817 28.0807 42.4643L26.773 40.9511L28.0806 42.4643C25.7097 44.5131 22.2903 44.5131 19.9193 42.4643L21.2269 40.9511L19.9193 42.4643C18.2035 40.9817 15.731 38.7286 12.5017 35.4993C9.27235 32.27 7.01927 29.7975 5.5366 28.0817C3.4878 25.7107 3.4878 22.2913 5.5366 19.9203C7.01927 18.2045 9.27235 15.732 12.5016 12.5027C15.7309 9.27334 18.2035 7.02025 19.9193 5.53758ZM25.4653 8.56415C24.5964 7.81325 23.4036 7.81325 22.5346 8.56415L22.5346 8.56416C20.8971 9.97917 18.4955 12.1657 15.3301 15.3311L15.3301 15.3311C12.1647 18.4965 9.97819 20.8981 8.56317 22.5356C7.81228 23.4046 7.81228 24.5974 8.56317 25.4664L7.04989 26.774L8.56317 25.4664C9.97819 27.1039 12.1647 29.5055 15.3301 32.6709C18.4955 35.8363 20.8971 38.0227 22.5346 39.4378C23.4036 40.1887 24.5964 40.1887 25.4653 39.4378C27.1029 38.0227 29.5045 35.8363 32.6699 32.6709C35.8353 29.5055 38.0218 27.1039 39.4368 25.4664C40.1877 24.5974 40.1877 23.4046 39.4368 22.5356L39.4368 22.5356C38.0218 20.898 35.8353 18.4965 32.6699 15.3311L34.0841 13.9169L32.6699 15.3311C29.5045 12.1657 27.1029 9.97917 25.4653 8.56416L26.763 7.06242L25.4653 8.56415Z" fill="#646464"/>
</svg>
