<svg width="48" height="48" viewBox="0 0 48 48" fill="none" xmlns="http://www.w3.org/2000/svg">
<path fill-rule="evenodd" clip-rule="evenodd" d="M33.7802 32.1602C34.8402 32.3802 35.9402 32.5002 37.0802 32.5002C38.2202 32.5002 39.3402 32.3802 40.3802 32.1602C42.3802 31.7402 43.8202 29.9402 43.8802 27.8002C43.9402 25.9802 44.0002 22.9802 44.0002 19.2402C44.0002 15.5002 43.9402 12.5002 43.8802 10.6802C43.8202 8.54023 42.3802 6.74023 40.3802 6.32023C38.2802 5.88023 35.8802 5.88023 33.7802 6.32023C32.8083 6.52231 31.9753 7.03459 31.3658 7.7546C28.8315 7.20224 22.8085 6.09976 15.12 6.09976C10.94 5.93977 7.44 8.35977 6.34 12.0998C5.48 15.0398 4.38 19.8998 4 26.3598C3.9 28.1198 4.5 29.7998 5.72 31.0798C7 32.4198 8.84 33.1998 10.9 33.1998C13.68 33.0798 16.38 32.7198 18.24 32.4198L18.1 35.7598C18.24 38.7398 19.98 41.0198 22.52 41.5798C23.26 41.7398 24.06 41.8598 24.94 41.9598C25.14 41.9998 25.34 41.9998 25.54 41.9998C27.9 41.9998 30.06 40.4798 30.9 38.1598L33.1604 31.9832C33.3597 32.0564 33.5666 32.1158 33.7802 32.1602ZM30.3026 28.1598C30.291 28.0414 30.2835 27.9214 30.2802 27.8002C30.2202 25.9802 30.1602 22.9802 30.1602 19.2402C30.1602 16.0783 30.203 13.4454 30.2526 11.6072C27.7604 11.0821 22.0811 10.0798 15.04 10.0798C12.62 9.95976 10.74 11.2598 10.18 13.2198C9.38 15.9598 8.36 20.4998 8 26.5998C7.96 27.4398 8.3 27.9998 8.62 28.3198C9.14 28.8598 9.94 29.1798 10.8 29.1798C14.913 28.9813 19.0097 28.2134 19.8027 28.0648C19.8889 28.0486 19.94 28.0398 19.94 28.0398C20.54 27.9198 21.18 28.0798 21.64 28.4798C22.1 28.8798 22.36 29.4798 22.34 30.0798L22.1 35.7398C22.1 35.8598 22.26 37.4198 23.4 37.6798C24.06 37.8198 24.74 37.9198 25.38 37.9998C26.16 38.0798 26.86 37.5998 27.14 36.7998L30.28 28.2198C30.2872 28.1996 30.2948 28.1796 30.3026 28.1598ZM34.6002 10.2402C35.3802 10.0802 36.2202 10.0002 37.0802 10.0002V10.0202C37.9402 10.0202 38.7802 10.1002 39.5602 10.2602C39.8802 10.3402 39.8802 10.8402 39.8802 10.8402C39.9402 12.6402 40.0002 15.6002 40.0002 19.2802C40.0002 22.9602 39.9402 25.9202 39.8802 27.7202C39.8802 27.7402 39.8802 28.2202 39.5602 28.2802C38.0002 28.6002 36.1602 28.6002 34.6002 28.2802C34.2802 28.2002 34.2802 27.7202 34.2802 27.7002C34.2202 25.9002 34.1602 22.9402 34.1602 19.2602C34.1602 15.5802 34.2202 12.6202 34.2802 10.8202C34.2802 10.8002 34.2802 10.3002 34.6002 10.2402Z" fill="#646464"/>
</svg>
