<svg width="48" height="48" viewBox="0 0 48 48" fill="none" xmlns="http://www.w3.org/2000/svg">
<path fill-rule="evenodd" clip-rule="evenodd" d="M28 12C28 14.2091 26.2091 16 24 16C21.7909 16 20 14.2091 20 12C20 9.79086 21.7909 8 24 8C26.2091 8 28 9.79086 28 12ZM6 24C6 22.8954 6.89543 22 8 22H40C41.1046 22 42 22.8954 42 24C42 25.1046 41.1046 26 40 26H8C6.89543 26 6 25.1046 6 24ZM24 40C26.2091 40 28 38.2091 28 36C28 33.7909 26.2091 32 24 32C21.7909 32 20 33.7909 20 36C20 38.2091 21.7909 40 24 40Z" fill="#646464"/>
</svg>
