<svg width="48" height="48" viewBox="0 0 48 48" fill="none" xmlns="http://www.w3.org/2000/svg">
<path fill-rule="evenodd" clip-rule="evenodd" d="M12.26 44.62C14.62 44.82 18.58 45.06 24 45.06L24.04 45.02C29.46 45.02 33.42 44.78 35.78 44.58C38.88 44.32 41.32 41.88 41.56 38.76C41.76 36.06 42.02 31.4 42.02 24.5C42.02 22.58 42 20.82 41.96 19.24C41.9456 18.5891 41.8474 17.98 41.6656 17.4128C41.6376 17.2516 41.5892 17.0928 41.5202 16.94C40.8602 15.44 39.3202 12.52 36.4002 9.60003C33.4802 6.70003 30.5402 5.14003 29.0602 4.48003C28.9265 4.41963 28.7881 4.37506 28.6475 4.3461C28.0379 4.11895 27.3754 4 26.66 4H24C18.6 4 14.64 4.24 12.26 4.44C9.14002 4.72 6.72002 7.16 6.46002 10.28C6.26002 12.96 6.02002 17.62 6.02002 24.54C6.02002 31.46 6.26002 36.1 6.48002 38.8C6.72002 41.9 9.16002 44.36 12.26 44.62ZM26.28 8.04H23.98L24 8C18.74 8 14.9 8.24 12.6 8.44C11.44 8.54 10.56 9.42 10.46 10.6C10.26 13.22 10 17.76 10 24.54C10 31.32 10.24 35.86 10.46 38.48C10.56 39.66 11.44 40.54 12.6 40.64C14.88 40.84 18.72 41.06 24 41.06C29.28 41.06 33.12 40.82 35.4 40.64C36.56 40.54 37.44 39.66 37.54 38.48C37.74 35.86 38 31.32 38 24.54C38 22.793 38 21.1982 37.9534 19.7399C36.4826 19.6771 34.7559 19.5435 32.7802 19.36C29.5402 19.06 26.9602 16.48 26.6602 13.22C26.4765 11.2413 26.3427 9.51226 26.28 8.04ZM30.3825 9.87482C30.4423 10.7857 30.5215 11.7934 30.6202 12.84C30.7402 14.18 31.8002 15.24 33.1402 15.36C33.8553 15.4262 34.5353 15.4837 35.1803 15.5382C35.5045 15.5655 35.8198 15.5922 36.1262 15.6188C35.4619 14.647 34.6055 13.5655 33.52 12.48C32.4388 11.3988 31.3576 10.5414 30.3825 9.87482Z" fill="#646464"/>
</svg>
