<svg width="48" height="48" viewBox="0 0 48 48" fill="none" xmlns="http://www.w3.org/2000/svg">
<path d="M33 27.9873C33 29.0919 32.1046 29.9873 31 29.9873H26V34.9873C26 36.0919 25.1046 36.9873 24 36.9873C22.8954 36.9873 22 36.0919 22 34.9873V29.9873H17C15.8954 29.9873 15 29.0919 15 27.9873C15 26.8827 15.8954 25.9873 17 25.9873H22V20.9873C22 19.8827 22.8954 18.9873 24 18.9873C25.1046 18.9873 26 19.8827 26 20.9873V25.9873H31C32.1046 25.9873 33 26.8827 33 27.9873Z" fill="#646464"/>
<path fill-rule="evenodd" clip-rule="evenodd" d="M12.2595 44.62C14.6195 44.82 18.5795 45.06 23.9995 45.06L24.0395 45.02C29.4595 45.02 33.4195 44.78 35.7795 44.58C38.8795 44.32 41.3195 41.88 41.5595 38.76C41.7595 36.06 42.0195 31.4 42.0195 24.5C42.0195 22.58 41.9995 20.82 41.9595 19.24C41.9451 18.5891 41.8469 17.98 41.6651 17.4128C41.6371 17.2516 41.5887 17.0928 41.5197 16.94C40.8597 15.44 39.3197 12.52 36.3997 9.60003C33.4797 6.68003 30.5397 5.14003 29.0597 4.48003C28.9291 4.42286 28.7951 4.37986 28.6598 4.35087C28.0466 4.12061 27.3799 4 26.6595 4H23.9995C18.5995 4 14.6395 4.24 12.2595 4.44C9.13953 4.72 6.71953 7.16 6.45953 10.28C6.25953 12.96 6.01953 17.62 6.01953 24.54C6.01953 31.46 6.25953 36.1 6.47953 38.8C6.71953 41.9 9.15953 44.36 12.2595 44.62ZM26.2795 8.04H23.9795L23.9995 8C18.7395 8 14.8995 8.24 12.5995 8.44C11.4395 8.54 10.5595 9.42 10.4595 10.6C10.2595 13.22 9.99953 17.76 9.99953 24.54C9.99953 31.32 10.2395 35.86 10.4595 38.48C10.5595 39.66 11.4395 40.54 12.5995 40.64C14.8795 40.84 18.7195 41.06 23.9995 41.06C29.2795 41.06 33.1195 40.82 35.3995 40.64C36.5595 40.54 37.4395 39.66 37.5395 38.48C37.7395 35.86 37.9995 31.32 37.9995 24.54C37.9995 22.7928 37.9995 21.1978 37.9529 19.7394C36.4906 19.6764 34.7639 19.543 32.7797 19.36C29.5397 19.06 26.9597 16.48 26.6597 13.22C26.476 11.2413 26.3422 9.51226 26.2795 8.04ZM30.382 9.87482C30.4418 10.7857 30.521 11.7934 30.6197 12.84C30.7397 14.18 31.8197 15.24 33.1397 15.36C33.8548 15.4262 34.5347 15.4837 35.1796 15.5381C35.5038 15.5655 35.8193 15.5922 36.1257 15.6188C35.4615 14.647 34.6051 13.5655 33.5195 12.48C32.4383 11.3988 31.3571 10.5414 30.382 9.87482Z" fill="#646464"/>
</svg>
