<svg width="48" height="48" viewBox="0 0 48 48" fill="none" xmlns="http://www.w3.org/2000/svg">
<path fill-rule="evenodd" clip-rule="evenodd" d="M19.7471 29.6628L22.4127 39.0464C22.7145 40.1089 23.8205 40.7256 24.8831 40.4238C25.9456 40.122 26.5623 39.0159 26.2604 37.9534L17.7779 8.09235C16.9438 5.15634 12.7687 5.19631 11.991 8.14775L4.12802 37.9903C3.84659 39.0584 4.48432 40.1525 5.55244 40.4339C6.62055 40.7153 7.71458 40.0776 7.99601 39.0095L10.4587 29.6628H19.7471ZM14.9283 12.6993L11.5126 25.6628H18.6108L14.9283 12.6993Z" fill="#646464"/>
<path fill-rule="evenodd" clip-rule="evenodd" d="M34.2638 24.6381C33.8565 24.8435 33.4353 25.2092 32.9232 26.0516C32.3494 26.9955 31.1191 27.2955 30.1753 26.7217C29.2314 26.148 28.9314 24.9177 29.5052 23.9738C30.2665 22.7214 31.1825 21.7122 32.4625 21.0666C33.7082 20.4384 35.0875 20.2632 36.5628 20.2632C37.9119 20.2632 39.3113 20.342 40.5329 20.9834C41.8565 21.6782 42.642 22.8406 43.2379 24.2191C43.5832 25.0179 43.7437 26.1613 43.84 27.2108C43.9443 28.3473 43.9957 29.6849 44.01 31.0505C44.0387 33.7789 43.9209 36.7478 43.7439 38.6809C43.6432 39.7809 42.6699 40.5909 41.5699 40.4902C40.6953 40.4102 40.0039 39.7784 39.808 38.9698C39.3744 39.1722 38.9335 39.3482 38.5011 39.5007C36.694 40.1382 34.7731 40.4574 33.5722 40.4973C31.8725 40.5536 30.6056 39.7653 29.7925 38.8654C29.0215 38.012 28.5882 36.9961 28.4244 36.2348C28.1753 35.0768 27.9473 31.7539 30.9306 29.9206C32.1336 29.1813 34.1891 28.4894 36.1271 28.0034C37.3277 27.7023 38.6295 27.4437 39.83 27.304C39.7907 26.9278 39.7461 26.6057 39.6978 26.3418C39.6681 26.18 39.6392 26.0521 39.613 25.955C39.6001 25.9071 39.5889 25.8707 39.5801 25.8443C39.5716 25.8191 39.5666 25.8073 39.5663 25.8064C39.1434 24.8281 38.8464 24.6157 38.6736 24.525C38.3988 24.3807 37.8881 24.2632 36.5628 24.2632C35.3638 24.2632 34.7055 24.4153 34.2638 24.6381ZM40.0122 31.312C39.1412 31.428 38.1315 31.6246 37.1 31.8832C35.2306 32.352 33.6779 32.9273 33.0248 33.3286C32.6322 33.5698 32.4457 33.8912 32.3521 34.2759C32.2471 34.7077 32.2839 35.1563 32.335 35.3937C32.3684 35.5489 32.5112 35.9078 32.7605 36.1838C32.9678 36.4131 33.1654 36.5086 33.4396 36.4995C34.2126 36.4738 35.7301 36.2366 37.1704 35.7285C37.8815 35.4777 38.5068 35.1838 38.9878 34.8636C39.4802 34.5357 39.7113 34.254 39.8033 34.0697C39.8583 33.9597 39.922 33.8569 39.9933 33.7619C40.0111 32.9531 40.0183 32.1239 40.0122 31.312Z" fill="#646464"/>
</svg>
