<svg width="48" height="48" viewBox="0 0 48 48" fill="none" xmlns="http://www.w3.org/2000/svg">
<path fill-rule="evenodd" clip-rule="evenodd" d="M6 11C7.10457 11 8 11.8954 8 13V35C8 36.1046 7.10457 37 6 37C4.89543 37 4 36.1046 4 35L4 13C4 11.8954 4.89543 11 6 11ZM12 14C12 12.8954 12.8954 12 14 12H38C39.1046 12 40 12.8954 40 14C40 15.1046 39.1046 16 38 16H14C12.8954 16 12 15.1046 12 14ZM12 24C12 22.8954 12.8954 22 14 22H40C41.1046 22 42 22.8954 42 24C42 25.1046 41.1046 26 40 26H14C12.8954 26 12 25.1046 12 24ZM12 34C12 32.8954 12.8954 32 14 32H30C31.1046 32 32 32.8954 32 34C32 35.1046 31.1046 36 30 36H14C12.8954 36 12 35.1046 12 34Z" fill="#646464"/>
</svg>
