<svg width="48" height="48" viewBox="0 0 48 48" fill="none" xmlns="http://www.w3.org/2000/svg">
<path fill-rule="evenodd" clip-rule="evenodd" d="M19.9995 43.06C14.5795 43.06 10.6195 42.82 8.25953 42.62C5.15953 42.36 2.71953 39.9 2.47953 36.8C2.25953 34.1 2.01953 29.46 2.01953 22.54C2.01953 15.62 2.25953 10.96 2.45953 8.28C2.71953 5.16 5.13953 2.72 8.25953 2.44C10.6395 2.24 14.5995 2 19.9995 2H22.6595C23.3755 2 24.0386 2.11916 24.6595 2.34672C24.8015 2.37569 24.9422 2.42006 25.0793 2.48003C26.5593 3.14003 29.4993 4.68003 32.4193 7.60003C35.3393 10.52 36.8793 13.46 37.5393 14.94C37.6078 15.0917 37.6559 15.2494 37.684 15.4095C37.8665 15.9777 37.965 16.5878 37.9795 17.24C38.0195 18.82 38.0395 20.58 38.0395 22.5C38.0395 23.6 37.1395 24.5 36.0395 24.5C34.9395 24.5 34.0395 23.6 34.0395 22.5C34.0395 20.7694 34.0395 19.1882 33.9942 17.7412C32.5243 17.6789 30.7879 17.5447 28.7993 17.36C25.5593 17.06 22.9793 14.48 22.6793 11.22C22.4939 9.22334 22.3593 7.48092 22.2974 6H20.0195C14.7595 6 10.9195 6.24 8.61953 6.44C7.45953 6.54 6.57953 7.42 6.47953 8.6C6.27953 11.22 6.01953 15.76 6.01953 22.54C6.01953 29.32 6.25953 33.86 6.47953 36.48C6.57953 37.66 7.45953 38.54 8.61953 38.64C10.8995 38.84 14.7395 39.06 20.0195 39.06C21.4395 39.06 22.7795 39.06 23.9995 39.02C25.0995 38.98 26.0195 39.86 26.0595 40.96C26.0795 42.06 25.2195 42.98 24.1195 43.02C22.8595 43.06 21.4995 43.06 20.0395 43.06H19.9995ZM33.7993 42.5198C33.7993 43.7398 34.7793 44.7198 35.9993 44.7198C37.2193 44.7198 38.1993 43.7398 38.1993 42.5198V38.7198H41.9993C43.2193 38.7198 44.1993 37.7398 44.1993 36.5198C44.1993 35.2998 43.2193 34.3198 41.9993 34.3198H38.1993V30.5198C38.1993 29.2998 37.2193 28.3198 35.9993 28.3198C34.7793 28.3198 33.7993 29.2998 33.7993 30.5198V34.3198H29.9993C28.7793 34.3198 27.7993 35.2998 27.7993 36.5198C27.7993 37.7398 28.7793 38.7198 29.9993 38.7198H33.7993V42.5198ZM26.3802 7.85414C26.4401 8.77045 26.5198 9.78544 26.6193 10.84C26.7393 12.18 27.8193 13.24 29.1393 13.36C29.8544 13.4262 30.5344 13.4837 31.1793 13.5382C31.5084 13.566 31.8284 13.593 32.1393 13.62C31.4793 12.64 30.6193 11.56 29.5193 10.46C28.4271 9.36785 27.3546 8.51227 26.3802 7.85414Z" fill="#646464"/>
</svg>
