<svg width="48" height="48" viewBox="0 0 48 48" fill="none" xmlns="http://www.w3.org/2000/svg">
<path fill-rule="evenodd" clip-rule="evenodd" d="M12.5948 7.90491C15.0627 7.69356 18.8643 7.47363 24 7.47363C24.7841 7.47363 25.5371 7.47876 26.259 7.4882C26.3348 9.23487 26.4886 11.1179 26.6395 12.7034C26.9493 15.9593 29.5144 18.5242 32.7702 18.834C34.3468 18.9839 36.2178 19.1369 37.9563 19.2131C37.984 20.6671 38 22.2605 38 24C38 30.6659 37.7639 35.1853 37.5456 37.9381C37.4521 39.117 36.5798 39.9944 35.4052 40.095C32.9373 40.3064 29.1356 40.5263 24 40.5263C18.8644 40.5263 15.0627 40.3064 12.5949 40.095C11.4202 39.9944 10.5479 39.117 10.4544 37.9381C10.2362 35.1851 10 30.6659 10 24C10 17.334 10.2362 12.8148 10.4544 10.0618C10.5479 8.88291 11.4202 8.00552 12.5948 7.90491ZM41.563 16.6472C41.5413 16.58 41.5159 16.5136 41.4869 16.4482L41.484 16.4475C41.4607 16.3919 41.4365 16.3364 41.4112 16.281C40.714 14.7544 39.1798 11.9302 36.3616 9.11205C33.4612 6.21167 30.5544 4.6711 29.0612 4.0031C29.0493 3.99775 29.0373 3.99245 29.0253 3.9872L29.0252 3.98657C29.0022 3.97634 28.979 3.96656 28.9558 3.95725C28.1828 3.63077 27.389 3.50447 26.6524 3.49335C25.8098 3.48062 24.9256 3.47363 24 3.47363C18.75 3.47363 14.8344 3.69846 12.2535 3.91951C9.12612 4.18735 6.71475 6.62024 6.46696 9.74568C6.23946 12.615 6 17.2404 6 24C6 30.7596 6.23946 35.3849 6.46696 38.2542C6.71474 41.3796 9.12616 43.8126 12.2535 44.0804C14.8344 44.3014 18.75 44.5263 24 44.5263C29.2501 44.5263 33.1657 44.3014 35.7466 44.0804C38.8739 43.8125 41.2853 41.3797 41.5331 38.2542C41.7606 35.385 42 30.7595 42 24C42 22.0738 41.9806 20.3209 41.9476 18.7326C41.9336 18.062 41.8252 17.3488 41.563 16.6472ZM30.3708 9.31889C31.3501 9.98631 32.441 10.8483 33.5332 11.9405C34.6215 13.0288 35.4813 14.1159 36.1478 15.0926C35.1313 15.0214 34.0836 14.9408 33.1491 14.8519C31.8028 14.7238 30.7496 13.6706 30.6215 12.3245C30.5315 11.3785 30.4427 10.347 30.3708 9.31889ZM15.5791 25.0557C14.4745 25.0557 13.5791 25.9511 13.5791 27.0557C13.5791 28.1602 14.4745 29.0557 15.5791 29.0557H32.4212C33.5258 29.0557 34.4212 28.1602 34.4212 27.0557C34.4212 25.9511 33.5258 25.0557 32.4212 25.0557H15.5791ZM13.5791 34.0117C13.5791 32.9071 14.4745 32.0117 15.5791 32.0117H32.4212C33.5258 32.0117 34.4212 32.9071 34.4212 34.0117C34.4212 35.1163 33.5258 36.0117 32.4212 36.0117H15.5791C14.4745 36.0117 13.5791 35.1163 13.5791 34.0117ZM16.0024 18.0381C14.8979 18.0381 14.0024 18.9335 14.0024 20.0381C14.0024 21.1427 14.8979 22.0381 16.0024 22.0381H24C25.1046 22.0381 26 21.1427 26 20.0381C26 18.9335 25.1046 18.0381 24 18.0381H16.0024Z" fill="#646464"/>
</svg>
