<svg width="48" height="48" viewBox="0 0 48 48" fill="none" xmlns="http://www.w3.org/2000/svg">
<path d="M19.2082 33.6749C18.6943 32.7362 17.5254 32.365 16.5601 32.8476C15.5721 33.3416 15.1717 34.5429 15.6657 35.5309C15.9699 36.1089 16.4123 36.6094 16.921 37.0164C17.7615 37.6887 19.0141 38.2728 20.7273 38.2728C22.1095 38.2728 23.192 37.8926 24 37.3925C24.808 37.8926 25.8905 38.2728 27.2727 38.2728C28.9858 38.2728 30.2385 37.6887 31.0789 37.0164C31.5876 36.6094 32.03 36.1089 32.3343 35.5309C32.8283 34.5429 32.4278 33.3416 31.4399 32.8476C30.4746 32.365 29.3057 32.7362 28.7918 33.6749L28.7793 33.6922C28.4399 34.1446 27.8038 34.2728 27.2727 34.2728C26.5754 34.2728 26.1945 34.0658 26 33.9198V33.0838C26.4206 32.8403 26.8088 32.5406 27.1399 32.22C28 31.3874 28.7727 30.131 28.7727 28.6169C28.7423 27.8901 28.375 27.2451 27.8158 26.7857C27.0262 26.1371 25.8038 25.7727 24 25.7727C22.1973 25.7727 20.9756 26.1374 20.1861 26.7853C19.6259 27.245 19.2587 27.8896 19.2273 28.617C19.2274 30.1311 20.0001 31.3875 20.8602 32.2201C21.1913 32.5406 21.5795 32.8403 22 33.0838V33.9198C21.8055 34.0658 21.4246 34.2728 20.7273 34.2728C20.1962 34.2728 19.5601 34.1446 19.2207 33.6922L19.2082 33.6749Z" fill="#646464"/>
<path fill-rule="evenodd" clip-rule="evenodd" d="M8.57569 10.5753C11.8194 6.81028 16.8726 4 24 4C31.1274 4 36.1806 6.81028 39.4243 10.5753C42.6112 14.2743 44 18.8326 44 22.3636C44 24.6973 43.3639 28.7979 39.8925 31.0417C39.9035 31.4319 39.9091 31.8249 39.9091 32.2208L39.9091 32.2713C39.9096 33.4946 39.9107 36.5393 37.7263 39.2437C35.4619 42.0472 31.28 44 24 44C16.72 44 12.5381 42.0472 10.2737 39.2437C8.08932 36.5393 8.09044 33.4946 8.0909 32.2714L8.09091 32.2208C8.09091 31.8249 8.09649 31.4319 8.10752 31.0417C4.63612 28.7979 4 24.6973 4 22.3636C4 18.8326 5.38884 14.2743 8.57569 10.5753ZM12.1568 29.9969C12.1607 29.9318 12.1614 29.8671 12.159 29.8029C12.3916 25.8826 13.5793 22.4881 14.7337 20.0468C15.3174 18.8124 15.8861 17.8356 16.3033 17.1749C16.5096 16.8482 16.721 16.5222 16.9536 16.2132C17.6227 15.3365 17.4557 14.0832 16.5799 13.4123C15.703 12.7406 14.4476 12.9069 13.7759 13.7838C13.4783 14.194 13.192 14.6104 12.9212 15.0391C12.4312 15.8151 11.7808 16.9343 11.1176 18.3369C10.197 20.2838 9.2387 22.8039 8.66017 25.7292C8.18001 24.6897 8 23.4863 8 22.3636C8 19.7583 9.06571 16.1348 11.6061 13.1861C14.0897 10.3034 18.0365 8 24 8C29.9635 8 33.9103 10.3034 36.3939 13.1861C38.9343 16.1348 40 19.7583 40 22.3636C40 23.4863 39.82 24.6898 39.3398 25.7292C38.7613 22.8039 37.803 20.2838 36.8824 18.3369C36.2192 16.9343 35.5688 15.8151 35.0788 15.0391C34.8089 14.6118 34.5315 14.1854 34.2241 13.7838C33.5524 12.9069 32.297 12.7406 31.4201 13.4123C30.5443 14.0832 30.3784 15.3378 31.0474 16.2146C31.279 16.5237 31.4906 16.8485 31.6967 17.1749C32.1139 17.8356 32.6826 18.8123 33.2663 20.0468C34.4207 22.4881 35.6084 25.8829 35.841 29.8033C35.8386 29.8674 35.8393 29.932 35.8432 29.9969C35.8867 30.7245 35.9091 31.4663 35.9091 32.2208C35.9091 33.3704 35.8767 35.1677 34.6145 36.7303C33.4017 38.232 30.6291 40 24 40C17.3709 40 14.5983 38.232 13.3854 36.7303C12.1233 35.1677 12.0909 33.3705 12.0909 32.2208C12.0909 31.4663 12.1133 30.7245 12.1568 29.9969Z" fill="#646464"/>
<path d="M28.9091 18.7273C30.0137 18.7273 30.9091 19.6227 30.9091 20.7273V21.5455C30.9091 22.65 30.0137 23.5455 28.9091 23.5455C27.8046 23.5455 26.9091 22.65 26.9091 21.5455V20.7273C26.9091 19.6227 27.8046 18.7273 28.9091 18.7273Z" fill="#646464"/>
<path d="M19.0909 18.7273C20.1954 18.7273 21.0909 19.6227 21.0909 20.7273V21.5455C21.0909 22.65 20.1954 23.5455 19.0909 23.5455C17.9863 23.5455 17.0909 22.65 17.0909 21.5455V20.7273C17.0909 19.6227 17.9863 18.7273 19.0909 18.7273Z" fill="#646464"/>
</svg>
