<svg width="48" height="48" viewBox="0 0 48 48" fill="none" xmlns="http://www.w3.org/2000/svg">
<path d="M18.8555 23.7695C18.8555 22.665 19.7509 21.7695 20.8555 21.7695C21.96 21.7695 22.8555 22.665 22.8555 23.7695V27.444C22.8555 28.5486 21.96 29.444 20.8555 29.444C19.7509 29.444 18.8555 28.5486 18.8555 27.444V23.7695Z" fill="#646464"/>
<path fill-rule="evenodd" clip-rule="evenodd" d="M34.3114 4.36347C32.0137 4.17618 28.6256 4.00049 24.0006 4.00049C19.3756 4.00049 15.9875 4.17618 13.6898 4.36347C13.0504 4.41558 12.436 4.55944 11.8612 4.78554C9.7332 5.2918 8.28028 7.21447 8.09563 9.30014C7.33358 17.9064 7.36297 26.6012 8.18384 35.2007C8.34091 36.8463 9.165 38.469 10.6648 39.4754C14.3643 41.9579 19.3851 43.8506 24.4453 43.9983C26.8827 44.0694 28.7188 42.3796 29.3003 40.3089C31.342 40.2401 33.0033 40.1372 34.3114 40.0306C37.4917 39.7714 39.8878 37.275 40.1047 34.1321C40.281 31.5774 40.4561 27.664 40.4561 22.1971C40.4561 16.73 40.281 12.8168 40.1047 10.262C39.8878 7.1191 37.4917 4.62268 34.3114 4.36347ZM33.9865 8.35025C31.9626 8.18529 28.9956 8.02551 24.9676 8.00315C25.6459 8.37622 26.2939 8.77066 26.9058 9.18122C28.4056 10.1876 29.2298 11.8103 29.3869 13.456C30.1104 21.0359 30.219 28.6896 29.7128 36.2916C31.4427 36.2258 32.8605 36.1356 33.9865 36.0439C35.1551 35.9486 36.0307 35.0669 36.1142 33.8567C36.2837 31.4002 36.4561 27.5789 36.4561 22.1971C36.4561 16.8152 36.2837 12.994 36.1142 10.5374C36.0307 9.32722 35.1551 8.4455 33.9865 8.35025ZM12.0801 9.65291C12.1412 8.96167 12.6325 8.64573 13.0086 8.65671C17.2147 8.77947 21.5148 10.3808 24.6769 12.5027C25.0575 12.7581 25.3469 13.2275 25.405 13.836C26.2026 22.1918 26.2311 30.6412 25.4907 39.0038C25.4295 39.6949 24.9383 40.011 24.562 40C20.356 39.8773 16.056 38.276 12.8937 36.154C12.5132 35.8986 12.2238 35.4292 12.1657 34.8206C11.3681 26.4649 11.3396 18.0155 12.0801 9.65291Z" fill="#646464"/>
</svg>
