<svg width="48" height="48" viewBox="0 0 48 48" fill="none" xmlns="http://www.w3.org/2000/svg">
<mask id="mask0_7766_1803" style="mask-type:alpha" maskUnits="userSpaceOnUse" x="0" y="0" width="48" height="48">
<path d="M48 24H28C25.7909 24 24 25.7909 24 28V48H0V0H48V24Z" fill="#D9D9D9"/>
</mask>
<g mask="url(#mask0_7766_1803)">
<path fill-rule="evenodd" clip-rule="evenodd" d="M6 16.8254C6 15.7209 6.89543 14.8254 8 14.8254H40C41.1046 14.8254 42 15.7209 42 16.8254C42 17.93 41.1046 18.8254 40 18.8254H8C6.89543 18.8254 6 17.93 6 16.8254Z" fill="#646464"/>
<path fill-rule="evenodd" clip-rule="evenodd" d="M6 30.0703C6 28.9657 6.89543 28.0703 8 28.0703H40C41.1046 28.0703 42 28.9657 42 30.0703C42 31.1749 41.1046 32.0703 40 32.0703H8C6.89543 32.0703 6 31.1749 6 30.0703Z" fill="#646464"/>
<path fill-rule="evenodd" clip-rule="evenodd" d="M30.5788 41.9921C29.4785 41.8943 28.6659 40.9232 28.7637 39.8229L31.6082 7.82292C31.706 6.72269 32.6772 5.91006 33.7774 6.00786C34.8776 6.10565 35.6902 7.07685 35.5924 8.17708L32.748 40.1771C32.6502 41.2773 31.679 42.0899 30.5788 41.9921Z" fill="#646464"/>
<path fill-rule="evenodd" clip-rule="evenodd" d="M14.2238 41.9921C13.1236 41.8943 12.3109 40.9232 12.4087 39.8229L15.2532 7.82292C15.351 6.72269 16.3222 5.91006 17.4224 6.00786C18.5226 6.10565 19.3353 7.07685 19.2375 8.17708L16.393 40.1771C16.2952 41.2773 15.324 42.0899 14.2238 41.9921Z" fill="#646464"/>
</g>
<path d="M29.8385 30.7707C29.0024 30.8131 28.5157 31.4414 28.5045 32.2786C28.5017 32.4876 28.5 32.7269 28.5 33C28.5 33.2731 28.5017 33.5124 28.5045 33.7214C28.5157 34.5586 29.0024 35.1869 29.8385 35.2293C30.0911 35.2421 30.392 35.25 30.75 35.25C31.108 35.25 31.4089 35.2421 31.6615 35.2293C32.4976 35.1869 32.9843 34.5586 32.9955 33.7214C32.9983 33.5124 33 33.2731 33 33C33 32.7269 32.9983 32.4876 32.9955 32.2786C32.9843 31.4414 32.4976 30.8131 31.6615 30.7707C31.4089 30.7579 31.108 30.75 30.75 30.75C30.392 30.75 30.0911 30.7579 29.8385 30.7707Z" fill="#646464"/>
<path d="M29.8385 39.7707C29.0024 39.8131 28.5157 40.4415 28.5045 41.2786C28.5017 41.4876 28.5 41.7268 28.5 42C28.5 42.2732 28.5017 42.5124 28.5045 42.7214C28.5157 43.5585 29.0024 44.1869 29.8385 44.2293C30.0911 44.2421 30.392 44.25 30.75 44.25C31.108 44.25 31.4089 44.2421 31.6615 44.2293C32.4976 44.1869 32.9843 43.5585 32.9955 42.7214C32.9983 42.5124 33 42.2732 33 42C33 41.7268 32.9983 41.4876 32.9955 41.2786C32.9843 40.4415 32.4976 39.8131 31.6615 39.7707C31.4089 39.7579 31.108 39.75 30.75 39.75C30.392 39.75 30.0911 39.7579 29.8385 39.7707Z" fill="#646464"/>
<path d="M28.5045 50.2786C28.5157 49.4415 29.0024 48.8131 29.8385 48.7707C30.0911 48.7579 30.392 48.75 30.75 48.75C31.108 48.75 31.4089 48.7579 31.6615 48.7707C32.4976 48.8131 32.9843 49.4415 32.9955 50.2786C32.9983 50.4876 33 50.7268 33 51C33 51.2732 32.9983 51.5124 32.9955 51.7214C32.9843 52.5585 32.4976 53.1869 31.6615 53.2293C31.4089 53.2421 31.108 53.25 30.75 53.25C30.392 53.25 30.0911 53.2421 29.8385 53.2293C29.0024 53.1869 28.5157 52.5585 28.5045 51.7214C28.5017 51.5124 28.5 51.2732 28.5 51C28.5 50.7268 28.5017 50.4876 28.5045 50.2786Z" fill="#646464"/>
<path d="M37.2 31.4728C36.57 31.5028 36.06 31.8628 36.015 32.4628C36 32.6128 36 32.7778 36 32.9728C36 33.0767 36.0043 33.1721 36.0082 33.2612C36.0117 33.3393 36.015 33.4128 36.015 33.4828C36.06 34.0828 36.57 34.4428 37.2 34.4728C38.265 34.5178 41.58 34.5628 45.75 34.5628C49.92 34.5628 53.235 34.5178 54.2999 34.4728C54.9299 34.4428 55.4399 34.0828 55.4849 33.4828C55.4999 33.3328 55.4999 33.1678 55.4999 32.9728C55.4999 32.869 55.4957 32.7736 55.4917 32.6845C55.4882 32.6064 55.4849 32.5329 55.4849 32.4628C55.4399 31.8628 54.9299 31.5028 54.2999 31.4728C53.235 31.4278 49.92 31.3828 45.75 31.3828C41.58 31.3828 38.265 31.4278 37.2 31.4728Z" fill="#646464"/>
<path d="M36.015 41.4928C36.06 40.8928 36.57 40.5328 37.2 40.5028C38.265 40.4578 41.58 40.4128 45.75 40.4128C49.92 40.4128 53.235 40.4578 54.2999 40.5028C54.9299 40.5328 55.4399 40.8928 55.4849 41.4928C55.4849 41.5628 55.4882 41.6361 55.4917 41.7142C55.4957 41.8031 55.4999 41.8992 55.4999 42.0028C55.4999 42.1978 55.4999 42.3628 55.4849 42.5128C55.4399 43.1128 54.9299 43.4728 54.2999 43.5028C53.235 43.5478 49.92 43.5928 45.75 43.5928C41.58 43.5928 38.265 43.5478 37.2 43.5028C36.57 43.4728 36.06 43.1128 36.015 42.5128C36.015 42.4428 36.0117 42.3694 36.0082 42.2913C36.0043 42.2022 36 42.1067 36 42.0028C36 41.8078 36 41.6428 36.015 41.4928Z" fill="#646464"/>
<path d="M36.015 50.5078C36.06 49.9078 36.57 49.5478 37.2 49.5178C38.265 49.4728 42.33 49.4278 46.5 49.4278C50.67 49.4278 53.235 49.455 54.3 49.5C54.93 49.53 55.44 49.89 55.485 50.49C55.485 50.5601 55.4883 50.6335 55.4918 50.7116C55.4957 50.8007 55.5 50.8961 55.5 51C55.5 51.195 55.5 51.36 55.485 51.51C55.44 52.11 54.93 52.47 54.3 52.5C53.235 52.545 50.67 52.6078 46.5 52.6078C42.33 52.6078 38.265 52.5628 37.2 52.5178C36.57 52.4878 36.06 52.1278 36.015 51.5278C36.015 51.4578 36.0117 51.3844 36.0082 51.3063C36.0043 51.2172 36 51.1217 36 51.0178C36 50.8228 36 50.6578 36.015 50.5078Z" fill="#646464"/>
</svg>
