<svg width="48" height="48" viewBox="0 0 48 48" fill="none" xmlns="http://www.w3.org/2000/svg">
<path d="M38.4 27.2C36.4118 27.2 34.8 25.5882 34.8 23.6C34.8 21.6118 36.4118 20 38.4 20C40.3882 20 42 21.6118 42 23.6C42 25.5882 40.3882 27.2 38.4 27.2Z" fill="#646464"/>
<path d="M24 27.2C22.0118 27.2 20.4 25.5882 20.4 23.6C20.4 21.6118 22.0118 20 24 20C25.9882 20 27.6 21.6118 27.6 23.6C27.6 25.5882 25.9882 27.2 24 27.2Z" fill="#646464"/>
<path d="M9.6 27.2C7.61177 27.2 6 25.5882 6 23.6C6 21.6118 7.61178 20 9.6 20C11.5882 20 13.2 21.6118 13.2 23.6C13.2 25.5882 11.5882 27.2 9.6 27.2Z" fill="#646464"/>
</svg>
