<svg width="48" height="48" viewBox="0 0 48 48" fill="none" xmlns="http://www.w3.org/2000/svg">
<path d="M20.4 38C20.4 36.0118 22.0117 34.4 24 34.4C25.9882 34.4 27.6 36.0118 27.6 38C27.6 39.9882 25.9882 41.6 24 41.6C22.0117 41.6 20.4 39.9882 20.4 38Z" fill="#646464"/>
<path d="M20.4 23.6C20.4 21.6117 22.0117 20 24 20C25.9882 20 27.6 21.6117 27.6 23.6C27.6 25.5882 25.9882 27.2 24 27.2C22.0117 27.2 20.4 25.5882 20.4 23.6Z" fill="#646464"/>
<path d="M20.4 9.19998C20.4 7.21175 22.0118 5.59998 24 5.59998C25.9882 5.59998 27.6 7.21175 27.6 9.19998C27.6 11.1882 25.9882 12.8 24 12.8C22.0117 12.8 20.4 11.1882 20.4 9.19998Z" fill="#646464"/>
</svg>
