<svg width="48" height="48" viewBox="0 0 48 48" fill="none" xmlns="http://www.w3.org/2000/svg">
<path d="M40.5858 4.58554C41.3668 3.80449 42.6332 3.80449 43.4142 4.58554C44.1953 5.36659 44.1953 6.63292 43.4142 7.41397L7.41422 43.414C6.63316 44.195 5.36684 44.195 4.58579 43.414C3.80474 42.6329 3.80474 41.3666 4.58579 40.5855L40.5858 4.58554Z" fill="#646464"/>
<path d="M27.0431 4.18569C25.9467 4.02767 24.9298 4.7884 24.7717 5.88481C24.6137 6.98123 25.3744 7.99815 26.4709 8.15617C27.4232 8.29342 28.3826 8.52681 29.3409 8.86591C30.3852 9.23544 31.5313 8.68844 31.9009 7.64415C32.2704 6.59986 31.7234 5.45373 30.6791 5.0842C29.4716 4.6569 28.2556 4.36043 27.0431 4.18569Z" fill="#646464"/>
<path d="M20.6031 8.48512C21.6762 8.21015 22.3232 7.11735 22.0482 6.04427C21.7733 4.97119 20.6805 4.3242 19.6074 4.59916C17.1896 5.21869 14.9191 6.29001 12.9011 7.70499C11.9941 8.34096 11.7744 9.59178 12.4103 10.4988C13.0463 11.4058 14.2971 11.6255 15.2041 10.9895C16.8457 9.83846 18.6764 8.97881 20.6031 8.48512Z" fill="#646464"/>
<path d="M10.9632 15.2144C11.6018 14.3093 11.3859 13.0579 10.4808 12.4192C9.57566 11.7805 8.32419 11.9965 7.68552 12.9016C6.26558 14.9139 5.18976 17.1851 4.57554 19.6184C4.30443 20.6925 4.95535 21.783 6.02941 22.0541C7.10347 22.3252 8.19394 21.6743 8.46505 20.6002C8.95223 18.6701 9.81139 16.8467 10.9632 15.2144Z" fill="#646464"/>
<path d="M42.9216 17.3904C42.5571 16.3443 41.4136 15.7918 40.3676 16.1563C39.3215 16.5208 38.769 17.6643 39.1335 18.7103C39.4682 19.6709 39.6995 20.6264 39.8374 21.5698C39.9977 22.6659 41.0161 23.4246 42.1122 23.2644C43.2083 23.1041 43.967 22.0857 43.8067 20.9896C43.6319 19.7933 43.3396 18.5901 42.9216 17.3904Z" fill="#646464"/>
<path d="M8.16903 26.4665C8.0056 25.3708 6.98494 24.6152 5.88932 24.7786C4.79369 24.942 4.038 25.9627 4.20142 27.0583C4.38108 28.2628 4.67984 29.4741 5.10629 30.6821C5.47505 31.7266 6.62078 32.2745 7.66535 31.9057C8.70991 31.5369 9.25775 30.3912 8.88899 29.3466C8.54731 28.3788 8.31072 27.4164 8.16903 26.4665Z" fill="#646464"/>
<path d="M43.4267 28.3708C43.6972 27.2966 43.0456 26.2065 41.9713 25.9361C40.8971 25.6656 39.807 26.3172 39.5366 27.3915C39.0544 29.307 38.2064 31.1181 37.0698 32.7418C36.4346 33.6493 36.6553 34.9 37.5627 35.5352C38.4702 36.1705 39.7209 35.9498 40.3561 35.0423C41.7575 33.0404 42.819 30.7849 43.4267 28.3708Z" fill="#646464"/>
<path d="M35.2065 40.2248C36.1096 39.5832 36.3215 38.331 35.68 37.428C35.0384 36.525 33.7862 36.313 32.8832 36.9546C31.2618 38.1065 29.4523 38.9727 27.5449 39.4797C26.4743 39.7642 25.8371 40.8628 26.1217 41.9334C26.4063 43.0039 27.5048 43.6411 28.5754 43.3565C30.9685 42.7204 33.213 41.6411 35.2065 40.2248Z" fill="#646464"/>
<path d="M18.8688 39.2019C17.8195 38.8469 16.6811 39.4098 16.3261 40.4591C15.9711 41.5085 16.534 42.6469 17.5834 43.0018C18.7867 43.4089 19.997 43.6871 21.2025 43.8456C22.3008 43.99 23.3082 43.2167 23.4526 42.1184C23.597 41.0201 22.8236 40.0127 21.7253 39.8683C20.7783 39.7438 19.8235 39.5248 18.8688 39.2019Z" fill="#646464"/>
</svg>
