<svg width="48" height="48" viewBox="0 0 48 48" fill="none" xmlns="http://www.w3.org/2000/svg">
<path fill-rule="evenodd" clip-rule="evenodd" d="M11.3999 35.9002C12.2399 36.7002 13.3799 37.1602 14.5599 37.1602H14.6999C16.8199 37.1002 20.6999 37.0202 27.1199 37.0202C28.0599 37.0202 28.9399 36.6802 29.6399 36.0602C30.7199 35.0802 31.9599 33.9202 33.3199 32.6002C38.1799 27.9002 40.7599 24.8802 42.0599 23.1802C43.5599 21.2202 43.4999 18.6402 41.9199 16.7202C40.5399 15.0402 38.6199 13.0002 36.2399 10.7002C33.8399 8.38024 31.7599 6.52024 30.0399 5.18024C28.1199 3.68024 25.4999 3.64024 23.5399 5.06024C21.7799 6.32024 18.6799 8.82024 13.8199 13.5202C8.95987 18.2202 6.37987 21.2402 5.07987 22.9402C3.57987 24.9002 3.63987 27.4802 5.21987 29.4002C6.59987 31.0802 8.51987 33.1002 10.8999 35.4202L11.3999 35.9002ZM8.29987 26.8402C7.89987 26.3602 7.89987 25.8402 8.25987 25.3602L8.27987 25.3802C9.49987 23.7802 11.9399 20.9202 16.6199 16.3802C17.9721 15.0684 19.1808 13.9369 20.2555 12.9626C20.3549 13.1427 20.4832 13.3108 20.64 13.4598L34.1667 26.0847C33.1401 27.1536 31.9403 28.3617 30.5399 29.7202L30.012 30.2242C28.8898 31.2954 27.8997 32.2404 27.1199 33.0202C20.6399 33.0202 16.7199 33.1002 14.5799 33.1602C14.4199 33.2002 14.2799 33.1002 14.0599 32.9002L13.6799 32.5402C10.8399 29.7602 9.17987 27.9202 8.29987 26.8402ZM23.36 10.5398C23.3067 10.4892 23.2515 10.4422 23.1945 10.3987C24.3358 9.44753 25.2285 8.76332 25.8999 8.28024C26.4399 7.90024 27.0599 7.90024 27.5999 8.32024C28.6999 9.18024 30.6199 10.7802 33.4599 13.5402C36.2799 16.3002 37.9399 18.1602 38.8399 19.2402C39.2399 19.7202 39.2399 20.2402 38.8799 20.7202C38.4104 21.3359 37.7604 22.138 36.8717 23.1507L23.36 10.5398Z" fill="#646464"/>
<path d="M14 44H42C43.1 44 44 43.1 44 42C44 40.9 43.1 40 42 40H14C12.9 40 12 40.9 12 42C12 43.1 12.9 44 14 44Z" fill="#646464"/>
</svg>
