<svg width="48" height="48" viewBox="0 0 48 48" fill="none" xmlns="http://www.w3.org/2000/svg">
<path fill-rule="evenodd" clip-rule="evenodd" d="M6.00137 30.0352C6.0419 28.9314 6.96958 28.0694 8.0734 28.1099C10.1789 28.1872 12.242 28.3054 14.214 28.4648C17.0561 28.6945 19.3056 30.9439 19.5352 33.786C19.6946 35.7581 19.8128 37.8211 19.8901 39.9266C19.9306 41.0304 19.0686 41.9581 17.9648 41.9986C16.8609 42.0391 15.9333 41.1772 15.8927 40.0733C15.8174 38.0205 15.7024 36.0163 15.5482 34.1082C15.4765 33.221 14.7791 32.5235 13.8918 32.4518C11.9837 32.2975 9.9795 32.1826 7.92665 32.1072C6.82282 32.0667 5.96085 31.139 6.00137 30.0352ZM6.00137 17.9647C5.96086 16.8609 6.82285 15.9332 7.92667 15.8927C9.97947 15.8174 11.9837 15.7025 13.8917 15.5483C14.779 15.4766 15.4765 14.7791 15.5482 13.8918C15.7024 11.9837 15.8174 9.97946 15.8927 7.9266C15.9333 6.82278 16.8609 5.9608 17.9648 6.00132C19.0686 6.04184 19.9306 6.96952 19.8901 8.07335C19.8128 10.1789 19.6946 12.2419 19.5352 14.214C19.3056 17.0562 17.056 19.3057 14.2138 19.5353C12.2418 19.6946 10.1788 19.8128 8.07338 19.89C6.96955 19.9305 6.04188 19.0686 6.00137 17.9647ZM30.036 41.9986C28.9322 41.9581 28.0702 41.0304 28.1107 39.9266C28.188 37.8211 28.3062 35.7581 28.4656 33.786C28.6952 30.9439 30.9447 28.6945 33.7868 28.4648C35.7588 28.3054 37.8219 28.1872 39.9274 28.1099C41.0312 28.0694 41.9589 28.9314 41.9994 30.0352C42.04 31.139 41.178 32.0667 40.0742 32.1072C38.0213 32.1826 36.0171 32.2975 34.109 32.4518C33.2218 32.5235 32.5243 33.221 32.4526 34.1082C32.2984 36.0163 32.1834 38.0205 32.1081 40.0733C32.0675 41.1772 31.1399 42.0391 30.036 41.9986ZM30.036 6.00132C31.1399 5.9608 32.0675 6.82278 32.1081 7.9266C32.1834 9.97946 32.2984 11.9837 32.4526 13.8918C32.5243 14.7791 33.2218 15.4766 34.1091 15.5483C36.0171 15.7025 38.0213 15.8174 40.0741 15.8927C41.178 15.9332 42.0399 16.8609 41.9994 17.9647C41.9589 19.0686 41.0312 19.9305 39.9274 19.89C37.822 19.8128 35.759 19.6946 33.787 19.5353C30.9448 19.3057 28.6952 17.0562 28.4656 14.214C28.3062 12.2419 28.188 10.1789 28.1108 8.07335C28.0702 6.96952 28.9322 6.04184 30.036 6.00132Z" fill="#646464"/>
</svg>
