<svg width="48" height="48" viewBox="0 0 48 48" fill="none" xmlns="http://www.w3.org/2000/svg">
<path fill-rule="evenodd" clip-rule="evenodd" d="M18 36C19.1046 36 20 36.8954 20 38C20 39.1046 19.1046 40 18 40H10C8.89543 40 8 39.1046 8 38V30C8 28.8954 8.89543 28 10 28C11.1046 28 12 28.8954 12 30V33.1716L18.5858 26.5858C19.3668 25.8047 20.6332 25.8047 21.4142 26.5858C22.1953 27.3668 22.1953 28.6332 21.4142 29.4142L14.8284 36H18ZM29.4142 21.4142C28.6332 22.1953 27.3668 22.1953 26.5858 21.4142C25.8047 20.6332 25.8047 19.3668 26.5858 18.5858L33.1716 12H30C28.8954 12 28 11.1046 28 10C28 8.89543 28.8954 8 30 8H38C39.1046 8 40 8.89543 40 10V18C40 19.1046 39.1046 20 38 20C36.8954 20 36 19.1046 36 18V14.8284L29.4142 21.4142Z" fill="#646464"/>
</svg>
