<svg width="48" height="48" viewBox="0 0 48 48" fill="none" xmlns="http://www.w3.org/2000/svg">
<path fill-rule="evenodd" clip-rule="evenodd" d="M15 24C15 28.96 19.04 33 24 33C28.96 33 33 28.96 33 24C33 19.04 28.96 15 24 15C19.04 15 15 19.04 15 24ZM19 24C19 21.24 21.24 19 24 19C26.76 19 29 21.24 29 24C29 26.76 26.76 29 24 29C21.24 29 19 26.76 19 24Z" fill="#646464"/>
<path fill-rule="evenodd" clip-rule="evenodd" d="M4.18 25.24C6.66 33.82 14.82 39.82 24 39.82V39.8C33.2 39.8 41.34 33.8 43.82 25.2C44.06 24.34 44.06 23.44 43.82 22.58C41.34 14 33.2 8 24 8C14.8 8 6.66 14 4.18 22.62C3.94 23.48 3.94 24.38 4.18 25.24ZM23.98 35.82C16.58 35.82 10 31 8.02 24.12C7.98 23.98 7.98 23.84 8.02 23.7C10.02 16.82 16.6 11.98 24 11.98C31.4 11.98 37.98 16.8 39.96 23.68C40 23.82 40 23.96 39.96 24.1C37.98 31 31.38 35.82 23.98 35.82Z" fill="#646464"/>
</svg>
