<svg width="48" height="48" viewBox="0 0 48 48" fill="none" xmlns="http://www.w3.org/2000/svg">
<path fill-rule="evenodd" clip-rule="evenodd" d="M23.5855 9.1075C23.7744 8.79359 24.2296 8.79358 24.4185 9.10753L23.5855 9.1075ZM23.5855 9.1075L19.303 16.2235C18.6767 17.2644 17.6548 18.0068 16.4715 18.2808L8.38032 20.1548C8.02337 20.2374 7.88277 20.6703 8.12291 20.9469L13.5672 27.2187C14.3638 28.1362 14.7539 29.3374 14.6489 30.5474L13.9308 38.8217C13.8991 39.1867 14.2673 39.4543 14.6047 39.3113L22.252 36.0715C23.3706 35.5977 24.6334 35.5977 25.752 36.0715L33.3994 39.3113C33.7367 39.4542 34.1049 39.1868 34.0733 38.8217L33.3551 30.5476C33.2502 29.3374 33.6404 28.1362 34.4367 27.2189L39.8811 20.9469C40.1213 20.6703 39.9806 20.2374 39.6237 20.1548L31.5325 18.2808C30.3491 18.0067 29.3274 17.2644 28.7011 16.2237L24.4185 9.10753M20.1583 7.04496C21.9019 4.14776 26.1022 4.14779 27.8457 7.04496L32.1282 14.161C32.1961 14.2738 32.3069 14.3543 32.435 14.384L40.5262 16.2579C43.8204 17.0208 45.1184 21.0155 42.9018 23.569L37.4574 29.841C37.3711 29.9403 37.3288 30.0705 37.3401 30.2018L38.0583 38.4759C38.3506 41.8446 34.9526 44.3135 31.8391 42.9944L24.1916 39.7547C24.0704 39.7033 23.9336 39.7033 23.8124 39.7546L16.165 42.9944C13.0516 44.3135 9.65341 41.8447 9.94579 38.4759L10.6639 30.2018C10.6752 30.0704 10.6329 29.9403 10.5468 29.8412L5.10227 23.5691C2.88562 21.0155 4.18363 17.0208 7.47781 16.2579L15.5689 14.384C15.6973 14.3542 15.8079 14.2738 15.8757 14.1612L20.1583 7.04496Z" fill="#646464"/>
</svg>
