<svg width="48" height="48" viewBox="0 0 48 48" fill="none" xmlns="http://www.w3.org/2000/svg">
<path d="M4 12C4 7.58172 7.58172 4 12 4H36C40.4183 4 44 7.58172 44 12V36C44 40.4183 40.4183 44 36 44H12C7.58172 44 4 40.4183 4 36V12Z" fill="#0C8CE9"/>
<path fill-rule="evenodd" clip-rule="evenodd" d="M31.5964 26.0444L31.7604 25.0344C32.1344 22.7104 31.4004 20.2284 29.4404 18.2684C28.9564 17.7844 28.0564 17.2244 26.7244 16.6484C25.4284 16.0884 23.8744 15.5764 22.2244 15.1224C19.8182 14.4752 17.3836 13.938 14.9284 13.5124L21.5624 20.1464C22.201 19.8414 22.9269 19.772 23.6117 19.9504C24.2966 20.1288 24.8963 20.5435 25.3049 21.1214C25.7135 21.6992 25.9047 22.4029 25.8447 23.108C25.7846 23.8132 25.4772 24.4744 24.9768 24.9748C24.4764 25.4752 23.8152 25.7826 23.11 25.8427C22.4049 25.9027 21.7012 25.7115 21.1234 25.3029C20.5455 24.8943 20.1308 24.2946 19.9524 23.6097C19.774 22.9249 19.8434 22.199 20.1484 21.5604L13.5124 14.9244C13.8924 17.0644 14.4304 19.7104 15.1224 22.2244C15.5784 23.8744 16.0884 25.4284 16.6484 26.7244C17.2244 28.0564 17.7844 28.9564 18.2684 29.4404C20.2724 31.4444 22.7484 32.1984 25.0604 31.8044L26.0804 31.6304L26.8104 32.3604L29.2704 34.8244L34.8244 29.2704L32.3204 26.7664L31.5964 26.0444ZM33.7344 25.3524C34.2144 22.3764 33.2544 19.2544 30.8544 16.8524C27.8504 13.8504 18.0784 11.9724 13.3984 11.2264C13.102 11.1763 12.7978 11.1978 12.5113 11.2892C12.2249 11.3806 11.9644 11.5392 11.7518 11.7518C11.5392 11.9644 11.3806 12.2249 11.2892 12.5113C11.1978 12.7978 11.1763 13.102 11.2264 13.3984C11.9744 18.0784 13.8504 27.8504 16.8544 30.8544C19.2824 33.2824 22.3964 34.2864 25.3944 33.7744L27.8584 36.2384C28.2335 36.6134 28.7421 36.824 29.2724 36.824C29.8028 36.824 30.3114 36.6134 30.6864 36.2384L36.2384 30.6844C36.6134 30.3094 36.824 29.8008 36.824 29.2704C36.824 28.7401 36.6134 28.2315 36.2384 27.8564L33.7344 25.3524ZM23.5624 23.5624C23.6579 23.4702 23.7341 23.3598 23.7865 23.2378C23.8389 23.1158 23.8665 22.9846 23.8677 22.8518C23.8688 22.7191 23.8435 22.5874 23.7933 22.4645C23.743 22.3416 23.6687 22.2299 23.5748 22.136C23.4809 22.0421 23.3693 21.9679 23.2464 21.9176C23.1235 21.8673 22.9918 21.842 22.859 21.8432C22.7263 21.8443 22.595 21.8719 22.473 21.9243C22.351 21.9767 22.2407 22.0529 22.1484 22.1484C21.9663 22.337 21.8655 22.5896 21.8678 22.8518C21.87 23.114 21.9752 23.3648 22.1606 23.5503C22.346 23.7357 22.5968 23.8408 22.859 23.8431C23.1212 23.8454 23.3738 23.7446 23.5624 23.5624Z" fill="white"/>
</svg>
