<svg width="48" height="48" viewBox="0 0 48 48" fill="none" xmlns="http://www.w3.org/2000/svg">
<path fill-rule="evenodd" clip-rule="evenodd" d="M8.54 19.76C10.1 19.88 12.66 20 16 20C19.34 20 21.9 19.86 23.46 19.76C25.76 19.6 27.58 17.94 27.84 15.74C27.8677 15.4963 27.8923 15.2495 27.9135 15H36C38.2 15 40 16.8 40 19V31C40 32.1 39.1 33 38 33H34C33.9716 33 33.9434 33.0006 33.9153 33.0018C33.8938 32.7449 33.8685 32.4908 33.84 32.24C33.56 30.04 31.76 28.38 29.46 28.22C27.9 28.1 25.34 27.98 22 27.98C18.66 27.98 16.1 28.12 14.54 28.22C12.24 28.36 10.44 30.02 10.16 32.24C10.06 33.12 10 34.04 10 34.98C10 35.92 10.06 36.86 10.16 37.72C10.44 39.94 12.24 41.6 14.54 41.76C16.1 41.88 18.68 42 22 42V41.98C25.34 41.98 27.9 41.84 29.46 41.74C31.76 41.6 33.58 39.94 33.84 37.72C33.867 37.4821 33.8911 37.2414 33.9119 36.9981C33.9411 36.9994 33.9705 37 34 37H38C41.3 37 44 34.3 44 31V19C44 14.58 40.42 11 36 11H27.9135C27.8923 10.7505 27.8677 10.5037 27.84 10.26C27.56 8.06 25.76 6.4 23.46 6.24C21.9 6.12 19.34 6 16 6C12.66 6 10.1 6.14 8.54 6.24C6.24 6.4 4.44 8.06 4.16 10.26C4.06 11.14 4 12.06 4 13C4 13.94 4.06 14.86 4.16 15.74C4.44 17.94 6.24 19.6 8.54 19.76ZM8.82 10.22C10.32 10.12 12.78 10 16 10C19.22 10 21.68 10.12 23.18 10.22C23.46 10.24 23.82 10.38 23.86 10.74C23.96 11.44 24 12.22 24 12.98C24 13.74 23.94 14.5 23.86 15.22C23.82 15.58 23.46 15.72 23.18 15.74C21.68 15.84 19.22 15.96 16 15.96C12.78 15.96 10.32 15.84 8.82 15.74C8.54 15.72 8.18 15.58 8.14 15.22C8.04 14.52 8 13.74 8 12.98C8 12.22 8.06 11.46 8.14 10.74C8.18 10.38 8.54 10.24 8.82 10.22ZM22 32C18.78 32 16.32 32.12 14.82 32.22C14.52 32.22 14.18 32.38 14.14 32.74C14.06 33.46 14 34.22 14 34.98C14 35.74 14.04 36.52 14.14 37.22C14.18 37.58 14.54 37.72 14.82 37.74C16.32 37.84 18.8 37.96 22 37.96C25.2 37.96 27.68 37.84 29.18 37.74C29.48 37.74 29.82 37.58 29.86 37.22C29.94 36.5 30 35.74 30 34.98C30 34.22 29.96 33.46 29.86 32.74C29.82 32.38 29.46 32.24 29.18 32.22C27.68 32.12 25.2 32 22 32Z" fill="#646464"/>
</svg>
