<svg width="48" height="48" viewBox="0 0 48 48" fill="none" xmlns="http://www.w3.org/2000/svg">
<path opacity="0.3" d="M39.9994 24.5515C39.874 23.4626 39.0094 22.6158 37.8516 22.5199C35.2592 22.3053 30.5762 22.0795 24.0003 22.0795C17.4244 22.0795 12.7411 22.3053 10.1486 22.5199C8.98345 22.6164 8.11916 23.4832 8.02466 24.628C8.05118 27.6509 8.1658 34.042 8.41207 35.4227C8.7199 37.1487 9.53303 37.2971 10.5425 37.5307C13.1387 37.7457 17.4289 37.9712 24.0001 37.9712C30.5713 37.9712 34.8615 37.7457 37.4577 37.5307C38.5936 37.4367 39.438 36.5968 39.5349 35.4227L39.9994 24.5515Z" fill="#646464"/>
<path fill-rule="evenodd" clip-rule="evenodd" d="M20.4341 9.37072C19.8468 8.48976 18.8724 7.97849 17.8606 8.00071C14.8959 8.06582 12.4711 8.22894 10.6857 8.39115C9.4639 8.50215 8.55441 9.42072 8.4554 10.6393C8.30003 12.5516 8.13711 15.2866 8.0547 18.9323C8.60806 18.7214 9.20002 18.5847 9.8185 18.5335C12.5475 18.3076 17.3447 18.0794 24.0002 18.0794C30.6557 18.0794 35.4526 18.3076 38.1816 18.5335C38.7607 18.5814 39.3188 18.7048 39.8448 18.8943C39.7775 17.7804 39.6948 16.772 39.6106 15.8969C39.4899 14.6425 38.5211 13.6882 37.2422 13.5863C36.0232 13.4893 34.349 13.4949 32.2281 13.5259C31.8427 13.5316 31.4444 13.538 31.034 13.5446C29.223 13.5738 27.1784 13.6067 24.9871 13.5926C23.7464 13.5846 22.9263 12.8908 22.4636 12.3571C22.1553 12.0014 21.8361 11.4948 21.6665 11.2258C21.6258 11.1612 21.5938 11.1103 21.5725 11.0784L20.4341 9.37072ZM39.9993 24.5514C39.8739 23.4626 39.0093 22.6157 37.8515 22.5199C35.2591 22.3052 30.5761 22.0794 24.0002 22.0794C17.4243 22.0794 12.741 22.3052 10.1485 22.5199C8.98335 22.6163 8.11906 23.4832 8.02456 24.628L8.00088 24.626C8.01688 30.4682 8.24756 32.7864 8.4652 35.4226C8.56212 36.5968 9.40646 37.4366 10.5424 37.5307C13.1386 37.7456 17.4288 37.9711 24 37.9711C30.5712 37.9711 34.8614 37.7456 37.4576 37.5307C38.5935 37.4366 39.4379 36.5968 39.5348 35.4227M23.7623 7.15192L24.9007 8.85961C24.9745 8.97029 25.0443 9.07997 25.1038 9.17396C25.1138 9.18982 25.1235 9.20518 25.133 9.22011C25.183 9.29915 25.2256 9.3664 25.2691 9.43342C25.3111 9.49795 25.3468 9.5509 25.3775 9.59461C27.3808 9.60287 29.2479 9.57281 30.9538 9.54535C31.3688 9.53867 31.7741 9.53215 32.1696 9.52636C34.2543 9.49588 36.1202 9.48435 37.5596 9.59895C40.7495 9.85291 43.2835 12.3057 43.5922 15.5137C43.8008 17.681 44 20.6254 44 23.9712C44 30.0189 43.7834 32.6116 43.5678 35.1927C43.5523 35.3786 43.5367 35.5645 43.5213 35.7517C43.2666 38.8365 40.9106 41.2585 37.7877 41.517C35.0624 41.7427 30.6602 41.9711 24 41.9711C17.3398 41.9711 12.9376 41.7427 10.2123 41.517C7.08941 41.2585 4.73341 38.8366 4.47876 35.7517C4.46335 35.5651 4.44785 35.3796 4.43235 35.1941C4.21663 32.6125 4 30.02 4 23.9712C4 17.6093 4.23902 13.1403 4.46853 10.3154C4.72544 7.1535 7.16867 4.69421 10.3238 4.40755C12.1932 4.23771 14.7097 4.06894 17.7728 4.00167C20.1992 3.94839 22.4419 5.17141 23.7623 7.15192ZM25.5093 9.76215L25.5075 9.76043L25.5093 9.76215Z" fill="#646464"/>
</svg>
