<svg width="48" height="48" viewBox="0 0 48 48" fill="none" xmlns="http://www.w3.org/2000/svg">
<path fill-rule="evenodd" clip-rule="evenodd" d="M15.5108 5.85223C16.2248 4.88192 17.3505 4.22833 18.653 4.14827C19.9135 4.0708 21.6956 4 23.9996 4C26.3037 4 28.086 4.07081 29.3466 4.14829C30.6491 4.22835 31.7748 4.88196 32.4889 5.85225C33.6046 5.91323 34.5778 5.98153 35.4087 6.04945C38.4674 6.29947 40.8535 8.66081 41.1033 11.7349C41.2582 13.6401 41.4162 16.341 41.4946 19.9566C41.5185 21.0609 40.6427 21.9755 39.5384 21.9994C38.434 22.0234 37.5194 21.1476 37.4955 20.0432C37.4187 16.5008 37.2644 13.8792 37.1165 12.0589C37.0266 10.9527 36.2041 10.1278 35.0828 10.0361C34.5266 9.99068 33.9007 9.94479 33.2052 9.90112C33.1848 10.1488 33.1636 10.3836 33.1426 10.6029C32.9553 12.5574 31.4458 14.1606 29.4093 14.3407C28.2192 14.446 26.4473 14.5455 23.9996 14.5455C21.552 14.5455 19.7803 14.446 18.5903 14.3408C17.8385 14.2743 17.1585 14.0138 16.5903 13.6134C15.6193 12.9291 14.9749 11.8359 14.8567 10.6029C14.8357 10.3837 14.8146 10.1487 14.7942 9.9011C14.0986 9.94478 13.4726 9.99068 12.9163 10.0361C11.795 10.1278 10.9725 10.9527 10.8826 12.0589C10.6746 14.618 10.4541 18.7601 10.4541 24.8179C10.4541 30.8757 10.6746 35.0178 10.8826 37.577C10.9725 38.6831 11.795 39.508 12.9164 39.5998C14.4539 39.7254 17.4004 39.8573 20.6753 39.9339C21.7795 39.9597 22.6538 40.8759 22.6279 41.9801C22.6021 43.0844 21.6859 43.9586 20.5817 43.9328C17.2845 43.8556 14.2456 43.7217 12.5905 43.5864C9.53184 43.3363 7.14562 40.9751 6.89578 37.901C6.67811 35.2228 6.4541 30.972 6.4541 24.8179C6.4541 18.6639 6.67811 14.413 6.89578 11.7349C7.14562 8.66082 9.53172 6.29947 12.5905 6.04945C13.4214 5.98152 14.3948 5.9132 15.5108 5.85223ZM18.8984 8.14074C20.0773 8.06828 21.7776 8 23.9996 8C26.2217 8 27.9222 8.06828 29.1012 8.14076C29.1796 8.14557 29.2261 8.17576 29.2551 8.20828C29.2819 8.23825 29.3038 8.28145 29.3033 8.3479C29.3031 8.35297 29.3028 8.35804 29.3025 8.36311C29.2641 9.04774 29.212 9.68341 29.1605 10.2212C29.1542 10.2869 29.1305 10.3187 29.1181 10.3314C29.1111 10.3385 29.1042 10.3431 29.0974 10.3464C29.0912 10.3493 29.0789 10.3541 29.0565 10.3561C27.9929 10.4501 26.339 10.5452 23.9992 10.5452C21.6596 10.5452 20.0059 10.4501 18.9424 10.3561C18.92 10.3541 18.9078 10.3493 18.9016 10.3464C18.8978 10.3446 18.894 10.3423 18.8902 10.3395C18.8902 10.3395 18.8843 10.3347 18.8813 10.3316C18.8688 10.319 18.8452 10.2872 18.8388 10.2217C18.8365 10.1977 18.8342 10.1731 18.8319 10.1487C18.8 9.77526 18.7948 9.38504 18.7898 9.00004C18.7861 8.72302 18.7825 8.44871 18.769 8.18527C18.798 8.16256 18.8391 8.14438 18.8984 8.14074Z" fill="#646464"/>
<path d="M13.8184 26.5459C13.8184 25.4413 14.7138 24.5459 15.8184 24.5459H23C24.1046 24.5459 25 25.4413 25 26.5459C25 27.6505 24.1046 28.5459 23 28.5459H15.8184C14.7138 28.5459 13.8184 27.6505 13.8184 26.5459Z" fill="#646464"/>
<path d="M13.8184 33.0913C13.8184 31.9867 14.7138 31.0913 15.8184 31.0913H20C21.1046 31.0913 22 31.9867 22 33.0913C22 34.1959 21.1046 35.0913 20 35.0913H15.8184C14.7138 35.0913 13.8184 34.1959 13.8184 33.0913Z" fill="#646464"/>
<path d="M13.8184 20C13.8184 18.8954 14.7138 18 15.8184 18H32.182C33.2866 18 34.182 18.8954 34.182 20C34.182 21.1046 33.2866 22 32.182 22H15.8184C14.7138 22 13.8184 21.1046 13.8184 20Z" fill="#646464"/>
<path d="M33.7381 33.1585C34.3007 32.5959 35.0637 32.2798 35.8594 32.2798C36.655 32.2798 37.4181 32.5959 37.9807 33.1585C38.5433 33.7211 38.8594 34.4841 38.8594 35.2798C38.8594 36.0754 38.5433 36.8385 37.9807 37.4011C37.4181 37.9637 36.655 38.2798 35.8594 38.2798C35.0637 38.2798 34.3007 37.9637 33.7381 37.4011C33.1754 36.8385 32.8594 36.0754 32.8594 35.2798C32.8594 34.4841 33.1754 33.7211 33.7381 33.1585Z" fill="#646464"/>
<path fill-rule="evenodd" clip-rule="evenodd" d="M38.2109 25.0937C36.7132 24.4089 35.0096 24.4089 33.5118 25.0937C32.7826 25.4272 31.8531 25.8901 30.7906 26.5036C29.7278 27.1172 28.8621 27.6907 28.2089 28.1554C26.867 29.11 26.015 30.5854 25.8593 32.225C25.7835 33.0233 25.7197 34.0596 25.7197 35.2866C25.7197 36.5137 25.7835 37.5499 25.8593 38.3482C26.015 39.9877 26.867 41.4633 28.209 42.4178C28.8624 42.8826 29.7279 43.456 30.7906 44.0695C31.8533 44.6832 32.7828 45.146 33.5117 45.4794C35.0095 46.1644 36.7134 46.1643 38.2111 45.4794C38.9402 45.146 39.8694 44.6832 40.9322 44.0695C41.9949 43.456 42.8604 42.8826 43.5137 42.4179C44.8558 41.4633 45.7077 39.9877 45.8635 38.3481C45.9393 37.5499 46.0031 36.5137 46.0031 35.2866C46.0031 34.0596 45.9393 33.0232 45.8634 32.225C45.7077 30.5854 44.8556 29.1098 43.5137 28.1552C42.8605 27.6907 41.995 27.1172 40.9322 26.5036C39.8696 25.8901 38.9402 25.4272 38.2109 25.0937ZM32.7906 29.9677C33.7337 29.4232 34.5497 29.0175 35.1752 28.7315C35.6166 28.5297 36.1062 28.5297 36.5476 28.7315C37.173 29.0175 37.989 29.4232 38.9322 29.9677C39.8752 30.5121 40.6347 31.0161 41.1954 31.4149C41.5908 31.6963 41.8355 32.1202 41.8814 32.6032C41.9464 33.288 42.0031 34.1975 42.0031 35.2866C42.0031 36.3757 41.9464 37.2853 41.8814 37.97C41.8355 38.4531 41.5907 38.8771 41.1953 39.1584C40.6347 39.5571 39.8753 40.061 38.9321 40.6055C37.9891 41.15 37.1732 41.5556 36.5475 41.8418C36.1061 42.0436 35.6166 42.0436 35.1753 41.8418C34.5496 41.5556 33.7334 41.1499 32.7905 40.6054C31.8474 40.0609 31.088 39.557 30.5274 39.1583C30.1321 38.8771 29.8873 38.4531 29.8414 37.9699C29.7764 37.2852 29.7197 36.3757 29.7197 35.2866C29.7197 34.1975 29.7764 33.2879 29.8414 32.6032C29.8873 32.1201 30.1321 31.6961 30.5275 31.4148C31.0881 31.0161 31.8475 30.5122 32.7906 29.9677Z" fill="#646464"/>
</svg>
