<svg width="48" height="48" viewBox="0 0 48 48" fill="none" xmlns="http://www.w3.org/2000/svg">
<path fill-rule="evenodd" clip-rule="evenodd" d="M14.1992 6.00995C15.2982 6.11986 16.1001 7.09995 15.9902 8.19903C15.8844 9.2573 15.7898 10.3394 15.7066 11.4403C21.1519 11.1866 26.8484 11.1866 32.2937 11.4403C32.2105 10.3394 32.1159 9.2573 32.0101 8.19903C31.9002 7.09995 32.7021 6.11986 33.8011 6.00995C34.9002 5.90004 35.8803 6.70193 35.9902 7.80102C36.1167 9.06587 36.2273 10.3608 36.3221 11.6781C37.6393 11.7729 38.9343 11.8835 40.1992 12.01C41.2982 12.1199 42.1001 13.0999 41.9902 14.199C41.8803 15.2981 40.9002 16.1 39.8011 15.9901C38.7429 15.8843 37.6608 15.7897 36.5599 15.7065C36.8136 21.1518 36.8136 26.8483 36.5599 32.2936C37.6608 32.2103 38.7429 32.1158 39.8011 32.01C40.9002 31.9 41.8803 32.7019 41.9902 33.801C42.1001 34.9001 41.2982 35.8802 40.1992 35.9901C38.9343 36.1166 37.6393 36.2272 36.3221 36.322C36.2273 37.6392 36.1167 38.9342 35.9902 40.199C35.8803 41.2981 34.9002 42.1 33.8011 41.9901C32.7021 41.8802 31.9002 40.9001 32.0101 39.801C32.1159 38.7428 32.2105 37.6607 32.2937 36.5598C26.8484 36.8134 21.1519 36.8134 15.7066 36.5598C15.7898 37.6607 15.8844 38.7428 15.9902 39.801C16.1001 40.9001 15.2982 41.8802 14.1992 41.9901C13.1001 42.1 12.12 41.2981 12.0101 40.199C11.8836 38.9342 11.773 37.6392 11.6782 36.322C10.361 36.2272 9.06599 36.1166 7.80114 35.9901C6.70205 35.8802 5.90017 34.9001 6.01008 33.801C6.11998 32.7019 7.10007 31.9 8.19916 32.01C9.25742 32.1158 10.3395 32.2103 11.4404 32.2936C11.1867 26.8483 11.1867 21.1518 11.4404 15.7065C10.3395 15.7897 9.25742 15.8843 8.19916 15.9901C7.10007 16.1 6.11998 15.2981 6.01008 14.199C5.90017 13.0999 6.70205 12.1199 7.80114 12.01C9.06599 11.8835 10.361 11.7729 11.6782 11.6781C11.773 10.3608 11.8836 9.06587 12.0101 7.80102C12.12 6.70193 13.1001 5.90004 14.1992 6.00995ZM15.457 15.4568C15.1812 21.0541 15.1812 26.946 15.457 32.5432C21.0542 32.819 26.9461 32.819 32.5433 32.5432C32.8191 26.946 32.8191 21.0541 32.5433 15.4568C26.9461 15.1811 21.0542 15.1811 15.457 15.4568Z" fill="#646464"/>
</svg>
