<svg width="48" height="48" viewBox="0 0 48 48" fill="none" xmlns="http://www.w3.org/2000/svg">
<path d="M30.5 30.5V17.5H37" stroke="#646464" stroke-width="2" stroke-linecap="round" stroke-linejoin="round"/>
<path d="M30.5 24H34.8333" stroke="#646464" stroke-width="2" stroke-linecap="round" stroke-linejoin="round"/>
<path d="M24.002 30.5V17.5" stroke="#646464" stroke-width="2" stroke-linecap="round" stroke-linejoin="round"/>
<path d="M17.5 17.5H12.0833C11.485 17.5 11 17.985 11 18.5833V29.4167C11 30.015 11.485 30.5 12.0833 30.5H15.3333C16.53 30.5 17.5 29.53 17.5 28.3333V25.3" stroke="#646464" stroke-width="2" stroke-linecap="round" stroke-linejoin="round"/>
<path d="M3.97537 11.7112C3.90923 12.8294 4.76206 13.7895 5.88023 13.8556C6.99841 13.9218 7.95848 13.0689 8.02463 11.9507L3.97537 11.7112ZM8.02463 36.049C7.95849 34.9309 6.99841 34.078 5.88024 34.1442C4.76207 34.2103 3.90923 35.1704 3.97537 36.2886L8.02463 36.049ZM44.0246 36.2885C44.0908 35.1704 43.2379 34.2103 42.1198 34.1442C41.0016 34.078 40.0415 34.9309 39.9754 36.049L44.0246 36.2885ZM39.9754 11.9509C40.0415 13.0691 41.0016 13.9219 42.1198 13.8558C43.2379 13.7897 44.0908 12.8296 44.0246 11.7114L39.9754 11.9509ZM38.5172 41.5519L38.675 43.574L38.5172 41.5519ZM41.8591 38.2151L39.8374 38.0534L41.8591 38.2151ZM41.8591 9.78483L39.8374 9.9466L41.8591 9.78483ZM9.48279 41.552L9.32503 43.574L9.48279 41.552ZM9.64056 8.47007C17.1925 7.88089 30.8075 7.88085 38.3595 8.47006L38.675 4.42601C30.9129 3.82042 17.087 3.82046 9.32505 4.42603L9.64056 8.47007ZM38.3594 39.5299C30.8074 40.1191 17.1925 40.1191 9.64056 39.5299L9.32503 43.574C17.087 44.1796 30.9129 44.1796 38.675 43.574L38.3594 39.5299ZM8.02463 11.9507C8.06652 11.2426 8.11255 10.5723 8.16262 9.94659L4.11921 9.623C4.06658 10.2807 4.01866 10.9794 3.97537 11.7112L8.02463 11.9507ZM8.16263 38.0534C8.11255 37.4276 8.06652 36.7572 8.02463 36.049L3.97537 36.2886C4.01866 37.0205 4.06658 37.7192 4.11922 38.377L8.16263 38.0534ZM39.9754 36.049C39.9335 36.7572 39.8875 37.4276 39.8374 38.0534L43.8808 38.3769C43.9334 37.7191 43.9813 37.0204 44.0246 36.2885L39.9754 36.049ZM39.8374 9.9466C39.8875 10.5724 39.9335 11.2428 39.9754 11.9509L44.0246 11.7114C43.9813 10.9795 43.9334 10.2808 43.8808 9.62306L39.8374 9.9466ZM38.675 43.574C41.4675 43.3561 43.6576 41.1668 43.8808 38.3769L39.8374 38.0534C39.773 38.8576 39.1615 39.4673 38.3594 39.5299L38.675 43.574ZM38.3595 8.47006C39.1615 8.53263 39.773 9.14241 39.8374 9.9466L43.8808 9.62306C43.6576 6.83321 41.4676 4.64389 38.675 4.42601L38.3595 8.47006ZM9.32505 4.42603C6.5325 4.6439 4.34248 6.83317 4.11921 9.623L8.16262 9.94659C8.22698 9.14242 8.83855 8.53265 9.64056 8.47007L9.32505 4.42603ZM9.64056 39.5299C8.83855 39.4674 8.22699 38.8576 8.16263 38.0534L4.11922 38.377C4.34248 41.1668 6.53248 43.3561 9.32503 43.574L9.64056 39.5299Z" fill="#646464"/>
<path d="M9.64047 8.46992C17.1924 7.88074 30.8074 7.8807 38.3594 8.46991C39.1614 8.53248 39.7729 9.14226 39.8373 9.94645C39.8874 10.5722 39.9334 11.2426 39.9753 11.9508C40.0414 13.0689 41.0015 13.9218 42.1197 13.8557C43.2378 13.7895 44.0907 12.8294 44.0245 11.7113C43.9813 10.9794 43.9333 10.2807 43.8807 9.6229C43.6575 6.83306 41.4675 4.64374 38.6749 4.42586C30.9129 3.82026 17.0869 3.8203 9.32496 4.42588C6.53241 4.64374 4.34239 6.83301 4.11912 9.62285C4.06649 10.2806 4.01857 10.9792 3.97528 11.7111C3.90914 12.8292 4.76197 13.7893 5.88014 13.8555C6.99832 13.9216 7.95839 13.0688 8.02454 11.9506C8.06643 11.2425 8.11246 10.5722 8.16253 9.94643C8.22689 9.14227 8.83846 8.5325 9.64047 8.46992Z" fill="#646464"/>
<path d="M8.02454 36.0489C7.9584 34.9307 6.99832 34.0779 5.88015 34.144C4.76198 34.2102 3.90914 35.1702 3.97528 36.2884C4.01857 37.0203 4.06649 37.719 4.11913 38.3768C4.34239 41.1667 6.53239 43.3559 9.32494 43.5738C17.0869 44.1794 30.9128 44.1794 38.6749 43.5738C41.4675 43.3559 43.6575 41.1666 43.8807 38.3768C43.9333 37.719 43.9813 37.0203 44.0245 36.2884C44.0907 35.1702 43.2378 34.2101 42.1197 34.144C41.0015 34.0779 40.0414 34.9307 39.9753 36.0489C39.9334 36.7571 39.8874 37.4275 39.8373 38.0532C39.7729 38.8574 39.1614 39.4672 38.3593 39.5298C30.8073 40.119 17.1924 40.119 9.64047 39.5298C8.83846 39.4672 8.2269 38.8574 8.16254 38.0533C8.11247 37.4275 8.06643 36.7571 8.02454 36.0489Z" fill="#646464"/>
<path d="M9 18.5833C9 16.8805 10.3805 15.5 12.0833 15.5H17.5C18.6046 15.5 19.5 16.3954 19.5 17.5C19.5 18.6046 18.6046 19.5 17.5 19.5H13V28.5H15.3333C15.4254 28.5 15.5 28.4254 15.5 28.3333V25.3C15.5 24.1954 16.3954 23.3 17.5 23.3C18.6046 23.3 19.5 24.1954 19.5 25.3V28.3333C19.5 30.6345 17.6345 32.5 15.3333 32.5H12.0833C10.3805 32.5 9 31.1195 9 29.4167V18.5833Z" fill="#646464"/>
<path d="M26.002 17.5C26.002 16.3954 25.1065 15.5 24.002 15.5C22.8974 15.5 22.002 16.3954 22.002 17.5V30.5C22.002 31.6046 22.8974 32.5 24.002 32.5C25.1065 32.5 26.002 31.6046 26.002 30.5V17.5Z" fill="#646464"/>
<path d="M28.5 17.5C28.5 16.3954 29.3954 15.5 30.5 15.5H37C38.1046 15.5 39 16.3954 39 17.5C39 18.6046 38.1046 19.5 37 19.5H32.5V22H34.8333C35.9379 22 36.8333 22.8954 36.8333 24C36.8333 25.1046 35.9379 26 34.8333 26H32.5V30.5C32.5 31.6046 31.6046 32.5 30.5 32.5C29.3954 32.5 28.5 31.6046 28.5 30.5V17.5Z" fill="#646464"/>
</svg>
