<svg width="48" height="48" viewBox="0 0 48 48" fill="none" xmlns="http://www.w3.org/2000/svg">
<path fill-rule="evenodd" clip-rule="evenodd" d="M10.1351 12.6816C17.446 12.1061 30.554 12.1061 37.8649 12.6816C38.657 12.744 39.2757 13.3512 39.349 14.1595C39.8837 20.0485 39.8837 27.9514 39.349 33.8405C39.2757 34.6488 38.657 35.2561 37.8649 35.3184C30.554 35.8939 17.4461 35.8939 10.1351 35.3184C9.34301 35.2561 8.7243 34.6488 8.65093 33.8405C8.11636 27.9514 8.11636 20.0486 8.65093 14.1596C8.72431 13.3512 9.343 12.744 10.1351 12.6816ZM38.1788 8.69397C30.659 8.10201 17.3411 8.10201 9.82118 8.69397C7.06867 8.91065 4.91537 11.0653 4.66731 13.7979C4.1109 19.9275 4.1109 28.0724 4.66731 34.2021C4.91537 36.9348 7.0687 39.0894 9.82123 39.3061C17.3411 39.898 30.6589 39.898 38.1787 39.3061C40.9312 39.0894 43.0846 36.9348 43.3327 34.2021C43.8891 28.0725 43.8891 19.9275 43.3327 13.7979C43.0846 11.0652 40.9313 8.91065 38.1788 8.69397ZM21 21H18H14V27H18V25V24H21V30H11V18H21V21ZM26.5 30H23.5V18L26.5 18.0001V30ZM37 18H29V30H32V26.0001H36V23.0001H32V21H37V18Z" fill="#646464"/>
</svg>
