<svg width="48" height="48" viewBox="0 0 48 48" fill="none" xmlns="http://www.w3.org/2000/svg">
<path d="M44 24C44 35.0457 35.0457 44 24 44C12.9543 44 4 35.0457 4 24C4 12.9543 12.9543 4 24 4C35.0457 4 44 12.9543 44 24Z" fill="black"/>
<path d="M14.309 14.608L16.7377 14.6139L16.6899 33.3548L14.2612 33.349L14.309 14.608Z" fill="#00FF99"/>
<path d="M31.3057 19.453L33.7376 19.4589L33.7015 33.4058L31.2695 33.3998L31.3057 19.453Z" fill="#9933FF"/>
<path d="M14.2624 33.3437L33.703 33.3909L33.697 35.7949L14.2564 35.7476L14.2624 33.3437Z" fill="#00CCFF"/>
<path d="M14.315 12.2051L26.464 12.2346L26.458 14.6386L14.309 14.608L14.315 12.2051Z" fill="#FFFF99"/>
<path d="M28.8922 14.6414L28.8981 12.2396L26.464 12.2346L26.4461 19.4412L33.7376 19.4589L33.7436 17.0571L31.3095 17.0511L31.3154 14.6492L28.8922 14.6414Z" fill="#FF6666"/>
<path d="M31.3089 19.452L33.7409 19.458L33.7349 21.8619L31.3029 21.856L31.3089 19.452Z" fill="#4C197F"/>
</svg>
