<svg width="48" height="48" viewBox="0 0 48 48" fill="none" xmlns="http://www.w3.org/2000/svg">
<path fill-rule="evenodd" clip-rule="evenodd" d="M11 7C9.34315 7 8 8.34315 8 10C8 11.6569 9.34315 13 11 13C12.6569 13 14 11.6569 14 10C14 8.34315 12.6569 7 11 7ZM4 10C4 6.13401 7.13401 3 11 3C14.866 3 18 6.13401 18 10C18 13.171 15.8915 15.8496 13 16.7101V31.2899C15.8915 32.1504 18 34.829 18 38C18 41.866 14.866 45 11 45C7.13401 45 4 41.866 4 38C4 34.829 6.10851 32.1504 9 31.2899V16.7101C6.10851 15.8496 4 13.171 4 10ZM33 9C33 6.79086 34.7909 5 37 5C39.2091 5 41 6.79086 41 9C41 11.2091 39.2091 13 37 13C34.7909 13 33 11.2091 33 9ZM33 22C33 19.7909 34.7909 18 37 18C39.2091 18 41 19.7909 41 22C41 24.2091 39.2091 26 37 26C34.7909 26 33 24.2091 33 22ZM11 35C9.34315 35 8 36.3431 8 38C8 39.6569 9.34315 41 11 41C12.6569 41 14 39.6569 14 38C14 36.3431 12.6569 35 11 35ZM37 35C35.3431 35 34 36.3431 34 38C34 39.6569 35.3431 41 37 41C38.6569 41 40 39.6569 40 38C40 36.3431 38.6569 35 37 35ZM30 38C30 34.134 33.134 31 37 31C40.866 31 44 34.134 44 38C44 41.866 40.866 45 37 45C33.134 45 30 41.866 30 38Z" fill="#646464"/>
</svg>
