<svg width="48" height="48" viewBox="0 0 48 48" fill="none" xmlns="http://www.w3.org/2000/svg">
<path fill-rule="evenodd" clip-rule="evenodd" d="M13 7C11.3431 7 10 8.34315 10 10C10 11.6569 11.3431 13 13 13C14.6569 13 16 11.6569 16 10C16 8.34315 14.6569 7 13 7ZM6 10C6 6.13401 9.13401 3 13 3C16.866 3 20 6.13401 20 10C20 13.1147 17.9657 15.7543 15.1533 16.6626C15.9332 20.8389 19.5975 24 24 24H28.2899C29.1504 21.1085 31.829 19 35 19C38.866 19 42 22.134 42 26C42 29.866 38.866 33 35 33C31.829 33 29.1504 30.8915 28.2899 28H24C20.507 28 17.3358 26.6224 15 24.3809V31.2899C17.8915 32.1504 20 34.829 20 38C20 41.866 16.866 45 13 45C9.13401 45 6 41.866 6 38C6 34.829 8.10851 32.1504 11 31.2899V16.7101C8.10851 15.8496 6 13.171 6 10ZM35 23C33.3431 23 32 24.3431 32 26C32 27.6569 33.3431 29 35 29C36.6569 29 38 27.6569 38 26C38 24.3431 36.6569 23 35 23ZM13 35C11.3431 35 10 36.3431 10 38C10 39.6569 11.3431 41 13 41C14.6569 41 16 39.6569 16 38C16 36.3431 14.6569 35 13 35Z" fill="#646464"/>
</svg>
