<svg width="48" height="48" viewBox="0 0 48 48" fill="none" xmlns="http://www.w3.org/2000/svg">
<path fill-rule="evenodd" clip-rule="evenodd" d="M32.182 44.64C32.042 44.64 31.922 44.64 31.782 44.6C31.782 44.6 31.7443 44.5937 31.682 44.5824C31.0489 44.4666 27.5115 43.82 23.742 43.82C19.2481 43.82 16.3523 44.4424 15.8724 44.5456C15.829 44.5549 15.802 44.56 15.802 44.56C14.742 44.84 13.642 44.18 13.382 43.12C13.102 42.06 13.762 40.96 14.822 40.7C14.942 40.66 17.482 40.04 21.742 39.86V33.66C18.9305 33.1717 15.9108 31.4899 13.8497 27.1728C9.67841 26.7814 6.24681 24.3365 4.60212 20.48C3.14212 17.12 3.40212 13.46 5.22212 11.4C6.84723 9.56148 9.42894 9.16459 11.585 9.40207C11.7905 8.60498 12.0875 7.92218 12.502 7.41999C14.882 4.53999 18.562 3.95999 23.742 3.95999C28.922 3.95999 32.862 4.53999 35.222 7.41999C35.6158 7.90465 35.9319 8.54224 36.1712 9.34883C38.39 9.06927 41.0877 9.44466 42.7621 11.32C44.6021 13.38 44.8621 17.02 43.4221 20.4C41.8141 24.1581 38.5411 26.6431 34.5028 27.2061C32.6139 30.6261 29.4625 32.9999 25.742 33.64V39.84C29.0851 40.0026 31.8404 40.5081 32.4442 40.6189C32.5086 40.6307 32.5485 40.6381 32.562 40.64C33.642 40.86 34.342 41.92 34.122 43C33.922 43.94 33.102 44.6 32.162 44.6L32.182 44.64ZM23.742 7.99999C18.322 7.99999 16.622 8.75999 15.602 9.99999C14.882 11.08 15.242 16.8 16.022 20.84C17.782 29.86 22.282 29.86 23.742 29.86C26.9237 29.86 29.6254 28.0404 31.1262 25.1364C31.1553 24.7916 31.2739 24.4534 31.4821 24.16C31.5495 24.0657 31.6289 23.9372 31.7165 23.7635C32.0146 22.9128 32.2209 21.9938 32.322 21.02C33.302 11.78 32.242 10.16 32.102 9.99999C30.922 8.55999 28.662 8.01999 23.722 8.01999L23.742 7.99999ZM37.3821 13.26C37.2221 17.14 36.8621 20.2 36.3221 22.52C38.3821 21.5 39.3621 19.72 39.7621 18.82C40.6421 16.76 40.4621 14.74 39.8021 13.98C39.3221 13.44 38.3421 13.26 37.4021 13.28L37.3821 13.26ZM8.20212 14.02C8.64212 13.52 9.56212 13.34 10.4421 13.34H10.4821C10.6221 17.12 10.9621 20.12 11.4821 22.4C9.56212 21.4 8.64212 19.74 8.26212 18.88C7.36212 16.82 7.52212 14.78 8.20212 14.02Z" fill="#646464"/>
</svg>
