<svg width="48" height="48" viewBox="0 0 48 48" fill="none" xmlns="http://www.w3.org/2000/svg">
<path d="M28.5455 14V4H12.1819C10.675 4 9.45459 5.22045 9.45459 6.72727V41.2727C9.45459 42.7795 10.675 44 12.1819 44H35.8182C37.325 44 38.5455 42.7795 38.5455 41.2727V14H28.5455Z" fill="#7248B9"/>
<path d="M17.1819 32.8636C16.4296 32.8636 15.8182 32.2522 15.8182 31.5C15.8182 30.7477 16.4296 30.1363 17.1819 30.1363C17.9341 30.1363 18.5455 30.7477 18.5455 31.5C18.5455 32.2522 17.9341 32.8636 17.1819 32.8636ZM17.1819 27.4091C16.4296 27.4091 15.8182 26.7977 15.8182 26.0454C15.8182 25.2932 16.4296 24.6818 17.1819 24.6818C17.9341 24.6818 18.5455 25.2932 18.5455 26.0454C18.5455 26.7977 17.9341 27.4091 17.1819 27.4091ZM17.1819 21.9545C16.4296 21.9545 15.8182 21.3432 15.8182 20.5909C15.8182 19.8386 16.4296 19.2273 17.1819 19.2273C17.9341 19.2273 18.5455 19.8386 18.5455 20.5909C18.5455 21.3432 17.9341 21.9545 17.1819 21.9545ZM32.1819 32.6363H20.8182V30.3636H32.1819V32.6363ZM32.1819 27.1818H20.8182V24.9091H32.1819V27.1818ZM32.1819 21.7273H20.8182V19.4545H32.1819V21.7273Z" fill="white"/>
<path d="M28.5455 4L38.5455 14H28.5455V4Z" fill="#56368A"/>
</svg>
