<svg width="48" height="48" viewBox="0 0 48 48" fill="none" xmlns="http://www.w3.org/2000/svg">
<path d="M26.626 24L30.525 28.4566L35.7678 31.8071L36.682 24.0274L35.7678 16.4214L30.4244 19.3651L26.626 24Z" fill="#00832D"/>
<path d="M4 31.0849V37.7127C4 39.228 5.22729 40.4553 6.74254 40.4553H13.3704L14.7416 35.4455L13.3704 31.0849L8.82231 29.7136L4 31.0849Z" fill="#0066DA"/>
<path d="M13.3704 7.54474L4 16.9151L8.82231 18.2864L13.3704 16.9151L14.7188 12.6139L13.3704 7.54474Z" fill="#E94235"/>
<path d="M13.3704 16.9151H4V31.0849H13.3704V16.9151Z" fill="#2684FC"/>
<path d="M41.7557 11.5123L35.7678 16.4214V31.8071L41.7831 36.7391C42.6836 37.443 44 36.8008 44 35.6558V12.5727C44 11.414 42.6539 10.7787 41.7557 11.5123ZM26.626 24V31.0849H13.3704V40.4553H33.0253C34.5405 40.4553 35.7678 39.228 35.7678 37.7127V31.8071L26.626 24Z" fill="#00AC47"/>
<path d="M32.975 7.63636H13.4295V16.9545H26.6114V24L35.7023 16.4682V10.3636C35.7023 8.85682 34.4818 7.63636 32.975 7.63636Z" fill="#FFBA00"/>
</svg>
