<svg width="48" height="48" viewBox="0 0 48 48" fill="none" xmlns="http://www.w3.org/2000/svg">
<path d="M6.72727 38.0077H13.0909V22.5532L4 15.735V35.2805C4 36.7896 5.22273 38.0077 6.72727 38.0077Z" fill="#4285F4"/>
<path d="M34.9091 38.0077H41.2727C42.7818 38.0077 44 36.785 44 35.2805V15.735L34.9091 22.5532" fill="#34A853"/>
<path d="M34.9091 10.735V22.5532L44 15.735V12.0986C44 8.72592 40.15 6.80319 37.4545 8.82592" fill="#FBBC04"/>
<path d="M13.0909 22.5532V10.735L24 18.9168L34.9091 10.735V22.5532L24 30.735" fill="#EA4335"/>
<path d="M4 12.0986V15.735L13.0909 22.5532V10.735L10.5455 8.82592C7.84546 6.80319 4 8.72592 4 12.0986Z" fill="#C5221F"/>
</svg>
