<svg width="48" height="48" viewBox="0 0 48 48" fill="none" xmlns="http://www.w3.org/2000/svg">
<path fill-rule="evenodd" clip-rule="evenodd" d="M14.7513 4.39209C16.8467 4.18746 19.8881 4 24 4C28.1119 4 31.1537 4.18746 33.2491 4.39209C36.3399 4.69393 38.5567 7.17701 38.7386 10.1701C38.8056 11.2726 37.9661 12.2207 36.8636 12.2877C35.761 12.3547 34.8129 11.5152 34.7459 10.4127C34.6768 9.27444 33.8889 8.4736 32.8603 8.37315C32.1872 8.30742 31.4014 8.24278 30.4977 8.18625L30.3499 9.67829C30.1336 11.8615 28.5396 14.194 25.9241 14.194H22.0759C19.4604 14.194 17.8664 11.8615 17.65 9.67833L17.5022 8.18627C16.5988 8.24279 15.8132 8.30743 15.1401 8.37315C14.1116 8.4736 13.3237 9.27443 13.2545 10.4127C13.1875 11.5152 12.2394 12.3547 11.1369 12.2877C10.0343 12.2207 9.19485 11.2726 9.26186 10.1701C9.44375 7.17702 11.6605 4.69393 14.7513 4.39209ZM21.5069 8.03611L21.6306 9.2839C21.6693 9.67438 21.814 9.94264 21.9397 10.0826C22.0137 10.165 22.063 10.1883 22.0812 10.194H25.9188C25.937 10.1883 25.9863 10.1649 26.0603 10.0826C26.1859 9.94265 26.3307 9.67442 26.3694 9.28393L26.493 8.03611C25.7188 8.01303 24.8884 8 24 8C23.1116 8 22.2812 8.01303 21.5069 8.03611ZM5.28197 14.5378C5.9891 13.6893 7.25023 13.5746 8.09878 14.2817L12.2536 17.7441C13.6056 18.8708 13.6056 20.9474 12.2536 22.0741L9.94252 24L12.2536 25.9259C13.6056 27.0527 13.6056 29.1292 12.2536 30.2559L8.09878 33.7183C7.25023 34.4254 5.9891 34.3107 5.28197 33.4622C4.57484 32.6136 4.68948 31.3525 5.53804 30.6454L8.60339 28.0909L6.2923 26.165C4.94026 25.0383 4.94026 22.9617 6.29227 21.835L8.60339 19.9091L5.53804 17.3546C4.68949 16.6475 4.57484 15.3864 5.28197 14.5378ZM42.7189 14.5378C43.426 15.3864 43.3114 16.6475 42.4628 17.3546L39.3974 19.9091L41.7085 21.835C43.0604 22.9617 43.0605 25.0382 41.7086 26.1649L39.3974 28.0909L42.4628 30.6454C43.3114 31.3525 43.426 32.6136 42.7189 33.4622C42.0118 34.3107 40.7506 34.4254 39.9021 33.7183L35.7472 30.2559C34.3953 29.1292 34.3952 27.0527 35.7471 25.926L38.0583 24L35.7472 22.0741C34.3953 20.9474 34.3952 18.8709 35.7471 17.7442L39.9021 14.2817C40.7506 13.5746 42.0118 13.6893 42.7189 14.5378ZM19.5457 37.0909C19.5457 35.9863 20.4411 35.0909 21.5457 35.0909H26.4548C27.5593 35.0909 28.4548 35.9863 28.4548 37.0909C28.4548 38.1955 27.5593 39.0909 26.4548 39.0909H21.5457C20.4411 39.0909 19.5457 38.1955 19.5457 37.0909ZM11.1369 35.7123C12.2394 35.6453 13.1875 36.4848 13.2545 37.5873C13.3237 38.7256 14.1116 39.5264 15.1401 39.6268C17.0981 39.8181 20.0097 40 24.0002 40C27.9908 40 30.9023 39.8181 32.8603 39.6269C33.8889 39.5264 34.6768 38.7256 34.7459 37.5873C34.8129 36.4848 35.761 35.6453 36.8636 35.7123C37.9661 35.7793 38.8056 36.7274 38.7386 37.8299C38.5567 40.823 36.3399 43.306 33.2491 43.6079C31.1537 43.8126 28.1121 44 24.0002 44C19.8883 44 16.8467 43.8126 14.7513 43.6079C11.6605 43.306 9.44375 40.823 9.26186 37.83C9.19485 36.7274 10.0343 35.7793 11.1369 35.7123Z" fill="#646464"/>
</svg>
