<svg width="48" height="48" viewBox="0 0 48 48" fill="none" xmlns="http://www.w3.org/2000/svg">
<path fill-rule="evenodd" clip-rule="evenodd" d="M8 6C8 4.89543 7.10457 4 6 4C4.89543 4 4 4.89543 4 6V22V38C4 39.1046 4.89543 40 6 40C7.10457 40 8 39.1046 8 38V24H22V38C22 39.1046 22.8954 40 24 40C25.1046 40 26 39.1046 26 38V22V6C26 4.89543 25.1046 4 24 4C22.8954 4 22 4.89543 22 6V20H8V6ZM35.9331 24C33.3481 24 31.2558 25.8066 30.6225 28.1436C30.3337 29.2097 30.9637 30.3081 32.0299 30.597C33.096 30.8859 34.1944 30.2558 34.4833 29.1897C34.6841 28.4487 35.3025 28 35.9331 28H37.8489C38.6042 28 39.3614 28.6644 39.3614 29.6666C39.3614 30.6691 38.6041 31.3334 37.8491 31.3334H36.8911C35.7865 31.3334 34.8911 32.2288 34.8911 33.3334C34.8911 34.4379 35.7865 35.3334 36.8911 35.3334H38.1683C39.0998 35.3334 40.0001 36.1469 40.0001 37.3334V38C40.0001 39.1865 39.0998 40 38.1683 40H35.6138C34.8738 40 34.1689 39.5027 33.8944 38.6919C33.5402 37.6457 32.4049 37.0847 31.3587 37.4389C30.3125 37.7931 29.7515 38.9284 30.1057 39.9746C30.8832 42.271 33.017 44 35.6138 44H38.1683C41.4693 44 44.0001 41.2318 44.0001 38V37.3334C44.0001 35.687 43.3433 34.161 42.2625 33.0599C42.9567 32.1034 43.3614 30.9213 43.3614 29.6666C43.3614 26.6188 40.9734 24 37.8489 24H35.9331Z" fill="#646464"/>
</svg>
