<svg width="48" height="48" viewBox="0 0 48 48" fill="none" xmlns="http://www.w3.org/2000/svg">
<path d="M8 6C8 4.89543 7.10457 4 6 4C4.89543 4 4 4.89543 4 6V38C4 39.1046 4.89543 40 6 40C7.10457 40 8 39.1046 8 38V24H22V38C22 39.1046 22.8954 40 24 40C25.1046 40 26 39.1046 26 38V6C26 4.89543 25.1046 4 24 4C22.8954 4 22 4.89543 22 6V20H8V6Z" fill="#646464"/>
<path d="M42 26C42 24.8954 41.1046 24 40 24C38.8954 24 38 24.8954 38 26C38 27.2281 37.0969 28 36.25 28H35C33.8954 28 33 28.8954 33 30C33 31.1046 33.8954 32 35 32H36.25C36.8662 32 37.4531 31.9017 38 31.7211L38 42C38 43.1046 38.8954 44 40 44C41.1046 44 42 43.1046 42 42L42 26Z" fill="#646464"/>
</svg>
