<svg width="48" height="48" viewBox="0 0 48 48" fill="none" xmlns="http://www.w3.org/2000/svg">
<path fill-rule="evenodd" clip-rule="evenodd" d="M12.6907 14.377C13.587 13.7315 14.8369 13.9349 15.4824 14.8313L21.8015 23.6066L25.701 20.8384C26.5854 20.2106 27.8089 20.4021 28.4593 21.27L35.6005 30.8007C36.2629 31.6847 36.0832 32.9382 35.1993 33.6005C34.3153 34.2629 33.0618 34.0832 32.3995 33.1993L26.427 25.2284L22.4971 28.0182C21.6007 28.6545 20.3587 28.4481 19.7164 27.5561L12.2364 17.1687C11.5909 16.2724 11.7943 15.0225 12.6907 14.377Z" fill="#C62A2F"/>
<path fill-rule="evenodd" clip-rule="evenodd" d="M4.59451 38.1654C3.85391 29.3329 3.85391 18.7452 4.59451 9.91291C4.83239 7.07605 7.07592 4.8325 9.91278 4.59459C18.7452 3.8539 29.3329 3.85387 38.1654 4.59458C41.0022 4.83249 43.2457 7.07603 43.4836 9.91288C44.2242 18.7452 44.2242 29.3328 43.4836 38.1654C43.2457 41.0023 41.0021 43.2459 38.1651 43.4837C29.3328 44.2242 18.7453 44.2242 9.91298 43.4837C7.07604 43.2459 4.83239 41.0023 4.59451 38.1654ZM8.58053 10.2471C7.85858 18.857 7.85857 29.2211 8.58052 37.8312C8.65529 38.7228 9.35548 39.423 10.2471 39.4977C18.857 40.2195 29.2211 40.2195 37.831 39.4977C38.7226 39.423 39.4228 38.7228 39.4976 37.8312C40.2196 29.221 40.2196 18.857 39.4976 10.2471C39.4228 9.35552 38.7227 8.65536 37.8311 8.58059C29.2211 7.85854 18.857 7.85856 10.247 8.5806C9.35544 8.65537 8.65529 9.35553 8.58053 10.2471Z" fill="#C62A2F"/>
</svg>
