<svg width="48" height="48" viewBox="0 0 48 48" fill="none" xmlns="http://www.w3.org/2000/svg">
<path fill-rule="evenodd" clip-rule="evenodd" d="M35.7251 20.9881C35.1663 20.0354 33.9409 19.716 32.9881 20.2749L26.6234 24.008L22.1584 20.8384C21.5586 20.4127 20.7736 20.3505 20.1142 20.6764L12.973 24.2071C11.9828 24.6967 11.577 25.8962 12.0665 26.8864C12.5561 27.8766 13.7556 28.2824 14.7458 27.7928L20.8166 24.7913L25.3623 28.0182C26.004 28.4737 26.8531 28.5106 27.5319 28.1125L35.0119 23.7251C35.9646 23.1663 36.284 21.9409 35.7251 20.9881Z" fill="#AB6400"/>
<path fill-rule="evenodd" clip-rule="evenodd" d="M4.55545 38.1263C3.81485 29.2938 3.81485 18.7061 4.55545 9.87385C4.79333 7.03699 7.03686 4.79343 9.87372 4.55553C18.7062 3.81484 29.2939 3.81481 38.1263 4.55552C40.9631 4.79343 43.2067 7.03697 43.4445 9.87382C44.1852 18.7061 44.1852 29.2938 43.4445 38.1263C43.2067 40.9633 40.963 43.2069 38.1261 43.4447C29.2938 44.1851 18.7062 44.1851 9.87392 43.4447C7.03697 43.2069 4.79332 40.9633 4.55545 38.1263ZM8.54146 10.2081C7.81951 18.8179 7.81951 29.182 8.54146 37.7921C8.61622 38.6837 9.31641 39.3839 10.2081 39.4587C18.818 40.1804 29.182 40.1804 37.7919 39.4587C38.6836 39.3839 39.3838 38.6837 39.4585 37.7921C40.1805 29.182 40.1805 18.8179 39.4585 10.2081C39.3838 9.31645 38.6836 8.6163 37.792 8.54153C29.1821 7.81948 18.818 7.8195 10.208 8.54154C9.31637 8.61631 8.61623 9.31646 8.54146 10.2081Z" fill="#AB6400"/>
</svg>
