<svg width="48" height="48" viewBox="0 0 48 48" fill="none" xmlns="http://www.w3.org/2000/svg">
<path fill-rule="evenodd" clip-rule="evenodd" d="M12 15.8907C15.7358 15.949 21.4855 16 24 16V15.98C26.96 15.98 37.38 15.9 39.18 15.8C41.64 15.68 43.5 14.28 43.82 12.32C43.94 11.58 44 10.78 44 10C44 9.22 43.94 8.44 43.82 7.68C43.48 5.7 41.62 4.3 39.18 4.18C37.36 4.1 27.52 4 24 4C20.48 4 10.64 4.08 8.82 4.18C6.38 4.32 4.52 5.72 4.18 7.7C4.06 8.44 4 9.24 4 10.02C4 10.8 4.06 11.58 4.18 12.34C4.48077 14.0738 5.97101 15.3695 8 15.7284V20.58C8 23.56 10.42 26 13.42 26H16.1055C16.3081 28.0898 17.778 29.6415 19.66 29.8C19.7668 29.8095 19.8802 29.8191 20 29.8285V34.58C20 37.56 22.42 40 25.42 40H26.106C26.3277 42.0898 27.778 43.6415 29.66 43.8C30.78 43.9 32.62 44 35 44C37.38 44 39.22 43.88 40.34 43.8C42.24 43.66 43.7 42.06 43.9 39.94C43.94 39.38 43.98 38.74 43.98 38C43.98 37.26 43.96 36.62 43.9 36.06C43.7 33.94 42.24 32.36 40.34 32.2C39.22 32.1 37.38 32 35 32C32.62 32 30.78 32.12 29.66 32.2C27.778 32.3387 26.3277 33.9099 26.106 36H25.42C24.64 36 24 35.36 24 34.58V29.994C24.3216 29.9979 24.6552 30 25 30C27.38 30 29.22 29.88 30.34 29.8C32.24 29.66 33.7 28.06 33.9 25.94C33.94 25.38 33.98 24.74 33.98 24C33.98 23.26 33.96 22.62 33.9 22.06C33.7 19.94 32.24 18.36 30.34 18.2C29.24 18.1 27.4 18 25 18C22.6 18 20.78 18.12 19.66 18.2C17.778 18.3387 16.3277 19.9099 16.106 22H13.42C12.64 22 12 21.36 12 20.58V15.8907ZM9.02 11.82C8.56 11.8 8.16 11.66 8.16 11.66H8.14C8.04 11.14 8 10.58 8 10C8 9.46 8.04 8.94 8.12 8.44C8.22 8.36 8.54 8.2 9.02 8.18C10.66 8.1 20.24 8 24 8C27.76 8 37.34 8.1 38.98 8.18C39.2932 8.2032 39.539 8.27347 39.6904 8.31672C39.8 8.34806 39.86 8.36521 39.86 8.34C39.96 8.88 40 9.44 40 10C40 10.56 39.96 11.12 39.92 11.52C39.86 11.6 39.52 11.8 38.98 11.82C37.34 11.9 27.22 12 24 12C20.6 12 10.72 11.9 9.02 11.82ZM30.14 39.84C31.2 39.92 32.86 40 35 40C37.14 40 38.8 39.92 39.86 39.84C39.8637 39.8289 39.8681 39.8171 39.8728 39.8044C39.8935 39.749 39.92 39.6777 39.92 39.58C39.96 39.14 40 38.6 40 38.02C40 37.44 39.98 36.9 39.92 36.46C39.92 36.34 39.88 36.24 39.86 36.2C38.8 36.12 37.14 36.04 35 36.04C32.86 36.04 31.2 36.12 30.14 36.2C30.1363 36.2112 30.1319 36.223 30.1272 36.2357C30.1065 36.2912 30.08 36.3623 30.08 36.46C30.04 36.9 30 37.44 30 38.02C30 38.6 30.02 39.14 30.08 39.58C30.08 39.7 30.12 39.8 30.14 39.84ZM25 26C22.86 26 21.2 25.9 20.14 25.82C20.1363 25.8088 20.1319 25.797 20.1272 25.7843C20.1065 25.7288 20.08 25.6577 20.08 25.56C20.02 25.12 20 24.6 20 24C20 23.4 20.04 22.88 20.08 22.44C20.08 22.3423 20.1065 22.2712 20.1272 22.2157C20.1319 22.203 20.1363 22.1912 20.14 22.18C21.18 22.1 22.86 22 25 22C27.14 22 28.8 22.1 29.86 22.18C29.88 22.22 29.92 22.32 29.92 22.44C29.98 22.88 30 23.42 30 24C30 24.58 29.96 25.12 29.92 25.56C29.92 25.6577 29.8935 25.7288 29.8729 25.7843C29.8682 25.797 29.8637 25.8088 29.86 25.82C28.8 25.92 27.14 26 25 26Z" fill="#646464"/>
</svg>
