<svg width="48" height="48" viewBox="0 0 48 48" fill="none" xmlns="http://www.w3.org/2000/svg">
<path d="M26.0007 4.22266C37.0226 4.22283 46.0005 13.054 46.0007 24C46.0005 34.946 37.0226 43.7772 26.0007 43.7773C18.8391 43.7773 12.5488 40.0531 9.01635 34.4492L8.68236 33.9004L8.58861 33.7188C8.16724 32.797 8.50419 31.6877 9.3972 31.1641C10.2907 30.6408 11.4241 30.8888 12.0222 31.707L12.1355 31.8789L12.4011 32.3164C15.2229 36.7929 20.2545 39.7773 26.0007 39.7773C34.8605 39.7772 42.0005 32.6902 42.0007 24C42.0005 15.3098 34.8605 8.22283 26.0007 8.22266C18.4498 8.22266 12.1512 13.371 10.4538 20.2715L11.4753 19.252C12.2562 18.4716 13.5225 18.4717 14.3035 19.252C15.0841 20.033 15.0844 21.3011 14.3035 22.082L9.8601 26.5254C9.12775 27.2577 7.9679 27.3031 7.18236 26.6621L7.03002 26.5254L2.58666 22.082L2.44994 21.9297C1.80881 21.1441 1.85431 19.9843 2.58666 19.252C3.36757 18.4716 4.63387 18.4716 5.41478 19.252L6.37181 20.209C8.16204 11.0853 16.2851 4.22266 26.0007 4.22266Z" fill="#646464"/>
<path d="M26.2234 13.1113C27.3275 13.1117 28.2233 14.0071 28.2234 15.1113V22H32.8894L33.0945 22.0117C34.1024 22.1145 34.8892 22.9649 34.8894 24C34.8892 25.0351 34.1025 25.8875 33.0945 25.9902L32.8894 26H26.2234C25.1189 26 24.2236 25.1044 24.2234 24V15.1113C24.2235 14.0069 25.1189 13.1113 26.2234 13.1113Z" fill="#646464"/>
</svg>
