<svg width="48" height="48" viewBox="0 0 48 48" fill="none" xmlns="http://www.w3.org/2000/svg">
<path d="M14.2 30.96C14.28 31.18 16.66 36.02 24 36.02V36C31.3213 36 33.7277 31.1847 33.8392 30.9616C34.2992 29.9816 33.9 28.82 32.92 28.32C31.94 27.84 30.74 28.24 30.24 29.2C30.18 29.32 28.66 32 24 32C19.34 32 17.88 29.38 17.8 29.22C17.32 28.24 16.16 27.84 15.16 28.3C14.16 28.76 13.72 29.96 14.2 30.96Z" fill="#646464"/>
<path fill-rule="evenodd" clip-rule="evenodd" d="M10.84 43.32C13.56 43.4 18.04 43.52 24 43.52V43.48C29.94 43.48 34.44 43.38 37.16 43.28C40.82 43.16 43.68 40.32 43.82 36.68C43.94 33.84 44 31.14 44 28.64C44 24.78 43.86 21.3 43.74 19.04C43.62 16.82 42.66 14.84 41.04 13.44C38.68 11.42 33.74 7.58 27.22 4.68C25.18 3.78 22.82 3.78 20.78 4.68C14.26 7.58 9.32 11.42 6.94 13.48C5.34 14.86 4.38 16.86 4.26 19.08C4.14 21.34 4 24.86 4 28.68C4 31.16 4.06 33.86 4.18 36.72C4.34 40.36 7.2 43.2 10.84 43.32ZM22.4 8.34C22.9 8.12 23.46 8 24 8H24.04C24.58 8 25.14 8.12 25.64 8.34C31.7 11.02 36.28 14.6 38.48 16.48C39.26 17.16 39.72 18.14 39.78 19.26C39.9 21.48 40.04 24.9 40.04 28.66C40.04 31.1 39.98 33.76 39.86 36.54C39.8 38.08 38.6 39.26 37.06 39.32C34.36 39.42 29.92 39.52 24.02 39.52C18.12 39.52 13.68 39.42 10.98 39.32C9.44 39.26 8.24 38.06 8.18 36.54C8.06 33.74 8 31.08 8 28.66C8 24.92 8.14 21.48 8.26 19.26C8.32 18.14 8.78 17.16 9.56 16.48C11.76 14.6 16.36 11.02 22.4 8.34Z" fill="#646464"/>
</svg>
