<svg width="48" height="48" viewBox="0 0 48 48" fill="none" xmlns="http://www.w3.org/2000/svg">
<path d="M36.4988 3.94055C35.3613 3.87441 34.3856 4.74293 34.3194 5.88044C34.2533 7.01796 35.1218 7.99373 36.2593 8.05987C36.9795 8.10175 37.6613 8.14777 38.2978 8.19783C39.1142 8.26205 39.7381 8.88595 39.8023 9.70242C39.8524 10.339 39.8984 11.021 39.9403 11.7413C40.0064 12.8788 40.9822 13.7474 42.1197 13.6812C43.2572 13.6151 44.1258 12.6393 44.0596 11.5018C44.0164 10.7578 43.9685 10.0475 43.9159 9.37889C43.6925 6.53884 41.4614 4.30765 38.6213 4.08426C37.9528 4.03168 37.2427 3.98381 36.4988 3.94055Z" fill="#646464"/>
<path d="M11.741 8.05987C12.8785 7.99373 13.747 7.01797 13.6809 5.88045C13.6147 4.74293 12.639 3.87441 11.5015 3.94055C10.7575 3.98381 10.0472 4.03169 9.37865 4.08428C6.53863 4.30766 4.30745 6.53879 4.08404 9.37883C4.03145 10.0474 3.98357 10.7576 3.94031 11.5016C3.87416 12.6391 4.74268 13.6149 5.8802 13.681C7.01771 13.7472 7.99348 12.8787 8.05963 11.7411C8.10151 11.0209 8.14754 10.339 8.19761 9.70241C8.26184 8.88596 8.88573 8.26207 9.7022 8.19785C10.3388 8.14778 11.0207 8.10175 11.741 8.05987Z" fill="#646464"/>
<path d="M8.05963 36.259C7.99348 35.1215 7.01772 34.253 5.8802 34.3192C4.74268 34.3853 3.87416 35.3611 3.94031 36.4986C3.98357 37.2426 4.03146 37.9529 4.08405 38.6216C4.30745 41.4616 6.5386 43.6927 9.37862 43.9161C10.0472 43.9687 10.7575 44.0166 11.5014 44.0599C12.639 44.126 13.6147 43.2575 13.6809 42.12C13.747 40.9825 12.8785 40.0067 11.741 39.9405C11.0207 39.8987 10.3388 39.8526 9.70219 39.8026C8.88574 39.7383 8.26185 39.1145 8.19763 38.298C8.14755 37.6614 8.10152 36.9794 8.05963 36.259Z" fill="#646464"/>
<path d="M44.0596 36.4986C44.1258 35.3611 43.2572 34.3853 42.1197 34.3192C40.9822 34.253 40.0064 35.1215 39.9403 36.2591C39.8984 36.9794 39.8524 37.6613 39.8023 38.298C39.7381 39.1144 39.1142 39.7383 38.2977 39.8026C37.6611 39.8526 36.9791 39.8987 36.2588 39.9405C35.1213 40.0067 34.2527 40.9824 34.3189 42.12C34.385 43.2575 35.3608 44.126 36.4983 44.0599C37.2423 44.0166 37.9526 43.9687 38.6213 43.9161C41.4614 43.6927 43.6925 41.4615 43.9159 38.6215C43.9685 37.9529 44.0164 37.2426 44.0596 36.4986Z" fill="#646464"/>
<path d="M19.4163 17.5C19.4163 16.3954 18.5208 15.5 17.4163 15.5C16.3117 15.5 15.4163 16.3954 15.4163 17.5V30.5C15.4163 31.6046 16.3117 32.5 17.4163 32.5C18.5208 32.5 19.4163 31.6046 19.4163 30.5V17.5Z" fill="#646464"/>
<path fill-rule="evenodd" clip-rule="evenodd" d="M23.9163 15.5C22.8117 15.5 21.9163 16.3954 21.9163 17.5V30.5C21.9163 31.6046 22.8117 32.5 23.9163 32.5H26.0829C30.7773 32.5 34.5829 28.6944 34.5829 24C34.5829 19.3056 30.7773 15.5 26.0829 15.5H23.9163ZM25.9163 28.5V19.5H26.0829C28.5682 19.5 30.5829 21.5147 30.5829 24C30.5829 26.4853 28.5682 28.5 26.0829 28.5H25.9163Z" fill="#646464"/>
</svg>
