<svg width="48" height="48" viewBox="0 0 48 48" fill="none" xmlns="http://www.w3.org/2000/svg">
<path fill-rule="evenodd" clip-rule="evenodd" d="M24 4C17.6381 4 13.1691 4.23902 10.3442 4.46854C7.1772 4.72585 4.72585 7.17718 4.46854 10.3442C4.23902 13.1691 4 17.6381 4 24C4 27.4758 4.07134 30.3865 4.1735 32.7727C4.25833 34.7542 4.3644 36.3742 4.46853 37.6558C4.72584 40.8228 7.17719 43.2741 10.3442 43.5314C13.1691 43.761 17.6381 44 24 44C30.3619 44 34.8309 43.761 37.6558 43.5314C40.8228 43.2741 43.2741 40.8228 43.5314 37.6558C43.6131 36.6501 43.6961 35.436 43.769 34.0024C43.9009 31.4091 44 28.0971 44 24C44 17.6381 43.761 13.1691 43.5314 10.3442C43.2741 7.1772 40.8228 4.72585 37.6558 4.46854C34.8309 4.23902 30.3619 4 24 4ZM8.21171 33.5159C8.28598 35.0353 8.37178 36.3028 8.4554 37.3319C8.55399 38.5454 9.45458 39.446 10.6681 39.5446C13.3773 39.7647 17.7379 40 24 40C30.2621 40 34.6227 39.7647 37.3319 39.5446C38.5454 39.446 39.446 38.5454 39.5446 37.3319C39.6051 36.5869 39.6668 35.717 39.7244 34.717C37.3007 32.4354 35.6311 31.0005 34.5475 30.1241C34.0131 29.6918 33.4452 29.6851 32.9838 29.9818C31.8271 30.7256 30.0407 32.0182 27.5352 34.2054C26.751 34.8899 25.5728 34.8585 24.8262 34.1331C21.1745 30.5853 18.8312 28.5518 17.4449 27.4305C16.9105 26.9982 16.3426 26.9914 15.8811 27.2882C14.4057 28.237 11.9109 30.0752 8.21171 33.5159ZM10.6681 8.45541C13.3773 8.23528 17.7379 8 24 8C30.2621 8 34.6227 8.23528 37.3319 8.45541C38.5454 8.554 39.446 9.4546 39.5446 10.6681C39.7647 13.3773 40 17.7379 40 24C40 26.0205 39.9755 27.8431 39.9349 29.4761C38.7347 28.4011 37.7904 27.6024 37.063 27.014C35.2965 25.5852 32.8479 25.3135 30.8202 26.6175C29.7219 27.3238 28.2317 28.3928 26.3015 30.0002C23.3162 27.1497 21.2804 25.3881 19.9604 24.3205C18.1938 22.8916 15.7453 22.6198 13.7175 23.9238C12.41 24.7647 10.5444 26.1214 8.03922 28.2921C8.01433 26.9746 8 25.5452 8 24C8 17.7379 8.23528 13.3773 8.45541 10.6681C8.554 9.45459 9.45459 8.554 10.6681 8.45541ZM30.5714 11.5714C33.5695 11.5714 36 14.0019 36 17C36 18.7553 35.1669 20.316 33.8746 21.3083C32.9595 22.0109 31.8142 22.4286 30.5714 22.4286C30.1063 22.4286 29.6548 22.3701 29.2239 22.26C26.8777 21.6607 25.1429 19.5329 25.1429 17C25.1429 15.8283 25.5141 14.7433 26.1453 13.8562C26.4928 13.3679 26.919 12.9396 27.4055 12.5897C28.2967 11.9489 29.39 11.5714 30.5714 11.5714ZM29.1429 17C29.1429 17.7889 29.7825 18.4286 30.5714 18.4286C30.9211 18.4286 31.2415 18.3029 31.4898 18.0943C31.8017 17.8322 32 17.4393 32 17C32 16.2111 31.3604 15.5714 30.5714 15.5714C30.2831 15.5714 30.0148 15.6568 29.7903 15.8037C29.4004 16.0588 29.1429 16.4994 29.1429 17Z" fill="#646464"/>
</svg>
