<svg width="48" height="48" viewBox="0 0 48 48" fill="none" xmlns="http://www.w3.org/2000/svg">
<path d="M15.442 41.7031C17.5843 41.8618 19.4497 42 24.0001 42C28.2801 42 32.1201 41.88 35.3801 41.64C38.7601 41.4 41.4001 38.76 41.6401 35.38C41.8801 32.1 42.0001 28.28 42.0001 24C42.0001 19.72 41.8801 15.88 41.6401 12.62C41.4001 9.24 38.7601 6.6 35.3801 6.36C32.1001 6.12 28.2801 6 24.0001 6C19.4491 6 17.5996 6.13703 15.469 6.29489L15.4001 6.3L14.6201 6.36C11.2401 6.6 8.60009 9.24 8.34009 12.76V15.98C8.34009 17.08 9.24009 17.98 10.3401 17.98C11.4401 17.98 12.3401 17.08 12.3401 15.98V12.9C12.4401 11.5 13.4801 10.44 14.9001 10.34L15.6801 10.28C15.8043 10.2716 15.9275 10.2633 16.0503 10.2549C17.9822 10.1238 19.8053 10 23.9801 10C28.1601 10 31.9001 10.1 35.0601 10.34C36.4801 10.44 37.5401 11.5 37.6401 12.9C37.8601 16.06 37.9801 19.8 37.9801 23.98C37.9801 28.16 37.8601 31.9 37.6401 35.06C37.5201 36.48 36.4801 37.54 35.0601 37.64C31.9001 37.86 28.1601 37.98 23.9801 37.98C19.5401 37.98 17.7601 37.86 15.6801 37.7L14.9001 37.64C13.5001 37.54 12.4401 36.48 12.3401 35.22V32C12.3401 30.9 11.4401 30 10.3401 30C9.24009 30 8.34009 30.9 8.34009 32V35.38C8.60009 38.76 11.2401 41.4 14.6201 41.64L15.4001 41.7L15.442 41.7031Z" fill="#646464"/>
<path d="M22.58 31.42C22.98 31.8 23.48 32 24 32L23.98 32.02C24.5 32.02 25 31.84 25.4 31.44L31.4 25.44C31.6 25.24 31.74 25.02 31.84 24.78C31.94 24.54 32 24.3 32 24.04V23.98C32 23.72 31.96 23.48 31.86 23.26H31.82V23.18C31.72 22.98 31.58 22.78 31.42 22.62L25.42 16.62C24.64 15.84 23.38 15.84 22.6 16.62C21.82 17.4 21.82 18.66 22.6 19.44L25.18 22.02H8C6.9 22.02 6 22.92 6 24.02C6 25.12 6.9 26.02 8 26.02H25.16L22.58 28.6C21.8 29.38 21.8 30.64 22.58 31.42Z" fill="#646464"/>
</svg>
