<svg width="48" height="48" viewBox="0 0 48 48" fill="none" xmlns="http://www.w3.org/2000/svg">
<path fill-rule="evenodd" clip-rule="evenodd" d="M10.6402 43.58C12.9602 43.78 17.1802 44 24.0002 44C30.8402 44 35.0402 43.76 37.3602 43.58C40.3202 43.34 42.5402 41.12 42.8002 38.18C43.0043 35.8923 43.0987 33.2874 43.1425 31.2047C43.1629 30.3201 43.1742 29.5353 43.1802 28.92C43.1802 28.8767 43.1788 28.8334 43.176 28.7902C43.1802 28.1938 43.1802 27.7506 43.1802 27.52C43.1802 27.28 43.1602 27.04 43.1402 26.8C42.3202 19.38 41.1802 13.18 40.3602 9.28C39.7602 6.4 37.2802 4.3 34.3602 4.18C31.5602 4.06 28.0602 4 24.0002 4C19.9402 4 16.4402 4.06 13.6402 4.18C10.7002 4.3 8.24019 6.4 7.64019 9.28C6.82019 13.18 5.66019 19.38 4.86019 26.8C4.82019 27.04 4.82019 27.28 4.82019 27.52C4.82019 27.8067 4.82169 28.2292 4.82658 28.7539C4.82233 28.8088 4.82019 28.8642 4.82019 28.92C4.84019 31 4.92019 34.94 5.20019 38.18C5.46019 41.12 7.68019 43.34 10.6402 43.58ZM39.1016 32.771C39.0447 34.4163 38.9631 36.2252 38.8202 37.84C38.7202 38.82 38.0202 39.52 37.0402 39.6C34.7802 39.78 30.7002 40 24.0002 40C17.3002 40 13.2202 39.78 10.9602 39.6H10.9802C10.0002 39.52 9.28019 38.82 9.20019 37.84C9.02019 35.58 8.92019 32.94 8.88019 30.9H15.7002C15.9002 30.9 16.0802 31.04 16.1402 31.22L16.6602 32.78C17.2602 34.6 18.9602 35.82 20.8802 35.82H27.1602C29.0802 35.82 30.7802 34.6 31.3802 32.78L31.9002 31.22C31.9802 31.02 32.1402 30.9 32.3402 30.9H39.1487C39.1375 31.4844 39.1222 32.1151 39.1016 32.771ZM39.1433 26.9H32.3202C30.4002 26.9 28.7002 28.12 28.1002 29.94L27.5802 31.5C27.5002 31.7 27.3402 31.82 27.1402 31.82H20.8602C20.6602 31.82 20.4802 31.68 20.4202 31.5L19.9002 29.94C19.3002 28.12 17.6002 26.9 15.6802 26.9H8.86012C9.65713 19.7803 10.7534 13.8572 11.5402 10.12C11.7802 9 12.6802 8.22 13.8002 8.18C16.5402 8.06 19.9802 8 24.0002 8C28.0202 8 31.4602 8.06 34.2002 8.18C35.3202 8.24 36.2202 9.02 36.4602 10.12C37.2477 13.8605 38.3646 19.7909 39.1433 26.9Z" fill="#646464"/>
</svg>
