<svg width="48" height="48" viewBox="0 0 48 48" fill="none" xmlns="http://www.w3.org/2000/svg">
<path fill-rule="evenodd" clip-rule="evenodd" d="M10.6402 43.58C12.9602 43.78 17.1802 44 24.0002 44C30.8402 44 35.0402 43.76 37.3602 43.58C40.3202 43.34 42.5402 41.12 42.8002 38.18C43.0043 35.8923 43.0987 33.2874 43.1425 31.2047C43.1629 30.3201 43.1742 29.5353 43.1802 28.92C43.1802 28.8767 43.1788 28.8334 43.176 28.7902C43.1802 28.1938 43.1802 27.7506 43.1802 27.52C43.1802 27.28 43.1602 27.04 43.1402 26.8C42.3202 19.38 41.1802 13.18 40.3602 9.28C39.7602 6.4 37.2802 4.3 34.3602 4.18C31.5602 4.06 28.0602 4 24.0002 4C19.9402 4 16.4402 4.06 13.6402 4.18C10.7002 4.3 8.24019 6.4 7.64019 9.28C6.82019 13.18 5.66019 19.38 4.86019 26.8C4.82019 27.04 4.82019 27.28 4.82019 27.52C4.82019 27.8067 4.82169 28.2292 4.82658 28.7539C4.82233 28.8088 4.82019 28.8642 4.82019 28.92C4.84019 31 4.92019 34.94 5.20019 38.18C5.46019 41.12 7.68019 43.34 10.6402 43.58ZM39.1433 26.9H32.3202C30.4002 26.9 28.7002 28.12 28.1002 29.94L27.5802 31.5C27.5002 31.7 27.3402 31.82 27.1402 31.82H20.8602C20.6602 31.82 20.4802 31.68 20.4202 31.5L19.9002 29.94C19.3002 28.12 17.6002 26.9 15.6802 26.9H8.86012C9.65713 19.7803 10.7534 13.8572 11.5402 10.12C11.7802 9 12.6802 8.22 13.8002 8.18C16.5402 8.06 19.9802 8 24.0002 8C28.0202 8 31.4602 8.06 34.2002 8.18C35.3202 8.24 36.2202 9.02 36.4602 10.12C37.2477 13.8605 38.3646 19.7909 39.1433 26.9Z" fill="#646464"/>
</svg>
