<svg width="48" height="48" viewBox="0 0 48 48" fill="none" xmlns="http://www.w3.org/2000/svg">
<path fill-rule="evenodd" clip-rule="evenodd" d="M4 8C4 6.89543 4.89543 6 6 6H42C43.1046 6 44 6.89543 44 8C44 9.10457 43.1046 10 42 10H6C4.89543 10 4 9.10457 4 8ZM6.58579 14.5858C7.36683 13.8047 8.63316 13.8047 9.41421 14.5858L17.4142 22.5858C18.1953 23.3668 18.1953 24.6332 17.4142 25.4142L9.41421 33.4142C8.63316 34.1953 7.36683 34.1953 6.58579 33.4142C5.80474 32.6332 5.80474 31.3668 6.58579 30.5858L13.1716 24L6.58579 17.4142C5.80474 16.6332 5.80474 15.3668 6.58579 14.5858ZM22 18.66C22 17.5554 22.8954 16.66 24 16.66H42C43.1046 16.66 44 17.5554 44 18.66C44 19.7646 43.1046 20.66 42 20.66H24C22.8954 20.66 22 19.7646 22 18.66ZM22 29.32C22 28.2154 22.8954 27.32 24 27.32H42C43.1046 27.32 44 28.2154 44 29.32C44 30.4246 43.1046 31.32 42 31.32H24C22.8954 31.32 22 30.4246 22 29.32ZM4 40C4 38.8954 4.89543 38 6 38H42C43.1046 38 44 38.8954 44 40C44 41.1046 43.1046 42 42 42H6C4.89543 42 4 41.1046 4 40Z" fill="#646464"/>
</svg>
