<svg width="48" height="48" viewBox="0 0 48 48" fill="none" xmlns="http://www.w3.org/2000/svg">
<path fill-rule="evenodd" clip-rule="evenodd" d="M34 12C34 9.79086 35.7909 8 38 8C40.2091 8 42 9.79086 42 12C42 14.2091 40.2091 16 38 16C35.7909 16 34 14.2091 34 12ZM8 14C8 12.8954 8.89543 12 10 12H28C29.1046 12 30 12.8954 30 14C30 15.1046 29.1046 16 28 16H10C8.89543 16 8 15.1046 8 14ZM38.1907 19.393C38.8406 19.8746 39.1365 20.7003 38.9403 21.4851L35.9949 33.2665L38.1056 32.2111C39.0935 31.7172 40.2949 32.1176 40.7889 33.1056C41.2828 34.0935 40.8824 35.2949 39.8944 35.7889L37.099 37.1865C34.3115 38.5803 31.1728 36.0626 31.9287 33.039L33.8886 25.1992L33.029 25.715C32.0818 26.2833 30.8533 25.9762 30.285 25.029C29.7167 24.0818 30.0238 22.8533 30.971 22.285L35.971 19.285C36.6647 18.8688 37.5407 18.9115 38.1907 19.393ZM8 24C8 22.8954 8.89543 22 10 22H24C25.1046 22 26 22.8954 26 24C26 25.1046 25.1046 26 24 26H10C8.89543 26 8 25.1046 8 24ZM8 34C8 32.8954 8.89543 32 10 32H26C27.1046 32 28 32.8954 28 34C28 35.1046 27.1046 36 26 36H10C8.89543 36 8 35.1046 8 34Z" fill="#646464"/>
</svg>
