<svg width="48" height="48" viewBox="0 0 48 48" fill="none" xmlns="http://www.w3.org/2000/svg">
<path d="M19 22C19 20.8954 19.8954 20 21 20H24C25.1046 20 26 20.8954 26 22V30H28C29.1046 30 30 30.8954 30 32C30 33.1046 29.1046 34 28 34H20C18.8954 34 18 33.1046 18 32C18 30.8954 18.8954 30 20 30H22V24H21C19.8954 24 19 23.1046 19 22Z" fill="#646464"/>
<path d="M24 18C25.3807 18 26.5 16.8807 26.5 15.5C26.5 14.1193 25.3807 13 24 13C22.6193 13 21.5 14.1193 21.5 15.5C21.5 16.8807 22.6193 18 24 18Z" fill="#646464"/>
<path fill-rule="evenodd" clip-rule="evenodd" d="M4 24C4 12.9543 12.9543 4 24 4C35.0457 4 44 12.9543 44 24C44 35.0457 35.0457 44 24 44C12.9543 44 4 35.0457 4 24ZM24 8C15.1634 8 8 15.1634 8 24C8 32.8366 15.1634 40 24 40C32.8366 40 40 32.8366 40 24C40 15.1634 32.8366 8 24 8Z" fill="#646464"/>
</svg>
