<svg width="48" height="48" viewBox="0 0 48 48" fill="none" xmlns="http://www.w3.org/2000/svg">
<path d="M17.5024 6.87109C17.5024 5.76652 18.3979 4.87109 19.5024 4.87109H34.1794C35.284 4.87109 36.1794 5.76652 36.1794 6.87109C36.1794 7.97566 35.284 8.87109 34.1794 8.87109H29.2342L20.6266 39.1836H25.4702C26.5748 39.1836 27.4702 40.079 27.4702 41.1836C27.4702 42.2882 26.5748 43.1836 25.4702 43.1836H11.9453C10.8407 43.1836 9.94531 42.2882 9.94531 41.1836C9.94531 40.079 10.8407 39.1836 11.9453 39.1836H16.4684L25.0761 8.87109H19.5024C18.3979 8.87109 17.5024 7.97566 17.5024 6.87109Z" fill="#646464"/>
</svg>
