<svg width="48" height="48" viewBox="0 0 48 48" fill="none" xmlns="http://www.w3.org/2000/svg">
<path d="M40.5083 6H23.1768C23.1768 10.32 26.6739 13.8171 30.9939 13.8171H34.1825V16.9029C34.1825 21.2229 37.6796 24.72 41.9996 24.72V7.49143C41.9996 6.66856 41.331 6 40.5083 6Z" fill="#2684FF"/>
<path d="M31.9198 14.64H14.5884C14.5884 18.96 18.0855 22.4571 22.4055 22.4571H25.594V25.5429C25.594 29.8629 29.0913 33.36 33.4113 33.36V16.1315C33.4113 15.3086 32.7426 14.64 31.9198 14.64Z" fill="url(#paint0_linear_3_18220)"/>
<path d="M23.3315 23.28H6C6 27.6 9.49714 31.0971 13.8171 31.0971H17.0056V34.1829C17.0056 38.5029 20.5029 42 24.8229 42V24.7715C24.8229 23.9486 24.1544 23.28 23.3315 23.28Z" fill="url(#paint1_linear_3_18220)"/>
<defs>
<linearGradient id="paint0_linear_3_18220" x1="33.0514" y1="14.6588" x2="25.6771" y2="22.2636" gradientUnits="userSpaceOnUse">
<stop offset="0.176" stop-color="#0052CC"/>
<stop offset="1" stop-color="#2684FF"/>
</linearGradient>
<linearGradient id="paint1_linear_3_18220" x1="24.9616" y1="23.3456" x2="16.4352" y2="31.6415" gradientUnits="userSpaceOnUse">
<stop offset="0.176" stop-color="#0052CC"/>
<stop offset="1" stop-color="#2684FF"/>
</linearGradient>
</defs>
</svg>
