<svg width="48" height="48" viewBox="0 0 48 48" fill="none" xmlns="http://www.w3.org/2000/svg">
<path fill-rule="evenodd" clip-rule="evenodd" d="M27.6019 4.6266C27.2169 5.00291 26.9998 5.51854 26.9998 6.05691V41.9439C26.9998 42.4822 27.2169 42.9979 27.6019 43.3742C27.9869 43.7505 28.5074 43.9557 29.0456 43.9433C32.7322 43.8589 35.669 43.6932 37.6556 43.5318C40.8226 43.2745 43.274 40.8232 43.5313 37.6562C43.7608 34.8312 43.9998 30.3622 43.9998 24.0003C43.9998 17.6384 43.7608 13.1695 43.5313 10.3445C43.274 7.17754 40.8226 4.72618 37.6556 4.46888C35.669 4.30746 32.7321 4.14185 29.0456 4.05744C28.5074 4.04511 27.9869 4.2503 27.6019 4.6266ZM30.9998 8.11383C33.6614 8.20276 35.8063 8.3318 37.3317 8.45574C38.5452 8.55433 39.4458 9.45493 39.5444 10.6684C39.7645 13.3777 39.9998 17.7382 39.9998 24.0003C39.9998 30.2624 39.7645 34.623 39.5444 37.3323C39.4458 38.5458 38.5452 39.4464 37.3317 39.545C35.8062 39.6689 33.6614 39.798 30.9998 39.8869V8.11383Z" fill="#646464"/>
<path fill-rule="evenodd" clip-rule="evenodd" d="M23.9998 8C30.2619 8 34.6225 8.23562 37.3317 8.45574C38.5452 8.55433 39.4458 9.45493 39.5444 10.6684C39.7645 13.3777 39.9998 17.7382 39.9998 24.0003C39.9998 30.2624 39.7645 34.623 39.5444 37.3323C39.4458 38.5458 38.5452 39.4464 37.3317 39.545C34.6225 39.7651 30.2619 40 23.9998 40C17.7378 40 13.3772 39.7647 10.668 39.5446C9.45445 39.446 8.55384 38.5454 8.45525 37.3319C8.23513 34.6227 7.99982 30.2621 7.99982 24C7.99982 17.7379 8.23512 13.3773 8.45525 10.6681C8.55384 9.45461 9.45443 8.554 10.6679 8.45541C13.3771 8.23528 17.7378 8 23.9998 8ZM37.6556 4.46888C34.8307 4.23936 30.3618 4 23.9998 4C17.6379 4 13.1689 4.23902 10.344 4.46854C7.17704 4.72585 4.72568 7.17719 4.46839 10.3442C4.23886 13.1691 3.99982 17.6381 3.99982 24C3.99982 30.3619 4.23886 34.8309 4.46839 37.6558C4.72569 40.8228 7.17704 43.2741 10.344 43.5314C13.1689 43.761 17.6379 44 23.9998 44C30.3618 44 34.8307 43.7614 37.6556 43.5318C40.8226 43.2745 43.274 40.8232 43.5313 37.6562C43.7608 34.8312 43.9998 30.3622 43.9998 24.0003C43.9998 17.6384 43.7608 13.1695 43.5313 10.3445C43.274 7.17754 40.8226 4.72618 37.6556 4.46888Z" fill="#646464"/>
<path fill-rule="evenodd" clip-rule="evenodd" d="M16.1013 29.6749L21.7029 24.6231C22.0985 24.2664 22.0985 23.7336 21.7029 23.3769L16.1013 18.3251C15.3721 17.6675 13.9996 18.0744 13.9996 18.9482V29.0518C13.9996 29.9256 15.3721 30.3325 16.1013 29.6749Z" fill="#646464"/>
</svg>
