<svg width="48" height="48" viewBox="0 0 48 48" fill="none" xmlns="http://www.w3.org/2000/svg">
<path d="M24 9.9C22.9 9.9 22 9 22 7.9V6C22 4.9 22.9 4 24 4C25.1 4 26 4.9 26 6V7.9C26 9 25.1 9.9 24 9.9Z" fill="#646464"/>
<path fill-rule="evenodd" clip-rule="evenodd" d="M24 33.58C18.72 33.58 14.42 29.28 14.42 24C14.42 18.72 18.72 14.42 24 14.42C29.28 14.42 33.58 18.72 33.58 24C33.58 29.28 29.28 33.58 24 33.58ZM24 18.42C20.92 18.42 18.42 20.92 18.42 24C18.42 27.08 20.92 29.58 24 29.58C27.08 29.58 29.58 27.08 29.58 24C29.58 20.92 27.08 18.42 24 18.42Z" fill="#646464"/>
<path d="M22 42C22 43.1 22.9 44 24 44C25.1 44 26 43.1 26 42V40.1C26 39 25.1 38.1 24 38.1C22.9 38.1 22 39 22 40.1V42Z" fill="#646464"/>
<path d="M42 26H40.1C39 26 38.1 25.1 38.1 24C38.1 22.9 39 22 40.1 22H42C43.1 22 44 22.9 44 24C44 25.1 43.1 26 42 26Z" fill="#646464"/>
<path d="M6 26H7.9C9 26 9.9 25.1 9.9 24C9.9 22.9 9 22 7.9 22H6C4.9 22 4 22.9 4 24C4 25.1 4.9 26 6 26Z" fill="#646464"/>
<path d="M35.38 14.6L35.3703 14.6C35.8866 14.5976 36.3826 14.4174 36.78 14.02L38.12 12.68C38.9 11.9 38.9 10.64 38.12 9.86002C37.34 9.08002 36.08 9.08002 35.3 9.86002L33.96 11.2C33.18 11.98 33.18 13.24 33.96 14.02C34.3575 14.3977 34.8538 14.5975 35.3703 14.6L35.36 14.6H35.38Z" fill="#646464"/>
<path d="M11.2503 38.74L11.26 38.74H11.24L11.2503 38.74Z" fill="#646464"/>
<path d="M12.66 38.16C12.2626 38.5574 11.7666 38.7377 11.2503 38.74C10.7338 38.7375 10.2375 38.5377 9.84 38.16C9.06001 37.38 9.06001 36.12 9.84 35.34L11.18 34C11.96 33.22 13.22 33.22 14 34C14.78 34.78 14.78 36.04 14 36.82L12.66 38.16Z" fill="#646464"/>
<path d="M36.72 38.72L36.7103 38.72C37.2266 38.7176 37.7226 38.5374 38.12 38.14C38.9 37.36 38.9 36.1 38.12 35.32L36.78 33.98C36 33.2 34.74 33.2 33.96 33.98C33.18 34.76 33.18 36.02 33.96 36.8L35.3 38.14C35.6975 38.5177 36.1938 38.7175 36.7103 38.72L36.7 38.72H36.72Z" fill="#646464"/>
<path d="M12.5903 14.6L12.6 14.6H12.58L12.5903 14.6Z" fill="#646464"/>
<path d="M11.18 14.02C11.5775 14.3977 12.0738 14.5975 12.5903 14.6C13.1066 14.5976 13.6026 14.4174 14 14.02C14.78 13.24 14.78 11.98 14 11.2L12.66 9.86002C11.88 9.08002 10.62 9.08002 9.84 9.86002C9.06001 10.64 9.06001 11.9 9.84 12.68L11.18 14.02Z" fill="#646464"/>
</svg>
