<svg width="48" height="48" viewBox="0 0 48 48" fill="none" xmlns="http://www.w3.org/2000/svg">
<path fill-rule="evenodd" clip-rule="evenodd" d="M24 8C23.4192 8 22.8491 8.03915 22.2923 8.11457C16.4094 8.91136 12 13.7299 12 19.4211C12 22.5707 13.3386 25.4342 15.5341 27.5147C15.7513 27.7204 15.9768 27.9185 16.2101 28.1083C16.4043 28.2661 16.6799 28.5231 16.8877 28.9244C17.0495 29.2369 17.1154 29.548 17.1348 29.6397C17.1362 29.6461 17.1373 29.6514 17.1382 29.6556C17.2096 29.9805 17.2866 30.3153 17.3666 30.6521C17.5398 31.3818 17.7257 32.1145 17.8969 32.7682C17.9223 32.8652 17.9463 32.9612 17.9672 33.0451L17.9694 33.0539C17.9919 33.1437 18.0111 33.2205 18.0306 33.2948C18.0699 33.4442 18.1013 33.5482 18.1312 33.6294C18.1532 33.6888 18.1703 33.725 18.1812 33.7453C18.2017 33.7526 18.237 33.7631 18.2937 33.7745C18.3803 33.7919 18.494 33.8069 18.6575 33.8203C18.7696 33.8296 18.8606 33.8351 18.9686 33.8418C19.0445 33.8464 19.1289 33.8516 19.235 33.8589C20.3424 33.9353 21.9002 34 24 34C26.1773 34 27.7719 33.9305 28.8858 33.8504C28.9558 33.8454 29.0177 33.8411 29.0747 33.8373C29.2018 33.8286 29.3041 33.8216 29.4154 33.8112C29.563 33.7974 29.6631 33.7825 29.7367 33.7664C29.7754 33.758 29.8015 33.7505 29.8181 33.7449C29.8264 33.7288 29.8381 33.7035 29.8528 33.6656C29.8785 33.5993 29.9071 33.5108 29.9431 33.38C29.968 33.2899 29.9867 33.2168 30.0091 33.1291C30.025 33.0671 30.0428 32.9979 30.0658 32.9101C30.328 31.9137 30.6291 30.7178 30.8684 29.6254L30.8698 29.6187C30.898 29.4899 30.9714 29.1546 31.1773 28.8061C31.3963 28.4356 31.6703 28.2057 31.801 28.0992C34.0936 26.2301 35.6187 23.5719 35.9375 20.595C36.0362 19.674 36.0156 18.7065 35.88 17.7979C35.1401 12.8424 31.019 8.83394 25.7077 8.11457C25.1509 8.03915 24.5808 8 24 8ZM21.7554 4.15077C22.4898 4.0513 23.2392 4 24 4C24.7608 4 25.5102 4.0513 26.2446 4.15077C33.2177 5.09522 38.8187 10.393 39.8361 17.2072C40.0221 18.4526 40.0496 19.7617 39.9148 21.0209C39.4938 24.9517 37.5456 28.4264 34.6817 30.9029C34.4447 31.9472 34.1708 33.0287 33.9342 33.9281C33.9232 33.9698 33.911 34.0204 33.8969 34.0789C33.7666 34.6204 33.4761 35.8273 32.5212 36.7013C31.4085 37.7197 29.9762 37.7963 29.3344 37.8306C29.2728 37.8339 29.2185 37.8368 29.1725 37.8401C27.9525 37.9278 26.2616 38 24 38C21.8189 38 20.1686 37.9328 18.9597 37.8494C18.911 37.8461 18.851 37.8434 18.7811 37.8403C18.1287 37.8117 16.6194 37.7453 15.4788 36.7013C14.4927 35.7987 14.1946 34.5024 14.0671 33.948C14.0516 33.881 14.0387 33.8247 14.0273 33.7814C13.8509 33.1074 13.6571 32.3438 13.4748 31.5762C13.4215 31.352 13.3691 31.1268 13.3183 30.9029C13.136 30.7453 12.9575 30.5837 12.7828 30.4182C9.84328 27.6327 8 23.7401 8 19.4211C8 11.5738 14.0459 5.19495 21.7554 4.15077ZM34.7757 30.4813C34.7817 30.4539 34.7822 30.4577 34.7752 30.4836C34.7754 30.4828 34.7756 30.4821 34.7757 30.4813Z" fill="#646464"/>
<path fill-rule="evenodd" clip-rule="evenodd" d="M16.4946 39.5911C16.3517 38.6868 16.1807 37.5403 16.0167 36.2792L19.9833 35.7633C20.1417 36.9808 20.3071 38.0904 20.4456 38.9667C20.4982 39.2998 20.6143 39.5274 20.7121 39.6498C20.7586 39.7081 20.7943 39.7349 20.8104 39.7451C20.8185 39.7502 20.8231 39.752 20.8243 39.7525L20.8268 39.7533C20.8268 39.7533 20.8268 39.7533 20.8268 39.7533C21.5367 39.8808 22.5717 40 23.9632 40C25.2868 40 26.3608 39.8922 27.1609 39.7674M16.4946 39.5911C16.7696 41.3316 17.9214 43.2952 20.1194 43.6902C21.07 43.861 22.3419 44 23.9632 44C25.5048 44 26.785 43.8744 27.7773 43.7196C30.2726 43.3304 31.5508 41.0167 31.7358 38.9886L31.9917 36.1816L28.0083 35.8184L27.7523 38.6254C27.7136 39.0497 27.5739 39.3688 27.4309 39.5582C27.2953 39.7378 27.1942 39.7622 27.1609 39.7674" fill="#646464"/>
<path fill-rule="evenodd" clip-rule="evenodd" d="M24 37C25.1046 37 26 36.1046 26 35V23.0704L28.1094 21.6641C29.0285 21.0514 29.2768 19.8097 28.6641 18.8906C28.0514 17.9715 26.8097 17.7232 25.8906 18.3359L24 19.5963L22.1094 18.3359C21.1903 17.7232 19.9486 17.9715 19.3359 18.8906C18.7232 19.8097 18.9715 21.0514 19.8906 21.6641L22 23.0704V35C22 36.1046 22.8954 37 24 37Z" fill="#646464"/>
</svg>
