<svg width="48" height="48" viewBox="0 0 48 48" fill="none" xmlns="http://www.w3.org/2000/svg">
<path fill-rule="evenodd" clip-rule="evenodd" d="M44 14C44 15.1046 43.1046 16 42 16H6C4.89543 16 4 15.1046 4 14V12C4 10.8954 4.89543 10 6 10H42C43.1046 10 44 10.8954 44 12V14Z" fill="#646464"/>
<path fill-rule="evenodd" clip-rule="evenodd" d="M44 26C44 27.1046 43.1046 28 42 28H6C4.89543 28 4 27.1046 4 26V25C4 23.8954 4.89543 23 6 23H42C43.1046 23 44 23.8954 44 25V26Z" fill="#646464"/>
<path fill-rule="evenodd" clip-rule="evenodd" d="M44 36.5C44 37.3284 43.3284 38 42.5 38H5.5C4.67157 38 4 37.3284 4 36.5C4 35.6716 4.67157 35 5.5 35H42.5C43.3284 35 44 35.6716 44 36.5Z" fill="#646464"/>
</svg>
