<svg width="48" height="48" viewBox="0 0 48 48" fill="none" xmlns="http://www.w3.org/2000/svg">
<path d="M8.3425 39.6341C10.8025 42.1141 14.1225 43.4141 17.4625 43.4141L17.4825 43.3741C19.3625 43.3741 21.2825 42.9541 23.0625 42.0941C23.2825 41.9941 23.5024 41.8741 23.7224 41.7541C24.6824 41.2141 25.0225 39.9941 24.4825 39.0341C23.9425 38.0741 22.7225 37.7341 21.7625 38.2741C21.6925 38.3141 21.6175 38.3491 21.5425 38.3841C21.4675 38.4191 21.3925 38.4541 21.3225 38.4941C17.9225 40.1341 13.8425 39.4541 11.1625 36.7741C9.4825 35.0941 8.5625 32.8541 8.5625 30.4941C8.5625 28.1341 9.4825 25.8941 11.1625 24.2141L16.6625 18.7141C17.4425 17.9341 17.4425 16.6741 16.6625 15.8941C15.8825 15.1141 14.6225 15.1141 13.8425 15.8941L8.3425 21.3941C5.9025 23.8341 4.5625 27.0541 4.5625 30.5141C4.5625 33.9741 5.9025 37.1941 8.3425 39.6341Z" fill="#646464"/>
<path d="M17.4328 32.5141C17.436 32.5141 17.4393 32.5141 17.4425 32.5141H17.4225C17.4259 32.5141 17.4294 32.5141 17.4328 32.5141Z" fill="#646464"/>
<path d="M16.0225 31.9341C16.42 32.3117 16.9163 32.5116 17.4328 32.5141C17.9491 32.5117 18.4451 32.3315 18.8425 31.9341L32.0425 18.7341C32.8225 17.9541 32.8225 16.6941 32.0425 15.9141C31.2625 15.1341 30.0025 15.1341 29.2225 15.9141L16.0225 29.1141C15.2425 29.8941 15.2425 31.1541 16.0225 31.9341Z" fill="#646464"/>
<path d="M41.4025 19.9141H41.5225V19.9341C42.5825 19.9341 43.4625 19.0941 43.5225 18.0341C43.7225 14.3741 42.3425 10.7941 39.7625 8.2141C34.7425 3.1941 26.5625 3.1941 21.5425 8.2141L20.4425 9.3141C19.6625 10.0941 19.6625 11.3541 20.4425 12.1341C21.2225 12.9141 22.4825 12.9141 23.2625 12.1341L24.3625 11.0341C27.8425 7.5741 33.4825 7.5741 36.9425 11.0341C38.7225 12.8141 39.6625 15.2941 39.5225 17.8141C39.4625 18.9141 40.3025 19.8541 41.4025 19.9141Z" fill="#646464"/>
<path fill-rule="evenodd" clip-rule="evenodd" d="M31.5825 28.3741L31.4845 30.8247C29.6452 31.4047 28.3607 33.0331 28.2426 35.0741C28.2026 35.8541 28.1626 36.8741 28.1626 38.1941C28.1626 39.6541 28.2026 40.7541 28.2626 41.5541C28.4226 43.8541 30.0826 45.5541 32.4026 45.7541C33.6626 45.8541 35.2626 45.9141 37.1026 45.9141L37.1426 45.8941C38.9826 45.8941 40.5626 45.8341 41.8426 45.7341C44.1426 45.5341 45.8226 43.8541 45.9826 41.5341C46.0426 40.7141 46.0826 39.6341 46.0826 38.1741C46.0826 36.7141 46.0426 35.6141 45.9826 34.8141C45.8439 32.837 44.5471 31.281 42.7184 30.7721L42.6225 28.3741C42.5025 25.4141 40.0825 23.0941 37.1025 23.0941C34.1225 23.0941 31.7025 25.4141 31.5825 28.3741ZM38.6225 28.5341L38.6999 30.4698C38.1915 30.4595 37.6634 30.4541 37.1226 30.4541C36.5571 30.4541 36.0173 30.46 35.505 30.4712L35.5825 28.5341C35.6225 27.7141 36.2825 27.0741 37.1025 27.0741C37.9225 27.0741 38.5825 27.7141 38.6225 28.5341ZM32.2026 35.2941C32.1626 36.0141 32.1426 36.9541 32.1426 38.1941C32.1426 39.5341 32.1826 40.5341 32.2226 41.2741C32.2426 41.6141 32.3826 41.7541 32.7226 41.7741C33.8826 41.8741 35.3426 41.9341 37.0826 41.9341C38.8226 41.9341 40.2826 41.8741 41.4426 41.7741C41.7826 41.7541 41.9226 41.5941 41.9426 41.2741C42.0026 40.5341 42.0226 39.5341 42.0226 38.2141C42.0226 36.8941 41.9826 35.8741 41.9426 35.1341C41.9226 34.7941 41.7826 34.6541 41.4426 34.6341C40.3026 34.5341 38.8426 34.4741 37.0826 34.4741C35.3226 34.4741 33.9626 34.5141 32.8426 34.6141C32.4226 34.6541 32.2026 34.8541 32.1826 35.2941H32.2026Z" fill="#646464"/>
</svg>
