<svg width="48" height="48" viewBox="0 0 48 48" fill="none" xmlns="http://www.w3.org/2000/svg">
<path d="M15.4336 27.3066C16.0632 26.5125 17.2058 26.3095 18.0781 26.8672C19.0079 27.4623 19.2801 28.6986 18.6855 29.6289L12.3515 39.5351C11.3869 41.0436 9.34824 41.3584 7.97848 40.2851L7.71285 40.0508L3.59371 35.9726L3.45504 35.8223C2.81012 35.0401 2.84967 33.8806 3.57809 33.1445C4.30654 32.4085 5.46501 32.3575 6.25387 32.9941L6.40621 33.1309L9.64645 36.3379L15.3144 27.4746L15.4336 27.3066ZM43 32.5L43.205 32.5098C44.2133 32.6124 45 33.4646 45 34.5C45 35.5353 44.2133 36.3876 43.205 36.4902L43 36.5H26C24.8954 36.5 24 35.6046 24 34.5C24 33.3954 24.8954 32.5 26 32.5H43ZM15.4316 7.25976C16.0594 6.46384 17.2005 6.25652 18.0742 6.81249C18.9477 7.36858 19.2443 8.49067 18.789 9.39648L18.6875 9.57421L12.3574 19.5215C11.3272 21.1404 9.06223 21.3896 7.70504 20.0332L3.5859 15.9141L3.44918 15.7617C2.80848 14.9762 2.85367 13.8182 3.5859 13.0859C4.31813 12.3537 5.47613 12.3085 6.26168 12.9492L6.41403 13.0859L9.65035 16.3223L15.3125 7.42577L15.4316 7.25976ZM43 12.5L43.205 12.5098C44.2133 12.6124 45 13.4646 45 14.5C45 15.5353 44.2133 16.3876 43.205 16.4902L43 16.5H26C24.8954 16.5 24 15.6046 24 14.5C24 13.3954 24.8954 12.5 26 12.5H43Z" fill="#646464"/>
</svg>
