<svg width="48" height="48" viewBox="0 0 48 48" fill="none" xmlns="http://www.w3.org/2000/svg">
<path fill-rule="evenodd" clip-rule="evenodd" d="M29.5201 19.2399C30.2779 19.9977 31.2942 20.4175 32.3311 20.4199L32.3201 20.4199H32.3401L32.3311 20.4199C32.6074 20.4194 32.8838 20.3991 33.1601 20.3399L34.9601 19.9599C35.7201 19.7999 36.4201 19.4199 36.9601 18.8799L45.3001 10.5399C46.2401 9.59988 46.7601 8.33988 46.7601 6.99988C46.7601 5.65988 46.2401 4.39988 45.3001 3.45988C43.3401 1.51988 40.1601 1.51988 38.2201 3.45988L29.9001 11.7799C29.3601 12.3399 28.9801 13.0199 28.8201 13.7799L28.4401 15.5799C28.1601 16.9199 28.5601 18.2799 29.5201 19.2399ZM32.7201 14.6399L41.0601 6.29988V6.31988C41.4601 5.93988 42.0801 5.93988 42.4801 6.31988C42.7401 6.55988 42.7801 6.87988 42.7801 7.01988C42.7801 7.15988 42.7401 7.45988 42.4801 7.71988L34.1401 16.0599L32.3401 16.4399L32.7201 14.6399Z" fill="#646464"/>
<path d="M23.58 14.7402C22.72 14.7402 22.12 14.1002 22.08 13.2202C22.0586 12.8036 22.0373 11.9192 22.022 10.899C15.8921 11.7695 11.0279 16.6248 10.1438 22.7503C11.1774 22.7647 11.925 22.7925 12.48 22.8202C13.36 22.8602 13.98 23.4602 14 24.3202V25.1602C14 26.0202 13.36 26.6202 12.48 26.6602C11.9372 26.6881 11.1813 26.7159 10.1382 26.7303C11.0067 32.8701 15.8727 37.7417 22.0098 38.6188C22.0241 37.5736 22.052 36.8192 22.08 36.2602C22.12 35.3802 22.72 34.7602 23.58 34.7402H24.42C25.28 34.7402 25.88 35.3802 25.92 36.2602C25.948 36.8059 25.976 37.567 25.9903 38.6187C32.1312 37.7411 36.9995 32.8638 37.8635 26.7185C36.8399 26.7032 35.9494 26.6817 35.52 26.6602C34.64 26.6202 34.02 26.0202 34 25.1602V24.3202C34 23.4602 34.64 22.8602 35.52 22.8202C36.3 22.7802 38.72 22.7402 40.6 22.7402C42.48 22.7402 43.68 22.7802 44.48 22.8202C45.36 22.8602 45.98 23.4602 46 24.3202V25.1602C46 26.0202 45.36 26.6202 44.48 26.6602C43.8954 26.6902 43.0638 26.7202 41.8924 26.7333C40.9769 35.0786 34.3257 41.7321 25.9815 42.6513C25.9661 43.7683 25.943 44.7595 25.92 45.2202C25.88 46.1002 25.28 46.7202 24.42 46.7402H23.58C22.72 46.7402 22.12 46.1002 22.08 45.2202C22.0569 44.7702 22.0338 43.7744 22.0184 42.6513C13.6705 41.7317 7.01709 35.0725 6.10639 26.7219C4.98227 26.7065 3.98308 26.6834 3.52 26.6602C2.64 26.6202 2.02 26.0202 2 25.1602V24.3202C2 23.4602 2.64 22.8602 3.52 22.8202C3.9729 22.797 4.97872 22.7738 6.1107 22.7584C7.03749 14.4301 13.6773 7.79267 22.0067 6.86957C22.0197 5.69286 22.0499 4.86301 22.08 4.26023C22.12 3.38023 22.72 2.76023 23.58 2.74023H24.42C25.28 2.74023 25.88 3.38023 25.92 4.26023C25.96 5.04023 26 6.26023 26 8.14023C26 10.0202 25.96 12.4202 25.92 13.2202C25.88 14.1002 25.28 14.7202 24.42 14.7402H23.58Z" fill="#646464"/>
<path d="M24 28.7598C26.2091 28.7598 28 26.9689 28 24.7598C28 22.5506 26.2091 20.7598 24 20.7598C21.7909 20.7598 20 22.5506 20 24.7598C20 26.9689 21.7909 28.7598 24 28.7598Z" fill="#646464"/>
</svg>
