<svg width="48" height="48" viewBox="0 0 48 48" fill="none" xmlns="http://www.w3.org/2000/svg">
<path fill-rule="evenodd" clip-rule="evenodd" d="M15.14 21.8C15.14 26.56 19.04 30.44 23.8 30.44C28.58 30.44 32.46 26.58 32.46 21.8C32.46 17.02 28.58 13.14 23.8 13.14C19.02 13.14 15.14 17.04 15.14 21.8ZM19.14 21.8C19.14 19.22 21.24 17.14 23.8 17.14C26.38 17.14 28.46 19.24 28.46 21.8C28.46 24.36 26.38 26.44 23.8 26.44C21.22 26.44 19.14 24.38 19.14 21.8Z" fill="#646464"/>
<path fill-rule="evenodd" clip-rule="evenodd" d="M20.66 43.12C21.64 43.7 22.72 44 23.8 44C24.9 44 25.98 43.7 26.94 43.12C31.34 40.46 41.6 33.04 41.6 21.8C41.6 11.98 33.62 4 23.8 4C13.98 4 6 11.98 6 21.8C6 33.02 16.24 40.46 20.66 43.12ZM10 21.8C10 14.18 16.2 8 23.8 8C31.42 8 37.6 14.2 37.6 21.8C37.6 31 28.68 37.38 24.86 39.7C24.2 40.1 23.4 40.1 22.74 39.7C18.9 37.38 10 31 10 21.8Z" fill="#646464"/>
</svg>
