<svg width="48" height="48" viewBox="0 0 48 48" fill="none" xmlns="http://www.w3.org/2000/svg">
<path fill-rule="evenodd" clip-rule="evenodd" d="M13.2739 8.50957C19.9568 8.16348 28.0431 8.16348 34.7261 8.50957L34.8514 8.51605C36.2404 8.58785 37.485 8.65219 38.51 8.85309C39.6497 9.07649 40.7007 9.4981 41.6052 10.3954C42.5095 11.2925 42.9396 12.3396 43.1722 13.4773C43.3814 14.5002 43.4557 15.7437 43.5386 17.1312L43.5461 17.2565C43.818 21.7981 43.818 26.2018 43.5461 30.7434L43.5386 30.8686C43.4557 32.2561 43.3814 33.4997 43.1722 34.5227C42.9396 35.6604 42.5095 36.7075 41.6052 37.6046C40.7006 38.5019 39.6497 38.9235 38.51 39.1469C37.4849 39.3478 36.2403 39.4121 34.8513 39.4839L34.726 39.4904C28.0431 39.8364 19.9569 39.8364 13.274 39.4904L13.1487 39.4839C11.7597 39.4121 10.5151 39.3478 9.49005 39.1469C8.35033 38.9235 7.29938 38.5019 6.39487 37.6047C5.49051 36.7076 5.06039 35.6604 4.8278 34.5228C4.61865 33.4998 4.54433 32.2562 4.4614 30.8687C4.45891 30.8271 4.45641 30.7854 4.45391 30.7435C4.18203 26.2019 4.18203 21.7981 4.45391 17.2565C4.45642 17.2146 4.45892 17.1728 4.4614 17.1312C4.54433 15.7437 4.61865 14.5002 4.8278 13.4772C5.06039 12.3396 5.49051 11.2924 6.39486 10.3953C7.29936 9.4981 8.35029 9.07648 9.49 8.85309C10.515 8.65219 11.7596 8.58785 13.1485 8.51605C13.1902 8.5139 13.232 8.51174 13.2739 8.50957ZM34.5192 12.5042C27.9741 12.1653 20.0259 12.1653 13.4807 12.5042C11.9272 12.5847 10.9713 12.6389 10.2594 12.7784C9.6315 12.9015 9.39192 13.0565 9.21188 13.2351C9.03168 13.4139 8.87478 13.6522 8.74674 14.2784C8.60153 14.9887 8.53967 15.9435 8.44676 17.4955C8.18441 21.8779 8.18441 26.122 8.44676 30.5044C8.53967 32.0565 8.60152 33.0113 8.74673 33.7215C8.87478 34.3478 9.03168 34.5861 9.21188 34.7649C9.39192 34.9434 9.6315 35.0985 10.2594 35.2216C10.9713 35.3611 11.9273 35.4153 13.4808 35.4957C20.0259 35.8347 27.9741 35.8347 34.5192 35.4957C36.0727 35.4153 37.0287 35.3611 37.7406 35.2216C38.3685 35.0985 38.6081 34.9434 38.7882 34.7648C38.9683 34.5861 39.1252 34.3478 39.2533 33.7215C39.3985 33.0113 39.4604 32.0564 39.5533 30.5044C39.8156 26.122 39.8156 21.8779 39.5533 17.4955C39.4603 15.9435 39.3985 14.9887 39.2533 14.2785C39.1252 13.6522 38.9683 13.4139 38.7882 13.2351C38.6081 13.0565 38.3685 12.9015 37.7406 12.7784C37.0287 12.6389 36.0728 12.5847 34.5192 12.5042Z" fill="#646464"/>
<path d="M15 30H12V18H15L18 22L21 18H24V30H21V24L18 28L15 24V30Z" fill="#646464"/>
<path d="M27 24L32 30L37 24H34V18H30V24H27Z" fill="#646464"/>
</svg>
