<svg width="48" height="48" viewBox="0 0 48 48" fill="none" xmlns="http://www.w3.org/2000/svg">
<path fill-rule="evenodd" clip-rule="evenodd" d="M29.9351 38.8049C30.8551 39.4449 31.8951 39.7849 32.9151 39.7849L32.9351 39.7649C33.5551 39.7649 34.1551 39.6449 34.7151 39.4049C36.1151 38.8049 37.0351 37.5049 37.2751 35.8449C37.5297 34.0625 37.7169 32.0208 37.8393 29.7356C38.4548 29.558 39.1377 29.3816 39.7787 29.2161L39.9757 29.1651L40.2689 29.087C41.5794 28.738 42.2894 28.549 42.7557 28.3251C43.5357 27.9451 44.0957 27.2851 44.3357 26.4851C44.6157 25.5251 44.7557 24.1651 44.7557 22.4851C44.7557 20.8051 44.6157 19.4651 44.3357 18.5051C44.1157 17.7051 43.5557 17.0451 42.7557 16.6651C42.2557 16.4251 41.4557 16.2051 39.9757 15.8251C39.2679 15.6452 38.5096 15.4436 37.8348 15.2464C37.7098 12.94 37.5214 10.8808 37.2751 9.08487C37.0551 7.44487 36.1151 6.14487 34.7151 5.52487C33.2151 4.86487 31.4351 5.08487 29.9351 6.12487C23.0351 10.9049 13.1551 12.7449 9.21512 13.3249C7.23512 13.6049 5.73512 15.0249 5.39512 16.9249C5.13512 18.4449 4.99512 20.3249 4.99512 22.4649C4.99512 24.6049 5.13512 26.4849 5.39512 28.0049C5.71512 29.9049 7.23512 31.3249 9.21512 31.6049C10.0801 31.7284 11.2363 31.9153 12.5872 32.1829L10.2557 37.2251C9.69566 38.4851 9.67566 39.9451 10.2557 41.2051C10.7957 42.3851 11.8157 43.2851 13.0357 43.6451L16.7957 44.7451C17.1923 44.8641 17.589 44.9241 17.9857 44.9251C17.9824 44.9251 17.979 44.9251 17.9757 44.9251H17.9957C17.9923 44.9251 17.989 44.9251 17.9857 44.9251C18.7224 44.9233 19.4587 44.7234 20.1157 44.3451C21.1757 43.7051 21.9557 42.6451 22.2557 41.3651L23.4875 35.3817C25.7421 36.3091 27.9613 37.4375 29.9351 38.8049ZM16.3932 33.0505C17.5283 33.3443 18.7193 33.6855 19.9326 34.0801L18.5957 40.5451C18.5557 40.7851 18.4157 40.9651 18.2557 41.0651C18.0757 41.1651 17.8957 41.1051 17.8957 41.1051L14.1357 40.0051C13.9157 39.9451 13.7957 39.7451 13.7357 39.6251C13.6157 39.3651 13.6157 39.0651 13.7357 38.8051L16.3932 33.0505ZM33.5151 35.3049C33.7874 33.3398 33.9826 31.0175 34.0965 28.371C34.0944 28.3226 34.0942 28.2739 34.0957 28.2251C34.1557 26.5451 34.1957 24.6251 34.1957 22.4651C34.1957 20.3051 34.1557 18.3851 34.0957 16.7051C34.094 16.6489 34.0945 16.593 34.0974 16.5376C33.9835 13.8833 33.788 11.5546 33.5151 9.58487C33.4751 9.24487 33.3551 9.04487 33.1751 8.96487C33.1151 8.92487 33.0151 8.92487 32.9151 8.92487C32.6951 8.92487 32.3951 9.00487 32.0751 9.22487C27.2773 12.5504 21.2631 14.5628 16.4353 15.748V29.143C21.258 30.3283 27.2663 32.3405 32.0751 35.6649C32.5151 35.9849 32.9551 36.0249 33.1751 35.9249C33.3551 35.8449 33.4551 35.6449 33.5151 35.3049ZM38.4533 25.6003C38.2978 25.6397 38.1407 25.6795 37.9835 25.723C37.9872 25.5399 37.9905 25.3555 37.9936 25.17C38.0157 24.3095 38.0157 23.3976 38.0157 22.4451C38.0157 22.3383 38.0154 22.2319 38.0148 22.1261C38.0127 21.1072 38.0012 20.1204 37.9805 19.1665C38.3389 19.266 38.6972 19.3655 39.0357 19.4451C39.6357 19.6051 40.3757 19.8051 40.8157 19.9251C40.8957 20.3851 40.9957 21.1851 40.9957 22.4451C40.9957 23.7051 40.8957 24.5051 40.8157 24.9651C40.5383 25.0496 40.1589 25.1486 39.7743 25.249C39.5213 25.315 39.2658 25.3817 39.0357 25.4451C38.8466 25.5008 38.6513 25.5502 38.4533 25.6003ZM12.6553 16.5703C11.5038 16.7895 10.5107 16.9504 9.73512 17.0649C9.51512 17.1049 9.15512 17.2049 9.09512 17.5649C8.93512 18.4649 8.75512 20.0449 8.75512 22.4449C8.75512 24.8449 8.93512 26.4249 9.09512 27.3249C9.15512 27.7049 9.51512 27.8049 9.73512 27.8249C10.5111 27.9394 11.5041 28.1004 12.6553 28.3197V16.5703Z" fill="#646464"/>
</svg>
