<svg width="48" height="48" viewBox="0 0 48 48" fill="none" xmlns="http://www.w3.org/2000/svg">
<path d="M4 10C4 8.89543 4.89543 8 6 8C7.10457 8 8 8.89543 8 10V14C8 18.4183 11.5817 22 16 22H37.1716L30.5858 15.4142C29.8047 14.6332 29.8047 13.3668 30.5858 12.5858C31.3668 11.8047 32.6332 11.8047 33.4142 12.5858L43.4142 22.5858C44.1953 23.3668 44.1953 24.6332 43.4142 25.4142L33.4142 35.4142C32.6332 36.1953 31.3668 36.1953 30.5858 35.4142C29.8047 34.6332 29.8047 33.3668 30.5858 32.5858L37.1716 26H16C11.5817 26 8 29.5817 8 34V38C8 39.1046 7.10457 40 6 40C4.89543 40 4 39.1046 4 38V34C4 29.8261 6.13102 26.1498 9.36441 24C6.13102 21.8502 4 18.1739 4 14V10Z" fill="#646464"/>
</svg>
