<svg width="48" height="48" viewBox="0 0 48 48" fill="none" xmlns="http://www.w3.org/2000/svg">
<path fill-rule="evenodd" clip-rule="evenodd" d="M12.0352 13.7132C12.1854 6.90026 17.1804 2 24 2C30.8197 2 35.8147 6.90034 35.9649 13.7134C35.9875 14.7363 36 16.3373 36 18C36 19.6627 35.9875 21.2637 35.9649 22.2867C35.8147 29.0997 30.8197 34 24 34C17.1804 34 12.1854 29.0998 12.0352 22.2868M12.0352 13.7132C12.0126 14.7363 12 16.3374 12 18C12 19.6626 12.0126 21.2637 12.0352 22.2868M24 6C19.3601 6 16.1365 9.1577 16.0342 13.8015C16.0125 14.7814 16 16.3489 16 18C16 19.6511 16.0125 21.2184 16.0342 22.1984C16.1365 26.8421 19.3601 30 24 30C28.6399 30 31.8635 26.8423 31.9659 22.1985C31.9875 21.2185 32 19.6511 32 18C32 16.349 31.9875 14.7815 31.9659 13.8015C31.8635 9.1577 28.6398 6 24 6ZM7 20C8.10457 20 9 20.8954 9 22C9 29.0844 13.9132 35.0262 20.5204 36.5948C21.3256 36.786 21.93 37.4534 22.0405 38.2737C22.1643 39.1924 22.4094 40.7305 22.5609 41.6416C22.5834 41.7769 22.6408 41.8605 22.6897 41.9056C22.7336 41.946 22.788 41.9734 22.8688 41.9778L22.8864 41.9784L22.9728 41.981C23.0468 41.9831 23.1503 41.986 23.268 41.9888C23.5078 41.9947 23.7895 42 23.9997 42C24.2086 42 24.4885 41.9946 24.7268 41.9888C24.8437 41.9859 24.9465 41.9831 25.02 41.9809L25.1059 41.9784L25.1234 41.9778C25.2042 41.9734 25.2586 41.946 25.3024 41.9056C25.3514 41.8605 25.4088 41.7769 25.4313 41.6416C25.5827 40.7312 25.8276 39.1945 25.9515 38.2755C26.0621 37.4549 26.6668 36.7873 27.4725 36.5965C34.0833 35.0305 39 29.087 39 22C39 20.8954 39.8954 20 41 20C42.1046 20 43 20.8954 43 22C43 30.5004 37.4196 37.693 29.7244 40.1219C29.6051 40.9022 29.4717 41.7288 29.3771 42.2977C29.0468 44.2845 27.432 45.8866 25.2816 45.9747L25.264 45.9755L25.2289 45.9765L25.1363 45.9792C25.0581 45.9815 24.9488 45.9846 24.8244 45.9876C24.58 45.9936 24.26 46 24.0003 46C23.7388 46 23.4167 45.9936 23.1708 45.9876C23.0455 45.9846 22.9356 45.9816 22.8568 45.9793L22.7636 45.9765L22.731 45.9755L22.7285 45.9754L22.7106 45.9748C20.5602 45.8867 18.9454 44.2845 18.615 42.2977C18.5203 41.7282 18.3868 40.9004 18.2674 40.1193C10.5764 37.6879 5 30.4973 5 22C5 20.8954 5.89543 20 7 20Z" fill="#646464"/>
</svg>
