<svg width="48" height="48" viewBox="0 0 48 48" fill="none" xmlns="http://www.w3.org/2000/svg">
<path fill-rule="evenodd" clip-rule="evenodd" d="M22.6802 20.4867C23.1251 20.4956 23.6237 20.5 24.18 20.5V20.52C24.904 20.52 25.5301 20.5125 26.0676 20.4974L30.6671 27.5536C28.453 27.7417 26.7926 29.349 26.56 31.52C26.46 32.44 26.42 33.52 26.42 34.74C26.42 35.96 26.46 37.04 26.56 37.96C26.8 40.2 28.56 41.84 30.88 41.94C31.58 41.98 32.5 42 33.68 42C34.86 42 35.78 41.98 36.48 41.94C38.8 41.84 40.56 40.2 40.8 37.96C40.9 37.04 40.94 35.96 40.94 34.74C40.94 33.52 40.9 32.44 40.8 31.52C40.56 29.28 38.78 27.66 36.48 27.54C36.1635 27.5219 35.802 27.5079 35.3918 27.498L29.9882 19.2081C30.7099 18.5113 31.1837 17.5662 31.3 16.48C31.4 15.54 31.44 14.46 31.44 13.26C31.44 12.06 31.4 10.98 31.3 10.04C31.06 7.8 29.28 6.16 26.98 6.06C26.28 6.02 25.36 6 24.18 6C23 6 22.08 6.02 21.38 6.06C19.06 6.16 17.3 7.8 17.06 10.02C16.96 10.94 16.92 12.02 16.92 13.24C16.92 14.46 16.96 15.54 17.06 16.46C17.1909 17.6815 17.7738 18.7246 18.653 19.4368L14.0429 27.0084C13.4225 27.0178 12.8982 27.035 12.46 27.06C10.14 27.16 8.38 28.8 8.14 31.04C8.04 31.96 8 33.04 8 34.26C8 35.48 8.04 36.56 8.14 37.48C8.38 39.72 10.14 41.36 12.46 41.46C13.16 41.5 14.08 41.52 15.26 41.52C16.44 41.52 17.36 41.5 18.06 41.46C20.38 41.36 22.14 39.72 22.38 37.48C22.48 36.54 22.52 35.48 22.52 34.26C22.52 33.04 22.48 31.96 22.38 31.04C22.1605 28.9915 20.6698 27.4448 18.6421 27.1188L22.6802 20.4867ZM21.58 10.06C22.22 10.02 23.08 10 24.18 10V9.98C25.28 9.98 26.12 10 26.78 10.04C27.26 10.08 27.3 10.32 27.3 10.44C27.38 11.24 27.42 12.2 27.42 13.26C27.42 14.32 27.38 15.26 27.3 16.06C27.3 16.18 27.26 16.44 26.78 16.46C26.14 16.5 25.28 16.52 24.18 16.52C23.08 16.52 22.24 16.5 21.58 16.46C21.1 16.44 21.06 16.18 21.06 16.06C20.98 15.28 20.94 14.32 20.94 13.26C20.94 12.2 20.98 11.24 21.06 10.46C21.06 10.34 21.1 10.08 21.58 10.06ZM33.68 31.5C32.58 31.5 31.72 31.5 31.08 31.56C30.6 31.58 30.56 31.84 30.56 31.96C30.48 32.74 30.44 33.7 30.44 34.76C30.44 35.82 30.48 36.78 30.56 37.56C30.56 37.68 30.6 37.94 31.08 37.96C31.74 38 32.58 38.02 33.68 38.02C34.78 38.02 35.64 38 36.3 37.96C36.7595 37.9408 36.7975 37.7018 36.8174 37.5761L36.82 37.56C36.9 36.78 36.94 35.84 36.94 34.76C36.94 33.68 36.9 32.74 36.82 31.96C36.82 31.84 36.78 31.58 36.3 31.56C35.64 31.52 34.8 31.5 33.7 31.5H33.68ZM12.1226 31.4439C12.1425 31.3182 12.1805 31.0791 12.64 31.06C13.3 31.02 14.16 31 15.26 31C16.36 31 17.2 31.02 17.86 31.06C18.34 31.08 18.38 31.34 18.38 31.46C18.46 32.24 18.5 33.2 18.5 34.26C18.5 35.32 18.46 36.28 18.38 37.06C18.3791 37.0651 18.3783 37.0705 18.3774 37.0761C18.3575 37.2018 18.3195 37.4409 17.86 37.46C17.2 37.5 16.34 37.52 15.24 37.52C14.14 37.52 13.3 37.5 12.64 37.46C12.16 37.44 12.12 37.18 12.12 37.06C12.04 36.28 12 35.34 12 34.26C12 33.18 12.04 32.24 12.12 31.46C12.1209 31.4549 12.1217 31.4495 12.1226 31.4439Z" fill="#646464"/>
</svg>
