<svg width="48" height="48" viewBox="0 0 48 48" fill="none" xmlns="http://www.w3.org/2000/svg">
<path d="M13.8005 6H34.2005C38.4755 6 42.0005 9.525 42.0005 13.8V34.2C42.0005 38.475 38.4755 42 34.2005 42H13.8005C9.52549 42 6.00049 38.475 6.00049 34.2V13.8C6.00049 9.525 9.52549 6 13.8005 6Z" fill="#FFD02F"/>
<path fill-rule="evenodd" clip-rule="evenodd" d="M30.9755 10.5H27.0005L30.3005 16.275L23.1005 10.5H19.1255L22.7255 17.55L15.2255 10.5H11.2505L15.2255 19.5L11.2505 37.5H15.2255L22.8005 18.225L19.1255 37.5H23.1005L30.3755 16.95L27.0755 37.5H31.0505L38.2505 15L30.9755 10.5Z" fill="#050038"/>
</svg>
