<svg width="48" height="48" viewBox="0 0 48 48" fill="none" xmlns="http://www.w3.org/2000/svg">
<path d="M29.1163 23.1L13.3023 20.4V40.3503C13.3023 41.2614 14.0657 42 15.0074 42H42.2949C43.2366 42 44 41.2614 44 40.3503V33L29.1163 23.1Z" fill="#185C37"/>
<path d="M29.1163 6H15.0074C14.0657 6 13.3023 6.73859 13.3023 7.6497V15L29.1163 24L37.4884 26.7L44 24V15L29.1163 6Z" fill="#21A366"/>
<path d="M13.3023 15H29.1163V24H13.3023V15Z" fill="#107C41"/>
<path opacity="0.1" d="M24.6205 13.2H13.3023V35.7H24.6205C25.5609 35.6971 26.3225 34.9602 26.3256 34.0503V14.8497C26.3225 13.9398 25.5609 13.203 24.6205 13.2Z" fill="black"/>
<path opacity="0.2" d="M23.6902 14.1H13.3023V36.6H23.6902C24.6307 36.597 25.3923 35.8601 25.3954 34.9503V15.7497C25.3923 14.8398 24.6307 14.1029 23.6902 14.1Z" fill="black"/>
<path opacity="0.2" d="M23.6902 14.1H13.3023V34.8H23.6902C24.6307 34.797 25.3923 34.0602 25.3954 33.1503V15.7497C25.3923 14.8398 24.6307 14.1029 23.6902 14.1Z" fill="black"/>
<path opacity="0.2" d="M22.76 14.1H13.3023V34.8H22.76C23.7004 34.797 24.4621 34.0602 24.4651 33.1503V15.7497C24.4621 14.8398 23.7004 14.1029 22.76 14.1Z" fill="black"/>
<path d="M5.70511 14.1H22.76C23.7017 14.1 24.4651 14.8386 24.4651 15.7497V32.2503C24.4651 33.1614 23.7017 33.9 22.76 33.9H5.70511C4.7634 33.9 4 33.1614 4 32.2503V15.7497C4 14.8386 4.7634 14.1 5.70511 14.1Z" fill="url(#paint0_linear_3_18259)"/>
<path d="M9.28091 29.3622L12.8679 23.9847L9.58138 18.6369H12.2251L14.0186 22.0569C14.1842 22.3818 14.2977 22.623 14.3591 22.7823H14.3823C14.5001 22.5231 14.6242 22.2714 14.7544 22.0272L16.6716 18.6387H19.0986L15.7283 23.955L19.1842 29.3622H16.6019L14.5302 25.6083C14.4326 25.4486 14.3498 25.2808 14.2828 25.107H14.2521C14.1914 25.2773 14.1109 25.4403 14.0121 25.593L11.8791 29.3622H9.28091Z" fill="white"/>
<path d="M42.2949 6H29.1163V15H44V7.6497C44 6.73859 43.2366 6 42.2949 6Z" fill="#33C481"/>
<path d="M29.1163 24H44V33H29.1163V24Z" fill="#107C41"/>
<defs>
<linearGradient id="paint0_linear_3_18259" x1="7.5552" y1="12.8109" x2="20.2591" y2="35.5526" gradientUnits="userSpaceOnUse">
<stop stop-color="#18884F"/>
<stop offset="0.5" stop-color="#117E43"/>
<stop offset="1" stop-color="#0B6631"/>
</linearGradient>
</defs>
</svg>
