<svg width="48" height="48" viewBox="0 0 48 48" fill="none" xmlns="http://www.w3.org/2000/svg">
<path d="M40.7146 6H19.0711C18.6023 6 18.1527 6.18622 17.8212 6.5177C17.4898 6.84918 17.3035 7.29876 17.3035 7.76754V9.77679L29.5025 13.5536L42.4821 9.77679V7.76754C42.4821 7.29876 42.2959 6.84918 41.9644 6.5177C41.6329 6.18622 41.1833 6 40.7146 6Z" fill="#0364B8"/>
<path d="M44.5593 25.3938C44.7437 24.8142 44.8909 24.2234 44.9999 23.625C44.9998 23.478 44.9609 23.3336 44.8874 23.2063C44.8138 23.079 44.708 22.9733 44.5807 22.8998L44.5643 22.8898L44.5593 22.8873L30.915 15.1146C30.8562 15.0764 30.7952 15.0415 30.7325 15.0101C30.4715 14.8806 30.1841 14.8132 29.8928 14.8132C29.6014 14.8132 29.314 14.8806 29.0531 15.0101C28.9904 15.0411 28.9294 15.0756 28.8705 15.1134L15.2263 22.8885L15.2212 22.891L15.2061 22.8998C15.0786 22.9732 14.9726 23.0788 14.8988 23.2061C14.825 23.3334 14.7859 23.4778 14.7856 23.625C14.8947 24.2234 15.0419 24.8142 15.2263 25.3938L29.6939 35.9751L44.5593 25.3938Z" fill="#0A2767"/>
<path d="M34.9287 9.77679H26.1162L23.5719 13.5536L26.1162 17.3304L34.9287 24.8839H42.4823V17.3304L34.9287 9.77679Z" fill="#28A8EA"/>
<path d="M17.3035 9.77679H26.116V17.3304H17.3035V9.77679Z" fill="#0078D4"/>
<path d="M34.9285 9.77679H42.4821V17.3304H34.9285V9.77679Z" fill="#50D9FF"/>
<path d="M34.9285 24.884L26.116 17.3304H17.3035V24.884L26.116 32.4375L39.7527 34.6633L34.9285 24.884Z" fill="#0364B8"/>
<path d="M26.116 17.3304H34.9285V24.884H26.116V17.3304Z" fill="#0078D4"/>
<path d="M17.3035 24.8839H26.116V32.4375H17.3035V24.8839Z" fill="#064A8C"/>
<path d="M34.9285 24.8839H42.4821V32.4375H34.9285V24.8839Z" fill="#0078D4"/>
<path opacity="0.5" d="M30.1319 35.2298L15.2854 24.403L15.9086 23.3077C15.9086 23.3077 29.4358 31.0124 29.6422 31.1282C29.7267 31.162 29.8172 31.1781 29.9082 31.1755C29.9991 31.1729 30.0886 31.1517 30.171 31.1131L43.9348 23.27L44.5593 24.364L30.1319 35.2298Z" fill="#0A2767"/>
<path d="M44.5808 24.3514L44.5632 24.3615L44.5594 24.364L30.9151 32.1366C30.6441 32.3113 30.3329 32.4136 30.0111 32.4337C29.6892 32.4538 29.3677 32.3909 29.0771 32.2512L33.8283 38.6226L44.2195 40.8849V40.8899C44.4612 40.7151 44.658 40.4854 44.7937 40.2197C44.9294 39.954 45.0001 39.6599 45 39.3616V23.625C45.0001 23.7722 44.9613 23.9169 44.8878 24.0444C44.8142 24.1719 44.7083 24.2778 44.5808 24.3514Z" fill="#1490DF"/>
<path opacity="0.05" d="M45 39.3616V38.4325L32.4321 31.2717L30.9151 32.1366C30.6441 32.3113 30.3329 32.4136 30.0111 32.4337C29.6892 32.4537 29.3677 32.3909 29.0771 32.2512L33.8283 38.6226L44.2195 40.8849V40.8899C44.4612 40.7151 44.658 40.4854 44.7937 40.2197C44.9294 39.954 45.0001 39.6599 45 39.3616Z" fill="black"/>
<path opacity="0.1" d="M44.9371 39.8438L31.1606 31.9969L30.9151 32.1354C30.6443 32.3103 30.333 32.4128 30.0112 32.4331C29.6894 32.4534 29.3678 32.3907 29.0771 32.2512L33.8283 38.6226L44.2195 40.8849V40.89C44.5718 40.6347 44.8253 40.2656 44.9371 39.845V39.8438Z" fill="black"/>
<path d="M15.2263 24.3678V24.3552H15.2137L15.1759 24.33C15.0556 24.2561 14.9564 24.1524 14.888 24.0289C14.8196 23.9053 14.7844 23.7662 14.7857 23.625V39.3616C14.7853 39.6097 14.834 39.8554 14.9287 40.0847C15.0235 40.3139 15.1626 40.5222 15.338 40.6976C15.5135 40.8731 15.7218 41.0121 15.951 41.1069C16.1803 41.2017 16.426 41.2503 16.6741 41.25H43.1116C43.2689 41.2485 43.4253 41.2273 43.5774 41.1871C43.6563 41.1733 43.7326 41.1479 43.804 41.1115C43.8307 41.1089 43.8566 41.1003 43.8795 41.0863C43.9826 41.0442 44.0798 40.9892 44.1691 40.9227C44.1943 40.9101 44.2068 40.9101 44.2194 40.8849L15.2263 24.3678Z" fill="#28A8EA"/>
<path opacity="0.1" d="M27.3749 34.5361V13.9728C27.3736 13.5281 27.1964 13.102 26.8819 12.7876C26.5675 12.4732 26.1414 12.2959 25.6968 12.2946H17.3413V21.6812L15.2263 22.8872L15.22 22.8898L15.2049 22.8986C15.0774 22.9722 14.9715 23.0781 14.8979 23.2056C14.8243 23.3331 14.7856 23.4777 14.7856 23.625V36.2143H25.6968C26.1414 36.2129 26.5675 36.0357 26.8819 35.7213C27.1964 35.4068 27.3736 34.9808 27.3749 34.5361Z" fill="black"/>
<path opacity="0.2" d="M26.116 35.7951V15.2317C26.1147 14.7871 25.9374 14.361 25.623 14.0466C25.3086 13.7321 24.8825 13.5549 24.4378 13.5536H17.3413V21.6812L15.2263 22.8873L15.22 22.8898L15.2049 22.8986C15.0774 22.9722 14.9715 23.0781 14.8979 23.2056C14.8243 23.3331 14.7856 23.4778 14.7856 23.625V37.4732H24.4378C24.8825 37.4719 25.3086 37.2947 25.623 36.9802C25.9374 36.6658 26.1147 36.2397 26.116 35.7951Z" fill="black"/>
<path opacity="0.2" d="M26.116 33.2772V15.2317C26.1147 14.7871 25.9374 14.361 25.623 14.0466C25.3086 13.7321 24.8825 13.5549 24.4378 13.5536H17.3413V21.6812L15.2263 22.8873L15.22 22.8898L15.2049 22.8986C15.0774 22.9722 14.9715 23.0781 14.8979 23.2056C14.8243 23.3331 14.7856 23.4778 14.7856 23.625V34.9554H24.4378C24.8825 34.954 25.3086 34.7768 25.623 34.4624C25.9374 34.148 26.1147 33.7219 26.116 33.2772Z" fill="black"/>
<path opacity="0.2" d="M24.8571 33.2772V15.2317C24.8557 14.7871 24.6785 14.361 24.3641 14.0466C24.0497 13.7321 23.6236 13.5549 23.1789 13.5536H17.3413V21.6812L15.2263 22.8873L15.22 22.8898L15.2049 22.8986C15.0774 22.9722 14.9715 23.0781 14.8979 23.2056C14.8243 23.3331 14.7856 23.4778 14.7856 23.625V34.9554H23.1789C23.6236 34.954 24.0497 34.7768 24.3641 34.4624C24.6785 34.148 24.8557 33.7219 24.8571 33.2772Z" fill="black"/>
<path d="M6.39245 13.5536H23.179C23.6241 13.5536 24.0509 13.7304 24.3656 14.0451C24.6803 14.3598 24.8572 14.7867 24.8572 15.2317V32.0183C24.8572 32.4634 24.6803 32.8902 24.3656 33.2049C24.0509 33.5196 23.6241 33.6964 23.179 33.6964H6.39245C5.94737 33.6964 5.52053 33.5196 5.20581 33.2049C4.8911 32.8902 4.71429 32.4634 4.71429 32.0183V15.2317C4.71429 14.7867 4.8911 14.3598 5.20581 14.0451C5.52053 13.7304 5.94737 13.5536 6.39245 13.5536Z" fill="#0078D4"/>
<path d="M9.58251 20.4374C10.0284 19.4871 10.7483 18.6918 11.6497 18.1537C12.6483 17.5821 13.7853 17.2971 14.9355 17.3304C16.0005 17.3073 17.0513 17.5773 17.9733 18.1109C18.8411 18.6278 19.54 19.3858 19.985 20.2926C20.4698 21.2922 20.7114 22.3922 20.69 23.5029C20.7133 24.663 20.4646 25.8125 19.9636 26.8592C19.509 27.7983 18.789 28.5835 17.8927 29.1177C16.9346 29.6684 15.8438 29.9457 14.7391 29.9197C13.6507 29.9456 12.5761 29.6726 11.632 29.1303C10.7573 28.6125 10.0501 27.8538 9.5951 26.9448C9.107 25.96 8.86221 24.8725 8.88129 23.7736C8.86018 22.6228 9.09991 21.4823 9.58251 20.4374ZM11.7856 25.7979C12.0232 26.3987 12.4261 26.9199 12.9476 27.3011C13.4791 27.6731 14.1158 27.865 14.7643 27.8487C15.4551 27.8756 16.136 27.6772 16.7043 27.2835C17.22 26.9024 17.6126 26.3785 17.8335 25.7765C18.0812 25.1058 18.2032 24.3953 18.1936 23.6804C18.2013 22.9587 18.0863 22.241 17.8537 21.5578C17.6484 20.9433 17.2698 20.4011 16.7634 19.9968C16.2101 19.5832 15.5312 19.3729 14.8411 19.4013C14.1784 19.3846 13.5275 19.578 12.9816 19.954C12.4498 20.3358 12.0376 20.8611 11.7932 21.4685C11.2524 22.8608 11.2493 24.4046 11.7844 25.7992L11.7856 25.7979Z" fill="white"/>
</svg>
