<svg width="48" height="48" viewBox="0 0 48 48" fill="none" xmlns="http://www.w3.org/2000/svg">
<path d="M13.4141 12C14.7199 7.38299 18.9649 4 24 4C29.0403 4 33.2888 7.38995 34.59 12.0143C34.3945 12.0048 34.1978 12 34 12C30.7811 12 27.8583 13.2674 25.7032 15.3303C25.6379 15.13 25.5566 14.9294 25.455 14.7301C24.9757 13.7892 24.2108 13.0243 23.27 12.545C22.6202 12.2139 21.9572 12.0985 21.3333 12.0475C20.7506 11.9999 20.0504 12 19.2722 12L13.4141 12Z" fill="#8D8D8D"/>
<path d="M26 26C30.7827 26 34.7813 29.3577 35.767 33.8444C40.4471 33.0099 44 28.9199 44 24C44 18.4772 39.5228 14 34 14C30.7278 14 27.8228 15.5716 25.9984 18.0011C26 18.2344 26 18.4771 26 18.7278V26Z" fill="#8D8D8D"/>
<path d="M18 36C18 40.4183 21.5817 44 26 44C30.4183 44 34 40.4183 34 36C34 31.5817 30.4183 28 26 28V29.2721C26.0001 30.0503 26.0001 30.7506 25.9525 31.3333C25.9015 31.9572 25.7861 32.6202 25.455 33.27C24.9757 34.2108 24.2108 34.9757 23.27 35.455C22.6202 35.7861 21.9572 35.9015 21.3333 35.9525C20.7506 36.0001 20.0504 36.0001 19.2722 36H18Z" fill="#8D8D8D"/>
<path fill-rule="evenodd" clip-rule="evenodd" d="M4.32698 15.638C4 16.2798 4 17.1198 4 18.8V29.2C4 30.8802 4 31.7202 4.32698 32.362C4.6146 32.9265 5.07354 33.3854 5.63803 33.673C6.27976 34 7.11984 34 8.8 34H19.2C20.8802 34 21.7202 34 22.362 33.673C22.9265 33.3854 23.3854 32.9265 23.673 32.362C24 31.7202 24 30.8802 24 29.2V18.8C24 17.1198 24 16.2798 23.673 15.638C23.3854 15.0735 22.9265 14.6146 22.362 14.327C21.7202 14 20.8802 14 19.2 14H8.8C7.11984 14 6.27977 14 5.63803 14.327C5.07354 14.6146 4.6146 15.0735 4.32698 15.638ZM10.3341 22.7457C10.5717 23.1637 10.8989 23.5203 11.2905 23.7882C11.7988 24.1325 12.3391 24.4238 12.9034 24.6577C13.6127 24.9655 14.1497 25.2133 14.5144 25.4013C14.8305 25.5552 15.1192 25.7627 15.3687 26.0152C15.468 26.1168 15.5465 26.2378 15.5998 26.3711C15.653 26.5045 15.6798 26.6475 15.6787 26.7917C15.6831 26.9972 15.6334 27.2 15.5348 27.3787C15.4362 27.5573 15.2925 27.705 15.1188 27.806C14.6139 28.078 14.0463 28.2022 13.4777 28.1651C12.8634 28.1553 12.2536 28.0546 11.667 27.8662C11.0785 27.6974 10.5231 27.4238 10.0259 27.0577V29.3373C10.546 29.5701 11.092 29.7355 11.6515 29.8299C12.3142 29.9457 12.9853 30.0023 13.6573 29.9991C14.4064 30.011 15.1525 29.8993 15.8674 29.6683C16.4751 29.4743 17.0142 29.1003 17.4173 28.5928C17.8218 28.0408 18.0269 27.3606 17.9972 26.6695C18.0187 26.1125 17.8926 25.56 17.6325 25.0714C17.3788 24.6403 17.0294 24.2775 16.6132 24.0129C16.0635 23.6703 15.4864 23.3769 14.8882 23.1358C14.8252 23.1038 14.76 23.0768 14.6931 23.055C14.0852 22.7961 13.6294 22.5887 13.3255 22.4326C13.0524 22.3011 12.8051 22.1188 12.5961 21.8949C12.4191 21.705 12.321 21.4514 12.3226 21.188C12.323 20.9755 12.3836 20.7679 12.497 20.5905C12.6104 20.4131 12.7716 20.2738 12.9608 20.1896C13.4616 19.9377 14.0149 19.817 14.5718 19.8381C15.0999 19.837 15.6262 19.902 16.1391 20.0317C16.6117 20.146 17.064 20.3364 17.4793 20.5958V18.4336C16.5236 18.1128 15.5206 17.9681 14.5162 18.0059C13.7524 17.9974 12.9925 18.1188 12.267 18.365C11.6304 18.5722 11.0609 18.9552 10.6204 19.4724C10.2011 19.9889 9.9808 20.6464 10.0013 21.3196C9.98909 21.8168 10.1039 22.3086 10.3341 22.7457Z" fill="#8D8D8D"/>
</svg>
