<svg width="48" height="48" viewBox="0 0 48 48" fill="none" xmlns="http://www.w3.org/2000/svg">
<path d="M24 26C30.0751 26 35 21.0751 35 15C35 8.92487 30.0751 4 24 4C17.9249 4 13 8.92487 13 15C13 21.0751 17.9249 26 24 26Z" fill="#036C70"/>
<path d="M33 35C39.0751 35 44 30.0751 44 24C44 17.9249 39.0751 13 33 13C26.9249 13 22 17.9249 22 24C22 30.0751 26.9249 35 33 35Z" fill="#1A9BA1"/>
<path d="M26 44C30.4183 44 34 40.4183 34 36C34 31.5817 30.4183 28 26 28C21.5817 28 18 31.5817 18 36C18 40.4183 21.5817 44 26 44Z" fill="#37C6D0"/>
<path opacity="0.1" fill-rule="evenodd" clip-rule="evenodd" d="M19.2 14H13.0449C13.0753 13.662 13.1211 13.3285 13.1814 13H23C24.6569 13 26 14.3431 26 16L26 33C26 34.6569 24.6569 36 23 36H18C18 35.3094 18.0875 34.6392 18.2521 34H19.2C20.8802 34 21.7203 34 22.362 33.673C22.9265 33.3854 23.3854 32.9265 23.673 32.362C24 31.7202 24 30.8802 24 29.2V28.252V18.8C24 17.1198 24 16.2798 23.673 15.638C23.3854 15.0735 22.9265 14.6146 22.362 14.327C21.7203 14 20.8802 14 19.2 14Z" fill="black"/>
<path opacity="0.2" d="M25 17C25 15.3431 23.6569 14 22 14H19.2C20.8802 14 21.7202 14 22.362 14.327C22.9265 14.6146 23.3854 15.0735 23.673 15.638C24 16.2798 24 17.1198 24 18.8V29.2C24 30.8802 24 31.7202 23.673 32.362C23.3854 32.9265 22.9265 33.3854 22.362 33.673C21.7202 34 20.8802 34 19.2 34H18.252C18.0875 34.6392 18 35.3094 18 36C18 36.3449 18.0218 36.6848 18.0642 37.0182L22.0079 37.0078C23.6616 37.0035 25 35.6616 25 34.0079V17Z" fill="black"/>
<path opacity="0.2" d="M25 17C25 15.3431 23.6569 14 22 14H19.2C20.8802 14 21.7203 14 22.362 14.327C22.9265 14.6146 23.3854 15.0735 23.673 15.638C24 16.2798 24 17.1198 24 18.8V29.2C24 30.8802 24 31.7202 23.673 32.362C23.3854 32.9265 22.9265 33.3854 22.362 33.673C21.7203 34 20.8802 34 19.2 34H18.252C18.1682 34.3258 18.1043 34.6596 18.0619 35H22C23.6569 35 25 33.6569 25 32L25 17Z" fill="black"/>
<path opacity="0.2" d="M18.0619 35H21C22.6569 35 24 33.6568 24 32V28.252C20.863 29.0594 18.4707 31.7217 18.0619 35Z" fill="black"/>
<path d="M4 18.8C4 17.1198 4 16.2798 4.32698 15.638C4.6146 15.0735 5.07354 14.6146 5.63803 14.327C6.27976 14 7.11984 14 8.8 14H19.2C20.8802 14 21.7202 14 22.362 14.327C22.9265 14.6146 23.3854 15.0735 23.673 15.638C24 16.2798 24 17.1198 24 18.8V29.2C24 30.8802 24 31.7202 23.673 32.362C23.3854 32.9265 22.9265 33.3854 22.362 33.673C21.7202 34 20.8802 34 19.2 34H8.8C7.11984 34 6.27976 34 5.63803 33.673C5.07354 33.3854 4.6146 32.9265 4.32698 32.362C4 31.7202 4 30.8802 4 29.2V18.8Z" fill="url(#paint0_linear_3_18308)"/>
<path d="M11.2905 23.7882C10.8989 23.5203 10.5717 23.1637 10.3341 22.7457C10.1039 22.3086 9.98909 21.8168 10.0013 21.3196C9.9808 20.6464 10.2011 19.9889 10.6204 19.4724C11.0609 18.9552 11.6304 18.5722 12.267 18.365C12.9925 18.1188 13.7524 17.9974 14.5162 18.0059C15.5206 17.9681 16.5236 18.1128 17.4793 18.4336V20.5958C17.064 20.3364 16.6117 20.146 16.1391 20.0317C15.6262 19.902 15.0999 19.837 14.5718 19.8381C14.0149 19.817 13.4616 19.9377 12.9608 20.1896C12.7716 20.2738 12.6104 20.4131 12.497 20.5905C12.3836 20.7679 12.323 20.9755 12.3226 21.188C12.321 21.4514 12.4191 21.705 12.5961 21.8949C12.8051 22.1188 13.0524 22.3011 13.3255 22.4326C13.6294 22.5887 14.0852 22.7961 14.6931 23.055C14.76 23.0768 14.8252 23.1038 14.8882 23.1358C15.4864 23.3769 16.0635 23.6703 16.6132 24.0129C17.0294 24.2775 17.3788 24.6403 17.6325 25.0714C17.8926 25.56 18.0187 26.1125 17.9972 26.6695C18.0269 27.3606 17.8218 28.0408 17.4173 28.5928C17.0142 29.1003 16.4751 29.4743 15.8674 29.6683C15.1525 29.8993 14.4064 30.011 13.6573 29.9991C12.9853 30.0023 12.3142 29.9457 11.6515 29.8299C11.092 29.7355 10.546 29.5701 10.0259 29.3373V27.0577C10.5231 27.4238 11.0785 27.6974 11.667 27.8662C12.2536 28.0546 12.8634 28.1553 13.4777 28.1651C14.0463 28.2022 14.6139 28.078 15.1189 27.806C15.2925 27.705 15.4362 27.5573 15.5348 27.3787C15.6334 27.2 15.6831 26.9972 15.6787 26.7917C15.6798 26.6475 15.653 26.5045 15.5998 26.3711C15.5465 26.2378 15.468 26.1168 15.3687 26.0152C15.1192 25.7627 14.8305 25.5552 14.5144 25.4013C14.1497 25.2133 13.6127 24.9655 12.9034 24.6577C12.3391 24.4238 11.7988 24.1325 11.2905 23.7882Z" fill="white"/>
<defs>
<linearGradient id="paint0_linear_3_18308" x1="7.47441" y1="12.698" x2="20.5256" y2="35.3021" gradientUnits="userSpaceOnUse">
<stop stop-color="#058F92"/>
<stop offset="0.5" stop-color="#038489"/>
<stop offset="1" stop-color="#026D71"/>
</linearGradient>
</defs>
</svg>
