<svg width="48" height="48" viewBox="0 0 48 48" fill="none" xmlns="http://www.w3.org/2000/svg">
<path d="M42.2949 5.40002H15.0074C14.0657 5.40002 13.3023 6.16343 13.3023 7.10515V14.7023L29.1163 19.3535L44 14.7023V7.10515C44 6.16343 43.2366 5.40002 42.2949 5.40002Z" fill="#41A5EE"/>
<path d="M44 14.7023H13.3023V24.0047L29.1163 26.7954L44 24.0047V14.7023Z" fill="#2B7CD3"/>
<path d="M13.3023 24.0047V33.307L28.186 35.1675L44 33.307V24.0047H13.3023Z" fill="#185ABD"/>
<path d="M15.0074 42.6093H42.2949C43.2366 42.6093 44 41.8459 44 40.9042V33.307H13.3023V40.9042C13.3023 41.8459 14.0657 42.6093 15.0074 42.6093Z" fill="#103F91"/>
<path opacity="0.1" d="M24.6205 12.8419H13.3023V36.0977H24.6205C25.5609 36.0946 26.3225 35.333 26.3256 34.3925V14.547C26.3225 13.6065 25.5609 12.8449 24.6205 12.8419Z" fill="black"/>
<path opacity="0.2" d="M23.6902 13.7721H13.3023V37.0279H23.6902C24.6307 37.0248 25.3923 36.2632 25.3953 35.3228V15.4772C25.3923 14.5368 24.6307 13.7752 23.6902 13.7721Z" fill="black"/>
<path opacity="0.2" d="M23.6902 13.7721H13.3023V35.1674H23.6902C24.6307 35.1644 25.3923 34.4028 25.3953 33.4623V15.4772C25.3923 14.5368 24.6307 13.7752 23.6902 13.7721Z" fill="black"/>
<path opacity="0.2" d="M22.76 13.7721H13.3023V35.1674H22.76C23.7004 35.1644 24.4621 34.4028 24.4651 33.4623V15.4772C24.4621 14.5368 23.7004 13.7752 22.76 13.7721Z" fill="black"/>
<path d="M5.70512 13.7721H22.76C23.7017 13.7721 24.4651 14.5355 24.4651 15.4772V32.5321C24.4651 33.4738 23.7017 34.2372 22.76 34.2372H5.70512C4.76341 34.2372 4 33.4738 4 32.5321V15.4772C4 14.5355 4.76341 13.7721 5.70512 13.7721Z" fill="url(#paint0_linear_3_18247)"/>
<path d="M10.9972 26.8493C11.0307 27.1126 11.053 27.3414 11.0633 27.5377H11.1023C11.1172 27.3516 11.1482 27.1274 11.1953 26.8651C11.2425 26.6028 11.285 26.3811 11.3228 26.2L13.1163 18.4623H15.4354L17.2958 26.0837C17.4039 26.5576 17.4813 27.038 17.5275 27.5219H17.5582C17.5928 27.0531 17.6575 26.587 17.7516 26.1265L19.2354 18.4586H21.3461L18.7395 29.547H16.2735L14.5061 22.2037C14.4549 21.9926 14.3963 21.7163 14.3321 21.3767C14.2679 21.0372 14.2279 20.7888 14.2121 20.6326H14.1814C14.161 20.813 14.1209 21.0809 14.0614 21.4363C14.0019 21.7916 13.9541 22.0546 13.9181 22.2251L12.2567 29.5451H9.74882L7.12837 18.4623H9.2772L10.893 26.2158C10.9293 26.3749 10.9637 26.587 10.9972 26.8493Z" fill="white"/>
<defs>
<linearGradient id="paint0_linear_3_18247" x1="7.5552" y1="12.4398" x2="20.9099" y2="35.5696" gradientUnits="userSpaceOnUse">
<stop stop-color="#2368C4"/>
<stop offset="0.5" stop-color="#1A5DBE"/>
<stop offset="1" stop-color="#1146AC"/>
</linearGradient>
</defs>
</svg>
