<svg width="48" height="48" viewBox="0 0 48 48" fill="none" xmlns="http://www.w3.org/2000/svg">
<path d="M20.5801 27.42C20.9801 27.8 21.4801 28 22.0001 28L21.9401 27.94C22.4601 27.94 22.9601 27.76 23.3601 27.36L37.9001 12.8V15.94C37.9001 17.06 38.8001 17.96 39.9001 17.96C41.0001 17.96 41.9001 17.08 41.9001 15.98L41.9401 7.98002C41.9401 7.70002 41.9001 7.46002 41.8001 7.22002C41.7001 7.00002 41.5601 6.78002 41.3801 6.60002L41.3401 6.56002C41.1601 6.38002 40.9401 6.26002 40.7201 6.16002C40.6801 6.14002 40.6001 6.12002 40.6001 6.12002C40.4201 6.06002 40.2401 6.02002 40.0401 6.02002H31.9801C30.8801 6.02002 29.9801 6.92002 29.9801 8.02002C29.9801 9.12002 30.8801 10.02 31.9801 10.02H35.1601L20.5801 24.6C19.8001 25.38 19.8001 26.64 20.5801 27.42Z" fill="#646464"/>
<path d="M12.02 41.68C14.88 41.9 18.24 42 22 42V41.98C25.76 41.98 29.1 41.86 31.96 41.66C35.06 41.44 37.46 39.02 37.68 35.94C37.9 33.1 38 29.74 38 25.98C38 24.88 37.1 23.98 36 23.98C34.9 23.98 34 24.88 34 25.98C34 29.64 33.9 32.9 33.7 35.66C33.62 36.76 32.78 37.6 31.68 37.68C28.92 37.88 25.66 37.98 22 37.98C18.34 37.98 15.08 37.88 12.32 37.68C11.2 37.6 10.38 36.76 10.3 35.66C10.1 32.9 9.99998 29.64 9.99998 25.98C9.99998 22.32 10.1 19.06 10.3 16.3C10.38 15.2 11.22 14.36 12.32 14.28C15.08 14.08 18.34 13.98 22 13.98C23.1 13.98 24 13.08 24 11.98C24 10.88 23.1 9.97998 22 9.97998C18.24 9.97998 14.88 10.1 12.02 10.3C8.91998 10.52 6.51998 12.94 6.29998 16.02C6.07998 18.9 5.97998 22.26 5.97998 26C5.97998 29.74 6.09998 33.1 6.29998 35.96C6.51998 39.06 8.93998 41.46 12.02 41.68Z" fill="#646464"/>
</svg>
