<svg width="48" height="48" viewBox="0 0 48 48" fill="none" xmlns="http://www.w3.org/2000/svg">
<path d="M14 21.5801L7.03664 28.5432C6.59039 28.9894 6.28451 29.5538 6.21176 30.1807C6.04078 31.654 5.82381 34.891 6.23834 40.2814C6.29908 41.0711 6.92883 41.7009 7.71855 41.7617C13.1094 42.1762 16.3465 41.9592 17.8199 41.7882C18.4467 41.7155 19.0111 41.4096 19.4573 40.9634L26 34.421M21.5079 14.0725L22.5805 13L27.9443 7.63635C29.5346 6.04618 31.8485 5.42536 33.7446 6.63466C34.9204 7.38457 36.3534 8.479 37.9379 10.0634C39.5223 11.6477 40.6167 13.0806 41.3667 14.2563C42.5762 16.1524 41.9553 18.4665 40.365 20.0568L35 25.4215L33.7107 26.7107" stroke="#646464" stroke-width="2" stroke-linecap="round" stroke-linejoin="round"/>
<path d="M37.5804 22.8421C36.708 21.2645 35.0672 18.8184 32.1217 15.8729C29.1785 12.9297 26.7362 11.2914 25.1606 10.4207L27.9441 7.63733C29.5344 6.04716 31.8483 5.42633 33.7444 6.63564C34.9202 7.38555 36.3532 8.47997 37.9377 10.0644C40.0592 12.1858 41.0997 14.2382 41.6097 15.7665C42.1412 17.3589 41.437 18.9856 40.2498 20.1726L37.5804 22.8421Z" stroke="#646464" stroke-width="2" stroke-linejoin="round"/>
<path d="M7.41421 4.58579C6.63317 3.80474 5.36683 3.80474 4.58579 4.58579C3.80474 5.36683 3.80474 6.63317 4.58579 7.41421L7.41421 4.58579ZM40.5858 43.4142C41.3668 44.1953 42.6332 44.1953 43.4142 43.4142C44.1953 42.6332 44.1953 41.3668 43.4142 40.5858L40.5858 43.4142ZM37.6639 37.6639L36.2497 39.0781L40.5858 43.4142L42 42L43.4142 40.5858L39.0781 36.2497L37.6639 37.6639ZM6 6L4.58579 7.41421L8.922 11.7504L10.3362 10.3362L11.7504 8.922L7.41421 4.58579L6 6ZM10.3362 10.3362L8.922 11.7504L36.2497 39.0781L37.6639 37.6639L39.0781 36.2497L11.7504 8.922L10.3362 10.3362Z" fill="#646464"/>
<path d="M12.7385 20.0302C13.524 19.3895 14.682 19.4347 15.4143 20.1669C16.195 20.948 16.1952 22.2141 15.4143 22.995L8.45138 29.9579C8.31932 30.0901 8.25037 30.2153 8.21895 30.3173L8.19942 30.413C8.04812 31.7177 7.83834 34.721 8.20919 39.7899C13.2815 40.1611 16.2857 39.953 17.59 39.8016L17.6838 39.7821C17.7859 39.7507 17.9108 39.6819 18.0432 39.5497L24.5861 33.0067C25.3673 32.2262 26.6334 32.2278 27.4143 33.0087C28.1946 33.7898 28.1951 35.056 27.4143 35.8368L20.8713 42.3778C20.245 43.0039 19.427 43.5045 18.469 43.7079L18.051 43.7763C16.6385 43.9401 13.8837 44.1271 9.5295 43.8876L7.56466 43.7567C5.90308 43.6286 4.55989 42.38 4.28536 40.7645L4.24434 40.4364C3.82113 34.9331 4.03752 31.5645 4.22481 29.9501L4.29317 29.5321C4.49663 28.5741 4.9973 27.7559 5.62325 27.1298L12.5861 20.1669L12.7385 20.0302ZM4.58614 4.5868C5.31837 3.85457 6.47637 3.80938 7.26192 4.45009L7.41427 4.5868L43.4143 40.5868L43.551 40.7391C44.1914 41.5247 44.1464 42.6828 43.4143 43.4149C42.6821 44.1466 41.5238 44.192 40.7385 43.5516L40.5861 43.4149L4.58614 7.41493L4.44942 7.26259C3.80887 6.47722 3.8544 5.31906 4.58614 4.5868ZM30.6115 4.07509C31.9862 3.8533 33.4478 4.07462 34.8205 4.95009L35.3186 5.27626C35.9944 5.73374 36.728 6.28375 37.5061 6.94423C37.7367 7.14001 37.971 7.34579 38.2092 7.56141C38.5816 7.89861 38.9632 8.26076 39.3518 8.6493L39.9611 9.27626C41.3286 10.7191 42.3278 12.0456 43.0529 13.1825L43.219 13.4579C44.7439 16.1327 43.8755 19.0975 42.1486 21.077L41.7795 21.4716L35.1252 28.1259C34.3443 28.9061 33.078 28.9061 32.2971 28.1259C31.5162 27.345 31.5166 26.0788 32.2971 25.2977L35.0588 22.5341C34.1666 21.1674 32.7891 19.3678 30.7072 17.286C28.627 15.2059 26.8313 13.8306 25.467 12.9403L22.9221 15.4872C22.1411 16.2675 20.8748 16.2677 20.094 15.4872C19.3133 14.7063 19.3135 13.4401 20.094 12.6591L26.5295 6.22352L26.924 5.85438C27.1056 5.69593 27.2971 5.54603 27.4943 5.40321C28.1312 4.94183 28.8436 4.56725 29.5998 4.32118C29.9298 4.21389 30.2679 4.13046 30.6115 4.07509ZM32.6682 8.32118C31.8582 7.80548 30.6705 7.88604 29.5764 8.84657L29.3596 9.05165L28.3498 10.0595C29.8203 11.0819 31.5802 12.5028 33.5354 14.4579C35.4931 16.4157 36.9156 18.1805 37.9397 19.6532L38.8361 18.7587L39.135 18.4266C39.6729 17.7687 39.8439 17.1382 39.7697 16.6376L39.7131 16.3993C39.3468 15.3019 38.6244 13.8022 37.1857 12.1806L36.5236 11.4794C35.4116 10.3675 34.3905 9.52411 33.5061 8.88954L32.6682 8.32118Z" fill="#646464"/>
</svg>
