<svg width="48" height="48" viewBox="0 0 48 48" fill="none" xmlns="http://www.w3.org/2000/svg">
<path fill-rule="evenodd" clip-rule="evenodd" d="M29 22C27.9 22 27 21.1 27 20C27 18.9 27.9 18 29 18H29.36L30.04 14.6C30.14 14.12 30.4 13.68 30.8 13.4L32.66 12L30.8 10.6C30.4 10.3 30.14 9.88 30.04 9.4L29.36 6H29C27.9 6 27 5.1 27 4C27 2.9 27.9 2 29 2H43C44.1 2 45 2.9 45 4C45 5.1 44.1 6 43 6H42.64L41.96 9.4C41.86 9.88 41.6 10.32 41.2 10.6L39.34 12L41.2 13.4C41.6 13.7 41.86 14.12 41.96 14.6L42.64 18H43C44.1 18 45 18.9 45 20C45 21.1 44.1 22 43 22H29ZM33.44 18H38.56L38.18 16.14L36 14.5L33.82 16.14L33.44 18ZM33.82 7.86L36 9.5L38.18 7.86L38.56 6H33.44L33.82 7.86Z" fill="#646464"/>
<path d="M24 44.0001C12.98 44.0001 4 35.0201 4 24.0001C4 13.7201 11.7 5.18005 21.9 4.10005C23 3.98005 23.98 4.78005 24.1 5.88005C24.22 6.98005 23.42 7.96005 22.32 8.08005C14.16 8.94005 8 15.7801 8 24.0001C8 32.8201 15.18 40.0001 24 40.0001C32.12 40.0001 38.94 33.9401 39.9 25.8801C40.02 24.7801 41.04 24.0001 42.12 24.1201C43.22 24.2401 44 25.2401 43.88 26.3401C42.7 36.4001 34.16 44.0001 24.02 44.0001H24Z" fill="#646464"/>
<path d="M14 24C14 29.52 18.48 34 24 34V34.02C27.96 34.02 31.56 31.68 33.16 28.06C33.6 27.04 33.16 25.86 32.14 25.42C31.12 24.98 29.94 25.44 29.5 26.44C28.54 28.62 26.38 30.02 24 30.02C20.7 30.02 18 27.32 18 24.02C18 21.24 19.88 18.84 22.58 18.18C23.66 17.92 24.32 16.84 24.06 15.76C23.8 14.68 22.72 14.02 21.64 14.28C17.14 15.38 14 19.38 14 24Z" fill="#646464"/>
</svg>
