<svg width="48" height="48" viewBox="0 0 48 48" fill="none" xmlns="http://www.w3.org/2000/svg">
<path fill-rule="evenodd" clip-rule="evenodd" d="M15.9747 13.498C13.6033 13.4258 12.107 11.5415 12.0394 9.17008C12.0166 8.3731 12.0011 7.46844 12.0001 6.4735C9.05656 6.84025 6.76585 9.1513 6.50749 12.1696C5.84147 19.9524 5.82121 29.8896 6.48777 37.6784C6.75577 40.8094 9.21078 43.1794 12.3127 43.4075C21.3904 44.0743 26.5273 44.2316 35.6631 43.5602C38.7649 43.3321 41.2202 40.9622 41.4881 37.8311C42.1542 30.0483 42.1744 20.1111 41.5078 12.3224C41.2533 9.34722 39.024 7.05935 36.1415 6.64316C36.139 7.57137 36.124 8.41865 36.1025 9.17008C36.0347 11.5415 34.5384 13.4258 32.1671 13.498C31.8505 13.5076 31.5094 13.5129 31.1418 13.5129C30.7743 13.5129 30.4331 13.5076 30.1166 13.498C27.7452 13.4258 26.2489 11.5415 26.1812 9.17008C26.1576 8.34557 26.1418 7.40581 26.1418 6.37008L26.1424 6.02897C25.1259 6.00803 24.5585 5.99866 23.9913 6.00016C23.4543 6.00158 22.9174 6.01276 21.9994 6.0331C21.9998 6.14426 22 6.2566 22 6.37008C22 7.40567 21.9842 8.34557 21.9606 9.17008C21.8929 11.5415 20.3965 13.4258 18.0253 13.498C17.7087 13.5076 17.3676 13.5129 17 13.5129C16.6325 13.5129 16.2913 13.5076 15.9747 13.498ZM15.9998 18C14.8952 18 13.9998 18.8954 13.9998 20C13.9998 21.1046 14.8952 22 15.9998 22H31.9998C33.1043 22 33.9998 21.1046 33.9998 20C33.9998 18.8954 33.1043 18 31.9998 18H15.9998ZM15.9998 25C14.8952 25 13.9998 25.8954 13.9998 27C13.9998 28.1046 14.8952 29 15.9998 29H31.9998C33.1043 29 33.9998 28.1046 33.9998 27C33.9998 25.8954 33.1043 25 31.9998 25H15.9998ZM13.9998 34C13.9998 32.8954 14.8952 32 15.9998 32H23.9998C25.1043 32 25.9998 32.8954 25.9998 34C25.9998 35.1046 25.1043 36 23.9998 36H15.9998C14.8952 36 13.9998 35.1046 13.9998 34Z" fill="#FFBA18"/>
<path d="M28.1627 8.82701C28.2024 10.2168 29.0793 11.321 30.469 11.3633C30.6545 11.369 30.8545 11.3721 31.0699 11.3721C31.2853 11.3721 31.4852 11.369 31.6707 11.3633C33.0604 11.321 33.9373 10.2168 33.977 8.82701C33.9908 8.34381 34.0001 7.79299 34.0001 7.18609C34.0001 6.57919 33.9908 6.02829 33.977 5.54509C33.9373 4.15535 33.0604 3.051 31.6707 3.00876C31.4852 3.00311 31.2853 3 31.0699 3C30.8545 3 30.6545 3.00311 30.469 3.00876C29.0793 3.051 28.2024 4.15535 28.1627 5.54509C28.1489 6.02829 28.1396 6.57911 28.1396 7.18609C28.1396 7.79307 28.1489 8.34381 28.1627 8.82701Z" fill="#FFBA18"/>
<path d="M14.0228 8.82701C14.0625 10.2168 14.9395 11.321 16.3291 11.3633C16.5146 11.369 16.7146 11.3721 16.93 11.3721C17.1454 11.3721 17.3453 11.369 17.5309 11.3633C18.9205 11.321 19.7975 10.2168 19.8371 8.82701C19.8509 8.34381 19.8603 7.79299 19.8603 7.18609C19.8603 6.57919 19.8509 6.02829 19.8371 5.54509C19.7975 4.15535 18.9205 3.051 17.5309 3.00876C17.3453 3.00311 17.1454 3 16.93 3C16.7146 3 16.5146 3.00311 16.3291 3.00876C14.9395 3.051 14.0625 4.15535 14.0228 5.54509C14.009 6.02829 13.9998 6.57911 13.9998 7.18609C13.9998 7.79307 14.009 8.34381 14.0228 8.82701Z" fill="#FFBA18"/>
<path d="M31.9998 18C33.1043 18 33.9998 18.8954 33.9998 20C33.9998 21.1046 33.1043 22 31.9998 22H15.9998C14.8952 22 13.9998 21.1046 13.9998 20C13.9998 18.8954 14.8952 18 15.9998 18H31.9998Z" fill="white"/>
<path d="M31.9998 25C33.1043 25 33.9998 25.8954 33.9998 27C33.9998 28.1046 33.1043 29 31.9998 29H15.9998C14.8952 29 13.9998 28.1046 13.9998 27C13.9998 25.8954 14.8952 25 15.9998 25H31.9998Z" fill="white"/>
<path d="M23.9998 32C25.1043 32 25.9998 32.8954 25.9998 34C25.9998 35.1046 25.1043 36 23.9998 36H15.9998C14.8952 36 13.9998 35.1046 13.9998 34C13.9998 32.8954 14.8952 32 15.9998 32H23.9998Z" fill="white"/>
</svg>
