<svg width="48" height="48" viewBox="0 0 48 48" fill="none" xmlns="http://www.w3.org/2000/svg">
<path d="M37.0449 23.1816C40.0034 23.1816 42.4354 25.5148 42.5586 28.4706L42.6602 30.8749C44.4792 31.3887 45.7564 32.9315 45.8984 34.916C45.9576 35.7446 46 36.8383 46 38.2734C46 39.7081 45.9576 40.8004 45.8984 41.6288C45.734 43.9282 44.0452 45.6339 41.7559 45.8339C40.6859 45.9272 39.1718 45.9999 37.0449 45.9999C34.9184 45.9999 33.4058 45.9272 32.3359 45.8339C30.0461 45.6342 28.3558 43.9285 28.1914 41.6288C28.1323 40.8004 28.0918 39.7081 28.0918 38.2734C28.0918 36.9644 28.1205 35.9428 28.1641 35.1503C28.2769 33.1039 29.5534 31.4664 31.4297 30.8964L31.5312 28.4706C31.6544 25.515 34.0867 23.1818 37.0449 23.1816ZM17.5918 2.0097C20.0908 2.08572 21.5633 4.00132 21.8027 6.04095C22.8443 6.01781 23.4195 6.00146 23.9941 5.99994C24.5709 5.99842 25.1479 6.00755 26.1973 6.02924C26.4409 3.99385 27.9139 2.0856 30.4082 2.0097H31.7324C34.4129 2.09175 35.9137 4.29062 35.9766 6.48822C35.9779 6.53384 35.9753 6.58014 35.9766 6.62689C38.9393 6.97748 41.2503 9.29013 41.5098 12.3222C41.6616 14.0965 41.7785 15.9782 41.8594 17.916C41.9054 19.0196 41.047 19.9519 39.9434 19.998C38.8401 20.0438 37.9076 19.1872 37.8613 18.0839C37.7826 16.1962 37.6716 14.3726 37.5254 12.664C37.4422 11.6915 36.8035 10.9274 35.8887 10.6699C35.5334 12.5777 34.0917 14.291 31.7324 14.3632C31.5257 14.3695 31.3048 14.373 31.0703 14.373C30.8357 14.373 30.615 14.3695 30.4082 14.3632C27.7863 14.2834 26.2951 12.1779 26.1719 10.0292C25.1313 10.0075 24.5705 9.99853 24.0098 9.99994C23.4448 10.0014 22.8797 10.0174 21.8242 10.041C21.6961 12.1854 20.2089 14.2835 17.5918 14.3632C17.385 14.3695 17.1643 14.373 16.9297 14.373C16.6953 14.373 16.4743 14.3695 16.2676 14.3632C13.8505 14.2892 12.397 12.4928 12.0879 10.5292C11.1962 10.7983 10.5761 11.5544 10.4941 12.5117C9.84711 20.0734 9.82802 29.7823 10.4746 37.3378C10.5724 38.4778 11.4327 39.3311 12.6074 39.4179C16.2546 39.6858 19.2231 39.868 22.0566 39.9472C23.1601 39.9785 24.0304 40.8984 24 42.0019C23.9691 43.106 23.0475 43.9761 21.9434 43.9453C19.0194 43.8635 15.9814 43.6775 12.3145 43.4081C9.21271 43.1799 6.75823 40.8086 6.49023 37.6777C5.82375 29.8891 5.84379 19.9523 6.50977 12.1699C6.76872 9.14454 9.07008 6.83504 12.0234 6.4765C12.091 4.28231 13.5931 2.09112 16.2695 2.0097H17.5918ZM37.0449 34.5449C35.1094 34.5449 33.7475 34.6079 32.8105 34.6835C32.5453 34.705 32.4087 34.7977 32.3379 34.871C32.2656 34.9461 32.1735 35.0938 32.1582 35.371C32.1193 36.0778 32.0918 37.0242 32.0918 38.2734C32.0918 39.6324 32.1305 40.6276 32.1816 41.3437C32.1974 41.5645 32.2704 41.6663 32.3145 41.7109C32.359 41.7559 32.4614 41.8302 32.6836 41.8495C33.6116 41.9304 35.0047 41.9999 37.0449 41.9999C39.0856 41.9999 40.4801 41.9304 41.4082 41.8495C41.6308 41.83 41.7331 41.7558 41.7773 41.7109C41.8213 41.6663 41.8924 41.5644 41.9082 41.3437C41.9593 40.6276 42 39.6324 42 38.2734C42 36.9139 41.9593 35.9174 41.9082 35.2011C41.8924 34.9819 41.8214 34.8809 41.7773 34.8359C41.7331 34.791 41.6308 34.7148 41.4082 34.6953C40.4801 34.6144 39.0856 34.5449 37.0449 34.5449ZM22 31.9999C23.1045 31.9999 24 32.8954 24 33.9999C24 35.1045 23.1046 35.9999 22 35.9999H16C14.8954 35.9999 14 35.1045 14 33.9999C14 32.8954 14.8955 31.9999 16 31.9999H22ZM37.0449 27.1816C36.2312 27.1818 35.5614 27.8236 35.5273 28.6367L35.4473 30.5605C35.9373 30.5509 36.4692 30.5449 37.0449 30.5449C37.6213 30.5449 38.153 30.5509 38.6426 30.5605L38.5625 28.6367C38.5284 27.8234 37.8588 27.1816 37.0449 27.1816ZM26 24.9999C27.1045 24.9999 28 25.8954 28 26.9999C28 28.1045 27.1046 28.9999 26 28.9999H16C14.8954 28.9999 14 28.1045 14 26.9999C14 25.8954 14.8955 24.9999 16 24.9999H26ZM30 17.9999C31.1045 17.9999 32 18.8954 32 19.9999C32 21.1045 31.1046 21.9999 30 21.9999H16C14.8954 21.9999 14 21.1045 14 19.9999C14 18.8954 14.8955 17.9999 16 17.9999H30ZM16.3906 6.00775C16.3054 6.01034 16.2596 6.02791 16.2402 6.03705C16.2205 6.04649 16.1996 6.06068 16.1758 6.08783C16.1254 6.14542 16.0301 6.30385 16.0215 6.6015C16.0082 7.06665 16 7.59899 16 8.18549C16 8.77208 16.0082 9.30424 16.0215 9.76947C16.0226 9.8102 16.0253 9.84909 16.0293 9.8847C16.0548 10.1089 16.1323 10.2332 16.1758 10.2831C16.1998 10.3106 16.2203 10.3264 16.2402 10.3359C16.2596 10.345 16.3054 10.3626 16.3906 10.3652C16.5546 10.3702 16.7339 10.373 16.9297 10.373C17.1255 10.373 17.3204 10.3702 17.4844 10.3652C17.5696 10.3626 17.6154 10.345 17.6348 10.3359C17.6548 10.3264 17.6751 10.3108 17.6992 10.2831C17.7427 10.2333 17.8202 10.1093 17.8457 9.8847C17.8497 9.84909 17.8524 9.8102 17.8535 9.76947C17.8668 9.30423 17.875 8.77209 17.875 8.18549C17.875 7.59899 17.8668 7.06665 17.8535 6.6015C17.8449 6.30386 17.7496 6.14542 17.6992 6.08783C17.6754 6.06066 17.6546 6.04646 17.6348 6.03705C17.6154 6.02791 17.5696 6.01034 17.4844 6.00775C17.3204 6.00277 17.1255 5.99994 16.9297 5.99994C16.7339 5.99994 16.5546 6.00276 16.3906 6.00775ZM30.5293 6.00775C30.4445 6.0104 30.4002 6.02794 30.3809 6.03705C30.3608 6.04652 30.3386 6.06016 30.3145 6.08783C30.2641 6.14561 30.1707 6.30428 30.1621 6.6015C30.1488 7.06665 30.1406 7.59899 30.1406 8.18549C30.1406 8.7721 30.1488 9.30423 30.1621 9.76947C30.1633 9.8102 30.1659 9.84909 30.1699 9.8847C30.1953 10.1081 30.2709 10.2329 30.3145 10.2831C30.3387 10.3109 30.3607 10.3264 30.3809 10.3359C30.4003 10.345 30.4446 10.3625 30.5293 10.3652C30.6935 10.3702 30.8741 10.373 31.0703 10.373C31.2663 10.373 31.4609 10.3702 31.625 10.3652C31.7094 10.3626 31.7538 10.3451 31.7734 10.3359C31.7935 10.3264 31.8156 10.3109 31.8398 10.2831C31.8834 10.233 31.9589 10.1085 31.9844 9.8847C31.9884 9.84909 31.991 9.8102 31.9922 9.76947C32.0055 9.30423 32.0156 8.7721 32.0156 8.18549C32.0156 7.59899 32.0055 7.06665 31.9922 6.6015C31.9836 6.30388 31.8902 6.14541 31.8398 6.08783C31.8156 6.06009 31.7935 6.04652 31.7734 6.03705C31.7539 6.02789 31.7098 6.01034 31.625 6.00775C31.4609 6.00276 31.2663 5.99994 31.0703 5.99994C30.8741 5.99994 30.6935 6.00275 30.5293 6.00775Z" fill="#646464"/>
</svg>
