<svg width="48" height="48" viewBox="0 0 48 48" fill="none" xmlns="http://www.w3.org/2000/svg">
<path d="M11.4305 11.013C12.6747 12.0237 13.1414 11.9466 15.4776 11.7907L37.5024 10.4682C37.9694 10.4682 37.5809 10.0022 37.4254 9.92476L33.7673 7.28044C33.0666 6.73632 32.1327 6.11315 30.3431 6.26904L9.0165 7.82453C8.23875 7.90165 8.08338 8.29051 8.39315 8.60225L11.4305 11.013ZM12.7528 16.1458V39.3197C12.7528 40.5651 13.3752 41.0312 14.776 40.9541L38.9812 39.5535C40.3827 39.4765 40.5389 38.6196 40.5389 37.6081V14.5896C40.5389 13.5795 40.1504 13.0348 39.2923 13.1125L13.9976 14.5896C13.0642 14.6681 12.7528 15.135 12.7528 16.1458ZM36.6482 17.3889C36.8035 18.0895 36.6482 18.7895 35.9463 18.8682L34.7801 19.1006V36.2089C33.7673 36.7532 32.8337 37.0643 32.0556 37.0643C30.8098 37.0643 30.4978 36.6753 29.5647 35.5094L21.9361 23.5334V35.1206L24.35 35.6652C24.35 35.6652 24.35 37.0643 22.4025 37.0643L17.0334 37.3758C16.8774 37.0644 17.0334 36.2875 17.578 36.1316L18.9791 35.7435V20.4231L17.0337 20.2672C16.8777 19.5666 17.2663 18.5565 18.3567 18.478L24.1165 18.0898L32.0556 30.2217V19.4894L30.0314 19.2571C29.8761 18.4006 30.4978 17.7787 31.2762 17.7016L36.6482 17.3889ZM7.22587 5.72492L29.409 4.09134C32.1332 3.8577 32.834 4.01421 34.5463 5.25796L41.6272 10.2349C42.7957 11.0907 43.1851 11.3238 43.1851 12.2567V39.5535C43.1851 41.264 42.562 42.2759 40.383 42.4306L14.6219 43.9864C12.9864 44.0643 12.2079 43.8312 11.3514 42.7417L6.13674 35.9761C5.20234 34.7307 4.81378 33.7989 4.81378 32.7088V8.44577C4.81378 7.04678 5.43713 5.87985 7.22587 5.72492Z" fill="white"/>
</svg>
