<svg width="48" height="48" viewBox="0 0 48 48" fill="none" xmlns="http://www.w3.org/2000/svg">
<path fill-rule="evenodd" clip-rule="evenodd" d="M12 6C13.1046 6 14 6.89543 14 8L14 20C14 21.1046 13.1046 22 12 22C10.8955 22 10 21.1046 10 20L10 12.9C9.67693 12.9656 9.34251 13 9.00005 13H8.00005C6.89548 13 6.00005 12.1046 6.00005 11C6.00005 9.89542 6.89548 8.99999 8.00005 8.99999H9.00005C9.55233 8.99999 10 8.55228 10 8C10 6.89543 10.8955 6 12 6ZM20 14C20 12.8954 20.8955 12 22 12H42C43.1046 12 44 12.8954 44 14C44 15.1046 43.1046 16 42 16H22C20.8955 16 20 15.1046 20 14ZM6.09002 29.4069C6.65958 27.5727 8.29825 26 10.4858 26H11.4327C14.1906 26 16 28.4548 16 30.9222C16 32.6879 15.1062 34.4453 13.4877 35.3199L10.699 37.2041C10.6631 37.2283 10.6265 37.2514 10.5891 37.2732C10.2196 37.4894 10.1258 37.6383 10.0964 37.6924C10.0726 37.7363 10.0355 37.8221 10.015 38H14C15.1046 38 16 38.8954 16 40C16 41.1046 15.1046 42 14 42H8.00006C6.89549 42 6.00006 41.1046 6.00006 40V38.2954C6.00006 37.4924 6.12668 36.6205 6.5814 35.7833C7.02994 34.9574 7.70329 34.3382 8.5091 33.8562L11.3421 31.9421C11.4151 31.8928 11.4913 31.8484 11.5702 31.8091C11.7358 31.7266 12 31.4302 12 30.9222C12 30.5878 11.8809 30.3299 11.7456 30.1759C11.6137 30.0258 11.4988 30 11.4327 30H10.4858C10.4129 30 10.322 30.0231 10.2153 30.1105C10.1026 30.2027 9.98144 30.3633 9.91007 30.5931C9.5825 31.648 8.4618 32.2376 7.40692 31.91C6.35204 31.5825 5.76244 30.4618 6.09002 29.4069ZM20 34C20 32.8954 20.8955 32 22 32L42 32C43.1046 32 44 32.8954 44 34C44 35.1046 43.1046 36 42 36L22 36C20.8955 36 20 35.1046 20 34Z" fill="#646464"/>
</svg>
