<svg width="48" height="48" viewBox="0 0 48 48" fill="none" xmlns="http://www.w3.org/2000/svg">
<path fill-rule="evenodd" clip-rule="evenodd" d="M26.0043 4.2786L25.181 14.4135C24.7919 14.3683 24.4029 14.3457 24.0038 14.3457C23.5043 14.3457 23.0148 14.3784 22.5353 14.4562L22.0685 9.54684C22.0584 9.39123 22.1814 9.25569 22.337 9.25569H23.1704L22.7688 4.29115C22.7587 4.13553 22.8817 4 23.0248 4H25.7483C25.9039 4 26.0269 4.13553 26.0043 4.2786ZM21.835 14.5792C20.9565 14.7799 20.1231 15.1012 19.355 15.5229L17.2315 11.0678C17.1662 10.9348 17.2315 10.7692 17.3771 10.7114L18.1652 10.4228L16.0869 5.88994C16.0216 5.75692 16.0869 5.59127 16.2324 5.53354L18.7903 4.59986C18.9333 4.54464 19.089 4.635 19.1341 4.77806C19.1442 4.77806 21.835 14.5792 21.835 14.5792ZM12.8639 7.60168L18.7451 15.8893C17.9996 16.3787 17.3218 16.956 16.7445 17.6236L13.2178 14.1575C13.1074 14.0471 13.1199 13.8689 13.2304 13.7685L13.8754 13.2339L10.3713 9.6899C10.2609 9.57947 10.2734 9.40127 10.3939 9.30087L12.4748 7.5565C12.5953 7.45611 12.7635 7.4787 12.8513 7.60168H12.8639ZM16.3002 18.1783C15.7656 18.8786 15.3338 19.6566 15.01 20.4899L10.5194 18.4343C10.3738 18.3791 10.3186 18.2009 10.3964 18.0679L10.8181 17.345L6.30494 15.2116C6.17191 15.1464 6.11668 14.9782 6.1945 14.8452L7.54996 12.4909C7.62777 12.3579 7.80599 12.3127 7.92899 12.4006L16.3002 18.1783ZM4.60308 18.8008C4.62568 18.6452 4.7813 18.5573 4.92438 18.5899L14.764 21.1576C14.508 21.9908 14.3649 22.8693 14.3423 23.7804L9.41749 23.3788C9.26186 23.3688 9.1489 23.2232 9.18404 23.0676L9.32712 22.2468L4.35709 21.78C4.20147 21.7675 4.10357 21.6244 4.12365 21.4688L4.59053 18.7907L4.60308 18.8008ZM4.22657 25.4444L14.3549 24.5108C14.4001 25.4118 14.5783 26.2903 14.8544 27.111L10.0977 28.4237C9.95214 28.4563 9.79651 28.3685 9.77392 28.2128L9.63084 27.3896L4.80389 28.6445C4.66082 28.6797 4.50519 28.5893 4.4826 28.4337L4.00317 25.7557C3.98058 25.6 4.08098 25.457 4.23661 25.4444H4.22657ZM5.81798 32.4897C5.74017 32.3567 5.79539 32.191 5.92842 32.1232L15.1129 27.7686C15.4568 28.5893 15.9237 29.3573 16.4784 30.0451L12.4547 32.9113C12.3317 33.0017 12.1535 32.9666 12.0757 32.8335L11.654 32.1006L7.55247 34.9343C7.42947 35.0222 7.25126 34.9795 7.17344 34.8465C7.17344 34.8465 5.80543 32.4897 5.81798 32.4897ZM19.0137 32.2563L16.2124 36.3223C16.1245 36.4578 15.9463 36.4779 15.8233 36.38L15.1782 35.8354L12.2891 39.9014C12.1987 40.0243 12.033 40.0469 11.91 39.9465L9.8191 38.2022C9.69862 38.1018 9.68607 37.9236 9.79651 37.8131L16.9453 30.5797C17.5578 31.2222 18.2581 31.7894 19.0137 32.2563ZM15.5346 42.1904C15.389 42.1352 15.3238 41.967 15.389 41.834L19.6261 32.5901C20.4043 32.9891 21.2502 33.2903 22.1287 33.456L20.8812 38.2348C20.8486 38.3779 20.6829 38.4682 20.5373 38.413L19.7491 38.1244L18.4263 42.9358C18.3811 43.0789 18.2255 43.1692 18.0799 43.1115L15.5246 42.1803L15.5346 42.1904ZM24.0063 33.6568C24.5058 33.6568 24.9953 33.6216 25.4722 33.5438L25.9391 38.4557C25.9516 38.6113 25.8286 38.7443 25.673 38.7443H24.8396L25.2387 43.7114C25.2613 43.867 25.1408 44 24.9852 44H22.2592C22.1162 44 21.9932 43.867 22.0032 43.7114L22.8265 33.579C23.2156 33.6342 23.6047 33.6568 24.0063 33.6568ZM28.3864 15.3773C27.6083 14.9883 26.7749 14.6871 25.8838 14.5114L27.1289 9.73257C27.174 9.587 27.3297 9.49915 27.4753 9.55437L28.2634 9.84301L29.5863 5.03156C29.6314 4.8885 29.7871 4.79814 29.9327 4.85336L32.488 5.78704C32.6335 5.84225 32.7013 5.99787 32.6335 6.14344L28.3864 15.3773ZM38.216 10.1768L31.0647 17.4103C30.4648 16.7653 29.777 16.2005 29.0089 15.7337L31.8102 11.6652C31.9006 11.5447 32.0788 11.5096 32.1993 11.61L32.8444 12.1546L35.736 8.0886C35.8239 7.96561 36.0021 7.94303 36.1126 8.04342L38.2035 9.78779C38.3265 9.88819 38.3265 10.0664 38.216 10.1768ZM42.0741 15.8768L32.8896 20.2339C32.5331 19.4107 32.0788 18.6427 31.5216 17.9549L35.5453 15.0887C35.6683 14.9883 35.8465 15.0334 35.9243 15.1665L36.346 15.8893L40.45 13.0557C40.573 12.9779 40.7487 13.0105 40.8266 13.1435L42.1946 15.5003C42.2724 15.6333 42.2297 15.799 42.0841 15.8667L42.0741 15.8768ZM43.5299 19.5537L43.9968 22.2318C44.0194 22.3874 43.919 22.5204 43.7634 22.543L33.6351 23.4867C33.5899 22.5756 33.4117 21.7097 33.1356 20.8865L37.8947 19.5763C38.0378 19.5312 38.1934 19.6315 38.216 19.7872L38.3616 20.6104L43.1861 19.353C43.3316 19.3203 43.4873 19.4107 43.5074 19.5663L43.5299 19.5537ZM43.0631 29.3749L33.2234 26.8073C33.4794 25.974 33.625 25.0981 33.6476 24.187L38.5725 24.5861C38.7281 24.6086 38.8285 24.7417 38.8059 24.8973L38.6603 25.7205L43.6304 26.1874C43.786 26.2074 43.8864 26.3405 43.8638 26.4961L43.3969 29.1741C43.3743 29.3297 43.2187 29.4201 43.0756 29.3875L43.0631 29.3749ZM40.45 35.4965C40.3722 35.6295 40.194 35.6622 40.071 35.5844L31.6998 29.8066C32.2344 29.1064 32.6662 28.3283 32.99 27.495L37.4806 29.5506C37.6262 29.6184 37.6814 29.784 37.6036 29.917L37.1819 30.6399L41.6951 32.7733C41.8281 32.8411 41.8833 33.0067 41.8055 33.1397L40.45 35.4965ZM29.2424 32.0856C29.9879 31.6087 30.6556 31.0189 31.2454 30.3538L34.7696 33.8199C34.8801 33.9303 34.8801 34.1086 34.7571 34.2089L34.112 34.741L37.6161 38.2875C37.7165 38.3979 37.7165 38.5761 37.5935 38.674L35.5152 40.4209C35.4022 40.5188 35.224 40.4987 35.1361 40.3757L29.2549 32.0856H29.2424ZM29.1972 43.375C29.0541 43.4303 28.8985 43.3424 28.8533 43.1968L26.1625 33.3983C27.041 33.1975 27.8744 32.8762 28.6425 32.452L30.766 36.9096C30.8313 37.0526 30.766 37.2208 30.6204 37.2635L29.8323 37.5521L31.9106 42.0875C31.9759 42.2305 31.9106 42.3861 31.765 42.4414L29.2097 43.375H29.1972Z" fill="black"/>
</svg>
