<svg width="48" height="48" viewBox="0 0 48 48" fill="none" xmlns="http://www.w3.org/2000/svg">
<path fill-rule="evenodd" clip-rule="evenodd" d="M44 8C44 6.89543 43.1046 6 42 6H6C4.89543 6 4 6.89543 4 8C4 9.10457 4.89543 10 6 10H42C43.1046 10 44 9.10457 44 8ZM41.4142 14.5858C40.6332 13.8047 39.3668 13.8047 38.5858 14.5858L30.5858 22.5858C29.8047 23.3668 29.8047 24.6332 30.5858 25.4142L38.5858 33.4142C39.3668 34.1953 40.6332 34.1953 41.4142 33.4142C42.1953 32.6332 42.1953 31.3668 41.4142 30.5858L34.8284 24L41.4142 17.4142C42.1953 16.6332 42.1953 15.3668 41.4142 14.5858ZM26 18.66C26 17.5554 25.1046 16.66 24 16.66H6C4.89543 16.66 4 17.5554 4 18.66C4 19.7646 4.89543 20.66 6 20.66H24C25.1046 20.66 26 19.7646 26 18.66ZM26 29.32C26 28.2154 25.1046 27.32 24 27.32H6C4.89543 27.32 4 28.2154 4 29.32C4 30.4246 4.89543 31.32 6 31.32H24C25.1046 31.32 26 30.4246 26 29.32ZM44 40C44 38.8954 43.1046 38 42 38H6C4.89543 38 4 38.8954 4 40C4 41.1046 4.89543 42 6 42H42C43.1046 42 44 41.1046 44 40Z" fill="#646464"/>
</svg>
