<svg width="48" height="48" viewBox="0 0 48 48" fill="none" xmlns="http://www.w3.org/2000/svg">
<path d="M22 42C17.72 42 13.9 41.88 10.62 41.62C7.24 41.36 4.6 38.6 4.36 35.06C4.12 31.6 4 27.54 4 23C4 18.46 4.12 14.4 4.36 10.94C4.6 7.4 7.24 4.64 10.62 4.38C13.88 4.12 17.72 4 22 4C26.28 4 30.12 4.12 33.38 4.38C36.76 4.64 39.4 7.4 39.64 10.94C39.88 14.4 40 18.46 40 23V25.02C40 26.12 39.08 27 38 27C36.9 27 36 26.08 36.02 24.98V23C36.02 18.54 35.92 14.58 35.68 11.2C35.58 9.64 34.52 8.48 33.1 8.36C29.94 8.12 26.22 8 22.02 8C17.82 8 14.1 8.12 10.94 8.36C9.52 8.46 8.46 9.64 8.36 11.2C8.14 14.58 8.02 18.54 8.02 23C8.02 27.46 8.14 31.42 8.36 34.8C8.46 36.36 9.52 37.52 10.94 37.64C14.12 37.88 17.84 38 22.02 38C23.06 38 24.06 38 24.98 37.98C26.06 37.9 27 38.84 27.02 39.94C27.02 41.04 26.16 41.96 25.06 41.98C24.5945 41.98 24.1196 41.9847 23.6308 41.9896C23.1119 41.9947 22.5758 42 22.02 42H22Z" fill="#646464"/>
<path d="M41.8801 43.88L41.8718 43.88C42.6669 43.8749 43.3617 43.3564 43.6801 42.62C43.8201 42.3 43.8601 41.96 43.8201 41.62L43.8601 32.96C43.8601 31.86 42.9601 30.96 41.8601 30.96C40.7601 30.96 39.8601 31.86 39.8401 32.96V37.04L29.9001 27.1C29.1201 26.32 27.8601 26.32 27.0801 27.1C26.3001 27.88 26.3001 29.14 27.0801 29.92L37.0201 39.84H32.9601C31.8801 39.84 30.9601 40.74 30.9601 41.84C30.9601 42.94 31.8601 43.84 32.9601 43.84L41.8718 43.88L41.8601 43.88H41.8801Z" fill="#646464"/>
<path d="M14.8999 17.36H28.7399C29.8399 17.36 30.7399 16.46 30.7399 15.36C30.7399 14.26 29.8399 13.36 28.7399 13.36H14.8999C13.7999 13.36 12.8999 14.26 12.8999 15.36C12.8999 16.46 13.7999 17.36 14.8999 17.36Z" fill="#646464"/>
<path d="M19.5999 24.94H15.1399C14.0399 24.94 13.1399 24.04 13.1399 22.94C13.1399 21.84 14.0399 20.94 15.1399 20.94H19.5999C20.6999 20.94 21.5999 21.84 21.5999 22.94C21.5999 24.04 20.6999 24.94 19.5999 24.94Z" fill="#646464"/>
<path d="M14.8999 32.98H19.8199C20.9199 32.98 21.8199 32.08 21.8199 30.98C21.8199 29.88 20.9199 28.98 19.8199 28.98H14.8999C13.7999 28.98 12.8999 29.88 12.8999 30.98C12.8999 32.08 13.7999 32.98 14.8999 32.98Z" fill="#646464"/>
</svg>
