<svg width="48" height="48" viewBox="0 0 48 48" fill="none" xmlns="http://www.w3.org/2000/svg">
<path fill-rule="evenodd" clip-rule="evenodd" d="M28.8822 6.94792C29.546 5.2883 31.1534 4.20001 32.9409 4.20001H33.4285C39.1565 4.20001 43.7999 8.84345 43.7999 14.5714V15.7134C43.7999 15.7928 43.7948 15.8715 43.7846 15.9489C43.2835 31.416 30.5882 43.8 15 43.8H14.5714C8.8434 43.8 4.19995 39.1566 4.19995 33.4286V32.941C4.19995 31.1534 5.28824 29.5461 6.94786 28.8822L12.2323 26.7684C12.2323 26.7684 12.2324 26.7684 12.2323 26.7684C14.1743 25.9916 16.3924 26.4469 17.8714 27.9259L20.4475 30.502C25.228 29.0052 29.0052 25.228 30.502 20.4476L27.9258 17.8715C26.4468 16.3925 25.9915 14.1744 26.7683 12.2325C26.7683 12.2325 26.7684 12.2324 26.7683 12.2325L28.8822 6.94792ZM32.9409 7.80001C32.6255 7.80001 32.3418 7.99204 32.2247 8.28495L30.1109 13.5695C29.8689 14.1742 30.0107 14.8651 30.4714 15.3259L33.1084 17.9629C33.9601 18.8146 34.3681 20.1073 33.9852 21.3687C32.1537 27.3996 27.3996 32.1537 21.3687 33.9852C20.1073 34.3682 18.8145 33.9601 17.9627 33.1084L15.3258 30.4715C14.8651 30.0107 14.1742 29.869 13.5695 30.1109L8.28488 32.2247C7.99197 32.3419 7.79995 32.6255 7.79995 32.941V33.4286C7.79995 37.1684 10.8316 40.2 14.5714 40.2H15C28.6878 40.2 39.8273 29.2865 40.1908 15.687C40.1921 15.6408 40.1951 15.5943 40.2 15.5479V14.5714C40.2 10.8317 37.1682 7.80001 33.4285 7.80001H32.9409Z" fill="#646464"/>
</svg>
