<svg width="48" height="48" viewBox="0 0 48 48" fill="none" xmlns="http://www.w3.org/2000/svg">
<path fill-rule="evenodd" clip-rule="evenodd" d="M23.3822 5.26533C24.3156 4.4149 25.5844 3.90265 26.9534 4.00822C28.3072 4.11261 29.841 4.71375 31.5134 5.75212C33.2107 6.80599 35.1745 8.38757 37.4101 10.6235C39.6511 12.8647 41.2303 14.8298 42.2787 16.5259C43.3118 18.1971 43.9048 19.7283 44.0004 21.0788C44.0962 22.4325 43.5852 23.681 42.751 24.6005C40.876 26.6668 38.2901 27.7071 36.0295 28.2878C34.1638 28.767 32.3047 28.9799 31.0268 29.1262C30.7702 29.1556 30.5369 29.1823 30.3318 29.208C30.3384 29.2017 30.3413 29.2001 30.3413 29.2001C30.3413 29.2001 30.324 29.2089 30.2985 29.2121C30.3095 29.2107 30.3206 29.2094 30.3318 29.208C30.3318 29.208 30.3263 29.2134 30.3231 29.2171C30.3116 29.2305 30.3033 29.245 30.2987 29.2564L30.2962 29.2638L30.2963 29.2593C30.2962 29.2636 30.2962 29.2638 30.2962 29.2638C30.293 29.538 30.3084 29.8786 30.3295 30.3425C30.3323 30.4046 30.3353 30.4689 30.3382 30.5356C30.3622 31.0707 30.3875 31.7075 30.3772 32.377C30.3571 33.682 30.2034 35.3191 29.4914 36.7954C28.3269 39.2099 25.4909 39.8063 23.3883 38.6481C21.4693 37.5912 18.5878 35.6978 15.4631 32.5727C12.3354 29.4446 10.4302 26.5493 9.36461 24.6228C8.20112 22.5192 8.79061 19.67 11.2172 18.5028C12.6951 17.7919 14.3362 17.644 15.6407 17.6281C16.3105 17.6199 16.9477 17.647 17.4822 17.6723C17.5394 17.675 17.5949 17.6776 17.6488 17.6802C18.1216 17.7028 18.4667 17.7192 18.7419 17.7163C18.7359 17.7187 18.739 17.7164 18.7534 17.7162L18.7419 17.7163C18.749 17.7133 18.7605 17.7068 18.7727 17.696C18.7803 17.6893 18.7856 17.6831 18.7889 17.6787C18.788 17.6858 18.7872 17.6928 18.7863 17.6998C18.7888 17.6801 18.7932 17.6724 18.7932 17.6724L18.7889 17.6787C18.815 17.4708 18.8422 17.2335 18.8722 16.9718C19.0183 15.6962 19.2309 13.8413 19.7084 11.9792C20.2873 9.72242 21.3239 7.14067 23.3822 5.26533ZM26.6459 7.99638C26.4843 7.98392 26.2774 8.03879 26.0761 8.22213C24.8561 9.3337 24.0804 11.0339 23.583 12.973C23.181 14.5404 23.0055 16.0584 22.8577 17.3359C22.8227 17.6388 22.7892 17.9282 22.7547 18.2015C22.5039 20.1848 20.7678 21.6909 18.8043 21.7158C18.3967 21.721 17.9156 21.6978 17.4677 21.6762C17.4089 21.6733 17.3507 21.6705 17.2933 21.6678C16.766 21.6429 16.2311 21.6211 15.6897 21.6278C14.5721 21.6415 13.6351 21.7784 12.9511 22.1074C12.8601 22.1512 12.8195 22.2076 12.7982 22.2841C12.7731 22.3741 12.7729 22.5205 12.8649 22.6868C13.775 24.3322 15.4635 26.9158 18.2917 29.7445C21.1167 32.5698 23.6849 34.2449 25.3182 35.1445C25.482 35.2347 25.6256 35.2342 25.7137 35.2095C25.7888 35.1885 25.8449 35.1483 25.8885 35.0578C26.2207 34.3691 26.3605 33.4303 26.3777 32.3154C26.386 31.775 26.3659 31.2408 26.3423 30.7148C26.3395 30.6528 26.3366 30.5898 26.3337 30.5261C26.3133 30.0834 26.2915 29.6096 26.2966 29.2083C26.3213 27.2823 27.7771 25.4989 29.797 25.2437C30.0704 25.2092 30.3598 25.1757 30.6628 25.1407C31.9428 24.9927 33.4641 24.8168 35.0344 24.4135C36.9766 23.9147 38.6781 23.1365 39.7886 21.9127C39.9688 21.714 40.0211 21.5135 40.0103 21.3612C39.9783 20.9083 39.7329 20.0149 38.8763 18.6291C38.0351 17.2682 36.6733 15.5438 34.5815 13.4517C32.4943 11.3642 30.769 9.99824 29.4034 9.15036C28.0129 8.28698 27.1101 8.03217 26.6459 7.99638Z" fill="#646464"/>
<path fill-rule="evenodd" clip-rule="evenodd" d="M5.61508 39.5564L15.5146 29.6569L18.343 32.4853L8.44351 42.3848C7.66246 43.1658 6.39613 43.1658 5.61508 42.3848C4.83403 41.6037 4.83403 40.3374 5.61508 39.5564Z" fill="#646464"/>
</svg>
