<svg width="48" height="48" viewBox="0 0 48 48" fill="none" xmlns="http://www.w3.org/2000/svg">
<path fill-rule="evenodd" clip-rule="evenodd" d="M29.5645 7.24321C33.6134 4.09406 37.3727 3.78696 39.7672 4.09307C41.9459 4.37159 43.6279 6.05358 43.9064 8.23229C44.2125 10.6268 43.9055 14.3861 40.7563 18.435C40.6739 18.5409 40.5811 18.6383 40.4792 18.7256C39.3487 19.6946 38.2136 20.6582 37.0929 21.6025L40.8332 34.9609C41.2947 36.6088 40.8313 38.3773 39.6213 39.5873L38.2834 40.9252C36.7339 42.4747 34.1408 42.1556 33.0134 40.2765L26.8735 30.0433C25.6924 31.0015 24.6771 31.8195 23.8862 32.4544C23.4513 32.8036 23.0842 33.0973 22.7946 33.3287V38.5939C22.7946 40.0921 22.1994 41.5288 21.1402 42.5881L20.5815 43.1468C19.1248 44.6035 16.6571 44.1285 15.8456 42.2347C15.8455 42.2347 15.8456 42.2348 15.8456 42.2347L12.8213 35.1783L5.76497 32.154C3.87085 31.3425 3.39607 28.8747 4.85267 27.418L5.41139 26.8594C5.41137 26.8594 5.41141 26.8594 5.41139 26.8594C6.47072 25.8001 7.90753 25.2049 9.40566 25.2049H14.6708C14.9022 24.9153 15.196 24.5482 15.5451 24.1133C16.18 23.3224 16.998 22.3072 17.9562 21.126L7.72303 14.9861C7.72302 14.9861 7.72304 14.9861 7.72303 14.9861C5.84398 13.8587 5.52477 11.2656 7.07424 9.71611L8.41219 8.37816C9.62219 7.16816 11.3908 6.70488 13.0386 7.16627L26.397 10.9066C27.3414 9.78585 28.3049 8.65079 29.2739 7.52031C29.3612 7.41843 29.4586 7.32559 29.5645 7.24321ZM32.1756 10.2815C30.9769 11.6811 29.7866 13.0878 28.6308 14.4654C28.126 15.0672 27.3157 15.3177 26.5594 15.1059L11.9601 11.0181C11.7038 10.9464 11.4288 11.0184 11.2406 11.2066L10.4748 11.9724L21.993 18.8833C22.4908 19.182 22.8343 19.6823 22.9342 20.2542C23.0341 20.826 22.8806 21.4131 22.5135 21.8629C20.9247 23.8097 19.5958 25.4571 18.6644 26.6174C18.1987 27.1975 17.8324 27.6557 17.5829 27.9686L17.2982 28.326L17.2029 28.446L17.2015 28.4477C16.8222 28.926 16.245 29.2049 15.6345 29.2049H9.40566C9.30349 29.2049 9.2023 29.2144 9.10326 29.2329L15.1323 31.8168C15.6043 32.0191 15.9804 32.3952 16.1827 32.8672L18.7666 38.8963C18.7851 38.7972 18.7946 38.696 18.7946 38.5939V32.365C18.7946 31.7545 19.0735 31.1774 19.5518 30.798L19.6735 30.7013L20.0309 30.4166C20.3438 30.1671 20.8021 29.8008 21.3822 29.3352C22.5424 28.4037 24.1899 27.0748 26.1366 25.486C26.5864 25.1189 27.1735 24.9654 27.7454 25.0653C28.3172 25.1652 28.8175 25.5087 29.1162 26.0065L36.0271 37.5247L36.7929 36.7589C36.9811 36.5707 37.0531 36.2957 36.9814 36.0395L32.8936 21.4402C32.6818 20.6838 32.9323 19.8735 33.5341 19.3687C34.9117 18.2129 36.3184 17.0226 37.718 15.824C40.0155 12.7885 40.1247 10.1946 39.9387 8.73952C39.8912 8.36772 39.6318 8.10831 39.26 8.06078C37.8049 7.87476 35.2111 7.984 32.1756 10.2815ZM35.455 38.0968C35.4547 38.0971 35.4553 38.0965 35.455 38.0968V38.0968ZM7.34027 28.4773C7.33986 28.4771 7.34068 28.4775 7.34027 28.4773V28.4773Z" fill="#646464"/>
</svg>
