<svg width="48" height="48" viewBox="0 0 48 48" fill="none" xmlns="http://www.w3.org/2000/svg">
<path fill-rule="evenodd" clip-rule="evenodd" d="M24 44C35.0457 44 44 35.0457 44 24C44 12.9543 35.0457 4 24 4C12.9543 4 4 12.9543 4 24C4 35.0457 12.9543 44 24 44ZM21.1446 16.0007C19.1517 15.2068 17.2801 16.4063 16.9917 18.532C16.7964 19.9719 16.6367 21.817 16.6367 24.0015C16.6367 26.186 16.7964 28.0311 16.9917 29.471C17.2801 31.5967 19.1517 32.7962 21.1446 32.0023C22.3997 31.5023 24.0474 30.7521 26.1662 29.6265C28.1674 28.5633 29.7483 27.6118 30.9753 26.8071C33.1457 25.3835 33.1457 22.6196 30.9753 21.1959C29.7483 20.3912 28.1674 19.4397 26.1662 18.3765C24.0474 17.2509 22.3997 16.5007 21.1446 16.0007Z" fill="#646464"/>
</svg>
