<svg width="48" height="48" viewBox="0 0 48 48" fill="none" xmlns="http://www.w3.org/2000/svg">
<path fill-rule="evenodd" clip-rule="evenodd" d="M43.6058 15.8031C44.472 19.6413 43.9313 23.8885 41.767 27.2774C39.9909 30.0581 37.563 32.4173 35.0833 34.5423C33.9054 35.5518 32.689 36.5304 31.5089 37.4799C31.4429 37.5329 31.3771 37.5859 31.3114 37.6388C30.0598 38.6458 28.8526 39.6212 27.7184 40.6096C25.5912 42.4635 22.3938 42.4635 20.2666 40.6096C19.1325 39.6212 17.9252 38.6458 16.6737 37.6388C16.608 37.5859 16.5422 37.533 16.4763 37.4799C15.2961 36.5304 14.0797 35.5518 12.9017 34.5423C10.422 32.4173 7.99415 30.0582 6.21811 27.2774C6.2081 27.2617 6.19831 27.2459 6.18874 27.23C4.15798 23.8459 3.50416 19.6811 4.37936 15.8031C6.31481 6.74105 17.1014 2.78592 23.9925 9.00206C30.8837 2.78589 41.6703 6.74108 43.6058 15.8031ZM39.6959 16.6478C38.3507 10.318 31.0471 7.97208 26.6288 12.0112L26.6239 12.0156C26.3767 12.2402 26.1764 12.4592 25.9124 12.7479C25.7787 12.8942 25.6286 13.0583 25.4477 13.2501C25.0698 13.6509 24.5434 13.8781 23.9925 13.8781C23.4417 13.8781 22.9152 13.6509 22.5373 13.2501C22.3565 13.0583 22.2064 12.8942 22.0726 12.7479C21.8086 12.4592 21.6083 12.2402 21.3611 12.0156L21.3563 12.0112C16.9379 7.97207 9.63431 10.318 8.28917 16.6478L8.28358 16.674C7.6305 19.5562 8.12006 22.6602 9.60446 25.1482C11.0622 27.4222 13.1307 29.4707 15.5046 31.5051C16.6338 32.4727 17.8054 33.4154 18.9975 34.3745C19.0587 34.4237 19.12 34.4731 19.1813 34.5224C20.4268 35.5246 21.6928 36.5467 22.8946 37.594C23.5156 38.1352 24.4693 38.1353 25.0903 37.5941C26.2921 36.5468 27.5582 35.5246 28.8037 34.5224C28.865 34.4731 28.9263 34.4238 28.9875 34.3745C30.1796 33.4154 31.3513 32.4728 32.4805 31.5051C34.8626 29.4636 36.9374 27.4079 38.3959 25.1243C39.9183 22.7406 40.3659 19.6053 39.7017 16.674L39.6959 16.6478Z" fill="#646464"/>
</svg>
