<svg width="48" height="48" viewBox="0 0 48 48" fill="none" xmlns="http://www.w3.org/2000/svg">
<path fill-rule="evenodd" clip-rule="evenodd" d="M16.4846 9.31716C16.8149 8.35711 17.2119 7.42936 17.54 6.76C18.24 5.36 19.56 4.4 21.06 4.20001C22.92 3.94 25.04 3.94 26.9 4.20001C28.42 4.4 29.72 5.36 30.42 6.76C30.7611 7.42901 31.1624 8.35613 31.4885 9.31563C34.7305 9.49978 37.0359 9.78467 38.58 10.04C41.24 10.48 43.22 12.64 43.5 15.42C43.74 17.78 44.02 21.64 44.02 26.56C44.02 31.48 43.74 35.32 43.5 37.7C43.22 40.48 41.26 42.64 38.6 43.08C36.06 43.5 31.46 44 24.02 44H24C16.56 44 11.96 43.5 9.42 43.08C6.76 42.64 4.78 40.48 4.52 37.7C4.28 35.32 4 31.46 4 26.56C4 21.66 4.28 17.8 4.52 15.42C4.8 12.64 6.76 10.48 9.42 10.04C10.9598 9.78537 13.2568 9.50136 16.4846 9.31716ZM29.9955 13.2623C28.2609 13.1863 26.2713 13.14 24 13.14C21.8322 13.14 19.9193 13.1822 18.2395 13.2521C18.1245 13.2673 18.0075 13.2725 17.8895 13.2672C14.2117 13.4318 11.6889 13.7296 10.08 14C9.2 14.14 8.6 14.84 8.5 15.82C8.332 17.5611 8.12902 20.1535 8.04244 23.3835C15.7322 25.756 21.6434 27.16 24 27.16C26.357 27.16 32.2692 25.7556 39.9603 23.3827C39.8785 20.1458 39.6834 17.5624 39.5 15.82C39.4 14.84 38.8 14.14 37.92 14C36.3047 13.7308 33.8016 13.4344 30.1546 13.2694C30.0913 13.2765 30.0275 13.28 29.96 13.28L29.9955 13.2623ZM27.1483 9.15157C27.0494 8.93021 26.9519 8.72364 26.86 8.54L26.8573 8.53546C26.7959 8.43292 26.6559 8.19941 26.38 8.16C24.88 7.96 23.12 7.96 21.62 8.16C21.3442 8.19941 21.2042 8.43292 21.1428 8.53546L21.14 8.54C21.0482 8.72364 20.9507 8.93021 20.8518 9.15157C21.8395 9.13117 22.888 9.12 24 9.12C25.112 9.12 26.1606 9.13117 27.1483 9.15157ZM24 31.14C20.6794 31.14 13.8977 29.3264 8.00374 27.5385C8.03637 31.7974 8.27683 35.1799 8.5 37.3C8.6 38.28 9.2 38.98 10.08 39.12C12.48 39.52 16.84 39.98 24 39.98C31.16 39.98 35.54 39.5 37.92 39.12C38.8 38.98 39.4 38.28 39.5 37.3C39.7047 35.179 39.9612 31.8118 39.996 27.5365C34.0877 29.3251 27.3046 31.14 24 31.14Z" fill="#646464"/>
</svg>
