<svg width="48" height="48" viewBox="0 0 48 48" fill="none" xmlns="http://www.w3.org/2000/svg">
<path fill-rule="evenodd" clip-rule="evenodd" d="M23.9989 14.5712C20.5274 14.5712 17.7132 17.3855 17.7132 20.8569C17.7132 24.3284 20.5274 27.1427 23.9989 27.1427C27.4704 27.1427 30.2846 24.3284 30.2846 20.8569C30.2846 17.3855 27.4704 14.5712 23.9989 14.5712ZM23.9989 18.5712C22.7365 18.5712 21.7132 19.5946 21.7132 20.8569C21.7132 22.1193 22.7365 23.1427 23.9989 23.1427C25.2612 23.1427 26.2846 22.1193 26.2846 20.8569C26.2846 19.5946 25.2612 18.5712 23.9989 18.5712Z" fill="#646464"/>
<path fill-rule="evenodd" clip-rule="evenodd" d="M26.4073 4.60123C24.7869 3.85331 23.2129 3.85329 21.5925 4.60123C19.4533 5.58865 17.6518 7.18547 16.2005 8.60363C14.8936 9.88071 13.7558 11.3138 12.8308 12.873C11.4183 15.254 10.5034 17.928 10.2454 20.7752C10.1584 21.7353 10.101 22.8593 10.0843 24.0781C8.16543 24.8843 6.01315 26.301 5.17841 28.7873C4.81559 29.8682 4.27276 32.0932 4.01335 34.2852C3.8834 35.3833 3.81419 36.5553 3.90069 37.6134C3.97909 38.5725 4.213 39.8712 5.06444 40.8079C6.11338 41.9619 7.48237 42.165 8.6656 41.891C9.70733 41.6498 10.6501 41.0447 11.3712 40.4974C11.8651 40.1225 12.3398 39.7078 12.7681 39.3122C14.037 41.4204 16.0753 42.4636 18.04 42.9872C20.081 43.5311 22.2873 43.5812 23.9772 43.6004C25.7237 43.6202 27.9557 43.5794 30.0347 43.0265C32.0412 42.4928 34.1084 41.4246 35.4055 39.2951C35.8387 39.6958 36.3199 40.1171 36.821 40.4974C37.5421 41.0447 38.4849 41.6498 39.5266 41.891C40.7099 42.165 42.0788 41.9619 43.1278 40.8079C43.9792 39.8712 44.2131 38.5725 44.2915 37.6134C44.378 36.5553 44.3088 35.3833 44.1789 34.2852C43.9195 32.0932 43.3766 29.8682 43.0138 28.7873C42.1607 26.2462 39.9313 24.8224 37.9815 24.0258C37.953 22.8219 37.8887 21.7156 37.8035 20.7751C37.5448 17.9196 36.6099 15.2432 35.1838 12.8649C34.2498 11.3073 33.1049 9.87674 31.7985 8.60241C30.3476 7.18711 28.5475 5.5891 26.4073 4.60123ZM24.7309 8.23302C24.1742 7.97604 23.8256 7.97604 23.2689 8.23301C21.7827 8.91901 20.3861 10.1063 18.9961 11.4645C17.9284 12.5079 17.0104 13.6674 16.271 14.9138C15.1435 16.8144 14.43 18.9184 14.2291 21.1361C14.0386 23.238 14.0017 26.3223 14.2844 29.3819C14.5723 32.4985 15.1698 35.3228 16.0971 37.0756C16.6336 38.0897 17.6076 38.7323 19.0701 39.1221C20.5668 39.521 22.3045 39.5811 24.0226 39.6007C25.7292 39.62 27.4919 39.5637 29.0065 39.1609C30.4931 38.7655 31.5117 38.1008 32.0813 37.0546C33.0197 35.3311 33.5908 32.5265 33.8427 29.4017C34.0893 26.3424 34.0111 23.2476 33.8199 21.1361C33.6197 18.9267 32.8945 16.8252 31.7532 14.9219C31.0048 13.6738 30.0778 12.5118 29.0054 11.4657C27.6119 10.1065 26.2174 8.91914 24.7309 8.23302ZM10.1282 28.5988C10.1961 30.8243 10.4383 33.1394 11.0924 35.3789L10.9327 35.5344C10.8272 35.6372 10.7238 35.7379 10.6247 35.8336C10.0734 36.3655 9.50671 36.8909 8.95288 37.3112C8.53064 37.6317 8.20659 37.8199 7.98141 37.918C7.94857 37.7832 7.91131 37.5801 7.88739 37.2876C7.83123 36.6005 7.87131 35.7213 7.98563 34.7553C8.21475 32.8193 8.70041 30.8648 8.9704 30.0604C9.15207 29.5194 9.55275 29.0288 10.1282 28.5988ZM38.064 28.5988C37.9962 30.8243 37.7539 33.1394 37.0998 35.3789L37.2596 35.5344C37.365 35.6372 37.4684 35.7379 37.5675 35.8336C38.1188 36.3655 38.6855 36.8909 39.2393 37.3112C39.6616 37.6317 39.9856 37.8199 40.2108 37.918C40.2437 37.7832 40.2809 37.5801 40.3048 37.2876C40.361 36.6005 40.3209 35.7213 40.2066 34.7553C39.9775 32.8193 39.4918 30.8648 39.2218 30.0604C39.0402 29.5194 38.6395 29.0288 38.064 28.5988Z" fill="#646464"/>
<path fill-rule="evenodd" clip-rule="evenodd" d="M17.7132 20.8569C17.7132 17.3855 20.5274 14.5712 23.9989 14.5712C27.4704 14.5712 30.2846 17.3855 30.2846 20.8569C30.2846 24.3284 27.4704 27.1427 23.9989 27.1427C20.5274 27.1427 17.7132 24.3284 17.7132 20.8569ZM23.9989 18.5712C22.7365 18.5712 21.7132 19.5946 21.7132 20.8569C21.7132 22.1193 22.7365 23.1427 23.9989 23.1427C25.2612 23.1427 26.2846 22.1193 26.2846 20.8569C26.2846 19.5946 25.2612 18.5712 23.9989 18.5712Z" fill="#646464"/>
</svg>
