<svg width="48" height="48" viewBox="0 0 48 48" fill="none" xmlns="http://www.w3.org/2000/svg">
<path fill-rule="evenodd" clip-rule="evenodd" d="M19.8636 10.3311V35.0459C23.064 35.6103 26.1119 36.5411 28.1364 37.2349V12.6707C24.9263 11.4508 21.809 10.7175 19.8636 10.3311ZM18.7401 6.06662C18.7509 6.06851 18.7594 6.06998 18.7654 6.07092C20.0718 6.27552 25.0369 7.13665 30.1426 9.15869C30.6146 9.16016 31.0748 9.32881 31.4382 9.64042C31.8813 10.0204 32.1364 10.575 32.1364 11.1587V39.7501C32.1364 40.0275 32.0921 40.4838 31.8134 40.9457C31.497 41.4703 31.0063 41.7909 30.5027 41.9208C30.0657 42.0335 29.6905 41.9871 29.483 41.9476C29.2593 41.905 29.0701 41.8384 28.9404 41.7872C27.9595 41.3999 23.0719 39.54 18.1665 38.8232C18.1599 38.8236 18.1531 38.8239 18.1461 38.8243C18.0902 38.827 17.9362 38.8342 17.7495 38.8124C17.5535 38.7896 17.24 38.7267 16.9084 38.5299C16.5546 38.3198 16.2985 38.0279 16.1326 37.7203C15.8635 37.2215 15.8636 36.7333 15.8636 36.591L15.8636 8.21088L15.8635 8.15977C15.8635 8.13691 15.8635 8.07595 15.8677 8.00383L15.8679 7.99962C15.874 7.89365 15.899 7.45773 16.1808 7.00643C16.5165 6.46877 16.9939 6.23998 17.2663 6.14595C17.4789 6.07261 17.6725 6.04596 17.7206 6.03934L17.7265 6.03851C18.197 5.97228 18.6177 6.04536 18.7401 6.06662Z" fill="#646464"/>
<path fill-rule="evenodd" clip-rule="evenodd" d="M17.1672 6.09493C17.549 6.03099 18.0918 5.9673 18.6883 6.05913C18.9477 6.09907 19.3823 6.16964 19.9557 6.2759C21.9863 6.65221 25.8289 7.48893 29.8081 9.02794C29.8788 9.05529 29.943 9.08154 29.9965 9.10374L30.0872 9.14161C30.2374 9.11713 30.419 9.08652 30.6289 9.04935C32.1109 8.7869 34.9619 8.20487 38.0997 7.16418C38.1354 7.15235 38.1777 7.13783 38.2256 7.12135C38.5392 7.01367 39.0963 6.82232 39.6455 6.75096C40.3945 6.65364 41.315 6.73665 42.1942 7.35213C43.7085 8.41223 43.7573 10.1908 43.7745 10.8155C43.7757 10.8599 43.7768 10.8985 43.7782 10.9306C43.8764 13.1563 43.9822 16.5833 43.998 21.2114C44.0006 21.9869 44.0006 22.8129 43.998 23.5884C43.9823 28.1926 43.8775 31.6082 43.7797 33.8349C43.7766 33.9062 43.774 33.9886 43.7712 34.0793C43.7583 34.4906 43.7401 35.0738 43.6404 35.5789C43.2038 37.792 41.5003 39.0107 39.8803 39.5635C37.765 40.2853 34.4858 41.2827 31.0865 41.8378C30.8374 41.8785 30.5873 41.9169 30.3365 41.9526C29.6608 42.049 29.1072 41.8717 28.8089 41.7581C28.6678 41.7044 28.5359 41.6452 28.4587 41.6105L28.444 41.6039C28.3495 41.5615 28.3213 41.5497 28.305 41.5436C26.5725 40.8949 22.4308 39.4597 18.2648 38.8379C18.2037 38.8288 18.1734 38.8287 18.1467 38.8299C18.1071 38.8316 18.0399 38.8378 17.8833 38.8635C16.6456 39.0663 13.4601 39.6557 9.90319 40.8351C9.86816 40.8468 9.8236 40.8623 9.77107 40.8806C9.47739 40.983 8.93479 41.1723 8.41797 41.2476C7.67805 41.3554 6.77371 41.2876 5.89104 40.706C4.27851 39.6435 4.23907 37.8379 4.22485 37.1869C4.22371 37.135 4.22274 37.0905 4.22114 37.0543C4.11494 34.6412 4 30.8231 4 25.6001C4 20.368 4.11534 16.5458 4.2217 14.1334C4.22409 14.0792 4.22627 14.0216 4.22858 13.9607C4.26019 13.1272 4.31458 11.6928 5.22014 10.4227C6.2057 9.04045 7.70297 8.56112 8.54475 8.29164C8.61419 8.26941 8.67916 8.24861 8.73903 8.22885C10.6957 7.58289 13.4129 6.78745 16.2635 6.27408C16.3602 6.25666 16.4612 6.23529 16.6014 6.20563L16.6386 6.19777C16.7852 6.16677 16.9715 6.12769 17.1672 6.09493ZM17.4234 10.1203C17.2948 10.1475 17.133 10.1818 16.9725 10.2108C14.3722 10.679 11.8485 11.4146 9.993 12.0272C9.95729 12.039 9.92259 12.0504 9.88884 12.0616C9.41466 12.2179 9.12861 12.3122 8.87482 12.4392C8.64851 12.5524 8.54648 12.6475 8.47706 12.7449C8.40733 12.8427 8.348 12.9724 8.30426 13.2112C8.25415 13.4849 8.24096 13.7843 8.21904 14.2818L8.21782 14.3096C8.11404 16.6633 8 20.4268 8 25.6001C8 30.7644 8.11365 34.5238 8.21728 36.8784C8.21914 36.9208 8.22082 36.9601 8.22238 36.9968C8.22529 37.065 8.22782 37.1245 8.23053 37.1791C8.26426 37.1678 8.30011 37.1556 8.3389 37.1423C8.35593 37.1364 8.37394 37.1303 8.3927 37.1238C8.4689 37.0976 8.55758 37.0672 8.64424 37.0384C12.4732 35.7688 15.883 35.138 17.2363 34.9161C17.7062 34.8391 18.2017 34.7842 18.8553 34.8817C23.4382 35.5658 27.8899 37.117 29.7076 37.7976C29.7889 37.828 29.8623 37.8584 29.9231 37.8845C29.9773 37.9078 30.0291 37.931 30.0691 37.9489C30.1933 37.93 30.3175 37.9104 30.4418 37.8901C33.5311 37.3856 36.575 36.4649 38.5885 35.7778C39.4092 35.4978 39.6531 35.1238 39.7161 34.8046C39.7471 34.6473 39.7524 34.4972 39.7638 34.1723C39.7685 34.0364 39.7743 33.8699 39.7836 33.6595C39.879 31.4866 39.9825 28.125 39.998 23.5748C40.0006 22.8084 40.0006 21.9914 39.998 21.2251C39.9824 16.6512 39.8779 13.2785 39.7821 11.1069L39.7815 11.0948C39.7769 10.9893 39.773 10.9017 39.7686 10.8234C39.7345 10.8346 39.6984 10.8466 39.6596 10.8596C39.6316 10.869 39.5979 10.8804 39.5617 10.8926C39.4963 10.9148 39.4226 10.9397 39.3589 10.9608C35.9769 12.0825 32.9234 12.7052 31.3264 12.9881C30.9725 13.0507 30.6881 13.0971 30.4852 13.1287C29.452 13.2897 28.5188 12.8335 28.3817 12.7665C28.3727 12.7621 28.3652 12.7586 28.3652 12.7586C24.7059 11.3433 21.1295 10.5615 19.2268 10.2089C18.6972 10.1108 18.3029 10.0469 18.0796 10.0125L18.0832 10.0131C18.0832 10.0131 18.0169 10.0083 17.8278 10.04C17.7251 10.0572 17.6137 10.08 17.4661 10.1112C17.4523 10.1142 17.4381 10.1172 17.4234 10.1203ZM30.2365 38.0215L30.2342 38.0207L30.2365 38.0215Z" fill="#646464"/>
</svg>
