<svg width="48" height="48" viewBox="0 0 48 48" fill="none" xmlns="http://www.w3.org/2000/svg">
<path d="M34 24C34 29.5228 29.5228 34 24 34C18.4772 34 14 29.5228 14 24C14 18.4772 18.4772 14 24 14C29.5228 14 34 18.4772 34 24Z" fill="#646464"/>
<path fill-rule="evenodd" clip-rule="evenodd" d="M5.91884 19.2058C4.81502 19.1652 3.95304 18.2376 3.99356 17.1337C4.08094 14.7534 4.2145 12.4217 4.39458 10.1932C4.64417 7.10469 7.08835 4.66048 10.1769 4.41086C12.4053 4.23076 14.7371 4.09719 17.1175 4.0098C18.2213 3.96927 19.149 4.83124 19.1895 5.93507C19.23 7.0389 18.368 7.96658 17.2642 8.0071C14.9366 8.09256 12.6636 8.22293 10.4991 8.39786C9.36542 8.48949 8.4732 9.38171 8.38158 10.5154C8.20667 12.6799 8.07632 14.9529 7.99087 17.2805C7.95035 18.3843 7.02267 19.2463 5.91884 19.2058ZM5.91884 28.7944C7.02267 28.7539 7.95035 29.6158 7.99087 30.7197C8.07632 33.0473 8.20667 35.3203 8.38158 37.4848C8.4732 38.6186 9.36547 39.5108 10.4992 39.6024C12.6637 39.7773 14.9366 39.9076 17.2642 39.993C18.368 40.0335 19.23 40.9612 19.1895 42.065C19.149 43.1689 18.2213 44.0308 17.1175 43.9903C14.7372 43.903 12.4055 43.7695 10.1771 43.5894C7.08849 43.3399 4.64417 40.8956 4.39458 37.807C4.2145 35.5785 4.08094 33.2467 3.99356 30.8664C3.95304 29.7626 4.81502 28.8349 5.91884 28.7944ZM28.7949 5.93507C28.8355 4.83124 29.7631 3.96927 30.867 4.0098C33.2473 4.09719 35.5791 4.23076 37.8075 4.41086C40.8961 4.66048 43.3403 7.10469 43.5898 10.1932C43.7699 12.4217 43.9035 14.7534 43.9909 17.1337C44.0314 18.2376 43.1694 19.1652 42.0656 19.2058C40.9618 19.2463 40.0341 18.3843 39.9936 17.2805C39.9081 14.9529 39.7778 12.6799 39.6028 10.5154C39.5112 9.38171 38.619 8.48949 37.4853 8.39786C35.3208 8.22293 33.0478 8.09256 30.7202 8.0071C29.6164 7.96658 28.7544 7.0389 28.7949 5.93507ZM28.7949 42.065C28.7544 40.9612 29.6164 40.0335 30.7202 39.993C33.0478 39.9076 35.3208 39.7773 37.4852 39.6024C38.619 39.5108 39.5112 38.6186 39.6028 37.4848C39.7778 35.3203 39.9081 33.0473 39.9936 30.7197C40.0341 29.6158 40.9618 28.7539 42.0656 28.7944C43.1694 28.8349 44.0314 29.7626 43.9909 30.8664C43.9035 33.2467 43.7699 35.5785 43.5898 37.807C43.3403 40.8956 40.8959 43.3399 37.8073 43.5894C35.5789 43.7695 33.2472 43.903 30.8669 43.9903C29.7631 44.0308 28.8355 43.1689 28.7949 42.065Z" fill="#646464"/>
</svg>
