<svg width="48" height="48" viewBox="0 0 48 48" fill="none" xmlns="http://www.w3.org/2000/svg">
<path fill-rule="evenodd" clip-rule="evenodd" d="M16.3437 5.51839C18.7046 4.53936 21.2919 4 24 4C26.7081 4 29.2954 4.53936 31.6563 5.51839C32.6766 5.9415 33.1607 7.11163 32.7376 8.13195C32.3145 9.15227 31.1444 9.6364 30.1241 9.2133C28.2403 8.43214 26.1732 8 24 8C21.8268 8 19.7597 8.43214 17.8759 9.2133C16.8556 9.6364 15.6855 9.15227 15.2624 8.13195C14.8393 7.11163 15.3234 5.9415 16.3437 5.51839ZM39.8681 15.2624C40.8884 14.8393 42.0585 15.3234 42.4816 16.3437C43.4606 18.7046 44 21.2919 44 24C44 26.7081 43.4606 29.2954 42.4816 31.6563C42.0585 32.6766 40.8884 33.1607 39.8681 32.7376C38.8477 32.3145 38.3636 31.1444 38.7867 30.1241C39.5679 28.2403 40 26.1732 40 24C40 21.8268 39.5679 19.7597 38.7867 17.8759C38.3636 16.8556 38.8477 15.6855 39.8681 15.2624ZM8.13195 15.2624C9.15227 15.6855 9.6364 16.8556 9.2133 17.8759C8.43214 19.7597 8 21.8268 8 24C8 26.1732 8.43214 28.2403 9.2133 30.1241C9.6364 31.1444 9.15227 32.3145 8.13195 32.7376C7.11163 33.1607 5.9415 32.6766 5.51839 31.6563C4.53936 29.2954 4 26.7081 4 24C4 21.2919 4.53936 18.7046 5.51839 16.3437C5.9415 15.3234 7.11163 14.8393 8.13195 15.2624ZM32.7376 39.8681C33.1607 40.8884 32.6766 42.0585 31.6563 42.4816C29.2954 43.4606 26.7081 44 24 44C21.2919 44 18.7046 43.4606 16.3437 42.4816C15.3234 42.0585 14.8393 40.8884 15.2624 39.8681C15.6855 38.8477 16.8556 38.3636 17.8759 38.7867C19.7597 39.5679 21.8268 40 24 40C26.1732 40 28.2403 39.5679 30.1241 38.7867C31.1444 38.3636 32.3145 38.8477 32.7376 39.8681Z" fill="#646464"/>
<path d="M33 24C33 28.9705 28.9705 33 24 33C19.0295 33 15 28.9705 15 24C15 19.0295 19.0295 15 24 15C28.9705 15 33 19.0295 33 24Z" fill="#646464"/>
</svg>
