<svg width="48" height="48" viewBox="0 0 48 48" fill="none" xmlns="http://www.w3.org/2000/svg">
<path fill-rule="evenodd" clip-rule="evenodd" d="M8.25118 15.2776C11.319 9.74906 17.2203 6 24 6C30.4663 6 36.1335 9.40866 39.307 14.5256L40.0597 11.5149C40.3276 10.4433 41.4135 9.79182 42.4851 10.0597C43.5566 10.3276 44.2082 11.4135 43.9403 12.4851L41.9403 20.4851C41.6724 21.5567 40.5865 22.2082 39.5149 21.9403L31.5149 19.9403C30.4433 19.6724 29.7918 18.5865 30.0597 17.5149C30.3276 16.4433 31.4135 15.7918 32.4851 16.0597L36.1076 16.9653C33.6815 12.7992 29.166 10 24 10C18.7316 10 14.1399 12.9092 11.7488 17.2184C11.2128 18.1842 9.99541 18.5327 9.02958 17.9968C8.06374 17.4608 7.71524 16.2434 8.25118 15.2776ZM6.97099 26.285C7.42584 26.0121 7.97046 25.9311 8.48506 26.0597L16.4851 28.0597C17.5566 28.3276 18.2082 29.4135 17.9403 30.4851C17.6724 31.5567 16.5865 32.2082 15.5149 31.9403L11.8924 31.0347C14.3185 35.2008 18.834 38 24 38C29.2684 38 33.86 35.0908 36.2512 30.7816C36.7871 29.8158 38.0046 29.4673 38.9704 30.0032C39.9362 30.5392 40.2847 31.7566 39.7488 32.7224C36.681 38.2509 30.7797 42 24 42C17.5336 42 11.8665 38.5913 8.69294 33.4744L7.94027 36.4851C7.67237 37.5567 6.5865 38.2082 5.51491 37.9403C4.44332 37.6724 3.7918 36.5865 4.0597 35.5149L6.0597 27.5149C6.18835 27.0003 6.51615 26.5579 6.97099 26.285Z" fill="#646464"/>
</svg>
