<svg width="48" height="48" viewBox="0 0 48 48" fill="none" xmlns="http://www.w3.org/2000/svg">
<path fill-rule="evenodd" clip-rule="evenodd" d="M47.9999 10.0347C47.9808 15.5575 43.4881 20.0191 37.9653 19.9999C32.4425 19.9808 27.9809 15.4881 28.0001 9.96527C28.0192 4.44245 32.5119 -0.0191202 38.0347 6.1621e-05C43.5575 0.0192439 48.0191 4.51192 47.9999 10.0347ZM32.9393 4.93934C33.5251 4.35355 34.4749 4.35355 35.0607 4.93934L38 7.87868L40.9393 4.93934C41.5251 4.35355 42.4749 4.35355 43.0607 4.93934C43.6464 5.52513 43.6464 6.47487 43.0607 7.06066L40.1213 10L43.0607 12.9393C43.6464 13.5251 43.6464 14.4749 43.0607 15.0607C42.4749 15.6464 41.5251 15.6464 40.9393 15.0607L38 12.1213L35.0607 15.0607C34.4749 15.6464 33.5251 15.6464 32.9393 15.0607C32.3536 14.4749 32.3536 13.5251 32.9393 12.9393L35.8787 10L32.9393 7.06066C32.3536 6.47487 32.3536 5.52513 32.9393 4.93934Z" fill="#646464"/>
<path d="M9.58579 9.58579C10.3668 8.80474 11.6332 8.80474 12.4142 9.58579L30 27.1716V24C30 22.8954 30.8954 22 32 22C33.1046 22 34 22.8954 34 24V32C34 33.1046 33.1046 34 32 34H20C18.8954 34 18 33.1046 18 32C18 30.8954 18.8954 30 20 30H27.1716L9.58579 12.4142C8.80474 11.6332 8.80474 10.3668 9.58579 9.58579Z" fill="#646464"/>
<path d="M6 40C6 38.8954 6.89543 38 8 38H40C41.1046 38 42 38.8954 42 40C42 41.1046 41.1046 42 40 42H8C6.89543 42 6 41.1046 6 40Z" fill="#646464"/>
</svg>
