<svg width="48" height="48" viewBox="0 0 48 48" fill="none" xmlns="http://www.w3.org/2000/svg">
<path d="M44 10C44 8.89543 43.1046 8 42 8C40.8954 8 40 8.89543 40 10V22C40 24.2091 38.2091 26 36 26H9.95041C10.3781 25.5914 10.8417 25.171 11.317 24.7552C12.2842 23.9088 13.257 23.1182 13.9914 22.5368C14.3911 22.2204 14.7934 21.9072 15.2002 21.5999C16.0837 20.9371 16.2627 19.6836 15.6 18.8C14.9373 17.9163 13.6833 17.7375 12.7997 18.4003C12.3652 18.7284 11.9355 19.0627 11.5086 19.4007C10.743 20.0068 9.71577 20.8412 8.68299 21.7448C7.65985 22.6401 6.58727 23.6414 5.75518 24.5775C5.3415 25.0429 4.94485 25.5392 4.64043 26.0338C4.3755 26.4643 4 27.1739 4 28C4 28.8261 4.3755 29.5357 4.64043 29.9662C4.94485 30.4608 5.3415 30.9571 5.75518 31.4225C6.58727 32.3586 7.65985 33.3599 8.68299 34.2552C9.71577 35.1588 10.743 35.9932 11.5086 36.5993C11.9356 36.9374 12.3654 37.2718 12.8 37.6C13.6837 38.2627 14.9373 38.0837 15.6 37.2C16.2627 36.3163 16.0832 35.0624 15.1995 34.3997C14.793 34.0925 14.3909 33.7794 13.9914 33.4632C13.257 32.8818 12.2842 32.0912 11.317 31.2448C10.8417 30.829 10.3781 30.4086 9.95041 30H36C40.4183 30 44 26.4183 44 22V10Z" fill="#646464"/>
</svg>
