<svg width="48" height="48" viewBox="0 0 48 48" fill="none" xmlns="http://www.w3.org/2000/svg">
<path fill-rule="evenodd" clip-rule="evenodd" d="M20.3102 13.272C21.7292 11.8317 23.7048 10.9384 25.8898 10.9384C28.7943 10.9384 31.3283 12.516 32.6778 14.8581C33.8505 14.3477 35.1486 14.0638 36.5143 14.0638C41.7529 14.0638 46 18.2369 46 23.3845C46 28.5326 41.7529 32.7058 36.5143 32.7058C35.8869 32.7061 35.2609 32.6454 34.6459 32.5244C33.4575 34.5893 31.193 35.9844 28.5937 35.9844C27.5056 35.9844 26.4764 35.7396 25.5601 35.3043C24.3554 38.0646 21.5487 40 18.2775 40C14.8709 40 11.9677 37.9003 10.8533 34.9556C10.3663 35.0564 9.86173 35.1089 9.34399 35.1089C5.28811 35.1089 2 31.873 2 27.8806C2 25.2052 3.47733 22.8692 5.6723 21.6194C5.22041 20.6065 4.96905 19.4886 4.96905 18.3132C4.96905 13.7219 8.79556 10 13.5152 10C16.2862 10 18.7488 11.2834 20.3102 13.272ZM9.9588 26.1019C9.51568 26.1019 9.09193 26.0341 8.64316 25.8021L8.59055 25.7733C8.53299 25.742 8.47576 25.7108 8.41912 25.6731L8.3918 25.6544L8.38982 25.652L8.38519 25.6476C8.37202 25.6355 8.35017 25.6154 8.373 25.5573L8.55116 25.0761C8.57934 24.9931 8.64391 25.0206 8.66959 25.0364C8.69037 25.0486 8.70899 25.0604 8.7284 25.0726L8.76432 25.0951C8.78058 25.1051 8.79829 25.1158 8.81877 25.1274C9.34338 25.4504 9.82914 25.4535 9.98144 25.4535C10.3738 25.4535 10.617 25.2508 10.617 24.9785V24.9638C10.617 24.6658 10.2428 24.5541 9.80844 24.4241L9.71255 24.3954C9.11646 24.2293 8.48029 23.9912 8.48029 23.2567V23.242C8.48029 22.5454 9.05691 22.0594 9.883 22.0594L9.97325 22.0588C10.4584 22.0588 10.9272 22.1962 11.2663 22.3971C11.297 22.4154 11.3271 22.4496 11.3102 22.496C11.2945 22.5387 11.144 22.9331 11.1265 22.9771C11.0945 23.0595 11.0074 23.0046 11.0074 23.0046C10.7103 22.8446 10.249 22.7188 9.86041 22.7188C9.51065 22.7188 9.28502 22.8996 9.28502 23.145V23.1603C9.28502 23.4473 9.67111 23.5693 10.1186 23.711L10.1957 23.7354C10.7893 23.9179 11.4217 24.1707 11.4217 24.8668V24.8814C11.4217 25.6342 10.8614 26.1019 9.9588 26.1019ZM23.1719 26.1019C22.7288 26.1019 22.305 26.0341 21.8562 25.8021L21.8034 25.7732C21.7367 25.7369 21.6704 25.7008 21.6049 25.6544L21.5983 25.6476C21.5851 25.6355 21.5633 25.6154 21.5861 25.5573L21.7641 25.0761C21.7905 24.9974 21.8669 25.0261 21.8833 25.0364L21.9133 25.0555C21.9485 25.0778 21.9823 25.0992 22.0318 25.1274C22.5564 25.4504 23.0422 25.4535 23.1944 25.4535C23.5868 25.4535 23.8306 25.2508 23.8306 24.9785V24.9638C23.8306 24.6663 23.4571 24.5545 23.0236 24.4247L23.0214 24.4241L22.9255 24.3954C22.3295 24.2293 21.6933 23.9912 21.6933 23.2567V23.242C21.6933 22.5454 22.2699 22.0594 23.096 22.0594L23.1863 22.0588C23.6714 22.0588 24.1402 22.1962 24.4793 22.3971C24.51 22.4154 24.5402 22.4496 24.5232 22.496C24.5075 22.5387 24.3571 22.9331 24.3395 22.9771C24.3076 23.0595 24.2205 23.0046 24.2205 23.0046C23.9234 22.8446 23.462 22.7188 23.0734 22.7188C22.7237 22.7188 22.4981 22.8996 22.4981 23.145V23.1603C22.4981 23.4473 22.8842 23.5693 23.3317 23.711L23.4088 23.7354C24.0024 23.9179 24.6348 24.1707 24.6348 24.8668V24.8814C24.6348 25.6342 24.0744 26.1019 23.1719 26.1019ZM31.017 22.6565C31.1705 22.8353 31.2858 23.0502 31.3598 23.2939C31.4338 23.5362 31.4708 23.8018 31.4708 24.0827C31.4708 24.3635 31.4338 24.6292 31.3598 24.8715C31.2859 25.1151 31.1705 25.33 31.017 25.5089C30.8634 25.6884 30.6685 25.8319 30.4384 25.9339C30.2078 26.0358 29.9364 26.0877 29.6312 26.0877C29.3253 26.0877 29.0539 26.0358 28.8233 25.9339C28.5932 25.8319 28.3983 25.6885 28.2447 25.5089C28.0905 25.3295 27.9758 25.1145 27.9012 24.8715C27.8279 24.6298 27.7909 24.3642 27.7909 24.0827C27.7909 23.8012 27.8279 23.5362 27.9012 23.2939C27.9758 23.0509 28.0912 22.836 28.2441 22.6565C28.3983 22.477 28.5926 22.3329 28.8232 22.2278C29.0533 22.1235 29.3253 22.0703 29.6312 22.0703C29.9364 22.0703 30.2084 22.1235 30.4384 22.2278C30.6691 22.3329 30.8634 22.4769 31.017 22.6565ZM37.4507 25.2707C37.4507 25.2707 37.5215 25.2439 37.5465 25.3153L37.7315 25.813C37.7553 25.8746 37.7008 25.9002 37.7008 25.9002C37.4162 26.0095 37.0201 26.0858 36.634 26.0858C35.9809 26.0858 35.48 25.9021 35.1466 25.5406C34.8138 25.1803 34.6452 24.6883 34.6452 24.0796C34.6452 23.7981 34.6865 23.5319 34.768 23.2895C34.8501 23.0465 34.973 22.8316 35.1347 22.6521C35.2964 22.4726 35.5007 22.3285 35.7414 22.2241C35.9827 22.1191 36.2647 22.0666 36.5813 22.0666C36.7931 22.0666 36.9837 22.0794 37.1466 22.1038C37.3209 22.1295 37.5515 22.1899 37.6493 22.2271C37.6669 22.2338 37.7158 22.2577 37.6957 22.3132C37.6481 22.446 37.6103 22.5474 37.5704 22.6545L37.5108 22.8151C37.4826 22.8908 37.423 22.8658 37.423 22.8658C37.1749 22.7895 36.938 22.7547 36.6271 22.7547C36.2542 22.7547 35.9746 22.8762 35.7909 23.1131C35.606 23.3511 35.5032 23.6638 35.502 24.0796C35.5007 24.5363 35.6173 24.8739 35.8254 25.0827C36.0329 25.2915 36.3225 25.3971 36.6872 25.3971C36.8358 25.3971 36.9743 25.3873 37.1003 25.3684C37.2244 25.3495 37.341 25.3117 37.4507 25.2707ZM41.0748 22.5742C41.1788 22.6828 41.3374 22.9204 41.4013 23.1554C41.554 23.6778 41.49 24.1338 41.4787 24.2142L41.4772 24.2257C41.4702 24.2892 41.4032 24.2904 41.4032 24.2904L38.8528 24.2879C38.8691 24.6652 38.9612 24.9327 39.1499 25.1146C39.3335 25.2923 39.6269 25.4059 40.0224 25.4065C40.5744 25.4076 40.8387 25.309 41.0193 25.2417L41.0691 25.2233C41.0691 25.2233 41.14 25.1983 41.165 25.266L41.3317 25.7209C41.3656 25.7979 41.3387 25.8247 41.3105 25.8399C41.1506 25.9261 40.7627 26.086 40.0262 26.0884C39.6683 26.0891 39.3568 26.039 39.1004 25.9425C38.8422 25.8455 38.6265 25.7063 38.4592 25.5286C38.2912 25.3522 38.1672 25.1391 38.0894 24.8973C38.0123 24.6574 37.9735 24.3906 37.9735 24.1042C37.9735 23.8228 38.0111 23.556 38.0856 23.3111C38.1596 23.0651 38.2762 22.8483 38.431 22.6664C38.5859 22.4838 38.7833 22.3373 39.0183 22.2298C39.2527 22.1224 39.5417 22.0705 39.8601 22.0705C40.1333 22.0705 40.3828 22.1278 40.5909 22.2145C40.7501 22.2817 40.9105 22.402 41.0748 22.5742ZM20.65 22.5742C20.754 22.6828 20.912 22.9204 20.9759 23.1554C21.1288 23.677 21.0654 24.1323 21.054 24.2138L21.0524 24.2257C21.0455 24.2892 20.9785 24.2904 20.9785 24.2904L18.4281 24.2879C18.4445 24.6652 18.5366 24.9327 18.7252 25.1146C18.9089 25.2923 19.2022 25.4059 19.5971 25.4065C20.15 25.4076 20.414 25.3091 20.5945 25.2417L20.6445 25.2233C20.6445 25.2233 20.7152 25.1983 20.741 25.266L20.9071 25.7209C20.9409 25.7979 20.914 25.8247 20.8857 25.8399C20.7259 25.9261 20.3379 26.086 19.6015 26.0884C19.2436 26.0891 18.9321 26.039 18.6757 25.9425C18.4175 25.8455 18.2019 25.7063 18.0345 25.5286C17.8666 25.3522 17.7424 25.1391 17.6647 24.8973C17.5876 24.6574 17.5487 24.3906 17.5487 24.1042C17.5487 23.8228 17.587 23.556 17.6609 23.3111C17.7349 23.0651 17.8515 22.8483 18.0063 22.6664C18.1611 22.4838 18.3585 22.3373 18.5935 22.2298C18.828 22.1224 19.1175 22.0705 19.4353 22.0705C19.7086 22.0705 19.958 22.1278 20.1661 22.2145C20.3253 22.2817 20.4858 22.402 20.65 22.5742ZM13.5441 23.5445C13.7045 23.5445 13.8387 23.5488 13.9421 23.5561C13.9421 23.5561 14.1433 23.5738 14.3627 23.6043V23.4993C14.3627 23.1684 14.2919 23.0115 14.1527 22.9077C14.0098 22.8009 13.798 22.7471 13.5222 22.7471C13.5222 22.7471 12.9017 22.7392 12.4109 22.9993C12.3883 23.0121 12.3689 23.0195 12.3689 23.0195C12.3689 23.0195 12.3081 23.0402 12.2855 22.9792L12.105 22.5066C12.0774 22.4382 12.1275 22.4077 12.1275 22.4077C12.357 22.233 12.9142 22.128 12.9142 22.128C13.0984 22.092 13.4062 22.0663 13.5974 22.0663C14.1069 22.0663 14.5012 22.1818 14.7688 22.4101C15.0377 22.639 15.1743 23.0084 15.1743 23.5067L15.1756 25.7785C15.1756 25.7785 15.1806 25.8445 15.1173 25.8597C15.058 25.8754 14.9984 25.8903 14.9386 25.9043C14.8534 25.9232 14.5463 25.9836 14.2962 26.0252C14.0436 26.0673 13.7829 26.0881 13.5215 26.0881C13.2733 26.0881 13.0464 26.0655 12.8465 26.0209C12.6434 25.9763 12.4685 25.9025 12.3269 25.8018C12.184 25.701 12.0718 25.5703 11.9941 25.4134C11.9163 25.2571 11.8775 25.066 11.8775 24.8462C11.8775 24.6301 11.9233 24.4371 12.0135 24.2735C12.1028 24.111 12.2293 23.9708 12.3833 23.8638C12.5375 23.7564 12.7168 23.6752 12.9161 23.6233C13.1141 23.5714 13.3254 23.5445 13.5441 23.5445ZM34.4737 22.1869C34.4906 22.193 34.5313 22.2199 34.5119 22.2761C34.4881 22.3438 34.364 22.6839 34.3201 22.7975C34.3038 22.8408 34.2762 22.8701 34.2274 22.8646C34.2274 22.8646 34.0807 22.8311 33.9472 22.8311C33.8544 22.8311 33.7234 22.8427 33.605 22.8781C33.489 22.9129 33.3831 22.9745 33.2897 23.0624C33.197 23.151 33.1217 23.2743 33.0666 23.4282C33.0102 23.5839 32.9819 23.8318 32.9819 24.0803V25.9314C32.982 25.9514 32.9739 25.9706 32.9595 25.9848C32.945 25.999 32.9254 26.007 32.9049 26.0071H32.2348C32.1922 26.0071 32.1571 25.9729 32.1571 25.9314V22.226C32.1571 22.1838 32.1878 22.1503 32.2304 22.1503H32.8842C32.9268 22.1503 32.9575 22.1839 32.9575 22.226V22.5282C33.0553 22.4006 33.2308 22.2883 33.3887 22.2187C33.548 22.1491 33.726 22.0966 34.0462 22.1155C34.2136 22.1259 34.4305 22.1704 34.4737 22.1869ZM27.9707 20.5001C28.0672 20.5178 28.1412 20.5343 28.2227 20.5587C28.2402 20.5654 28.2897 20.5892 28.2697 20.6455L28.0747 21.1669C28.0584 21.206 28.0472 21.2298 27.9638 21.2054C27.943 21.1992 27.9123 21.1907 27.8334 21.1742C27.7763 21.1626 27.7005 21.154 27.6241 21.154C27.5232 21.154 27.431 21.1662 27.3502 21.1919C27.2712 21.2169 27.1991 21.2603 27.1364 21.3213C27.073 21.3836 26.9979 21.4746 26.9577 21.5863C26.8781 21.8106 26.8395 22.0468 26.8271 22.1227L26.823 22.1468H27.6384C27.7067 22.1468 27.7281 22.1773 27.7218 22.2268L27.6265 22.7433C27.6121 22.8184 27.5413 22.8159 27.5413 22.8159H26.7014L26.1266 25.9829C26.0665 26.3101 25.9906 26.5909 25.9023 26.8169C25.8132 27.0458 25.7198 27.2131 25.5713 27.3731C25.4334 27.5208 25.278 27.6301 25.1 27.693C24.9225 27.7553 24.7082 27.7876 24.4738 27.7876C24.3616 27.7876 24.2419 27.7858 24.1002 27.7534C23.9981 27.7296 23.9423 27.7125 23.8671 27.6869C23.8351 27.6753 23.8101 27.6368 23.8276 27.5874C23.8458 27.5379 23.9962 27.1355 24.0169 27.0824C24.0433 27.0183 24.1091 27.0427 24.1091 27.0427C24.1548 27.0617 24.1868 27.0745 24.247 27.0861C24.3078 27.0983 24.3898 27.1081 24.4513 27.1081C24.5622 27.1081 24.6637 27.0947 24.7515 27.066C24.8581 27.0312 24.9195 26.9714 24.9847 26.8907C25.0524 26.8065 25.1069 26.6911 25.1627 26.5372C25.2197 26.381 25.2711 26.1752 25.3156 25.9249L25.8873 22.8159H25.3238C25.2561 22.8159 25.2342 22.7848 25.2411 22.736L25.3357 22.2188C25.3507 22.1443 25.4209 22.1468 25.4209 22.1468H26L26.0314 21.9789C26.1179 21.48 26.2903 21.1009 26.5442 20.8518C26.7992 20.6015 27.1628 20.4745 27.6241 20.4745C27.7563 20.4745 27.8729 20.483 27.9707 20.5001ZM16.756 26.0067C16.7987 26.0067 16.8294 25.9731 16.8294 25.9316V20.6296C16.8294 20.5881 16.7987 20.5545 16.756 20.5545H16.0797C16.0371 20.5545 16.007 20.5881 16.007 20.6296V25.9316C16.007 25.9731 16.0371 26.0067 16.0797 26.0067H16.756Z" fill="#8D8D8D"/>
<path d="M30.6064 24.0827C30.6064 24.5083 30.5249 24.8434 30.3645 25.0803C30.2059 25.3148 29.9658 25.429 29.6312 25.429C29.2959 25.429 29.057 25.3154 28.901 25.0803C28.743 24.8441 28.6628 24.5083 28.6628 24.0827C28.6628 23.6578 28.743 23.3232 28.901 23.0887C29.057 22.8567 29.2959 22.7438 29.6312 22.7438C29.9659 22.7438 30.2059 22.8567 30.3651 23.0887C30.525 23.3231 30.6064 23.6577 30.6064 24.0827Z" fill="#8D8D8D"/>
<path d="M18.44 23.675C18.4763 23.4388 18.5428 23.2421 18.6462 23.0889C18.8022 22.8563 19.0404 22.7287 19.3751 22.7287C19.7098 22.7287 19.9311 22.8569 20.0903 23.0889C20.1949 23.2421 20.2407 23.4473 20.2589 23.675H18.44Z" fill="#8D8D8D"/>
<path d="M12.9274 25.3017C12.8277 25.2241 12.8139 25.2046 12.7801 25.1546C12.7299 25.0782 12.7042 24.9696 12.7042 24.8316C12.7042 24.613 12.7782 24.4561 12.9318 24.3505C12.9318 24.3505 13.1512 24.1643 13.6714 24.1709C14.0368 24.1758 14.3633 24.2284 14.3633 24.2284V25.3579C14.3633 25.3579 14.0399 25.4256 13.6751 25.447C13.1561 25.4775 12.9274 25.3017 12.9274 25.3017Z" fill="#8D8D8D"/>
<path d="M38.8647 23.675C38.9005 23.4388 38.9675 23.2421 39.0709 23.0889C39.227 22.8563 39.4652 22.7287 39.7999 22.7287C40.1347 22.7287 40.3559 22.8569 40.5144 23.0889C40.6198 23.2421 40.6655 23.4473 40.6837 23.675H38.8647Z" fill="#8D8D8D"/>
</svg>
