<svg width="48" height="48" viewBox="0 0 48 48" fill="none" xmlns="http://www.w3.org/2000/svg">
<path fill-rule="evenodd" clip-rule="evenodd" d="M30.9297 16C31.6104 14.8233 32 13.4571 32 12C32 7.58172 28.4183 4 24 4C19.5817 4 16 7.58172 16 12C16 13.4571 16.3896 14.8233 17.0703 16H9.03246C5.41302 16 3.65469 20.4242 6.28667 22.9087L12.2267 28.5161L10.5103 37.3341C9.85633 40.6936 13.4494 43.2694 16.421 41.5714L24.0002 37.2407L31.5795 41.5714C34.5511 43.2694 38.1442 40.6936 37.4902 37.3341L35.7738 28.5161L41.7138 22.9087C44.3458 20.4242 42.5875 16 38.968 16H30.9297ZM20 12C20 9.79086 21.7909 8 24 8C26.2091 8 28 9.79086 28 12C28 14.2091 26.2091 16 24 16C21.7909 16 20 14.2091 20 12ZM9.03247 20L14.9725 25.6074C15.9695 26.5485 16.415 27.9346 16.153 29.2803L14.4366 38.0984L22.0158 33.7677C23.2455 33.065 24.755 33.065 25.9847 33.7677L33.5639 38.0984L31.8475 29.2803C31.5855 27.9346 32.031 26.5485 33.028 25.6074L38.968 20H9.03247Z" fill="#646464"/>
</svg>
