<svg width="48" height="48" viewBox="0 0 48 48" fill="none" xmlns="http://www.w3.org/2000/svg">
<g clip-path="url(#clip0_3_11114)">
<path fill-rule="evenodd" clip-rule="evenodd" d="M4.9 0.480044C5.74 -0.239956 7 -0.139956 7.72 0.700044L41.54 40.62C42.24 41.46 42.14 42.72 41.3 43.44C40.92 43.76 40.46 43.92 40 43.92C39.44 43.92 38.88 43.68 38.48 43.22L30.58 33.88C29.7125 33.8983 28.7865 33.9124 27.8003 33.9223L28.4399 37.32C28.6199 38.24 29.3999 38.92 30.2999 38.92H31.1599C32.4999 38.92 33.6799 39.94 33.9399 41.34L33.9799 41.54C34.2199 42.78 33.3199 43.94 32.1199 43.94H15.8999C14.6999 43.94 13.7999 42.78 14.0399 41.54L14.0799 41.34C14.3399 39.92 15.4999 38.92 16.8599 38.92H17.7199C18.6199 38.92 19.3999 38.26 19.5799 37.32L20.2199 33.92H20.3478C15.768 33.8688 12.44 33.728 10.2 33.6C7.3 33.42 4.72 31.36 4.42 28.32C4.2 26.22 4 23.16 4 18.94C4 14.72 4.2 11.64 4.42 9.56005C4.58 7.90005 5.44 6.54004 6.64 5.62004L4.66 3.30004C3.94 2.44004 4.06 1.18004 4.9 0.480044ZM10.44 29.6C13.14 29.76 17.58 29.94 24 29.94L24.02 29.96H27.24L9.24 8.72005C8.76 9.04004 8.46 9.50004 8.4 10C8.2 11.94 8 14.88 8 18.96C8 23.04 8.2 25.98 8.4 27.92C8.48 28.74 9.2 29.52 10.44 29.6Z" fill="#646464"/>
<path d="M43.5805 9.55994C43.2805 6.51994 40.7005 4.45994 37.8005 4.27994C35.0005 4.11994 30.5005 3.93994 23.9805 3.93994C22.5405 3.93994 21.2005 3.93994 19.9605 3.95994C18.8605 3.95994 17.9805 4.87994 17.9805 5.97994C17.9805 7.07994 18.9005 7.95994 20.0005 7.95994C20.5873 7.95994 21.202 7.95531 21.8399 7.95051C22.5281 7.94533 23.2435 7.93994 23.9805 7.93994C30.4005 7.93994 34.8405 8.11994 37.5405 8.27994C38.7805 8.35994 39.5005 9.13994 39.5805 9.95994C39.7805 11.8999 39.9805 14.8399 39.9805 18.9199C39.9805 22.9999 39.7805 25.9399 39.5805 27.8799C39.5405 28.3199 39.3405 28.6999 39.0005 28.9999C38.1805 29.7399 38.1005 30.9999 38.8205 31.8199C39.5605 32.6399 40.8205 32.7199 41.6405 31.9999C42.7005 31.0799 43.4005 29.7799 43.5605 28.2799C43.7805 26.1999 43.9805 23.1199 43.9805 18.8999C43.9805 14.6799 43.7805 11.6199 43.5605 9.51994L43.5805 9.55994Z" fill="#646464"/>
</g>
<defs>
<clipPath id="clip0_3_11114">
<rect width="24" height="24" fill="white" transform="scale(2)"/>
</clipPath>
</defs>
</svg>
