<svg width="48" height="48" viewBox="0 0 48 48" fill="none" xmlns="http://www.w3.org/2000/svg">
<path fill-rule="evenodd" clip-rule="evenodd" d="M12.4142 41.4142C11.6332 42.1953 10.3668 42.1953 9.58579 41.4142C8.80474 40.6332 8.80474 39.3668 9.58579 38.5858L27.1716 21H20C18.8954 21 18 20.1046 18 19C18 17.8954 18.8954 17 20 17H32C33.1046 17 34 17.8954 34 19V31C34 32.1046 33.1046 33 32 33C30.8954 33 30 32.1046 30 31V23.8284L12.4142 41.4142ZM8 13C6.89543 13 6 12.1046 6 11C6 9.89543 6.89543 9 8 9H40C41.1046 9 42 9.89543 42 11C42 12.1046 41.1046 13 40 13H8Z" fill="#646464"/>
</svg>
