<svg width="48" height="48" viewBox="0 0 48 48" fill="none" xmlns="http://www.w3.org/2000/svg">
<path d="M5.49841 5.56858C6.31074 4.59441 7.61129 4.0732 9.00714 4.36217C14.3856 5.47562 22.9347 9.09137 30.0518 12.8142C33.632 14.687 36.9386 16.6328 39.3759 18.3693C40.5875 19.2325 41.6458 20.0872 42.4229 20.8932C42.8109 21.2957 43.175 21.7332 43.4526 22.1968C43.7176 22.6392 43.9998 23.2637 43.9998 23.9998C43.9998 24.7358 43.7176 25.3603 43.4526 25.8028C43.175 26.2663 42.8109 26.7038 42.4229 27.1063C41.6458 27.9123 40.5875 28.767 39.3759 29.6303C36.9386 31.3667 33.632 33.3126 30.0518 35.1854C22.9347 38.9083 14.3856 42.524 9.00714 43.6375C7.61129 43.9265 6.31075 43.4053 5.49841 42.4311C4.70863 41.484 4.42945 40.1805 4.77702 38.9293L8.36847 26H26C27.1046 26 28 25.1046 28 24C28 22.8954 27.1046 22 26 22H8.36859L4.77702 9.07041C4.42946 7.81918 4.70863 6.51569 5.49841 5.56858Z" fill="#646464"/>
</svg>
