<svg width="48" height="48" viewBox="0 0 48 48" fill="none" xmlns="http://www.w3.org/2000/svg">
<path d="M27.1824 7.80787C26.8498 7.25629 26.38 6.79998 25.8187 6.48322C25.2575 6.16646 24.6238 6 23.9791 6C23.3345 6 22.7008 6.16646 22.1395 6.48322C21.5782 6.79998 21.1085 7.25629 20.7758 7.80787L15.5063 16.8239C19.532 18.8316 22.9619 21.8564 25.4555 25.5978C27.9491 29.3392 29.4196 33.6672 29.7211 38.1519H26.0212C25.7203 34.3076 24.4198 30.6085 22.2483 27.4206C20.0768 24.2327 17.1096 21.6664 13.6403 19.9759L8.76327 28.3999C10.7136 29.2736 12.4126 30.6232 13.7043 32.3245C14.9959 34.0258 15.8386 36.0241 16.155 38.1359H7.65812C7.55735 38.1287 7.45994 38.0967 7.37467 38.0426C7.2894 37.9884 7.21896 37.914 7.1697 37.8259C7.12044 37.7378 7.0939 37.6388 7.09249 37.5379C7.09107 37.437 7.11483 37.3373 7.1616 37.2479L9.51605 33.2479C8.71837 32.583 7.80672 32.068 6.82525 31.7279L4.49482 35.7279C4.25221 36.1436 4.09471 36.6033 4.03147 37.0803C3.96823 37.5573 4.00051 38.0422 4.12643 38.5066C4.25235 38.9711 4.46941 39.4059 4.76499 39.7859C5.06057 40.1658 5.42878 40.4833 5.84823 40.7199C6.40088 41.0309 7.02379 41.1961 7.65812 41.1999H19.2942C19.5103 38.5359 19.0341 35.8614 17.9117 33.4352C16.7893 31.0091 15.0587 28.9137 12.8876 27.3519L14.7375 24.1519C17.4775 26.0318 19.6794 28.593 21.1259 31.5826C22.5725 34.5723 23.2136 37.8871 22.9861 41.1999H32.8443C33.0739 36.1815 31.981 31.1907 29.6749 26.7265C27.3687 22.2622 23.9301 18.4807 19.7027 15.7599L23.4426 9.35987C23.5259 9.22038 23.661 9.11943 23.8185 9.07898C23.976 9.03852 24.1431 9.06184 24.2834 9.14387C24.7079 9.37587 40.5324 36.9599 40.8287 37.2799C40.8809 37.3734 40.9074 37.479 40.9057 37.586C40.9039 37.6931 40.8739 37.7978 40.8186 37.8895C40.7633 37.9812 40.6848 38.0568 40.591 38.1085C40.4971 38.1601 40.3912 38.1862 40.2841 38.1839H36.4721C36.5202 39.2025 36.5202 40.2185 36.4721 41.2319H40.3001C40.7862 41.235 41.2681 41.1419 41.7179 40.9578C42.1677 40.7737 42.5765 40.5022 42.9206 40.1593C43.2646 39.8163 43.5372 39.4085 43.7225 38.9596C43.9078 38.5106 44.0021 38.0295 44 37.5439C44.0004 36.9025 43.829 36.2727 43.5034 35.7199L27.1824 7.80787Z" fill="#362D59"/>
</svg>
