<svg width="48" height="48" viewBox="0 0 48 48" fill="none" xmlns="http://www.w3.org/2000/svg">
<path fill-rule="evenodd" clip-rule="evenodd" d="M23.99 43.9799C21.55 43.9799 20.11 43.4799 19.31 43.0799C18.75 42.7999 18.29 42.3199 17.99 41.6799C17.71 41.0799 17.63 40.3799 17.55 39.4199L17.545 39.3623C17.5066 38.92 17.4667 38.4599 17.39 37.9999C16.67 37.6399 15.99 37.2599 15.35 36.8199C15.005 36.8949 14.5925 37.0374 14.18 37.1799C14.0425 37.2274 13.905 37.2749 13.77 37.3199C12.67 37.7199 12.07 37.9199 11.53 37.9599C10.83 37.9999 10.19 37.8599 9.64998 37.5199C8.90998 37.0599 7.74998 36.0599 6.52998 33.9599C5.28998 31.8799 4.98998 30.3799 4.94998 29.4799C4.92998 28.8399 5.10998 28.1999 5.50998 27.6199C5.86169 27.1314 6.40428 26.7002 7.15641 26.1025L7.20998 26.0599C7.33145 25.9616 7.45793 25.8616 7.58652 25.7599C7.90259 25.51 8.23145 25.25 8.52998 24.9799C8.36998 24.2999 8.36998 23.5199 8.40998 22.7399C8.20176 22.5456 7.90682 22.3127 7.60542 22.0747C7.4726 21.9698 7.33845 21.8639 7.20998 21.7599L7.02892 21.6163C6.33987 21.07 5.82313 20.6604 5.50998 20.1999C5.12998 19.6799 4.92998 19.0399 4.94998 18.3999C4.98998 17.4999 5.28998 15.9999 6.50998 13.9199C7.72998 11.8399 8.88998 10.8199 9.62998 10.3599C10.17 10.0199 10.83 9.87992 11.51 9.91992C12.07 9.95992 12.67 10.1599 13.77 10.5599L14.0952 10.6689C14.5384 10.8176 14.9971 10.9716 15.43 11.0999C15.99 10.6199 16.69 10.2199 17.39 9.87992C17.4667 9.41994 17.5066 8.95995 17.545 8.51757L17.55 8.45992L17.5657 8.30838C17.657 7.42553 17.7249 6.76896 17.99 6.21992C18.29 5.59992 18.75 5.11992 19.31 4.81992C20.09 4.39992 21.55 3.91992 23.97 3.91992C26.39 3.91992 27.85 4.41992 28.65 4.81992C29.21 5.11992 29.67 5.59992 29.97 6.21992C30.262 6.82352 30.3077 7.54085 30.3653 8.44573L30.37 8.51992C30.39 8.95992 30.43 9.43992 30.49 9.89992C31.21 10.2599 31.89 10.6599 32.51 11.0799C32.99 10.9599 33.59 10.7599 34.13 10.5799C35.27 10.1999 35.89 9.99992 36.43 9.95992C37.13 9.89992 37.77 10.0599 38.31 10.4199C39.07 10.8999 40.21 11.9199 41.43 14.0199C42.65 16.1199 42.95 17.6199 42.99 18.5199C43.01 19.1599 42.83 19.7999 42.45 20.3599C42.09 20.8799 41.53 21.3199 40.73 21.8999C40.35 22.1799 39.93 22.4999 39.55 22.8199C39.57 22.8199 39.57 22.8799 39.57 22.9999C39.5835 23.445 39.5788 23.9356 39.5743 24.4042C39.5721 24.6304 39.57 24.8515 39.57 25.0599C39.89 25.4599 40.35 25.8199 40.77 26.1399C41.65 26.7999 42.15 27.2199 42.49 27.6999C42.89 28.2799 43.07 28.9199 43.05 29.5599C43.01 30.4399 42.71 31.9399 41.49 34.0399C40.27 36.1399 39.11 37.1399 38.35 37.6199C37.81 37.9599 37.17 38.0999 36.49 38.0599C36.0135 38.0246 35.4903 37.8648 34.6044 37.5941L34.23 37.4799C34.0546 37.426 33.8724 37.3674 33.6879 37.3082C33.3256 37.1918 32.9546 37.0727 32.61 36.9799C32.01 37.4599 31.33 37.8599 30.61 38.1999C30.5335 38.6399 30.4935 39.0799 30.4552 39.5024L30.45 39.5599C30.37 40.4799 30.29 41.1999 30.01 41.7799C29.71 42.3999 29.25 42.8799 28.67 43.1799C27.89 43.5799 26.45 44.0799 24.01 44.0799L23.99 43.9799ZM23.99 29.9399C27.31 29.9399 29.99 27.2599 29.99 23.9399C29.99 20.6199 27.31 17.9399 23.99 17.9399C20.67 17.9399 17.99 20.6199 17.99 23.9399C17.99 27.2599 20.67 29.9399 23.99 29.9399Z" fill="#646464"/>
</svg>
