<svg width="48" height="48" viewBox="0 0 48 48" fill="none" xmlns="http://www.w3.org/2000/svg">
<path fill-rule="evenodd" clip-rule="evenodd" d="M23.9998 15.8062C28.5237 15.8066 32.1928 19.4756 32.1931 23.9995C32.1927 28.5234 28.5236 32.1906 23.9998 32.1909C19.4759 32.1906 15.8088 28.5234 15.8083 23.9995C15.8087 19.4756 19.4758 15.8066 23.9998 15.8062ZM23.9998 20.1909C21.8973 20.1913 20.1934 21.8971 20.1931 23.9995C20.1935 26.1019 21.8974 27.8058 23.9998 27.8062C26.1021 27.8058 27.8079 26.1019 27.8083 23.9995C27.8081 21.8971 26.1022 20.1913 23.9998 20.1909Z" fill="#646464"/>
<path fill-rule="evenodd" clip-rule="evenodd" d="M21.9197 4.17728C23.3626 3.64911 24.9436 3.68696 26.3669 4.29056L27.6521 4.85892C29.0972 5.52302 31.0059 6.48039 33.2146 7.78275L34.2791 8.42337C36.6751 9.89637 38.4635 11.2043 39.5857 12.0816L39.824 12.2788C40.991 13.2883 41.7369 14.6931 41.9333 16.23L42.0935 17.648C42.2518 19.2527 42.3923 21.4087 42.3923 23.9995C42.3923 26.5902 42.2518 28.7463 42.0935 30.3511L41.9333 31.7691C41.737 33.3058 40.9909 34.7106 39.824 35.7202L39.5857 35.9175C38.4637 36.7946 36.675 38.1028 34.2791 39.5757L33.2146 40.2163C31.0062 41.5186 29.0972 42.4761 27.6521 43.1402L26.3669 43.7085C24.9435 44.3122 23.3627 44.3501 21.9197 43.8218L21.6345 43.7085C20.3293 43.155 18.3199 42.2265 15.865 40.8394L14.7869 40.2163C12.5848 38.9179 10.8229 37.7135 9.53882 36.7691L8.41577 35.9175C7.27425 35.0251 6.49318 33.7723 6.17554 32.3745L6.06812 31.7691C5.85972 30.1359 5.60913 27.454 5.60913 23.9995C5.60916 20.545 5.85972 17.8631 6.06812 16.23L6.17554 15.6226C6.49355 14.2259 7.27499 12.9734 8.41577 12.0816L9.53882 11.23C10.8228 10.2856 12.5852 9.08101 14.7869 7.78275L15.865 7.1597C18.3196 5.77275 20.3294 4.84405 21.6345 4.29056L21.9197 4.17728ZM24.656 8.32767C24.2321 8.1479 23.7694 8.14814 23.3455 8.32767C22.1739 8.82451 20.3162 9.68058 18.0232 10.9761L17.0134 11.5601C14.9514 12.776 13.313 13.8979 12.1365 14.7632L11.115 15.5367C10.7838 15.7958 10.5468 16.1654 10.449 16.5972L10.4158 16.7867C10.2276 18.2617 9.99197 20.7556 9.99194 23.9995C9.99194 27.2433 10.2276 29.7373 10.4158 31.2124L10.449 31.4019C10.5467 31.834 10.7836 32.2032 11.115 32.4624L12.1365 33.2359C13.3131 34.1013 14.9511 35.2229 17.0134 36.439L18.0232 37.023C20.3161 38.3185 22.1738 39.1745 23.3455 39.6714L23.5056 39.732C23.8839 39.85 24.2849 39.8288 24.656 39.6714L25.822 39.1558C27.1446 38.548 28.9185 37.6582 30.9861 36.439L31.9822 35.8413C34.2215 34.4647 35.8749 33.2516 36.8845 32.4624L37.0212 32.3452C37.3246 32.0557 37.5264 31.6615 37.5837 31.2124L37.7302 29.9195C37.8758 28.4438 38.0076 26.4324 38.0076 23.9995C38.0075 21.5665 37.8758 19.5553 37.7302 18.0796L37.5837 16.7867C37.5263 16.3376 37.3248 15.9434 37.0212 15.6538L36.8845 15.5367C35.8748 14.7474 34.2217 13.5345 31.9822 12.1577L30.9861 11.5601C28.9183 10.3408 27.1446 9.45112 25.822 8.84329L24.656 8.32767Z" fill="#646464"/>
</svg>
