<svg width="48" height="48" viewBox="0 0 48 48" fill="none" xmlns="http://www.w3.org/2000/svg">
<path fill-rule="evenodd" clip-rule="evenodd" d="M13.67 18C11.3236 17.9998 10.4303 17.9278 9.49171 17.8522L9.34 17.84L8.44 17.76C6.18 17.6 4.42 15.94 4.16 13.72C4.06 12.84 4 11.92 4 11C4 10.08 4.06 9.16 4.16 8.28C4.42 6.06 6.18 4.4 8.42 4.24L9.32 4.16L9.45303 4.14932C10.4015 4.07303 11.3096 4 13.66 4C16.3443 4 17.5909 4.09459 18.8716 4.19178L18.98 4.2L19.56 4.24C21.82 4.4 23.58 6.06 23.84 8.28C23.867 8.51735 23.891 8.75761 23.9118 9H24.8401C27.0401 9 29.0001 10.14 30.0801 12.08C31.1601 14 31.1001 16.28 29.9601 18.16L21.4601 31.96C20.9001 32.86 21.2401 33.68 21.4201 33.98C21.6001 34.28 22.1001 35 23.1601 35H24.1072C24.1282 34.756 24.1526 34.5158 24.18 34.28C24.44 32.06 26.2 30.4 28.46 30.24L29.36 30.16C29.4046 30.1564 29.4488 30.1529 29.4931 30.1493C30.4415 30.073 31.3496 30 33.7 30C36.4025 30 37.6477 30.0959 38.9188 30.1937L39 30.2L39.6 30.24C41.84 30.4 43.6 32.06 43.86 34.28C43.96 35.14 44.02 36.06 44.02 37C44.02 37.94 43.96 38.86 43.86 39.72C43.6 41.94 41.84 43.6 39.58 43.76L38.98 43.8C38.9354 43.8034 38.8908 43.8068 38.8463 43.8101C37.5757 43.9067 36.3466 44 33.68 44C31.3261 44 30.4317 43.9279 29.4917 43.8522C29.4413 43.8481 29.3909 43.8441 29.34 43.84L28.44 43.76C26.2 43.6 24.44 41.94 24.18 39.72C24.1526 39.4842 24.1282 39.244 24.1072 39H23.1601C20.9601 39 19.0001 37.86 17.9201 35.92C16.8401 34 16.9001 31.72 18.0401 29.84L26.5401 16.04C27.1001 15.14 26.7601 14.32 26.5801 14.02C26.4001 13.72 25.9001 13 24.8401 13H23.9118C23.891 13.2424 23.867 13.4826 23.84 13.72C23.58 15.94 21.82 17.6 19.56 17.76L18.98 17.8L18.8716 17.8082C17.5924 17.9053 16.3474 17.9998 13.67 18ZM13.68 8C11.38 8 10.62 8.06 9.68 8.14L8.72 8.22C8.46 8.22 8.18 8.38 8.14 8.74C8.06 9.46 8.02 10.22 8.02 11C8.02 11.78 8.06 12.54 8.14 13.26C8.18 13.62 8.48 13.76 8.72 13.78L9.68 13.86C10.62 13.94 11.38 14 13.68 14C16.28 14 17.46 13.92 18.68 13.82L19.28 13.78C19.54 13.78 19.82 13.62 19.86 13.26C19.94 12.54 19.98 11.78 19.98 11C19.98 10.22 19.94 9.46 19.86 8.74C19.82 8.38 19.52 8.24 19.28 8.22L18.68 8.18C17.44 8.08 16.28 8 13.68 8ZM29.68 34.14C30.64 34.06 31.38 34 33.68 34C36.28 34 37.44 34.08 38.68 34.18L39.3 34.22C39.42 34.22 39.82 34.3 39.88 34.74C39.96 35.46 40 36.22 40 37C40 37.78 39.96 38.54 39.88 39.26C39.84 39.7 39.42 39.78 39.3 39.78L38.68 39.82C37.44 39.92 36.28 40 33.68 40C31.38 40 30.62 39.94 29.68 39.86L28.72 39.78C28.6 39.78 28.2 39.7 28.14 39.26C28.06 38.54 28.02 37.78 28.02 37C28.02 36.22 28.06 35.46 28.14 34.74C28.18 34.3 28.6 34.22 28.72 34.22L29.68 34.14Z" fill="#646464"/>
</svg>
