<svg width="48" height="48" viewBox="0 0 48 48" fill="none" xmlns="http://www.w3.org/2000/svg">
<path fill-rule="evenodd" clip-rule="evenodd" d="M24 10.5454C16.8001 10.5454 11.9172 10.8005 8.94058 11.0365C7.5892 11.1436 6.56869 12.1524 6.44589 13.5041C6.22367 15.95 6 19.5238 6 23.9999C6 28.476 6.22368 32.0499 6.44589 34.4957C6.5687 35.8475 7.58922 36.8563 8.94058 36.9634C11.9171 37.1994 16.8001 37.4545 24 37.4545C31.1999 37.4545 36.0828 37.1994 39.0594 36.9634C40.4107 36.8563 41.4313 35.8475 41.5541 34.4957C41.7763 32.0499 42 28.476 42 23.9999C42 19.5238 41.7763 15.95 41.5541 13.5041C41.4313 12.1524 40.4108 11.1436 39.0594 11.0365C36.0829 10.8005 31.1999 10.5454 24 10.5454ZM8.62444 7.04901C11.7174 6.80379 16.7064 6.54541 24 6.54541C31.2936 6.54541 36.2827 6.80379 39.3755 7.04901C42.6709 7.31027 45.2387 9.8517 45.5377 13.1422C45.7697 15.6961 46 19.3912 46 23.9999C46 28.6086 45.7697 32.3038 45.5377 34.8576C45.2387 38.1482 42.6709 40.6896 39.3755 40.9509C36.2826 41.1961 31.2935 41.4545 24 41.4545C16.7064 41.4545 11.7174 41.1961 8.62448 40.9509C5.32909 40.6896 2.76125 38.1482 2.46229 34.8576C2.23027 32.3038 2 28.6086 2 23.9999C2 19.3912 2.23026 15.6961 2.46229 13.1422C2.76124 9.8517 5.32909 7.31027 8.62444 7.04901Z" fill="#646464"/>
<path fill-rule="evenodd" clip-rule="evenodd" d="M35.7271 13.2977C34.7585 13.2209 33.2246 13.1422 31.0038 13.1422C28.783 13.1422 27.2491 13.2209 26.2805 13.2977C24.6115 13.43 23.2996 14.7288 23.1482 16.3946C23.0752 17.1986 23.0038 22.5709 23.0038 23.9999C23.0038 25.4289 23.0752 30.4003 23.1482 31.2042C23.2996 32.87 24.6115 34.1689 26.2805 34.3012C27.2491 34.378 28.783 34.4566 31.0038 34.4566C33.2246 34.4566 34.7585 34.378 35.7271 34.3012C37.3961 34.1689 38.708 32.87 38.8594 31.2042C38.9324 30.4003 39.0038 25.4289 39.0038 23.9999C39.0038 22.5709 38.9324 17.1986 38.8594 16.3946C38.708 14.7288 37.3961 13.43 35.7271 13.2977Z" fill="#646464"/>
</svg>
