<svg width="48" height="48" viewBox="0 0 48 48" fill="none" xmlns="http://www.w3.org/2000/svg">
<path d="M4.84436 43.1578L4.84089 43.1562C4.2514 42.9051 3.8915 42.1443 3.99111 41.3602C4.09056 40.5761 4.6201 40 5.24142 40H13.6861C14.3073 40 14.837 40.5761 14.9364 41.3602C15.0359 42.1443 14.6752 42.9055 14.0858 43.1566L14.0832 43.1578L14.0698 43.1633L14.0454 43.1731C14.0267 43.1805 14.0029 43.1897 13.9739 43.2003C13.9159 43.2214 13.8375 43.2484 13.7376 43.279C13.5379 43.3403 13.2528 43.4163 12.8759 43.4905C12.1221 43.6388 11.0019 43.7793 9.46372 43.7793C7.92558 43.7793 6.80533 43.6388 6.05161 43.4905C5.67466 43.4163 5.38957 43.3403 5.18987 43.279C5.08994 43.2484 5.0115 43.2214 4.95358 43.2003C4.92466 43.1897 4.90083 43.1805 4.88208 43.1731L4.85769 43.1633L4.84436 43.1578Z" fill="#646464"/>
<path d="M33.8746 43.1578L33.8712 43.1562C33.2817 42.9051 32.9218 42.1443 33.0214 41.3602C33.1208 40.5761 33.6504 40 34.2717 40H42.7164C43.3376 40 43.8672 40.5761 43.9667 41.3602C44.0662 42.1443 43.7055 42.9055 43.1161 43.1566L43.1134 43.1578L43.1001 43.1633L43.0757 43.1731L43.0495 43.1833L43.0041 43.2003C42.9462 43.2214 42.8678 43.2484 42.7678 43.279C42.5681 43.3403 42.283 43.4163 41.9062 43.4905C41.1524 43.6388 40.0322 43.7793 38.494 43.7793C36.9558 43.7793 35.8356 43.6388 35.0819 43.4905C34.7049 43.4163 34.4198 43.3403 34.2201 43.279C34.1202 43.2484 34.0418 43.2214 33.9839 43.2003C33.9549 43.1897 33.9311 43.1805 33.9124 43.1731L33.888 43.1633L33.8746 43.1578Z" fill="#646464"/>
<path d="M19.3805 43.1578L19.377 43.1562C18.7875 42.9051 18.4276 42.1444 18.5272 41.3602C18.6267 40.5761 19.1562 40 19.7775 40H28.2222C28.8435 40 29.3731 40.5761 29.4725 41.3602C29.5721 42.1444 29.2114 42.9055 28.622 43.1567L28.6193 43.1578L28.606 43.1634L28.5816 43.1731C28.5628 43.1805 28.539 43.1897 28.51 43.2004C28.4521 43.2214 28.3736 43.2484 28.2737 43.2791C28.074 43.3403 27.7889 43.4163 27.412 43.4905C26.6582 43.6388 25.5381 43.7793 23.9999 43.7793C22.4617 43.7793 21.3415 43.6388 20.5877 43.4905C20.2108 43.4163 19.9257 43.3403 19.726 43.2791C19.6261 43.2484 19.5476 43.2214 19.4897 43.2004C19.4608 43.1897 19.437 43.1805 19.4182 43.1731L19.3938 43.1634L19.3805 43.1578Z" fill="#646464"/>
</svg>
