<svg width="48" height="48" viewBox="0 0 48 48" fill="none" xmlns="http://www.w3.org/2000/svg">
<path d="M9.4635 43.7793C8.75572 43.7793 8.1413 43.7563 7.61464 43.7209C5.50551 43.5789 4.12407 41.775 4.05416 39.7534C4.01154 38.5213 3.97461 36.7974 3.97461 34.5232C3.97461 32.2489 4.01154 31.1696 4.05416 29.9375C4.12407 27.916 5.50551 26.1121 7.61465 25.9701C8.14131 25.9346 8.75572 25.9116 9.4635 25.9116C10.1713 25.9116 10.7857 25.9346 11.3123 25.9701C13.4215 26.1121 14.8029 27.916 14.8728 29.9375C14.9155 31.1696 14.9524 32.2489 14.9524 34.5232C14.9524 36.7974 14.9155 38.5213 14.8728 39.7534C14.8029 41.775 13.4215 43.5789 11.3123 43.7209C10.7857 43.7563 10.1713 43.7793 9.4635 43.7793Z" fill="#646464"/>
<path d="M33.8712 43.1562L33.8746 43.1577L33.888 43.1633L33.9124 43.173C33.9311 43.1805 33.9549 43.1897 33.9839 43.2003C34.0418 43.2214 34.1202 43.2483 34.2201 43.279C34.4198 43.3403 34.7049 43.4163 35.0819 43.4905C35.8356 43.6388 36.9558 43.7793 38.494 43.7793C40.0322 43.7793 41.1524 43.6388 41.9062 43.4905C42.283 43.4163 42.5681 43.3403 42.7678 43.279C42.8678 43.2483 42.9462 43.2214 43.0041 43.2003L43.0495 43.1832L43.0757 43.173L43.1001 43.1633L43.1134 43.1577L43.1161 43.1566C43.7055 42.9055 44.0662 42.1443 43.9667 41.3602C43.8672 40.5761 43.3376 40 42.7164 40H34.2717C33.6504 40 33.1208 40.5761 33.0214 41.3602C32.9218 42.1443 33.2817 42.9051 33.8712 43.1562Z" fill="#646464"/>
<path d="M19.377 43.1562L19.3805 43.1578L19.3938 43.1633L19.4182 43.1731C19.437 43.1805 19.4608 43.1897 19.4897 43.2003C19.5476 43.2214 19.6261 43.2484 19.726 43.279C19.9257 43.3403 20.2108 43.4163 20.5877 43.4905C21.3415 43.6388 22.4617 43.7793 23.9999 43.7793C25.5381 43.7793 26.6582 43.6388 27.412 43.4905C27.7889 43.4163 28.074 43.3403 28.2737 43.279C28.3736 43.2484 28.4521 43.2214 28.51 43.2003C28.539 43.1897 28.5628 43.1805 28.5816 43.1731L28.606 43.1633L28.6193 43.1578L28.622 43.1566C29.2114 42.9055 29.5721 42.1443 29.4725 41.3602C29.3731 40.5761 28.8435 40 28.2222 40H19.7775C19.1562 40 18.6267 40.5761 18.5272 41.3602C18.4276 42.1443 18.7875 42.9051 19.377 43.1562Z" fill="#646464"/>
</svg>
