<svg width="48" height="48" viewBox="0 0 48 48" fill="none" xmlns="http://www.w3.org/2000/svg">
<path fill-rule="evenodd" clip-rule="evenodd" d="M19.1987 6C17.2087 6.00147 15.5981 7.61644 15.5996 9.60647C15.5981 11.5965 17.2102 13.2115 19.2002 13.2129H22.8008V9.60794C22.8023 7.61791 21.1902 6.00294 19.1987 6C19.2002 6 19.2002 6 19.1987 6ZM19.1987 15.6192H9.6001C7.61007 15.6207 5.99804 17.2357 5.99952 19.2257C5.99657 21.2157 7.6086 22.8307 9.59863 22.8336H19.1987C21.1888 22.8322 22.8008 21.2172 22.7993 19.2272C22.8008 17.2357 21.1888 15.6207 19.1987 15.6192Z" fill="#36C5F0"/>
<path fill-rule="evenodd" clip-rule="evenodd" d="M41.9995 19.2257C42.001 17.2357 40.389 15.6207 38.3989 15.6192C36.4089 15.6207 34.7969 17.2357 34.7983 19.2257V22.8336H38.3989C40.389 22.8322 42.001 21.2172 41.9995 19.2257ZM32.3994 19.2257V9.60647C32.4009 7.61791 30.7903 6.00294 28.8003 6C26.8103 6.00147 25.1982 7.61644 25.1997 9.60647V19.2257C25.1968 21.2157 26.8088 22.8307 28.7988 22.8336C30.7889 22.8322 32.4009 21.2172 32.3994 19.2257Z" fill="#2EB67D"/>
<path fill-rule="evenodd" clip-rule="evenodd" d="M28.7988 42.0721C30.7889 42.0706 32.4009 40.4556 32.3994 38.4656C32.4009 36.4756 30.7889 34.8606 28.7988 34.8591H25.1982V38.4656C25.1968 40.4542 26.8088 42.0691 28.7988 42.0721ZM28.7988 32.4514H38.3989C40.389 32.4499 42.001 30.8349 41.9995 28.8449C42.0024 26.8549 40.3904 25.2399 38.4004 25.237H28.8003C26.8103 25.2384 25.1982 26.8534 25.1997 28.8434C25.1982 30.8349 26.8088 32.4499 28.7988 32.4514Z" fill="#ECB22E"/>
<path fill-rule="evenodd" clip-rule="evenodd" d="M5.99952 28.8449C5.99804 30.8349 7.61007 32.4499 9.6001 32.4514C11.5901 32.4499 13.2022 30.8349 13.2007 28.8449V25.2384H9.6001C7.61007 25.2399 5.99804 26.8549 5.99952 28.8449ZM15.5996 28.8449V38.4641C15.5967 40.4542 17.2087 42.0691 19.1987 42.0721C21.1888 42.0706 22.8008 40.4556 22.7993 38.4656V28.8478C22.8023 26.8578 21.1902 25.2428 19.2002 25.2399C17.2087 25.2399 15.5981 26.8549 15.5996 28.8449Z" fill="#E01E5A"/>
</svg>
