<svg width="48" height="48" viewBox="0 0 48 48" fill="none" xmlns="http://www.w3.org/2000/svg">
<path d="M32.586 28.5859C33.3671 27.8049 34.6331 27.8049 35.4142 28.5859C36.1952 29.367 36.1952 30.633 35.4142 31.414L25.4142 41.414C24.6331 42.1951 23.3671 42.1951 22.586 41.414L12.586 31.414C11.805 30.633 11.805 29.367 12.586 28.5859C13.3671 27.8049 14.6331 27.8049 15.4142 28.5859L24.0001 37.1718L32.586 28.5859Z" fill="#646464"/>
<path d="M15.4142 19.414C14.6331 20.1951 13.3671 20.1951 12.586 19.414C11.805 18.633 11.805 17.367 12.586 16.5859L22.586 6.58591C23.3671 5.80486 24.6331 5.80486 25.4142 6.58591L35.4142 16.5859C36.1952 17.367 36.1952 18.633 35.4142 19.414C34.6331 20.1951 33.3671 20.1951 32.586 19.414L24.0001 10.8281L15.4142 19.414Z" fill="#646464"/>
</svg>
