<svg width="48" height="48" viewBox="0 0 48 48" fill="none" xmlns="http://www.w3.org/2000/svg">
<path d="M24.0029 4C12.9572 4 4.00293 12.9543 4.00293 24C4.00293 34.2959 11.7811 42.7724 21.7832 43.878C22.8811 43.9994 23.8695 43.2078 23.9908 42.1099C24.1122 41.012 23.3206 40.0236 22.2227 39.9023C14.2249 39.0181 8.00293 32.2343 8.00293 24C8.00293 15.1634 15.1663 8 24.0029 8C32.8395 8 40.0029 15.1634 40.0029 24C40.0029 25.1046 40.8984 26 42.0029 26C43.1075 26 44.0029 25.1046 44.0029 24C44.0029 12.9543 35.0487 4 24.0029 4Z" fill="#646464"/>
<path d="M20.3678 13.0995C21.7974 10 26.2026 10 27.6322 13.0995L29.2971 16.709L33.2445 17.177C36.634 17.5789 37.9953 21.7685 35.4893 24.0859L32.571 26.7847L32.8122 27.9991C33.0275 29.0825 32.3238 30.1353 31.2404 30.3505C30.157 30.5658 29.1042 29.8621 28.8889 28.7787L28.6477 27.5643C28.3765 26.1998 28.8338 24.7925 29.8551 23.848L32.7735 21.1492L28.8262 20.6812C27.4447 20.5174 26.2476 19.6476 25.6649 18.3844L24 14.7749L22.3351 18.3844C21.7525 19.6476 20.5553 20.5174 19.1739 20.6812L15.2265 21.1492L18.1449 23.848C19.1662 24.7925 19.6235 26.1998 19.3524 27.5643L18.5777 31.463L23.0231 28.9747C23.987 28.4352 25.2057 28.7792 25.7452 29.743C26.2847 30.7068 25.9408 31.9256 24.9769 32.4651L20.5315 34.9534C17.553 36.6206 13.9892 34.0314 14.6544 30.6835L15.4291 26.7847L12.5107 24.0859C10.0047 21.7685 11.366 17.5789 14.7556 17.177L18.7029 16.709L20.3678 13.0995Z" fill="#646464"/>
<path d="M43.2361 29.4255C44.1057 30.1066 44.2586 31.3637 43.5775 32.2333L35.6328 42.377C34.55 43.7595 32.5165 43.9205 31.2296 42.7256L26.642 38.4657C25.8326 37.7141 25.7857 36.4486 26.5374 35.6392C27.289 34.8298 28.5544 34.7829 29.3638 35.5345L33.1544 39.0543L40.4284 29.7669C41.1095 28.8973 42.3666 28.7445 43.2361 29.4255Z" fill="#646464"/>
</svg>
