<svg width="48" height="48" viewBox="0 0 48 48" fill="none" xmlns="http://www.w3.org/2000/svg">
<path fill-rule="evenodd" clip-rule="evenodd" d="M24 8C15.1634 8 8 15.1634 8 24C8 32.8366 15.1634 40 24 40C32.8366 40 40 32.8366 40 24C40 15.1634 32.8366 8 24 8ZM4 24C4 12.9543 12.9543 4 24 4C35.0457 4 44 12.9543 44 24C44 35.0457 35.0457 44 24 44C12.9543 44 4 35.0457 4 24Z" fill="#30A46C"/>
<path d="M19.1666 19.3082C19.1666 17.4251 21.4203 16.3372 23.0269 17.4448L29.8323 22.1366C31.167 23.0567 31.167 24.9433 29.8323 25.8634L23.0269 30.5552C21.4203 31.6628 19.1666 30.5749 19.1666 28.6918V19.3082Z" fill="#30A46C"/>
</svg>
