<svg width="48" height="48" viewBox="0 0 48 48" fill="none" xmlns="http://www.w3.org/2000/svg">
<path opacity="0.3" d="M23.1525 8.26132C22.1119 6.83058 20.3572 5.96344 18.4818 6.00118C15.1938 6.06737 12.4986 6.23332 10.5051 6.39934C8.11767 6.59818 6.28892 8.2871 6.09478 10.4774C5.84953 13.2444 5.59082 17.6592 5.59082 23.9712C5.59082 29.9392 5.8221 32.4751 6.05461 35.0246C6.07167 35.2116 6.08873 35.3987 6.1057 35.5872C6.29748 37.7167 8.04311 39.3475 10.3661 39.5239C13.2687 39.7441 17.1237 41.25 24.3408 41.25C27.4431 41.25 25.7445 37.3292 22.6274 36.3979C18.5003 35.1648 15.7273 31.3853 15.7273 27.273C15.7273 22.2522 19.8608 17.7275 25.5455 17.7275C28.9402 17.7275 31.8053 19.3699 33.5422 21.7366C36.6077 20.5467 40.0226 22.0625 41.6836 22.7726C41.6992 19.6549 41.4137 18.8383 41.0878 15.7341C40.8536 13.5029 38.943 11.7993 36.5055 11.6214C34.8231 11.4987 33.6177 11.5202 31.769 11.5532C30.4308 11.5771 28.7554 11.6071 26.3181 11.5926C25.5155 11.5879 25.0588 10.9262 24.6178 10.2871C24.5434 10.1793 24.4695 10.0722 24.3944 9.96901L23.1525 8.26132Z" fill="#646464"/>
<path fill-rule="evenodd" clip-rule="evenodd" d="M20.4341 9.37072C19.8468 8.48976 18.8724 7.97849 17.8606 8.00071C14.8959 8.06582 12.4711 8.22894 10.6857 8.39115C9.46389 8.50215 8.5544 9.42072 8.45539 10.6393C8.23439 13.3595 8 16.8737 8 23.125C8 29.4651 8.241 32.707 8.46519 35.4226C8.56212 36.5968 9.40645 37.4366 10.5424 37.5307C13.1386 37.7456 17.4288 37.9711 24 37.9711C25.1046 37.9711 26 38.8666 26 39.9711C26 41.0757 25.1046 41.9711 24 41.9711C17.3398 41.9711 12.9376 41.7427 10.2123 41.517C7.08941 41.2585 4.73341 38.8366 4.47875 35.7517C4.24748 32.9503 4 29.5963 4 23.125C4 16.7524 4.23991 13.1293 4.46853 10.3154C4.72544 7.1535 7.16866 4.69421 10.3238 4.40755C12.1932 4.23771 14.7096 4.06894 17.7728 4.00167C20.1992 3.94839 22.4419 5.17141 23.7623 7.15192L24.9007 8.85961C25.0037 9.01408 25.1868 9.11721 25.3925 9.11854C30.7639 9.15321 34.8547 9.38359 37.5596 9.59895C40.7495 9.85291 43.2835 12.3057 43.5922 15.5137C43.7029 16.6634 43.7053 17.26 43.6763 17.9995C43.6715 18.1216 43.666 18.246 43.6602 18.3775C43.634 18.9694 43.6014 19.7032 43.6014 21C43.6014 22.1046 42.706 23 41.6014 23C40.4969 23 39.6014 22.1046 39.6014 21C39.6014 19.6093 39.6378 18.7913 39.6643 18.1943C39.6699 18.0685 39.6751 17.9524 39.6794 17.8429C39.7014 17.2818 39.7038 16.8654 39.6106 15.8969C39.4899 14.6425 38.5211 13.6882 37.2422 13.5863C34.6303 13.3784 30.6368 13.1525 25.3667 13.1185C23.8529 13.1087 22.4234 12.3547 21.5725 11.0784L20.4341 9.37072Z" fill="#646464"/>
<path fill-rule="evenodd" clip-rule="evenodd" d="M25.5455 24.7275C24.1396 24.7275 23 25.8672 23 27.273C23 28.6788 24.1396 29.8185 25.5455 29.8185H36.1716L34.1312 27.7781C33.3502 26.9971 33.3502 25.7307 34.1312 24.9497C34.9123 24.1686 36.1786 24.1686 36.9597 24.9497L42.4142 30.4042C43.1953 31.1853 43.1953 32.4516 42.4142 33.2327L36.9597 38.6872C36.1786 39.4683 34.9123 39.4683 34.1312 38.6872C33.3502 37.9062 33.3502 36.6398 34.1312 35.8588L36.1716 33.8185H25.5455C21.9305 33.8185 19 30.888 19 27.273C19 23.658 21.9305 20.7275 25.5455 20.7275C28.3617 20.7275 30.7577 22.5052 31.6822 24.9929C32.067 26.0282 31.5396 27.1795 30.5043 27.5643C29.4689 27.9491 28.3176 27.4217 27.9328 26.3864C27.5717 25.4146 26.6363 24.7275 25.5455 24.7275Z" fill="#646464"/>
</svg>
