<svg width="48" height="48" viewBox="0 0 48 48" fill="none" xmlns="http://www.w3.org/2000/svg">
<path fill-rule="evenodd" clip-rule="evenodd" d="M16.7999 34.2201C17.3799 34.6401 18.0599 34.8601 18.7599 34.8601V34.8401C19.1999 34.8401 19.6599 34.7601 20.0799 34.5801L23.9999 32.9201L27.9199 34.5801C29.0199 35.0401 30.2399 34.9001 31.1999 34.2001C32.1599 33.5001 32.6799 32.3801 32.5799 31.2001L32.2199 26.9601L35.0199 23.7401C35.7999 22.8401 36.0599 21.6201 35.6799 20.5001C35.2999 19.3801 34.3999 18.5401 33.2399 18.2801L29.0999 17.3201L26.8999 13.6801C26.2799 12.6601 25.2199 12.0601 24.0199 12.0601C22.8199 12.0601 21.7599 12.6601 21.1399 13.6801L18.9399 17.3201L14.7999 18.2801C13.6399 18.5601 12.7199 19.3801 12.3599 20.5201C11.9999 21.6601 12.2399 22.8601 13.0199 23.7601L15.7999 26.9801L15.4399 31.2201C15.3199 32.4001 15.8399 33.5201 16.7999 34.2201ZM25.2999 29.1401C24.8999 28.9601 24.4399 28.8801 23.9999 28.8801H23.9599C23.5199 28.8801 23.0799 28.9601 22.6599 29.1401L19.4799 30.4801L19.7799 27.0401C19.8599 26.1401 19.5799 25.2401 18.9799 24.5601L16.7199 21.9601L20.0799 21.1801C20.9599 20.9801 21.7399 20.4201 22.1999 19.6401L23.9799 16.6801L25.7599 19.6401C26.2199 20.4201 26.9999 20.9801 27.8799 21.1801L31.2399 21.9601L28.9799 24.5601C28.3999 25.2401 28.0999 26.1401 28.1799 27.0401L28.4799 30.4801L25.2999 29.1401Z" fill="#646464"/>
<path fill-rule="evenodd" clip-rule="evenodd" d="M24 44C35.04 44 44 35.04 44 24C44 12.96 35.04 4 24 4C12.96 4 4 12.96 4 24C4 35.04 12.96 44 24 44ZM24 40C32.84 40 40 32.84 40 24C40 15.16 32.84 8 24 8C15.16 8 8 15.16 8 24C8 32.84 15.16 40 24 40Z" fill="#646464"/>
</svg>
