<svg width="48" height="48" viewBox="0 0 48 48" fill="none" xmlns="http://www.w3.org/2000/svg">
<path fill-rule="evenodd" clip-rule="evenodd" d="M20.3698 7.03616C21.7995 3.93668 26.2046 3.93667 27.6343 7.03616L31.4675 15.3467L40.5559 16.4243C43.9454 16.8261 45.3067 21.0157 42.8007 23.3332L36.0815 29.5469L37.8651 38.5234C38.5303 41.8713 34.9665 44.4606 31.988 42.7934L24.002 38.3231L16.0161 42.7934C13.0376 44.4606 9.47376 41.8713 10.139 38.5234L11.9226 29.5469L5.20337 23.3332C2.69737 21.0157 4.05862 16.8261 7.44821 16.4243L16.5365 15.3467L20.3698 7.03616ZM27.8353 17.0221L24.002 8.71155L20.1688 17.0221C19.5861 18.2853 18.3889 19.1551 17.0075 19.3189L7.91917 20.3964L14.6384 26.6102C15.6597 27.5547 16.117 28.962 15.8459 30.3265L14.0623 39.303L22.0483 34.8328C23.2622 34.1533 24.7419 34.1533 25.9558 34.8328L33.9418 39.303L32.1582 30.3265C31.8871 28.962 32.3443 27.5547 33.3657 26.6102L40.0849 20.3964L30.9966 19.3189C29.6151 19.1551 28.418 18.2853 27.8353 17.0221Z" fill="#646464"/>
</svg>
