<svg width="48" height="48" viewBox="0 0 48 48" fill="none" xmlns="http://www.w3.org/2000/svg">
<path d="M9.63527 40.8587L8.39615 7.84178C8.35523 6.75137 9.19133 5.82725 10.2804 5.75918L38.3636 4.00398C39.4721 3.9347 40.4269 4.77718 40.4962 5.88571C40.4988 5.92748 40.5001 5.96932 40.5001 6.01116V41.9889C40.5001 43.0996 39.5997 44 38.489 44C38.4589 44 38.4288 43.9993 38.3988 43.998L11.5547 42.7923C10.5092 42.7454 9.67452 41.9045 9.63527 40.8587Z" fill="#FF4785"/>
<mask id="mask0_3_18339" style="mask-type:luminance" maskUnits="userSpaceOnUse" x="8" y="4" width="33" height="40">
<path d="M9.63527 40.8587L8.39615 7.84178C8.35523 6.75137 9.19133 5.82725 10.2804 5.75918L38.3636 4.00398C39.4721 3.9347 40.4269 4.77718 40.4962 5.88571C40.4988 5.92748 40.5001 5.96932 40.5001 6.01116V41.9889C40.5001 43.0996 39.5997 44 38.489 44C38.4589 44 38.4288 43.9993 38.3988 43.998L11.5547 42.7923C10.5092 42.7454 9.67452 41.9045 9.63527 40.8587Z" fill="white"/>
</mask>
<g mask="url(#mask0_3_18339)">
<path d="M32.1025 8.91664L32.2944 4.30302L36.151 4L36.3172 8.75786C36.3229 8.92344 36.1934 9.06237 36.0278 9.06815C35.9569 9.07062 35.8874 9.04789 35.8317 9.00399L34.3444 7.83239L32.5836 9.16811C32.4516 9.26825 32.2634 9.24241 32.1633 9.11041C32.1211 9.05484 32.0996 8.98632 32.1025 8.91664ZM27.1702 19.0765C27.1702 19.859 32.4406 19.484 33.1481 18.9344C33.1481 13.6062 30.2891 10.8063 25.0538 10.8063C19.8186 10.8063 16.8853 13.6498 16.8853 17.9149C16.8853 25.3434 26.9103 25.4856 26.9103 29.5375C26.9103 30.6749 26.3534 31.3502 25.1281 31.3502C23.5315 31.3502 22.9003 30.5348 22.9746 27.7624C22.9746 27.161 16.8853 26.9735 16.6997 27.7624C16.2269 34.4808 20.4126 36.4187 25.2024 36.4187C29.8436 36.4187 33.4823 33.9448 33.4823 29.4664C33.4823 21.5048 23.3087 21.718 23.3087 17.7727C23.3087 16.1733 24.4969 15.96 25.2024 15.96C25.9449 15.96 27.2816 16.0909 27.1702 19.0765Z" fill="white"/>
</g>
</svg>
