<svg width="48" height="48" viewBox="0 0 48 48" fill="none" xmlns="http://www.w3.org/2000/svg">
<path d="M32.4614 28.0486C31.8392 28.614 31.7934 29.5768 32.3588 30.1988C33.3917 31.3352 33.8938 32.6171 33.8938 34.1177C33.8938 35.6962 32.9408 37.2204 31.2102 38.4093C29.3052 39.7182 26.7444 40.439 23.9997 40.439C21.2551 40.439 18.6943 39.7182 16.7892 38.4093C15.0586 37.2204 14.1056 35.6963 14.1056 34.1177C14.1056 33.2771 13.4241 32.5956 12.5834 32.5956C11.7428 32.5956 11.0613 33.2771 11.0613 34.1177C11.0613 36.7293 12.4833 39.1445 15.0653 40.9185C17.4726 42.5724 20.6456 43.4834 23.9997 43.4834C27.3537 43.4834 30.5268 42.5724 32.9341 40.9185C35.5161 39.1445 36.9381 36.7294 36.9381 34.1177C36.9381 31.857 36.1553 29.8496 34.6116 28.1512C34.0462 27.5291 33.0834 27.4832 32.4614 28.0486Z" fill="#646464"/>
<path d="M41.9613 22.4776H24.3625C18.8926 20.1183 15.9323 18.0159 15.9323 13.8817C15.9323 10.3962 19.5513 7.56037 23.9998 7.56037C28.4482 7.56037 32.0672 10.3962 32.0672 13.8817C32.0672 14.7224 32.7487 15.4038 33.5894 15.4038C34.4301 15.4038 35.1116 14.7224 35.1116 13.8817C35.1116 11.3213 33.9158 8.93328 31.7444 7.1573C29.6619 5.45408 26.9115 4.51605 23.9998 4.51605C21.088 4.51605 18.3377 5.45408 16.2552 7.1573C14.0838 8.93328 12.888 11.3213 12.888 13.8817C12.888 16.8852 14.0295 19.343 16.3776 21.3954C16.8195 21.7818 17.2933 22.1404 17.7864 22.4776H6.03829C5.1976 22.4776 4.51612 23.159 4.51612 23.9997C4.51612 24.8404 5.1976 25.5219 6.03829 25.5219H41.9613C42.802 25.5219 43.4835 24.8404 43.4835 23.9997C43.4835 23.159 42.802 22.4776 41.9613 22.4776Z" fill="#646464"/>
<path fill-rule="evenodd" clip-rule="evenodd" d="M15.9281 6.75741C18.1107 4.97231 20.9793 3.99944 23.9998 3.99944C27.0202 3.99944 29.8889 4.97231 32.0715 6.75741C34.3497 8.62083 35.6282 11.1502 35.6282 13.8817C35.6282 15.0077 34.7154 15.9205 33.5894 15.9205C32.4634 15.9205 31.5506 15.0077 31.5506 13.8817C31.5506 10.7917 28.2874 8.07698 23.9998 8.07698C19.7122 8.07698 16.4489 10.7917 16.4489 13.8817C16.4489 15.7984 17.1242 17.2235 18.4499 18.4686C19.7869 19.7244 21.7892 20.7999 24.4694 21.9609H41.9613C43.0873 21.9609 44.0001 22.8737 44.0001 23.9997C44.0001 25.1257 43.0873 26.0385 41.9613 26.0385H6.03829C4.91228 26.0385 3.99951 25.1257 3.99951 23.9997C3.99951 22.8737 4.91228 21.9609 6.03829 21.9609H16.2438C16.1744 21.9028 16.1056 21.8439 16.0375 21.7844C13.5821 19.6382 12.3714 17.0407 12.3714 13.8817C12.3714 11.1502 13.6498 8.62083 15.9281 6.75741ZM23.9998 5.03266C21.1968 5.03266 18.5646 5.93585 16.5823 7.5572C14.5178 9.24573 13.4046 11.4924 13.4046 13.8817C13.4046 16.7297 14.4768 19.0479 16.7176 21.0065C17.1412 21.3769 17.5982 21.7231 18.078 22.0511L19.4573 22.9942H6.03829C5.48291 22.9942 5.03274 23.4443 5.03274 23.9997C5.03274 24.5551 5.48291 25.0053 6.03829 25.0053H41.9613C42.5167 25.0053 42.9668 24.5551 42.9668 23.9997C42.9668 23.4443 42.5167 22.9942 41.9613 22.9942H24.2559L24.1579 22.9519C21.4173 21.7698 19.2369 20.6253 17.7425 19.2218C16.2206 17.7923 15.4157 16.0992 15.4157 13.8817C15.4157 10.0006 19.3905 7.04376 23.9998 7.04376C28.6091 7.04376 32.5839 10.0006 32.5839 13.8817C32.5839 14.4371 33.034 14.8872 33.5894 14.8872C34.1448 14.8872 34.595 14.437 34.595 13.8817C34.595 11.4924 33.4818 9.24573 31.4173 7.5572C29.435 5.93585 26.8028 5.03266 23.9998 5.03266ZM32.1139 27.6663C32.947 26.909 34.2365 26.9704 34.9939 27.8037C36.6226 29.5956 37.4547 31.7264 37.4547 34.1177C37.4547 36.935 35.9169 39.4959 33.2267 41.3443C30.7209 43.0658 27.4422 44 23.9997 44C20.5571 44 17.2785 43.0658 14.7727 41.3443C12.0825 39.4959 10.5447 36.9349 10.5447 34.1177C10.5447 32.9917 11.4574 32.079 12.5834 32.079C13.7095 32.079 14.6222 32.9917 14.6222 34.1177C14.6222 35.4723 15.4404 36.8558 17.0817 37.9835C18.8856 39.2229 21.3395 39.9224 23.9997 39.9224C26.66 39.9224 29.1138 39.2229 30.9177 37.9835C32.559 36.8558 33.3772 35.4723 33.3772 34.1177C33.3772 32.7489 32.9252 31.5901 31.9765 30.5463C31.2192 29.7131 31.2806 28.4236 32.1139 27.6663ZM34.2293 28.4986C33.8558 28.0877 33.2197 28.0574 32.8088 28.4309C32.3979 28.8044 32.3675 29.4404 32.741 29.8513C33.8582 31.0804 34.4104 32.4853 34.4104 34.1177C34.4104 35.9202 33.3225 37.5849 31.5028 38.8351C29.4965 40.2136 26.8289 40.9557 23.9997 40.9557C21.1706 40.9557 18.503 40.2136 16.4966 38.8351C14.6769 37.5849 13.589 35.9202 13.589 34.1177C13.589 33.5624 13.1388 33.1122 12.5834 33.1122C12.0281 33.1122 11.5779 33.5624 11.5779 34.1177C11.5779 36.5237 12.8841 38.7931 15.3578 40.4927C17.6668 42.079 20.734 42.9668 23.9997 42.9668C27.2653 42.9668 30.3326 42.079 32.6416 40.4927C35.1153 38.7931 36.4215 36.5238 36.4215 34.1177C36.4215 31.9877 35.6881 30.1036 34.2293 28.4986Z" fill="#646464"/>
</svg>
