<svg width="48" height="48" viewBox="0 0 48 48" fill="none" xmlns="http://www.w3.org/2000/svg">
<path d="M34.14 21.46H20.5C19.4 21.46 18.5 20.56 18.5 19.46C18.5 18.36 19.4 17.46 20.5 17.46H34.14C35.24 17.46 36.14 18.36 36.14 19.46C36.14 20.56 35.24 21.46 34.14 21.46Z" fill="#646464"/>
<path d="M20.5 29.46H34.88C35.98 29.46 36.88 28.56 36.88 27.46C36.88 26.36 35.98 25.46 34.88 25.46H20.5C19.4 25.46 18.5 26.36 18.5 27.46C18.5 28.56 19.4 29.46 20.5 29.46Z" fill="#646464"/>
<path d="M26.64 13.46H20.5C19.4 13.46 18.5 12.56 18.5 11.46C18.5 10.36 19.4 9.45996 20.5 9.45996H26.64C27.74 9.45996 28.64 10.36 28.64 11.46C28.64 12.56 27.74 13.46 26.64 13.46Z" fill="#646464"/>
<path fill-rule="evenodd" clip-rule="evenodd" d="M18 37.14C20.2 37.32 25.24 37.46 29 37.46C32.28 37.46 35.3 37.34 38 37.14C41.06 36.9 43.44 34.5 43.66 31.44C43.84 29.22 44 23.86 44 18.72C44 18.0657 43.9946 17.433 43.9894 16.8247C43.9846 16.2615 43.98 15.7192 43.98 15.2C43.9644 14.5912 43.8757 14.0189 43.7138 13.4927C43.6902 13.3529 43.6523 13.2146 43.6002 13.0801C43.0402 11.7201 41.7802 9.10011 39.3602 6.68011C39.3566 6.67654 39.3531 6.67298 39.3495 6.66942C36.9124 4.21633 34.278 2.93923 32.92 2.4C32.28 2.14 31.58 2 30.82 2H29C25.24 2 20.2 2.14 18 2.3C14.94 2.54 12.56 4.94 12.34 8C12.12 11 12 14.6 12 18.72C12 23.86 12.18 29.22 12.34 31.44C12.56 34.52 14.94 36.9 18 37.14ZM30.226 5.98H29.02L29 6C25 6 20.16 6.16 18.3 6.3C17.22 6.38 16.4 7.2 16.32 8.3C16.18 10.3 16 13.72 16 18.72C16 23.72 16.16 29.04 16.32 31.14C16.4 32.24 17.22 33.06 18.3 33.14C20.16 33.28 25 33.44 29 33.44C32.18 33.44 35.1 33.34 37.7 33.14C38.78 33.06 39.6 32.24 39.68 31.14C39.84 29.04 40 23.68 40 18.7C40 17.6722 40 16.6993 39.9886 15.7928C38.918 15.7626 37.7981 15.7114 36.7602 15.6601C33.2802 15.4801 30.5402 12.7401 30.3602 9.26011C30.3081 8.20552 30.256 7.06617 30.226 5.98ZM34.3174 8.63734C34.2991 8.3218 34.2802 7.99623 34.2802 7.68011C35.0002 8.16011 35.7602 8.76011 36.5002 9.50011C37.2402 10.2401 37.8602 11.0001 38.3402 11.7201C37.8602 11.7001 37.4002 11.6801 36.9402 11.6601C35.5202 11.6001 34.4202 10.4801 34.3402 9.06011C34.3339 8.92249 34.3257 8.78095 34.3174 8.63734Z" fill="#646464"/>
<path d="M11.28 44.4998C14.1 44.6998 15.24 44.6998 17.82 44.6998H17.8C21.22 44.6998 22.6 44.6798 24.8 44.4998C26.64 44.3398 27.26 44.0998 28.74 43.1598C29.68 42.5598 29.94 41.3398 29.36 40.3998C28.76 39.4798 27.54 39.1998 26.6 39.7798C25.92 40.2198 25.2133 40.4664 24.48 40.5198C22.42 40.6998 21.16 40.6998 17.8 40.6998C15.28 40.6998 14.22 40.6798 11.52 40.5198C9.42 40.3798 8.32 39.6798 8.16 36.1998C8.04 33.6198 7.98 30.6998 7.98 27.4998C7.98 23.4198 8.08 19.8398 8.28 16.8598C8.34 16.1398 8.66 15.5198 9.2 15.1398C10.1 14.4998 10.32 13.2598 9.68 12.3598C9.06 11.4598 7.8 11.2398 6.9 11.8798C5.38 12.9598 4.42 14.6798 4.3 16.5998C4.1 19.6598 4 23.3198 4 27.4998C4 30.7598 4.06 33.7398 4.18 36.3798C4.42 41.4798 6.8 44.2198 11.28 44.4998Z" fill="#646464"/>
</svg>
