<svg width="48" height="48" viewBox="0 0 48 48" fill="none" xmlns="http://www.w3.org/2000/svg">
<path d="M33.08 20.14C33.08 21.24 33.98 22.14 35.08 22.14V22.16C36.18 22.16 37.08 21.26 37.08 20.16V15.08H42.16C43.26 15.08 44.16 14.18 44.16 13.08C44.16 11.98 43.26 11.08 42.16 11.08H37.08V6C37.08 4.9 36.18 4 35.08 4C33.98 4 33.08 4.9 33.08 6V11.06H28C26.9 11.06 26 11.96 26 13.06C26 14.16 26.9 15.06 28 15.06H33.08V20.14Z" fill="#646464"/>
<path fill-rule="evenodd" clip-rule="evenodd" d="M12 21.7482C8.5486 20.8607 6 17.7293 6 14C6 9.58 9.58 6 14 6C18.42 6 22 9.58 22 14C22 17.7293 19.4514 20.8607 16 21.7482V27C16 30.3 18.7 33 22 33H26.0618C26.5536 29.0524 29.9187 26 34 26C38.42 26 42 29.58 42 34C42 38.42 38.42 42 34 42C30.641 42 27.7672 39.9325 26.581 37H22C16.48 37 12 32.52 12 27V21.7482ZM10 14C10 11.8 11.8 10 14 10C16.2 10 18 11.8 18 14C18 16.2 16.2 18 14 18C11.8 18 10 16.2 10 14ZM34 30C31.8 30 30 31.8 30 34C30 36.2 31.8 38 34 38C36.2 38 38 36.2 38 34C38 31.8 36.2 30 34 30Z" fill="#646464"/>
</svg>
