<svg width="48" height="48" viewBox="0 0 48 48" fill="none" xmlns="http://www.w3.org/2000/svg">
<path d="M24 3C25.2129 3 26.2251 3.09039 26.9922 3.19531L27.2891 3.24609C28.7595 3.54523 29.9331 4.52751 30.5664 5.79883L30.9824 6.68945C31.2233 7.23786 31.4687 7.85748 31.6836 8.48633C34.9453 8.67048 37.3136 8.95489 38.9746 9.22852L39.4961 9.33789C42.0489 9.98833 43.7268 12.1825 43.9746 14.7031L44.1602 16.8535C44.3121 18.8528 44.4457 21.3669 44.4863 24.3066C44.4869 24.3302 44.4886 24.3535 44.4883 24.377C44.4959 24.9497 44.5 25.5384 44.5 26.1426C44.5 29.8807 44.3429 33.0296 44.1602 35.4336L43.9746 37.582C43.7268 40.1027 42.0491 42.2989 39.4961 42.9492L38.9746 43.0566C36.2168 43.511 31.5092 44 24 44C17.4294 44 13.0036 43.6263 10.1523 43.2285L9.02539 43.0566C6.35854 42.6173 4.52963 40.5537 4.09375 38.082L4.02539 37.582C3.77761 35.0615 3.5 31.1256 3.5 26.1426C3.50001 21.1593 3.7776 17.2236 4.02539 14.7031L4.09375 14.2031C4.5298 11.7317 6.35874 9.66783 9.02539 9.22852L10.1523 9.05664C11.7073 8.8397 13.7306 8.63226 16.3145 8.48633C16.6573 7.48321 17.0818 6.50502 17.4336 5.79883L17.5664 5.54883C18.2705 4.3177 19.4991 3.40187 21.0078 3.19531L21.6289 3.12109C22.2939 3.05148 23.0903 3 24 3ZM7.50586 27.0586C7.537 31.4604 7.78427 34.9376 8.00586 37.1914L8.07227 37.5742C8.28521 38.4281 8.90421 38.9842 9.67578 39.1113L10.707 39.2676C13.339 39.6347 17.5754 40 24 40C31.3422 40 35.8265 39.5228 38.3242 39.1113L38.6445 39.0312C39.3675 38.7847 39.9021 38.1277 39.9941 37.1914L40.1719 35.1289C40.3326 33.0142 40.4693 30.2856 40.4922 27.0605C38.3962 27.6963 35.9012 28.4258 33.4473 29.0645C29.9513 29.9743 26.2688 30.7831 24.002 30.7832C21.7352 30.7832 18.0527 29.9743 14.5566 29.0645C12.1005 28.4252 9.60313 27.6948 7.50586 27.0586ZM24 12.2852C17.5752 12.2852 13.339 12.6524 10.707 13.0195L9.67578 13.1758C8.90437 13.3029 8.28534 13.8574 8.07227 14.7109L8.00586 15.0938C7.82516 16.9317 7.6255 19.5837 7.54102 22.8867C9.80048 23.5842 12.7192 24.4529 15.5645 25.1934C19.1415 26.1243 22.331 26.7832 24.002 26.7832C25.6731 26.7831 28.8625 26.1243 32.4395 25.1934C35.2824 24.4535 38.1984 23.5858 40.457 22.8887C40.4002 20.6666 40.2922 18.7394 40.1719 17.1562L39.9941 15.0938C39.902 14.1579 39.3672 13.5025 38.6445 13.2559L38.3242 13.1758C35.8266 12.7643 31.3424 12.2852 24 12.2852ZM20.6699 8.32031C21.7132 8.2983 22.8221 8.28516 24 8.28516C25.1779 8.28516 26.2868 8.30026 27.3301 8.32227L26.9863 7.58203C26.885 7.37879 26.7418 7.25667 26.5957 7.19727L26.4492 7.1582C25.8448 7.07554 25.015 7 24 7C23.2384 7 22.581 7.04153 22.0449 7.09766L21.5508 7.1582C21.4069 7.17788 21.2519 7.25319 21.127 7.4043L21.0137 7.58203C20.9037 7.80273 20.7869 8.05302 20.6699 8.32031Z" fill="#646464"/>
</svg>
