<svg width="48" height="48" viewBox="0 0 48 48" fill="none" xmlns="http://www.w3.org/2000/svg">
<path fill-rule="evenodd" clip-rule="evenodd" d="M23.9998 13.9281C24.7967 15.9857 25.8235 18.0143 27.2785 19.8038C28.6891 21.5387 30.4242 22.9562 32.5529 24C30.4242 25.0438 28.6891 26.4613 27.2785 28.1962C25.8235 29.9857 24.7967 32.0143 23.9998 34.0719C23.2029 32.0145 22.1761 29.9858 20.7212 28.1963C19.3107 26.4613 17.5757 25.0439 15.447 24C17.5757 22.9561 19.3107 21.5387 20.7212 19.8037C22.1761 18.0142 23.2029 15.9855 23.9998 13.9281ZM8.66642 21.9457L10.5751 21.4979C17.0202 19.9861 19.3922 15.6003 21.1281 9.9857L21.9328 7.37982C22.5013 5.54006 25.4976 5.54006 26.0661 7.37982L26.8719 9.9857C28.6067 15.6003 30.9798 19.9861 37.4249 21.4979L39.3334 21.9457L39.3535 21.9505L39.522 21.99L39.5224 21.9901L40.4159 22.1996C42.528 22.6949 42.528 25.3051 40.4159 25.8004L39.5224 26.01L39.3537 26.0496L39.3336 26.0543L37.4249 26.5021C30.9798 28.0139 28.6067 32.3997 26.8719 38.0143L26.0661 40.6202C25.4976 42.4599 22.5013 42.4599 21.9328 40.6202L21.1281 38.0143C19.3922 32.3997 17.0202 28.0139 10.5751 26.5021L8.66642 26.0543L8.64635 26.0496L8.47806 26.0101L8.47759 26.01L7.58409 25.8004C5.47197 25.3051 5.47197 22.6949 7.58409 22.1996L8.47759 21.99L8.47805 21.9899L8.64635 21.9504L8.66642 21.9457ZM13.4142 13.4142C12.6332 14.1953 11.3668 14.1953 10.5858 13.4142L6.58579 9.41421C5.80474 8.63316 5.80474 7.36684 6.58579 6.58579C7.36684 5.80474 8.63317 5.80474 9.41421 6.58579L13.4142 10.5858C14.1953 11.3668 14.1953 12.6332 13.4142 13.4142ZM10.5858 34.5858C11.3668 33.8047 12.6332 33.8047 13.4142 34.5858C14.1953 35.3668 14.1953 36.6332 13.4142 37.4142L9.41421 41.4142C8.63317 42.1953 7.36684 42.1953 6.58579 41.4142C5.80474 40.6332 5.80474 39.3668 6.58579 38.5858L10.5858 34.5858ZM34.5858 13.4142C35.3668 14.1953 36.6332 14.1953 37.4142 13.4142L41.4142 9.41421C42.1953 8.63316 42.1953 7.36684 41.4142 6.58579C40.6332 5.80474 39.3668 5.80474 38.5858 6.58579L34.5858 10.5858C33.8047 11.3668 33.8047 12.6332 34.5858 13.4142ZM37.4142 34.5858C36.6332 33.8047 35.3668 33.8047 34.5858 34.5858C33.8047 35.3668 33.8047 36.6332 34.5858 37.4142L38.5858 41.4142C39.3668 42.1953 40.6332 42.1953 41.4142 41.4142C42.1953 40.6332 42.1953 39.3668 41.4142 38.5858L37.4142 34.5858Z" fill="#646464"/>
</svg>
