<svg width="48" height="48" viewBox="0 0 48 48" fill="none" xmlns="http://www.w3.org/2000/svg">
<path fill-rule="evenodd" clip-rule="evenodd" d="M31.9996 4C34.6493 4 36.8109 6.06155 36.9821 8.66797C40.4806 9.18299 43.1742 12.0619 43.4156 15.6465C43.5529 17.6845 43.6482 19.8032 43.7008 21.9512C43.7278 23.0554 42.8538 23.973 41.7496 24C40.6457 24.0267 39.7298 23.1528 39.7028 22.0488C39.6776 21.0224 39.6425 20.0041 39.5975 19H8.40272C8.35826 20.0041 8.3236 21.0224 8.29846 22.0488C8.27141 23.153 7.3538 24.027 6.24963 24C5.14545 23.973 4.2715 23.0553 4.29846 21.9512C4.35107 19.8032 4.44636 17.6844 4.58362 15.6465C4.82498 12.0628 7.5179 9.18399 11.0153 8.66797C11.1863 6.06153 13.3499 4.00007 15.9996 4C18.5133 4 20.588 5.85578 20.941 8.27148C22.9695 8.24498 25.0278 8.245 27.0563 8.27148C27.4092 5.85567 29.4859 4.00007 31.9996 4ZM14.9996 9C14.9996 8.44776 15.4474 8.00008 15.9996 8C16.5519 8 16.9996 8.44772 16.9996 9V12C16.9996 12.5523 16.5519 13 15.9996 13C15.4474 12.9999 14.9996 12.5522 14.9996 12V9ZM30.9996 9C30.9996 8.44776 31.4474 8.00008 31.9996 8C32.5519 8 32.9996 8.44772 32.9996 9V12C32.9996 12.5523 32.5519 13 31.9996 13C31.4474 12.9999 30.9996 12.5522 30.9996 12V9Z" fill="#646464"/>
<path fill-rule="evenodd" clip-rule="evenodd" d="M4.30041 42V38C4.30041 36.8954 5.19584 36 6.30041 36C7.40487 36.0001 8.30041 36.8955 8.30041 38V42C8.30041 43.1045 7.40487 43.9999 6.30041 44C5.19584 44 4.30041 43.1046 4.30041 42ZM39.6988 38C39.6988 36.8957 40.5946 36.0004 41.6988 36C42.8034 36 43.6988 36.8954 43.6988 38V42C43.6988 43.1046 42.8034 44 41.6988 44C40.5946 43.9996 39.6988 43.1043 39.6988 42V38ZM33.9996 36C35.1042 36 35.9996 36.8954 35.9996 38C35.9996 39.1046 35.1042 40 33.9996 40H25.9996C24.8951 39.9999 23.9996 39.1045 23.9996 38C23.9996 36.8955 24.8951 36.0001 25.9996 36H33.9996ZM4.30041 32V28C4.30041 26.8954 5.19584 26 6.30041 26C7.40487 26.0001 8.30041 26.8955 8.30041 28V32C8.30041 33.1045 7.40487 33.9999 6.30041 34C5.19584 34 4.30041 33.1046 4.30041 32ZM27.9996 30C29.1042 30 29.9996 30.8954 29.9996 32C29.9996 33.1046 29.1042 34 27.9996 34H19.9996C18.8951 33.9999 17.9996 33.1045 17.9996 32C17.9996 30.8955 18.8951 30.0001 19.9996 30H27.9996ZM39.6988 32V28C39.6988 26.8957 40.5946 26.0004 41.6988 26C42.8034 26 43.6988 26.8954 43.6988 28V32C43.6988 33.1046 42.8034 34 41.6988 34C40.5946 33.9996 39.6988 33.1043 39.6988 32ZM21.9996 24C23.1042 24 23.9996 24.8954 23.9996 26C23.9996 27.1046 23.1042 28 21.9996 28H13.9996C12.8951 27.9999 11.9996 27.1045 11.9996 26C11.9996 24.8955 12.8951 24.0001 13.9996 24H21.9996Z" fill="#646464"/>
</svg>
