<svg width="48" height="48" viewBox="0 0 48 48" fill="none" xmlns="http://www.w3.org/2000/svg">
<path fill-rule="evenodd" clip-rule="evenodd" d="M34.5858 4.58579C35.3668 3.80474 36.6332 3.80474 37.4142 4.58579L43.4142 10.5858C43.7893 10.9609 44 11.4696 44 12C44 12.5304 43.7893 13.0391 43.4142 13.4142L37.4142 19.4142C36.6332 20.1953 35.3668 20.1953 34.5858 19.4142C33.8047 18.6332 33.8047 17.3668 34.5858 16.5858L37.1716 14H16C13.7909 14 12 15.7909 12 18V22C12 23.1046 11.1046 24 10 24C8.89543 24 8 23.1046 8 22V18C8 13.5817 11.5817 10 16 10H37.1716L34.5858 7.41421C33.8047 6.63317 33.8047 5.36684 34.5858 4.58579ZM38 24C39.1046 24 40 24.8954 40 26V30C40 34.4183 36.4183 38 32 38H10.8284L13.4142 40.5858C14.1953 41.3668 14.1953 42.6332 13.4142 43.4142C12.6332 44.1953 11.3668 44.1953 10.5858 43.4142L4.58579 37.4142C3.80474 36.6332 3.80474 35.3668 4.58579 34.5858L10.5858 28.5858C11.3668 27.8047 12.6332 27.8047 13.4142 28.5858C14.1953 29.3668 14.1953 30.6332 13.4142 31.4142L10.8284 34H32C34.2091 34 36 32.2091 36 30V26C36 24.8954 36.8954 24 38 24Z" fill="#646464"/>
</svg>
