<svg width="48" height="48" viewBox="0 0 48 48" fill="none" xmlns="http://www.w3.org/2000/svg">
<path d="M30.5427 29.3662L34.2864 31.238C35.52 31.8548 36.1882 33.221 35.9177 34.5735C34.9209 39.5577 30.8471 43.4617 25.8657 42.4507C21.4845 41.5615 16.0081 39.3998 11.0053 34.3969C6.04195 29.4336 3.87508 24.0042 2.97285 19.6405C1.93096 14.6013 5.88526 10.4732 10.9311 9.46405C12.238 9.20267 13.5655 9.8069 14.2268 10.9641L15.7456 13.622C16.6916 15.2776 16.4125 17.3615 15.0642 18.7098L14.757 19.017C13.7368 20.0372 13.3002 21.5153 13.8591 22.8454C14.487 24.34 15.5757 26.3498 17.3479 28.0543C19.0967 29.7362 21.0719 30.8234 22.5414 31.4737C23.8431 32.0497 25.3049 31.5398 26.159 30.401C27.1782 29.0421 29.0234 28.6065 30.5427 29.3662Z" fill="#646464"/>
<path fill-rule="evenodd" clip-rule="evenodd" d="M23.7577 12.999C23.7577 11.8945 24.6531 10.999 25.7577 10.999C31.6225 10.999 34.7577 16.1411 34.7577 20.4611C34.7577 21.5657 33.8623 22.4611 32.7577 22.4611C31.6531 22.4611 30.7577 21.5657 30.7577 20.4611C30.7577 17.6695 28.7892 14.999 25.7577 14.999C24.6531 14.999 23.7577 14.1036 23.7577 12.999Z" fill="#646464"/>
<path fill-rule="evenodd" clip-rule="evenodd" d="M24.6554 4.47083C24.6649 3.36562 25.5674 2.46967 26.6713 2.46967C31.7331 2.46967 36.0215 4.38861 39.031 7.66844C42.0262 10.9328 43.653 15.4303 43.653 20.4439C43.653 21.5491 42.7581 22.4527 41.6542 22.4621C40.5503 22.4715 39.6553 21.5833 39.6553 20.4781C39.6553 16.3268 38.3148 12.8292 36.0764 10.3897C33.8522 7.96568 30.6406 6.47199 26.6371 6.47199C25.5332 6.47199 24.646 5.57604 24.6554 4.47083Z" fill="#646464"/>
</svg>
