<svg width="48" height="48" viewBox="0 0 48 48" fill="none" xmlns="http://www.w3.org/2000/svg">
<path d="M31.7586 29.3662L35.5022 31.238C36.7358 31.8548 37.404 33.221 37.1335 34.5735C36.1367 39.5577 32.0629 43.4617 27.0815 42.4507C22.7003 41.5615 17.224 39.3998 12.2211 34.3969C7.25777 29.4336 5.0909 24.0042 4.18867 19.6405C3.14678 14.6013 7.10108 10.4732 12.1469 9.46405C13.4538 9.20267 14.7813 9.8069 15.4426 10.9641L16.9614 13.622C17.9074 15.2776 17.6284 17.3615 16.28 18.7098L15.9728 19.017C14.9527 20.0372 14.5161 21.5153 15.0749 22.8454C15.7029 24.34 16.7915 26.3498 18.5638 28.0543C20.3125 29.7362 22.2877 30.8234 23.7572 31.4737C25.0589 32.0497 26.5207 31.5398 27.3748 30.401C28.394 29.0421 30.2392 28.6065 31.7586 29.3662Z" fill="#646464"/>
<path fill-rule="evenodd" clip-rule="evenodd" d="M28.2469 4.58933C29.026 3.81023 30.2892 3.81023 31.0683 4.58933L35.6576 9.17865L40.2469 4.58933C41.026 3.81023 42.2892 3.81023 43.0683 4.58933C43.8474 5.36842 43.8474 6.63159 43.0683 7.41068L38.479 12L43.0683 16.5893C43.8474 17.3684 43.8474 18.6316 43.0683 19.4107C42.2892 20.1898 41.026 20.1898 40.2469 19.4107L35.6576 14.8214L31.0683 19.4107C30.2892 20.1898 29.026 20.1898 28.2469 19.4107C27.4678 18.6316 27.4678 17.3684 28.2469 16.5893L32.8362 12L28.2469 7.41068C27.4678 6.63159 27.4678 5.36842 28.2469 4.58933Z" fill="#646464"/>
</svg>
