<svg width="48" height="48" viewBox="0 0 48 48" fill="none" xmlns="http://www.w3.org/2000/svg">
<path d="M28.4418 6.00661C30.6854 6.11304 34.253 6.3841 37.8706 7.07467C39.3887 7.3644 40.5706 8.54625 40.8604 10.0644C41.5509 13.6822 41.8221 17.2498 41.9286 19.4934C42.0007 21.0121 41.4813 22.4845 40.4851 23.6332C38.895 25.4664 36.0512 28.6237 31.9536 32.7214C28.1312 36.5438 25.1269 39.2752 23.2525 40.9156C21.9176 42.0838 20.0516 42.3731 18.5287 41.4633C16.8015 40.4313 14.3814 38.7148 11.8659 36.0693C9.46228 33.5414 7.78176 31.2255 6.70535 29.5487C5.6797 27.951 5.9213 25.9323 7.17454 24.506C8.8296 22.6222 11.5093 19.6864 15.2139 15.982C19.3116 11.8842 22.4687 9.04033 24.3019 7.45028C25.4506 6.45394 26.9229 5.93456 28.4418 6.00661Z" stroke="#646464" stroke-width="2" stroke-linecap="round" stroke-linejoin="round"/>
<path d="M23.0276 41C24.345 42.0714 25.5485 42.8776 26.5288 43.4633C28.0516 44.3731 29.9177 44.0838 31.2526 42.9156C33.127 41.2752 36.1312 38.5438 39.9537 34.7214C44.0513 30.6237 46.8951 27.4664 48.4851 25.6332C49.4814 24.4845 50.0008 23.0121 49.9286 21.4934C49.8221 19.2498 49.551 15.6822 48.8604 12.0644C48.5707 10.5462 47.3887 9.36439 45.8707 9.07466C43.8204 8.68329 41.7862 8.42666 40 8.25838" stroke="#646464" stroke-width="2" stroke-linecap="round" stroke-linejoin="round"/>
<path fill-rule="evenodd" clip-rule="evenodd" d="M32.1512 15.8681C32.1514 15.8674 32.1514 15.8668 32.1515 15.8664C32.1515 15.8664 32.1515 15.8664 32.1515 15.8664M32.1515 15.8664C32.1514 15.866 32.1514 15.8654 32.1512 15.8646C32.1508 15.8627 32.1502 15.8607 32.1494 15.8588C32.1479 15.8554 32.1466 15.854 32.1463 15.8537C32.1459 15.8533 32.1445 15.852 32.1411 15.8505C32.1393 15.8498 32.1373 15.8491 32.1354 15.8487C32.1346 15.8486 32.134 15.8485 32.1336 15.8485C32.1332 15.8485 32.1326 15.8486 32.1318 15.8487C32.1299 15.8491 32.1279 15.8498 32.1261 15.8505C32.1226 15.852 32.1212 15.8533 32.1209 15.8537C32.1205 15.854 32.1192 15.8554 32.1178 15.8589C32.117 15.8607 32.1164 15.8627 32.116 15.8646C32.1158 15.8654 32.1157 15.866 32.1157 15.8664C32.1157 15.8668 32.1158 15.8674 32.116 15.8681C32.1164 15.8701 32.117 15.8721 32.1177 15.8739C32.1192 15.8773 32.1205 15.8787 32.1209 15.879C32.1212 15.8794 32.1226 15.8807 32.1261 15.8822C32.1279 15.883 32.1299 15.8836 32.1318 15.884C32.1326 15.8841 32.1332 15.8842 32.1336 15.8843C32.134 15.8842 32.1346 15.8841 32.1353 15.884C32.1373 15.8836 32.1393 15.883 32.1411 15.8822C32.1445 15.8807 32.1459 15.8794 32.1463 15.8791C32.1466 15.8787 32.148 15.8773 32.1494 15.8739C32.1502 15.8721 32.1508 15.8701 32.1512 15.8681M28.6418 15.8664C28.6418 13.938 30.2051 12.3746 32.1336 12.3746C34.0622 12.3746 35.6253 13.9381 35.6253 15.8664C35.6253 17.7948 34.062 19.3581 32.1336 19.3581C30.2052 19.3581 28.6418 17.7949 28.6418 15.8664Z" fill="#646464"/>
</svg>
