<svg width="48" height="48" viewBox="0 0 48 48" fill="none" xmlns="http://www.w3.org/2000/svg">
<path d="M24 8C15.1634 8 8 15.1634 8 24C8 32.8366 15.1634 40 24 40C32.2048 40 38.9696 33.8225 39.8925 25.866C40.0198 24.7688 41.0124 23.9825 42.1097 24.1098C43.2069 24.2371 43.9932 25.2297 43.8659 26.3269C42.7117 36.2773 34.2592 44 24 44C12.9543 44 4 35.0457 4 24C4 12.9543 12.9543 4 24 4C27.1894 4 30.2098 4.74802 32.8901 6.08001C33.8792 6.57158 34.2826 7.77195 33.791 8.7611C33.2995 9.75026 32.0991 10.1536 31.1099 9.66207C28.9704 8.59881 26.558 8 24 8Z" fill="#646464"/>
<path d="M42.4184 11.0438C43.1994 11.8248 43.1994 13.0912 42.4184 13.8722L24.9244 31.3662C24.1433 32.1473 22.877 32.1473 22.0959 31.3662L14.1441 23.4144C13.3631 22.6333 13.3631 21.367 14.1441 20.586C14.9252 19.8049 16.1915 19.8049 16.9726 20.586L23.5102 27.1236L39.5899 11.0438C40.371 10.2627 41.6373 10.2627 42.4184 11.0438Z" fill="#646464"/>
</svg>
