<svg width="48" height="48" viewBox="0 0 48 48" fill="none" xmlns="http://www.w3.org/2000/svg">
<path d="M41.938 7.17619C41.8284 6.51798 41.0824 6.16921 40.2298 6.14271C38.329 6.0836 33.8921 6 24 6C14.1079 6 9.67093 6.08361 7.77021 6.14271C6.91755 6.16921 6.1716 6.51798 6.06199 7.17619C6.02447 7.40149 6 7.67357 6 8C6 8.32643 6.02447 8.59851 6.06199 8.82381C6.1716 9.48202 6.91755 9.83079 7.77021 9.8573C9.67094 9.9164 14.1079 10 24 10C33.8921 10 38.329 9.9164 40.2298 9.85729C41.0824 9.83079 41.8284 9.48202 41.938 8.82381C41.9756 8.5985 42 8.32643 42 8C42 7.67357 41.9756 7.40149 41.938 7.17619Z" fill="#646464"/>
<path d="M41.9805 18.5817C41.9245 19.3691 41.1211 19.8505 40.1084 19.8859C38.5571 19.9401 35.5807 20 30 20C24.4193 20 21.4429 19.9401 19.8916 19.8859C18.8789 19.8505 18.0755 19.3691 18.0195 18.5817C18.0072 18.4104 18 18.2173 18 18C18 17.7827 18.0072 17.5896 18.0195 17.4183C18.0755 16.6309 18.8789 16.1495 19.8916 16.1141C21.4429 16.0599 24.4193 16 30 16C35.5807 16 38.5571 16.0599 40.1084 16.1141C41.1211 16.1495 41.9245 16.6309 41.9805 17.4183C41.9928 17.5896 42 17.7827 42 18C42 18.2173 41.9928 18.4104 41.9805 18.5817Z" fill="#646464"/>
<path d="M41.9604 28.7227C41.8748 29.4354 41.102 29.8376 40.1824 29.8676C38.4047 29.9257 34.567 30 26.5716 30C18.5763 30 14.7386 29.9257 12.9609 29.8676C12.0413 29.8376 11.2685 29.4354 11.1829 28.7227C11.1584 28.5183 11.1431 28.279 11.1431 28C11.1431 27.721 11.1584 27.4817 11.1829 27.2773C11.2685 26.5646 12.0413 26.1624 12.9609 26.1324C14.7386 26.0743 18.5764 26 26.5716 26C34.5669 26 38.4047 26.0743 40.1824 26.1324C41.102 26.1624 41.8748 26.5646 41.9604 27.2774C41.9849 27.4817 42.0002 27.721 42.0002 28C42.0002 28.279 41.9849 28.5183 41.9604 28.7227Z" fill="#646464"/>
<path d="M41.9914 37.5417C41.9587 36.6903 41.1455 36.1297 40.0517 36.0885C38.8311 36.0426 36.792 36 33.4284 36C30.0648 36 28.0256 36.0426 26.805 36.0885C25.7112 36.1297 24.898 36.6903 24.8653 37.5417C24.8599 37.6809 24.8569 37.8334 24.8569 38C24.8569 38.1666 24.8599 38.3191 24.8653 38.4583C24.898 39.3097 25.7112 39.8703 26.805 39.9115C28.0256 39.9574 30.0648 40 33.4284 40C36.792 40 38.8311 39.9574 40.0517 39.9115C41.1455 39.8703 41.9587 39.3097 41.9914 38.4583C41.9968 38.3191 41.9998 38.1666 41.9998 38C41.9998 37.8334 41.9968 37.6809 41.9914 37.5417Z" fill="#646464"/>
</svg>
