<svg width="48" height="48" viewBox="0 0 48 48" fill="none" xmlns="http://www.w3.org/2000/svg">
<path d="M6.06199 7.17619C6.1716 6.51798 6.91755 6.16921 7.77021 6.14271C9.67093 6.0836 14.1079 6 24 6C33.8921 6 38.329 6.08361 40.2298 6.14271C41.0824 6.16921 41.8284 6.51798 41.938 7.17619C41.9756 7.40149 42 7.67357 42 8C42 8.32643 41.9756 8.59851 41.938 8.82381C41.8284 9.48202 41.0824 9.83079 40.2298 9.8573C38.329 9.9164 33.8921 10 24 10C14.1079 10 9.67093 9.9164 7.77021 9.85729C6.91755 9.83079 6.1716 9.48202 6.06199 8.82381C6.02446 8.5985 6 8.32643 6 8C6 7.67357 6.02446 7.40149 6.06199 7.17619Z" fill="#646464"/>
<path d="M6.01943 18.5817C6.07552 19.3691 6.87887 19.8505 7.89165 19.8859C9.4429 19.9401 12.4193 20 18 20C23.5807 20 26.5571 19.9401 28.1084 19.8859C29.1211 19.8505 29.9245 19.3691 29.9805 18.5817C29.9928 18.4104 30 18.2173 30 18C30 17.7827 29.9928 17.5896 29.9805 17.4183C29.9245 16.6309 29.1211 16.1495 28.1084 16.1141C26.5571 16.0599 23.5807 16 18 16C12.4193 16 9.44291 16.0599 7.89165 16.1141C6.87887 16.1495 6.07552 16.6309 6.01943 17.4183C6.00723 17.5896 6 17.7827 6 18C6 18.2173 6.00723 18.4104 6.01943 18.5817Z" fill="#646464"/>
<path d="M6.03986 28.7227C6.12543 29.4354 6.89817 29.8376 7.81779 29.8676C9.59559 29.9257 13.4332 30 21.4286 30C29.4239 30 33.2616 29.9257 35.0393 29.8676C35.9589 29.8376 36.7317 29.4354 36.8173 28.7227C36.8418 28.5183 36.8571 28.279 36.8571 28C36.8571 27.721 36.8418 27.4817 36.8173 27.2773C36.7317 26.5646 35.9589 26.1624 35.0393 26.1324C33.2616 26.0743 29.4238 26 21.4286 26C13.4333 26 9.59559 26.0743 7.81779 26.1324C6.89817 26.1624 6.12543 26.5646 6.03986 27.2774C6.01532 27.4817 6 27.721 6 28C6 28.279 6.01532 28.5183 6.03986 28.7227Z" fill="#646464"/>
<path d="M6.00838 37.5417C6.04107 36.6903 6.8543 36.1297 7.94808 36.0885C9.16872 36.0426 11.2078 36 14.5714 36C17.935 36 19.9742 36.0426 21.1947 36.0885C22.2885 36.1297 23.1018 36.6903 23.1345 37.5417C23.1399 37.6809 23.1429 37.8334 23.1429 38C23.1429 38.1666 23.1399 38.3191 23.1345 38.4583C23.1018 39.3097 22.2885 39.8703 21.1947 39.9115C19.9742 39.9574 17.935 40 14.5714 40C11.2078 40 9.16872 39.9574 7.94809 39.9115C6.8543 39.8703 6.04107 39.3097 6.00838 38.4583C6.00303 38.3191 6 38.1666 6 38C6 37.8334 6.00303 37.6809 6.00838 37.5417Z" fill="#646464"/>
</svg>
