<svg width="48" height="48" viewBox="0 0 48 48" fill="none" xmlns="http://www.w3.org/2000/svg">
<path d="M6.06199 7.17619C6.1716 6.51798 6.91755 6.16921 7.77021 6.14271C9.67093 6.0836 14.1079 6 24 6C33.8921 6 38.329 6.08361 40.2298 6.14271C41.0824 6.16921 41.8284 6.51798 41.938 7.17619C41.9756 7.40149 42 7.67357 42 8C42 8.32643 41.9756 8.59851 41.938 8.82381C41.8284 9.48202 41.0824 9.83079 40.2298 9.8573C38.329 9.9164 33.8921 10 24 10C14.1079 10 9.67093 9.9164 7.77021 9.85729C6.91755 9.83079 6.1716 9.48202 6.06199 8.82381C6.02446 8.5985 6 8.32643 6 8C6 7.67357 6.02446 7.40149 6.06199 7.17619Z" fill="#646464"/>
<path d="M12.0195 18.5817C12.0755 19.3691 12.8788 19.8505 13.8916 19.8859C15.4429 19.9401 18.4193 20 24 20C29.5807 20 32.5571 19.9401 34.1084 19.8859C35.1211 19.8505 35.9245 19.3691 35.9805 18.5817C35.9928 18.4104 36 18.2173 36 18C36 17.7827 35.9928 17.5896 35.9805 17.4183C35.9245 16.6309 35.1211 16.1495 34.1084 16.1141C32.5571 16.0599 29.5807 16 24 16C18.4193 16 15.4429 16.0599 13.8916 16.1141C12.8789 16.1495 12.0755 16.6309 12.0195 17.4183C12.0072 17.5896 12 17.7827 12 18C12 18.2173 12.0072 18.4104 12.0195 18.5817Z" fill="#646464"/>
<path d="M8.61115 28.7227C8.69672 29.4354 9.46946 29.8376 10.3891 29.8676C12.1668 29.9257 16.0045 30 23.9999 30C31.9952 30 35.8329 29.9257 37.6106 29.8676C38.5302 29.8376 39.303 29.4354 39.3886 28.7227C39.4131 28.5183 39.4284 28.279 39.4284 28C39.4284 27.721 39.4131 27.4817 39.3886 27.2773C39.303 26.5646 38.5302 26.1624 37.6106 26.1324C35.8329 26.0743 31.9951 26 23.9999 26C16.0046 26 12.1668 26.0743 10.3891 26.1324C9.46946 26.1624 8.69672 26.5646 8.61115 27.2774C8.58661 27.4817 8.57129 27.721 8.57129 28C8.57129 28.279 8.58661 28.5183 8.61115 28.7227Z" fill="#646464"/>
<path d="M15.4371 37.5417C15.4698 36.6903 16.283 36.1297 17.3768 36.0885C18.5974 36.0426 20.6365 36 24.0001 36C27.3637 36 29.4029 36.0426 30.6235 36.0885C31.7173 36.1297 32.5305 36.6903 32.5632 37.5417C32.5686 37.6809 32.5716 37.8334 32.5716 38C32.5716 38.1666 32.5686 38.3191 32.5632 38.4583C32.5305 39.3097 31.7173 39.8703 30.6235 39.9115C29.4029 39.9574 27.3637 40 24.0001 40C20.6365 40 18.5974 39.9574 17.3768 39.9115C16.283 39.8703 15.4698 39.3097 15.4371 38.4583C15.4317 38.3191 15.4287 38.1666 15.4287 38C15.4287 37.8334 15.4317 37.6809 15.4371 37.5417Z" fill="#646464"/>
</svg>
