<svg width="48" height="48" viewBox="0 0 48 48" fill="none" xmlns="http://www.w3.org/2000/svg">
<path fill-rule="evenodd" clip-rule="evenodd" d="M23.9999 6C25.1045 6 25.9999 6.89543 25.9999 8V27.1716L32.5858 20.5858C33.3668 19.8047 34.6332 19.8047 35.4142 20.5858C36.1953 21.3668 36.1953 22.6332 35.4142 23.4142L25.4141 33.4142C25.039 33.7893 24.5303 34 23.9999 34C23.4695 34 22.9608 33.7893 22.5857 33.4142L12.5858 23.4142C11.8047 22.6332 11.8047 21.3668 12.5858 20.5858C13.3668 19.8047 14.6332 19.8047 15.4142 20.5858L21.9999 27.1715V8C21.9999 6.89543 22.8953 6 23.9999 6ZM6 40C6 38.8954 6.89543 38 8 38H40C41.1046 38 42 38.8954 42 40C42 41.1046 41.1046 42 40 42H8C6.89543 42 6 41.1046 6 40Z" fill="#646464"/>
</svg>
