<svg width="48" height="48" viewBox="0 0 48 48" fill="none" xmlns="http://www.w3.org/2000/svg">
<path d="M38.02 14.78C38.24 14.84 38.46 14.88 38.66 14.88V14.9C39.5 14.9 40.28 14.38 40.56 13.54C40.92 12.48 40.34 11.34 39.3 11L38 10.56V9.34C38 8.24 37.1 7.34 36 7.34C34.9 7.34 34 8.24 34 9.34V12C34 12.86 34.54 13.62 35.36 13.9L38.02 14.78Z" fill="#646464"/>
<path fill-rule="evenodd" clip-rule="evenodd" d="M26 12C26 17.52 30.48 22 36 22C41.52 22 46 17.52 46 12C46 6.48 41.52 2 36 2C30.48 2 26 6.48 26 12ZM30 12C30 8.7 32.7 6 36 6C39.3 6 42 8.7 42 12C42 15.3 39.3 18 36 18C32.7 18 30 15.3 30 12Z" fill="#646464"/>
<path d="M24 44.0001C12.98 44.0001 4 35.0201 4 24.0001C4 13.7201 11.7 5.18005 21.9 4.10005C23 3.98005 23.98 4.78005 24.1 5.88005C24.22 6.98005 23.42 7.96005 22.32 8.08005C14.16 8.94005 8 15.7801 8 24.0001C8 32.8201 15.18 40.0001 24 40.0001C32.12 40.0001 38.94 33.9401 39.9 25.8801C40.02 24.7801 41.04 24.0001 42.12 24.1201C43.22 24.2401 44 25.2401 43.88 26.3401C42.7 36.4001 34.16 44.0001 24.02 44.0001H24Z" fill="#646464"/>
<path d="M24 34C18.48 34 14 29.52 14 24C14 19.38 17.14 15.38 21.64 14.28C22.72 14.02 23.8 14.68 24.06 15.76C24.32 16.84 23.66 17.92 22.58 18.18C19.88 18.84 18 21.24 18 24.02C18 27.32 20.7 30.02 24 30.02C26.38 30.02 28.54 28.62 29.5 26.44C29.94 25.44 31.12 24.98 32.14 25.42C33.16 25.86 33.6 27.04 33.16 28.06C31.56 31.68 27.96 34.02 24 34.02V34Z" fill="#646464"/>
</svg>
