<svg width="48" height="48" viewBox="0 0 48 48" fill="none" xmlns="http://www.w3.org/2000/svg">
<path d="M5.63672 8C5.63672 9.10457 6.53215 10 7.63672 10H10.1921C10.0891 14.4978 11.7303 17.6375 13.5067 19.9467C14.1673 20.8055 14.9183 21.6292 15.5125 22.2809C15.7669 22.56 15.9927 22.8076 16.1702 23.0129C16.5099 23.4056 16.7148 23.6807 16.8329 23.8872C16.8602 23.935 16.8788 23.9723 16.8914 24C16.8788 24.0277 16.8602 24.065 16.8329 24.1128C16.7148 24.3193 16.5099 24.5944 16.1702 24.9871C15.9928 25.1923 15.7671 25.4398 15.5127 25.7189C14.9185 26.3705 14.1673 27.1945 13.5067 28.0533C11.7303 30.3625 10.0891 33.5022 10.1921 38H7.63672C6.53215 38 5.63672 38.8954 5.63672 40C5.63672 41.1046 6.53215 42 7.63672 42H26.0031C27.1077 42 28.0031 41.1046 28.0031 40C28.0031 38.8954 27.1077 38 26.0031 38H14.1937C14.0927 34.5492 15.3173 32.2599 16.6772 30.4922C17.2416 29.7585 17.7671 29.1843 18.3006 28.6012C18.5939 28.2807 18.8897 27.9576 19.1956 27.6038C19.5833 27.1556 19.992 26.6466 20.3058 26.0974C20.6234 25.5416 20.9103 24.8312 20.9103 24C20.9103 23.1688 20.6234 22.4584 20.3058 21.9026C19.992 21.3534 19.5833 20.8444 19.1956 20.3962C18.8897 20.0425 18.594 19.7193 18.3007 19.3989C17.7671 18.8158 17.2416 18.2415 16.6772 17.5078C15.3173 15.7401 14.0927 13.4508 14.1937 10H33.8077C33.9089 13.4508 32.6845 15.7402 31.3248 17.5079C30.7604 18.2416 30.235 18.8158 29.7014 19.3989C29.4082 19.7194 29.1125 20.0425 28.8065 20.3963C28.4189 20.8445 28.0103 21.3535 27.6965 21.9026C27.3789 22.4585 27.0921 23.1688 27.0921 24C27.0921 24.9906 27.4989 25.8146 27.896 26.4236C28.2931 27.0325 28.8144 27.6235 29.2924 28.1513C30.0338 28.9701 31.2986 29.0327 32.1173 28.2913C32.9361 27.5499 32.9988 26.2851 32.2573 25.4663C31.7695 24.9276 31.4495 24.5498 31.2466 24.2387C31.1731 24.1261 31.1326 24.0481 31.1108 24.0001C31.1234 23.9724 31.1421 23.935 31.1695 23.8871C31.2875 23.6806 31.4924 23.4055 31.8321 23.0128C32.0095 22.8077 32.2351 22.5602 32.4894 22.2812C33.0835 21.6295 33.8347 20.8055 34.4953 19.9466C36.2716 17.6374 37.9125 14.4977 37.8093 10H40.364C41.4686 10 42.364 9.10457 42.364 8C42.364 6.89543 41.4686 6 40.364 6H7.63672C6.53215 6 5.63672 6.89543 5.63672 8Z" fill="#646464"/>
<path d="M32.2051 43.7984C31.346 42.9392 31.346 41.5463 32.2051 40.6871L34.8921 38.0001L32.205 35.313C31.3459 34.4538 31.3459 33.0608 32.205 32.2017C33.0642 31.3425 34.4572 31.3425 35.3163 32.2017L38.0034 34.8888L40.6904 32.2018C41.5495 31.3427 42.9425 31.3427 43.8017 32.2018C44.6608 33.061 44.6608 34.4539 43.8017 35.3131L41.1147 38.0001L43.8016 40.687C44.6608 41.5461 44.6608 42.9391 43.8016 43.7982C42.9424 44.6574 41.5495 44.6574 40.6903 43.7982L38.0034 41.1113L35.3164 43.7984C34.4572 44.6575 33.0643 44.6575 32.2051 43.7984Z" fill="#646464"/>
</svg>
