<svg width="48" height="48" viewBox="0 0 48 48" fill="none" xmlns="http://www.w3.org/2000/svg">
<path fill-rule="evenodd" clip-rule="evenodd" d="M16.0636 8.89998C16.1182 9.22054 16.214 9.52584 16.3455 9.81141C15.8074 10.0573 15.2809 10.3297 14.7676 10.6278C14.445 10.3098 14.16 10.0348 13.9036 9.79979C12.1236 8.09979 9.52362 7.95979 7.74362 9.43979C7.44362 9.69979 7.12362 9.97979 6.76362 10.3398C6.40362 10.6998 6.12362 11.0198 5.86362 11.3198C4.38362 13.0998 4.52362 15.6998 6.22362 17.4798C6.53014 17.8002 6.90462 18.1887 7.3538 18.645C6.1822 21.0909 5.56348 23.7872 5.56348 26.5802C5.56348 31.5002 7.48348 36.1202 10.9635 39.6002C14.4435 43.0802 19.0635 45.0002 23.9835 45.0002C28.9035 45.0002 33.5235 43.0802 37.0035 39.6002C40.4835 36.1202 42.4035 31.5002 42.4035 26.5802C42.4035 23.7925 41.7871 21.1011 40.6198 18.6589C41.0765 18.195 41.4598 17.7977 41.7836 17.4598C43.4636 15.6798 43.6236 13.0998 42.1436 11.3398C41.8836 11.0198 41.5836 10.6998 41.2236 10.3398C40.8836 9.99977 40.5436 9.69977 40.2436 9.43977C38.4636 7.95977 35.8836 8.11977 34.1036 9.79977C33.8474 10.0454 33.5569 10.3251 33.2292 10.6452C32.7055 10.3397 32.1679 10.061 31.6182 9.80994C31.7515 9.52454 31.8485 9.21969 31.9036 8.89998C31.9836 8.49998 32.0236 8.03998 32.0236 7.57998C32.0236 7.11998 31.9836 6.65998 31.9036 6.25998C31.6036 4.49998 30.0636 3.19998 28.1836 3.09998C27.2036 3.03998 25.8 3 24 3C22.2 3 20.7636 3.03998 19.7836 3.09998C17.9036 3.21998 16.3636 4.49998 16.0636 6.25998C15.9836 6.65998 15.9436 7.11998 15.9436 7.57998C15.9436 8.03998 15.9836 8.49998 16.0636 8.89998ZM11.5036 13.0398L11.4401 13.0999C11.279 13.2501 11.1201 13.4036 10.9635 13.5602C10.4552 14.0684 9.98024 14.601 9.53965 15.1553C9.4708 15.077 9.39727 15.0034 9.32614 14.9323C9.25365 14.8598 9.18361 14.7898 9.12362 14.7198L9.11991 14.7153C9.01554 14.5902 8.68674 14.1959 8.94362 13.8798C9.14362 13.6598 9.34362 13.4398 9.60362 13.1798C9.84362 12.9198 10.0836 12.6998 10.3036 12.5198C10.3836 12.4398 10.5636 12.4198 10.5636 12.4198C10.8036 12.4198 11.0636 12.6198 11.1436 12.6998C11.1913 12.7475 11.2482 12.7998 11.3076 12.8544C11.3727 12.9143 11.4409 12.9771 11.5036 13.0398ZM38.6784 14.9345C38.6041 15.0139 38.5274 15.0959 38.4454 15.178C37.9997 14.6156 37.5187 14.0754 37.0035 13.5602C36.8329 13.3896 36.6596 13.2228 36.4837 13.0597C36.5563 12.9871 36.6236 12.9252 36.6883 12.8656C36.7482 12.8105 36.806 12.7574 36.8636 12.6998L36.8682 12.6959C36.9935 12.5914 37.3873 12.263 37.6836 12.5198C37.9036 12.6998 38.1436 12.9198 38.4036 13.1798C38.6636 13.4398 38.8836 13.6798 39.0636 13.8998C39.3204 14.1961 38.9919 14.5899 38.8874 14.7152L38.8836 14.7198C38.816 14.7874 38.7483 14.8598 38.6784 14.9345ZM20.6474 7.06524C20.3831 7.0736 20.153 7.25528 20.1308 7.51875C20.1031 7.8474 20.1241 8.20472 20.2 8.48C20.2 8.48 22 8.18 24 8.18C26 8.18 27.8 8.48 27.8 8.48C27.875 8.20409 27.8985 7.84609 27.8718 7.51717C27.8505 7.25439 27.6209 7.07364 27.3574 7.06531C26.6271 7.04223 25.1377 7.00004 24.0036 6.99998C22.8682 6.99992 21.3787 7.04211 20.6474 7.06524ZM23.9835 12.1802C20.1435 12.1802 16.5235 13.6802 13.8035 16.4002C11.0835 19.1202 9.58348 22.7402 9.58348 26.5802C9.58348 30.4202 11.0835 34.0402 13.8035 36.7602C16.5235 39.4802 20.1435 40.9802 23.9835 40.9802C27.8235 40.9802 31.4435 39.4802 34.1635 36.7602C36.8835 34.0402 38.3835 30.4202 38.3835 26.5802C38.3835 22.7402 36.8835 19.1202 34.1635 16.4002C31.4435 13.6802 27.8235 12.1802 23.9835 12.1802Z" fill="#646464"/>
<path fill-rule="evenodd" clip-rule="evenodd" d="M21.3252 21.9729C21.2987 22.0158 21.2617 22.0963 21.2438 22.2278C21.1109 23.208 21.0001 24.4837 21.0001 26V26.0049C20.997 27.2655 21.0786 28.525 21.2442 29.7748C21.2622 29.9046 21.2988 29.9841 21.325 30.0264C21.3512 30.0687 21.3725 30.0833 21.3783 30.0868C21.383 30.0898 21.3902 30.0938 21.4094 30.0953C21.4285 30.0967 21.4883 30.0973 21.5924 30.0558C22.4425 29.7168 23.5939 29.195 25.1057 28.3918L25.1126 28.3881C26.2731 27.7774 27.4049 27.1138 28.5046 26.3994C28.7875 26.2132 28.8026 26.0457 28.8026 26C28.8026 25.9541 28.7874 25.7859 28.5022 25.599C27.6496 25.04 26.5339 24.3667 25.106 23.6084C23.5936 22.8048 22.4416 22.2828 21.5914 21.9438C21.4877 21.9023 21.4273 21.9026 21.4088 21.9039C21.3903 21.9053 21.3835 21.9092 21.3788 21.9121C21.3731 21.9156 21.3517 21.9302 21.3252 21.9729ZM23.0728 18.2282C21.7859 17.7146 20.402 17.8117 19.2719 18.5119C18.1563 19.2032 17.4593 20.3735 17.2804 21.6882C17.1254 22.8313 17.0002 24.2875 17.0001 25.9976L17.0001 25.9951L17.0001 26V25.9976C16.9967 27.438 17.09 28.8771 17.2795 30.305L17.2804 30.3118C17.4594 31.6269 18.1568 32.7968 19.2724 33.4876C20.4024 34.1874 21.7857 34.2842 23.0718 33.7722C24.0769 33.3714 25.361 32.7855 26.979 31.926C28.2479 31.2581 29.4854 30.5323 30.6878 29.7511L30.694 29.747C32.0147 28.8819 32.8026 27.5021 32.8026 26C32.8026 24.4981 32.015 23.1186 30.6947 22.2534C29.7354 21.6245 28.5144 20.8894 26.9825 20.0758M26.9825 20.0758C25.3636 19.2157 24.0783 18.6292 23.0728 18.2282L26.9825 20.0758Z" fill="#646464"/>
</svg>
