<svg width="48" height="48" viewBox="0 0 48 48" fill="none" xmlns="http://www.w3.org/2000/svg">
<path fill-rule="evenodd" clip-rule="evenodd" d="M19.98 21.9693C21.2988 21.9887 22.6599 22 24 22C28.72 22 33.7 21.86 36.18 21.72C39.1 21.54 41.38 19.72 41.76 17.28C41.92 16.22 42 15.12 42 14C42 12.88 41.92 11.78 41.76 10.72C41.38 8.26 39.1 6.44 36.18 6.28C33.72 6.14 28.74 6 24 6C19.26 6 14.28 6.14 11.82 6.28C8.9 6.44 6.6 8.26 6.24 10.72C6.08 11.78 6 12.88 6 14C6 15.12 6.08 16.22 6.24 17.28C6.6 19.74 8.9 21.56 11.82 21.72C12.8447 21.7778 14.2963 21.8357 15.98 21.8837V30.02C15.98 33.32 18.68 36.02 21.98 36.02H35.16L32.58 38.6C31.8 39.38 31.8 40.64 32.58 41.42C32.98 41.8 33.48 42 34 42L33.98 42.04C34.5 42.04 35 41.86 35.4 41.46L41.4 35.46C41.6 35.26 41.74 35.04 41.84 34.8C41.94 34.58 42 34.32 42 34.04C42 33.76 41.94 33.52 41.84 33.28C41.74 33.04 41.6 32.82 41.4 32.62L35.4 26.62C34.62 25.84 33.36 25.84 32.58 26.62C31.8 27.4 31.8 28.66 32.58 29.44L35.16 32.02H21.98C20.88 32.02 19.98 31.12 19.98 30.02V21.9693ZM12.04 17.74C10.98 17.68 10.28 17.16 10.2 16.7H10.22C10.08 15.82 10.02 14.94 10.02 14C10.02 13.06 10.1 12.16 10.22 11.3C10.28 10.84 11 10.32 12.06 10.26C14.42 10.12 19.4 9.98 24.02 9.98C28.64 9.98 33.62 10.12 35.98 10.26C37.04 10.32 37.76 10.84 37.82 11.3C37.96 12.16 38.02 13.06 38.02 14C38.02 14.94 37.94 15.84 37.82 16.7C37.74 17.16 37.04 17.68 35.96 17.74C33.6 17.88 28.6 18.02 24 18.02C19.4 18.02 14.4 17.88 12.04 17.74Z" fill="#646464"/>
</svg>
