<svg width="48" height="48" viewBox="0 0 48 48" fill="none" xmlns="http://www.w3.org/2000/svg">
<path d="M37.5003 6.02362H10.4997C8.01908 6.02917 6.00865 8.03974 6 10.5236V37.5236C6 39.9986 8.02459 42.0236 10.4997 42.0236H37.5003C39.9754 42.0236 42 39.9986 42 37.5236V10.5236C42 8.04862 39.9754 6.02362 37.5003 6.02362Z" fill="#E44332"/>
<path d="M13.631 23.0753C14.2602 22.7075 27.7762 14.8426 28.0851 14.6603C28.3941 14.4803 28.411 13.9268 28.0627 13.7266C27.7166 13.5275 27.0594 13.1495 26.8156 13.0043C26.4674 12.8126 26.0444 12.8177 25.701 13.0178C25.528 13.1191 13.9793 19.8353 13.5939 20.0558C13.1299 20.3213 12.5603 20.3258 12.0996 20.0558L6 16.4716V19.5181C7.48305 20.3933 11.1761 22.5668 12.0704 23.0787C12.6041 23.3825 13.1142 23.3757 13.631 23.0753Z" fill="white"/>
<path d="M13.631 28.8352C14.2602 28.4673 27.7762 20.6024 28.0851 20.4202C28.3941 20.2402 28.411 19.6867 28.0627 19.4864C27.7166 19.2873 27.0594 18.9093 26.8156 18.7642C26.4674 18.5724 26.0444 18.5775 25.701 18.7777C25.528 18.8789 13.9793 25.5952 13.5939 25.8157C13.1299 26.0812 12.5603 26.0857 12.0996 25.8157L6 22.2314V25.2779C7.48305 26.1532 11.1761 28.3267 12.0704 28.8385C12.6041 29.1423 13.1142 29.1355 13.631 28.8352Z" fill="white"/>
<path d="M13.631 34.9551C14.2602 34.5872 27.7762 26.7223 28.0851 26.5401C28.3941 26.3601 28.411 25.8066 28.0627 25.6063C27.7166 25.4072 27.0594 25.0292 26.8156 24.8841C26.4674 24.6923 26.0444 24.6974 25.701 24.8976C25.528 24.9988 13.9793 31.7151 13.5939 31.9356C13.1299 32.2011 12.5603 32.2056 12.0996 31.9356L6 28.3513V31.3978C7.48305 32.2731 11.1761 34.4466 12.0704 34.9584C12.6041 35.2622 13.1142 35.2555 13.631 34.9551Z" fill="white"/>
</svg>
