<svg width="48" height="48" viewBox="0 0 48 48" fill="none" xmlns="http://www.w3.org/2000/svg">
<path d="M9.15313 20.5996C8.05177 21.3508 6.63235 21.0055 6.42474 19.8944C6.20006 18.6915 6 16.8271 6 13.9997C6 11.173 6.19993 9.30865 6.4246 8.10579C6.63221 6.9945 8.05203 6.64911 9.15365 7.40061C9.94451 7.94009 10.9715 8.68391 12.2572 9.69485C13.805 10.9117 14.7903 11.8708 15.4117 12.5717C16.1962 13.4565 16.1961 14.543 15.4116 15.4276C14.7902 16.1286 13.8049 17.0877 12.2572 18.3046C10.9712 19.316 9.94411 20.06 9.15313 20.5996Z" fill="#646464"/>
<path d="M9.15313 40.5996C8.05177 41.3508 6.63235 41.0055 6.42474 39.8944C6.20006 38.6915 6 36.8271 6 33.9997C6 31.173 6.19993 29.3086 6.4246 28.1058C6.63221 26.9945 8.05203 26.6491 9.15365 27.4006C9.94451 27.9401 10.9715 28.6839 12.2572 29.6949C13.805 30.9117 14.7903 31.8708 15.4117 32.5717C16.1962 33.4565 16.1961 34.543 15.4116 35.4276C14.7902 36.1286 13.8049 37.0877 12.2572 38.3046C10.9712 39.316 9.94411 40.06 9.15313 40.5996Z" fill="#646464"/>
<path d="M22 12C20.8954 12 20 12.8954 20 14C20 15.1046 20.8954 16 22 16L42 16C43.1046 16 44 15.1046 44 14C44 12.8954 43.1046 12 42 12L22 12Z" fill="#646464"/>
<path d="M22 32C20.8954 32 20 32.8954 20 34C20 35.1046 20.8954 36 22 36L42 36C43.1046 36 44 35.1046 44 34C44 32.8954 43.1046 32 42 32L22 32Z" fill="#646464"/>
</svg>
