<svg width="48" height="48" viewBox="0 0 48 48" fill="none" xmlns="http://www.w3.org/2000/svg">
<path fill-rule="evenodd" clip-rule="evenodd" d="M13.4434 4C14.5343 4 15.5211 4.62848 15.9863 5.60156L16.0723 5.80078L17.9102 10.5508L18.002 10.8203C18.3814 12.0854 18.0441 13.4596 17.1211 14.4043L16.9141 14.5996L16.7637 14.7207L13.5488 17.0254V22.8379C14.2049 22.8521 14.7698 22.8734 15.252 22.8965L15.6816 22.9355C17.802 23.2267 19.4218 24.8882 19.6914 27.0215L19.8379 28.3145C19.9788 29.7246 20.0957 31.4723 20.0957 33.4102C20.0957 33.8764 20.0883 34.3317 20.0762 34.7734L20.0254 36.0586C19.7827 40.6761 16.0882 43.9999 11.5488 44C7.15169 43.9997 3.54934 40.8807 3.10742 36.4883L3.07422 36.0586C3.03079 35.2319 3.00393 34.3434 3.00391 33.4102C3.00391 30.8262 3.2092 28.5812 3.40625 27.0215L3.47852 26.6016C3.92427 24.5352 5.6645 23.0012 7.84766 22.8965L9.45117 22.8398C9.4835 22.8391 9.51605 22.8386 9.54883 22.8379V17.0586L9.44727 16.9961L6.32227 14.709C6.27541 14.6747 6.22924 14.6378 6.18555 14.5996C5.03589 13.5933 4.63793 11.9757 5.18945 10.5508L7.02734 5.80078L7.11328 5.60156C7.57841 4.62884 8.56537 4.00018 9.65625 4H13.4434ZM9.54102 26.8398L8.03906 26.8906C7.7325 26.9053 7.49046 27.0826 7.40234 27.3848L7.375 27.5234C7.19366 28.9589 7.00391 31.0318 7.00391 33.4102C7.00393 34.2668 7.02829 35.0846 7.06836 35.8477L7.11328 36.293C7.43116 38.4688 9.20857 39.9998 11.5488 40C14.0453 39.9999 15.9022 38.2581 16.0293 35.8496L16.0781 34.6641C16.0893 34.2572 16.0957 33.8384 16.0957 33.4102C16.0957 31.6258 15.9873 30.0129 15.8574 28.7129L15.7246 27.5234C15.682 27.1859 15.4735 26.9667 15.1875 26.9062L15.0605 26.8906C14.2161 26.8501 13.0667 26.8184 11.5488 26.8184C10.79 26.8184 10.1233 26.8268 9.54102 26.8398ZM9.01953 11.7266L11.3145 13.4062L11.7109 13.4219L14.0742 11.7246L12.6348 8H10.4648L9.01953 11.7266Z" fill="#646464"/>
<path fill-rule="evenodd" clip-rule="evenodd" d="M27.625 4.12109C29.3446 3.62299 30.9098 4.91164 31.0898 6.50195L31.1055 6.8457C31.0723 9.11853 31.0782 11.6982 31.1797 13.6152C31.4885 13.8679 31.9201 14.1721 32.4297 14.4023C32.9128 14.1842 33.3251 13.8974 33.6309 13.6523V6.8125C33.6309 5.07558 35.302 3.59953 37.123 4.13281L37.4883 4.26562L37.8984 4.45508C42.0904 6.48595 44.9961 10.7619 44.9961 15.7246C44.9958 20.318 42.502 24.3183 38.8086 26.498C38.7279 31.2841 38.5601 34.8223 38.3984 37.2578L38.2363 39.4102C38.0716 41.3357 36.7411 43.1348 34.6328 43.5195L34.2012 43.5781C33.6712 43.6237 33.0567 43.6543 32.3594 43.6543C32.0107 43.6543 31.6818 43.646 31.375 43.6328L30.5176 43.5781C28.3078 43.3873 26.8475 41.6959 26.5293 39.793L26.4805 39.4102C26.2866 37.1384 26.0171 32.953 25.9082 26.498C22.2156 24.3181 19.7229 20.3174 19.7227 15.7246C19.7227 10.5927 22.8303 6.19598 27.2539 4.25586L27.625 4.12109ZM27.0879 8.9668C25.0371 10.5314 23.7227 12.9809 23.7227 15.7246C23.7229 18.9963 25.5888 21.8514 28.3496 23.2852L28.668 23.4766C29.2808 23.9034 29.7352 24.5726 29.8613 25.3633L29.8965 25.7676L29.9414 28.1855C30.0642 33.5634 30.299 37.1037 30.4668 39.0703L30.4902 39.2109C30.522 39.338 30.5772 39.4282 30.627 39.4824C30.6839 39.5443 30.7522 39.5842 30.8594 39.5938L31.5469 39.6367C31.7965 39.6475 32.0681 39.6543 32.3594 39.6543C32.9415 39.6543 33.4414 39.6295 33.8574 39.5938L33.9941 39.5566C34.0313 39.5381 34.0634 39.5132 34.0918 39.4824C34.1582 39.4101 34.2343 39.2742 34.252 39.0703L34.4082 36.9922C34.5724 34.5177 34.7476 30.8317 34.8223 25.7676L34.8574 25.3633C35.0046 24.4414 35.5989 23.6855 36.3691 23.2852L36.877 23C39.3567 21.4931 40.9958 18.7918 40.9961 15.7246C40.9961 12.9812 39.6813 10.5334 37.6309 8.96875V14.2266C37.6308 14.8207 37.4391 15.454 37.0059 15.9746L36.8066 16.1914C36.2943 16.6857 35.0432 17.7704 33.2988 18.3574C32.8068 18.5225 32.2763 18.544 31.7754 18.4199L31.5625 18.3574C30.2276 17.9082 29.1811 17.1668 28.5332 16.6211L28.0215 16.1582C27.5126 15.6615 27.2552 15.0203 27.2129 14.3984L27.166 13.5605C27.1008 12.1778 27.0833 10.5504 27.0879 8.9668Z" fill="#646464"/>
</svg>
