<svg width="48" height="48" viewBox="0 0 48 48" fill="none" xmlns="http://www.w3.org/2000/svg">
<path fill-rule="evenodd" clip-rule="evenodd" d="M43.3732 20.3979C42.9968 20.7829 42.4812 21 41.9428 21L6.05591 21C5.51753 21 5.0019 20.783 4.6256 20.3979C4.24929 20.0129 4.0441 19.4924 4.05643 18.9542C4.14085 15.2676 4.30656 12.3308 4.46793 10.3442C4.72522 7.17724 7.17658 4.72585 10.3436 4.46854C13.1685 4.23903 17.6375 4 23.9994 4C30.3614 4 34.8303 4.23902 37.6552 4.46854C40.8222 4.72585 43.2736 7.17719 43.5309 10.3442C43.6923 12.3308 43.8579 15.2677 43.9423 18.9542C43.9546 19.4924 43.7495 20.0129 43.3732 20.3979ZM39.8859 17C39.797 14.3384 39.668 12.1936 39.544 10.6681C39.4454 9.45459 38.5448 8.554 37.3313 8.45541C34.622 8.23528 30.2615 8 23.9994 8C17.7374 8 13.3768 8.23529 10.6675 8.45541C9.45398 8.554 8.55339 9.4546 8.4548 10.6681C8.33089 12.1936 8.20179 14.3384 8.11283 17L39.8859 17Z" fill="#646464"/>
<path fill-rule="evenodd" clip-rule="evenodd" d="M39.9998 24C39.9998 17.7379 39.7641 13.3773 39.544 10.6681C39.4454 9.45459 38.5448 8.554 37.3313 8.45541C34.622 8.23528 30.2615 8 23.9994 8C17.7374 8 13.3768 8.23529 10.6675 8.45541C9.45398 8.554 8.55339 9.4546 8.4548 10.6681C8.23467 13.3773 7.99976 17.7379 7.99976 24C7.99976 30.2621 8.23506 34.6227 8.45519 37.3319C8.55378 38.5454 9.45436 39.446 10.6679 39.5446C13.3771 39.7647 17.7377 40 23.9998 40C30.2618 40 34.6224 39.7647 37.3316 39.5446C38.5451 39.446 39.4458 38.5454 39.5444 37.3319C39.7645 34.6227 39.9998 30.2621 39.9998 24ZM43.5309 10.3442C43.7604 13.1691 43.9998 17.6381 43.9998 24C43.9998 30.3619 43.7607 34.8309 43.5312 37.6558C43.2739 40.8228 40.8226 43.2741 37.6556 43.5314C34.8307 43.761 30.3617 44 23.9998 44C17.6378 44 13.1688 43.761 10.344 43.5314C7.17697 43.2741 4.72562 40.8228 4.46832 37.6558C4.2388 34.8309 3.99975 30.3619 3.99975 24C3.99975 17.6381 4.2384 13.1691 4.46793 10.3442C4.72522 7.17724 7.17658 4.72585 10.3436 4.46854C13.1685 4.23903 17.6375 4 23.9994 4C30.3614 4 34.8303 4.23902 37.6552 4.46854C40.8222 4.72585 43.2736 7.17719 43.5309 10.3442Z" fill="#646464"/>
</svg>
