<svg width="48" height="48" viewBox="0 0 48 48" fill="none" xmlns="http://www.w3.org/2000/svg">
<path fill-rule="evenodd" clip-rule="evenodd" d="M10 8C10 6.89543 10.8954 6 12 6C13.1046 6 14 6.89543 14 8C14 10.5565 14.6442 12.0875 15.4543 13.13C16.3042 14.2237 17.4815 14.9742 18.9297 15.7345C19.1809 15.8664 19.4512 16.0031 19.7335 16.1458C20.4503 16.5082 21.2444 16.9098 22 17.3715V8C22 6.89543 22.8954 6 24 6C25.1046 6 26 6.89543 26 8V17.3715C26.7556 16.9098 27.5497 16.5083 28.2665 16.1458C28.5488 16.0031 28.8191 15.8664 29.0703 15.7345C30.5185 14.9742 31.6958 14.2237 32.5457 13.13C33.3558 12.0875 34 10.5565 34 8C34 6.89543 34.8954 6 36 6C37.1046 6 38 6.89543 38 8C38 11.2971 37.1442 13.7313 35.7042 15.5843C34.3041 17.3861 32.4814 18.4614 30.9296 19.2761C30.5405 19.4804 30.1788 19.6645 29.8415 19.8362C28.7143 20.4101 27.8595 20.8452 27.1621 21.4316C26.4387 22.0399 26 22.73 26 24C26 25.27 26.4387 25.9601 27.1621 26.5684C27.8595 27.1548 28.7143 27.5899 29.8415 28.1638C30.1788 28.3355 30.5405 28.5196 30.9296 28.7239C32.4814 29.5386 34.3041 30.6139 35.7042 32.4157C37.1442 34.2687 38 36.7029 38 40C38 41.1046 37.1046 42 36 42C34.8954 42 34 41.1046 34 40C34 37.4435 33.3558 35.9125 32.5457 34.87C31.6958 33.7763 30.5185 33.0258 29.0703 32.2655C28.8191 32.1336 28.5488 31.9969 28.2665 31.8542C27.5497 31.4917 26.7556 31.0902 26 30.6285V40C26 41.1046 25.1046 42 24 42C22.8954 42 22 41.1046 22 40L22 30.6285C21.2444 31.0902 20.4503 31.4917 19.7335 31.8542C19.4512 31.9969 19.1809 32.1336 18.9297 32.2655C17.4815 33.0258 16.3042 33.7763 15.4543 34.87C14.6442 35.9125 14 37.4435 14 40C14 41.1046 13.1046 42 12 42C10.8954 42 10 41.1046 10 40C10 36.7029 10.8558 34.2687 12.2958 32.4157C13.6959 30.6139 15.5186 29.5386 17.0704 28.7239C17.4595 28.5196 17.8212 28.3355 18.1585 28.1638C19.2857 27.5899 20.1405 27.1548 20.8379 26.5684C21.5613 25.9601 22 25.27 22 24C22 22.7301 21.5613 22.0399 20.8379 21.4316C20.1405 20.8452 19.2857 20.4101 18.1585 19.8362C17.8213 19.6646 17.4594 19.4803 17.0704 19.2761C15.5186 18.4614 13.6959 17.3861 12.2958 15.5843C10.8558 13.7313 10 11.2971 10 8Z" fill="#646464"/>
</svg>
