<svg width="48" height="48" viewBox="0 0 48 48" fill="none" xmlns="http://www.w3.org/2000/svg">
<path fill-rule="evenodd" clip-rule="evenodd" d="M37.7263 6H10.2795C7.91826 6 6.00325 7.91366 6.00003 10.2764V37.7005C5.99547 38.8392 6.4443 39.9329 7.24734 40.7397C8.05038 41.5465 9.14148 42 10.2795 42H37.7263C38.8633 41.9985 39.9529 41.5443 40.7547 40.7376C41.5565 39.931 42.0045 38.8382 42 37.7005V10.2764C41.9968 7.91591 40.0853 6.00318 37.7263 6ZM21.5258 31.9295C21.5243 32.3101 21.3713 32.6744 21.1008 32.9419C20.8302 33.2094 20.4643 33.358 20.084 33.355H14.0859C13.3014 33.3517 12.6671 32.7145 12.6671 31.9295V14.068C12.6671 13.283 13.3014 12.6457 14.0859 12.6425H20.084C20.8694 12.6457 21.5053 13.282 21.5085 14.068L21.5258 31.9295ZM35.3675 23.7288C35.3675 24.1098 35.215 24.475 34.9441 24.7429C34.6732 25.0107 34.3064 25.1588 33.9256 25.1543H27.9276C27.1421 25.1511 26.5062 24.5147 26.503 23.7288V14.068C26.5062 13.282 27.1421 12.6457 27.9276 12.6425H33.9256C34.7101 12.6457 35.3444 13.283 35.3444 14.068L35.3675 23.7288Z" fill="url(#paint0_linear_3_18368)"/>
<defs>
<linearGradient id="paint0_linear_3_18368" x1="24" y1="42" x2="24" y2="6" gradientUnits="userSpaceOnUse">
<stop stop-color="#0052CC"/>
<stop offset="1" stop-color="#2684FF"/>
</linearGradient>
</defs>
</svg>
