<svg width="48" height="48" viewBox="0 0 48 48" fill="none" xmlns="http://www.w3.org/2000/svg">
<path d="M24.0001 38.7292C15.8654 38.7292 9.27079 32.1346 9.27079 24.0001C9.27079 15.8654 15.8654 9.27094 24.0001 9.27094C32.1346 9.27094 38.7291 15.8654 38.7291 24.0001C38.7291 32.1346 32.1346 38.7292 24.0001 38.7292ZM24.0001 4C12.9544 4 4 12.9545 4 24.0001C4 35.0458 12.9544 44 24.0001 44C35.0456 44 44 35.0458 44 24.0001C44 12.9545 35.0456 4 23.9999 4H24.0001Z" fill="#CF272D"/>
<path d="M24.8222 19.019C24.8222 16.7224 26.6841 14.8605 28.9809 14.8605C31.2776 14.8605 33.1393 16.7224 33.1393 19.019C33.1393 21.3159 31.2776 23.1776 28.9809 23.1776C26.6841 23.1776 24.8222 21.3159 24.8222 19.019ZM24.8222 28.9809C24.8222 26.6843 26.6841 24.8222 28.9809 24.8222C31.2776 24.8222 33.1393 26.6843 33.1393 28.9809C33.1393 31.2776 31.2776 33.1395 28.9809 33.1395C26.6841 33.1395 24.8222 31.2776 24.8222 28.9809ZM14.8605 28.9809C14.8605 26.6843 16.7226 24.8222 19.0191 24.8222C21.3159 24.8222 23.1778 26.6843 23.1778 28.9809C23.1778 31.2776 21.3159 33.1395 19.0191 33.1395C16.7226 33.1395 14.8605 31.2776 14.8605 28.9809ZM14.8605 19.0191C14.8605 16.7224 16.7226 14.8607 19.0191 14.8607C21.3159 14.8607 23.1778 16.7224 23.1778 19.0191C23.1778 21.316 21.3159 23.1778 19.0191 23.1778C16.7226 23.1778 14.8605 21.316 14.8605 19.0191Z" fill="#CF272D"/>
</svg>
