<svg width="48" height="48" viewBox="0 0 48 48" fill="none" xmlns="http://www.w3.org/2000/svg">
<path fill-rule="evenodd" clip-rule="evenodd" d="M8 7C8 5.89543 8.89543 5 10 5H18C19.1046 5 20 5.89543 20 7C20 8.10457 19.1046 9 18 9H16V26C16 30.4183 19.5817 34 24 34C28.4183 34 32 30.4183 32 26V9H30C28.8954 9 28 8.10457 28 7C28 5.89543 28.8954 5 30 5H38C39.1046 5 40 5.89543 40 7C40 8.10457 39.1046 9 38 9H36V26C36 32.6274 30.6274 38 24 38C17.3726 38 12 32.6274 12 26V9C10.4523 9 8 9.24153 8 7ZM6 42C6 40.8954 6.89543 40 8 40H40C41.1046 40 42 40.8954 42 42C42 43.1046 41.1046 44 40 44H8C6.89543 44 6 43.1046 6 42Z" fill="#646464"/>
</svg>
