<svg width="48" height="48" viewBox="0 0 48 48" fill="none" xmlns="http://www.w3.org/2000/svg">
<path fill-rule="evenodd" clip-rule="evenodd" d="M24 10C18.834 10 14.3185 12.7992 11.8924 16.9653L15.5149 16.0597C16.5865 15.7918 17.6724 16.4433 17.9403 17.5149C18.2082 18.5865 17.5566 19.6724 16.4851 19.9403L8.48506 21.9403C7.41347 22.2082 6.3276 21.5567 6.0597 20.4851L4.0597 12.4851C3.7918 11.4135 4.44332 10.3276 5.51491 10.0597C6.5865 9.79182 7.67237 10.4433 7.94027 11.5149L8.69294 14.5256C11.8665 9.40866 17.5336 6 24 6C33.9411 6 42 14.0589 42 24C42 33.9411 33.9411 42 24 42C17.3349 42 11.5186 38.3764 8.40929 33.0015C7.8562 32.0453 8.18293 30.8219 9.13905 30.2688C10.0952 29.7157 11.3186 30.0424 11.8717 30.9985C14.2954 35.1884 18.8205 38 24 38C31.732 38 38 31.732 38 24C38 16.268 31.732 10 24 10Z" fill="#646464"/>
</svg>
