<svg width="44" height="48" viewBox="0 0 44 48" fill="none" xmlns="http://www.w3.org/2000/svg">
<path fill-rule="evenodd" clip-rule="evenodd" d="M17.7964 6.58579C18.5123 7.36683 18.5123 8.63317 17.7964 9.41421L11.7594 16H26.5833C33.1647 16 38.5 21.8203 38.5 29C38.5 36.1797 33.1647 42 26.5833 42H20.1667C19.1541 42 18.3333 41.1046 18.3333 40C18.3333 38.8954 19.1541 38 20.1667 38H26.5833C31.1397 38 34.8333 33.9706 34.8333 29C34.8333 24.0294 31.1397 20 26.5833 20H11.7594L17.7964 26.5858C18.5123 27.3668 18.5123 28.6332 17.7964 29.4142C17.0804 30.1953 15.9196 30.1953 15.2036 29.4142L6.03697 19.4142C5.32101 18.6332 5.32101 17.3668 6.03697 16.5858L15.2036 6.58579C15.9196 5.80474 17.0804 5.80474 17.7964 6.58579Z" fill="#646464"/>
</svg>
