<svg width="48" height="48" viewBox="0 0 48 48" fill="none" xmlns="http://www.w3.org/2000/svg">
<path d="M23.3823 5.26526C24.3157 4.41484 25.5845 3.90259 26.9535 4.00815C28.3073 4.11255 29.8411 4.71369 31.5135 5.75206C33.2108 6.80593 35.1746 8.38751 37.4102 10.6234C39.6512 12.8647 41.2304 14.8297 42.2788 16.5259C43.3118 18.1971 43.9049 19.7282 44.0005 21.0787C44.0963 22.4324 43.5853 23.681 42.7511 24.6004C41.307 26.1919 39.4466 27.1684 37.6632 27.795C36.621 28.1611 35.4794 27.6131 35.1133 26.571C34.7472 25.5289 35.2952 24.3873 36.3373 24.0211C37.749 23.5251 38.9435 22.844 39.7887 21.9126C39.9689 21.714 40.0212 21.5134 40.0104 21.3611C39.9784 20.9082 39.733 20.0149 38.8764 18.6291C38.0351 17.2682 36.6734 15.5437 34.5816 13.4517C32.4944 11.3642 30.7691 9.99818 29.4035 9.15029C28.013 8.28692 27.1102 8.03211 26.646 7.99631C26.4844 7.98385 26.2775 8.03873 26.0762 8.22207C25.1497 9.06621 24.4716 10.2569 23.9774 11.6631C23.6111 12.7052 22.4694 13.2531 21.4274 12.8868C20.3853 12.5206 19.8374 11.3789 20.2037 10.3368C20.8282 8.55977 21.8003 6.70666 23.3823 5.26526Z" fill="#646464"/>
<path fill-rule="evenodd" clip-rule="evenodd" d="M4.58579 7.41418L14.8281 17.6565C13.6912 17.7249 12.4018 17.9329 11.2173 18.5027C8.79071 19.6699 8.20122 22.5191 9.36472 24.6228C10.2613 26.2438 11.7525 28.5508 14.0662 31.1052L5.61508 39.5563C4.83403 40.3373 4.83404 41.6037 5.61508 42.3847C6.39613 43.1658 7.66246 43.1658 8.44351 42.3847L16.8927 33.9355C19.4561 36.2633 21.7662 37.7546 23.3884 38.6481C25.491 39.8063 28.327 39.2098 29.4915 36.7954C30.0645 35.6072 30.2759 34.315 30.3471 33.1755L40.5858 43.4142C41.3668 44.1952 42.6332 44.1952 43.4142 43.4142C44.1953 42.6331 44.1953 41.3668 43.4142 40.5858L7.41421 4.58576C6.63317 3.80471 5.36684 3.80471 4.58579 4.58576C3.80474 5.3668 3.80474 6.63314 4.58579 7.41418ZM18.8044 21.7158C18.8313 21.7154 18.8581 21.7146 18.8848 21.7132L26.2993 29.1277C26.2979 29.1544 26.2971 29.1813 26.2967 29.2082C26.2916 29.6096 26.3134 30.0833 26.3337 30.5261L26.3424 30.7148C26.366 31.2408 26.3861 31.7749 26.3778 32.3153C26.3606 33.4303 26.2208 34.369 25.8886 35.0577C25.845 35.1482 25.7889 35.1884 25.7138 35.2094C25.6257 35.2341 25.4821 35.2347 25.3183 35.1444C23.685 34.2448 21.1168 32.5697 18.2918 29.7444C15.4636 26.9158 13.7751 24.3321 12.865 22.6868C12.773 22.5204 12.7732 22.374 12.7983 22.284C12.8196 22.2075 12.8602 22.1511 12.9512 22.1074C13.6352 21.7784 14.5722 21.6414 15.6898 21.6277C16.2312 21.6211 16.7661 21.6428 17.2934 21.6678L17.468 21.6761C17.9158 21.6978 18.3968 21.721 18.8044 21.7158Z" fill="#646464"/>
</svg>
