<svg width="48" height="48" viewBox="0 0 48 48" fill="none" xmlns="http://www.w3.org/2000/svg">
<path fill-rule="evenodd" clip-rule="evenodd" d="M19.9403 16.4851C19.9037 16.6314 19.8519 16.77 19.7869 16.8994L18.9002 17.786C18.4868 17.9946 17.9994 18.0614 17.5149 17.9403C16.4433 17.6724 15.7918 16.5865 16.0597 15.5149L16.9653 11.8924C12.7992 14.3185 10 18.834 10 24C10 24.4542 10.0216 24.9033 10.0639 25.3465C10.1313 26.0535 9.91773 26.7685 9.4155 27.2707C8.27519 28.411 6.35831 27.9389 6.1507 26.3396C6.05128 25.5739 6 24.7929 6 24C6 17.5337 9.40866 11.8665 14.5256 8.69297L11.5149 7.9403C10.4433 7.6724 9.79182 6.58653 10.0597 5.51494C10.3276 4.44336 11.4135 3.79183 12.4851 4.05973L20.4851 6.05973C21.5567 6.32763 22.2082 7.4135 21.9403 8.48509L19.9403 16.4851ZM28.0597 31.5149C28.0963 31.3685 28.1482 31.2299 28.2133 31.1004L29.0994 30.2142C29.5129 30.0055 30.0005 29.9386 30.4851 30.0597C31.5567 30.3276 32.2082 31.4135 31.9403 32.4851L31.0347 36.1076C34.5214 34.0772 37.0507 30.5832 37.7829 26.4692C38.0026 25.2345 38.0531 23.9235 37.9345 22.6537C37.8684 21.9465 38.0822 21.2314 38.5845 20.7292C39.7248 19.5889 41.6417 20.061 41.8493 21.6602C41.9487 22.4261 42 23.207 42 24C42 30.4664 38.5913 36.1335 33.4744 39.3071L36.4851 40.0597C37.5567 40.3276 38.2082 41.4135 37.9403 42.4851C37.6724 43.5567 36.5865 44.2082 35.5149 43.9403L27.5149 41.9403C27.0003 41.8117 26.5579 41.4838 26.285 41.029C26.0121 40.5742 25.9311 40.0295 26.0597 39.5149L28.0597 31.5149ZM41.4142 9.41421C42.1953 8.63316 42.1953 7.36684 41.4142 6.58579C40.6332 5.80474 39.3668 5.80474 38.5858 6.58579L6.58579 38.5858C5.80474 39.3668 5.80474 40.6332 6.58579 41.4142C7.36683 42.1953 8.63316 42.1953 9.41421 41.4142L41.4142 9.41421Z" fill="#646464"/>
</svg>
