<svg width="48" height="48" viewBox="0 0 48 48" fill="none" xmlns="http://www.w3.org/2000/svg">
<path d="M21.9728 43.98H21.9928C23.0928 43.98 23.9928 43.1 23.9928 42C24.0128 40.9 23.1128 39.98 22.0128 39.98C17.9928 39.94 14.4528 39.76 11.5128 39.44C10.9528 39.38 10.4928 39.14 10.2128 38.74C10.0128 38.44 9.95278 38.1 10.0328 37.72C10.9528 33.88 13.8528 29.14 19.2528 27.32C20.0128 27.08 20.5328 26.42 20.6128 25.64C20.7128 24.88 20.3328 24.12 19.6528 23.72C17.0528 22.18 15.4928 19.46 15.4928 16.46C15.4928 11.8 19.3128 8 23.9928 8C28.6728 8 32.4928 11.8 32.4928 16.46C32.4928 17.62 32.2528 18.74 31.8128 19.78C31.3928 20.78 31.8528 21.96 32.8728 22.4C33.8728 22.82 35.0528 22.36 35.4928 21.34C36.1528 19.8 36.4928 18.16 36.4928 16.46C36.4928 9.58 30.8928 4 23.9928 4C17.0928 4 11.4928 9.58 11.4928 16.44C11.4928 19.62 12.7328 22.66 14.8728 24.94C10.5928 27.42 7.37278 31.72 6.15278 36.78C5.79278 38.28 6.07278 39.8 6.95278 41.04C7.89278 42.38 9.39278 43.24 11.0928 43.42C14.1728 43.74 17.8328 43.94 21.9728 43.98Z" fill="#646464"/>
<path d="M28.9927 44H35.9927C37.0927 44 37.9927 43.1 37.9927 42C37.9927 40.9 37.0927 40 35.9927 40H28.9927C27.8927 40 26.9927 40.9 26.9927 42C26.9927 43.1 27.8927 44 28.9927 44Z" fill="#646464"/>
<path d="M41.9927 37H28.9927C27.8927 37 26.9927 36.1 26.9927 35C26.9927 33.9 27.8927 33 28.9927 33H41.9927C43.0927 33 43.9927 33.9 43.9927 35C43.9927 36.1 43.0927 37 41.9927 37Z" fill="#646464"/>
<path d="M28.9927 30H41.9927C43.0927 30 43.9927 29.1 43.9927 28C43.9927 26.9 43.0927 26 41.9927 26H28.9927C27.8927 26 26.9927 26.9 26.9927 28C26.9927 29.1 27.8927 30 28.9927 30Z" fill="#646464"/>
</svg>
