<svg width="48" height="48" viewBox="0 0 48 48" fill="none" xmlns="http://www.w3.org/2000/svg">
<path d="M11.1001 43.42C14.5601 43.8 18.9201 44 23.6801 44L23.6601 43.98C24.7601 43.98 25.6601 43.08 25.6601 41.98C25.6601 40.88 24.7601 39.98 23.6601 39.98C17.8001 39.98 13.8201 39.68 11.5001 39.44C10.9401 39.38 10.4801 39.14 10.2001 38.74C10.0001 38.44 9.9401 38.1 10.0201 37.72C10.9401 33.88 13.8401 29.14 19.2401 27.32C20.0001 27.08 20.5201 26.42 20.6001 25.64C20.7001 24.88 20.3201 24.12 19.6401 23.72C17.0401 22.18 15.4801 19.46 15.4801 16.46C15.4801 11.8 19.3001 8 23.9801 8C28.6601 8 32.4801 11.8 32.4801 16.46C32.4801 18.48 31.7601 20.42 30.4601 21.94C29.7401 22.78 29.8401 24.04 30.6801 24.76C31.5201 25.48 32.7801 25.38 33.5001 24.54C35.4401 22.3 36.5001 19.42 36.5001 16.46C36.5001 9.58 30.9001 4 24.0001 4C17.1001 4 11.5001 9.58 11.5001 16.44C11.5001 19.62 12.7401 22.66 14.8801 24.94C10.6001 27.42 7.3801 31.72 6.1601 36.78C5.8001 38.28 6.0801 39.8 6.9601 41.04C7.9001 42.38 9.4001 43.24 11.1001 43.42Z" fill="#646464"/>
<path fill-rule="evenodd" clip-rule="evenodd" d="M39.5801 42.4202C39.9776 42.7978 40.4739 42.9977 40.9904 43.0001C41.5067 42.9978 42.0028 42.8175 42.4001 42.4202C43.1801 41.6402 43.1801 40.3802 42.4001 39.6002L38.8201 36.0202L42.4001 32.4402C43.1801 31.6602 43.1801 30.4002 42.4001 29.6202C41.6201 28.8402 40.3601 28.8402 39.5801 29.6202L36.0001 33.2002L32.4201 29.6202C31.6401 28.8402 30.3801 28.8402 29.6001 29.6202C28.8201 30.4002 28.8201 31.6602 29.6001 32.4402L33.1801 36.0202L29.6001 39.6002C28.8201 40.3802 28.8201 41.6402 29.6001 42.4202C30.3801 43.2002 31.6401 43.2002 32.4201 42.4202L36.0001 38.8402L39.5801 42.4202ZM40.9904 43.0001C40.9936 43.0001 40.9969 43.0002 41.0001 43.0002H40.9801C40.9836 43.0002 40.987 43.0001 40.9904 43.0001Z" fill="#646464"/>
</svg>
