<svg width="48" height="48" viewBox="0 0 48 48" fill="none" xmlns="http://www.w3.org/2000/svg">
<path d="M11.4893 16.4516C11.4893 9.5643 17.1006 4 23.9989 4C30.8974 4 36.5085 9.56431 36.5085 16.4516C36.5085 17.4968 36.3787 18.5145 36.1333 19.4886C35.8635 20.5597 34.7764 21.2093 33.7053 20.9394C32.6342 20.6695 31.9847 19.5825 32.2545 18.5114C32.4201 17.8541 32.5085 17.1645 32.5085 16.4516C32.5085 11.7943 28.7091 8 23.9989 8C19.2888 8 15.4893 11.7943 15.4893 16.4516C15.4893 19.5331 17.1494 22.2362 19.6467 23.716C20.3192 24.1145 20.6979 24.8684 20.6161 25.6458C20.5344 26.4232 20.0072 27.0818 19.2665 27.3317C14.3178 29.0013 11.1103 33.2772 10.0396 37.7297C9.93815 38.1517 10.0374 38.5141 10.2726 38.8108C10.5218 39.1253 10.954 39.3922 11.5224 39.4522C13.5456 39.6657 16.5231 39.8857 20.6081 39.9671C21.7125 39.9891 22.5899 40.9022 22.5679 42.0066C22.5459 43.1109 21.6328 43.9883 20.5284 43.9663C16.3389 43.8828 13.2475 43.6565 11.1025 43.4301C7.97166 43.0996 5.31218 40.2807 6.15049 36.7945C7.25572 32.1982 10.2098 27.6283 14.8585 24.9522C12.7712 22.7293 11.4893 19.7412 11.4893 16.4516Z" fill="#646464"/>
<path fill-rule="evenodd" clip-rule="evenodd" d="M24.9999 35C24.9999 29.4772 29.477 25 34.9999 25C40.5227 25 44.9999 29.4772 44.9999 35C44.9999 40.5229 40.5227 45 34.9999 45C29.477 45 24.9999 40.5229 24.9999 35ZM34.9999 29C31.6861 29 28.9999 31.6863 28.9999 35C28.9999 38.3137 31.6861 41 34.9999 41C38.3136 41 40.9999 38.3137 40.9999 35C40.9999 31.6863 38.3136 29 34.9999 29Z" fill="#646464"/>
</svg>
