<svg width="48" height="48" viewBox="0 0 48 48" fill="none" xmlns="http://www.w3.org/2000/svg">
<path d="M11.1201 43.44C14.3601 43.78 18.2601 43.96 22.6801 44L22.6401 43.98C23.7401 43.98 24.6401 43.1 24.6401 42C24.6601 40.9 23.7601 39.98 22.6601 39.98C17.3201 39.94 13.6401 39.66 11.5001 39.44C10.9401 39.38 10.4801 39.14 10.2001 38.74C10.0001 38.44 9.94012 38.1 10.0201 37.72C10.9401 33.88 13.8401 29.14 19.2401 27.32C20.0001 27.08 20.5201 26.42 20.6001 25.64C20.7001 24.88 20.3201 24.12 19.6401 23.72C17.0401 22.18 15.4801 19.46 15.4801 16.46C15.4801 11.8 19.3001 8 23.9801 8C28.6601 8 32.4801 11.8 32.4801 16.46C32.4801 18.48 31.7601 20.42 30.4601 21.94C29.7401 22.78 29.8401 24.04 30.6801 24.76C31.5201 25.48 32.7801 25.38 33.5001 24.54C35.4401 22.3 36.5001 19.42 36.5001 16.46C36.5001 9.58 30.9001 4 24.0001 4C17.1001 4 11.5001 9.58 11.5201 16.46C11.5201 19.64 12.7601 22.68 14.9001 24.96C10.6201 27.44 7.40012 31.74 6.18012 36.8C5.82012 38.3 6.10012 39.82 6.98012 41.06C7.92012 42.4 9.42012 43.26 11.1201 43.44Z" fill="#646464"/>
<path d="M31.58 43.42C31.98 43.8 32.48 44 33 44L32.98 43.96C33.5 43.96 34 43.78 34.4 43.38C35.18 42.6 35.18 41.34 34.4 40.56L32.82 38.98H34C39.52 38.98 44 34.5 44 28.98V25.98C44 24.88 43.1 23.98 42 23.98C40.9 23.98 40 24.88 40 25.98V28.98C40 32.28 37.3 34.98 34 34.98H32.82L34.4 33.4C35.18 32.62 35.18 31.36 34.4 30.58C33.62 29.8 32.36 29.8 31.58 30.58L26.58 35.58C26.38 35.78 26.24 36 26.14 36.24C26.04 36.46 25.98 36.72 25.98 37C25.98 37.28 26.04 37.52 26.14 37.76C26.24 38 26.38 38.22 26.58 38.42L31.58 43.42Z" fill="#646464"/>
</svg>
