<svg width="48" height="48" viewBox="0 0 48 48" fill="none" xmlns="http://www.w3.org/2000/svg">
<path fill-rule="evenodd" clip-rule="evenodd" d="M4 24C4 12.9543 12.9543 4 24 4C35.0457 4 44 12.9543 44 24C44 35.0457 35.0457 44 24 44C12.9543 44 4 35.0457 4 24ZM24 8C15.1634 8 8 15.1634 8 24C8 28.0037 9.47056 31.664 11.901 34.4701C12.7542 33.2823 14.1369 31.728 16.1681 30.4811C14.359 28.5579 13.2485 25.9669 13.2485 23.115C13.2485 17.1761 18.0629 12.3618 24.0017 12.3618C29.9404 12.3618 34.7548 17.1761 34.7548 23.115C34.7548 25.9668 33.6444 28.5577 31.8353 30.4809C33.8654 31.7271 35.2476 33.2803 36.1009 34.4679C38.5302 31.6621 40 28.0027 40 24C40 15.1634 32.8366 8 24 8ZM33.1004 37.1617C32.2861 35.9212 30.489 33.7778 27.3882 32.8304C26.6085 32.5922 26.0515 31.9046 25.9802 31.0925C25.9089 30.2804 26.3377 29.5063 27.064 29.1359C29.2588 28.0167 30.7548 25.7388 30.7548 23.115C30.7548 19.3853 27.7313 16.3618 24.0017 16.3618C20.272 16.3618 17.2485 19.3853 17.2485 23.115C17.2485 25.7389 18.7446 28.0169 20.9394 29.136C21.6657 29.5063 22.0945 30.2804 22.0233 31.0925C21.9521 31.9046 21.3951 32.5922 20.6154 32.8304C17.5134 33.7784 15.7158 35.9232 14.902 37.1633C17.4851 38.952 20.6202 40 24 40C27.3809 40 30.5168 38.9514 33.1004 37.1617Z" fill="#646464"/>
</svg>
