<svg width="48" height="48" viewBox="0 0 48 48" fill="none" xmlns="http://www.w3.org/2000/svg">
<path d="M30.0468 25.5937C33.5055 23.5674 35.8223 19.8559 35.8223 15.6129C35.8223 9.19923 30.5288 4 23.9989 4C17.4692 4 12.1756 9.19923 12.1756 15.6129C12.1756 19.8577 14.4944 23.5706 17.9556 25.5963C11.5355 27.7356 7.46074 33.1759 6.1071 38.7356C5.53934 41.0676 7.29903 43.1259 9.72662 43.3791C12.678 43.6867 17.3236 44 24.0056 44C30.6849 44 35.3262 43.687 38.2747 43.3795C40.7012 43.1263 42.4597 41.0689 41.8933 38.7375C40.5416 33.175 36.4697 27.7315 30.0468 25.5937Z" fill="#646464"/>
</svg>
