<svg width="48" height="48" viewBox="0 0 48 48" fill="none" xmlns="http://www.w3.org/2000/svg">
<path d="M32.0001 46.0001C31.3601 46.0001 30.7401 45.7001 30.3601 45.1401L26.4401 39.5601C26.4401 39.5601 26.4001 39.5601 26.3601 39.5601C24.0401 39.8201 21.6001 39.9401 19.0801 39.9401C14.7801 39.9401 11.4401 39.5601 9.38005 39.2201C6.60005 38.7801 4.52005 36.5001 4.30005 33.6601C4.14005 31.7001 4.00005 27.9401 4.00005 23.9801C4.00005 20.0201 4.16005 16.1601 4.30005 14.2601C4.42005 12.7801 5.04005 11.4201 6.04005 10.4001L2.36005 5.14005C1.72005 4.24005 1.94005 3.00005 2.86005 2.36005C3.76005 1.72005 5.00005 1.94005 5.64005 2.86005L33.6401 42.8601C34.2801 43.7601 34.0601 45.0201 33.1401 45.6401C32.8001 45.8801 32.4001 46.0001 32.0001 46.0001ZM8.46005 13.8601C8.36005 14.0801 8.30005 14.3201 8.28005 14.5801C8.14005 16.4001 7.98005 20.1401 7.98005 24.0001C7.98005 27.8601 8.14005 31.5601 8.28005 33.3801C8.36005 34.3801 9.04005 35.1401 10.0001 35.3001C11.9201 35.6001 15.0601 35.9601 19.0801 35.9601C20.7001 35.9601 22.2801 35.9001 23.8001 35.8001L8.46005 13.8601ZM39.5401 34.3801C39.0601 34.3801 38.5801 34.3001 38.1001 34.1201C35.7801 33.2601 33.4001 32.0401 31.0001 30.4601C30.0801 29.8601 29.8201 28.6201 30.4201 27.7001C31.0201 26.7801 32.2601 26.5201 33.1801 27.1201C35.3201 28.5201 37.4401 29.6201 39.4601 30.3801C39.7601 28.8801 39.9801 26.6801 39.9801 24.0001C39.9801 21.3201 39.7601 19.1201 39.5801 17.7401C37.4201 18.3801 35.3001 19.4801 33.1601 20.8801C32.5601 21.2801 31.7801 21.3201 31.1401 20.9801C30.5001 20.6401 30.0801 20.0001 30.0601 19.2801V19.0401C30.0001 17.5401 29.9201 15.5401 29.8401 14.5801C29.7601 13.5801 29.0801 12.8201 28.1201 12.6601C26.2001 12.3601 23.0801 12.0001 19.0401 12.0001C17.9401 12.0001 17.0401 11.1001 17.0401 10.0001C17.0401 8.90005 17.9401 8.00005 19.0401 8.00005C23.3401 8.00005 26.7001 8.38005 28.7401 8.72005C31.5201 9.16005 33.6001 11.4401 33.8201 14.2801C33.8401 14.6601 33.8801 15.1801 33.9001 15.7601C35.3001 15.0001 36.6801 14.3801 38.0401 13.8801C39.2201 13.4401 40.5001 13.5601 41.5601 14.2001C42.6401 14.8601 43.3601 15.9601 43.5201 17.2201C43.7201 18.7201 43.9401 21.1001 43.9401 24.0001C43.9401 26.9001 43.7001 29.3001 43.5201 30.7801C43.3601 32.0401 42.6401 33.1601 41.5601 33.8001C40.9201 34.1801 40.2001 34.3801 39.4801 34.3801H39.5401Z" fill="#646464"/>
</svg>
