<svg width="48" height="48" viewBox="0 0 48 48" fill="none" xmlns="http://www.w3.org/2000/svg">
<path fill-rule="evenodd" clip-rule="evenodd" d="M37.0826 4.44935C40.5639 4.7322 43.2678 7.43604 43.5506 10.9173C43.7715 13.6353 44 17.9172 44 24C44 30.0828 43.7715 34.3648 43.5506 37.0827C43.2678 40.564 40.5639 43.2678 37.0826 43.5506C34.3647 43.7715 30.0828 44 24 44C17.9172 44 13.6352 43.7715 10.9173 43.5506C7.43603 43.2678 4.7322 40.5639 4.44936 37.0826C4.22853 34.3648 4 30.0828 4 24C4 17.9172 4.22852 13.6353 4.44935 10.9173C4.7322 7.43604 7.43604 4.7322 10.9173 4.44936C13.6353 4.22853 17.9172 4 24 4C30.0828 4 34.3648 4.22852 37.0826 4.44935Z" fill="#8D8D8D"/>
<path d="M11.1429 32.9919C11.1429 32.0372 11.1429 31.5599 11.3618 31.2114C11.476 31.0297 11.6297 30.876 11.8114 30.7618C12.1599 30.5429 12.6372 30.5429 13.5918 30.5429C14.5465 30.5429 15.0238 30.5429 15.3723 30.7618C15.554 30.876 15.7077 31.0297 15.8219 31.2114C16.0408 31.5599 16.0408 32.0372 16.0408 32.9919C16.0408 33.9465 16.0408 34.4238 15.8219 34.7723C15.7077 34.954 15.554 35.1077 15.3723 35.2219C15.0238 35.4408 14.5465 35.4408 13.5918 35.4408C12.6372 35.4408 12.1599 35.4408 11.8114 35.2219C11.6297 35.1077 11.476 34.954 11.3618 34.7723C11.1429 34.4238 11.1429 33.9465 11.1429 32.9919Z" fill="white"/>
<path d="M11.1429 15.0204C11.1429 14.0658 11.1429 13.5884 11.3618 13.24C11.476 13.0582 11.6297 12.9046 11.8114 12.7904C12.1599 12.5714 12.6372 12.5714 13.5918 12.5714C14.5465 12.5714 15.0238 12.5714 15.3723 12.7904C15.554 12.9046 15.7077 13.0582 15.8219 13.24C16.0408 13.5884 16.0408 14.0658 16.0408 15.0204C16.0408 15.9751 16.0408 16.4524 15.8219 16.8009C15.7077 16.9826 15.554 17.1362 15.3723 17.2504C15.0238 17.4694 14.5465 17.4694 13.5918 17.4694C12.6372 17.4694 12.1599 17.4694 11.8114 17.2504C11.6297 17.1362 11.476 16.9826 11.3618 16.8009C11.1429 16.4524 11.1429 15.9751 11.1429 15.0204Z" fill="white"/>
<path d="M11.1429 23.9919C11.1429 23.0372 11.1429 22.5599 11.3618 22.2114C11.476 22.0297 11.6297 21.876 11.8114 21.7619C12.1599 21.5429 12.6372 21.5429 13.5918 21.5429C14.5465 21.5429 15.0238 21.5429 15.3723 21.7619C15.554 21.876 15.7077 22.0297 15.8219 22.2114C16.0408 22.5599 16.0408 23.0372 16.0408 23.9919C16.0408 24.9465 16.0408 25.4239 15.8219 25.7723C15.7077 25.9541 15.554 26.1077 15.3723 26.2219C15.0238 26.4409 14.5465 26.4409 13.5918 26.4409C12.6372 26.4409 12.1599 26.4409 11.8114 26.2219C11.6297 26.1077 11.476 25.9541 11.3618 25.7723C11.1429 25.4239 11.1429 24.9465 11.1429 23.9919Z" fill="white"/>
<path d="M36.7609 34.2565C36.644 34.9629 36.1365 35.3265 35.5929 35.3427C34.4404 35.3772 32.0847 35.4286 28.2857 35.4286C24.4867 35.4286 22.131 35.3772 20.9786 35.3427C20.4349 35.3265 19.9275 34.9629 19.8105 34.2565C19.7549 33.9207 19.7143 33.4996 19.7143 32.9857C19.7143 32.4719 19.7549 32.0508 19.8105 31.715C19.9275 31.0086 20.4349 30.645 20.9786 30.6288C22.131 30.5943 24.4867 30.5429 28.2857 30.5429C32.0847 30.5429 34.4404 30.5943 35.5929 30.6288C36.1365 30.645 36.644 31.0086 36.7609 31.715C36.8165 32.0508 36.8571 32.4719 36.8571 32.9857C36.8571 33.4996 36.8165 33.9207 36.7609 34.2565Z" fill="white"/>
<path d="M36.7609 16.2851C36.644 16.9915 36.1365 17.355 35.5929 17.3712C34.4404 17.4058 32.0847 17.4571 28.2857 17.4571C24.4867 17.4571 22.131 17.4058 20.9786 17.3712C20.4349 17.355 19.9275 16.9915 19.8105 16.2851C19.7549 15.9492 19.7143 15.5281 19.7143 15.0143C19.7143 14.5005 19.7549 14.0793 19.8105 13.7435C19.9275 13.0371 20.4349 12.6735 20.9786 12.6573C22.131 12.6228 24.4867 12.5714 28.2857 12.5714C32.0847 12.5714 34.4404 12.6228 35.5929 12.6573C36.1365 12.6735 36.644 13.0371 36.7609 13.7435C36.8165 14.0793 36.8571 14.5005 36.8571 15.0143C36.8571 15.5281 36.8165 15.9492 36.7609 16.2851Z" fill="white"/>
<path d="M36.7609 25.2565C36.644 25.9629 36.1365 26.3265 35.5929 26.3427C34.4404 26.3772 32.0847 26.4286 28.2857 26.4286C24.4867 26.4286 22.131 26.3772 20.9786 26.3427C20.4349 26.3265 19.9275 25.9629 19.8105 25.2565C19.7549 24.9207 19.7143 24.4996 19.7143 23.9858C19.7143 23.4719 19.7549 23.0508 19.8105 22.715C19.9275 22.0086 20.4349 21.645 20.9786 21.6288C22.131 21.5943 24.4867 21.5429 28.2857 21.5429C32.0847 21.5429 34.4404 21.5943 35.5929 21.6288C36.1365 21.645 36.644 22.0086 36.7609 22.715C36.8165 23.0508 36.8571 23.4719 36.8571 23.9858C36.8571 24.4996 36.8165 24.9207 36.7609 25.2565Z" fill="white"/>
</svg>
