<svg width="48" height="48" viewBox="0 0 48 48" fill="none" xmlns="http://www.w3.org/2000/svg">
<path fill-rule="evenodd" clip-rule="evenodd" d="M24 9.75005C18.0748 9.75005 13.958 9.97268 11.4117 10.1796C10.7228 10.2355 10.2355 10.7228 10.1796 11.4117C9.97267 13.958 9.75005 18.0748 9.75005 24C9.75005 29.9253 9.97268 34.0421 10.1796 36.5884C10.2355 37.2773 10.7228 37.7645 11.4117 37.8205C13.958 38.0274 18.0748 38.25 24 38.25C29.9253 38.25 34.0421 38.0274 36.5884 37.8205C37.2773 37.7645 37.7645 37.2773 37.8205 36.5884C38.0274 34.0421 38.25 29.9253 38.25 24C38.25 18.0748 38.0274 13.958 37.8205 11.4117C37.7645 10.7228 37.2773 10.2355 36.5884 10.1796C34.0421 9.97267 29.9253 9.75005 24 9.75005ZM10.9501 4.49828C13.6612 4.27801 17.9325 4.05005 24 4.05005C30.0676 4.05005 34.3389 4.278 37.05 4.49828C40.5226 4.78043 43.2197 7.47749 43.5018 10.9501C43.7221 13.6612 43.9501 17.9325 43.9501 24C43.9501 30.0676 43.7221 34.3389 43.5018 37.05C43.2197 40.5226 40.5226 43.2197 37.05 43.5018C34.3389 43.7221 30.0676 43.9501 24 43.9501C17.9325 43.9501 13.6612 43.7221 10.9501 43.5018C7.47748 43.2197 4.78042 40.5226 4.49829 37.05C4.27801 34.3389 4.05005 30.0676 4.05005 24C4.05005 17.9325 4.278 13.6612 4.49828 10.9501C4.78041 7.47751 7.47749 4.78042 10.9501 4.49828Z" fill="#30A46C"/>
<path d="M38.071 15.4501H21.1501V9.76799C18.9546 9.79622 17.0602 9.85551 15.4501 9.92909V15.4501H9.92909C9.8555 17.0602 9.79622 18.9546 9.76799 21.1501H15.4501V26.8501H9.76799C9.79623 29.0455 9.85551 30.94 9.92909 32.5501H15.4501V38.071C17.0602 38.1446 18.9546 38.2039 21.1501 38.2321V32.5501H38.071C38.1446 30.94 38.2039 29.0455 38.2321 26.8501H21.1501V21.1501H38.2321C38.2039 18.9546 38.1446 17.0602 38.071 15.4501Z" fill="#30A46C"/>
</svg>
