<svg width="48" height="48" viewBox="0 0 48 48" fill="none" xmlns="http://www.w3.org/2000/svg">
<path fill-rule="evenodd" clip-rule="evenodd" d="M37.0497 4.49803C40.5223 4.78017 43.2194 7.47726 43.5015 10.9499C43.7218 13.661 43.9498 17.9322 43.9498 23.9998C43.9498 30.0674 43.7218 34.3387 43.5015 37.0498C43.2194 40.5224 40.5223 43.2194 37.0497 43.5015C34.3386 43.7218 30.0674 43.9498 23.9998 43.9498C17.9322 43.9498 13.661 43.7218 10.9498 43.5015C7.47724 43.2194 4.78018 40.5223 4.49804 37.0497C4.27777 34.3387 4.0498 30.0674 4.0498 23.9998C4.0498 17.9323 4.27776 13.661 4.49803 10.9499C4.78017 7.47726 7.47725 4.78018 10.9499 4.49804C13.661 4.27777 17.9323 4.0498 23.9998 4.0498C30.0674 4.0498 34.3386 4.27776 37.0497 4.49803ZM11.9998 12L19.9998 12C21.1044 12 21.9998 12.8954 21.9998 14C21.9998 15.1046 21.1044 16 19.9998 16L11.9998 16C10.8952 16 9.99982 15.1046 9.99982 14C9.99982 12.8954 10.8952 12 11.9998 12ZM25.9998 12L29.9998 12C31.1044 12 31.9998 12.8954 31.9998 14C31.9998 15.1046 31.1044 16 29.9998 16L25.9998 16C24.8952 16 23.9998 15.1046 23.9998 14C23.9998 12.8954 24.8952 12 25.9998 12ZM11.9998 20C10.8952 20 9.99982 20.8954 9.99982 22C9.99982 23.1046 10.8952 24 11.9998 24H23.9998C25.1044 24 25.9998 23.1046 25.9998 22C25.9998 20.8954 25.1044 20 23.9998 20H11.9998ZM33.975 24.5781C33.5533 23.8073 32.4463 23.8073 32.0247 24.5781L30.6311 27.1262C30.2836 27.7615 29.7613 28.2838 29.126 28.6313L26.5779 30.0249C25.8071 30.4465 25.8071 31.5535 26.5779 31.9752L29.126 33.3687C29.7613 33.7162 30.2836 34.2385 30.6311 34.8738L32.0247 37.4219C32.4463 38.1927 33.5533 38.1927 33.975 37.4219L35.3685 34.8738C35.716 34.2385 36.2383 33.7162 36.8736 33.3687L39.4217 31.9752C40.1925 31.5535 40.1925 30.4465 39.4217 30.0248L36.8736 28.6313C36.2383 28.2838 35.716 27.7615 35.3685 27.1262L33.975 24.5781Z" fill="#646464"/>
</svg>
