<svg width="48" height="48" viewBox="0 0 48 48" fill="none" xmlns="http://www.w3.org/2000/svg">
<path d="M36.8192 7.33892C38.8999 7.50797 40.4921 9.10014 40.6611 11.1809C40.8747 13.8096 41.1001 18.0036 41.1001 24C41.1001 29.9965 40.8747 34.1905 40.6611 36.8192C40.4921 38.8999 38.8999 40.4921 36.8192 40.6611C34.1905 40.8747 29.9965 41.1001 24 41.1001C18.0036 41.1001 13.8096 40.8747 11.1809 40.6611C9.10015 40.4921 7.50798 38.8999 7.33892 36.8192C7.12535 34.1905 6.90005 29.9965 6.90005 24C6.90005 18.0036 7.12534 13.8096 7.33892 11.1809C7.50797 9.10015 9.10014 7.50798 11.1809 7.33892C13.8096 7.12535 18.0036 6.90005 24 6.90005C29.9965 6.90005 34.1905 7.12534 36.8192 7.33892Z" fill="#202020"/>
<path fill-rule="evenodd" clip-rule="evenodd" d="M7.33892 36.8192C7.12535 34.1905 6.90005 29.9965 6.90005 24C6.90005 18.0036 7.12534 13.8096 7.33892 11.1809C7.50797 9.10015 9.10014 7.50798 11.1809 7.33892C13.8096 7.12535 18.0036 6.90005 24 6.90005C29.9965 6.90005 34.1905 7.12534 36.8192 7.33892C38.8999 7.50797 40.4921 9.10014 40.6611 11.1809C40.8747 13.8096 41.1001 18.0036 41.1001 24C41.1001 29.9965 40.8747 34.1905 40.6611 36.8192C40.4921 38.8999 38.8999 40.4921 36.8192 40.6611C34.1905 40.8747 29.9965 41.1001 24 41.1001C18.0036 41.1001 13.8096 40.8747 11.1809 40.6611C9.10015 40.4921 7.50798 38.8999 7.33892 36.8192ZM37.05 4.49828C40.5226 4.78041 43.2197 7.4775 43.5018 10.9501C43.7221 13.6612 43.9501 17.9325 43.9501 24C43.9501 30.0676 43.7221 34.3389 43.5018 37.05C43.2197 40.5226 40.5226 43.2197 37.05 43.5018C34.3389 43.7221 30.0676 43.9501 24 43.9501C17.9325 43.9501 13.6612 43.7221 10.9501 43.5018C7.47748 43.2197 4.78042 40.5226 4.49828 37.05C4.27801 34.3389 4.05005 30.0676 4.05005 24C4.05005 17.9325 4.278 13.6612 4.49828 10.9501C4.78041 7.4775 7.4775 4.78042 10.9501 4.49828C13.6612 4.27801 17.9325 4.05005 24 4.05005C30.0676 4.05005 34.3389 4.278 37.05 4.49828Z" fill="#202020"/>
<path fill-rule="evenodd" clip-rule="evenodd" d="M24.1114 14.3214C24.2335 13.6763 24.81 13.1661 25.5048 13.252C25.9384 13.3056 26.3129 13.3893 26.6139 13.474C27.2533 13.6541 27.5557 14.2971 27.4418 14.8991L23.889 33.6781C23.767 34.3232 23.1904 34.8334 22.4956 34.7476C22.062 34.694 21.6875 34.6102 21.3864 34.5254C20.7471 34.3454 20.4447 33.7024 20.5586 33.1004L24.1114 14.3214ZM18.2297 16.7512C17.8403 16.5422 17.3899 16.6517 17.0979 16.9271C15.1298 18.7829 13.3166 21.2681 12.339 22.6977C11.7978 23.4892 11.7976 24.5202 12.3388 25.3118C13.3164 26.7415 15.1297 29.2264 17.0982 31.0763C17.3903 31.3507 17.8397 31.4595 18.2285 31.2511C18.8088 30.94 19.223 30.5127 19.4794 30.1902C19.7788 29.8135 19.7171 29.3146 19.4503 28.9753L15.5411 24.0045L19.4508 19.0261C19.7172 18.6869 19.7787 18.1884 19.4796 17.8119C19.2235 17.4896 18.8097 17.0623 18.2297 16.7512ZM30.9028 16.9271C30.6108 16.6517 30.1604 16.5422 29.771 16.7512C29.191 17.0623 28.7772 17.4896 28.521 17.8119C28.222 18.1884 28.2835 18.6869 28.5499 19.0261L32.4596 24.0045L28.5504 28.9753C28.2836 29.3146 28.2219 29.8135 28.5213 30.1902C28.7777 30.5127 29.1919 30.94 29.7722 31.2511C30.161 31.4595 30.6104 31.3507 30.9025 31.0763C32.871 29.2264 34.6843 26.7415 35.6619 25.3118C36.2031 24.5202 36.2029 23.4892 35.6616 22.6977C34.684 21.2681 32.8709 18.7829 30.9028 16.9271Z" fill="white"/>
</svg>
