<svg width="48" height="48" viewBox="0 0 48 48" fill="none" xmlns="http://www.w3.org/2000/svg">
<path fill-rule="evenodd" clip-rule="evenodd" d="M10.9501 43.5018C7.47751 43.2197 4.78042 40.5226 4.49828 37.05C4.27801 34.3389 4.05005 30.0676 4.05005 24C4.05005 17.9325 4.278 13.6612 4.49828 10.9501C4.78041 7.47751 7.4775 4.78042 10.9501 4.49828C13.6612 4.27801 17.9325 4.05005 24 4.05005C30.0676 4.05005 34.3389 4.278 37.05 4.49828C40.5226 4.78043 43.2197 7.47749 43.5018 10.9501C43.7221 13.6612 43.9501 17.9325 43.9501 24C43.9501 30.0676 43.7221 34.3389 43.5018 37.05C43.2197 40.5226 40.5226 43.2197 37.05 43.5018C34.3389 43.7221 30.0676 43.9501 24 43.9501C17.9325 43.9501 13.6612 43.7221 10.9501 43.5018Z" fill="#AB4ABA"/>
<path d="M21.4973 14.5123C21.445 13.5766 20.836 12.8544 19.9056 12.7419C19.2541 12.6631 18.3391 12.6 17.0786 12.6C15.8182 12.6 14.9031 12.6631 14.2517 12.7419C13.3213 12.8544 12.7123 13.5766 12.6599 14.5123C12.626 15.1171 12.6 15.9492 12.6 17.0786C12.6 18.208 12.626 19.0402 12.6599 19.6449C12.7123 20.5806 13.3213 21.3028 14.2517 21.4153C14.9031 21.4942 15.8182 21.5572 17.0786 21.5572C18.3391 21.5572 19.2541 21.4942 19.9056 21.4153C20.836 21.3028 21.445 20.5806 21.4973 19.6449C21.5312 19.0402 21.5572 18.208 21.5572 17.0786C21.5572 15.9492 21.5312 15.1171 21.4973 14.5123Z" fill="white"/>
<path d="M21.4973 33.4886C21.445 34.4243 20.836 35.1465 19.9056 35.259C19.2541 35.3378 18.3391 35.4008 17.0786 35.4008C15.8182 35.4008 14.9031 35.3378 14.2517 35.259C13.3213 35.1465 12.7123 34.4243 12.6599 33.4886C12.626 32.8838 12.6 32.0517 12.6 30.9223C12.6 29.7929 12.626 28.9607 12.6599 28.356C12.7123 27.4203 13.3213 26.6981 14.2517 26.5856C14.9031 26.5067 15.8182 26.4437 17.0786 26.4437C18.3391 26.4437 19.2541 26.5067 19.9056 26.5856C20.836 26.6981 21.445 27.4203 21.4973 28.356C21.5312 28.9607 21.5572 29.7929 21.5572 30.9223C21.5572 32.0517 21.5312 32.8838 21.4973 33.4886Z" fill="white"/>
<path d="M26.5036 14.5123C26.5559 13.5766 27.1649 12.8544 28.0953 12.7419C28.7467 12.6631 29.6618 12.6 30.9223 12.6C32.1827 12.6 33.0978 12.6631 33.7492 12.7419C34.6796 12.8544 35.2886 13.5766 35.341 14.5123C35.3749 15.1171 35.4008 15.9492 35.4008 17.0786C35.4008 18.208 35.3749 19.0402 35.341 19.6449C35.2886 20.5806 34.6796 21.3028 33.7492 21.4153C33.0978 21.4942 32.1827 21.5572 30.9223 21.5572C29.6618 21.5572 28.7467 21.4942 28.0953 21.4153C27.1649 21.3028 26.5559 20.5806 26.5036 19.6449C26.4697 19.0402 26.4437 18.208 26.4437 17.0786C26.4437 15.9492 26.4697 15.1171 26.5036 14.5123Z" fill="white"/>
<path d="M26.5036 33.4886C26.5559 34.4243 27.1649 35.1465 28.0953 35.259C28.7467 35.3378 29.6618 35.4008 30.9223 35.4008C32.1827 35.4008 33.0978 35.3378 33.7492 35.259C34.6796 35.1465 35.2886 34.4243 35.341 33.4886C35.3749 32.8838 35.4008 32.0517 35.4008 30.9223C35.4008 29.7929 35.3749 28.9607 35.341 28.356C35.2886 27.4203 34.6796 26.6981 33.7492 26.5856C33.0978 26.5067 32.1827 26.4437 30.9223 26.4437C29.6618 26.4437 28.7467 26.5067 28.0953 26.5856C27.1649 26.6981 26.5559 27.4203 26.5036 28.356C26.4697 28.9607 26.4437 29.7929 26.4437 30.9223C26.4437 32.0517 26.4697 32.8838 26.5036 33.4886Z" fill="white"/>
</svg>
