<svg width="48" height="48" viewBox="0 0 48 48" fill="none" xmlns="http://www.w3.org/2000/svg">
<path d="M36.8192 7.33892C38.8999 7.50797 40.4921 9.10014 40.6611 11.1809C40.8747 13.8096 41.1001 18.0036 41.1001 24C41.1001 29.9965 40.8747 34.1905 40.6611 36.8192C40.4921 38.8999 38.8999 40.4921 36.8192 40.6611C34.1905 40.8747 29.9965 41.1001 24 41.1001C18.0036 41.1001 13.8096 40.8747 11.1809 40.6611C9.10015 40.4921 7.50798 38.8999 7.33892 36.8192C7.12535 34.1905 6.90005 29.9965 6.90005 24C6.90005 18.0036 7.12534 13.8096 7.33892 11.1809C7.50797 9.10015 9.10014 7.50798 11.1809 7.33892C13.8096 7.12535 18.0036 6.90005 24 6.90005C29.9965 6.90005 34.1905 7.12534 36.8192 7.33892Z" fill="#E93D82"/>
<path fill-rule="evenodd" clip-rule="evenodd" d="M7.33892 36.8192C7.12535 34.1905 6.90005 29.9965 6.90005 24C6.90005 18.0036 7.12534 13.8096 7.33892 11.1809C7.50797 9.10015 9.10014 7.50798 11.1809 7.33892C13.8096 7.12535 18.0036 6.90005 24 6.90005C29.9965 6.90005 34.1905 7.12534 36.8192 7.33892C38.8999 7.50797 40.4921 9.10014 40.6611 11.1809C40.8747 13.8096 41.1001 18.0036 41.1001 24C41.1001 29.9965 40.8747 34.1905 40.6611 36.8192C40.4921 38.8999 38.8999 40.4921 36.8192 40.6611C34.1905 40.8747 29.9965 41.1001 24 41.1001C18.0036 41.1001 13.8096 40.8747 11.1809 40.6611C9.10015 40.4921 7.50798 38.8999 7.33892 36.8192ZM37.05 4.49828C40.5226 4.78041 43.2197 7.4775 43.5018 10.9501C43.7221 13.6612 43.9501 17.9325 43.9501 24C43.9501 30.0676 43.7221 34.3389 43.5018 37.05C43.2197 40.5226 40.5226 43.2197 37.05 43.5018C34.3389 43.7221 30.0676 43.9501 24 43.9501C17.9325 43.9501 13.6612 43.7221 10.9501 43.5018C7.47748 43.2197 4.78042 40.5226 4.49828 37.05C4.27801 34.3389 4.05005 30.0676 4.05005 24C4.05005 17.9325 4.278 13.6612 4.49828 10.9501C4.78041 7.4775 7.4775 4.78042 10.9501 4.49828C13.6612 4.27801 17.9325 4.05005 24 4.05005C30.0676 4.05005 34.3389 4.278 37.05 4.49828Z" fill="#E93D82"/>
<path fill-rule="evenodd" clip-rule="evenodd" d="M21.4895 30.6203C22.4215 30.7544 22.7568 31.6679 22.1698 32.4041C21.7973 32.8714 21.2942 33.4685 20.6198 34.2151C19.7242 35.2065 19.0005 35.862 18.4635 36.2882C17.7894 36.8234 16.9041 36.8234 16.23 36.2883C15.693 35.862 14.9692 35.2066 14.0737 34.2151C13.3996 33.4687 12.8967 32.8717 12.5242 32.4046C11.9371 31.6681 12.2724 30.7543 13.2046 30.6203C13.7674 30.5393 14.4927 30.4647 15.4105 30.4194V24.5567C15.4105 23.0291 16.1606 20.9434 17.9346 20.2395C18.9259 19.8462 20.3026 19.4521 22.0605 19.2926V12.7317C22.0605 12.0165 22.5221 11.3784 23.233 11.2996C23.4657 11.2739 23.7242 11.2567 23.9998 11.2567C24.2755 11.2567 24.5341 11.2739 24.7669 11.2997C25.4779 11.3784 25.9397 12.0166 25.9397 12.7319V19.2926C27.6976 19.4521 29.0743 19.8462 30.0655 20.2395C31.8396 20.9434 32.5897 23.0291 32.5897 24.5567V30.4181C33.5057 30.4634 34.2298 30.5379 34.7919 30.6188C35.7241 30.7528 36.0595 31.6666 35.4723 32.4031C35.0998 32.8702 34.5969 33.4672 33.9228 34.2136C33.0273 35.2051 32.3035 35.8605 31.7665 36.2868C31.0924 36.822 30.2071 36.8219 29.5331 36.2867C28.9961 35.8605 28.2723 35.205 27.3767 34.2136C26.7023 33.467 26.1992 32.8699 25.8267 32.4026C25.2397 31.6664 25.575 30.7529 26.507 30.6188C27.0693 30.538 27.7938 30.4633 28.7105 30.4181V24.8343C28.7105 24.2686 28.4565 24.0262 28.285 23.9582C27.3607 23.5914 26.1199 23.1718 23.9998 23.1718C21.8797 23.1718 20.6395 23.5914 19.7152 23.9582C19.5436 24.0262 19.2897 24.2686 19.2897 24.8343V30.4197C20.2047 30.4651 20.928 30.5395 21.4895 30.6203Z" fill="white"/>
</svg>
