<svg width="48" height="48" viewBox="0 0 48 48" fill="none" xmlns="http://www.w3.org/2000/svg">
<path fill-rule="evenodd" clip-rule="evenodd" d="M37.48 20.52C40.38 25.9 42.48 30.5 43.7 34.18V34.16C44.24 35.8 44.06 37.44 43.16 38.8C42.22 40.22 40.64 41.14 38.82 41.32C35.7 41.62 30.58 41.98 24 41.98C17.42 41.98 12.32 41.62 9.17999 41.32C7.33999 41.14 5.75999 40.22 4.83999 38.8C3.95999 37.44 3.75999 35.8 4.29999 34.18C5.51999 30.5 7.59999 25.9 10.48 20.52C14.32 13.44 17.46 8.88002 19.44 6.32002C20.58 4.86002 22.22 4.02002 23.98 4.02002C25.74 4.02002 27.4 4.86002 28.52 6.32002C30.5 8.88002 33.66 13.42 37.48 20.52ZM24 26.8201C25.1 26.8201 26 25.9201 26 24.8201V16.8201C26 15.7201 25.1 14.8201 24 14.8201C22.9 14.8201 22 15.7201 22 16.8201V24.8201C22 25.9201 22.9 26.8201 24 26.8201ZM24 35.3201C25.3807 35.3201 26.5 34.2008 26.5 32.8201C26.5 31.4394 25.3807 30.3201 24 30.3201C22.6193 30.3201 21.5 31.4394 21.5 32.8201C21.5 34.2008 22.6193 35.3201 24 35.3201Z" fill="url(#paint0_linear_3_8245)"/>
<defs>
<linearGradient id="paint0_linear_3_8245" x1="4.00146" y1="23" x2="44.0037" y2="23" gradientUnits="userSpaceOnUse">
<stop stop-color="#7A28E2"/>
<stop offset="1" stop-color="#C100B6"/>
</linearGradient>
</defs>
</svg>
