<svg width="48" height="48" viewBox="0 0 48 48" fill="none" xmlns="http://www.w3.org/2000/svg">
<path fill-rule="evenodd" clip-rule="evenodd" d="M24.0001 12C16.5776 12 9.9433 15.3671 5.53778 20.6645C4.83151 21.5138 3.57049 21.6297 2.72123 20.9234C1.87196 20.2172 1.75605 18.9561 2.46232 18.1069C7.59524 11.9348 15.339 8 24.0001 8C32.6611 8 40.4049 11.9348 45.5378 18.1069C46.2441 18.9561 46.1281 20.2172 45.2789 20.9234C44.4296 21.6297 43.1686 21.5138 42.4623 20.6645C38.0568 15.3671 31.4225 12 24.0001 12ZM24.0001 20C18.9746 20 14.4913 22.3145 11.5548 25.9434C10.86 26.8021 9.60062 26.9349 8.74196 26.2401C7.8833 25.5452 7.75049 24.2859 8.44531 23.4272C12.1086 18.9001 17.7164 16 24.0001 16C30.2837 16 35.8915 18.9001 39.5548 23.4272C40.2496 24.2859 40.1168 25.5452 39.2581 26.2401C38.3995 26.9349 37.1401 26.8021 36.4453 25.9434C33.5088 22.3145 29.0255 20 24.0001 20ZM24.0001 28C21.4878 28 19.2469 29.1557 17.777 30.9722C17.0822 31.8308 15.8228 31.9636 14.9642 31.2688C14.1055 30.574 13.9727 29.3146 14.6675 28.456C16.8642 25.7413 20.2295 24 24.0001 24C27.7706 24 31.1359 25.7413 33.3326 28.456C34.0274 29.3146 33.8946 30.574 33.0359 31.2688C32.1773 31.9636 30.9179 31.8308 30.2231 30.9722C28.7532 29.1557 26.5123 28 24.0001 28ZM21.1715 33.1717C22.7336 31.6096 25.2663 31.6094 26.8285 33.1716C28.3906 34.7337 28.3905 37.2663 26.8286 38.8283C25.2666 40.3904 22.7338 40.3906 21.1716 38.8285C19.6095 37.2663 19.6096 34.7337 21.1715 33.1717Z" fill="#646464"/>
</svg>
