<svg width="48" height="48" viewBox="0 0 48 48" fill="none" xmlns="http://www.w3.org/2000/svg">
<path fill-rule="evenodd" clip-rule="evenodd" d="M25.262 3.0267C24.5269 2.42868 23.473 2.42868 22.7378 3.0267L19.8549 5.37189C19.4128 5.73155 18.8383 5.8855 18.2756 5.79509L14.6063 5.20554C13.6706 5.05521 12.7579 5.58217 12.4203 6.46765L11.0962 9.94009C10.8932 10.4726 10.4726 10.8932 9.94003 11.0963L6.46758 12.4203C5.58211 12.758 5.05515 13.6707 5.20548 14.6064L5.79502 18.2756C5.88544 18.8383 5.73148 19.4129 5.37183 19.855L3.02664 22.7379C2.42862 23.473 2.42862 24.527 3.02664 25.2621L5.37183 28.145C5.73148 28.5871 5.88544 29.1617 5.79502 29.7244L5.20548 33.3936C5.05515 34.3293 5.58211 35.242 6.46758 35.5797L9.94003 36.9037C10.4726 37.1068 10.8932 37.5274 11.0962 38.0599L12.4203 41.5324C12.7579 42.4178 13.6706 42.9448 14.6063 42.7945L18.2756 42.2049C18.8383 42.1145 19.4128 42.2685 19.8549 42.6281L22.7378 44.9733C23.473 45.5713 24.5269 45.5713 25.262 44.9733L28.1449 42.6281C28.5871 42.2685 29.1616 42.1145 29.7243 42.2049L33.3936 42.7945C34.3292 42.9448 35.242 42.4178 35.5796 41.5324L36.9037 38.0599C37.1067 37.5274 37.5273 37.1068 38.0599 36.9037L41.5323 35.5797C42.4178 35.242 42.9447 34.3293 42.7944 33.3936L42.2049 29.7244C42.1145 29.1617 42.2684 28.5871 42.6281 28.145L44.9732 25.2621C45.5713 24.527 45.5713 23.473 44.9732 22.7379L42.6281 19.855C42.2684 19.4129 42.1145 18.8383 42.2049 18.2756L42.7944 14.6064C42.9447 13.6707 42.4178 12.758 41.5323 12.4203L38.0599 11.0963C37.5273 10.8932 37.1067 10.4726 36.9037 9.94009L35.5796 6.46765C35.242 5.58217 34.3292 5.05521 33.3936 5.20554L29.7243 5.79509C29.1616 5.8855 28.5871 5.73155 28.1449 5.37189L25.262 3.0267ZM33.4142 20.4142C34.1952 19.6332 34.1952 18.3668 33.4142 17.5858C32.6331 16.8047 31.3668 16.8047 30.5857 17.5858L21.1343 27.0372L17.5364 22.7196C16.8293 21.8711 15.5681 21.7564 14.7196 22.4636C13.871 23.1707 13.7564 24.4318 14.4635 25.2804L19.4635 31.2804C19.8232 31.7121 20.348 31.9725 20.9093 31.998C21.4707 32.0234 22.0168 31.8116 22.4142 31.4142L33.4142 20.4142Z" fill="#646464"/>
</svg>
