<svg width="48" height="48" viewBox="0 0 48 48" fill="none" xmlns="http://www.w3.org/2000/svg">
<path fill-rule="evenodd" clip-rule="evenodd" d="M41.7206 8.19007C40.6485 7.13795 39.2332 6.50768 37.7344 6.41453C32.0433 5.99548 30.3791 5.99649 25.4188 5.99949L24 6.00005C18.1804 6.00005 14.3461 6.11442 10.2661 6.41449C8.76689 6.50707 7.35109 7.13702 6.27854 8.18909C5.20378 9.24332 4.54617 10.6503 4.42666 12.1509C4.21381 14.6701 4 18.5247 4 23.908C4 29.2886 4.21376 33.1456 4.42873 35.6661C4.54835 37.1658 5.2055 38.5721 6.27943 39.626C7.35139 40.678 8.76651 41.3083 10.2652 41.4015C13.0268 41.6055 17.8037 41.814 24 41.814C30.1963 41.814 34.9732 41.6055 37.7348 41.4015C39.2335 41.3083 40.6486 40.6781 41.7206 39.626C42.7945 38.5721 43.4517 37.1658 43.5713 35.666C43.7862 33.1455 44 29.2906 44 23.908C44 18.5275 43.7862 14.6725 43.5713 12.1503C43.4517 10.6504 42.7946 9.24408 41.7206 8.19007ZM8.18088 16.0001C8.07605 18.1073 8 20.7292 8 23.908C8 29.1871 8.2099 32.9322 8.41475 35.3319L8.4159 35.3454C8.45828 35.8854 8.6946 36.3918 9.08118 36.7712C9.46776 37.1506 9.97852 37.3773 10.5192 37.4096L10.5334 37.4104L10.5476 37.4115C13.192 37.6072 17.8739 37.814 24 37.814C30.1261 37.814 34.808 37.6072 37.4524 37.4115L37.4666 37.4104L37.4808 37.4096C38.0215 37.3773 38.5322 37.1506 38.9188 36.7712C39.3054 36.3918 39.5417 35.8854 39.5841 35.3454L39.5852 35.3319C39.7901 32.9322 40 29.1891 40 23.908C40 20.7294 39.9239 18.1075 39.8186 16.0001H8.18088Z" fill="#646464"/>
</svg>
