<svg width="48" height="48" viewBox="0 0 48 48" fill="none" xmlns="http://www.w3.org/2000/svg">
<path fill-rule="evenodd" clip-rule="evenodd" d="M4 10.2353C4 6.90088 6.58012 4 10 4H38C41.4199 4 44 6.90088 44 10.2353V37.7647C44 41.0991 41.4199 44 38 44H28C24.5801 44 22 41.0991 22 37.7647V32H10C6.58012 32 4 29.0991 4 25.7647V10.2353ZM22 28V24H20V20H22V8H10C9.0016 8 8 8.89153 8 10.2353V20H10V24H8V25.7647C8 27.1085 9.0016 28 10 28H22ZM26 8V32H28V36H26V37.7647C26 39.1085 27.0016 40 28 40H38C38.9984 40 40 39.1085 40 37.7647V36H38V32H40V10.2353C40 8.89153 38.9984 8 38 8H26ZM18 24H12V20H18V24ZM36 36H30V32H36V36Z" fill="#646464"/>
</svg>
