<svg width="48" height="48" viewBox="0 0 48 48" fill="none" xmlns="http://www.w3.org/2000/svg">
<path d="M12.3199 30.64H10.3199C9.21995 30.64 8.31995 29.74 8.31995 28.64C8.31995 27.54 9.21995 26.64 10.3199 26.64H12.3199C13.4199 26.64 14.3199 27.54 14.3199 28.64C14.3199 29.74 13.4199 30.64 12.3199 30.64Z" fill="#646464"/>
<path d="M36 30.64H38C39.1 30.64 40 29.74 40 28.64C40 27.54 39.1 26.64 38 26.64H36C34.9 26.64 34 27.54 34 28.64C34 29.74 34.9 30.64 36 30.64Z" fill="#646464"/>
<path d="M24 18C22.9 18 22 17.1 22 16V14C22 12.9 22.9 12 24 12C25.1 12 26 12.9 26 14V16C26 17.1 25.1 18 24 18Z" fill="#646464"/>
<path d="M13.8 20.92C14.18 21.28 14.68 21.46 15.16 21.46C15.68 21.46 16.22 21.24 16.62 20.82C17.38 20.02 17.34 18.76 16.52 18L15.46 17.02C14.66 16.26 13.4 16.3 12.64 17.12C11.88 17.92 11.92 19.18 12.74 19.94L13.8 20.92Z" fill="#646464"/>
<path fill-rule="evenodd" clip-rule="evenodd" d="M8.14005 40.3C6.38005 40.3 4.74005 39.34 4.02005 37.72C2.68005 34.78 2.02005 31.64 2.02005 28.38C2.00005 16.04 11.86 6 24 6C36.14 6 46 16.04 46 28.36C46 31.62 45.32 34.76 44 37.7C43 39.9 40.3601 40.88 38 39.92C35.3849 38.8639 32.5731 38.1169 29.6234 37.6908C28.7099 39.9035 26.5267 41.46 24 41.46C21.4531 41.46 19.2625 39.8857 18.3514 37.6691C15.4182 38.0851 12.6218 38.8326 10.0201 39.9C9.40005 40.14 8.78005 40.26 8.16005 40.26L8.14005 40.3ZM21.92 35.28C21.92 35.3623 21.915 35.4448 21.9051 35.5271C21.9806 36.6168 22.8895 37.46 24 37.46C25.16 37.46 26.08 36.52 26.08 35.38C26.08 34.24 25.14 33.28 24 33.28C22.9958 33.28 22.1564 33.9845 21.9491 34.9264C21.93 35.0416 21.92 35.1598 21.92 35.28ZM24 10C14.08 10 6.00005 18.24 6.00005 28.36C6.00005 31.04 6.56005 33.64 7.64005 36.06C7.76005 36.32 8.18005 36.36 8.48005 36.22C11.4801 35 14.72 34.16 18.1 33.7C18.8001 31.08 21.18 29.14 23.98 29.14C24.3518 29.14 24.7162 29.1742 25.0703 29.2397L31.48 17.72C32.02 16.76 33.24 16.4 34.2 16.94C35.16 17.48 35.52 18.7 34.98 19.66L28.5421 31.2304C29.1545 31.9313 29.6124 32.7731 29.8601 33.7C33.2401 34.16 36.48 35 39.48 36.22C39.8 36.36 40.2001 36.32 40.32 36.06C41.42 33.64 41.96 31.06 41.96 28.38C41.96 18.26 33.88 10.02 23.96 10.02L24 10Z" fill="#646464"/>
</svg>
