<svg width="48" height="48" viewBox="0 0 48 48" fill="none" xmlns="http://www.w3.org/2000/svg">
<path fill-rule="evenodd" clip-rule="evenodd" d="M21.9993 8.26505C19.2257 8.30696 16.5248 8.43619 14.1589 8.65098C13.3537 8.72407 12.7431 9.34471 12.6806 10.1399C12.6321 10.757 12.5875 11.4179 12.5469 12.1161C12.4828 13.2188 11.5369 14.0608 10.4342 13.9967C9.33151 13.9326 8.48955 12.9867 8.55365 11.884C8.59556 11.1628 8.64195 10.4744 8.69291 9.82639C8.90909 7.07688 11.0613 4.91574 13.7973 4.66736C16.8745 4.38799 20.4447 4.25001 23.9993 4.25C27.5542 4.24999 31.1245 4.38799 34.2018 4.66739C36.9342 4.91547 39.0887 7.06843 39.3055 9.82071C39.6033 13.6016 39.7498 18.8167 39.7498 24.0001C39.7498 29.1834 39.6034 34.3985 39.3055 38.1794C39.0887 40.9317 36.9341 43.0847 34.2017 43.3327C31.1244 43.612 27.5541 43.75 23.9992 43.75C20.4448 43.75 16.8747 43.612 13.7975 43.3327C11.0614 43.0844 8.90909 40.9232 8.6929 38.1736C8.64195 37.5255 8.59556 36.8372 8.55365 36.1161C8.48955 35.0133 9.33151 34.0675 10.4342 34.0034C11.5369 33.9393 12.4828 34.7812 12.5469 35.8839C12.5875 36.5821 12.6321 37.243 12.6806 37.8601C12.7431 38.6553 13.3538 39.276 14.159 39.3491C16.525 39.5638 19.2258 39.693 21.9993 39.7349V8.26505ZM25.9993 8.26505V22.0001H35.7424C35.7095 17.5655 35.5669 13.2961 35.3178 10.1349C35.2555 9.34295 34.6483 8.72438 33.8401 8.651C31.4742 8.43619 28.7731 8.30694 25.9993 8.26505ZM35.7424 26.0001H25.9993V39.7349C28.7731 39.6931 31.4741 39.5639 33.8401 39.3491C34.6483 39.2757 35.2555 38.6571 35.3178 37.8652C35.5669 34.704 35.7095 30.4346 35.7424 26.0001ZM10 17C11.1046 17 12 17.8954 12 19V22.0001H15C16.1046 22.0001 17 22.8955 17 24.0001C17 25.1046 16.1046 26.0001 15 26.0001H12V29C12 30.1046 11.1046 31 10 31C8.89543 31 8 30.1046 8 29V26.0001H5C3.89543 26.0001 3 25.1046 3 24.0001C3 22.8955 3.89543 22.0001 5 22.0001H8V19C8 17.8954 8.89543 17 10 17Z" fill="#646464"/>
</svg>
