<svg width="48" height="48" viewBox="0 0 48 48" fill="none" xmlns="http://www.w3.org/2000/svg">
<path fill-rule="evenodd" clip-rule="evenodd" d="M38.0002 18C39.1048 18 40.0002 18.8954 40.0002 20V24H44.0002C45.1048 24 46.0002 24.8954 46.0002 26C46.0002 27.1046 45.1048 28 44.0002 28H40.0002V32C40.0002 33.1046 39.1048 34 38.0002 34C36.8956 34 36.0002 33.1046 36.0002 32V28H32.0002C30.8956 28 30.0002 27.1046 30.0002 26C30.0002 24.8954 30.8956 24 32.0002 24H36.0002V20C36.0002 18.8954 36.8956 18 38.0002 18Z" fill="#646464"/>
<path fill-rule="evenodd" clip-rule="evenodd" d="M11 5.12502L37.0001 5.125C38.657 5.125 40.0001 6.46815 40.0001 8.125V11.1262C40.0001 12.2308 39.1047 13.1262 38.0001 13.1262C36.8955 13.1262 36.0001 12.2308 36.0001 11.1262V9.125L26.0002 9.12501V39H30C31.1046 39 32 39.8954 32 41C32 42.1046 31.1046 43 30 43H18C16.8954 43 16 42.1046 16 41C16 39.8954 16.8954 39 18 39H22.0002V9.12501L12 9.12502V11.1261C12 12.2307 11.1046 13.1261 10 13.1261C8.89543 13.1261 8 12.2307 8 11.1261V8.12502C8 6.46817 9.34315 5.12502 11 5.12502Z" fill="#646464"/>
</svg>
