<svg width="48" height="48" viewBox="0 0 48 48" fill="none" xmlns="http://www.w3.org/2000/svg">
<path fill-rule="evenodd" clip-rule="evenodd" d="M21.9993 8.26505C19.2257 8.30695 16.5248 8.43618 14.1589 8.65097C13.3506 8.72435 12.7433 9.34308 12.681 10.1352C12.4322 13.2964 12.2898 17.5657 12.2569 22.0001H21.9993V8.26505ZM25.9993 8.26505C28.773 8.30694 31.4739 8.43618 33.8398 8.65097C34.6449 8.72406 35.2555 9.34463 35.318 10.1398C35.3665 10.7569 35.4112 11.418 35.4518 12.1162C35.5159 13.2189 36.4618 14.0609 37.5645 13.9968C38.6672 13.9326 39.5091 12.9867 39.445 11.884C39.4031 11.1628 39.3567 10.4743 39.3057 9.82612C39.0894 7.07673 36.9373 4.91573 34.2014 4.66735C31.1243 4.38799 27.5541 4.25 23.9993 4.25C20.4447 4.25 16.8745 4.38799 13.7973 4.66735C11.0645 4.91544 8.90989 7.06889 8.6933 9.82145C8.3958 13.6022 8.24951 18.8169 8.24951 24.0001C8.24951 29.1831 8.3958 34.3977 8.69329 38.1785C8.90988 40.9312 11.0646 43.0846 13.7975 43.3327C19.9274 43.8891 28.0722 43.8891 34.2014 43.3327C36.9373 43.0844 39.0894 40.9234 39.3057 38.174C39.3567 37.5258 39.4031 36.8373 39.445 36.1161C39.5091 35.0134 38.6672 34.0675 37.5645 34.0034C36.4618 33.9393 35.5159 34.7812 35.4518 35.8839C35.4112 36.5822 35.3665 37.2432 35.318 37.8603C35.2555 38.6555 34.6449 39.276 33.8398 39.3491C31.4657 39.5646 28.7642 39.6933 25.9993 39.735V8.26505ZM21.9993 39.7349V26.0001H12.2569C12.2898 30.4343 12.4322 34.7035 12.681 37.8647C12.7433 38.6569 13.3506 39.2757 14.159 39.3491C16.5332 39.5645 19.2346 39.6932 21.9993 39.7349ZM38 17C39.1046 17 40 17.8954 40 19V22.0001H43C44.1046 22.0001 45 22.8955 45 24.0001C45 25.1046 44.1046 26.0001 43 26.0001H40V29C40 30.1046 39.1046 31 38 31C36.8954 31 36 30.1046 36 29V26.0001H33C31.8954 26.0001 31 25.1046 31 24.0001C31 22.8955 31.8954 22.0001 33 22.0001H36V19C36 17.8954 36.8954 17 38 17Z" fill="#646464"/>
</svg>
