<svg width="48" height="48" viewBox="0 0 48 48" fill="none" xmlns="http://www.w3.org/2000/svg">
<path fill-rule="evenodd" clip-rule="evenodd" d="M32.4 23.2C31.7373 22.3164 31.9163 21.0629 32.7998 20.4001L32.8188 20.3858L32.8814 20.3385C32.937 20.2964 33.0197 20.2334 33.1257 20.152C33.3378 19.9891 33.6424 19.7531 34.0086 19.4632C34.743 18.8818 35.7158 18.0912 36.683 17.2448C37.3452 16.6654 37.9847 16.0772 38.5361 15.5244C38.4083 15.55 38.276 15.5635 38.1407 15.5635H31.0775C29.6968 15.5635 28.5775 16.6827 28.5775 18.0635V33.7519C28.5775 37.3418 25.6674 40.2519 22.0775 40.2519H18.6865C17.8429 42.8632 15.392 44.7519 12.5 44.7519C8.91015 44.7519 6 41.8418 6 38.2519C6 34.6621 8.91015 31.7519 12.5 31.7519C15.392 31.7519 17.8429 33.6407 18.6865 36.2519H22.0775C23.4582 36.2519 24.5775 35.1326 24.5775 33.7519V18.0635C24.5775 14.4737 27.4876 11.5635 31.0775 11.5635H37.5842C37.293 11.2951 36.9905 11.0242 36.683 10.7551C35.7158 9.90883 34.743 9.11824 34.0086 8.53684C33.6424 8.24693 33.3378 8.01086 33.1257 7.84801C33.0197 7.76663 32.937 7.70364 32.8814 7.66147L32.8188 7.61417L32.8005 7.60033C31.9169 6.93756 31.7373 5.6836 32.4 4.79999C33.0627 3.91634 34.3163 3.73725 35.2 4.4L35.2271 4.42036L35.2983 4.47426C35.3599 4.52096 35.449 4.58883 35.5618 4.67541C35.7872 4.84851 36.1076 5.09681 36.4914 5.40065C37.257 6.00676 38.2842 6.84116 39.317 7.74484C40.3402 8.64009 41.4127 9.64142 42.2448 10.5775C42.6585 11.0429 43.0552 11.5392 43.3596 12.0338C43.6245 12.4643 44 13.1739 44 14C44 14.8261 43.6245 15.5357 43.3596 15.9662C43.0552 16.4608 42.6585 16.9571 42.2448 17.4225C41.4127 18.3586 40.3402 19.3599 39.317 20.2551C38.2842 21.1588 37.257 21.9932 36.4914 22.5993C36.1076 22.9032 35.7872 23.1515 35.5618 23.3246C35.449 23.4112 35.3599 23.479 35.2983 23.5257L35.2271 23.5796L35.2003 23.5997L34 22C35.2 23.6 35.2003 23.5997 35.2003 23.5997C34.3167 24.2625 33.0627 24.0837 32.4 23.2ZM12.5 35.7519C11.1193 35.7519 10 36.8712 10 38.2519C10 39.6326 11.1193 40.7519 12.5 40.7519C13.8807 40.7519 15 39.6326 15 38.2519C15 36.8712 13.8807 35.7519 12.5 35.7519Z" fill="#646464"/>
<path d="M15.6841 6.70203C15.1721 5.76601 13.8279 5.76601 13.3159 6.70203L11.6237 9.79612C11.2018 10.5675 10.5675 11.2018 9.79603 11.6237L6.70195 13.3159C5.766 13.8279 5.76602 15.1721 6.702 15.6841L9.79604 17.3763C10.5675 17.7982 11.2018 18.4325 11.6237 19.2039L13.3159 22.298C13.8279 23.234 15.1721 23.234 15.6841 22.298L17.3763 19.2039C17.7982 18.4325 18.4325 17.7982 19.2039 17.3763L22.298 15.6841C23.234 15.1721 23.234 13.8279 22.2979 13.3159L19.2039 11.6237C18.4325 11.2018 17.7982 10.5675 17.3763 9.79611L15.6841 6.70203Z" fill="#646464"/>
</svg>
