<svg width="48" height="48" viewBox="0 0 48 48" fill="none" xmlns="http://www.w3.org/2000/svg">
<path fill-rule="evenodd" clip-rule="evenodd" d="M20.5 34.1003C21.38 34.1403 22.52 34.1803 24 34.1803C25.48 34.1803 26.62 34.1403 27.5 34.1003C30.08 33.9803 32.02 32.1003 32.24 29.5603C32.44 27.1803 32.54 23.8003 32.54 19.5003C32.54 15.2003 32.44 11.8203 32.24 9.44031C32.02 6.90031 30.06 5.02031 27.5 4.90031C26.62 4.86031 25.48 4.82031 24 4.82031C22.52 4.82031 21.38 4.86031 20.5 4.90031C17.92 5.02031 15.98 6.90031 15.76 9.44031C15.56 11.8203 15.46 15.2203 15.46 19.5003C15.46 23.7803 15.56 27.1803 15.76 29.5603C15.98 32.1003 17.94 33.9803 20.5 34.1003ZM20.7 8.90031C21.52 8.84031 22.6 8.82031 24 8.82031H23.98C25.38 8.82031 26.46 8.86031 27.28 8.90031C27.88 8.92031 28.2 9.22031 28.24 9.78031C28.36 11.3403 28.52 14.2803 28.52 19.5003C28.52 24.7203 28.38 27.6603 28.24 29.2203C28.2 29.7803 27.88 30.0803 27.3 30.1003C26.48 30.1603 25.38 30.1803 24 30.1803C22.62 30.1803 21.52 30.1403 20.7 30.1003C20.12 30.0803 19.8 29.7803 19.76 29.2203C19.62 27.6603 19.46 24.7003 19.46 19.5003C19.46 14.3003 19.62 11.3403 19.76 9.78031C19.8 9.22031 20.12 8.92031 20.7 8.90031Z" fill="#646464"/>
<path d="M8 38C6.9 38 6 38.9 6 40C6 41.1 6.9 42 8 42H40C41.1 42 42 41.1 42 40C42 38.9 41.1 38 40 38H8Z" fill="#646464"/>
</svg>
