<svg width="48" height="48" viewBox="0 0 48 48" fill="none" xmlns="http://www.w3.org/2000/svg">
<path d="M10 8C10 6.9 9.1 6 8 6C6.9 6 6 6.9 6 8V40C6 41.1 6.9 42 8 42C9.1 42 10 41.1 10 40V8Z" fill="#646464"/>
<path fill-rule="evenodd" clip-rule="evenodd" d="M18.4398 32.24C20.8198 32.44 24.1998 32.54 28.4998 32.54C32.7998 32.54 36.1798 32.44 38.5598 32.24C41.0998 32.02 42.9798 30.06 43.0998 27.5C43.1398 26.62 43.1798 25.48 43.1798 24C43.1798 22.52 43.1398 21.38 43.0998 20.5C42.9798 17.92 41.0998 15.98 38.5598 15.76C36.1798 15.56 32.7798 15.46 28.4998 15.46C24.2198 15.46 20.8198 15.56 18.4398 15.76C15.8998 15.98 14.0198 17.94 13.8998 20.5C13.8598 21.38 13.8198 22.52 13.8198 24C13.8198 25.48 13.8598 26.62 13.8998 27.5C14.0198 30.08 15.8998 32.02 18.4398 32.24ZM18.7798 19.76C20.3398 19.62 23.2998 19.46 28.4998 19.46C33.6998 19.46 36.6598 19.62 38.2198 19.76C38.7798 19.8 39.0798 20.12 39.0998 20.7C39.1598 21.52 39.1798 22.62 39.1798 24C39.1798 25.38 39.1398 26.46 39.0998 27.3C39.0798 27.88 38.7798 28.2 38.2198 28.24C36.6598 28.36 33.7198 28.52 28.4998 28.52C23.2798 28.52 20.3398 28.38 18.7798 28.24C18.2198 28.2 17.9198 27.88 17.8998 27.3C17.8598 26.48 17.8198 25.38 17.8198 24C17.8198 22.62 17.8598 21.52 17.8998 20.7C17.9198 20.12 18.2198 19.8 18.7798 19.76Z" fill="#646464"/>
</svg>
