<svg width="48" height="48" viewBox="0 0 48 48" fill="none" xmlns="http://www.w3.org/2000/svg">
<path fill-rule="evenodd" clip-rule="evenodd" d="M39.0386 8.3999C39.0395 8.40008 39.0403 8.40024 38.6483 10.3482L39.0403 8.40024C40.1231 8.61816 40.8243 9.67266 40.6064 10.7555C40.3887 11.8372 39.3362 12.5381 38.2545 12.3223C38.2538 12.3222 38.2532 12.322 38.2525 12.3219L38.2511 12.3216L38.2381 12.3192C38.2216 12.3161 38.1931 12.3108 38.1531 12.3038C38.073 12.2899 37.9472 12.269 37.7796 12.2447C37.4442 12.1959 36.9433 12.1334 36.3097 12.0837C35.0398 11.9842 33.2536 11.9379 31.2096 12.1521C27.1075 12.582 22.1076 14.0425 18.0751 18.075C14.0426 22.1075 12.5822 27.1072 12.1524 31.2092C11.9383 33.2532 11.9846 35.0393 12.0841 36.3093C12.1338 36.9428 12.1964 37.4437 12.2451 37.7791C12.2695 37.9466 12.2903 38.0725 12.3043 38.1526C12.3113 38.1926 12.3165 38.2211 12.3196 38.2376L12.3221 38.2505L12.3224 38.2519C12.5395 39.3343 11.8385 40.388 10.7561 40.6059C9.67321 40.8238 8.61869 40.1227 8.40073 39.0399L10.3614 38.6452C8.40073 39.0399 8.40057 39.039 8.4004 39.0382L8.40001 39.0362L8.39904 39.0314L8.39644 39.0181L8.38864 38.9773C8.38235 38.9439 8.37394 38.898 8.36385 38.8402C8.34368 38.7246 8.31679 38.5613 8.28672 38.3544C8.22661 37.9409 8.15361 37.3519 8.09637 36.6219C7.98214 35.1647 7.92942 33.1286 8.17418 30.7924C8.66224 26.1341 10.3515 20.1417 15.2467 15.2466C20.1418 10.3514 26.1343 8.66205 30.7927 8.17389C33.1289 7.92908 35.165 7.98175 36.6222 8.09595C37.3523 8.15316 37.9412 8.22614 38.3548 8.28624C38.5617 8.31631 38.7251 8.3432 38.8406 8.36336C38.8984 8.37345 38.9443 8.38186 38.9778 8.38815L39.0185 8.39594L39.0318 8.39855L39.0366 8.39951L39.0386 8.3999Z" fill="#646464"/>
</svg>
