<svg width="48" height="48" viewBox="0 0 48 48" fill="none" xmlns="http://www.w3.org/2000/svg">
<path fill-rule="evenodd" clip-rule="evenodd" d="M12.9567 4.28001C20.5388 4.07333 27.4612 4.07332 35.0433 4.28004L35.1607 4.28324C36.5377 4.32067 37.7573 4.35384 38.7614 4.51271C39.8627 4.68699 40.9019 5.03752 41.8201 5.83883C42.0528 6.04188 42.3049 6.30093 42.5015 6.53905C43.2578 7.45497 43.5913 8.45292 43.7413 9.52539C43.8753 10.4835 43.8752 11.6237 43.875 12.8813V13.1187C43.8752 14.3763 43.8753 15.5165 43.7413 16.4746C43.5913 17.5471 43.2579 18.5451 42.5015 19.461C42.3049 19.6991 42.0528 19.9582 41.8201 20.1612C40.9019 20.9626 39.8627 21.3131 38.7613 21.4874C37.7573 21.6462 36.5376 21.6794 35.1606 21.7168L35.0432 21.72C27.4612 21.9267 20.5388 21.9266 12.9569 21.72L12.8395 21.7168C11.4625 21.6793 10.2428 21.6462 9.23871 21.4873C8.13738 21.313 7.09822 20.9625 6.18 20.1613C5.94723 19.9581 5.69507 19.699 5.49837 19.4608C4.74206 18.5449 4.40868 17.5469 4.2587 16.4744C4.12473 15.5163 4.12486 14.3761 4.12501 13.1185L4.12501 12.881C4.1249 11.6235 4.12479 10.4833 4.25879 9.52532C4.40879 8.45289 4.7422 7.45498 5.49849 6.53909C5.69519 6.30088 5.94736 6.04175 6.18012 5.83864C7.09833 5.03739 8.13744 4.6869 9.23873 4.51265C10.2428 4.35378 11.4624 4.32063 12.8393 4.2832L12.9567 4.28001ZM34.9342 8.27856C27.4248 8.07382 20.5751 8.07382 13.0657 8.27852C11.5357 8.32023 10.5798 8.35021 9.86386 8.4635C9.21675 8.56589 8.97536 8.70827 8.81008 8.85249C8.74123 8.91257 8.64104 9.01552 8.58287 9.08598C8.42355 9.27892 8.29915 9.51516 8.22023 10.0794C8.12951 10.728 8.12504 11.5854 8.12502 12.9998C8.125 14.4143 8.12945 15.2718 8.22016 15.9204C8.29907 16.4848 8.42348 16.721 8.58278 16.9139C8.64096 16.9844 8.74114 17.0874 8.80999 17.1474C8.97526 17.2917 9.21666 17.4341 9.86383 17.5365C10.5798 17.6497 11.5358 17.6797 13.0659 17.7214C20.5752 17.9262 27.4248 17.9262 34.9342 17.7215C36.4643 17.6798 37.4202 17.6498 38.1362 17.5365C38.7834 17.4341 39.0248 17.2917 39.19 17.1475C39.2589 17.0874 39.359 16.9845 39.4172 16.9141C39.5765 16.7211 39.7009 16.4849 39.7798 15.9206C39.8706 15.2719 39.875 14.4144 39.875 12.9999C39.875 11.5855 39.8706 10.7281 39.7798 10.0795C39.7009 9.5152 39.5765 9.27895 39.4172 9.086C39.359 9.01557 39.2589 8.91265 39.19 8.85259C39.0248 8.70835 38.7834 8.56596 38.1362 8.46356C37.4202 8.35026 36.4643 8.32027 34.9342 8.27856Z" fill="#646464"/>
<path d="M30 28C28.8954 28 28 28.8954 28 30V38C28 39.1046 28.8954 40 30 40C31.1046 40 32 39.1046 32 38V34.8285L38.5855 41.4142C39.3666 42.1953 40.6329 42.1953 41.414 41.4142C42.195 40.6332 42.195 39.3669 41.414 38.5858L34.8284 32H38C39.1046 32 40 31.1046 40 30C40 28.8954 39.1046 28 38 28H30Z" fill="#646464"/>
<path fill-rule="evenodd" clip-rule="evenodd" d="M13.5311 26.127C13.1773 26.1243 12.8226 26.1243 12.4689 26.127C12.3384 26.128 12.2083 26.1287 12.0786 26.1294C9.79885 26.1412 7.65235 26.1523 5.90232 27.9023C4.15229 29.6523 4.14118 31.7984 4.12937 34.0781C4.1287 34.2079 4.12802 34.3381 4.12703 34.4688C4.12432 34.8226 4.12432 35.1774 4.12703 35.5313C4.12802 35.6619 4.1287 35.7921 4.12937 35.9218C4.14118 38.2015 4.15229 40.3477 5.90232 42.0977C7.65235 43.8477 9.79844 43.8588 12.0781 43.8706C12.208 43.8713 12.3382 43.872 12.4688 43.873C12.8226 43.8757 13.1773 43.8757 13.5311 43.873C13.6608 43.872 13.7902 43.8713 13.9191 43.8706L13.9218 43.8706C16.2016 43.8588 18.3478 43.8477 20.0978 42.0977C21.8478 40.3476 21.8589 38.2015 21.8707 35.9217C21.8714 35.7919 21.8721 35.6616 21.8731 35.531C21.8758 35.1773 21.8758 34.8227 21.8731 34.469C21.8721 34.3384 21.8714 34.2081 21.8707 34.0783C21.8589 31.7985 21.8478 29.6523 20.0978 27.9023C18.3477 26.1523 16.2016 26.1412 13.9218 26.1294C13.792 26.1287 13.6617 26.128 13.5311 26.127ZM12.4994 30.1269C12.8328 30.1244 13.1672 30.1244 13.5005 30.1269C16.4208 30.1492 16.8012 30.2625 17.2694 30.7307C17.7376 31.1989 17.8509 31.5792 17.8732 34.4995C17.8757 34.8329 17.8757 35.1671 17.8732 35.5004C17.8509 38.4207 17.7376 38.8011 17.2694 39.2693C16.8012 39.7375 16.4208 39.8508 13.5005 39.8731C13.1671 39.8756 12.8328 39.8756 12.4994 39.8731C9.57923 39.8508 9.19894 39.7375 8.73074 39.2693C8.26254 38.8011 8.14922 38.4208 8.12691 35.5007C8.12436 35.1672 8.12436 34.8328 8.12691 34.4993C8.14922 31.5792 8.26254 31.1989 8.73074 30.7307C9.19894 30.2625 9.57924 30.1492 12.4994 30.1269Z" fill="#646464"/>
</svg>
