<svg width="48" height="48" viewBox="0 0 48 48" fill="none" xmlns="http://www.w3.org/2000/svg">
<path fill-rule="evenodd" clip-rule="evenodd" d="M26.3796 9.01748C21.0099 14.2757 16.0451 20.5913 13.4935 23.9888C15.2328 24.357 17.712 24.8179 20.7792 25.2199C21.8595 25.3615 22.6277 26.3416 22.5071 27.4245C22.2124 30.069 21.8921 34.2998 21.6201 38.9825C26.9898 33.7243 31.9545 27.4087 34.5062 24.0112C32.7669 23.6431 30.2877 23.1821 27.2205 22.7803C26.1402 22.6387 25.3719 21.6585 25.4926 20.5757C25.7873 17.9312 26.1076 13.7002 26.3796 9.01748ZM24.8924 4.90349C27.2194 2.72598 30.6233 4.70248 30.4678 7.56092C30.2314 11.9079 29.9457 16.0392 29.6635 19.0836C32.6079 19.523 34.9123 19.9932 36.4198 20.3358C38.8233 20.882 39.7393 23.6701 38.3353 25.5674C35.8445 28.9332 29.696 36.931 23.1072 43.0965C20.7805 45.2738 17.3764 43.2978 17.5319 40.4393M24.8924 4.90349C18.3037 11.069 12.1553 19.0668 9.66442 22.4325C8.26064 24.3299 9.17629 27.1179 11.5798 27.6642C13.0874 28.0068 15.3918 28.477 18.3362 28.9165C18.054 31.9609 17.7683 36.0922 17.5319 40.4393" fill="#646464"/>
</svg>
