<svg width="48" height="48" viewBox="0 0 48 48" fill="none" xmlns="http://www.w3.org/2000/svg">
<path d="M8 40C9.10457 40 10 40.8954 10 42C10 43.1046 9.10457 44 8 44H4C2.89543 44 2 43.1046 2 42C2 40.8954 2.89543 40 4 40H8ZM20 40C21.1046 40 22 40.8954 22 42C22 43.1046 21.1046 44 20 44H16C14.8954 44 14 43.1046 14 42C14 40.8954 14.8954 40 16 40H20ZM32 40C33.1046 40 34 40.8954 34 42C34 43.1046 33.1046 44 32 44H28C26.8954 44 26 43.1046 26 42C26 40.8954 26.8954 40 28 40H32ZM44 40C45.1046 40 46 40.8954 46 42C46 43.1046 45.1046 44 44 44H40C38.8954 44 38 43.1046 38 42C38 40.8954 38.8954 40 40 40H44ZM8 32C9.10457 32 10 32.8954 10 34C10 35.1046 9.10457 36 8 36H4C2.89543 36 2 35.1046 2 34C2 32.8954 2.89543 32 4 32H8ZM20 32C21.1046 32 22 32.8954 22 34C22 35.1046 21.1046 36 20 36H16C14.8954 36 14 35.1046 14 34C14 32.8954 14.8954 32 16 32H20ZM32 32C33.1046 32 34 32.8954 34 34C34 35.1046 33.1046 36 32 36H28C26.8954 36 26 35.1046 26 34C26 32.8954 26.8954 32 28 32H32ZM44 32C45.1046 32 46 32.8954 46 34C46 35.1046 45.1046 36 44 36H40C38.8954 36 38 35.1046 38 34C38 32.8954 38.8954 32 40 32H44ZM39.75 26C39.75 22.5617 39.6421 19.1278 39.4258 15.916C39.3244 14.4104 38.3158 13.1803 36.9375 12.752C36.5744 15.1562 34.5055 17 32 17C29.3297 17 27.1528 14.9066 27.0117 12.2715C25.0132 12.2453 22.9848 12.2453 20.9863 12.2715C20.8452 14.9065 18.6702 17 16 17C13.4944 17 11.4235 15.1563 11.0605 12.752C9.68333 13.1809 8.67557 14.4112 8.57422 15.916C8.35792 19.1279 8.25 22.5617 8.25 26C8.25 27.1046 7.35457 28 6.25 28C5.14543 28 4.25 27.1046 4.25 26C4.25 22.4803 4.36108 18.9562 4.58398 15.6465C4.82535 12.0627 7.51821 9.18393 11.0156 8.66797C11.1867 6.06149 13.3503 4 16 4C18.5137 4 20.5883 5.85577 20.9414 8.27148C22.9699 8.24498 25.0281 8.245 27.0566 8.27148C27.4096 5.85563 29.4862 4 32 4C34.6497 4 36.8113 6.06155 36.9824 8.66797C40.4809 9.18304 43.1746 12.062 43.416 15.6465C43.6389 18.9562 43.75 22.4803 43.75 26C43.75 27.1046 42.8546 28 41.75 28C40.6455 27.9999 39.75 27.1045 39.75 26ZM16 8C15.4477 8 15 8.44771 15 9V12C15 12.5523 15.4477 13 16 13C16.5523 13 17 12.5523 17 12V9C17 8.44772 16.5523 8 16 8ZM32 8C31.4477 8 31 8.44772 31 9V12C31 12.5523 31.4477 13 32 13C32.5523 13 33 12.5523 33 12V9C33 8.44772 32.5523 8 32 8Z" fill="#646464"/>
</svg>
