<svg width="48" height="48" viewBox="0 0 48 48" fill="none" xmlns="http://www.w3.org/2000/svg">
<path d="M32 4C34.6498 4 36.8114 6.06155 36.9825 8.66797C40.4803 9.18286 43.1743 12.0599 43.4161 15.6445C43.8614 22.2565 43.8614 29.7437 43.4161 36.3555C43.1597 40.1551 40.1488 43.1601 36.3438 43.3984C28.8521 43.8677 19.1479 43.8677 11.6563 43.3984C7.85137 43.1601 4.84032 40.1551 4.58403 36.3555C4.13865 29.7436 4.13866 22.2565 4.58403 15.6445C4.82577 12.0607 7.51889 9.18375 11.0157 8.66797C11.1867 6.06149 13.3503 4 16.0001 4C18.5137 4 20.5884 5.85577 20.9415 8.27148C22.9699 8.24498 25.0282 8.245 27.0567 8.27148C27.4096 5.85563 29.4863 4 32 4ZM27.0118 12.2715C25.0133 12.2453 22.9848 12.2453 20.9864 12.2715C20.8452 14.9065 18.6703 17 16.0001 17C13.4944 17 11.4236 15.1563 11.0606 12.752C9.68316 13.1807 8.67561 14.4096 8.57427 15.9141C8.14095 22.347 8.14095 29.6531 8.57427 36.0859C8.69549 37.8855 10.1103 39.2937 11.9063 39.4062C19.2313 39.8651 28.7687 39.8651 36.0938 39.4062C37.8899 39.2937 39.3046 37.8856 39.4258 36.0859C39.8591 29.6531 39.8591 22.347 39.4258 15.9141C39.3244 14.4088 38.316 13.1801 36.9375 12.752C36.5745 15.1562 34.5056 17 32 17C29.3298 17 27.1529 14.9066 27.0118 12.2715ZM24.586 20.5859C25.367 19.8049 26.6331 19.8049 27.4141 20.5859L33.4141 26.5859C34.1952 27.367 34.1952 28.633 33.4141 29.4141L27.4141 35.4141C26.6331 36.1951 25.367 36.1951 24.586 35.4141C23.8049 34.633 23.8049 33.367 24.586 32.5859L27.1719 30H16.0001C14.8955 30 14.0001 29.1046 14.0001 28C14.0001 26.8954 14.8955 26 16.0001 26H27.1719L24.586 23.4141C23.8049 22.633 23.8049 21.367 24.586 20.5859ZM16.0001 8C15.4478 8 15.0001 8.44771 15.0001 9V12C15.0001 12.5523 15.4478 13 16.0001 13C16.5523 13 17.0001 12.5523 17.0001 12V9C17.0001 8.44772 16.5523 8 16.0001 8ZM32 8C31.4478 8 31 8.44772 31 9V12C31 12.5523 31.4478 13 32 13C32.5523 13 33 12.5523 33 12V9C33 8.44772 32.5523 8 32 8Z" fill="#646464"/>
</svg>
