<svg width="48" height="48" viewBox="0 0 48 48" fill="none" xmlns="http://www.w3.org/2000/svg">
<path fill-rule="evenodd" clip-rule="evenodd" d="M24 6.54541C16.7064 6.54541 11.7174 6.80379 8.62444 7.04901C5.32909 7.31027 2.76124 9.8517 2.46229 13.1422C2.23026 15.6961 2 19.3912 2 23.9999C2 28.6086 2.23027 32.3038 2.46229 34.8576C2.76125 38.1482 5.32909 40.6896 8.62448 40.9509C11.7174 41.1961 16.7064 41.4545 24 41.4545C31.2935 41.4545 36.2826 41.1961 39.3755 40.9509C42.6709 40.6896 45.2387 38.1482 45.5377 34.8576C45.7697 32.3038 46 28.6086 46 23.9999C46 19.3912 45.7697 15.6961 45.5377 13.1422C45.2387 9.8517 42.6709 7.31027 39.3755 7.04901C36.2827 6.80379 31.2936 6.54541 24 6.54541ZM10.5295 20.1515C10.9518 17.1956 13.4833 15 16.4692 15H17.388C20.2232 15 22.5401 16.948 23.1993 19.4997C23.4756 20.5692 22.8326 21.6601 21.7631 21.9364C20.6937 22.2127 19.6027 21.5697 19.3264 20.5003C19.1048 19.6425 18.3263 19 17.388 19H16.4692C15.4739 19 14.6301 19.7319 14.4893 20.7172L13.6322 26.7172C13.4601 27.922 14.395 29 15.6121 29H16.5309C17.2621 29 17.9141 28.6049 18.2638 27.9995C18.8164 27.0431 20.0396 26.7157 20.9961 27.2682C21.9525 27.8208 22.2799 29.044 21.7274 30.0005C20.6838 31.8068 18.732 33 16.5309 33H15.6121C11.9608 33 9.15601 29.7661 9.67238 26.1515L10.5295 20.1515ZM25.5295 20.1515C25.9518 17.1956 28.4833 15 31.4692 15H32.388C35.2232 15 37.5401 16.948 38.1993 19.4997C38.4756 20.5692 37.8326 21.6601 36.7631 21.9364C35.6937 22.2127 34.6027 21.5697 34.3264 20.5003C34.1049 19.6425 33.3263 19 32.388 19H31.4692C30.4739 19 29.6301 19.7319 29.4893 20.7172L28.6322 26.7172C28.4601 27.922 29.395 29 30.6121 29H31.5309C32.2621 29 32.9141 28.6049 33.2638 27.9995C33.8164 27.0431 35.0396 26.7157 35.9961 27.2682C36.9525 27.8208 37.2799 29.044 36.7274 30.0005C35.6838 31.8068 33.732 33 31.5309 33H30.6121C26.9608 33 24.156 29.7661 24.6724 26.1515L25.5295 20.1515Z" fill="#646464"/>
</svg>
