<svg width="48" height="48" viewBox="0 0 48 48" fill="none" xmlns="http://www.w3.org/2000/svg">
<path d="M26.0603 7.51562C26.3282 6.44419 27.4127 5.79295 28.4842 6.06055C29.5556 6.32841 30.2068 7.41293 29.9392 8.48437L21.9392 40.4844C21.6714 41.5558 20.5869 42.2071 19.5154 41.9395C18.444 41.6716 17.7927 40.5871 18.0603 39.5156L26.0603 7.51562ZM12.4373 12.75C13.1273 11.8875 14.3873 11.7475 15.2498 12.4375C16.1123 13.1275 16.2523 14.3875 15.5623 15.25L8.56229 24L15.5623 32.75L15.6814 32.916C16.2318 33.7676 16.0585 34.9155 15.2498 35.5625C14.4411 36.2094 13.284 36.1259 12.574 35.4023L12.4373 35.25L4.43729 25.25C3.85294 24.5196 3.85294 23.4804 4.43729 22.75L12.4373 12.75ZM32.7498 12.4375C33.5584 11.7906 34.7156 11.8741 35.4256 12.5977L35.5623 12.75L43.5623 22.75C44.1466 23.4804 44.1466 24.5196 43.5623 25.25L35.5623 35.25C34.8723 36.1125 33.6123 36.2525 32.7498 35.5625C31.8873 34.8725 31.7473 33.6125 32.4373 32.75L39.4373 24L32.4373 15.25L32.3181 15.084C31.7678 14.2324 31.941 13.0845 32.7498 12.4375Z" fill="#646464"/>
</svg>
