<svg width="48" height="48" viewBox="0 0 48 48" fill="none" xmlns="http://www.w3.org/2000/svg">
<path fill-rule="evenodd" clip-rule="evenodd" d="M39.4215 8.58627C38.6408 7.80495 37.3744 7.80452 36.5931 8.5853L30 15.1739V12C30 10.8954 29.1046 10 28 10C26.8954 10 26 10.8954 26 12V20C26 21.1046 26.8954 22 28 22H36C37.1046 22 38 21.1046 38 20C38 18.8954 37.1046 18 36 18H32.8308L39.4206 11.4147C40.2019 10.6339 40.2023 9.36759 39.4215 8.58627ZM11.4142 8.58579C10.6332 7.80474 9.36683 7.80474 8.58579 8.58579C7.80474 9.36684 7.80474 10.6332 8.58579 11.4142L15.1716 18H12C10.8954 18 10 18.8954 10 20C10 21.1046 10.8954 22 12 22H20C21.1046 22 22 21.1046 22 20V12C22 10.8954 21.1046 10 20 10C18.8954 10 18 10.8954 18 12V15.1716L11.4142 8.58579ZM38 28C38 26.8954 37.1046 26 36 26H28C26.8954 26 26 26.8954 26 28V36C26 37.1046 26.8954 38 28 38C29.1046 38 30 37.1046 30 36V32.8284L36.5926 39.421C37.3737 40.2021 38.64 40.2021 39.421 39.421C40.2021 38.64 40.2021 37.3737 39.421 36.5926L32.8284 30H36C37.1046 30 38 29.1046 38 28ZM22 28C22 26.8954 21.1046 26 20 26H12C10.8954 26 10 26.8954 10 28C10 29.1046 10.8954 30 12 30H15.1739L8.5853 36.5931C7.80452 37.3744 7.80495 38.6408 8.58627 39.4215C9.36758 40.2023 10.6339 40.2019 11.4147 39.4206L18 32.8308V36C18 37.1046 18.8954 38 20 38C21.1046 38 22 37.1046 22 36V28Z" fill="#646464"/>
</svg>
