<svg width="48" height="48" viewBox="0 0 48 48" fill="none" xmlns="http://www.w3.org/2000/svg">
<path fill-rule="evenodd" clip-rule="evenodd" d="M18.14 46.06C17.5 46.06 16.86 45.92 16.24 45.64C14.88 45.02 14.02 43.78 14.02 42.42V38.1C13.0432 38.0581 12.2417 38.0065 11.5 37.9588C11.1789 37.9381 10.8681 37.9181 10.56 37.9H10.18V37.88C7.11998 37.66 4.69998 35.32 4.41998 32.28C4.21998 30.1 3.97998 26.42 3.97998 21.14C3.97998 16.92 4.11998 13.16 4.41998 10C4.69998 6.98 7.11998 4.62 10.18 4.4C12.82 4.22 17.36 4 24 4C30.64 4 35.18 4.22 37.82 4.4C40.88 4.62 43.3 6.96 43.58 10C43.86 13.16 44.02 16.92 44.02 21.14C44.02 25.36 43.88 29.1 43.58 32.28C43.3 35.3 40.88 37.66 37.82 37.88C35.16 38.06 32 38.24 26.88 38.28L20.84 45L20.66 45.18C19.98 45.76 19.1 46.06 18.16 46.06H18.14ZM20.9806 29.04C20.9871 29.04 20.9936 29.0401 21.0001 29.0401H20.9601C20.9669 29.0401 20.9738 29.04 20.9806 29.04ZM19.5801 28.4601C19.9555 28.8157 20.4481 29.0347 20.9806 29.04C21.5128 29.035 22.0049 28.8352 22.3801 28.4601L33.3801 17.4601C34.1601 16.6801 34.1601 15.4201 33.3801 14.6401C32.6001 13.8601 31.3401 13.8601 30.5601 14.6401L20.9801 24.2201L17.4001 20.6401C16.6201 19.8601 15.3601 19.8601 14.5801 20.6401C13.8001 21.4201 13.8001 22.6801 14.5801 23.4601L19.5801 28.4601Z" fill="#646464"/>
</svg>
