<svg width="48" height="48" viewBox="0 0 48 48" fill="none" xmlns="http://www.w3.org/2000/svg">
<path fill-rule="evenodd" clip-rule="evenodd" d="M16 8C12.6863 8 10 10.6863 10 14C10 17.3137 12.6863 20 16 20H39.1716L38.5858 19.4142C37.8047 18.6332 37.8047 17.3668 38.5858 16.5858C39.3668 15.8047 40.6332 15.8047 41.4142 16.5858L45.4142 20.5858C46.1953 21.3668 46.1953 22.6332 45.4142 23.4142L41.4142 27.4142C40.6332 28.1953 39.3668 28.1953 38.5858 27.4142C37.8047 26.6332 37.8047 25.3668 38.5858 24.5858L39.1716 24H16C10.4772 24 6 19.5228 6 14C6 8.47715 10.4772 4 16 4C21.5228 4 26 8.47715 26 14V16C26 17.1046 25.1046 18 24 18C22.8954 18 22 17.1046 22 16V14C22 10.6863 19.3137 8 16 8ZM12 32C12 30.8954 12.8954 30 14 30H34C35.1046 30 36 30.8954 36 32C36 33.1046 35.1046 34 34 34H14C12.8954 34 12 33.1046 12 32ZM12 40C12 38.8954 12.8954 38 14 38H24H34C35.1046 38 36 38.8954 36 40C36 41.1046 35.1046 42 34 42H24H14C12.8954 42 12 41.1046 12 40Z" fill="#646464"/>
</svg>
