<svg width="48" height="48" viewBox="0 0 48 48" fill="none" xmlns="http://www.w3.org/2000/svg">
<path d="M6.62002 33.58C6.98002 33.86 7.42002 34 7.84002 34V34.02C8.44002 34.02 9.02002 33.74 9.42002 33.24C10.1 32.38 9.94002 31.12 9.06002 30.44C8.62002 30.08 8.34002 29.56 8.30002 28.96C8.10002 26.28 8.00002 23.12 8.00002 19.58C8.00002 16.04 8.10002 12.88 8.30002 10.2C8.36002 9.14 9.12002 8.38 10.18 8.3C12.84 8.1 15.98 8 19.52 8C23.06 8 26.2 8.1 28.86 8.3C29.48 8.34 30.02 8.64 30.36 9.12C31.02 10.02 32.26 10.22 33.16 9.58C34.06 8.92 34.26 7.68 33.62 6.78C32.6 5.34 30.96 4.44 29.16 4.3C26.4 4.1 23.16 4 19.52 4C15.88 4 12.64 4.1 9.88002 4.3C6.88002 4.52 4.52002 6.88 4.32002 9.92C4.12002 12.7 4.02002 15.94 4.02002 19.58C4.02002 23.22 4.12002 26.46 4.32002 29.24C4.44002 30.96 5.28002 32.54 6.62002 33.58Z" fill="#646464"/>
<path fill-rule="evenodd" clip-rule="evenodd" d="M18.02 43.68C20.88 43.9 24.24 44 28 44C31.76 44 35.1 43.88 37.96 43.68C41.06 43.46 43.46 41.04 43.68 37.96C43.9 35.12 44 31.76 44 28C44 24.24 43.88 20.88 43.68 18.02C43.46 14.92 41.04 12.52 37.96 12.3C35.08 12.08 31.72 11.98 27.98 11.98C24.24 11.98 20.88 12.1 18.02 12.3C14.92 12.52 12.52 14.94 12.3 18.02C12.08 20.9 11.98 24.26 11.98 28C11.98 31.74 12.1 35.1 12.3 37.96C12.52 41.06 14.94 43.46 18.02 43.68ZM16.3 18.32C16.38 17.22 17.22 16.38 18.32 16.3C21.08 16.1 24.34 16 28 16C31.66 16 34.92 16.1 37.68 16.3C38.78 16.38 39.62 17.22 39.7 18.32C39.9 21.08 40 24.34 40 28C40 31.66 39.9 34.92 39.7 37.68C39.62 38.78 38.78 39.62 37.68 39.7C34.92 39.9 31.66 40 28 40C24.34 40 21.08 39.9 18.32 39.7C17.2 39.62 16.38 38.78 16.3 37.68C16.1 34.92 16 31.66 16 28C16 24.34 16.1 21.08 16.3 18.32Z" fill="#646464"/>
</svg>
