<svg width="48" height="48" viewBox="0 0 48 48" fill="none" xmlns="http://www.w3.org/2000/svg">
<path fill-rule="evenodd" clip-rule="evenodd" d="M38.4201 34.0851L34.7619 31.6721L31.7101 36.7697L28.1607 35.7319L25.0355 40.5019L25.1957 42.0034L42.1878 38.8725L41.2008 28.2558L38.4201 34.0851ZM22.5738 29.5077L25.3 29.1328C25.7411 29.331 26.0482 29.4065 26.5771 29.5411C27.4008 29.7557 28.3543 29.9616 29.7665 29.2499C30.0951 29.0871 30.7796 28.4612 31.0564 28.1043L42.2263 26.078L43.3657 39.8688L24.2298 43.3175L22.5738 29.5077ZM43.3226 24.5385L42.2201 24.7485L40.1019 2.86377L4.0094 7.04887L8.45587 43.1321L12.6805 42.519C12.3431 42.0373 11.8178 41.4545 10.9207 40.7083C9.67648 39.6746 10.1166 37.919 10.8504 36.8103C11.8214 34.937 16.8245 32.5564 16.5411 29.5621C16.4394 28.4735 16.2663 27.0562 15.2558 26.0851C15.2178 26.4883 15.2861 26.8765 15.2861 26.8765C15.2861 26.8765 14.8711 26.347 14.6642 25.625C14.4588 25.3483 14.2975 25.2599 14.0793 24.8902C13.9237 25.318 13.9443 25.814 13.9443 25.814C13.9443 25.814 13.6048 25.0119 13.5499 24.3351C13.3486 24.6381 13.2977 25.2137 13.2977 25.2137C13.2977 25.2137 12.8566 23.9495 12.9573 23.2686C12.756 22.676 12.1593 21.5 12.3282 18.8272C13.4297 19.599 15.8545 19.4157 16.7994 18.0231C17.1131 17.5619 17.3278 16.3028 16.6427 13.822C16.2027 12.2312 15.113 9.86238 14.6883 8.96374L14.6375 9.0002C14.8614 9.72425 15.323 11.2422 15.5002 11.978C16.0363 14.2103 16.1801 14.9872 15.9285 16.0163C15.7143 16.9108 15.2008 17.4962 13.8991 18.1504C12.5973 18.8067 10.8699 17.2097 10.7605 17.1213C9.49573 16.1138 8.51749 14.4701 8.40812 13.6716C8.29463 12.7976 8.91187 12.2728 9.22305 11.558C8.77784 11.6853 8.28128 11.9113 8.28128 11.9113C8.28128 11.9113 8.87387 11.2982 9.60459 10.7677C9.90705 10.5674 10.0847 10.4401 10.4036 10.1751C9.94197 10.1674 9.56711 10.1808 9.56711 10.1808C9.56711 10.1808 10.3369 9.76481 11.1348 9.46184C10.551 9.43617 9.99229 9.45774 9.99229 9.45774C9.99229 9.45774 11.71 8.68953 13.0667 8.12569C13.9997 7.74313 14.9112 7.8561 15.4232 8.59658C16.0953 9.5666 16.8014 10.0935 18.2978 10.4201C19.2164 10.0128 19.4958 9.80333 20.6502 9.48906C21.6664 8.37166 22.4644 8.22686 22.4644 8.22686C22.4644 8.22686 22.0685 8.58991 21.9627 9.16041C22.5389 8.70647 23.1705 8.3275 23.1705 8.3275C23.1705 8.3275 22.926 8.62945 22.698 9.10906L22.7509 9.18763C23.4231 8.78453 24.2134 8.46666 24.2134 8.46666C24.2134 8.46666 23.9875 8.75217 23.7225 9.1219C24.2293 9.11779 25.2574 9.14347 25.6564 9.18866C28.0118 9.24052 28.5007 6.67298 29.4045 6.35101C30.5362 5.94688 31.042 5.70245 32.9708 7.59678C34.6258 9.22306 35.9188 12.1341 35.2769 12.7863C34.7388 13.3275 33.6769 12.5752 32.4999 11.1082C31.878 10.3312 31.4077 9.41306 31.1874 8.24586C31.0015 7.26095 30.2779 6.68941 30.2779 6.68941C30.2779 6.68941 30.698 7.62297 30.698 8.44766C30.698 8.89801 30.7545 10.5818 31.4765 11.5267C31.4051 11.6648 31.3717 12.2101 31.2926 12.3144C30.4525 11.2992 28.6486 10.5726 28.3543 10.3584C29.35 11.1744 31.6387 13.0487 32.5179 14.845C33.3492 16.5436 32.8594 18.1006 33.2799 18.5037C33.3996 18.6192 35.0679 20.6979 35.3889 21.7424C35.9486 23.5628 35.4223 25.4756 34.6895 26.6623L32.6432 26.9812C32.3438 26.898 32.142 26.8564 31.8734 26.7008C32.0213 26.439 32.3155 25.7858 32.3186 25.6512L32.2031 25.4484C31.5663 26.3506 30.4993 27.2267 29.6129 27.7299C28.4529 28.3872 27.1158 28.286 26.2454 28.0165C23.7749 27.2544 21.4389 25.585 20.8756 25.1465C20.8756 25.1465 20.8581 25.4967 20.9644 25.5752C21.5873 26.2777 23.0144 27.5487 24.3936 28.4345L21.4533 28.758L22.8434 39.5817C22.2272 39.67 22.1311 39.7132 21.4564 39.8092C20.8617 37.7084 19.7243 36.3368 18.4811 35.5378C17.3848 34.8333 15.8725 34.6746 14.4249 34.9611L14.332 35.069C15.3384 34.9642 16.5267 35.1101 17.7473 35.8829C18.9453 36.6403 19.9107 38.5968 20.2661 39.7748C20.721 41.2804 21.0358 42.8908 19.8111 44.5977C18.9397 45.8111 16.3957 46.4817 14.3407 45.0311C14.8896 45.9138 15.6316 46.6358 16.6304 46.7719C18.1134 46.9731 19.521 46.7159 20.49 45.7212C21.3172 44.8708 21.7558 43.0926 21.6402 41.2198L22.9491 41.0298L23.4216 44.3912L45.0906 41.7821L43.3226 24.5385ZM30.1393 15.4098C30.0787 15.5479 29.9837 15.6383 30.1265 16.0876L30.1352 16.1133L30.1578 16.1714L30.2174 16.3059C30.4746 16.8317 30.757 17.3278 31.229 17.5809C31.3512 17.5604 31.4775 17.5465 31.6084 17.5399C32.0516 17.5203 32.3315 17.5907 32.5091 17.6862C32.5251 17.5979 32.5287 17.4685 32.5189 17.278C32.4845 16.6119 32.6509 15.4791 31.3707 14.883C30.8875 14.6586 30.2096 14.7279 29.9837 15.0077C30.0248 15.0129 30.0618 15.0216 30.0905 15.0314C30.432 15.151 30.2004 15.2686 30.1393 15.4098ZM33.7272 21.6243C33.5593 21.5319 32.7746 21.5683 32.2231 21.6341C31.1725 21.7578 30.0381 22.1224 29.7896 22.3165C29.3377 22.6657 29.5431 23.2747 29.8769 23.5248C30.813 24.2242 31.6336 24.693 32.4999 24.579C33.0319 24.5092 33.5007 23.667 33.833 22.9029C34.0604 22.3766 34.0604 21.8086 33.7272 21.6243ZM24.4255 16.2345C24.7218 15.9531 22.9497 15.5834 21.5745 16.521C20.5603 17.2127 20.528 18.6958 21.499 19.5364C21.596 19.6196 21.6762 19.6786 21.7511 19.7269C22.0346 19.5934 22.3576 19.4583 22.7294 19.3376C23.3574 19.1338 23.8796 19.0285 24.3089 18.9725C24.5143 18.743 24.7531 18.3389 24.6935 17.6071C24.6124 16.6145 23.8601 16.7722 24.4255 16.2345Z" fill="#632CA6"/>
</svg>
