<svg width="48" height="48" viewBox="0 0 48 48" fill="none" xmlns="http://www.w3.org/2000/svg">
<path d="M32 4C34.6498 4 36.8114 6.06155 36.9825 8.66797C40.4803 9.18286 43.1743 12.0599 43.4161 15.6445C43.8614 22.2565 43.8614 29.7437 43.4161 36.3555C43.1597 40.1551 40.1488 43.1601 36.3438 43.3984C28.8521 43.8677 19.1479 43.8677 11.6563 43.3984C7.85137 43.1601 4.84032 40.1551 4.58403 36.3555C4.13865 29.7436 4.13866 22.2565 4.58403 15.6445C4.82577 12.0607 7.51889 9.18375 11.0157 8.66797C11.1867 6.06149 13.3503 4 16.0001 4C18.5137 4 20.5884 5.85577 20.9415 8.27148C22.9699 8.24498 25.0282 8.245 27.0567 8.27148C27.4096 5.85563 29.4863 4 32 4ZM27.0118 12.2715C25.0133 12.2453 22.9848 12.2453 20.9864 12.2715C20.8452 14.9065 18.6703 17 16.0001 17C13.4944 17 11.4236 15.1563 11.0606 12.752C9.68316 13.1807 8.67561 14.4096 8.57427 15.9141C8.14095 22.347 8.14095 29.6531 8.57427 36.0859C8.69549 37.8855 10.1103 39.2937 11.9063 39.4062C19.2313 39.8651 28.7687 39.8651 36.0938 39.4062C37.8899 39.2937 39.3046 37.8856 39.4258 36.0859C39.8591 29.6531 39.8591 22.347 39.4258 15.9141C39.3244 14.4088 38.316 13.1801 36.9375 12.752C36.5745 15.1562 34.5056 17 32 17C29.3298 17 27.1529 14.9066 27.0118 12.2715ZM15.0001 35V21C15.0001 19.8954 15.8955 19 17.0001 19H24C25.1046 19 26 19.8954 26 21C26 22.1046 25.1046 23 24 23H19.0001V26H22C23.1046 26 24 26.8954 24 28C24 29.1046 23.1046 30 22 30H19.0001V35C19.0001 36.1046 18.1046 37 17.0001 37C15.8955 37 15.0001 36.1046 15.0001 35ZM26 35V26C26 24.8954 26.8955 24 28 24C28.6716 24 29.2643 24.3321 29.627 24.8398C30.5353 24.3375 31.6509 24 33 24C34.1046 24 35 24.8954 35 26C35 27.1046 34.1046 28 33 28C31.786 28 31.0767 28.5633 30.5997 29.1992C30.3488 29.5336 30.1748 29.8797 30.0645 30.1445C30.0378 30.2085 30.0181 30.267 30 30.3164V35C30 36.1046 29.1046 37 28 37C26.8955 37 26 36.1046 26 35ZM29.9356 30.5V30.502C29.9359 30.5007 29.9369 30.4985 29.9375 30.4961L29.9395 30.4922V30.4863C29.9377 30.4924 29.9364 30.497 29.9356 30.5ZM16.0001 8C15.4478 8 15.0001 8.44771 15.0001 9V12C15.0001 12.5523 15.4478 13 16.0001 13C16.5523 13 17.0001 12.5523 17.0001 12V9C17.0001 8.44772 16.5523 8 16.0001 8ZM32 8C31.4478 8 31 8.44772 31 9V12C31 12.5523 31.4478 13 32 13C32.5523 13 33 12.5523 33 12V9C33 8.44772 32.5523 8 32 8Z" fill="#646464"/>
</svg>
