<svg width="48" height="48" viewBox="0 0 48 48" fill="none" xmlns="http://www.w3.org/2000/svg">
<path fill-rule="evenodd" clip-rule="evenodd" d="M32 4C34.6498 4 36.8114 6.06155 36.9825 8.66797C40.4809 9.18304 43.1747 12.0619 43.4161 15.6465C43.5962 18.3219 43.7039 21.1377 43.7383 23.9766C43.7513 25.0807 42.866 25.9866 41.7618 26C40.6576 26.013 39.7517 25.1277 39.7383 24.0234C39.7178 22.3287 39.6708 20.6455 39.5975 19H8.4023C8.15162 24.6183 8.20894 30.6625 8.57427 36.0859C8.69546 37.8851 10.1103 39.2934 11.9063 39.4062C14.9871 39.5992 18.4681 39.7118 22.0176 39.7422C23.1217 39.7519 24.009 40.6538 24 41.7578C23.9906 42.8623 23.087 43.7517 21.9825 43.7422C18.3758 43.7113 14.8221 43.5967 11.6563 43.3984C7.85186 43.1598 4.84032 40.1552 4.58403 36.3555C4.13865 29.7436 4.13866 22.2565 4.58403 15.6445C4.82577 12.0607 7.51889 9.18375 11.0157 8.66797C11.1867 6.06149 13.3503 4 16.0001 4C18.5137 4 20.5884 5.85577 20.9415 8.27148C22.9699 8.24498 25.0282 8.245 27.0567 8.27148C27.4096 5.85563 29.4863 4 32 4ZM15.0001 9C15.0001 8.44771 15.4478 8 16.0001 8C16.5523 8 17.0001 8.44772 17.0001 9V12C17.0001 12.5523 16.5523 13 16.0001 13C15.4478 13 15.0001 12.5523 15.0001 12V9ZM31 9C31 8.44772 31.4478 8 32 8C32.5523 8 33 8.44772 33 9V12C33 12.5523 32.5523 13 32 13C31.4478 13 31 12.5523 31 12V9Z" fill="#646464"/>
<path fill-rule="evenodd" clip-rule="evenodd" d="M40.4375 30.75C41.1276 29.8875 42.3875 29.7475 43.25 30.4375C44.1126 31.1275 44.2526 32.3875 43.5625 33.25L35.5625 43.25C35.2073 43.694 34.6791 43.9644 34.1114 43.9961C33.5434 44.0276 32.9883 43.8163 32.586 43.4141L28.586 39.4141C27.8049 38.633 27.8049 37.367 28.586 36.5859C29.367 35.8049 30.6331 35.8049 31.4141 36.5859L33.8321 39.0039L40.4375 30.75Z" fill="#646464"/>
</svg>
