<svg width="48" height="48" viewBox="0 0 48 48" fill="none" xmlns="http://www.w3.org/2000/svg">
<path d="M28.4944 15.5495C28.7979 14.4874 28.1829 13.3804 27.1208 13.077C26.0587 12.7735 24.9518 13.3885 24.6483 14.4506L19.5054 32.4506C19.202 33.5127 19.817 34.6196 20.8791 34.9231C21.9411 35.2265 23.0481 34.6116 23.3515 33.5495L28.4944 15.5495Z" fill="#646464"/>
<path d="M32.6218 15.1767C33.2345 14.2576 34.4762 14.0093 35.3953 14.622C35.3953 14.622 35.3953 14.622 34.2859 16.2861L35.3953 14.622L35.4039 14.6278L35.4236 14.641L35.4946 14.6889C35.5556 14.7302 35.6432 14.79 35.7537 14.8663C35.9746 15.0188 36.2876 15.238 36.6622 15.5085C37.4087 16.0476 38.4123 16.8 39.4234 17.6425C40.4233 18.4758 41.4846 19.4418 42.3133 20.4086C42.7275 20.8919 43.1234 21.421 43.4245 21.9729C43.7135 22.5028 44.0002 23.2068 44.0002 24.0004C44.0002 24.794 43.7135 25.498 43.4245 26.0279C43.1234 26.5798 42.7275 27.1089 42.3133 27.5922C41.4846 28.559 40.4233 29.525 39.4234 30.3583C38.4123 31.2008 37.4087 31.9532 36.6622 32.4923C36.2876 32.7628 35.9746 32.982 35.7537 33.1345C35.6432 33.2108 35.5556 33.2705 35.4946 33.3119L35.4236 33.3598L35.4039 33.373L35.3964 33.3781L34.2859 31.7147C35.3953 33.3788 35.3964 33.3781 35.3964 33.3781C34.4773 33.9908 33.2345 33.7431 32.6218 32.8241C32.0091 31.9052 32.2573 30.6637 33.1761 30.0509L33.179 30.0489L33.1924 30.0399L33.2504 30.0007C33.3024 29.9655 33.3805 29.9122 33.481 29.8429C33.6819 29.7041 33.9716 29.5014 34.3202 29.2496C35.0202 28.7441 35.9451 28.05 36.8626 27.2854C37.7913 26.5115 38.6586 25.7097 39.2763 24.989C39.5853 24.6285 39.7921 24.3339 39.9129 24.1124C39.9373 24.0676 39.9558 24.0304 39.9695 24.0004C39.9558 23.9704 39.9373 23.9332 39.9129 23.8883C39.7921 23.6669 39.5853 23.3723 39.2763 23.0118C38.6586 22.2911 37.7913 21.4893 36.8626 20.7154C35.9451 19.9508 35.0202 19.2567 34.3202 18.7512C33.9716 18.4994 33.6819 18.2967 33.481 18.1579C33.3805 18.0886 33.3024 18.0353 33.2504 18L33.1924 17.9609L33.179 17.9519L33.1765 17.9502C32.2576 17.3374 32.0091 16.0957 32.6218 15.1767Z" fill="#646464"/>
<path d="M15.3784 15.1767C15.991 16.0956 15.7428 17.3371 14.8241 17.9499L14.8211 17.9519L14.8077 17.9609L14.7498 18C14.6977 18.0353 14.6196 18.0885 14.5192 18.1579C14.3182 18.2967 14.0285 18.4994 13.6799 18.7512C12.98 19.2567 12.055 19.9508 11.1375 20.7154C10.2089 21.4893 9.3416 22.2911 8.72387 23.0118C8.41485 23.3723 8.20806 23.6669 8.08727 23.8883C8.06281 23.9332 8.0444 23.9704 8.03063 24.0004C8.0444 24.0303 8.06281 24.0676 8.08727 24.1124C8.20806 24.3339 8.41485 24.6284 8.72387 24.989C9.3416 25.7097 10.2089 26.5115 11.1375 27.2854C12.055 28.05 12.98 28.744 13.6799 29.2496C14.0285 29.5013 14.3182 29.7041 14.5192 29.8429C14.6196 29.9122 14.6977 29.9655 14.7498 30.0007L14.8077 30.0399L14.8211 30.0489L14.8237 30.0506C15.7425 30.6633 15.991 31.9051 15.3784 32.8241C14.7657 33.7431 13.524 33.9915 12.6049 33.3788L12.5963 33.373L12.5766 33.3598L12.5056 33.3118C12.4446 33.2705 12.3569 33.2108 12.2464 33.1345C12.0256 32.9819 11.7125 32.7628 11.338 32.4923C10.5915 31.9532 9.58782 31.2008 8.57678 30.3583C7.57686 29.525 6.51554 28.559 5.68685 27.5921C5.27265 27.1089 4.87676 26.5798 4.57568 26.0278C4.28669 25.498 4 24.794 4 24.0004C4 23.2068 4.28669 22.5027 4.57568 21.9729C4.87676 21.4209 5.27265 20.8918 5.68685 20.4086C6.51554 19.4418 7.57686 18.4758 8.57678 17.6425C9.58782 16.8 10.5915 16.0476 11.338 15.5085C11.7125 15.2379 12.0256 15.0188 12.2464 14.8663C12.3569 14.79 12.4446 14.7302 12.5056 14.6889L12.5766 14.6409L12.5963 14.6278L12.6038 14.6227L13.6432 16.1794C12.6049 14.622 12.6038 14.6227 12.6038 14.6227C13.5228 14.01 14.7657 14.2576 15.3784 15.1767Z" fill="#646464"/>
</svg>
