<svg width="48" height="48" viewBox="0 0 48 48" fill="none" xmlns="http://www.w3.org/2000/svg">
<path fill-rule="evenodd" clip-rule="evenodd" d="M8.0204 19.9989C6.91658 19.9583 6.0546 19.0307 6.09512 17.9268C6.17242 15.8213 6.29057 13.7583 6.44993 11.7863C6.67961 8.94416 8.92905 6.69469 11.7712 6.46499C13.7432 6.30561 15.8062 6.18744 17.9118 6.11014C19.0156 6.06961 19.9433 6.93159 19.9838 8.03541C20.0243 9.13924 19.1624 10.0669 18.0585 10.1074C16.0057 10.1828 14.0015 10.2978 12.0934 10.452C11.2061 10.5237 10.5086 11.2212 10.4369 12.1085C10.2827 14.0165 10.1678 16.0207 10.0924 18.0736C10.0519 19.1774 9.12423 20.0394 8.0204 19.9989ZM8.02041 28.0016C9.12423 27.961 10.0519 28.823 10.0924 29.9268C10.1678 31.9797 10.2827 33.9839 10.4369 35.892C10.5086 36.7793 11.2062 37.4769 12.0935 37.5485C14.0015 37.7027 16.0057 37.8176 18.0585 37.893C19.1623 37.9335 20.0243 38.8611 19.9838 39.965C19.9433 41.0688 19.0156 41.9308 17.9118 41.8903C15.8063 41.813 13.7434 41.6949 11.7714 41.5356C8.92918 41.3059 6.67961 39.0564 6.44993 36.2142C6.29057 34.2421 6.17242 32.1791 6.09512 30.0736C6.0546 28.9698 6.91658 28.0421 8.02041 28.0016ZM28.0014 39.965C27.9609 38.8611 28.8228 37.9335 29.9267 37.893C31.9795 37.8176 33.9837 37.7027 35.8917 37.5485C36.779 37.4769 37.4765 36.7793 37.5482 35.892C37.7024 33.9839 37.8174 31.9797 37.8927 29.9268C37.9333 28.823 38.8609 27.961 39.9648 28.0016C41.0686 28.0421 41.9306 28.9698 41.8901 30.0736C41.8128 32.1791 41.6946 34.2421 41.5352 36.2142C41.3056 39.0564 39.056 41.3059 36.2138 41.5356C34.2418 41.6949 32.1788 41.813 30.0734 41.8903C28.9696 41.9308 28.0419 41.0688 28.0014 39.965ZM28.0014 8.03541C28.0419 6.93159 28.9696 6.06961 30.0734 6.11014C32.1789 6.18744 34.242 6.30561 36.214 6.46499C39.0561 6.69469 41.3056 8.94416 41.5352 11.7863C41.6946 13.7583 41.8128 15.8213 41.8901 17.9268C41.9306 19.0307 41.0686 19.9583 39.9648 19.9989C38.8609 20.0394 37.9333 19.1774 37.8927 18.0736C37.8174 16.0207 37.7024 14.0165 37.5482 12.1085C37.4765 11.2212 36.7791 10.5237 35.8918 10.452C33.9837 10.2978 31.9795 10.1828 29.9266 10.1074C28.8228 10.0669 27.9608 9.13924 28.0014 8.03541Z" fill="#646464"/>
</svg>
