<svg width="48" height="48" viewBox="0 0 48 48" fill="none" xmlns="http://www.w3.org/2000/svg">
<path d="M24 40.875C33.32 40.875 40.875 33.32 40.875 24C40.875 14.68 33.32 7.125 24 7.125C14.68 7.125 7.125 14.68 7.125 24C7.125 33.32 14.68 40.875 24 40.875ZM24 44C12.9538 44 4 35.0462 4 24C4 12.9538 12.9538 4 24 4C35.0462 4 44 12.9538 44 24C44 35.0462 35.0462 44 24 44Z" fill="white"/>
<path d="M24 16.0837C25.1508 16.0837 26.0837 15.1508 26.0837 14C26.0837 12.8492 25.1508 11.9163 24 11.9163C22.8492 11.9163 21.9163 12.8492 21.9163 14C21.9163 15.1508 22.8492 16.0837 24 16.0837Z" fill="white"/>
<path d="M34 26.0837C35.1508 26.0837 36.0837 25.1508 36.0837 24C36.0837 22.8492 35.1508 21.9163 34 21.9163C32.8492 21.9163 31.9163 22.8492 31.9163 24C31.9163 25.1508 32.8492 26.0837 34 26.0837Z" fill="white"/>
<path d="M31.0712 33.155C32.2221 33.155 33.155 32.2221 33.155 31.0712C33.155 29.9204 32.2221 28.9875 31.0712 28.9875C29.9204 28.9875 28.9875 29.9204 28.9875 31.0712C28.9875 32.2221 29.9204 33.155 31.0712 33.155Z" fill="white"/>
<path d="M24 36.0837C25.1508 36.0837 26.0837 35.1508 26.0837 34C26.0837 32.8492 25.1508 31.9163 24 31.9163C22.8492 31.9163 21.9163 32.8492 21.9163 34C21.9163 35.1508 22.8492 36.0837 24 36.0837Z" fill="white"/>
<path d="M16.9288 33.155C18.0796 33.155 19.0125 32.2221 19.0125 31.0712C19.0125 29.9204 18.0796 28.9875 16.9288 28.9875C15.7779 28.9875 14.845 29.9204 14.845 31.0712C14.845 32.2221 15.7779 33.155 16.9288 33.155Z" fill="white"/>
<path d="M14 26.0837C15.1508 26.0837 16.0837 25.1508 16.0837 24C16.0837 22.8492 15.1508 21.9163 14 21.9163C12.8492 21.9163 11.9163 22.8492 11.9163 24C11.9163 25.1508 12.8492 26.0837 14 26.0837Z" fill="white"/>
<path d="M16.9288 19.0125C18.0796 19.0125 19.0125 18.0796 19.0125 16.9288C19.0125 15.7779 18.0796 14.845 16.9288 14.845C15.7779 14.845 14.845 15.7779 14.845 16.9288C14.845 18.0796 15.7779 19.0125 16.9288 19.0125Z" fill="white"/>
<path d="M22.5293 22.5239L22.5263 22.5263C22.1492 22.9034 21.9163 23.4246 21.9163 24C21.9163 25.1508 22.8492 26.0838 24 26.0838C24.5754 26.0838 25.0964 25.8505 25.4735 25.4734L25.4769 25.47C25.5769 25.3696 25.6666 25.259 25.7446 25.14L31.1517 18.4737C31.5244 18.0141 31.4897 17.3472 31.0713 16.9288C30.6529 16.5104 29.986 16.4757 29.5264 16.8484L22.8609 22.2549C22.7413 22.3331 22.6302 22.4234 22.5293 22.5239Z" fill="white"/>
</svg>
