<svg width="48" height="48" viewBox="0 0 48 48" fill="none" xmlns="http://www.w3.org/2000/svg">
<path d="M39.222 42.576C37.526 42.576 36.182 42.256 35.19 41.616C34.198 40.976 33.574 40.256 33.318 39.456H33.126V42H28.998V34.512H33.126V35.376C33.126 36.656 33.526 37.648 34.326 38.352C35.126 39.056 36.422 39.408 38.214 39.408C41.414 39.408 43.014 38.32 43.014 36.144C43.014 35.248 42.726 34.544 42.15 34.032C41.574 33.488 40.678 33.056 39.462 32.736L37.062 32.112C34.406 31.408 32.422 30.432 31.11 29.184C29.83 27.904 29.19 26.176 29.19 24C29.19 21.568 29.99 19.696 31.59 18.384C33.19 17.04 35.334 16.368 38.022 16.368C39.654 16.368 40.934 16.672 41.862 17.28C42.822 17.856 43.43 18.544 43.686 19.344H43.878V16.944H48.006V24.432H43.878V23.28C43.878 22.064 43.478 21.136 42.678 20.496C41.878 19.856 40.614 19.536 38.886 19.536C36.134 19.536 34.758 20.544 34.758 22.56C34.758 23.488 35.03 24.24 35.574 24.816C36.15 25.392 37.11 25.84 38.454 26.16L40.71 26.688C43.334 27.328 45.318 28.24 46.662 29.424C48.006 30.608 48.678 32.368 48.678 34.704C48.678 37.168 47.814 39.104 46.086 40.512C44.39 41.888 42.102 42.576 39.222 42.576Z" fill="#646464"/>
<path d="M12.1399 42.576C10.1559 42.576 8.55586 42.224 7.33986 41.52C6.15586 40.784 5.33986 40 4.89186 39.168H4.69986V42H-0.244141V32.208H4.69986V34.32C4.69986 37.648 7.00386 39.312 11.6119 39.312C13.9799 39.312 15.7239 38.832 16.8439 37.872C17.9639 36.912 18.5239 35.616 18.5239 33.984C18.5239 32.512 18.1079 31.376 17.2759 30.576C16.4759 29.776 15.0359 29.152 12.9559 28.704L10.6519 28.176C9.05186 27.856 7.59586 27.408 6.28386 26.832C5.00386 26.256 3.89986 25.536 2.97186 24.672C2.07586 23.808 1.37186 22.784 0.85986 21.6C0.37986 20.416 0.139859 19.024 0.139859 17.424C0.139859 16.016 0.39586 14.736 0.90786 13.584C1.41986 12.4 2.15586 11.392 3.11586 10.56C4.07586 9.72804 5.24386 9.08804 6.61986 8.64004C7.99586 8.16004 9.54786 7.92004 11.2759 7.92004C13.2279 7.92004 14.7799 8.27204 15.9319 8.97604C17.1159 9.64804 17.9159 10.384 18.3319 11.184H18.5239V8.49605H23.4679V18.144H18.5239V16.032C18.5239 14.368 17.9479 13.152 16.7959 12.384C15.6439 11.584 14.0119 11.184 11.8999 11.184C9.69186 11.184 8.05986 11.664 7.00386 12.624C5.97986 13.552 5.46786 14.704 5.46786 16.08C5.46786 17.616 5.94786 18.784 6.90786 19.584C7.86786 20.352 9.48386 20.992 11.7559 21.504L13.9159 21.936C17.1479 22.672 19.6439 23.84 21.4039 25.44C23.1959 27.04 24.0919 29.312 24.0919 32.256C24.0919 33.76 23.8199 35.136 23.2759 36.384C22.7319 37.632 21.9319 38.72 20.8759 39.648C19.8519 40.576 18.6039 41.296 17.1319 41.808C15.6599 42.32 13.9959 42.576 12.1399 42.576Z" fill="#646464"/>
</svg>
