<svg width="48" height="48" viewBox="0 0 48 48" fill="none" xmlns="http://www.w3.org/2000/svg">
<path d="M12.1162 8.54741C13.2189 8.48329 14.0608 7.53739 13.9967 6.43468C13.9326 5.33198 12.9867 4.49003 11.884 4.55415C11.1627 4.59609 10.4743 4.6425 9.82612 4.69348C7.07302 4.91002 4.91012 7.07288 4.69355 9.826C4.64257 10.4741 4.59615 11.1626 4.55421 11.8838C4.49009 12.9865 5.33203 13.9324 6.43473 13.9965C7.53744 14.0607 8.48334 13.2187 8.54747 12.116C8.58807 11.4178 8.63269 10.7568 8.68123 10.1397C8.74349 9.34822 9.34829 8.74342 10.1398 8.68116C10.7569 8.63262 11.4179 8.58801 12.1162 8.54741Z" fill="#646464"/>
<path d="M36.1163 4.55415C35.0136 4.49003 34.0677 5.33197 34.0036 6.43468C33.9395 7.53738 34.7814 8.48328 35.8841 8.54741C36.5823 8.588 37.2432 8.63261 37.8602 8.68115C38.6517 8.7434 39.2565 9.34821 39.3187 10.1397C39.3673 10.7568 39.4119 11.4179 39.4525 12.1162C39.5166 13.2189 40.4625 14.0608 41.5652 13.9967C42.6679 13.9326 43.5099 12.9867 43.4458 11.884C43.4038 11.1628 43.3574 10.4742 43.3064 9.82605C43.0899 7.07292 40.927 4.91001 38.1739 4.69346C37.5258 4.64249 36.8374 4.59608 36.1163 4.55415Z" fill="#646464"/>
<path d="M8.54747 35.8836C8.48335 34.7809 7.53745 33.9389 6.43474 34.0031C5.33203 34.0672 4.49009 35.0131 4.55421 36.1158C4.59616 36.8371 4.64257 37.5256 4.69356 38.1738C4.91012 40.9269 7.07299 43.0898 9.8261 43.3063C10.4742 43.3573 11.1627 43.4037 11.884 43.4457C12.9867 43.5098 13.9326 42.6679 13.9967 41.5652C14.0608 40.4624 13.2189 39.5165 12.1162 39.4524C11.4179 39.4118 10.7569 39.3672 10.1398 39.3187C9.3483 39.2564 8.7435 38.6516 8.68124 37.8601C8.6327 37.243 8.58807 36.5819 8.54747 35.8836Z" fill="#646464"/>
<path d="M43.4458 36.1158C43.5099 35.0131 42.6679 34.0672 41.5652 34.0031C40.4625 33.939 39.5166 34.7809 39.4525 35.8836C39.4119 36.5819 39.3673 37.243 39.3187 37.8601C39.2565 38.6516 38.6517 39.2564 37.8602 39.3187C37.243 39.3672 36.5819 39.4118 35.8836 39.4524C34.7809 39.5165 33.939 40.4624 34.0031 41.5652C34.0672 42.6679 35.0131 43.5098 36.1158 43.4457C36.8371 43.4037 37.5257 43.3573 38.1738 43.3063C40.927 43.0898 43.0899 40.9269 43.3064 38.1737C43.3574 37.5256 43.4038 36.837 43.4458 36.1158Z" fill="#646464"/>
<path fill-rule="evenodd" clip-rule="evenodd" d="M9.0002 16.4999C8.17177 16.4999 7.5002 17.1715 7.5002 17.9999L7.5 29.9999C7.49997 30.8283 8.17151 31.4999 8.99994 31.4999C9.82837 31.5 10.5 30.8284 10.5 30L10.5001 26.4999H12.5003C15.2617 26.4999 17.5003 24.2613 17.5003 21.4998C17.5002 18.7384 15.2616 16.4999 12.5003 16.4999H9.0002ZM12.5003 23.4999H10.5002V19.4999H12.5003C13.6048 19.4999 14.5002 20.3953 14.5003 21.4999C14.5003 22.6045 13.6049 23.4999 12.5003 23.4999Z" fill="#646464"/>
<path fill-rule="evenodd" clip-rule="evenodd" d="M21 16.4999C20.6022 16.4999 20.2206 16.658 19.9393 16.9393C19.658 17.2206 19.5 17.6021 19.5 18L19.5002 30C19.5002 30.8284 20.1717 31.4999 21.0002 31.4999H23.0001C27.1423 31.4999 30.5001 28.142 30.5001 23.9998C30.5 19.8577 27.1422 16.4999 23.0001 16.4999H21ZM22.5001 28.4999L22.5 19.4999H23.0001C25.4853 19.4999 27.5 21.5146 27.5001 23.9999C27.5001 26.4852 25.4854 28.4999 23.0001 28.4999H22.5001Z" fill="#646464"/>
<path d="M34.0002 16.5C33.1717 16.5 32.5002 17.1715 32.5002 18V30C32.5002 30.8284 33.1717 31.5 34.0002 31.5C34.8286 31.5 35.5002 30.8284 35.5002 30V25.5H39.0002C39.8286 25.5 40.5002 24.8284 40.5002 24C40.5002 23.1715 39.8286 22.5 39.0002 22.5H35.5002V19.5H40.0002C40.8286 19.5 41.5002 18.8284 41.5002 18C41.5002 17.1715 40.8286 16.5 40.0002 16.5H34.0002Z" fill="#646464"/>
</svg>
