<svg width="48" height="48" viewBox="0 0 48 48" fill="none" xmlns="http://www.w3.org/2000/svg">
<path fill-rule="evenodd" clip-rule="evenodd" d="M6.28283 9.02011C7.3763 9.17631 8.1361 10.1894 7.9799 11.2828C7.00673 18.0952 7.00668 29.9048 7.97986 36.7172C8.13607 37.8106 7.37627 38.8237 6.2828 38.9799C5.18933 39.1361 4.17627 38.3763 4.02006 37.2829C2.99328 30.0952 2.99334 17.9048 4.02009 10.7172C4.1763 9.62371 5.18936 8.86391 6.28283 9.02011ZM41.7172 9.02011C42.8106 8.8639 43.8237 9.6237 43.9799 10.7172C45.0067 17.9048 45.0067 30.0952 43.9799 37.2829C43.8237 38.3763 42.8106 39.1361 41.7172 38.9799C40.6237 38.8237 39.8639 37.8106 40.0201 36.7172C40.9933 29.9048 40.9933 18.0952 40.0201 11.2829C39.8639 10.1894 40.6237 9.17632 41.7172 9.02011ZM18.1624 15.3725C19.0612 16.0146 19.2694 17.2637 18.6274 18.1625L15.8863 22H32.1135L29.3724 18.1625C28.7304 17.2636 28.9386 16.0145 29.8375 15.3725C30.7363 14.7305 31.9854 14.9387 32.6274 15.8376L37.6273 22.8376C38.124 23.5329 38.124 24.4671 37.6273 25.1625L32.6274 32.1625C31.9854 33.0613 30.7363 33.2695 29.8375 32.6275C28.9386 31.9855 28.7304 30.7364 29.3724 29.8376L32.1135 26H15.8863L18.6274 29.8375C19.2694 30.7364 19.0612 31.9855 18.1624 32.6275C17.2636 33.2695 16.0145 33.0613 15.3725 32.1625L10.3725 25.1625C9.87575 24.4671 9.87575 23.5329 10.3725 22.8375L15.3725 15.8375C16.0145 14.9387 17.2636 14.7305 18.1624 15.3725Z" fill="#646464"/>
</svg>
