<svg width="48" height="48" viewBox="0 0 48 48" fill="none" xmlns="http://www.w3.org/2000/svg">
<path d="M44 31.0591C44 30.5678 43.8686 30.0436 43.6059 29.585L30.9951 7.63785L25.642 16.9408L39.1067 40.3621L43.6387 32.5004C43.8358 32.1729 43.9672 31.7798 44 31.3867V31.0591Z" fill="#8D8D8D"/>
<path d="M4 32.697L8.53202 40.5587C8.79475 40.9845 9.12315 41.3449 9.61577 41.6397C10.0099 41.9017 10.5025 42 11.0279 42H36.2824L30.9294 32.6643H4V32.697Z" fill="#8D8D8D"/>
<path d="M28.1708 6H19.1067C18.6141 6 18.1215 6.13103 17.6617 6.39308C17.2348 6.65514 16.8736 7.01547 16.6437 7.44131L4 29.4213H14.7061L28.1708 6Z" fill="#8D8D8D"/>
</svg>
