<svg width="48" height="48" viewBox="0 0 48 48" fill="none" xmlns="http://www.w3.org/2000/svg">
<path d="M12.7628 8.5918C19.2484 5.42732 26.9822 7.72871 30.7414 13.6992C31.2214 14.4625 31.0129 15.4428 30.3117 16.0098C28.5792 17.4107 25.1047 20.0613 21.1183 22.2539L25.1925 30.0527C31.5521 29.1558 37.7662 29.0377 41.5031 29.3789C43.3985 29.552 44.3456 31.2945 43.8839 33.1133L42.3976 38.9707C41.9454 40.7511 40.3197 42 38.4562 42H6.59488C4.72806 41.9999 3.30778 40.3003 4.35659 38.7793C7.17607 34.6911 13.8769 32.1754 21.0441 30.7539L17.5265 24.0215C13.3366 25.8395 9.08197 26.939 6.90542 27.4355C6.02973 27.6353 5.13452 27.1962 4.82925 26.3516C2.43147 19.7127 5.37489 12.1954 11.8625 9.0293L12.7628 8.5918Z" fill="#646464"/>
<path d="M36.9992 4C39.7606 4 41.9992 6.23858 41.9992 9C41.9992 11.7614 39.7606 14 36.9992 14C34.238 13.9997 31.9992 11.7613 31.9992 9C31.9992 6.23874 34.238 4.00027 36.9992 4Z" fill="#646464"/>
</svg>
