<svg width="48" height="48" viewBox="0 0 48 48" fill="none" xmlns="http://www.w3.org/2000/svg">
<path fill-rule="evenodd" clip-rule="evenodd" d="M20.4238 24.6587L15.7526 29.9973C15.1445 30.6922 14 30.2621 14 29.3388V18.6617C14 17.7383 15.1445 17.3083 15.7526 18.0032L20.4238 23.3417C20.7537 23.7187 20.7537 24.2817 20.4238 24.6587ZM32.2474 29.9973L27.5762 24.6587C27.2463 24.2817 27.2463 23.7187 27.5762 23.3417L32.2474 18.0032C32.8555 17.3083 34 17.7383 34 18.6617V29.3388C34 30.2621 32.8555 30.6922 32.2474 29.9973Z" fill="#646464"/>
<path fill-rule="evenodd" clip-rule="evenodd" d="M24 8C17.7379 8 13.3773 8.23528 10.6681 8.45541C9.45459 8.554 8.554 9.45459 8.4554 10.6681C8.23528 13.3773 8 17.7379 8 24C8 30.2621 8.23528 34.6227 8.4554 37.3319C8.554 38.5454 9.4546 39.446 10.6681 39.5446C13.3773 39.7647 17.7379 40 24 40C30.2621 40 34.6227 39.7647 37.3319 39.5446C38.5454 39.446 39.446 38.5454 39.5446 37.3319C39.7647 34.6227 40 30.2621 40 24C40 17.7379 39.7647 13.3773 39.5446 10.6681C39.446 9.45459 38.5454 8.554 37.3319 8.45541C34.6227 8.23528 30.2621 8 24 8ZM10.3442 4.46854C13.1691 4.23902 17.6381 4 24 4C30.3619 4 34.8309 4.23902 37.6558 4.46854C40.8228 4.72585 43.2741 7.17719 43.5314 10.3442C43.761 13.1691 44 17.6381 44 24C44 30.3619 43.761 34.8309 43.5314 37.6558C43.2741 40.8228 40.8228 43.2741 37.6558 43.5314C34.8309 43.761 30.3619 44 24 44C17.6381 44 13.1691 43.761 10.3442 43.5314C7.1772 43.2741 4.72585 40.8228 4.46853 37.6558C4.23902 34.8309 4 30.3619 4 24C4 17.6381 4.23902 13.1691 4.46853 10.3442C4.72585 7.17721 7.17718 4.72585 10.3442 4.46854Z" fill="#646464"/>
</svg>
