<svg width="48" height="48" viewBox="0 0 48 48" fill="none" xmlns="http://www.w3.org/2000/svg">
<path fill-rule="evenodd" clip-rule="evenodd" d="M32.88 41.9198H33.24C37.24 41.9198 40.6 39.5398 41.66 35.8998C42.52 32.9598 43.62 28.0998 44 21.6398C44.1 19.8798 43.5 18.1998 42.3 16.9398C41.02 15.5998 39.18 14.8198 37.12 14.8198C34.34 14.9398 31.64 15.2998 29.78 15.5998L29.92 12.2398C29.76 9.25981 28.02 6.97981 25.48 6.41981C24.68 6.23981 23.84 6.11981 23.06 6.03981C20.48 5.73981 18.02 7.31981 17.1 9.83981L14.8463 15.9979C14.6453 15.9243 14.4362 15.8648 14.22 15.8202C12.12 15.3802 9.72 15.3802 7.62 15.8202C5.6 16.2402 4.18 18.0002 4.12 20.1802C4.06 22.0002 4 25.0002 4 28.7402C4 32.4802 4.06 35.4802 4.12 37.3002C4.18 39.4802 5.58 41.2402 7.62 41.6602C8.66 41.8802 9.78 42.0002 10.92 42.0002C12.06 42.0002 13.16 41.8802 14.22 41.6602C15.1845 41.4597 16.0121 40.9537 16.6203 40.2424C19.1484 40.7984 25.182 41.9198 32.88 41.9198ZM17.7471 36.3923C20.239 36.9174 25.9185 37.9198 32.96 37.9198C35.36 37.9798 37.26 36.7398 37.82 34.7798C38.62 32.0398 39.64 27.4998 40 21.3998C40.04 20.5598 39.7 19.9998 39.38 19.6798C38.86 19.1398 38.06 18.8198 37.2 18.8198C33.087 19.0182 28.9903 19.7862 28.1972 19.9348C28.111 19.951 28.06 19.9598 28.06 19.9598C27.46 20.0798 26.84 19.9198 26.36 19.5198C25.9 19.1198 25.64 18.5198 25.66 17.9198L25.9 12.2598C25.9 12.1398 25.74 10.5798 24.6 10.3198C23.94 10.1798 23.26 10.0798 22.62 9.99981C21.88 9.91981 21.14 10.3998 20.86 11.1998L17.72 19.7798C17.7133 19.7984 17.7063 19.8169 17.6991 19.8353C17.7098 19.949 17.7168 20.064 17.72 20.1802C17.78 22.0002 17.84 25.0002 17.84 28.7402C17.84 31.9131 17.7968 34.5533 17.7471 36.3923ZM8.44 19.7402C9.22 19.5802 10.06 19.5002 10.92 19.5002H10.94C11.8 19.5002 12.64 19.5802 13.42 19.7402C13.74 19.8202 13.74 20.3002 13.74 20.3202C13.8 22.1202 13.86 25.0802 13.86 28.7602C13.86 32.4402 13.8 35.4202 13.74 37.2002C13.74 37.2602 13.72 37.7202 13.42 37.7802C11.86 38.1002 10.02 38.1002 8.46 37.7802C8.14 37.7002 8.12 37.2002 8.12 37.2002C8.06 35.4002 8 32.4402 8 28.7602C8 25.0802 8.06 22.1202 8.12 20.3202C8.12 20.3002 8.12 19.8002 8.44 19.7402Z" fill="#646464"/>
</svg>
