<svg width="48" height="48" viewBox="0 0 48 48" fill="none" xmlns="http://www.w3.org/2000/svg">
<path d="M5.7666 8.14571C5.7666 6.72185 6.95764 5.56689 8.42693 5.56689H39.1063C40.5755 5.56689 41.7666 6.72185 41.7666 8.14571V38.9881C41.7666 40.4124 40.5755 41.5669 39.1063 41.5669H8.42693C6.95764 41.5669 5.7666 40.4124 5.7666 38.9881V8.14571Z" fill="#006699"/>
<path fill-rule="evenodd" clip-rule="evenodd" d="M16.6793 35.7026V19.4466H11.2418V35.7026H16.6793ZM13.9606 17.2271C15.8567 17.2271 17.0369 15.9788 17.0369 14.4189C17.0016 12.8238 15.8567 11.6101 13.9965 11.6101C12.1365 11.6101 10.9204 12.8238 10.9204 14.4189C10.9204 15.9788 12.1004 17.2271 13.9251 17.2271H13.9606Z" fill="white"/>
<path fill-rule="evenodd" clip-rule="evenodd" d="M19.688 35.7026H25.1255V26.6246C25.1255 26.1387 25.1608 25.6534 25.3044 25.3061C25.6975 24.3353 26.5922 23.33 28.0943 23.33C30.0618 23.33 30.8489 24.8207 30.8489 27.006V35.7026H36.2859V26.3817C36.2859 21.3885 33.6033 19.0652 30.0259 19.0652C27.0926 19.0652 25.8411 20.6944 25.1256 21.8042V19.4466H19.6882C19.7595 20.972 19.688 35.7026 19.688 35.7026Z" fill="white"/>
</svg>
