<svg width="48" height="48" viewBox="0 0 48 48" fill="none" xmlns="http://www.w3.org/2000/svg">
<path fill-rule="evenodd" clip-rule="evenodd" d="M4 24C4 12.9543 12.9543 4 24 4C35.0457 4 44 12.9543 44 24C44 35.0457 35.0457 44 24 44C12.9543 44 4 35.0457 4 24ZM24 8C15.1634 8 8 15.1634 8 24C8 32.8366 15.1634 40 24 40C32.8366 40 40 32.8366 40 24C40 15.1634 32.8366 8 24 8Z" fill="#646464"/>
<path fill-rule="evenodd" clip-rule="evenodd" d="M15.6554 25.1224C15.0397 26.0308 13.8053 26.2739 12.8906 25.6641C11.9715 25.0514 11.7232 23.8096 12.3359 22.8906C12.3359 22.8906 12.3905 22.8112 12.4265 22.7611C12.4986 22.6608 12.5374 22.6107 12.618 22.5094C12.7784 22.3076 13.0082 22.0383 13.3045 21.742C13.8876 21.159 14.7809 20.418 15.9622 19.9117C17.1699 19.3941 18.6663 19.13 20.356 19.52C22.0272 19.9056 23.7205 20.8921 25.4142 22.5858C26.7205 23.8921 27.7772 24.4056 28.5435 24.5825C29.2913 24.755 29.9199 24.6441 30.4621 24.4117C31.0309 24.168 31.5126 23.784 31.867 23.4295C32.0395 23.2571 32.169 23.1045 32.2508 23.0016C32.2913 22.9506 32.3192 22.913 32.3337 22.8929L32.3446 22.8776C32.9603 21.9692 34.1947 21.7261 35.1094 22.3359C36.0285 22.9486 36.2768 24.1904 35.6641 25.1094C35.3644 25.5144 35.0527 25.9007 34.6955 26.258C34.1124 26.841 33.2191 27.582 32.0378 28.0883C30.8301 28.6059 29.3337 28.8699 27.644 28.48C25.9728 28.0944 24.2795 27.1079 22.5858 25.4142C21.2795 24.1079 20.2228 23.5944 19.4565 23.4175C18.7087 23.245 18.0801 23.3559 17.5379 23.5883C16.9691 23.832 16.4874 24.216 16.133 24.5705C15.9605 24.7429 15.831 24.8955 15.7492 24.9984C15.7087 25.0494 15.6808 25.087 15.6663 25.1071L15.6554 25.1224Z" fill="#646464"/>
<path d="M12.8906 25.6641C13.8053 26.2739 15.0397 26.0308 15.6554 25.1224L15.6663 25.1071C15.6808 25.087 15.7087 25.0494 15.7492 24.9984C15.831 24.8955 15.9605 24.7429 16.133 24.5705C16.4874 24.216 16.9691 23.832 17.5379 23.5883C18.0801 23.3559 18.7087 23.245 19.4565 23.4175C20.2228 23.5944 21.2795 24.1079 22.5858 25.4142C24.2795 27.1079 25.9728 28.0944 27.644 28.48C29.3337 28.8699 30.8301 28.6059 32.0378 28.0883C33.2191 27.582 34.1124 26.841 34.6955 26.258C35.0527 25.9007 35.3644 25.5144 35.6641 25.1094C36.2768 24.1904 36.0285 22.9486 35.1094 22.3359C34.1947 21.7261 32.9603 21.9692 32.3446 22.8776L32.3337 22.8929C32.3192 22.913 32.2913 22.9506 32.2508 23.0016C32.169 23.1045 32.0395 23.2571 31.867 23.4295C31.5126 23.784 31.0309 24.168 30.4621 24.4117C29.9199 24.6441 29.2913 24.755 28.5435 24.5825C27.7772 24.4056 26.7205 23.8921 25.4142 22.5858C23.7205 20.8921 22.0272 19.9056 20.356 19.52C18.6663 19.13 17.1699 19.3941 15.9622 19.9117C14.7809 20.418 13.8876 21.159 13.3045 21.742C13.0082 22.0383 12.7784 22.3076 12.618 22.5094C12.5374 22.6107 12.4986 22.6608 12.4265 22.7611C12.3905 22.8112 12.3359 22.8906 12.3359 22.8906C11.7232 23.8096 11.9715 25.0514 12.8906 25.6641Z" fill="#646464"/>
</svg>
