<svg width="48" height="48" viewBox="0 0 48 48" fill="none" xmlns="http://www.w3.org/2000/svg">
<path fill-rule="evenodd" clip-rule="evenodd" d="M13.7982 4.66732C16.8755 4.38797 20.4457 4.24999 24.0005 4.25C27.555 4.25001 31.1251 4.38798 34.2023 4.6673C36.9352 4.91537 39.0899 7.06892 39.3065 9.82152C39.8983 17.3414 39.8989 30.6594 39.3067 38.1792C39.09 40.9316 36.9354 43.0846 34.203 43.3326C28.0737 43.889 19.9288 43.889 13.7987 43.3326C11.0659 43.0846 8.91116 40.9311 8.69453 38.1784C8.10272 30.6586 8.10233 17.341 8.69423 9.82117C8.91088 7.06865 11.0655 4.91538 13.7982 4.66732ZM22.0003 8.26505C19.2266 8.30694 16.5257 8.43617 14.1598 8.65094C13.3515 8.72432 12.7442 9.34299 12.6819 10.135C12.1065 17.4458 12.1068 30.5535 12.6822 37.8646C12.7445 38.6568 13.3519 39.2756 14.1603 39.349C16.5344 39.5644 19.2356 39.6931 22.0002 39.7348L22 36.0001C21.9999 34.8955 22.8953 34.0001 23.9999 34C25.1045 33.9999 25.9999 34.8953 26 35.9999L26.0002 39.7349C28.7654 39.6931 31.4671 39.5645 33.8413 39.349C34.6496 39.2756 35.2567 38.6571 35.3191 37.8652C35.8948 30.5545 35.8942 17.4466 35.3188 10.1353C35.2565 9.34308 34.6491 8.7243 33.8407 8.65093C31.4748 8.43616 28.7739 8.30694 26.0003 8.26505L26 12.0002C25.9999 13.1047 25.1044 14.0001 23.9998 14C22.8953 13.9999 21.9999 13.1044 22 11.9998L22.0003 8.26505ZM24 17C25.1046 17 26 17.8954 26 19V22H29C30.1046 22 31 22.8954 31 24C31 25.1046 30.1046 26 29 26H26V29C26 30.1046 25.1046 31 24 31C22.8954 31 22 30.1046 22 29V26H19C17.8954 26 17 25.1046 17 24C17 22.8954 17.8954 22 19 22H22V19C22 17.8954 22.8954 17 24 17Z" fill="#646464"/>
</svg>
