<svg width="48" height="48" viewBox="0 0 48 48" fill="none" xmlns="http://www.w3.org/2000/svg">
<path fill-rule="evenodd" clip-rule="evenodd" d="M3.2832 27.3903C1.57227 25.4103 1.57227 22.5917 3.2832 20.6118C5.05401 18.5625 7.76708 15.5839 11.675 11.676C15.5828 7.76806 18.5615 5.05498 20.6107 3.28418C22.5907 1.57324 25.4093 1.57324 27.3893 3.28418C29.4385 5.055 32.4172 7.76806 36.325 11.676C40.2329 15.5839 42.9461 18.5624 44.7169 20.6118C46.4278 22.5917 46.4278 25.4103 44.7169 27.3903C42.9461 29.4395 40.2329 32.4182 36.325 36.326C32.4172 40.2339 29.4385 42.947 27.3893 44.7178C25.4093 46.4287 22.5907 46.4287 20.6107 44.7178C18.5615 42.947 15.5828 40.2339 11.675 36.326C7.76708 32.4182 5.05401 29.4395 3.2832 27.3903ZM34.3475 17.6269C35.1236 18.403 35.1236 19.6612 34.3475 20.4372L22.4246 32.3602C21.6485 33.1362 20.3903 33.1362 19.6143 32.3602L13.6528 26.3987C12.8768 25.6227 12.8768 24.3645 13.6528 23.5884C14.4289 22.8124 15.6871 22.8124 16.4631 23.5884L21.0194 28.1448L31.5373 17.6269C32.3133 16.8509 33.5715 16.8509 34.3475 17.6269Z" fill="#646464"/>
</svg>
