<svg width="48" height="48" viewBox="0 0 48 48" fill="none" xmlns="http://www.w3.org/2000/svg">
<g clip-path="url(#clip0_8021_2211)">
<path d="M11.5824 36.2717C11.6128 36.7843 11.6436 37.2542 11.6741 37.6826C11.8218 39.7611 13.467 41.3968 15.6924 41.5908C18.0733 41.7985 21.6635 42 26.6295 42C31.5956 42 35.1857 41.7985 37.5667 41.5908C39.792 41.3968 41.4373 39.7611 41.585 37.6826C41.7807 34.9294 41.9925 30.4575 41.9925 24C41.9925 17.5425 41.7807 13.0706 41.585 10.3174C41.4373 8.23886 39.792 6.60318 37.5667 6.40913C35.1858 6.20152 31.5957 6 26.6295 6C21.6635 6 18.0734 6.20152 15.6924 6.40912C13.467 6.60317 11.8218 8.23884 11.6741 10.3174C11.6437 10.7457 11.6128 11.2157 11.5824 11.7283M11.3693 27.8222C11.3852 26.0058 11.3253 21.8254 11.3686 20.3664" stroke="#646464" stroke-width="2" stroke-linecap="round" stroke-linejoin="round"/>
<path d="M12.96 19.9764C14.62 19.9357 15.939 19.0379 15.9895 17.6152C15.9963 17.4253 16 17.2206 16 17C16 16.7795 15.9963 16.5748 15.9895 16.3848C15.939 14.9621 14.62 14.0643 12.96 14.0237C12.3829 14.0096 11.725 14 11 14C10.2751 14 9.61712 14.0096 9.03997 14.0237C7.38 14.0643 6.06092 14.9621 6.01046 16.3848C6.00372 16.5748 6 16.7795 6 17C6 17.2206 6.00372 17.4253 6.01046 17.6152C6.06092 19.0379 7.38 19.9357 9.03997 19.9764C9.61712 19.9905 10.275 20 11 20C11.7251 20 12.3829 19.9905 12.96 19.9764Z" stroke="#646464" stroke-width="2"/>
<path d="M12.96 33.9764C14.62 33.9357 15.939 33.0379 15.9895 31.6152C15.9963 31.4253 16 31.2206 16 31C16 30.7795 15.9963 30.5748 15.9895 30.3848C15.939 28.9621 14.62 28.0643 12.96 28.0237C12.3829 28.0096 11.725 28 11 28C10.2751 28 9.61712 28.0096 9.03997 28.0237C7.38 28.0643 6.06092 28.9621 6.01046 30.3848C6.00372 30.5748 6 30.7795 6 31C6 31.2206 6.00372 31.4253 6.01046 31.6152C6.06092 33.0379 7.38 33.9357 9.03997 33.9764C9.61712 33.9905 10.275 34 11 34C11.7251 34 12.3829 33.9905 12.96 33.9764Z" stroke="#646464" stroke-width="2"/>
<path d="M22.0002 18.893C21.9888 19.5016 22.3837 20 22.8728 20H33.1271C33.6163 20 34.0112 19.5016 33.9998 18.893C33.9721 17.4313 33.9295 16.3339 33.8917 15.5762C33.8535 14.8124 33.3763 14.2185 32.7626 14.171C31.7613 14.0935 30.0215 14 28.0001 14C25.9785 14 24.2387 14.0935 23.2374 14.171C22.6236 14.2185 22.1465 14.8124 22.1083 15.5762C22.0705 16.3339 22.0278 17.4313 22.0002 18.893Z" stroke="#646464" stroke-width="2" stroke-linecap="round" stroke-linejoin="round"/>
</g>
<defs>
<clipPath id="clip0_8021_2211">
<rect width="24" height="24" fill="white" transform="scale(2)"/>
</clipPath>
</defs>
</svg>
