<svg width="48" height="48" viewBox="0 0 48 48" fill="none" xmlns="http://www.w3.org/2000/svg">
<path d="M37.1531 19.5424C36.0518 20.4009 34.6323 20.0063 34.4247 18.7364C34.2001 17.3617 34 15.2309 34 11.9997C34 8.76917 34.1999 6.63846 34.4246 5.26376C34.6322 3.99371 36.052 3.59898 37.1537 4.45784C37.9445 5.07439 38.9715 5.92447 40.2571 7.07983C41.805 8.47053 42.7903 9.56664 43.4117 10.3677C44.1962 11.3789 44.1961 12.6205 43.4116 13.6316C42.7902 14.4327 41.8049 15.5288 40.2571 16.9196C38.9712 18.0754 37.9441 18.9257 37.1531 19.5424Z" fill="#646464"/>
<path d="M34 11.9997V14H30.5737C29.1057 14 27.7557 14.8041 27.0565 16.0949L17.4607 33.8103C16.0623 36.3918 13.3623 38 10.4263 38H6C4.89543 38 4 37.1046 4 36C4 34.8954 4.89543 34 6 34H10.4263C11.8943 34 13.2443 33.1959 13.9435 31.9051L23.5393 14.1897C24.9377 11.6082 27.6377 10 30.5737 10H34V11.9997Z" fill="#646464"/>
<path fill-rule="evenodd" clip-rule="evenodd" d="M27.0565 31.9051C27.7557 33.1959 29.1057 34 30.5737 34H34V36.0003V38H30.5737C27.6377 38 24.9377 36.3918 23.5393 33.8103L21.8874 30.7605L24.1907 26.6144L27.0565 31.9051ZM34 36.0003C34 32.7691 34.2001 30.6383 34.4247 29.2636C34.6323 27.9937 36.0518 27.5991 37.1531 28.4576C37.9441 29.0743 38.9712 29.9246 40.2571 31.0804C41.8049 32.4712 42.7902 33.5673 43.4116 34.3684C44.1961 35.3795 44.1962 36.6211 43.4117 37.6323C42.7903 38.4334 41.805 39.5295 40.2571 40.9202C38.9715 42.0755 37.9445 42.9256 37.1537 43.5422C36.052 44.401 34.6322 44.0063 34.4246 42.7362C34.1999 41.3615 34 39.2308 34 36.0003Z" fill="#646464"/>
<path d="M19.1011 17.2183L16.7978 21.3643L13.9435 16.0949C13.2443 14.8041 11.8943 14 10.4263 14H6C4.89543 14 4 13.1046 4 12C4 10.8954 4.89543 10 6 10H10.4263C13.3623 10 16.0623 11.6082 17.4607 14.1897L19.1011 17.2183Z" fill="#646464"/>
</svg>
