<svg width="48" height="48" viewBox="0 0 48 48" fill="none" xmlns="http://www.w3.org/2000/svg">
<path fill-rule="evenodd" clip-rule="evenodd" d="M3.0625 24.0007C3.06251 26.7444 3.10709 28.7663 3.17593 30.4014C3.26717 32.8256 3.4014 34.7358 3.53278 36.1727C3.81516 39.2608 6.4351 41.363 9.42468 41.5788C10.1139 41.6285 11.262 41.6784 12.6194 41.7254C15.8484 41.8788 20.2273 42.0001 24 42.0001C30.3506 42.0001 35.8214 41.7617 38.6558 41.5314C41.8228 41.2741 44.2741 38.8228 44.5314 35.6558L44.5776 35.0917C44.7899 32.5106 45 29.9562 45 24C45 18.0438 44.7899 15.4894 44.5777 12.9084L44.5314 12.3442C44.2741 9.17717 41.8228 6.72584 38.6558 6.46853C35.8214 6.23823 30.3505 6.00012 24 6.00012C20.1968 6.00012 15.7774 6.12344 12.5412 6.27854C11.2179 6.32489 10.1006 6.37388 9.42464 6.42268C6.43506 6.6385 3.81516 8.74065 3.53278 11.8288C3.4016 13.2635 3.26757 15.17 3.17634 17.5891C3.10726 19.2261 3.0625 21.2512 3.0625 24.0007ZM23 37.9974V10.0029C23.3371 10.0011 23.6708 10.0001 24 10.0001C30.2735 10.0001 35.6322 10.236 38.3319 10.4554C39.5454 10.554 40.446 11.4546 40.5446 12.6681L40.5916 13.2419C40.7989 15.7602 41 18.2029 41 24C41 29.7971 40.7989 32.2398 40.5916 34.7581L40.5446 35.3318C40.446 36.5454 39.5454 37.446 38.3319 37.5445C35.6322 37.7639 30.2734 38.0001 24 38.0001C23.6708 38.0001 23.3371 37.9992 23 37.9974ZM8.9375 16C8.9375 15.1716 9.60907 14.5 10.4375 14.5L15.5 14.5C16.3284 14.5 17 15.1716 17 16C17 16.8284 16.3284 17.5 15.5 17.5L10.4375 17.5C9.60907 17.5 8.9375 16.8284 8.9375 16ZM10.4287 20.5C9.60027 20.5051 8.93286 21.1808 8.93797 22.0092C8.94308 22.8377 9.61879 23.5051 10.4472 23.5L15.5097 23.4687C16.3381 23.4636 17.0055 22.7879 17.0004 21.9595C16.9953 21.1311 16.3196 20.4637 15.4912 20.4688L10.4287 20.5Z" fill="#646464"/>
</svg>
