<svg width="48" height="48" viewBox="0 0 48 48" fill="none" xmlns="http://www.w3.org/2000/svg">
<path fill-rule="evenodd" clip-rule="evenodd" d="M36.8206 13.0872C37.6152 12.3199 38.8813 12.342 39.6486 13.1366C45.4498 19.1439 45.4498 28.8557 39.6486 34.8631C38.8813 35.6576 37.6152 35.6797 36.8206 34.9124C36.0261 34.1451 36.004 32.879 36.7713 32.0844C41.0756 27.6271 41.0756 20.3725 36.7713 15.9152C36.004 15.1206 36.0261 13.8545 36.8206 13.0872Z" fill="#646464"/>
<path fill-rule="evenodd" clip-rule="evenodd" d="M11.9597 34.1181C13.3466 36.2258 14.7743 37.7791 16.3541 39.0016C18.1786 40.4134 20.1142 41.3109 22.1854 42.1335C24.8465 43.1903 27.4162 41.2384 27.6308 38.669C27.8608 35.9149 28.1536 31.0291 28.1536 24.013C28.1536 16.9969 27.8608 12.1117 27.6308 9.35758C27.4162 6.78821 24.8465 4.8362 22.1855 5.89304C20.1142 6.71567 18.1786 7.61316 16.3541 9.02497C14.7743 10.2475 13.3466 11.8008 11.9597 13.9084C11.7674 13.897 11.5599 13.8875 11.3414 13.8816C10.3163 13.8538 8.81286 13.8954 7.52755 14.3368C5.93149 14.8849 4.78661 16.2503 4.50536 17.8991C4.27243 19.2646 4 21.4148 4 24.013C4 26.6111 4.27242 28.7618 4.50536 30.1274C4.78661 31.7762 5.93149 33.1416 7.52755 33.6897C8.81286 34.1311 10.3163 34.1727 11.3414 34.145C11.5599 34.1391 11.7674 34.1296 11.9597 34.1181ZM18.8021 12.1884C20.1767 11.1247 21.6941 10.3935 23.6292 9.62357C23.6352 9.63705 23.642 9.65841 23.6447 9.69038C23.8654 12.3342 24.1536 17.1084 24.1536 24.013C24.1536 30.9176 23.8654 35.6923 23.6447 38.3362C23.642 38.3681 23.6352 38.3895 23.6292 38.403C21.6941 37.633 20.1767 36.9018 18.8021 35.8381C17.4327 34.7784 16.1129 33.3156 14.714 30.984C14.2997 30.2935 13.5112 29.9189 12.7142 30.0334C12.581 30.0514 12.4473 30.0659 12.3136 30.0789C12.0422 30.1054 11.6622 30.1348 11.2331 30.1464C10.3135 30.1714 9.40589 30.1055 8.82659 29.9065C8.62852 29.8385 8.48614 29.6761 8.44841 29.4548C8.24449 28.2594 8 26.3384 8 24.013C8 21.6876 8.24448 19.7672 8.4484 18.5717C8.48614 18.3505 8.62866 18.188 8.82673 18.12C9.40603 17.921 10.3135 17.8552 11.2331 17.8801C11.6622 17.8917 12.0422 17.9211 12.3136 17.9476C12.448 17.9607 12.5827 17.9743 12.7164 17.9935C13.5128 18.1072 14.3 17.7326 14.714 17.0425C16.1129 14.711 17.4327 13.2481 18.8021 12.1884Z" fill="#646464"/>
<path fill-rule="evenodd" clip-rule="evenodd" d="M30.9862 18.9342C31.6909 18.0835 32.9517 17.9652 33.8023 18.6699C35.4878 20.0663 36.4212 21.9869 36.4212 23.9996C36.4212 26.0124 35.4878 27.933 33.8023 29.3293C32.9517 30.034 31.6909 29.9157 30.9862 29.0651C30.2816 28.2145 30.3999 26.9537 31.2505 26.2491C32.0913 25.5525 32.4212 24.73 32.4212 23.9996C32.4212 23.2693 32.0913 22.4468 31.2505 21.7502C30.3999 21.0455 30.2816 19.7848 30.9862 18.9342Z" fill="#646464"/>
</svg>
