<svg width="48" height="48" viewBox="0 0 48 48" fill="none" xmlns="http://www.w3.org/2000/svg">
<path d="M31.8284 29.3662L35.572 31.238C36.8057 31.8548 37.4738 33.221 37.2033 34.5735C36.2065 39.5577 32.1327 43.4617 27.1513 42.4507C22.7702 41.5614 17.2938 39.3998 12.2909 34.3969C7.32759 29.4336 5.16073 24.0042 4.2585 19.6405C3.2166 14.6013 7.17091 10.4732 12.2167 9.46405C13.5236 9.20267 14.8512 9.80689 15.5124 10.9641L17.0312 13.622C17.9773 15.2776 17.6982 17.3615 16.3499 18.7098L16.0427 19.017C15.0225 20.0372 14.5859 21.5153 15.1447 22.8454C15.7727 24.34 16.8613 26.3498 18.6336 28.0543C20.3824 29.7362 22.3575 30.8234 23.827 31.4737C25.1287 32.0497 26.5905 31.5398 27.4446 30.401C28.4638 29.0421 30.309 28.6065 31.8284 29.3662Z" fill="#646464"/>
<path fill-rule="evenodd" clip-rule="evenodd" d="M43.0668 5.58579C43.8479 6.36683 43.8479 7.63317 43.0668 8.41421L32.8168 18.6642C32.0358 19.4453 30.7695 19.4453 29.9884 18.6642L25.3293 14.0051C24.5483 13.2241 24.5483 11.9577 25.3293 11.1767C26.1104 10.3956 27.3767 10.3956 28.1577 11.1767L31.4026 14.4216L40.2384 5.58579C41.0195 4.80474 42.2858 4.80474 43.0668 5.58579Z" fill="#646464"/>
</svg>
