<svg width="48" height="48" viewBox="0 0 48 48" fill="none" xmlns="http://www.w3.org/2000/svg">
<path fill-rule="evenodd" clip-rule="evenodd" d="M23.9999 4C25.1045 4 25.9999 4.89543 25.9999 6V13.1716L28.5858 10.5858C29.3668 9.80473 30.6332 9.80474 31.4142 10.5858C32.1953 11.3669 32.1953 12.6332 31.4142 13.4142L25.4141 19.4142C25.039 19.7893 24.5303 20 23.9999 20C23.4695 20 22.9608 19.7893 22.5857 19.4142L16.5858 13.4142C15.8047 12.6332 15.8047 11.3668 16.5858 10.5858C17.3669 9.80473 18.6332 9.80474 19.4142 10.5858L21.9999 13.1715V6C21.9999 4.89543 22.8953 4 23.9999 4ZM6 24C6 22.8954 6.89543 22 8 22H40C41.1046 22 42 22.8954 42 24C42 25.1046 41.1046 26 40 26H8C6.89543 26 6 25.1046 6 24ZM23.9999 28C24.5303 28 25.039 28.2107 25.4141 28.5858L31.4142 34.5858C32.1953 35.3668 32.1953 36.6331 31.4142 37.4142C30.6332 38.1953 29.3668 38.1953 28.5858 37.4142L25.9999 34.8284V42C25.9999 43.1046 25.1045 44 23.9999 44C22.8953 44 21.9999 43.1046 21.9999 42V34.8285L19.4142 37.4142C18.6332 38.1953 17.3669 38.1953 16.5858 37.4142C15.8047 36.6332 15.8047 35.3668 16.5858 34.5858L22.5857 28.5858C22.9608 28.2107 23.4695 28 23.9999 28Z" fill="#646464"/>
</svg>
