<svg width="48" height="48" viewBox="0 0 48 48" fill="none" xmlns="http://www.w3.org/2000/svg">
<path d="M25.4142 6.58579C24.6332 5.80474 23.3668 5.80474 22.5858 6.58579L14.5858 14.5858C13.8047 15.3668 13.8047 16.6332 14.5858 17.4142C15.3668 18.1953 16.6332 18.1953 17.4142 17.4142L22 12.8284V32C22 33.1046 22.8954 34 24 34C25.1046 34 26 33.1046 26 32V12.8284L30.5858 17.4142C31.3668 18.1953 32.6332 18.1953 33.4142 17.4142C34.1953 16.6332 34.1953 15.3668 33.4142 14.5858L25.4142 6.58579Z" fill="#646464"/>
<path d="M7.52 38.08C6.64 38.12 6 38.72 6 39.58V40.42C6.02 41.28 6.64 41.88 7.52 41.92C8.32 41.96 22.12 42 24 42C25.88 42 39.7 41.96 40.48 41.92C41.36 41.88 42 41.28 42 40.42V39.58C41.98 38.72 41.36 38.12 40.48 38.08C39.68 38.04 25.88 38 24 38C22.12 38 8.3 38.04 7.52 38.08Z" fill="#646464"/>
</svg>
