<svg width="48" height="48" viewBox="0 0 48 48" fill="none" xmlns="http://www.w3.org/2000/svg">
<path fill-rule="evenodd" clip-rule="evenodd" d="M7.78003 27.38C9.22003 27.5 11.46 27.64 13.98 27.64H14C16.52 27.64 18.76 27.5 20.2 27.38C21.44 27.28 22.56 26.66 23.26 25.68C23.9 24.78 24.12 23.64 23.86 22.56C23.32 20.4 22.12 18.46 20.48 17.06C21.52 15.66 22.12 13.96 22.12 12.14C22.12 7.66 18.48 4 13.98 4C9.48003 4 5.84003 7.66 5.86003 12.14C5.86003 13.96 6.44003 15.66 7.50003 17.06C5.86003 18.48 4.66003 20.4 4.12003 22.56C3.86003 23.64 4.08003 24.78 4.72003 25.68C5.42003 26.66 6.54003 27.28 7.78003 27.38ZM10.3642 23.5495C9.50938 23.5234 8.74431 23.5 8.10003 23.5H8.02003C8.50003 21.58 9.84003 19.96 11.58 19.16C12.24 18.86 12.7 18.2 12.74 17.48C12.78 16.76 12.42 16.06 11.8 15.66C10.58 14.9 9.86003 13.6 9.86003 12.16C9.86003 9.88 11.72 8.02 14 8.02C16.28 8.02 18.14 9.88 18.14 12.16C18.14 13.58 17.42 14.9 16.2 15.66C15.56 16.04 15.22 16.74 15.26 17.48C15.3 18.2 15.74 18.86 16.42 19.16C18.16 19.94 19.5 21.56 19.86 23.38C18.5 23.48 16.32 23.62 13.98 23.62C12.6727 23.62 11.4464 23.5825 10.3642 23.5495Z" fill="#646464"/>
<path fill-rule="evenodd" clip-rule="evenodd" d="M27.82 43.7399C29.94 43.9199 32.02 43.9999 34.02 43.9999H34.06C36.06 43.9999 38.14 43.9199 40.26 43.7399C41.5 43.6399 42.62 43.0199 43.32 42.0399C43.98 41.1199 44.2 40.0199 43.92 38.9199C43.38 36.7599 42.18 34.8199 40.54 33.4199C41.58 32.0199 42.18 30.3199 42.18 28.4999C42.18 23.9999 38.52 20.3599 34.04 20.3599C29.56 20.3599 25.9 24.0199 25.9 28.4999C25.9 30.3199 26.48 32.0199 27.54 33.4199C25.9 34.8399 24.7 36.7599 24.16 38.9199C23.88 40.0199 24.1 41.1199 24.76 42.0399C25.46 43.0199 26.58 43.6399 27.82 43.7399ZM29.88 28.4999C29.88 26.2199 31.74 24.3599 34.02 24.3599V24.3799C36.3 24.3799 38.16 26.2399 38.16 28.5199C38.16 29.9399 37.44 31.2599 36.22 32.0199C35.58 32.3999 35.24 33.0999 35.28 33.8399C35.34 34.5599 35.78 35.2199 36.46 35.5199C38.2 36.2999 39.52 37.9199 39.9 39.7399C37.92 39.8999 35.92 39.9799 34.02 39.9799C32.8051 39.9799 31.5656 39.9472 30.2755 39.9131C29.548 39.8939 28.8044 39.8743 28.04 39.8599C28.5 37.9399 29.84 36.2999 31.58 35.5199C32.26 35.2199 32.7 34.5799 32.76 33.8399C32.8 33.0999 32.44 32.3999 31.82 31.9999C30.6 31.2399 29.88 29.9399 29.88 28.4999Z" fill="#646464"/>
<path d="M20.0001 37.9999C16.9201 37.9999 13.6601 36.1399 11.7001 33.2399C11.0801 32.3199 11.3201 31.0799 12.2401 30.4599C13.1601 29.8399 14.4001 30.0799 15.0201 30.9999C16.2401 32.7999 18.2401 33.9999 20.0001 33.9999C21.1001 33.9999 22.0001 34.8999 22.0001 35.9999C22.0001 37.0999 21.1001 37.9999 20.0001 37.9999Z" fill="#646464"/>
<path d="M31.88 16.86C32.28 17.4 32.9 17.7 33.52 17.7V17.68C33.92 17.68 34.32 17.56 34.68 17.32C35.58 16.68 35.8 15.44 35.16 14.54C33.16 11.74 30.04 10 27 10C25.9 10 25 10.9 25 12C25 13.1 25.9 14 27 14C28.72 14 30.64 15.12 31.88 16.86Z" fill="#646464"/>
</svg>
