<svg width="48" height="48" viewBox="0 0 48 48" fill="none" xmlns="http://www.w3.org/2000/svg">
<path d="M36.8192 7.33892C38.8999 7.50797 40.4921 9.10014 40.6611 11.1809C40.8747 13.8096 41.1001 18.0036 41.1001 24C41.1001 29.9965 40.8747 34.1905 40.6611 36.8192C40.4921 38.8999 38.8999 40.4921 36.8192 40.6611C34.1905 40.8747 29.9965 41.1001 24 41.1001C18.0036 41.1001 13.8096 40.8747 11.1809 40.6611C9.10015 40.4921 7.50798 38.8999 7.33892 36.8192C7.12535 34.1905 6.90005 29.9965 6.90005 24C6.90005 18.0036 7.12534 13.8096 7.33892 11.1809C7.50797 9.10015 9.10014 7.50798 11.1809 7.33892C13.8096 7.12535 18.0036 6.90005 24 6.90005C29.9965 6.90005 34.1905 7.12534 36.8192 7.33892Z" fill="#6647F0"/>
<path fill-rule="evenodd" clip-rule="evenodd" d="M7.33892 36.8192C7.12535 34.1905 6.90005 29.9965 6.90005 24C6.90005 18.0036 7.12534 13.8096 7.33892 11.1809C7.50797 9.10015 9.10014 7.50798 11.1809 7.33892C13.8096 7.12535 18.0036 6.90005 24 6.90005C29.9965 6.90005 34.1905 7.12534 36.8192 7.33892C38.8999 7.50797 40.4921 9.10014 40.6611 11.1809C40.8747 13.8096 41.1001 18.0036 41.1001 24C41.1001 29.9965 40.8747 34.1905 40.6611 36.8192C40.4921 38.8999 38.8999 40.4921 36.8192 40.6611C34.1905 40.8747 29.9965 41.1001 24 41.1001C18.0036 41.1001 13.8096 40.8747 11.1809 40.6611C9.10015 40.4921 7.50798 38.8999 7.33892 36.8192ZM37.05 4.49828C40.5226 4.78041 43.2197 7.4775 43.5018 10.9501C43.7221 13.6612 43.9501 17.9325 43.9501 24C43.9501 30.0676 43.7221 34.3389 43.5018 37.05C43.2197 40.5226 40.5226 43.2197 37.05 43.5018C34.3389 43.7221 30.0676 43.9501 24 43.9501C17.9325 43.9501 13.6612 43.7221 10.9501 43.5018C7.47748 43.2197 4.78042 40.5226 4.49828 37.05C4.27801 34.3389 4.05005 30.0676 4.05005 24C4.05005 17.9325 4.278 13.6612 4.49828 10.9501C4.78041 7.4775 7.4775 4.78042 10.9501 4.49828C13.6612 4.27801 17.9325 4.05005 24 4.05005C30.0676 4.05005 34.3389 4.278 37.05 4.49828Z" fill="#6647F0"/>
<path fill-rule="evenodd" clip-rule="evenodd" d="M22.9765 12.6033C22.5016 12.5909 22.0107 12.616 21.6217 12.6462C21.045 12.691 20.568 13.08 20.3797 13.6157C19.9225 14.9165 19.4674 16.2979 19.0236 17.7074C17.6925 17.7425 16.6478 17.7805 15.9861 17.8072C15.3933 17.8311 14.8753 18.2011 14.6585 18.7525C14.3363 19.5718 14.1511 20.1003 14.0452 20.442C13.9715 20.6794 13.9916 20.9216 14.1442 21.1078C14.2913 21.2871 14.5193 21.3624 14.7526 21.368C15.7958 21.3927 16.8477 21.4119 17.8944 21.4265C17.3714 23.2074 16.8789 24.9621 16.4356 26.5874C15.3832 26.6021 14.538 26.6171 13.9633 26.6282C13.3401 26.6402 12.7948 27.0341 12.581 27.6171C12.4018 28.1059 12.2658 28.4879 12.1626 28.7863C12.0397 29.1412 12.082 29.4933 12.2751 29.7642C12.467 30.0333 12.7853 30.1909 13.1546 30.2066C13.9228 30.2393 14.689 30.2666 15.4488 30.2893C15.0324 31.8877 14.7071 33.1829 14.5044 34.0012C14.3402 34.6642 14.7496 35.372 15.4924 35.3954C15.9584 35.4101 16.4435 35.3875 16.8353 35.3583C17.4494 35.3127 17.9458 34.8771 18.1124 34.2994L19.247 30.3672C21.3362 30.3917 23.3145 30.3863 25.0815 30.3656L24.0445 33.9595C23.8495 34.6355 24.2592 35.3767 25.026 35.3968C25.5008 35.4092 25.9918 35.3841 26.3807 35.3539C26.9575 35.3091 27.4345 34.9201 27.6228 34.3844C28.08 33.0833 28.5353 31.7015 28.9792 30.2916C30.3093 30.2564 31.3531 30.2184 32.0144 30.1918C32.6073 30.1679 33.1252 29.7979 33.3421 29.2465C33.6642 28.4272 33.8494 27.8987 33.9554 27.557C34.029 27.3196 34.009 27.0774 33.8563 26.8912C33.7093 26.7119 33.4812 26.6366 33.248 26.631C32.2055 26.6064 31.1543 26.5871 30.1084 26.5725C30.6314 24.7916 31.1238 23.0369 31.5671 21.4116C32.6185 21.3968 33.4629 21.3819 34.0373 21.3708C34.6604 21.3587 35.2058 20.9649 35.4195 20.3819C35.5987 19.8931 35.7347 19.5111 35.838 19.2127C35.9608 18.8578 35.9186 18.5057 35.7254 18.2348C35.5336 17.9657 35.2153 17.808 34.8459 17.7923C34.0784 17.7598 33.313 17.7325 32.5539 17.7098C32.9702 16.1119 33.2954 14.8171 33.4981 13.9989C33.6623 13.3359 33.2528 12.6281 32.5101 12.6047C32.0441 12.59 31.5589 12.6127 31.1672 12.6418C30.553 12.6874 30.0567 13.123 29.89 13.7007L28.7557 17.6319C26.6666 17.6073 24.6883 17.6128 22.9212 17.6334L23.9579 14.0406C24.153 13.3646 23.7433 12.6234 22.9765 12.6033ZM20.3495 26.5462L21.8166 21.4617C23.9001 21.4709 25.8865 21.4653 27.6532 21.4528L26.1862 26.5372C24.1027 26.5281 22.1164 26.5337 20.3495 26.5462Z" fill="white"/>
</svg>
