<svg width="48" height="48" viewBox="0 0 48 48" fill="none" xmlns="http://www.w3.org/2000/svg">
<path d="M26.4639 4.06836C27.2812 4.0807 28.1892 4.22686 29.082 4.62628C30.5379 5.27761 33.3337 6.76184 36.1203 9.54842C38.828 12.2562 40.3059 14.9724 40.9845 16.4583C41.3969 17.3614 41.5526 18.2825 41.57 19.1172C41.6007 20.5903 41.6187 22.2154 41.6187 24C41.6187 30.2627 41.3968 34.5587 41.1845 37.2363C40.9171 40.6096 38.305 43.2456 34.9284 43.5348C32.5178 43.7413 28.875 43.9501 24.0005 43.9501C19.126 43.9501 15.4833 43.7413 13.0727 43.5349C9.696 43.2456 7.08392 40.6096 6.81647 37.2362C6.60418 34.5586 6.38232 30.2627 6.38232 24C6.38232 17.7374 6.60418 13.4415 6.81647 10.7638C7.08392 7.39047 9.69595 4.75446 13.0727 4.46526C15.4833 4.2588 19.126 4.05005 24.0005 4.05005C24.8599 4.05005 25.6811 4.05654 26.4639 4.06836Z" fill="#0091FF"/>
<path fill-rule="evenodd" clip-rule="evenodd" d="M14.089 16.875C14.089 15.6945 15.046 14.7375 16.2265 14.7375H23.9992C25.1797 14.7375 26.1367 15.6945 26.1367 16.875C26.1367 18.0556 25.1797 19.0125 23.9992 19.0125H16.2265C15.046 19.0125 14.089 18.0556 14.089 16.875Z" fill="white"/>
<path fill-rule="evenodd" clip-rule="evenodd" d="M14.089 24.7125C14.089 23.532 15.046 22.5751 16.2265 22.5751H31.772C32.9525 22.5751 33.9095 23.532 33.9095 24.7125C33.9095 25.8931 32.9525 26.85 31.772 26.85H16.2265C15.046 26.85 14.089 25.8931 14.089 24.7125Z" fill="white"/>
<path fill-rule="evenodd" clip-rule="evenodd" d="M14.089 32.5501C14.089 31.3695 15.046 30.4125 16.2265 30.4125H31.772C32.9525 30.4125 33.9095 31.3695 33.9095 32.5501C33.9095 33.7306 32.9525 34.6875 31.772 34.6875H16.2265C15.046 34.6875 14.089 33.7306 14.089 32.5501Z" fill="white"/>
</svg>
