<svg width="48" height="48" viewBox="0 0 48 48" fill="none" xmlns="http://www.w3.org/2000/svg">
<path fill-rule="evenodd" clip-rule="evenodd" d="M37.48 20.5825C40.38 25.9625 42.48 30.5625 43.7 34.2425V34.2225C44.24 35.8625 44.06 37.5025 43.16 38.8625C42.22 40.2825 40.64 41.2025 38.82 41.3825C35.7 41.6825 30.58 42.0425 24 42.0425C17.42 42.0425 12.32 41.6825 9.17999 41.3825C7.33999 41.2025 5.75999 40.2825 4.83999 38.8625C3.95999 37.5025 3.75999 35.8625 4.29999 34.2425C5.51999 30.5625 7.59999 25.9625 10.48 20.5825C14.32 13.5025 17.46 8.94252 19.44 6.38252C20.58 4.92252 22.22 4.08252 23.98 4.08252C25.74 4.08252 27.4 4.92252 28.52 6.38252C30.5 8.94252 33.66 13.4825 37.48 20.5825ZM24 26.8826C25.1 26.8826 26 25.9826 26 24.8826V16.8826C26 15.7826 25.1 14.8826 24 14.8826C22.9 14.8826 22 15.7826 22 16.8826V24.8826C22 25.9826 22.9 26.8826 24 26.8826ZM24 35.3826C25.3807 35.3826 26.5 34.2633 26.5 32.8826C26.5 31.5019 25.3807 30.3826 24 30.3826C22.6193 30.3826 21.5 31.5019 21.5 32.8826C21.5 34.2633 22.6193 35.3826 24 35.3826Z" fill="#FFC53D"/>
</svg>
