<svg width="48" height="48" viewBox="0 0 48 48" fill="none" xmlns="http://www.w3.org/2000/svg">
<path d="M26.58 29.42C26.98 29.8 27.48 30 28 30C28.52 30 29.02 29.82 29.42 29.42C30.2 28.64 30.2 27.38 29.42 26.6L26 23.18V18C26 16.9 25.1 16 24 16C22.9 16 22 16.9 22 18V24C22 24.54 22.2 25.04 22.58 25.42L26.58 29.42Z" fill="#646464"/>
<path fill-rule="evenodd" clip-rule="evenodd" d="M33.0196 8.94012L33.8811 14.0912C36.4243 16.6272 38 20.133 38 24C38 27.8767 36.4164 31.3903 33.862 33.9279L33.0397 38.8798C32.4597 41.5398 30.7797 43.3398 28.6597 43.6798C27.3197 43.8998 25.7397 44.0198 23.9997 44.0198V43.9998C22.2397 43.9998 20.6797 43.8798 19.3397 43.6598C17.2197 43.3198 15.5397 41.5198 14.9797 38.9598L14.1416 33.9315C11.5851 31.3936 10 27.8786 10 24C10 20.1458 11.5653 16.6505 14.0936 14.1164L14.9396 9.04012C15.5396 6.44012 17.1996 4.68012 19.3196 4.34012C22.0196 3.88012 25.9796 3.88012 28.6796 4.34012C30.7996 4.68012 32.4596 6.44012 33.0196 8.94012ZM24 38C25.8785 38 27.6717 37.6282 29.3099 36.9543L29.1197 38.0998C28.9397 38.9798 28.4797 39.6398 28.0197 39.7198C25.7597 40.0998 22.2397 40.0998 19.9797 39.7198C19.5197 39.6398 19.0797 38.9798 18.8997 38.1998L18.693 36.9555C20.3305 37.6286 22.1227 38 24 38ZM24 10C22.1062 10 20.2991 10.3779 18.65 11.0623L18.8596 9.80012C19.0596 8.96012 19.4796 8.36012 19.9396 8.28012C22.2396 7.90012 25.7396 7.90012 28.0196 8.28012C28.4796 8.34012 28.9196 8.96012 29.0796 9.68012L29.307 11.0446C27.6696 10.3714 25.8774 10 24 10ZM24 14C18.48 14 14 18.48 14 24C14 29.52 18.48 34 24 34C29.52 34 34 29.52 34 24C34 18.48 29.52 14 24 14Z" fill="#646464"/>
</svg>
