<svg width="48" height="48" viewBox="0 0 48 48" fill="none" xmlns="http://www.w3.org/2000/svg">
<path d="M10.5756 8.54962C13.2714 8.33059 17.6115 8.09639 23.8449 8.09639C30.0783 8.09639 34.4184 8.33058 37.1142 8.54961C38.2947 8.64553 39.1693 9.52015 39.2652 10.7006C39.3728 12.0254 39.5182 15.3334 39.638 18.3662C39.6974 19.8704 39.7498 21.289 39.7874 22.3318C39.8062 22.8531 39.8213 23.2804 39.8316 23.5771L39.8476 24.0396C39.8862 25.1701 40.8339 26.0554 41.9645 26.0169C43.095 25.9783 43.9801 25.0286 43.9416 23.898L43.9255 23.434C43.9151 23.136 43.9 22.7073 43.8811 22.1843C43.8434 21.1385 43.7908 19.7149 43.7312 18.2046C43.6129 15.2086 43.4643 11.7991 43.3481 10.3689C43.0897 7.18787 40.6269 4.72514 37.4459 4.46668C34.6317 4.23803 30.1806 4 23.8449 4C17.5092 4 13.0581 4.23804 10.2439 4.46669C7.06288 4.72514 4.60013 7.18787 4.34168 10.3689C4.11303 13.1831 3.875 17.6342 3.875 23.9699C3.875 30.3056 4.11304 34.7567 4.34169 37.5709C4.60014 40.7519 7.06289 43.2146 10.2439 43.473C11.6875 43.5903 15.1101 43.7065 18.1014 43.7929C19.6124 43.8365 21.0366 43.8731 22.0828 43.8987C22.606 43.9116 23.0349 43.9217 23.3332 43.9286L23.7995 43.9393C24.9304 43.9643 25.8676 43.0678 25.8926 41.9368C25.9176 40.8059 25.0193 39.8688 23.8884 39.8438L23.4281 39.8333C23.1315 39.8265 22.7045 39.8164 22.1834 39.8036C21.141 39.778 19.723 39.7416 18.2196 39.6982C15.1821 39.6105 11.887 39.4967 10.5756 39.3901C9.39516 39.2942 8.52054 38.4196 8.42463 37.2391C8.2056 34.5434 7.97139 30.2033 7.97139 23.9699C7.97139 17.7365 8.20559 13.3964 8.42462 10.7006C8.52053 9.52015 9.39515 8.64553 10.5756 8.54962Z" fill="#646464"/>
<path d="M35.8131 36.259H31.5883C30.4265 36.259 29.476 37.1807 29.476 38.3072C29.476 39.4337 30.4265 40.3554 31.5883 40.3554H35.8131V44.4518C35.8131 45.5783 36.7637 46.5 37.9255 46.5C39.0873 46.5 40.0379 45.5783 40.0379 44.4518V40.3554H44.2626C45.4244 40.3554 46.375 39.4337 46.375 38.3072C46.375 37.1807 45.4244 36.259 44.2626 36.259H40.0379V32.1626C40.0379 31.0361 39.0873 30.1145 37.9255 30.1145C36.7637 30.1145 35.8131 31.0361 35.8131 32.1626V36.259Z" fill="#646464"/>
<path d="M31.1015 14.0744C30.3975 14.2025 29.9816 15.1589 29.9627 16.2451C29.9354 17.8196 29.9037 22.5059 29.9037 26.489C29.9037 28.8207 29.9146 28.6519 29.9291 28.4269C29.9393 28.2676 29.9514 28.0802 29.9627 28.733C29.9816 29.8192 30.3975 30.7755 31.1015 30.9037C31.3431 30.9476 31.6273 30.9766 31.9568 30.9766C32.2863 30.9766 32.5705 30.9476 32.812 30.9037C33.5161 30.7755 33.932 29.8192 33.9508 28.733C33.9622 28.0802 33.9743 28.2676 33.9845 28.4269C33.999 28.6519 34.0099 28.8207 34.0099 26.489C34.0099 22.5059 33.9781 17.8196 33.9508 16.2451C33.932 15.1589 33.5161 14.2024 32.812 14.0744C32.5705 14.0304 32.2863 14.0015 31.9568 14.0015C31.6273 14.0015 31.3431 14.0304 31.1015 14.0744Z" fill="#646464"/>
<path d="M16.6776 24.0357C17.4417 24.0964 17.9252 24.7488 17.9473 25.5149C17.9717 26.3638 17.9961 27.6679 17.9961 29.4922C17.9961 31.3165 17.9717 32.6206 17.9473 33.4695C17.9252 34.2356 17.4417 34.8881 16.6776 34.9488C16.4626 34.9659 16.2171 34.9766 15.9394 34.9766C15.6618 34.9766 15.4162 34.9659 15.2012 34.9488C14.4372 34.8881 13.9537 34.2356 13.9316 33.4695C13.9072 32.6206 13.8828 31.3165 13.8828 29.4922C13.8828 27.6679 13.9072 26.3638 13.9316 25.5149C13.9537 24.7488 14.4372 24.0964 15.2012 24.0357C15.4162 24.0186 15.6618 24.0079 15.9394 24.0079C16.2171 24.0079 16.4626 24.0186 16.6776 24.0357Z" fill="#646464"/>
<path d="M25.8965 20.387C25.8832 19.8875 25.5829 19.4212 24.9994 19.3138C24.7221 19.2627 24.3742 19.2253 23.9498 19.2253C23.5254 19.2253 23.1776 19.2627 22.9002 19.3138C22.3168 19.4212 22.0165 19.8875 22.0031 20.387C21.9746 21.4459 21.9322 23.6104 21.9322 27.101C21.9322 30.5915 21.9746 32.756 22.0031 33.8149C22.0165 34.3145 22.3168 34.7806 22.9002 34.8881C23.1776 34.9392 23.5254 34.9766 23.9498 34.9766C24.3742 34.9766 24.7221 34.9392 24.9994 34.8881C25.5829 34.7806 25.8832 34.3145 25.8966 33.8149C25.9251 32.756 25.9675 30.5915 25.9675 27.101C25.9675 23.6104 25.9251 21.4459 25.8965 20.387Z" fill="#646464"/>
</svg>
