<svg width="48" height="48" viewBox="0 0 48 48" fill="none" xmlns="http://www.w3.org/2000/svg">
<path fill-rule="evenodd" clip-rule="evenodd" d="M30 9.99999L6 10C4.89543 10 4 9.10457 4 8C4 6.89543 4.89543 6 6 6L30 5.99999C31.1046 5.99999 32 6.89542 32 7.99999C32 9.10456 31.1046 9.99999 30 9.99999ZM16 16C16 14.8954 16.8954 14 18 14H42C43.1046 14 44 14.8954 44 16C44 17.1046 43.1046 18 42 18H18C16.8954 18 16 17.1046 16 16ZM4 24C4 22.8955 4.89543 22 6 22H30C31.1046 22 32 22.8955 32 24C32 25.1046 31.1046 26 30 26H6C4.89543 26 4 25.1046 4 24ZM16 32C16 30.8955 16.8954 30 18 30H42C43.1046 30 44 30.8955 44 32C44 33.1046 43.1046 34 42 34H18C16.8954 34 16 33.1046 16 32ZM4 40C4 38.8955 4.89543 38 6 38H30C31.1046 38 32 38.8955 32 40C32 41.1046 31.1046 42 30 42H6C4.89543 42 4 41.1046 4 40Z" fill="#646464"/>
</svg>
