<svg width="48" height="48" viewBox="0 0 48 48" fill="none" xmlns="http://www.w3.org/2000/svg">
<path fill-rule="evenodd" clip-rule="evenodd" d="M12.2198 38.0002C10.8798 38.0002 9.2398 37.9402 7.2798 37.8002C5.6598 37.6802 4.3398 36.3602 4.1998 34.7202C3.8398 30.0402 4.0398 27.2002 4.1998 25.9202C4.3198 24.9602 4.7398 24.0802 5.4598 23.3802L20.3279 8.51205C20.3858 8.43112 20.4499 8.35362 20.5201 8.28019L22.8401 5.96019C24.1321 4.66822 25.7286 4.00019 27.2902 4.0059C28.3046 4.00219 29.3054 4.28242 30.1998 4.86019C31.4998 5.68019 32.7798 6.74019 34.0398 7.98019C35.2998 9.22019 36.3398 10.5202 37.1598 11.8202C38.5998 14.1002 38.1598 17.0402 36.0598 19.1402L18.6398 36.5602C17.9198 37.2802 17.0398 37.7202 16.0998 37.8202C15.3598 37.9002 14.0798 38.0002 12.2398 38.0002H12.2198ZM29.7801 19.7398L15.7998 33.7202C15.7198 33.8002 15.6598 33.8402 15.6198 33.8402C14.5398 33.9602 12.1598 34.1202 8.1598 33.8402C7.8798 29.8602 8.0398 27.4602 8.1598 26.3802C8.1598 26.3402 8.2798 26.2002 8.2798 26.2002L22.2484 12.2315C23.347 12.9663 24.7422 14.0623 26.3401 15.6602C27.9461 17.2523 29.0441 18.6431 29.7801 19.7398ZM33.2516 16.2679C33.2411 16.2788 33.2304 16.2895 33.2198 16.3002L32.66 16.86C31.82 15.7 30.7 14.3401 29.1801 12.8202C27.6851 11.3053 26.3093 10.1877 25.1517 9.3486L25.7001 8.80019C26.2801 8.24019 27.2401 7.72019 28.0401 8.24019C29.1001 8.90019 30.1601 9.78019 31.2001 10.8202C32.7601 12.3602 33.4601 13.8202 33.7801 14.7802C33.9655 15.3531 33.5262 15.9686 33.2516 16.2679ZM42 44H6C4.9 44 4 43.1 4 42C4 40.9 4.9 40 6 40H42C43.1 40 44 40.9 44 42C44 43.1 43.1 44 42 44Z" fill="#646464"/>
</svg>
