<svg width="48" height="48" viewBox="0 0 48 48" fill="none" xmlns="http://www.w3.org/2000/svg">
<path fill-rule="evenodd" clip-rule="evenodd" d="M32.0002 10.0003C28.6864 10.0002 26 12.6865 26 16.0003V32C26 37.5228 21.5228 42 16 42H10C8.89543 42 8 41.1046 8 40C8 38.8954 8.89543 38 10 38H16C19.3137 38 22 35.3137 22 32V16.0003C22 10.4773 26.4774 6.00009 32.0004 6.00031L38.0001 6.00054C39.1046 6.00059 40 6.89605 40 8.00062C40 9.10519 39.1045 10.0006 37.9999 10.0005L32.0002 10.0003Z" fill="#646464"/>
</svg>
