<svg width="48" height="48" viewBox="0 0 48 48" fill="none" xmlns="http://www.w3.org/2000/svg">
<path d="M36.4991 3.94055C35.3616 3.87441 34.3858 4.74293 34.3197 5.88044C34.2535 7.01796 35.122 7.99373 36.2595 8.05987C36.9797 8.10175 37.6615 8.14777 38.298 8.19783C39.1145 8.26205 39.7384 8.88595 39.8026 9.70242C39.8526 10.339 39.8987 11.021 39.9406 11.7413C40.0067 12.8788 40.9825 13.7474 42.12 13.6812C43.2575 13.6151 44.126 12.6393 44.0599 11.5018C44.0166 10.7578 43.9687 10.0475 43.9161 9.37889C43.6928 6.53884 41.4616 4.30765 38.6216 4.08426C37.9531 4.03168 37.2429 3.98381 36.4991 3.94055Z" fill="#646464"/>
<path d="M11.7412 8.05987C12.8787 7.99373 13.7473 7.01797 13.6811 5.88045C13.615 4.74293 12.6392 3.87441 11.5017 3.94055C10.7577 3.98381 10.0475 4.03169 9.37889 4.08428C6.53887 4.30766 4.30769 6.53879 4.08429 9.37883C4.0317 10.0474 3.98382 10.7576 3.94055 11.5016C3.8744 12.6391 4.74292 13.6149 5.88044 13.681C7.01796 13.7472 7.99372 12.8787 8.05987 11.7411C8.10176 11.0209 8.14778 10.339 8.19786 9.70241C8.26208 8.88596 8.88598 8.26207 9.70244 8.19785C10.339 8.14778 11.0209 8.10175 11.7412 8.05987Z" fill="#646464"/>
<path d="M8.05987 36.259C7.99373 35.1215 7.01796 34.253 5.88044 34.3192C4.74293 34.3853 3.87441 35.3611 3.94055 36.4986C3.98382 37.2426 4.0317 37.9529 4.0843 38.6216C4.3077 41.4616 6.53885 43.6927 9.37886 43.9161C10.0475 43.9687 10.7577 44.0166 11.5017 44.0599C12.6392 44.126 13.615 43.2575 13.6811 42.12C13.7473 40.9825 12.8787 40.0067 11.7412 39.9405C11.0209 39.8987 10.339 39.8526 9.70243 39.8026C8.88598 39.7383 8.26209 39.1145 8.19787 38.298C8.14779 37.6614 8.10176 36.9794 8.05987 36.259Z" fill="#646464"/>
<path d="M44.0599 36.4986C44.126 35.3611 43.2575 34.3853 42.12 34.3192C40.9824 34.253 40.0067 35.1215 39.9406 36.2591C39.8987 36.9794 39.8526 37.6613 39.8026 38.298C39.7384 39.1144 39.1145 39.7383 38.298 39.8026C37.6613 39.8526 36.9794 39.8987 36.259 39.9405C35.1215 40.0067 34.253 40.9824 34.3191 42.12C34.3853 43.2575 35.361 44.126 36.4985 44.0599C37.2426 44.0166 37.9529 43.9687 38.6215 43.9161C41.4616 43.6927 43.6928 41.4615 43.9161 38.6215C43.9687 37.9529 44.0166 37.2426 44.0599 36.4986Z" fill="#646464"/>
<path d="M13.0784 16.2197C12.5394 15.5729 11.6529 15.3329 10.8611 15.6196C10.0694 15.9062 9.54199 16.6581 9.54199 17.5001V30.5001C9.54199 31.6047 10.4374 32.5001 11.542 32.5001C12.6466 32.5001 13.542 31.6047 13.542 30.5001V23.0242L15.4222 25.2805C15.8022 25.7365 16.3651 26.0001 16.9587 26.0001C17.5522 26.0001 18.1151 25.7365 18.4951 25.2805L20.3753 23.0242V30.5001C20.3753 31.6047 21.2708 32.5001 22.3753 32.5001C23.4799 32.5001 24.3753 31.6047 24.3753 30.5001V17.5001C24.3753 16.6581 23.8479 15.9062 23.0562 15.6196C22.2644 15.3329 21.3779 15.5729 20.8389 16.2197L16.9587 20.876L13.0784 16.2197Z" fill="#646464"/>
<path d="M28.8753 15.5001C27.7708 15.5001 26.8753 16.3955 26.8753 17.5001V30.5001C26.8753 31.6047 27.7708 32.5001 28.8753 32.5001H36.4587C37.5632 32.5001 38.4587 31.6047 38.4587 30.5001C38.4587 29.3955 37.5632 28.5001 36.4587 28.5001H30.8753V26.0001H36.4587C37.5632 26.0001 38.4587 25.1047 38.4587 24.0001C38.4587 22.8955 37.5632 22.0001 36.4587 22.0001H30.8753V19.5001H36.4587C37.5632 19.5001 38.4587 18.6047 38.4587 17.5001C38.4587 16.3955 37.5632 15.5001 36.4587 15.5001H28.8753Z" fill="#646464"/>
</svg>
