<svg width="48" height="48" viewBox="0 0 48 48" fill="none" xmlns="http://www.w3.org/2000/svg">
<path d="M23.58 14C22.72 14 22.12 13.36 22.08 12.48C22.0585 12.0607 22.037 11.1677 22.0217 10.1393C15.8855 11.0108 11.0175 15.8755 10.141 22.0101C11.176 22.0244 11.9245 22.0522 12.48 22.08C13.36 22.12 13.98 22.72 14 23.58V24.42C14 25.28 13.36 25.88 12.48 25.92C11.9377 25.9478 11.1827 25.9756 10.141 25.99C11.017 32.1207 15.8794 36.983 22.0101 37.859C22.0244 36.824 22.0522 36.0755 22.08 35.52C22.12 34.64 22.72 34.02 23.58 34H24.42C25.28 34 25.88 34.64 25.92 35.52C25.9478 36.0623 25.9756 36.8173 25.99 37.859C32.1246 36.9824 36.9892 32.1144 37.8607 25.9782C36.8383 25.9629 35.949 25.9415 35.52 25.92C34.64 25.88 34.02 25.28 34 24.42V23.58C34 22.72 34.64 22.12 35.52 22.08C36.3 22.04 38.72 22 40.6 22C42.48 22 43.68 22.04 44.48 22.08C45.36 22.12 45.98 22.72 46 23.58V24.42C46 25.28 45.36 25.88 44.48 25.92C43.8951 25.95 43.0627 25.98 41.8902 25.9931C40.9665 34.3291 34.3193 40.9729 25.9817 41.8915C25.9663 43.0165 25.9432 44.0166 25.92 44.48C25.88 45.36 25.28 45.98 24.42 46H23.58C22.72 46 22.12 45.36 22.08 44.48C22.0568 44.0274 22.0336 43.0226 22.0182 41.8915C13.6769 40.9725 7.02747 34.323 6.10853 25.9817C4.98354 25.9663 3.98337 25.9432 3.52 25.92C2.64 25.88 2.02 25.28 2 24.42V23.58C2 22.72 2.64 22.12 3.52 22.08C3.97261 22.0568 4.97744 22.0336 6.10854 22.0182C7.0271 13.6807 13.6709 7.03351 22.0069 6.10979C22.0201 4.94343 22.05 4.11943 22.08 3.52C22.12 2.64 22.72 2.02 23.58 2H24.42C25.28 2 25.88 2.64 25.92 3.52C25.96 4.3 26 5.52 26 7.4C26 9.28 25.96 11.68 25.92 12.48C25.88 13.36 25.28 13.98 24.42 14H23.58Z" fill="#646464"/>
<path d="M24 28C26.2091 28 28 26.2091 28 24C28 21.7909 26.2091 20 24 20C21.7909 20 20 21.7909 20 24C20 26.2091 21.7909 28 24 28Z" fill="#646464"/>
<path d="M37 15.2163L35.7401 17.4001C35.3601 18.0401 34.7001 18.4001 34.0001 18.4001C33.6601 18.4001 33.3201 18.3201 33.0001 18.1401C32.0401 17.5801 31.7201 16.3601 32.2601 15.4001L33.5293 13.2002H31C29.9 13.2002 29 12.3002 29 11.2002C29 10.1002 29.9 9.2002 31 9.2002H33.5292L32.2599 7.00019C31.6999 6.04019 32.0399 4.82019 32.9999 4.26019C33.9599 3.70019 35.1799 4.04019 35.7399 5.00019L37 7.18426L38.2601 5.00009C38.8201 4.04009 40.0401 3.72009 41.0001 4.26009C41.9601 4.82009 42.2801 6.04009 41.7401 7.00009L40.4708 9.2002H43C44.1 9.2002 45 10.1002 45 11.2002C45 12.3002 44.1 13.2002 43 13.2002H40.4707L41.7399 15.4002C42.2999 16.3602 41.9599 17.5802 40.9999 18.1402C40.6799 18.3202 40.3399 18.4002 39.9999 18.4002C39.2999 18.4002 38.6399 18.0402 38.2599 17.4002L37 15.2163Z" fill="#646464"/>
</svg>
