<svg width="48" height="48" viewBox="0 0 48 48" fill="none" xmlns="http://www.w3.org/2000/svg">
<path d="M5.29751 6.00011C5.11057 5.9977 4.92536 6.03624 4.75489 6.11302C4.58442 6.18981 4.43283 6.30297 4.31076 6.44458C4.18868 6.58619 4.09908 6.7528 4.04825 6.93272C3.99742 7.11264 3.98659 7.30151 4.01652 7.48606L9.46074 40.4972C9.52849 40.9012 9.73641 41.2684 10.048 41.5343C10.3596 41.8002 10.7549 41.9478 11.1645 41.9512H37.2583C37.5653 41.9551 37.8636 41.8486 38.0987 41.6511C38.3338 41.4536 38.4902 41.1782 38.5393 40.8751L43.9835 7.49887C44.0134 7.31432 44.0026 7.12545 43.9517 6.94553C43.9009 6.76561 43.8113 6.599 43.6892 6.45739C43.5672 6.31578 43.4156 6.20262 43.2451 6.12583C43.0746 6.04905 42.8894 6.01051 42.7025 6.01292L5.29751 6.00011ZM28.1952 29.8522H19.8688L17.6143 18.0671H30.2128L28.1952 29.8522Z" fill="#2684FF"/>
<path d="M42.2349 18.0799H30.2128L28.1953 29.865H19.8688L10.0372 41.5284C10.3488 41.7979 10.7461 41.9477 11.1581 41.9512H37.2583C37.5653 41.9551 37.8636 41.8486 38.0987 41.6511C38.3338 41.4536 38.4902 41.1782 38.5393 40.8751L42.2349 18.0799Z" fill="url(#paint0_linear_3_18068)"/>
<defs>
<linearGradient id="paint0_linear_3_18068" x1="45.0147" y1="21.3784" x2="25.1465" y2="36.8848" gradientUnits="userSpaceOnUse">
<stop offset="0.18" stop-color="#0052CC"/>
<stop offset="1" stop-color="#2684FF"/>
</linearGradient>
</defs>
</svg>
