<svg width="48" height="48" viewBox="0 0 48 48" fill="none" xmlns="http://www.w3.org/2000/svg">
<path d="M25.6409 18.0422C22.3692 18.0422 19.5283 19.8764 18.0926 22.5688C16.657 19.8763 13.8162 18.0424 10.5446 18.0424C8.62166 18.0424 6.8472 18.6759 5.41947 19.745V12.569H5.41868C5.3987 11.6442 4.64192 10.9 3.70959 10.9C2.77716 10.9 2.02057 11.6442 2.00079 12.569H2V26.7029H2.00356C2.07952 31.3425 5.87303 35.0814 10.5445 35.0814C13.8161 35.0814 16.657 33.247 18.0925 30.5544C19.5283 33.2472 22.3691 35.0812 25.6407 35.0812C30.3597 35.0812 34.1853 31.2666 34.1853 26.5618C34.1854 21.8563 30.3596 18.0422 25.6409 18.0422ZM10.5445 31.6718C7.71386 31.6718 5.41937 29.384 5.41937 26.5619C5.41937 23.7394 7.71396 21.4517 10.5445 21.4517C13.3751 21.4517 15.6697 23.7394 15.6697 26.5619C15.6697 29.384 13.3751 31.6718 10.5445 31.6718ZM25.6409 31.6718C22.8102 31.6718 20.5158 29.384 20.5158 26.5617C20.5158 23.7392 22.8103 21.4517 25.6409 21.4517C28.4713 21.4517 30.7661 23.7392 30.7661 26.5617C30.766 29.384 28.4713 31.6718 25.6409 31.6718Z" fill="#0071F7"/>
<path d="M45.6794 32.4L41.3034 26.568L45.6794 20.7359L45.6786 20.7352C46.2199 19.9838 46.063 18.9356 45.3174 18.3771C44.572 17.8192 43.5187 17.9609 42.9458 18.6884L42.9454 18.6882L39.1686 23.7219L35.3918 18.6882L35.3912 18.6891C34.8182 17.9609 33.7652 17.8192 33.0194 18.3775C32.2738 18.936 32.117 19.9842 32.6586 20.7354L32.6578 20.7359L37.0336 26.568L32.6578 32.4L32.6586 32.4005C32.1169 33.1519 32.2738 34.1998 33.0194 34.7582C33.7652 35.3167 34.8182 35.1748 35.3912 34.447L35.3918 34.4477L39.1686 29.4138L42.9454 34.4477L42.9458 34.4475C43.5188 35.175 44.572 35.3167 45.3174 34.7585C46.063 34.2002 46.2199 33.1521 45.6786 32.4008L45.6794 32.4Z" fill="#0071F7"/>
</svg>
