<svg width="48" height="48" viewBox="0 0 48 48" fill="none" xmlns="http://www.w3.org/2000/svg">
<path d="M30.6528 29.2888C29.2747 30.7273 27.3797 31.5735 25.3986 31.5735H23.7621C21.9533 31.5735 20.1445 30.8965 18.8525 29.6272C17.6466 28.3579 16.9575 26.7501 17.0436 25.0577V22.9422C17.0436 21.1652 17.7327 19.5574 18.9386 18.2881C20.2306 17.0188 21.9533 16.3419 23.7621 16.3419H25.3125C27.2936 16.3419 29.2747 17.1881 30.6528 18.6266C31.9448 19.9805 33.7498 20.6984 35.6447 20.6138C36.1734 20.6138 36.5183 20.5599 36.9489 20.4753C36.7767 20.0522 36.5961 19.642 36.3377 19.3036L34.4427 16.1726C32.72 13.2955 29.6192 11.5185 26.1739 11.5185H22.4701C19.0247 11.5185 15.9239 13.2955 14.2012 16.1726L12.3063 19.3036C10.5836 22.1807 10.5836 25.8193 12.3063 28.6964L14.2012 31.912C15.9239 34.7891 19.0247 36.5661 22.4701 36.5661H26.1739C29.6192 36.5661 32.72 34.7891 34.4427 31.912L36.3377 28.781C36.5961 28.4426 36.7767 28.0321 36.9489 27.609C36.5183 27.5244 36.0754 27.4705 35.6447 27.4705C33.7498 27.2167 31.9448 27.9348 30.6528 29.2888Z" fill="#006BFF"/>
<path d="M25.3125 18.2881H23.676C21.1781 18.2035 19.0247 20.0651 18.8525 22.6037C18.8525 22.6884 18.8525 22.8576 18.8525 22.9422V25.0577C18.7663 27.5117 20.8335 29.6272 23.3314 29.6272C23.4176 29.6272 23.5037 29.6272 23.676 29.6272H25.2264C29.4469 29.6272 29.1024 25.3962 35.4763 25.3962C36.0793 25.3962 36.6985 25.4466 37.3014 25.5312C37.4737 24.4312 37.4737 23.3607 37.3014 22.3453C36.6985 22.4299 36.0793 22.5191 35.4763 22.5191C29.2747 22.5191 29.6192 18.2881 25.3125 18.2881Z" fill="#006BFF"/>
<path d="M41.0751 27.0886C39.9553 26.3271 38.6796 25.7851 37.3014 25.5312C37.2153 26.1236 37.2073 27.0167 36.9489 27.609C38.0687 27.7783 39.0078 28.0195 39.8692 28.6118C37.199 37.0738 28.0688 41.8126 19.3693 39.274C10.6698 36.7353 5.93238 27.681 8.60254 19.1343C11.2727 10.5877 20.4029 5.93357 29.1024 8.47218C34.2705 10.08 38.3188 14.0571 39.9553 19.1343C39.094 19.8113 38.0687 20.306 36.9489 20.4753C37.2073 21.0676 37.2153 21.6683 37.3014 22.3453C38.5934 22.1761 40.0415 21.5037 41.1612 20.8267C41.9364 20.4036 42.1948 19.4728 41.8503 18.7112C38.8356 9.23376 28.5856 3.90268 18.9386 6.77977C9.29161 9.74148 3.86516 19.8113 6.79372 29.2888C9.72228 38.7662 20.0584 44.0973 29.7054 41.2202C35.4764 39.4432 40.0415 35.0429 41.8503 29.2888C42.1087 28.5272 41.8503 27.5964 41.0751 27.0886Z" fill="#006BFF"/>
<path d="M36.9489 20.4753C36.5183 20.5599 36.4554 20.5792 35.5675 20.5792C33.5297 20.5445 31.9313 19.9592 30.6393 18.6053C29.2612 17.1667 27.5374 16.3197 25.3176 16.3197H23.681C21.8722 16.3197 20.1228 17.1006 18.8308 18.3699C17.6249 19.6392 16.9626 21.247 16.9626 23.024V25.1395C16.9626 26.8319 17.6516 28.5243 18.8575 29.7936C20.1495 31.0629 21.8722 31.7399 23.681 31.6552H25.2314C27.2125 31.6552 29.1936 30.809 30.5717 29.3705C31.8637 28.0166 33.6707 27.4705 35.5742 27.4705C36.0049 27.4705 36.5183 27.5244 36.9489 27.609C37.2073 27.0167 37.2153 26.2082 37.3014 25.5312C36.6985 25.4466 36.1704 25.3581 35.5675 25.3581C28.8768 25.3581 29.2293 29.6176 25.3176 29.6176H23.681C21.1831 29.7022 19.0298 27.8473 18.9436 25.3933C18.9436 25.3087 18.9436 25.2241 18.9436 25.1395V22.9394C18.8575 20.4854 20.9247 18.3699 23.4226 18.2852C23.5087 18.2852 23.5949 18.2852 23.681 18.2852H25.2314C29.452 18.2852 29.1074 22.5163 35.4814 22.5163C36.0843 22.5163 36.6985 22.4299 37.3014 22.3453C37.3014 21.8376 37.2073 21.1522 36.9489 20.4753Z" fill="#0AE8F0"/>
</svg>
