<svg width="48" height="48" viewBox="0 0 48 48" fill="none" xmlns="http://www.w3.org/2000/svg">
<path fill-rule="evenodd" clip-rule="evenodd" d="M29.6319 17.7481L38.8237 8.55814L41.4487 11.1869L32.2575 20.3769L29.6319 17.7481ZM25.9069 27.1394C25.4784 27.1386 25.0543 27.0534 24.6588 26.8887C24.2633 26.7239 23.9041 26.4829 23.6018 26.1794C23.2994 25.8759 23.0598 25.5158 22.8966 25.1196C22.7334 24.7235 22.6498 24.2991 22.6506 23.8706C22.6506 22.0669 24.1081 20.6019 25.9006 20.6019C27.6931 20.6019 29.1506 22.0663 29.1506 23.8706C29.1514 24.2991 29.0679 24.7235 28.9047 25.1196C28.7415 25.5158 28.5018 25.8759 28.1995 26.1794C27.8971 26.4829 27.5379 26.7239 27.1424 26.8887C26.7469 27.0534 26.3228 27.1386 25.8944 27.1394H25.9069ZM41.4975 36.625L38.8725 39.25L29.6812 30.06L32.3062 27.435L41.4975 36.625Z" fill="#222222"/>
<path fill-rule="evenodd" clip-rule="evenodd" d="M26.0025 38C27.855 38 29.6275 37.625 31.2381 36.9737L35.7275 41.4644C32.8487 43.0762 29.535 44 26.0025 44C14.9562 44 6 35.045 6 24C6 12.955 14.9562 4.00001 26.0025 4.00001C29.3738 3.99622 32.6908 4.8487 35.6425 6.47751L31.2281 10.8931C29.5688 10.219 27.7948 9.87185 26.0037 9.87064C18.2675 9.87064 11.9962 16.1688 11.9962 23.9331C11.9962 31.6975 18.2662 38 26.0025 38Z" fill="#03A9F4"/>
</svg>
