<svg width="48" height="48" viewBox="0 0 48 48" fill="none" xmlns="http://www.w3.org/2000/svg">
<path fill-rule="evenodd" clip-rule="evenodd" d="M24 44C35.0457 44 44 35.0457 44 24C44 12.9543 35.0457 4 24 4C12.9543 4 4 12.9543 4 24C4 35.0457 12.9543 44 24 44ZM19.4142 16.5858C18.6332 15.8047 17.3668 15.8047 16.5858 16.5858C15.8047 17.3668 15.8047 18.6332 16.5858 19.4142L21.1716 24L16.5858 28.5858C15.8047 29.3668 15.8047 30.6332 16.5858 31.4142C17.3668 32.1953 18.6332 32.1953 19.4142 31.4142L24 26.8284L28.5858 31.4142C29.3668 32.1953 30.6332 32.1953 31.4142 31.4142C32.1953 30.6332 32.1953 29.3668 31.4142 28.5858L26.8284 24L31.4142 19.4142C32.1953 18.6332 32.1953 17.3668 31.4142 16.5858C30.6332 15.8047 29.3668 15.8047 28.5858 16.5858L24 21.1716L19.4142 16.5858Z" fill="#646464"/>
</svg>
