<svg width="48" height="48" viewBox="0 0 48 48" fill="none" xmlns="http://www.w3.org/2000/svg">
<path fill-rule="evenodd" clip-rule="evenodd" d="M18.14 46.06C17.5 46.06 16.86 45.92 16.24 45.64C14.88 45.02 14.02 43.78 14.02 42.42V38.1C13.0432 38.0581 12.2417 38.0065 11.5 37.9588C11.1789 37.9381 10.8681 37.9181 10.56 37.9H10.18V37.88C7.11998 37.66 4.69998 35.32 4.41998 32.28C4.21998 30.1 3.97998 26.42 3.97998 21.14C3.97998 16.92 4.11998 13.16 4.41998 10C4.69998 6.98 7.11998 4.62 10.18 4.4C12.82 4.22 17.36 4 24 4C30.64 4 35.18 4.22 37.82 4.4C40.88 4.62 43.3 6.96 43.58 10C43.86 13.16 44.02 16.92 44.02 21.14C44.02 25.36 43.88 29.1 43.58 32.28C43.3 35.3 40.88 37.66 37.82 37.88C35.16 38.06 32 38.24 26.88 38.28L20.84 45L20.66 45.18C19.98 45.76 19.1 46.06 18.16 46.06H18.14ZM18.04 42.04H18.1L24.48 34.92C24.86 34.5 25.4 34.26 25.96 34.26C31.5 34.24 34.8 34.06 37.54 33.86C38.66 33.78 39.48 33 39.58 31.9C39.78 29.8 40 26.24 40 21.12C40 16 39.78 12.44 39.58 10.34C39.48 9.24 38.66 8.46 37.54 8.38C34.96 8.2 30.52 7.98 24 7.98C17.48 7.98 13.04 8.2 10.46 8.38C9.33998 8.46 8.49998 9.24 8.39998 10.34C8.19998 12.44 7.97998 16 7.97998 21.12C7.97998 26.24 8.19998 29.8 8.39998 31.9C8.49998 33 9.31998 33.78 10.46 33.86H10.84C12.24 33.98 13.66 34.08 16.08 34.16C17.16 34.2 18.02 35.08 18.02 36.16V42.02L18.04 42.04Z" fill="#646464"/>
<path d="M21.1716 21.0601L17.636 17.5245C16.8582 16.7467 16.8582 15.4739 17.636 14.6961C18.4139 13.9183 19.6866 13.9183 20.4645 14.6961L24 18.2316L27.5355 14.6961C28.3134 13.9183 29.5861 13.9183 30.364 14.6961C31.1418 15.4739 31.1418 16.7467 30.364 17.5245L26.8284 21.0601L30.364 24.5956C31.1418 25.3734 31.1418 26.6462 30.364 27.424C29.5861 28.2018 28.3134 28.2018 27.5355 27.424L24 23.8885L20.4645 27.424C19.6866 28.2018 18.4139 28.2018 17.636 27.424C16.8582 26.6462 16.8582 25.3734 17.636 24.5956L21.1716 21.0601Z" fill="#646464"/>
</svg>
