<svg width="48" height="48" viewBox="0 0 48 48" fill="none" xmlns="http://www.w3.org/2000/svg">
<path fill-rule="evenodd" clip-rule="evenodd" d="M26.1188 19.1431L26.1744 19.0875C28.6144 16.6675 30.5544 14.6475 31.9744 13.0875C33.7344 11.1475 33.8744 8.5875 32.2944 6.8475C32.1544 6.6875 31.9944 6.5275 31.8344 6.3675C31.6744 6.1875 31.5144 6.0475 31.3544 5.9075C29.6144 4.3275 27.0344 4.4475 25.1144 6.2075C23.5544 7.6275 21.5344 9.5875 19.1144 12.0075L18.7696 12.3566C18.4281 12.0707 18.1237 11.8224 17.8543 11.6076C16.0543 10.1676 13.5543 10.2276 11.7943 11.7476C10.6143 12.7675 8.93435 14.3276 7.69435 15.9675C7.05435 16.8276 6.73435 17.8875 6.79435 18.9675C6.87435 20.3475 7.19435 23.0875 8.39435 26.6075C8.01435 27.1075 7.69435 27.5275 7.43435 27.8675C6.39435 29.2075 6.43435 31.0675 7.51435 32.3875C7.67147 32.5796 7.84444 32.7881 8.03114 33.0096C7.4717 33.6817 6.967 34.3017 6.55163 34.812C6.31465 35.1031 6.10674 35.3585 5.93432 35.5675C5.03432 36.6875 4.95432 38.2075 5.73432 39.3275C6.07432 39.8075 6.53432 40.3475 7.11432 40.9275C7.69432 41.4875 8.23432 41.9675 8.73432 42.3075C9.25149 42.6655 9.84779 42.8455 10.4445 42.8475C10.4411 42.8475 10.4377 42.8475 10.4343 42.8475H10.4543C10.4511 42.8475 10.4478 42.8475 10.4445 42.8475C11.1611 42.8452 11.8772 42.6051 12.4943 42.1075C12.7033 41.9351 12.9587 41.7271 13.2498 41.4902C13.7575 41.0769 14.3739 40.5751 15.0421 40.019C15.26 40.2026 15.4651 40.3728 15.6543 40.5275C16.3343 41.0875 17.1543 41.3676 17.9743 41.3676L17.9543 41.3875C18.7343 41.3875 19.5143 41.1275 20.1743 40.6275L20.2343 40.5817C20.5633 40.3302 20.9633 40.0244 21.4343 39.6476C24.9743 40.8475 27.6943 41.1675 29.0743 41.2475C30.1743 41.3275 31.2143 40.9876 32.0743 40.3475C33.3743 39.3675 34.7943 37.9876 36.2943 36.2475C37.8143 34.4876 37.8743 31.9875 36.4343 30.1875C36.2799 29.9968 36.109 29.7884 35.92 29.5618L36.2944 29.1875C38.7344 26.7475 40.6944 24.7275 42.1344 23.1475C43.8944 21.2075 44.0144 18.6475 42.4344 16.8875C42.3667 16.8198 42.2991 16.7475 42.2292 16.6728C42.1544 16.5928 42.0771 16.5101 41.9944 16.4275C41.8344 16.2675 41.6744 16.1074 41.5144 15.9675C39.7744 14.3875 37.1944 14.5275 35.2544 16.2875C33.6944 17.7075 31.6544 19.6675 29.2144 22.1075L29.1434 22.1784C28.6303 21.6534 28.0878 21.1034 27.5143 20.5275C27.0312 20.0444 26.5662 19.5832 26.1188 19.1431ZM12.0278 37.3086C11.8092 37.098 11.5908 36.884 11.3743 36.6675C11.1568 36.45 10.9417 36.2305 10.73 36.0107C10.2361 36.6056 9.79338 37.1439 9.43432 37.5875C9.57432 37.7475 9.73431 37.9075 9.9343 38.1075C10.0432 38.2163 10.1462 38.3134 10.24 38.4018C10.3185 38.4758 10.3905 38.5437 10.4543 38.6075C10.7026 38.4016 10.9857 38.1682 11.2948 37.9134C11.5259 37.7229 11.7714 37.5205 12.0278 37.3086ZM33.4544 26.3675L33.2771 26.5447C32.8575 26.084 32.4005 25.5891 31.9033 25.0586L32.0144 24.9475C34.9944 21.9675 36.8744 20.2075 37.9144 19.2475C37.9344 19.2275 38.5144 18.7075 38.7944 18.9475C38.8944 19.0274 39.0143 19.1474 39.1343 19.2674C39.2152 19.3348 39.287 19.4113 39.3558 19.4846C39.3891 19.5201 39.4218 19.5548 39.4544 19.5875C39.657 19.8238 39.3038 20.2739 39.1888 20.4205C39.1675 20.4476 39.1544 20.4643 39.1544 20.4675C37.7544 21.9875 35.8344 23.9875 33.4544 26.3675ZM23.2267 16.354L23.3144 16.2675C26.2944 13.2875 28.0344 11.4275 28.9744 10.4075C28.9944 10.3875 29.5144 9.8075 29.2744 9.5475C29.2267 9.49978 29.179 9.44751 29.1291 9.39286C29.0744 9.33298 29.0171 9.27023 28.9544 9.2075C28.8917 9.14477 28.8289 9.0875 28.7691 9.03285C28.7144 8.98297 28.6621 8.93521 28.6144 8.8875C28.3544 8.6475 27.7944 9.1675 27.7744 9.1875C26.7344 10.1275 24.8744 11.8875 21.9144 14.8475L21.7673 14.9965C22.2216 15.4129 22.7076 15.8645 23.2267 16.354ZM10.8023 30.077C11.6618 31.0963 12.8785 32.5117 14.2143 33.8475C15.5943 35.2275 17.0943 36.5275 17.9943 37.2675C18.4743 36.9075 19.0943 36.4275 19.8343 35.8276C20.3743 35.3875 21.1143 35.2675 21.7743 35.5275C25.3343 36.8675 28.0343 37.1875 29.3143 37.2675C29.4343 37.2675 29.5743 37.2475 29.6743 37.1675C30.7343 36.3675 31.9743 35.1476 33.2743 33.6476C33.5343 33.3475 33.5543 32.9875 33.3143 32.6875C32.0343 31.0875 29.4943 28.1675 24.6943 23.3675C19.8943 18.5675 16.9743 16.0276 15.3743 14.7476C15.0743 14.5075 14.7143 14.5276 14.4143 14.7875C13.3743 15.6875 11.9143 17.0276 10.8943 18.3875C10.8143 18.4875 10.7743 18.6075 10.7943 18.7476C10.8743 20.0475 11.1943 22.7475 12.5343 26.2875C12.7743 26.9475 12.6543 27.6875 12.2343 28.2275C11.6387 28.982 11.1614 29.5985 10.8023 30.077Z" fill="#646464"/>
</svg>
