<svg width="48" height="48" viewBox="0 0 48 48" fill="none" xmlns="http://www.w3.org/2000/svg">
<path d="M24.5 43.9998C13.2 43.9998 4 34.7998 4 23.4998C4 14.8198 9.5 7.03984 17.7 4.15984C18.72 3.79984 19.82 4.05984 20.58 4.81984C21.36 5.61984 21.62 6.79984 21.22 7.83984C20.62 9.45984 20.32 11.1798 20.32 12.9198C20.32 21.0398 26.94 27.6598 35.06 27.6598C36.8 27.6598 38.52 27.3598 40.14 26.7598C41.18 26.3798 42.38 26.6198 43.16 27.4198C43.94 28.1798 44.18 29.2798 43.82 30.2998C40.94 38.4798 33.16 43.9998 24.48 43.9998H24.5ZM16.76 8.91984C11.44 11.7398 8 17.3398 8 23.4998C8 32.5998 15.4 39.9998 24.5 39.9998C30.66 39.9998 36.24 36.5598 39.08 31.2398C37.78 31.5198 36.44 31.6598 35.08 31.6598C24.74 31.6598 16.34 23.2598 16.34 12.9198C16.34 11.5598 16.48 10.2198 16.76 8.91984Z" fill="#646464"/>
</svg>
