<svg width="48" height="48" viewBox="0 0 48 48" fill="none" xmlns="http://www.w3.org/2000/svg">
<path d="M18.5599 34.66C18.6599 35.7 19.5199 36.46 20.5399 36.46L20.5599 36.44H20.7599C21.8599 36.32 22.6599 35.34 22.5399 34.24L22.3999 32.9C22.2399 31.22 22.0799 29.28 21.9199 27.14C21.8199 25.66 21.7199 24.06 21.6399 22.38C21.5799 21.28 20.6599 20.44 19.5399 20.48C18.4399 20.54 17.5799 21.48 17.6399 22.58C17.7399 24.3 17.8399 25.92 17.9399 27.44C18.0799 29.62 18.2599 31.6 18.4199 33.3L18.5599 34.66Z" fill="#646464"/>
<path d="M27.2601 36.4599H27.4601V36.5199C28.4601 36.5199 29.3401 35.7599 29.4401 34.7199L29.5801 33.3599C29.7401 31.6399 29.9001 29.6799 30.0601 27.4999C30.1801 25.9799 30.2801 24.3399 30.3601 22.6399C30.4201 21.5399 29.5601 20.5999 28.4601 20.5399C27.3001 20.4799 26.4201 21.3399 26.3601 22.4399C26.2801 24.1199 26.1801 25.6999 26.0801 27.1999C25.9201 29.3399 25.7601 31.2599 25.6001 32.9399L25.4601 34.2799C25.3601 35.3599 26.1601 36.3399 27.2601 36.4599Z" fill="#646464"/>
<path fill-rule="evenodd" clip-rule="evenodd" d="M39.1351 17.219C40.8111 16.6631 41.98 15.0764 41.98 13.18C41.98 12.86 41.94 12.56 41.88 12.28C41.7 11.48 41.4 10.7 41 9.95998C40.24 8.53998 38.78 7.67998 37 7.57998C35.62 7.49998 33.5 7.39998 30.78 7.33998C30.28 5.35998 28.54 3.97998 26.52 3.97998H21.46C19.44 3.97998 17.7 5.35998 17.2 7.33998C14.48 7.41998 12.36 7.49998 10.98 7.57998C9.2 7.67998 7.74 8.53998 6.98 9.95998C6.58 10.7 6.28 11.48 6.1 12.28C6.04 12.56 6 12.86 6 13.18C6 15.0776 7.1703 16.665 8.84792 17.22C9.9202 26.8682 11.4045 34.7098 12.2399 38.6401C12.6999 40.82 14.1599 42.4601 16.1199 43.0201C17.6785 43.4796 20.2951 43.9991 23.9898 44.0001C27.6846 43.9991 30.3013 43.4597 31.8599 43.0201C33.8399 42.4601 35.2799 40.82 35.7399 38.6401C36.5754 34.7283 38.0781 26.8861 39.1351 17.219ZM37.322 13.4554C37.5182 13.4434 37.7041 13.4315 37.88 13.42C37.96 13.42 38.04 13.3 38.04 13.18C37.94 12.72 37.78 12.28 37.54 11.88C37.44 11.7 37.1 11.6 36.84 11.6C35.24 11.52 32.62 11.4 29.22 11.34C28.32 11.34 27.54 10.7 27.32 9.81998L26.96 8.35998C26.92 8.15998 26.76 8.01998 26.58 8.01998H21.52L21.48 7.99998C21.3 7.99998 21.14 8.13998 21.1 8.33998L20.74 9.79998C20.52 10.68 19.74 11.3 18.84 11.32C15.42 11.38 12.8 11.5 11.22 11.58C10.96 11.58 10.62 11.68 10.52 11.86C10.3 12.28 10.12 12.72 10.02 13.16C10.02 13.3 10.08 13.4 10.18 13.42C10.3191 13.4302 10.4646 13.4406 10.6165 13.4509C10.6773 13.4509 10.7385 13.4539 10.7999 13.4601C12.8003 13.5934 16.079 13.7407 20.914 13.786C21.8921 13.795 22.9332 13.8 24.04 13.8C29.7748 13.8 33.7312 13.654 36.32 13.5134C36.6292 13.4955 36.9156 13.4777 37.1799 13.4601C37.2273 13.4568 37.2747 13.4553 37.322 13.4554ZM12.9199 17.6001C13.9599 26.7201 15.3599 34.0801 16.1599 37.84C16.2199 38.1001 16.4599 38.9801 17.1999 39.2001C18.5199 39.5801 20.7599 40.0201 23.9999 40.0201C27.2399 40.0201 29.4799 39.5801 30.7999 39.2001C31.5599 38.9801 31.7999 38.1201 31.8599 37.84C32.6399 34.1001 34.0599 26.7401 35.0999 17.6001C32.5399 17.7201 28.8999 17.8201 24.0199 17.8201C19.1399 17.8201 15.4999 17.7201 12.9399 17.6001H12.9199Z" fill="#646464"/>
</svg>
