<svg width="48" height="48" viewBox="0 0 48 48" fill="none" xmlns="http://www.w3.org/2000/svg">
<path fill-rule="evenodd" clip-rule="evenodd" d="M22.1602 43.0201C23.4002 43.0601 24.7402 43.0601 26.2002 43.0601L26.1802 43.0801C31.6002 43.0801 35.5602 42.8401 37.9202 42.6401C41.0202 42.3801 43.4602 39.9401 43.7002 36.8201C43.9002 34.1201 44.1602 29.4601 44.1602 22.5601C44.1602 20.6401 44.1402 18.8801 44.1002 17.3001C44.0882 16.764 44.0196 16.2563 43.8941 15.777C43.898 15.4922 43.8405 15.2069 43.7199 14.94C43.0599 13.44 41.5199 10.52 38.5999 7.60003C35.6799 4.70003 32.7399 3.14003 31.2599 2.48003C31.0101 2.37074 30.7512 2.31325 30.4938 2.30637C29.9667 2.1443 29.4022 2.06006 28.8002 2.06006H26.1402C20.7402 2.06006 16.7802 2.30006 14.4002 2.50006C11.3002 2.76006 8.86016 5.22006 8.62016 8.32006C8.42016 11.0201 8.16016 15.6801 8.16016 22.5801C8.16016 23.6801 9.06016 24.5801 10.1602 24.5801C11.2602 24.5801 12.1602 23.6801 12.1602 22.5801C12.1602 15.8001 12.4202 11.2601 12.6202 8.64006C12.7202 7.46006 13.6002 6.58006 14.7602 6.48006C17.0602 6.28006 20.9002 6.04006 26.1602 6.04006H28.4797C28.5424 7.51231 28.6762 9.24132 28.8599 11.22C29.1599 14.48 31.7399 17.06 34.9799 17.36C36.9468 17.5427 38.667 17.676 40.1335 17.7391C40.1802 19.1976 40.1802 20.7927 40.1802 22.5401C40.1802 29.3201 39.9202 33.8601 39.7202 36.4801C39.6202 37.6601 38.7402 38.5401 37.5802 38.6401C35.3002 38.8201 31.4602 39.0601 26.1802 39.0601C24.7802 39.0601 23.4602 39.0401 22.2402 39.0201C21.1802 39.0601 20.2202 39.8801 20.2002 40.9801C20.1802 42.0801 21.0602 43.0001 22.1602 43.0201ZM32.5831 7.8889C33.5529 8.55348 34.6265 9.40641 35.7002 10.4801C36.785 11.5649 37.641 12.6456 38.3051 13.617C38.0052 13.591 37.6968 13.5649 37.38 13.5382C36.735 13.4837 36.055 13.4262 35.3399 13.36C33.9999 13.24 32.9399 12.18 32.8199 10.84C32.7217 9.79877 32.6428 8.7961 32.5831 7.8889Z" fill="#646464"/>
<path d="M4.2 38.6798H8V42.4798C8 43.6998 8.98 44.6798 10.2 44.6798C11.42 44.6798 12.4 43.6998 12.4 42.4798V38.6798H16.2C17.42 38.6798 18.4 37.6998 18.4 36.4798C18.4 35.2598 17.42 34.2798 16.2 34.2798H12.4V30.4798C12.4 29.2598 11.42 28.2798 10.2 28.2798C8.98 28.2798 8 29.2598 8 30.4798V34.2798H4.2C2.98 34.2798 2 35.2598 2 36.4798C2 37.6998 2.98 38.6798 4.2 38.6798Z" fill="#646464"/>
</svg>
