<svg width="48" height="48" viewBox="0 0 48 48" fill="none" xmlns="http://www.w3.org/2000/svg">
<path d="M25.4142 6.58579C24.6332 5.80474 23.3668 5.80474 22.5858 6.58579L15.5858 13.5858C14.8047 14.3668 14.8047 15.6332 15.5858 16.4142C16.3668 17.1953 17.6332 17.1953 18.4142 16.4142L22 12.8284V30C22 31.1046 22.8954 32 24 32C25.1046 32 26 31.1046 26 30V12.8284L29.5858 16.4142C30.3668 17.1953 31.6332 17.1953 32.4142 16.4142C33.1953 15.6332 33.1953 14.3668 32.4142 13.5858L25.4142 6.58579Z" fill="#646464"/>
<path d="M15.1699 25.9981C16.2735 25.9502 17.1292 25.0167 17.0812 23.9132C17.0332 22.8097 16.0998 21.954 14.9962 22.0019L14.8691 22.0074C13.4254 22.0701 12.139 22.1259 11.084 22.3232C9.91604 22.5417 8.83426 22.9642 7.91201 23.8847C7.00593 24.7892 6.57432 25.8328 6.35015 26.9764C6.15048 27.995 6.09494 29.2237 6.03359 30.5809L6.0278 30.709C5.99073 31.5271 5.99073 32.2901 6.0278 33.1083L6.0336 33.2363C6.09493 34.5932 6.15046 35.8218 6.35009 36.8402C6.57422 37.9835 7.00573 39.0271 7.91158 39.9314C8.83185 40.8502 9.90925 41.2735 11.0744 41.4926C12.125 41.6901 13.4047 41.7459 14.8385 41.8084L14.9659 41.8139C20.6492 42.0621 27.3507 42.0621 33.0341 41.8139L33.1613 41.8084C34.5951 41.7459 35.875 41.6901 36.9257 41.4926C38.0908 41.2735 39.1682 40.8502 40.0885 39.9314C40.9944 39.027 41.4259 37.9834 41.65 36.84C41.8496 35.8216 41.9051 34.593 41.9664 33.2361L41.9722 33.108C42.0093 32.2901 42.0093 31.5272 41.9722 30.7092L41.9663 30.5774C41.9025 29.1664 41.845 27.8928 41.6361 26.8419C41.4017 25.6629 40.9488 24.5894 39.9948 23.6753C39.0455 22.7657 37.9637 22.3566 36.7823 22.1714C35.7331 22.007 34.4736 22.0039 33.0846 22.0005L32.9525 22.0002L32.8438 22C31.7392 22 30.8438 22.8955 30.8438 24C30.8438 25.1046 31.7392 26 32.8438 26L32.9422 26.0002C34.5061 26.0042 35.4537 26.012 36.163 26.1232C36.7731 26.2188 37.0207 26.3654 37.2274 26.5635C37.4295 26.7572 37.5891 26.9996 37.7128 27.6218C37.8555 28.3394 37.9045 29.3053 37.9763 30.8902C38.0079 31.5876 38.0079 32.2297 37.9763 32.9271C37.9072 34.4532 37.8601 35.3797 37.7247 36.0707C37.6075 36.6686 37.456 36.9074 37.2624 37.1007C37.0832 37.2796 36.8393 37.4387 36.1866 37.5615C35.4504 37.6999 34.4603 37.7478 32.8596 37.8177C27.2925 38.0608 20.7074 38.0608 15.1403 37.8177C13.5398 37.7478 12.5497 37.6999 11.8135 37.5615C11.1607 37.4387 10.9169 37.2796 10.7377 37.1007C10.5441 36.9074 10.3926 36.6686 10.2754 36.0707C10.1399 35.3797 10.0929 34.4533 10.0237 32.9272C9.9921 32.2297 9.9921 31.5875 10.0237 30.89C10.0929 29.3636 10.14 28.437 10.2754 27.7459C10.3927 27.1478 10.5442 26.9091 10.7378 26.7158C10.9153 26.5386 11.1598 26.3784 11.8196 26.255C12.5615 26.1162 13.5597 26.0681 15.1699 25.9981Z" fill="#646464"/>
</svg>
