<svg width="48" height="48" viewBox="0 0 48 48" fill="none" xmlns="http://www.w3.org/2000/svg">
<path d="M23 37.377C23 38.877 22.3798 40.2974 21.2598 41.3574C19.0198 43.4973 14.9802 43.4973 12.7402 41.3574C11.6202 40.2974 11 38.897 11 37.377C11.0001 35.8571 11.6204 34.4368 12.7402 33.377V33.3984C13.8602 32.3384 15.42 31.7168 17 31.7168H23V37.377Z" fill="#8D8D8D"/>
<path d="M23 29.7168H17C15.4 29.7168 13.8602 29.0971 12.7402 28.0371C11.6203 26.9571 11 25.5371 11 24.0371C11.0001 22.5373 11.6203 21.1165 12.7402 20.0566C13.8602 18.997 15.4203 18.377 17 18.377H23V29.7168Z" fill="#8D8D8D"/>
<path d="M31 18.377C32.5797 18.377 34.1398 18.997 35.2598 20.0566C36.3797 21.1165 36.9999 22.5173 37 24.0371C37 25.5571 36.3797 26.9571 35.2598 28.0371C32.9998 30.1771 29.0002 30.1771 26.7402 28.0371C25.6203 26.9571 25 25.5371 25 24.0371C25.0001 22.5373 25.6203 21.1165 26.7402 20.0566C27.8802 18.977 29.3803 18.377 31 18.377Z" fill="#8D8D8D"/>
<path d="M23 5.03711V16.377H17C15.42 16.377 13.8602 15.7573 12.7402 14.6973C11.6202 13.6373 11 12.2368 11 10.7168C11.0002 9.19706 11.6204 7.77663 12.7402 6.7168C13.8602 5.65707 15.4202 5.03711 17 5.03711H23Z" fill="#8D8D8D"/>
<path d="M31 5.03711C32.5798 5.03711 34.1398 5.65707 35.2598 6.7168C36.3796 7.79663 36.9998 9.21706 37 10.7168C37 12.2168 36.3798 13.6373 35.2598 14.6973C34.1398 15.7573 32.58 16.377 31 16.377H25V5.03711H31Z" fill="#8D8D8D"/>
</svg>
