<svg width="48" height="48" viewBox="0 0 48 48" fill="none" xmlns="http://www.w3.org/2000/svg">
<path fill-rule="evenodd" clip-rule="evenodd" d="M11 7C9.34315 7 8 8.34315 8 10C8 11.6569 9.34315 13 11 13C12.6569 13 14 11.6569 14 10C14 8.34315 12.6569 7 11 7ZM4 10C4 6.13401 7.13401 3 11 3C14.866 3 18 6.13401 18 10C18 13.171 15.8915 15.8496 13 16.7101V31.2899C15.8915 32.1504 18 34.829 18 38C18 41.866 14.866 45 11 45C7.13401 45 4 41.866 4 38C4 34.829 6.10851 32.1504 9 31.2899V16.7101C6.10851 15.8496 4 13.171 4 10ZM30.5858 3.58579C31.3668 2.80474 32.6332 2.80474 33.4142 3.58579L37 7.17157L40.5858 3.58579C41.3668 2.80474 42.6332 2.80474 43.4142 3.58579C44.1953 4.36683 44.1953 5.63317 43.4142 6.41421L39.8284 10L43.4142 13.5858C44.1953 14.3668 44.1953 15.6332 43.4142 16.4142C42.6332 17.1953 41.3668 17.1953 40.5858 16.4142L37 12.8284L33.4142 16.4142C32.6332 17.1953 31.3668 17.1953 30.5858 16.4142C29.8047 15.6332 29.8047 14.3668 30.5858 13.5858L34.1716 10L30.5858 6.41421C29.8047 5.63317 29.8047 4.36683 30.5858 3.58579ZM35 21C35 19.8954 35.8954 19 37 19C38.1046 19 39 19.8954 39 21V31.2899C41.8915 32.1504 44 34.829 44 38C44 41.866 40.866 45 37 45C33.134 45 30 41.866 30 38C30 34.829 32.1085 32.1504 35 31.2899V21ZM11 35C9.34315 35 8 36.3431 8 38C8 39.6569 9.34315 41 11 41C12.6569 41 14 39.6569 14 38C14 36.3431 12.6569 35 11 35ZM37 35C35.3431 35 34 36.3431 34 38C34 39.6569 35.3431 41 37 41C38.6569 41 40 39.6569 40 38C40 36.3431 38.6569 35 37 35Z" fill="#646464"/>
</svg>
