<svg width="48" height="48" viewBox="0 0 48 48" fill="none" xmlns="http://www.w3.org/2000/svg">
<path d="M40.5084 6H23.1771C23.1771 10.32 26.6742 13.8171 30.9942 13.8171H34.1827V16.9029C34.1827 21.2229 37.6798 24.72 41.9998 24.72V7.49143C41.9998 6.66856 41.3313 6 40.5084 6Z" fill="#7A869A"/>
<path d="M31.9198 14.64H14.5884C14.5884 18.96 18.0855 22.4571 22.4055 22.4571H25.594V25.5429C25.594 29.8629 29.0911 33.36 33.4111 33.36V16.1315C33.4111 15.3086 32.7426 14.64 31.9198 14.64Z" fill="url(#paint0_linear_3_18224)"/>
<path d="M23.3313 23.2798H6C6 27.5998 9.49713 31.0969 13.8171 31.0969H17.0056V34.1827C17.0056 38.5027 20.5028 41.9998 24.8228 41.9998V24.7713C24.8228 23.9484 24.1542 23.2798 23.3313 23.2798Z" fill="url(#paint1_linear_3_18224)"/>
<defs>
<linearGradient id="paint0_linear_3_18224" x1="33.055" y1="14.6588" x2="25.6806" y2="22.2636" gradientUnits="userSpaceOnUse">
<stop offset="0.176" stop-color="#344563"/>
<stop offset="1" stop-color="#7A869A"/>
</linearGradient>
<linearGradient id="paint1_linear_3_18224" x1="24.9651" y1="23.3454" x2="16.4388" y2="31.6413" gradientUnits="userSpaceOnUse">
<stop offset="0.176" stop-color="#344563"/>
<stop offset="1" stop-color="#7A869A"/>
</linearGradient>
</defs>
</svg>
