<svg width="48" height="48" viewBox="0 0 48 48" fill="none" xmlns="http://www.w3.org/2000/svg">
<path fill-rule="evenodd" clip-rule="evenodd" d="M42.4858 2.78708C40.3714 1.24482 38.0397 2.22508 36.7595 3.37893C35.1699 4.81153 32.1769 7.6153 26.983 12.8107C23.8733 15.9211 21.6211 18.242 20.0073 19.9446C18.5766 19.4257 17.0339 19.1431 15.4285 19.1431C8.01214 19.1431 2 25.1553 2 32.5716C2 39.9879 8.01214 46.0001 15.4285 46.0001C22.8448 46.0001 28.857 39.9879 28.857 32.5716C28.857 30.965 28.574 29.4214 28.0545 27.9899C29.5828 26.5405 31.6093 24.5764 34.2579 21.9392C34.833 22.4831 35.3258 22.9112 35.7449 23.2485C37.4616 24.6304 39.6628 24.3399 41.116 23.0297C41.6135 22.581 42.246 21.9837 43.037 21.1925C43.828 20.4013 44.425 19.7687 44.8735 19.2711C46.1833 17.8177 46.4735 15.6167 45.0926 13.9001C44.7299 13.4494 44.2624 12.9132 43.6586 12.2812C44.0296 11.8798 44.3461 11.5327 44.6146 11.2346C45.7682 9.95391 46.7476 7.62243 45.2061 5.50811C44.8784 5.05854 44.4648 4.57164 43.9434 4.05019C43.4222 3.52879 42.9354 3.115 42.4858 2.78708ZM39.4375 6.35015C37.9159 7.72151 34.9753 10.4738 29.8118 15.6387C26.0522 19.3993 23.5707 21.9815 21.9693 23.6961C21.3658 24.3424 20.4095 24.5156 19.6176 24.122C18.3579 23.496 16.9373 23.1431 15.4285 23.1431C10.2213 23.1431 6 27.3644 6 32.5716C6 37.7788 10.2213 42.0001 15.4285 42.0001C20.6357 42.0001 24.857 37.7788 24.857 32.5716C24.857 31.0621 24.5037 29.6408 23.8771 28.3805C23.4834 27.5888 23.6564 26.6325 24.3024 26.0289C26.0166 24.427 28.5979 21.9452 32.3565 18.1856L32.8407 17.7008C33.2218 17.3188 33.7411 17.107 34.2806 17.1135C34.8202 17.12 35.3342 17.3442 35.706 17.7353C35.8926 17.9315 36.0966 18.1411 36.3198 18.3642C37.1004 19.145 37.708 19.6871 38.1624 20.059C38.2732 20.1497 38.3205 20.1644 38.4374 20.059C38.8764 19.6631 39.4586 19.1142 40.2082 18.3644C40.9578 17.6147 41.5064 17.0323 41.9021 16.5933C42.0081 16.4757 41.9933 16.4279 41.9021 16.3165C41.5302 15.8618 40.9885 15.2543 40.2084 14.474C39.2429 13.5085 38.2388 12.2059 39.4202 10.9565C40.3996 9.92078 41.1215 9.13587 41.6426 8.55735C41.8066 8.37526 42.0099 8.124 41.9738 7.86444C41.7798 7.59833 41.5042 7.26786 41.1147 6.87829C40.7251 6.48863 40.3946 6.21277 40.1286 6.01876C39.8699 5.98312 39.6188 6.18677 39.4375 6.35015Z" fill="#646464"/>
<path fill-rule="evenodd" clip-rule="evenodd" d="M15.4285 26.7621C12.22 26.7621 9.61899 29.3631 9.61899 32.5716C9.61899 35.7801 12.22 38.3811 15.4285 38.3811C18.637 38.3811 21.238 35.7801 21.238 32.5716C21.238 29.3631 18.6369 26.7621 15.4285 26.7621ZM15.4285 30.7621C14.4292 30.7621 13.619 31.5723 13.619 32.5716C13.619 33.5709 14.4292 34.3811 15.4285 34.3811C16.4278 34.3811 17.238 33.5709 17.238 32.5716C17.238 31.5723 16.4278 30.7621 15.4285 30.7621Z" fill="#646464"/>
</svg>
