<svg width="48" height="48" viewBox="0 0 48 48" fill="none" xmlns="http://www.w3.org/2000/svg">
<path fill-rule="evenodd" clip-rule="evenodd" d="M12 16C12 14.8954 12.8954 14 14 14H20C21.1046 14 22 14.8954 22 16C22 17.1046 21.1046 18 20 18H14C12.8954 18 12 17.1046 12 16ZM12 24C12 22.8954 12.8954 22 14 22H24C25.1046 22 26 22.8954 26 24C26 25.1046 25.1046 26 24 26H14C12.8954 26 12 25.1046 12 24ZM12 32C12 30.8954 12.8954 30 14 30H30C31.1046 30 32 30.8954 32 32C32 33.1046 31.1046 34 30 34H14C12.8954 34 12 33.1046 12 32Z" fill="#646464"/>
<path fill-rule="evenodd" clip-rule="evenodd" d="M4.40669 35.467C3.86444 28.2104 3.86444 19.7895 4.4067 12.5331C4.65209 9.24924 7.25203 6.65191 10.5344 6.40663C13.5417 6.18191 16.7442 6.05066 19.9761 6.01205C21.0806 5.99886 21.9867 6.88353 21.9999 7.98803C22.0131 9.09252 21.1284 9.99858 20.0239 10.0118C16.8662 10.0495 13.7477 10.1777 10.8325 10.3955C9.5227 10.4934 8.49334 11.5228 8.39557 12.8312C7.86814 19.8891 7.86814 28.1108 8.39557 35.1689C8.4934 36.478 9.52208 37.5067 10.8312 37.6045C17.8892 38.1318 26.1108 38.1318 33.1688 37.6045C34.4772 37.5068 35.5067 36.4774 35.6045 35.1676C35.7538 33.17 35.861 31.0763 35.9258 28.9393C35.9593 27.8353 36.8815 26.9674 37.9855 27.0009C39.0896 27.0344 39.9575 27.9566 39.924 29.0606C39.8575 31.2511 39.7474 33.4039 39.5934 35.4656C39.3481 38.7482 36.7507 41.3481 33.4668 41.5934C26.2104 42.1355 17.7896 42.1355 10.5332 41.5934C7.25001 41.3481 4.65203 38.7502 4.40669 35.467Z" fill="#646464"/>
<path d="M33.736 10.5716C34.2986 10.0089 35.0617 9.69287 35.8574 9.69287C36.653 9.69287 37.4161 10.0089 37.9787 10.5716C38.5413 11.1342 38.8574 11.8972 38.8574 12.6929C38.8574 13.4885 38.5413 14.2516 37.9787 14.8142C37.4161 15.3768 36.653 15.6929 35.8574 15.6929C35.0617 15.6929 34.2986 15.3768 33.736 14.8142C33.1734 14.2516 32.8574 13.4885 32.8574 12.6929C32.8574 11.8972 33.1734 11.1342 33.736 10.5716Z" fill="#646464"/>
<path fill-rule="evenodd" clip-rule="evenodd" d="M38.2089 2.50683C36.7112 1.82194 35.0075 1.82194 33.5098 2.50683C32.7806 2.84026 31.8511 3.30323 30.7885 3.91673C29.7258 4.53028 28.8601 5.10381 28.2069 5.56846C26.865 6.52305 26.013 7.99852 25.8573 9.63812C25.7815 10.4364 25.7177 11.4727 25.7177 12.6997C25.7177 13.9267 25.7815 14.963 25.8573 15.7613C26.013 17.4008 26.8649 18.8764 28.207 19.8309C28.8604 20.2957 29.7259 20.8691 30.7886 21.4826C31.8513 22.0963 32.7808 22.5591 33.5097 22.8925C35.0075 23.5775 36.7113 23.5774 38.2091 22.8925C38.9381 22.5591 39.8674 22.0963 40.9302 21.4826C41.9929 20.8691 42.8584 20.2957 43.5117 19.831C44.8538 18.8764 45.7057 17.4008 45.8614 15.7612C45.9373 14.9629 46.001 13.9268 46.001 12.6997C46.001 11.4727 45.9373 10.4363 45.8614 9.63806C45.7057 7.99846 44.8536 6.52291 43.5117 5.56832C42.8585 5.10376 41.993 4.5303 40.9302 3.91669C39.8676 3.30323 38.9382 2.84029 38.2089 2.50683ZM32.7886 7.3808C33.7317 6.83629 34.5477 6.43058 35.1732 6.14459C35.6145 5.94275 36.1042 5.94275 36.5456 6.14459C37.171 6.43056 37.987 6.83627 38.9302 7.38083C39.8732 7.92522 40.6327 8.42923 41.1934 8.82803C41.5888 9.10937 41.8335 9.53332 41.8794 10.0163C41.9444 10.701 42.001 11.6106 42.001 12.6997C42.001 13.7888 41.9444 14.6983 41.8794 15.3831C41.8335 15.8662 41.5887 16.2902 41.1932 16.5714C40.6327 16.9702 39.8733 17.4741 38.9301 18.0186C37.9871 18.5631 37.1711 18.9687 36.5455 19.2549C36.1041 19.4567 35.6146 19.4567 35.1733 19.2549C34.5476 18.9687 33.7314 18.563 32.7885 18.0185C31.8454 17.474 31.086 16.9701 30.5254 16.5714C30.1301 16.2902 29.8853 15.8662 29.8394 15.383C29.7743 14.6983 29.7177 13.7888 29.7177 12.6997C29.7177 11.6106 29.7744 10.701 29.8394 10.0163C29.8853 9.53321 30.1301 9.10923 30.5255 8.82789C31.0861 8.42918 31.8455 7.92525 32.7886 7.3808Z" fill="#646464"/>
<path d="M35.8594 9.69969C35.0637 9.69969 34.3007 10.0158 33.7381 10.5784C33.1754 11.141 32.8594 11.904 32.8594 12.6997C32.8594 13.4953 33.1754 14.2584 33.7381 14.821C34.3007 15.3836 35.0637 15.6997 35.8594 15.6997C36.655 15.6997 37.4181 15.3836 37.9807 14.821C38.5433 14.2584 38.8594 13.4953 38.8594 12.6997C38.8594 11.904 38.5433 11.141 37.9807 10.5784C37.4181 10.0158 36.655 9.69969 35.8594 9.69969Z" fill="#646464"/>
</svg>
