<svg width="48" height="48" viewBox="0 0 48 48" fill="none" xmlns="http://www.w3.org/2000/svg">
<path d="M35.6842 6H12.3158C8.82767 6 6 8.82767 6 12.3158V35.6842C6 39.1723 8.82767 42 12.3158 42H35.6842C39.1723 42 42 39.1723 42 35.6842V12.3158C42 8.82767 39.1723 6 35.6842 6Z" fill="black"/>
<path d="M42 30.7759V34.0454C41.7947 34.0652 41.5838 34.0754 41.3672 34.0754C37.5021 34.0754 35.3262 30.856 35.2323 26.8277C35.2295 26.6719 35.2306 26.5172 35.234 26.3635C35.2362 26.2676 35.2399 26.1721 35.2448 26.0769C35.2472 26.026 35.2496 25.9782 35.2534 25.9249C35.2572 25.8716 35.2611 25.8183 35.2656 25.765C35.4047 23.9864 35.9773 22.4037 36.9223 21.2326C37.5094 20.5057 38.2149 19.9518 39.0149 19.5814C39.7176 19.2276 40.7052 19.0324 41.5103 19.0324H41.5451C41.6977 19.0324 41.8492 19.0375 42 19.0475V19.9471C41.84 19.9032 41.6688 19.8797 41.4867 19.8767C39.8585 19.9103 38.8882 21.8606 38.7673 24.5627H42V25.3243H38.6943C38.5453 27.9572 39.9853 30.1829 42 30.7759Z" fill="white"/>
<path d="M35.3947 14.6001L35.4231 14.5939V14.374H29.6255L24.2423 27.0264L18.859 14.374H12.6114V14.5939L12.6395 14.6001C13.6977 14.8389 14.235 15.1952 14.235 16.4798V31.5189C14.235 32.8035 13.6956 33.1597 12.6374 33.3986L12.6094 33.4049V33.6254H16.8482V33.4055L16.8201 33.3993C15.7619 33.1605 15.2246 32.8043 15.2246 31.5196V17.3521L22.14 33.6254H22.5322L29.649 16.8983V31.8911C29.5583 32.9057 29.0259 33.219 28.0678 33.4353L28.0393 33.4419V33.66H35.4231V33.4419L35.3947 33.4353C34.4355 33.219 33.8902 32.9057 33.7996 31.8911L33.7947 16.4798H33.7996C33.7996 15.1952 34.3368 14.8389 35.3947 14.6001Z" fill="white"/>
</svg>
