<svg width="48" height="48" viewBox="0 0 48 48" fill="none" xmlns="http://www.w3.org/2000/svg">
<path fill-rule="evenodd" clip-rule="evenodd" d="M29.9351 38.8049C30.8551 39.4449 31.8951 39.7849 32.9151 39.7849L32.9351 39.7649C33.5551 39.7649 34.1551 39.6449 34.7151 39.4049C36.1151 38.8049 37.0351 37.5049 37.2751 35.8449C37.5297 34.0625 37.7169 32.0208 37.8393 29.7356C38.4548 29.558 39.1377 29.3816 39.7787 29.2161L39.9757 29.1651L40.2689 29.087C41.5794 28.738 42.2894 28.549 42.7557 28.3251C43.5357 27.9451 44.0957 27.2851 44.3357 26.4851C44.6157 25.5251 44.7557 24.1651 44.7557 22.4851C44.7557 20.8051 44.6157 19.4651 44.3357 18.5051C44.1157 17.7051 43.5557 17.0451 42.7557 16.6651C42.2557 16.4251 41.4557 16.2051 39.9757 15.8251C39.2679 15.6452 38.5096 15.4436 37.8348 15.2464C37.7098 12.94 37.5214 10.8808 37.2751 9.08487C37.0551 7.44487 36.1151 6.14487 34.7151 5.52487C33.2151 4.86487 31.4351 5.08487 29.9351 6.12487C23.0351 10.9049 13.1551 12.7449 9.21512 13.3249C7.23512 13.6049 5.73512 15.0249 5.39512 16.9249C5.13512 18.4449 4.99512 20.3249 4.99512 22.4649C4.99512 24.6049 5.13512 26.4849 5.39512 28.0049C5.71512 29.9049 7.23512 31.3249 9.21512 31.6049C10.0801 31.7284 11.2363 31.9153 12.5872 32.1829L10.2557 37.2251C9.69566 38.4851 9.67566 39.9451 10.2557 41.2051C10.7957 42.3851 11.8157 43.2851 13.0357 43.6451L16.7957 44.7451C17.1923 44.8641 17.589 44.9241 17.9857 44.9251L17.9757 44.9251H17.9957L17.9857 44.9251C18.7224 44.9233 19.4587 44.7234 20.1157 44.3451C21.1757 43.7051 21.9557 42.6451 22.2557 41.3651L23.4875 35.3817C25.7421 36.3091 27.9613 37.4375 29.9351 38.8049Z" fill="#646464"/>
</svg>
