<svg width="48" height="48" viewBox="0 0 48 48" fill="none" xmlns="http://www.w3.org/2000/svg">
<path d="M24 1.99998C22.3116 1.99998 20.7136 2.30077 19.2618 2.87738C18.2352 3.28509 17.7335 4.4478 18.1412 5.47437C18.5489 6.50094 19.7116 7.00263 20.7382 6.59492C21.6945 6.21514 22.7887 5.99998 24 5.99998C28.6398 5.99998 31.8635 9.15769 31.9659 13.8015C31.9875 14.7815 32 16.349 32 18C32 19.651 31.9875 21.2184 31.9659 22.1985C31.9415 23.3028 32.817 24.2178 33.9213 24.2421C35.0256 24.2665 35.9406 23.391 35.9649 22.2867C35.9875 21.2637 36 19.6627 36 18C36 16.3373 35.9875 14.7363 35.9649 13.7134C35.8147 6.90032 30.8197 1.99998 24 1.99998Z" fill="#646464"/>
<path d="M43 22C43 20.8954 42.1046 20 41 20C39.8954 20 39 20.8954 39 22C39 23.8672 38.6598 25.6504 38.0396 27.294C37.6497 28.3274 38.1714 29.4813 39.2049 29.8712C40.2383 30.2611 41.3922 29.7394 41.7821 28.706C42.5699 26.618 43 24.3569 43 22Z" fill="#646464"/>
<path fill-rule="evenodd" clip-rule="evenodd" d="M9.52932 2.71111C8.81749 1.86649 7.55574 1.75884 6.71113 2.47067C5.86651 3.18249 5.75886 4.44424 6.47068 5.28886L12.1717 12.0534C12.0934 12.5947 12.0476 13.1486 12.0352 13.7132C12.0126 14.7362 12 16.3374 12 18C12 19.6626 12.0126 21.2637 12.0352 22.2868C12.1854 29.0998 17.1804 34 24 34C26.0361 34 27.9373 33.5621 29.6039 32.7376L31.5035 34.9916C30.2608 35.7111 28.9061 36.2569 27.4725 36.5965C26.6668 36.7873 26.0621 37.4549 25.9515 38.2755C25.8276 39.1944 25.5827 40.7312 25.4313 41.6416C25.4088 41.7769 25.3514 41.8605 25.3024 41.9056C25.2586 41.946 25.2042 41.9734 25.1234 41.9778C24.749 41.9891 24.3743 41.9999 23.9997 42C23.6227 42 23.2456 41.9891 22.8688 41.9778C22.788 41.9734 22.7336 41.946 22.6897 41.9056C22.6408 41.8605 22.5834 41.7769 22.5609 41.6416C22.4094 40.7305 22.1643 39.1924 22.0405 38.2737C21.93 37.4534 21.3256 36.786 20.5204 36.5948C13.9132 35.0262 9 29.0844 9 22C9 20.8954 8.10457 20 7 20C5.89543 20 5 20.8954 5 22C5 30.4973 10.5764 37.6879 18.2674 40.1193C18.3868 40.9004 18.5203 41.7282 18.615 42.2977C18.9454 44.2845 20.5602 45.8867 22.7106 45.9748L22.7285 45.9754L22.731 45.9755L22.7636 45.9765L22.8568 45.9793C22.9356 45.9815 23.0455 45.9846 23.1708 45.9876C23.4167 45.9936 23.7388 46 24.0003 46C24.26 46 24.58 45.9935 24.8244 45.9876C24.9488 45.9845 25.0581 45.9815 25.1363 45.9792L25.2289 45.9765L25.264 45.9754L25.2816 45.9747C27.432 45.8866 29.0468 44.2845 29.3771 42.2977C29.4717 41.7288 29.6051 40.9022 29.7244 40.1219C31.2843 39.6296 32.7567 38.9418 34.1128 38.0877L38.4707 43.2585C39.1825 44.1031 40.4443 44.2108 41.2889 43.499C42.1335 42.7871 42.2411 41.5254 41.5293 40.6808L9.52932 2.71111ZM26.906 29.5365L16.0031 16.5995C16.001 17.0512 16 17.5221 16 18C16 19.6511 16.0125 21.2184 16.0342 22.1984C16.1365 26.8421 19.3601 30 24 30C25.0613 30 26.0344 29.8351 26.906 29.5365Z" fill="#646464"/>
</svg>
