<svg width="48" height="48" viewBox="0 0 48 48" fill="none" xmlns="http://www.w3.org/2000/svg">
<path fill-rule="evenodd" clip-rule="evenodd" d="M14.4591 9.48668C12.1701 11.6539 10.7313 14.79 10.6188 18.6726C10.5726 20.2669 10.5459 22.0373 10.5459 24C10.5459 25.9627 10.5726 27.7331 10.6188 29.3274C10.7313 33.21 12.1701 36.3461 14.4591 38.5133C16.7524 40.6847 20.0235 42 24.0004 42C27.9774 42 31.2484 40.6847 33.5418 38.5133C35.8308 36.3461 37.2696 33.21 37.3821 29.3273C37.4283 27.7332 37.455 25.9628 37.455 24C37.455 22.0372 37.4283 20.2669 37.3821 18.6727C37.2696 14.7901 35.8308 11.6539 33.5418 9.48668C31.2484 7.31533 27.9774 6 24.0004 6C20.0235 6 16.7524 7.31533 14.4591 9.48668ZM11.709 6.58206C14.8289 3.62805 19.1219 2 24.0004 2C28.879 2 33.1719 3.62805 36.2919 6.58207C39.4162 9.54019 41.24 13.7114 41.3804 18.5568C41.4278 20.192 41.455 22.0011 41.455 24C41.455 25.9989 41.4278 27.808 41.3804 29.4432C41.24 34.2886 39.4162 38.4598 36.2919 41.4179C33.1719 44.372 28.879 46 24.0004 46C19.1219 46 14.8289 44.372 11.709 41.4179C8.58465 38.4598 6.76084 34.2886 6.62046 29.4432C6.57309 27.808 6.5459 25.9989 6.5459 24C6.5459 22.0011 6.57309 20.192 6.62046 18.5568C6.76084 13.7114 8.58465 9.54019 11.709 6.58206Z" fill="#646464"/>
<path fill-rule="evenodd" clip-rule="evenodd" d="M24 10C25.6569 10 27 11.3431 27 13V16C27 17.6569 25.6569 19 24 19C22.3431 19 21 17.6569 21 16V13C21 11.3431 22.3431 10 24 10Z" fill="#646464"/>
</svg>
