<svg width="48" height="48" viewBox="0 0 48 48" fill="none" xmlns="http://www.w3.org/2000/svg">
<path d="M15.976 35.4816C14.8411 35.4816 13.9157 36.3653 13.9157 37.462C13.9157 38.2074 14.3452 38.8461 14.9844 39.1869L22.95 43.456C23.5819 43.8122 24.295 43.9992 25.0204 43.9989C25.5053 43.9989 25.9682 43.9139 26.3978 43.7647L29.119 43.0089V35.4712C29.1302 35.4816 15.9869 35.4816 15.976 35.4816Z" fill="url(#paint0_linear_3_18238)"/>
<path d="M15.976 35.4816C14.8411 35.4816 13.9157 36.3653 13.9157 37.462C13.9157 38.2074 14.3452 38.8461 14.9844 39.1869L22.95 43.456C23.5819 43.8122 24.295 43.9992 25.0204 43.9989C25.5053 43.9989 25.9682 43.9139 26.3978 43.7647L29.119 43.0089V35.4712C29.1302 35.4816 15.9869 35.4816 15.976 35.4816Z" fill="url(#paint1_linear_3_18238)"/>
<path d="M26.2228 4.15961C25.8466 4.05218 25.4571 3.99846 25.0658 4.00003C24.4158 4.00003 23.7658 4.12795 23.1817 4.42586C23.0608 4.47919 10.2254 11.4523 10.2254 11.4523C10.0491 11.5377 9.88371 11.644 9.72955 11.7506C9.70789 11.7611 9.69664 11.7719 9.67455 11.7827C9.57539 11.8569 9.48706 11.9315 9.38831 12.0061C9.34415 12.0381 9.29998 12.0811 9.26706 12.1127C9.21207 12.1656 9.15665 12.219 9.1129 12.2723C8.95874 12.4319 8.69416 12.7723 8.69416 12.7723C8.24024 13.4176 7.99771 14.1878 8.00002 14.9768V33.5013C8.00002 34.5983 8.92541 35.4821 10.0604 35.4821C10.3466 35.4821 10.6112 35.4287 10.8537 35.3221L14.5223 33.3313C15.1831 33.0121 15.7123 32.4688 15.9877 31.798C16.0535 31.6597 16.1085 31.4897 16.1419 31.3189C16.1527 31.2764 16.164 31.223 16.164 31.1805C16.164 31.1597 16.1748 31.1276 16.1748 31.1064C16.186 31.0314 16.1969 30.9464 16.1969 30.8722C16.1969 30.808 16.2081 30.7547 16.2081 30.691V17.7551C16.2081 16.8926 16.5935 16.1155 17.1998 15.5726C17.486 15.3172 17.8606 15.0935 18.3014 14.9447C18.7418 14.7847 29.1644 11.144 29.1644 11.144V5.00084L26.2228 4.15961Z" fill="url(#paint2_linear_3_18238)"/>
<path d="M26.2228 4.15961C25.8466 4.05218 25.4571 3.99846 25.0658 4.00003C24.4158 4.00003 23.7658 4.12795 23.1817 4.42586C23.0608 4.47919 10.2254 11.4523 10.2254 11.4523C10.0491 11.5377 9.88371 11.644 9.72955 11.7506C9.70789 11.7611 9.69664 11.7719 9.67455 11.7827C9.57539 11.8569 9.48706 11.9315 9.38831 12.0061C9.34415 12.0381 9.29998 12.0811 9.26706 12.1127C9.21207 12.1656 9.15665 12.219 9.1129 12.2723C8.95874 12.4319 8.69416 12.7723 8.69416 12.7723C8.24024 13.4176 7.99771 14.1878 8.00002 14.9768V33.5013C8.00002 34.5983 8.92541 35.4821 10.0604 35.4821C10.3466 35.4821 10.6112 35.4287 10.8537 35.3221L14.5223 33.3313C15.1831 33.0121 15.7123 32.4688 15.9877 31.798C16.0535 31.6597 16.1085 31.4897 16.1419 31.3189C16.1527 31.2764 16.164 31.223 16.164 31.1805C16.164 31.1597 16.1748 31.1276 16.1748 31.1064C16.186 31.0314 16.1969 30.9464 16.1969 30.8722C16.1969 30.808 16.2081 30.7547 16.2081 30.691V17.7551C16.2081 16.8926 16.5935 16.1155 17.1998 15.5726C17.486 15.3172 17.8606 15.0935 18.3014 14.9447C18.7418 14.7847 29.1644 11.144 29.1644 11.144V5.00084L26.2228 4.15961Z" fill="url(#paint3_linear_3_18238)"/>
<path d="M37.9567 7.47907L26.3995 4.21124C28.074 4.83956 29.1202 6.25535 29.1202 7.98031C29.1202 7.98031 29.1098 39.3128 29.1202 40.0686C29.1315 41.7719 28.0078 43.2306 26.3995 43.7735C26.752 43.6776 37.9567 40.5581 37.9567 40.5581C39.62 40.0473 40.8212 38.5565 40.8212 36.7791V11.2581C40.832 9.49151 39.62 7.98989 37.9567 7.47907Z" fill="url(#paint4_linear_3_18238)"/>
<defs>
<linearGradient id="paint0_linear_3_18238" x1="10.4682" y1="19.2964" x2="72.6875" y2="21.8893" gradientUnits="userSpaceOnUse">
<stop stop-color="#F32B44"/>
<stop offset="0.6" stop-color="#A4070A"/>
</linearGradient>
<linearGradient id="paint1_linear_3_18238" x1="52.3598" y1="26.9925" x2="24.7377" y2="25.8412" gradientUnits="userSpaceOnUse">
<stop stop-opacity="0.4"/>
<stop offset="1" stop-opacity="0"/>
</linearGradient>
<linearGradient id="paint2_linear_3_18238" x1="36.9069" y1="2.24676" x2="12.4157" y2="46.426" gradientUnits="userSpaceOnUse">
<stop stop-color="#800600"/>
<stop offset="0.6" stop-color="#C72127"/>
<stop offset="0.728" stop-color="#C13959"/>
<stop offset="0.847" stop-color="#BC4B81"/>
<stop offset="0.942" stop-color="#B95799"/>
<stop offset="1" stop-color="#B85BA2"/>
</linearGradient>
<linearGradient id="paint3_linear_3_18238" x1="37.608" y1="1.45376" x2="32.4214" y2="10.8098" gradientUnits="userSpaceOnUse">
<stop stop-opacity="0.4"/>
<stop offset="1" stop-opacity="0"/>
</linearGradient>
<linearGradient id="paint4_linear_3_18238" x1="33.6184" y1="1.96399" x2="33.6184" y2="40.9912" gradientUnits="userSpaceOnUse">
<stop stop-color="#FFB900"/>
<stop offset="0.166" stop-color="#EF8400"/>
<stop offset="0.313" stop-color="#E25C01"/>
<stop offset="0.429" stop-color="#DB4401"/>
<stop offset="0.5" stop-color="#D83B01"/>
</linearGradient>
</defs>
</svg>
