<svg width="48" height="48" viewBox="0 0 48 48" fill="none" xmlns="http://www.w3.org/2000/svg">
<path d="M10 14C12.2091 14 14 12.2091 14 10C14 7.79086 12.2091 6 10 6C7.79086 6 6 7.79086 6 10C6 12.2091 7.79086 14 10 14Z" fill="#646464"/>
<path d="M28 10C28 12.2091 26.2091 14 24 14C21.7909 14 20 12.2091 20 10C20 7.79086 21.7909 6 24 6C26.2091 6 28 7.79086 28 10Z" fill="#646464"/>
<path d="M42 10C42 12.2091 40.2091 14 38 14C35.7909 14 34 12.2091 34 10C34 7.79086 35.7909 6 38 6C40.2091 6 42 7.79086 42 10Z" fill="#646464"/>
<path d="M42 24C42 26.2091 40.2091 28 38 28C35.7909 28 34 26.2091 34 24C34 21.7909 35.7909 20 38 20C40.2091 20 42 21.7909 42 24Z" fill="#646464"/>
<path d="M24 28C26.2091 28 28 26.2091 28 24C28 21.7909 26.2091 20 24 20C21.7909 20 20 21.7909 20 24C20 26.2091 21.7909 28 24 28Z" fill="#646464"/>
<path d="M14 24C14 26.2091 12.2091 28 10 28C7.79086 28 6 26.2091 6 24C6 21.7909 7.79086 20 10 20C12.2091 20 14 21.7909 14 24Z" fill="#646464"/>
<path d="M38 42C40.2091 42 42 40.2091 42 38C42 35.7909 40.2091 34 38 34C35.7909 34 34 35.7909 34 38C34 40.2091 35.7909 42 38 42Z" fill="#646464"/>
<path d="M28 38C28 40.2091 26.2091 42 24 42C21.7909 42 20 40.2091 20 38C20 35.7909 21.7909 34 24 34C26.2091 34 28 35.7909 28 38Z" fill="#646464"/>
<path d="M10 42C12.2091 42 14 40.2091 14 38C14 35.7909 12.2091 34 10 34C7.79086 34 6 35.7909 6 38C6 40.2091 7.79086 42 10 42Z" fill="#646464"/>
</svg>
