<svg width="48" height="48" viewBox="0 0 48 48" fill="none" xmlns="http://www.w3.org/2000/svg">
<path fill-rule="evenodd" clip-rule="evenodd" d="M24 4C25.0496 4 25.9005 4.85086 25.9005 5.90045V13.1403C25.9005 14.1899 25.0496 15.0407 24 15.0407C22.9504 15.0407 22.0995 14.1899 22.0995 13.1403V5.90045C22.0995 4.85086 22.9504 4 24 4ZM9.85799 9.85799C10.6002 9.11581 11.8035 9.11581 12.5456 9.85799L17.6642 14.9765C18.4064 15.7187 18.4064 16.922 17.6642 17.6642C16.922 18.4064 15.7187 18.4064 14.9765 17.6642L9.85799 12.5456C9.11581 11.8035 9.11581 10.6002 9.85799 9.85799ZM38.142 9.85799C38.8842 10.6002 38.8842 11.8035 38.142 12.5456L33.0235 17.6642C32.2813 18.4064 31.078 18.4064 30.3358 17.6642C29.5936 16.922 29.5936 15.7187 30.3358 14.9765L35.4544 9.85799C36.1965 9.11581 37.3998 9.11581 38.142 9.85799ZM4 24C4 22.9504 4.85086 22.0995 5.90045 22.0995H13.1403C14.1899 22.0995 15.0407 22.9504 15.0407 24C15.0407 25.0496 14.1899 25.9005 13.1403 25.9005H5.90045C4.85086 25.9005 4 25.0496 4 24ZM32.9593 24C32.9593 22.9504 33.8101 22.0995 34.8597 22.0995H42.0995C43.1491 22.0995 44 22.9504 44 24C44 25.0496 43.1491 25.9005 42.0995 25.9005H34.8597C33.8101 25.9005 32.9593 25.0496 32.9593 24ZM17.6642 30.3358C18.4064 31.078 18.4064 32.2813 17.6642 33.0235L12.5474 38.1402C11.8053 38.8824 10.602 38.8824 9.8598 38.1402C9.11762 37.398 9.11762 36.1947 9.8598 35.4526L14.9765 30.3358C15.7187 29.5936 16.922 29.5936 17.6642 30.3358ZM30.3358 30.3358C31.078 29.5936 32.2813 29.5936 33.0235 30.3358L38.142 35.4544C38.8842 36.1965 38.8842 37.3998 38.142 38.142C37.3998 38.8842 36.1965 38.8842 35.4544 38.142L30.3358 33.0235C29.5936 32.2813 29.5936 31.078 30.3358 30.3358ZM24 32.9593C25.0496 32.9593 25.9005 33.8101 25.9005 34.8597V42.0995C25.9005 43.1491 25.0496 44 24 44C22.9504 44 22.0995 43.1491 22.0995 42.0995V34.8597C22.0995 33.8101 22.9504 32.9593 24 32.9593Z" fill="#0B68CB"/>
</svg>
