<svg width="48" height="48" viewBox="0 0 48 48" fill="none" xmlns="http://www.w3.org/2000/svg">
<path d="M1.5 36L11.5 7.81641H17.1836L27.1836 36H21.9102L19.5469 28.7148H9.11719L6.77344 36H1.5ZM14.1758 13.0508L10.3867 24.8281H18.2969L14.5078 13.0508H14.1758Z" fill="#646464"/>
<path d="M35.0664 36.3516C31.0039 36.3516 28.0547 33.8516 28.0547 29.9648V29.9258C28.0547 26.1172 30.9648 23.8906 36.1602 23.5781L41.6484 23.2461V21.4102C41.6484 19.2812 40.2617 18.1094 37.6445 18.1094C35.418 18.1094 33.9727 18.9102 33.4844 20.3164L33.4648 20.3945H28.875L28.8945 20.2188C29.3633 16.625 32.8008 14.2422 37.8789 14.2422C43.3672 14.2422 46.4531 16.8984 46.4531 21.4102V36H41.6484V33.0703H41.3164C40.1445 35.1406 37.8789 36.3516 35.0664 36.3516ZM32.8594 29.7305C32.8594 31.5469 34.4023 32.6211 36.5508 32.6211C39.4805 32.6211 41.6484 30.707 41.6484 28.168V26.4492L36.8438 26.7617C34.1289 26.9375 32.8594 27.9336 32.8594 29.6914V29.7305Z" fill="#646464"/>
</svg>
