<svg width="48" height="48" viewBox="0 0 48 48" fill="none" xmlns="http://www.w3.org/2000/svg">
<path fill-rule="evenodd" clip-rule="evenodd" d="M39.2262 4.0625C42.0353 3.5792 44.1752 5.92037 43.9887 8.49176C43.6568 13.0639 42.6097 19.6571 41.2709 25.7736C39.9504 31.8066 38.2766 37.7108 36.5963 40.712C35.4851 42.6968 33.1868 42.956 31.563 42.1265C30.4357 41.5505 28.6768 40.5824 26.1386 39.0083C23.5868 41.591 20.6184 43.4743 17.5982 43.9762C17.3892 44.0109 17.1759 44.0122 16.9664 43.98C15.7915 43.7993 15.1126 42.9364 14.779 42.3934C14.4103 41.7931 14.1492 41.0769 13.9529 40.3923C13.5548 39.0034 13.2943 37.2723 13.1184 35.6548C12.9401 34.0156 12.839 32.3987 12.7823 31.1981C12.7646 30.8221 12.7511 30.4853 12.741 30.1996C8.81347 27.3948 6.54952 25.5145 5.2538 24.3178C4.39458 23.5242 3.92346 22.42 4.0102 21.2639C4.09703 20.1064 4.72914 19.0832 5.70374 18.4284C8.83945 16.3217 14.8763 13.1441 21.2192 10.3109C27.5393 7.48785 34.4225 4.88898 39.2262 4.0625ZM16.712 29.114L16.7126 29.1438C16.713 29.1654 16.7136 29.1983 16.7146 29.2419C16.7165 29.3291 16.7197 29.4587 16.7246 29.6248C16.7344 29.9571 16.7509 30.4346 16.7781 31.0096C16.8325 32.1631 16.9287 33.6925 17.0951 35.2222C17.1619 35.8361 17.2385 36.4357 17.3255 37.0016C17.9721 34.3366 18.3755 31.8284 18.5267 30.8091C18.6199 30.1817 18.8681 29.5667 19.2923 29.0336C21.9475 25.6967 25.1909 22.0842 27.7544 19.3211C29.0394 17.9361 30.1602 16.7574 30.9603 15.9245C31.3604 15.5079 31.6805 15.1775 31.9012 14.9508C32.0116 14.8374 32.0971 14.7499 32.1553 14.6904C32.1844 14.6607 32.2066 14.6379 32.2218 14.6225L32.245 14.5989C32.245 14.5989 32.2455 14.5983 33.6713 16.001L32.245 14.5989C33.0197 13.8115 34.2866 13.8006 35.074 14.5753C35.8614 15.35 35.8717 16.6163 35.097 17.4037M35.097 17.4037L35.0769 17.4242C35.063 17.4384 35.0419 17.4599 35.0141 17.4883C34.9585 17.5451 34.8757 17.6299 34.7681 17.7405C34.5529 17.9616 34.2388 18.2857 33.8452 18.6955C33.0577 19.5153 31.9532 20.6769 30.6868 22.0418C28.1646 24.7603 25.0265 28.2578 22.4742 31.4594C22.3132 32.5359 21.8879 35.1824 21.1897 38.0382C22.2235 37.2709 23.27 36.2958 24.2858 35.1225C24.935 34.3727 26.0356 34.2119 26.8722 34.7446C29.983 36.7256 32.0356 37.8691 33.248 38.495C34.566 35.9723 36.0779 30.7906 37.3632 24.9183C38.6767 18.9175 39.6854 12.5235 39.999 8.20224C40.0083 8.07404 39.962 8.01874 39.9499 8.007L39.9441 8.00211C39.9391 8.00147 39.9268 8.00092 39.9045 8.00475C35.6295 8.74026 29.1359 11.1558 22.8507 13.9632C16.7684 16.6801 11.1251 19.6532 8.18814 21.5804C9.45527 22.7262 11.7662 24.6206 15.865 27.5115C16.387 27.8797 16.7018 28.4753 16.712 29.114" fill="#646464"/>
</svg>
