<svg width="48" height="48" viewBox="0 0 48 48" fill="none" xmlns="http://www.w3.org/2000/svg">
<path fill-rule="evenodd" clip-rule="evenodd" d="M15.1224 10.7633C15.7217 11.6911 15.4554 12.9291 14.5275 13.5284C10.5454 16.1004 7.9165 20.5721 7.9165 25.6566C7.9165 33.6239 14.3753 40.0827 22.3426 40.0827C27.4528 40.0827 31.9442 37.427 34.5097 33.411C35.1044 32.4802 36.341 32.2076 37.2719 32.8023C38.2027 33.3969 38.4752 34.6336 37.8806 35.5644C34.6112 40.6823 28.8746 44.0827 22.3426 44.0827C12.1661 44.0827 3.9165 35.8331 3.9165 25.6566C3.9165 19.1576 7.28272 13.4459 12.3573 10.1683C13.2851 9.56905 14.5231 9.83541 15.1224 10.7633Z" fill="#646464"/>
<path fill-rule="evenodd" clip-rule="evenodd" d="M18.9954 8.22314C19.3158 5.68767 21.5652 3.79189 24.2085 4.11873C34.4764 5.38833 42.6112 13.5231 43.8808 23.791C44.2076 26.4343 42.3119 28.6837 39.7764 29.0041C37.9733 29.2318 35.2903 29.4568 31.7281 29.4568C28.0953 29.4568 25.3769 29.2229 23.5736 28.9905M22.9639 8.72448C23.0215 8.26884 23.369 8.04538 23.7177 8.0885C32.1655 9.13306 38.8664 15.834 39.9111 24.2818C39.9542 24.6306 39.7307 24.9781 39.2749 25.0357C37.6368 25.2425 35.1213 25.4568 31.7281 25.4568C28.2675 25.4568 25.7198 25.234 24.0847 25.0233C23.4824 24.9457 23.0538 24.5172 22.9762 23.9149C22.7656 22.2798 22.5427 19.7321 22.5427 16.2715C22.5427 12.8782 22.757 10.3627 22.9639 8.72448ZM18.9954 8.22314C18.7677 10.0262 18.5427 12.7092 18.5427 16.2715L18.9954 8.22314ZM18.5427 16.2715C18.5427 19.9043 18.7767 22.6226 19.009 24.426L18.5427 16.2715ZM19.009 24.426C19.319 26.832 21.1676 28.6806 23.5736 28.9905L19.009 24.426Z" fill="#646464"/>
<path fill-rule="evenodd" clip-rule="evenodd" d="M24.2085 4.11873C21.5652 3.79189 19.3158 5.68767 18.9954 8.22314C18.7677 10.0262 18.5427 12.7092 18.5427 16.2715C18.5427 19.9043 18.7767 22.6226 19.009 24.426C19.319 26.832 21.1676 28.6806 23.5736 28.9905C25.3769 29.2229 28.0953 29.4568 31.7281 29.4568C35.2903 29.4568 37.9733 29.2318 39.7764 29.0041C42.3119 28.6837 44.2076 26.4343 43.8808 23.791C42.6112 13.5231 34.4764 5.38833 24.2085 4.11873ZM23.7177 8.0885C23.369 8.04538 23.0215 8.26884 22.9639 8.72448C22.757 10.3627 22.5427 12.8782 22.5427 16.2715C22.5427 19.7321 22.7656 22.2798 22.9762 23.9149C23.0538 24.5172 23.4824 24.9457 24.0847 25.0233C25.7198 25.234 28.2675 25.4568 31.7281 25.4568C35.1213 25.4568 37.6368 25.2425 39.2749 25.0357C39.7307 24.9781 39.9542 24.6306 39.9111 24.2818C38.8664 15.834 32.1655 9.13306 23.7177 8.0885Z" fill="#646464"/>
</svg>
