<svg width="48" height="48" viewBox="0 0 48 48" fill="none" xmlns="http://www.w3.org/2000/svg">
<path fill-rule="evenodd" clip-rule="evenodd" d="M30.4941 7.90997C34.2228 11.2718 36.7634 15.7731 37.2164 20.7732C37.7674 26.8547 37.5109 39.6316 32.8702 42.272C28.8047 44.5851 19.4119 44.3749 15.1361 42.272C10.7781 39.5383 10.2247 26.8706 10.7771 20.7732C11.2302 15.7731 13.7157 11.2718 17.4443 7.90996C19.7246 5.85408 22.2559 4 23.9692 4C25.6825 4 28.214 5.85409 30.4941 7.90997ZM23.9675 25.469C21.3129 25.469 19.1609 23.317 19.1609 20.6625C19.1609 18.0079 21.3129 15.856 23.9675 15.856C26.622 15.856 28.774 18.0079 28.774 20.6625C28.774 23.317 26.622 25.469 23.9675 25.469Z" fill="#646464"/>
<path d="M37.9961 40.6455L42.0061 43.8217C43.5646 44.4658 45.2468 43.2913 45.2035 41.4846C45.1088 37.5366 44.4495 32.2967 43.8856 30.6459C43.4218 29.2886 42.4948 28.2017 41.3321 27.4922C41.0198 27.3015 40.7127 27.1272 40.4165 26.9686C40.4174 33.4205 39.5885 37.4782 37.9961 40.6455Z" fill="#646464"/>
<path d="M10.0041 40.6455L5.99414 43.8217C4.43558 44.4658 2.75337 43.2913 2.79672 41.4846C2.89138 37.5366 3.55072 32.2967 4.11465 30.6459C4.57845 29.2886 5.50539 28.2017 6.6681 27.4922C6.98042 27.3015 7.28746 27.1272 7.58367 26.9686C7.58281 33.4205 8.41172 37.4782 10.0041 40.6455Z" fill="#646464"/>
</svg>
