<svg width="48" height="48" viewBox="0 0 48 48" fill="none" xmlns="http://www.w3.org/2000/svg">
<path fill-rule="evenodd" clip-rule="evenodd" d="M40 24C40 32.8366 32.8366 40 24 40C15.1634 40 8 32.8366 8 24C8 15.1634 15.1634 8 24 8C32.8366 8 40 15.1634 40 24ZM44 24C44 35.0457 35.0457 44 24 44C12.9543 44 4 35.0457 4 24C4 12.9543 12.9543 4 24 4C35.0457 4 44 12.9543 44 24ZM32 24.0001C32 28.4184 28.4183 32.0001 24 32.0001C19.5817 32.0001 16 28.4184 16 24.0001C16 19.5818 19.5817 16.0001 24 16.0001C28.4183 16.0001 32 19.5818 32 24.0001Z" fill="#646464"/>
</svg>
