<svg width="48" height="48" viewBox="0 0 48 48" fill="none" xmlns="http://www.w3.org/2000/svg">
<path fill-rule="evenodd" clip-rule="evenodd" d="M4 12.54C4 14.8135 4.8966 16.9683 6.46497 18.5547C5.92892 20.2761 5.64001 22.1051 5.64001 24C5.64001 27.8036 6.80401 31.3416 8.79433 34.2764C8.20049 35.5223 7.62526 36.7472 7.22005 37.62C6.48005 39.22 6.78005 41.06 7.98005 42.2C8.36005 42.58 8.78005 42.88 9.20005 43.12C9.64005 43.36 10.14 43.56 10.72 43.72C11.04 43.8 11.36 43.84 11.68 43.84V43.86C12.92 43.86 14.14 43.24 14.94 42.14C15.2597 41.7061 15.6577 41.1614 16.0891 40.5655C18.4863 41.7155 21.1696 42.36 24 42.36C26.8369 42.36 29.5261 41.7125 31.9274 40.5575L33.06 42.12C33.88 43.22 35.08 43.84 36.32 43.84L36.3 43.82C36.62 43.82 36.94 43.78 37.26 43.7C37.86 43.54 38.36 43.34 38.78 43.1C39.22 42.86 39.62 42.56 40.02 42.18C41.22 41.06 41.54 39.2 40.78 37.6C40.376 36.73 39.8031 35.51 39.2113 34.2681C41.1982 31.335 42.36 27.8 42.36 24C42.36 22.1051 42.0711 20.276 41.535 18.5547C43.1034 16.9682 44 14.8134 44 12.54C44 7.84 40.18 4 35.46 4C33.1865 4 31.0317 4.89659 29.4453 6.46495C27.7239 5.92891 25.8949 5.64001 24 5.64001C22.1051 5.64001 20.2761 5.92892 18.5547 6.46497C16.9683 4.8966 14.8135 4 12.54 4C7.84 4 4 7.84 4 12.54ZM36.5445 10.6082C36.7975 10.8453 37.0438 11.0895 37.283 11.3404C38.1625 12.2626 38.9475 13.2751 39.62 14.36C39.86 13.8 40 13.18 40 12.56C40 10.06 37.96 8.02 35.46 8.02C34.8227 8.02 34.2251 8.1588 33.6672 8.39691C34.6969 9.03768 35.6612 9.77995 36.5445 10.6082ZM12.54 8C10.04 8 8 10.04 8 12.54C8 13.16 8.14 13.78 8.38 14.34C9.88 11.92 11.94 9.86 14.36 8.36C13.8 8.12 13.18 7.98 12.56 7.98L12.54 8ZM9.64001 24C9.64001 16.08 16.08 9.64001 24 9.64001C31.92 9.64001 38.36 16.08 38.36 24C38.36 31.92 31.92 38.36 24 38.36C16.08 38.36 9.64001 31.92 9.64001 24ZM35.34 38.44L36.3 39.76C36.5237 39.76 36.6953 39.6905 36.7985 39.6487L36.82 39.64C36.96 39.56 37.12 39.44 37.28 39.28C37.0563 38.8966 36.8199 38.4495 36.5606 37.9589L36.36 37.58C36.02 37.88 35.68 38.18 35.34 38.44ZM10.84 39.32C11.0601 38.84 11.34 38.24 11.64 37.6C11.8844 37.8291 12.1521 38.0465 12.4165 38.2612C12.4982 38.3277 12.5797 38.3938 12.66 38.46C12.32 38.96 12 39.44 11.76 39.86C11.4401 39.78 11.26 39.7 11.16 39.64C11.02 39.56 10.88 39.44 10.84 39.32Z" fill="#646464"/>
<path d="M23.9 26.745H32.75C33.85 26.745 34.75 25.845 34.75 24.745C34.75 23.645 33.85 22.745 32.75 22.745H25.9V15.9062C25.9 14.8062 25 13.9062 23.9 13.9062C22.8 13.9062 21.9 14.8062 21.9 15.9062V24.745C21.9 25.845 22.8 26.745 23.9 26.745Z" fill="#646464"/>
</svg>
