<svg width="48" height="48" viewBox="0 0 48 48" fill="none" xmlns="http://www.w3.org/2000/svg">
<path d="M43.84 15.7741C43.78 14.3148 43.28 12.9555 42.4 11.8361C41.42 10.5767 40.42 9.47726 39.48 8.51774C38.54 7.55822 37.42 6.57871 36.16 5.5992C35.04 4.71964 33.68 4.21989 32.22 4.15992C31.56 4.13993 30.86 4.11994 30.16 4.09995C30.16 4.09995 30.14 4.09995 30.12 4.09995C28.18 4.03998 26.14 4 23.98 4C17.46 4 12.96 4.25987 10.32 4.45977C7.2 4.73963 4.72 7.21839 4.46 10.3568C4.24 12.9955 4 17.4933 4 24.01C4 30.5267 4.26 35.0245 4.46 37.6632C4.72 40.8016 7.18 43.2804 10.34 43.5402C12.96 43.7601 17.46 44 24 44C30.54 44 35.04 43.7401 37.66 43.5402C40.8 43.2804 43.28 40.8216 43.54 37.6632C43.76 35.0445 44 30.5467 44 24.01C44 21.0715 43.94 18.3128 43.84 15.7741ZM28.3 8.05797C28.3 8.05797 28.3 8.1979 28.3 8.27786C28.3 9.13743 28.28 9.87706 28.24 10.4768C28.22 10.9565 27.84 11.1564 27.48 11.1564C26.6 11.1964 25.44 11.2164 23.98 11.2164C22.52 11.2164 21.38 11.1964 20.48 11.1564C20.14 11.1564 19.76 10.9565 19.72 10.4768C19.68 9.87706 19.66 9.13743 19.66 8.27786C19.66 8.1979 19.66 8.13793 19.66 8.05797C20.98 8.03798 22.4 8.01799 23.96 8.01799C25.52 8.01799 26.88 8.01799 28.26 8.05797H28.3ZM15.3 39.8221C15.22 38.1629 15.2 36.3238 15.2 34.3448C15.2 30.4668 15.34 27.7881 15.46 26.2089C15.5 25.7291 15.82 25.3893 16.3 25.3493C17.78 25.2294 20.34 25.0895 24 25.0895C27.66 25.0895 30.2 25.2294 31.7 25.3493C32.18 25.3893 32.52 25.7291 32.54 26.2089C32.66 27.7881 32.8 30.4668 32.8 34.3448C32.8 36.3038 32.76 38.1429 32.7 39.8221C30.38 39.922 27.5 40.002 24 40.002C20.5 40.002 17.62 39.922 15.3 39.8221ZM39.54 37.3433C39.44 38.5427 38.54 39.4623 37.32 39.5622C37.12 39.5622 36.9 39.6022 36.7 39.6022C36.76 37.983 36.8 36.2439 36.8 34.3648C36.8 30.3668 36.66 27.5882 36.52 25.929C36.34 23.4903 34.44 21.5912 32 21.3913C29.76 21.2114 27 21.1114 23.98 21.1114C20.96 21.1114 18.2 21.2114 15.96 21.3913C13.52 21.5912 11.62 23.4903 11.44 25.929C11.32 27.5682 11.16 30.3468 11.16 34.3648C11.16 36.2439 11.2 37.983 11.26 39.6022C11.04 39.6022 10.82 39.5622 10.64 39.5622C9.44 39.4623 8.52 38.5627 8.42 37.3433C8.22 34.7846 7.96 30.4068 7.96 24.01C7.96 17.6132 8.2 13.2354 8.42 10.6767C8.52 9.47726 9.42 8.55772 10.64 8.45777C11.88 8.35782 13.56 8.25787 15.68 8.15792C15.68 8.1979 15.68 8.21789 15.68 8.25787C15.68 9.1974 15.7 9.997 15.74 10.6567C15.86 13.0955 17.84 15.0145 20.32 15.1344C21.26 15.1744 22.46 15.1944 23.98 15.1944C25.5 15.1944 26.72 15.1544 27.64 15.1344C30.12 15.0345 32.08 13.1154 32.22 10.6567C32.26 9.997 32.28 9.1974 32.28 8.25787C32.28 8.23788 32.28 8.21789 32.28 8.1979C32.8 8.25787 33.28 8.41779 33.68 8.73763C34.82 9.63718 35.8 10.5167 36.64 11.3563C37.48 12.1959 38.36 13.1954 39.26 14.3148C39.62 14.7546 39.82 15.3143 39.84 15.934C39.94 18.4128 39.98 21.1314 39.98 24.01C39.98 30.4268 39.74 34.7846 39.52 37.3433H39.54Z" fill="#646464"/>
</svg>
