<svg width="48" height="48" viewBox="0 0 48 48" fill="none" xmlns="http://www.w3.org/2000/svg">
<path fill-rule="evenodd" clip-rule="evenodd" d="M24 4C12.9543 4 4 12.9543 4 24C4 35.0457 12.9543 44 24 44C35.0457 44 44 35.0457 44 24C44 12.9543 35.0457 4 24 4ZM24 8C15.1634 8 8 15.1634 8 24C8 32.8366 15.1634 40 24 40C32.8366 40 40 32.8366 40 24C40 15.1634 32.8366 8 24 8Z" fill="#646464"/>
<path fill-rule="evenodd" clip-rule="evenodd" d="M24.0002 14.0002C21.6048 14.0002 19.7998 14.0756 18.5202 14.1618C16.1573 14.3208 14.3208 16.1571 14.1618 18.5201L14.0002 24.0002L14.1618 29.4802C14.3208 31.8431 16.1571 33.6795 18.5201 33.8385L24.0002 34.0002L29.4803 33.8385C31.8432 33.6795 33.6795 31.8431 33.8385 29.4802L33.8385 18.5201C33.6795 16.1571 31.8431 14.3208 29.4802 14.1618C28.2005 14.0756 26.3956 14.0002 24.0002 14.0002ZM24.0002 18.0002C21.6885 18.0002 19.9733 18.073 18.7888 18.1528C18.4233 18.1774 18.1774 18.4232 18.1528 18.7886C18.073 19.9732 18.0002 21.6885 18.0002 24.0002C18.0002 26.3119 18.073 28.027 18.1528 29.2116C18.1774 29.577 18.4232 29.823 18.7886 29.8476C19.9732 29.9273 21.6885 30.0002 24.0002 30.0002C26.3119 30.0002 28.027 29.9273 29.2116 29.8476C29.577 29.823 29.823 29.5772 29.8476 29.2117C29.9273 28.0272 30.0002 26.3119 30.0002 24.0002C30.0002 21.6885 29.9273 19.9733 29.8476 18.7888C29.823 18.4233 29.5772 18.1774 29.2117 18.1528C28.0272 18.073 26.3119 18.0002 24.0002 18.0002Z" fill="#646464"/>
</svg>
