<svg width="48" height="48" viewBox="0 0 48 48" fill="none" xmlns="http://www.w3.org/2000/svg">
<path fill-rule="evenodd" clip-rule="evenodd" d="M5.63647 8C5.63647 6.89543 6.53191 6 7.63647 6H40.3637C41.4683 6 42.3637 6.89543 42.3637 8C42.3637 9.10457 41.4683 10 40.3637 10H37.8093C37.9125 14.4977 36.2716 17.6374 34.4954 19.9466C33.8347 20.8055 33.0838 21.6293 32.4896 22.281C32.2352 22.56 32.0095 22.8076 31.8321 23.0128C31.4924 23.4055 31.2875 23.6806 31.1695 23.8871C31.1422 23.9349 31.1235 23.9723 31.1109 24C31.1235 24.0277 31.1422 24.0651 31.1695 24.1129C31.2875 24.3194 31.4924 24.5945 31.8321 24.9872C32.0095 25.1924 32.2351 25.4399 32.4895 25.7189C33.0836 26.3706 33.8347 27.1945 34.4954 28.0534C36.2716 30.3626 37.9125 33.5023 37.8093 38H40.3637C41.4683 38 42.3637 38.8954 42.3637 40C42.3637 41.1046 41.4683 42 40.3637 42H7.63647C6.53191 42 5.63647 41.1046 5.63647 40C5.63647 38.8954 6.53191 38 7.63647 38H10.1921C10.0891 33.5022 11.7303 30.3625 13.5067 28.0533C14.1674 27.1944 14.9184 26.3707 15.5126 25.719C15.767 25.4399 15.9927 25.1924 16.1702 24.9871C16.5099 24.5944 16.7148 24.3193 16.8329 24.1128C16.8602 24.065 16.8788 24.0277 16.8914 24C16.8788 23.9723 16.8602 23.935 16.8329 23.8872C16.7148 23.6807 16.5099 23.4056 16.1702 23.0129C15.9927 22.8076 15.767 22.5601 15.5126 22.281C14.9184 21.6293 14.1673 20.8055 13.5067 19.9467C11.7303 17.6375 10.0891 14.4978 10.1921 10H7.63647C6.53191 10 5.63647 9.10457 5.63647 8ZM14.1937 38H33.8077C33.9089 34.5492 32.6845 32.2598 31.3248 30.4921C30.7604 29.7584 30.235 29.1842 29.7014 28.6011C29.4082 28.2807 29.1124 27.9574 28.8065 27.6037C28.4189 27.1555 28.0103 26.6465 27.6965 26.0974C27.3789 25.5415 27.0921 24.8312 27.0921 24C27.0921 23.1688 27.3789 22.4585 27.6965 21.9026C28.0103 21.3535 28.4189 20.8445 28.8065 20.3963C29.1124 20.0426 29.4081 19.7194 29.7013 19.399C30.2349 18.8159 30.7604 18.2416 31.3248 17.5079C32.6845 15.7402 33.9089 13.4508 33.8077 10H14.1937C14.0927 13.4508 15.3173 15.7401 16.6772 17.5078C17.2415 18.2415 17.767 18.8157 18.3006 19.3988C18.5939 19.7192 18.8897 20.0424 19.1956 20.3962C19.5833 20.8444 19.992 21.3534 20.3058 21.9026C20.6234 22.4584 20.9103 23.1688 20.9103 24C20.9103 24.8312 20.6234 25.5416 20.3058 26.0974C19.992 26.6466 19.5833 27.1556 19.1956 27.6038C18.8897 27.9576 18.5939 28.2807 18.3006 28.6012C17.7671 29.1843 17.2415 29.7585 16.6772 30.4922C15.3173 32.2599 14.0927 34.5492 14.1937 38Z" fill="#646464"/>
</svg>
