<svg width="48" height="48" viewBox="0 0 48 48" fill="none" xmlns="http://www.w3.org/2000/svg">
<path fill-rule="evenodd" clip-rule="evenodd" d="M8 24C8 22.6186 8.17506 21.2781 8.5042 19.9995H14.4679C14.348 21.2953 14.2856 22.6339 14.2856 24C14.2856 25.3591 14.3477 26.698 14.4681 27.9995L8.50385 27.999C8.17492 26.7207 8 25.3807 8 24ZM4 24C4 21.669 4.39876 19.4312 5.13178 17.3511L5.1447 17.3145C7.89557 9.55638 15.2989 4 24 4C32.6877 4 40.079 9.53777 42.841 17.276C42.8556 17.3135 42.869 17.3515 42.8814 17.3901C43.2508 18.4455 43.5344 19.5413 43.7236 20.6691C43.9063 21.7584 43.1714 22.7897 42.082 22.9724C40.9927 23.1552 39.9614 22.4203 39.7787 21.3309C39.7031 20.8804 39.6087 20.4363 39.4963 19.9995H33.5231C33.5246 21.0181 32.7511 21.89 31.7166 21.9906C30.6172 22.0975 29.6393 21.293 29.5324 20.1936L29.513 19.9995H18.4867C18.3559 21.275 18.2856 22.6144 18.2856 24C18.2856 25.3928 18.3562 26.731 18.4863 27.9998L20.0002 27.9999C21.1047 28 22.0001 28.8955 22 30.0001C21.9999 31.1046 21.1044 32 19.9998 31.9999L19.1353 31.9999C19.8179 34.9905 20.8502 37.3342 22.002 38.7235C22.3814 39.1811 22.7402 39.4934 23.0595 39.6929C23.7423 40.1193 24.0789 40.8903 23.9847 41.6398C24.0039 41.7926 24.0056 41.9501 23.9879 42.1099C23.8665 43.2078 22.8781 43.9994 21.7803 43.878C21.2031 43.8142 20.6332 43.7258 20.0715 43.6139C19.0137 43.4031 17.9859 43.1089 16.9952 42.7384C9.40746 39.9009 4 32.5845 4 24ZM15.0454 15.9995H10.1408C11.7604 13.1999 14.2039 10.9366 17.1398 9.54116C16.989 9.84779 16.8447 10.1625 16.7068 10.4842C16.0153 12.0979 15.4533 13.9618 15.0454 15.9995ZM22.4021 8.83803C23.0735 8.17539 23.6112 8 24 8C24.6398 8 25.7402 8.53845 26.9329 10.6633C27.7032 12.0355 28.3742 13.8514 28.8642 15.9995H19.1356C19.4718 14.5256 19.8954 13.1987 20.3834 12.0599C21.0179 10.5795 21.722 9.50916 22.4021 8.83803ZM37.8597 15.9995H32.9543C32.4684 13.5715 31.7598 11.3705 30.8601 9.54127C33.7961 10.9367 36.24 13.2 37.8597 15.9995ZM10.1399 31.9992L15.0455 31.9995C15.5311 34.4278 16.2394 36.6285 17.1404 38.4597C14.2029 37.0636 11.7593 34.7993 10.1399 31.9992ZM28 35C28 31.134 31.134 28 35 28C38.866 28 42 31.1341 42 35C42 38.866 38.8659 42 35 42C31.1341 42 28 38.866 28 35ZM35 24C28.9249 24 24 28.9249 24 35C24 41.0752 28.9249 46 35 46C41.0751 46 46 41.0752 46 35C46 28.9249 41.0752 24 35 24ZM36.5996 31.6001C36.5996 30.4955 35.7042 29.6001 34.5996 29.6001C33.495 29.6001 32.5996 30.4955 32.5996 31.6001V35.4419C32.5996 36.1884 33.0153 36.8727 33.6778 37.2168L36.6779 38.775C37.6581 39.2841 38.8655 38.9022 39.3746 37.922C39.8837 36.9417 39.5018 35.7344 38.5216 35.2252L36.5996 34.227V31.6001Z" fill="#646464"/>
</svg>
