<svg width="48" height="48" viewBox="0 0 48 48" fill="none" xmlns="http://www.w3.org/2000/svg">
<path d="M19.9601 43.98H20.9001L20.8801 43.96C21.9601 43.96 22.8601 43.08 22.8801 42C22.9001 40.9 22.0201 39.98 20.9201 39.94H20.0401C16.8401 39.86 13.9601 39.7 11.5201 39.44C10.9601 39.38 10.5001 39.14 10.2201 38.74C10.0201 38.44 9.9601 38.1 10.0401 37.72C10.9601 33.88 13.8601 29.14 19.2601 27.32C20.0201 27.08 20.5401 26.42 20.6201 25.64C20.7201 24.88 20.3401 24.12 19.6601 23.72C17.0601 22.18 15.5001 19.46 15.5001 16.46C15.5001 11.8 19.3201 8 24.0001 8C28.6801 8 32.5001 11.8 32.5001 16.46C32.5001 17.56 33.4001 18.46 34.5001 18.46C35.6001 18.46 36.5001 17.56 36.5001 16.46C36.5001 9.58 30.9001 4 24.0001 4C17.1001 4 11.5001 9.58 11.5001 16.46C11.5001 19.64 12.7401 22.68 14.8801 24.96C10.6001 27.44 7.3801 31.74 6.1601 36.8C5.8001 38.3 6.0801 39.82 6.9601 41.06C7.9001 42.4 9.4001 43.26 11.1001 43.44C13.6601 43.7 16.6401 43.88 19.9601 43.98Z" fill="#646464"/>
<path fill-rule="evenodd" clip-rule="evenodd" d="M30.3201 43.8402C31.5801 43.9402 33.1601 44.0002 35.0401 44.0002C36.9201 44.0002 38.5001 43.9402 39.7601 43.8402C42.0801 43.6402 43.7401 41.9602 43.9001 39.6402C43.9601 38.8202 44.0001 37.7402 44.0001 36.2802C44.0001 34.8202 43.9601 33.7202 43.9001 32.9202C43.7601 30.9602 42.4801 29.4002 40.6601 28.8802L40.5601 26.4802C40.4401 23.5202 38.0201 21.2002 35.0401 21.2002C32.0601 21.2002 29.6401 23.5202 29.5201 26.4802L29.4201 28.9002C27.5601 29.4802 26.2801 31.1002 26.1601 33.1602C26.1201 33.9402 26.0801 34.9602 26.0801 36.2802C26.0801 37.7402 26.1201 38.8402 26.1801 39.6402C26.3401 41.9402 28.0001 43.6402 30.3201 43.8402ZM30.8001 32.6802C31.9601 32.5802 33.3801 32.5402 35.0401 32.5402V32.5002C36.8001 32.5002 38.2601 32.5602 39.4001 32.6602C39.7401 32.6802 39.8801 32.8202 39.9001 33.1602C39.9401 33.9002 39.9801 34.9002 39.9801 36.2402C39.9801 37.5802 39.9601 38.5802 39.9001 39.3202C39.8801 39.6402 39.7401 39.8002 39.4001 39.8202C38.2601 39.9202 36.8001 39.9802 35.0401 39.9802C33.2801 39.9802 31.8201 39.9202 30.6801 39.8202C30.3401 39.8002 30.2001 39.6602 30.1801 39.3202C30.1201 38.5802 30.0801 37.6002 30.0801 36.2602C30.0801 35.0202 30.1001 34.0802 30.1401 33.3602C30.1801 32.9202 30.3801 32.7202 30.8001 32.6802ZM33.5201 26.6402C33.5601 25.8202 34.2201 25.1802 35.0401 25.1802C35.8601 25.1802 36.5201 25.8202 36.5601 26.6402L36.6401 28.5602H33.4401L33.5201 26.6402Z" fill="#646464"/>
</svg>
