<svg width="48" height="48" viewBox="0 0 48 48" fill="none" xmlns="http://www.w3.org/2000/svg">
<path d="M37.6598 29.52C36.5798 29.52 35.6798 28.66 35.6598 27.56C35.6398 26.46 36.4998 25.54 37.6198 25.52C38.4398 25.5 39.1598 25.46 39.7598 25.42C39.2798 24.24 38.2798 23.3 37.0198 22.88C36.2598 22.62 35.7198 21.94 35.6598 21.12C35.5998 20.32 36.0398 19.56 36.7398 19.2C37.6598 18.72 38.2398 17.78 38.2398 16.74C38.2398 15.22 36.9998 13.98 35.4798 13.98C35.2598 13.98 35.0598 14 34.8598 14.06C33.7798 14.32 32.6998 13.64 32.4598 12.56C32.1998 11.48 32.8798 10.4 33.9598 10.16C34.4598 10.04 34.9798 9.97998 35.4998 9.97998C39.2198 9.97998 42.2598 13 42.2598 16.74C42.2598 18.16 41.8198 19.5 41.0398 20.62C42.5198 21.86 43.5598 23.56 43.9198 25.5C44.0998 26.42 43.9198 27.3 43.3798 28.02C42.8598 28.74 42.0798 29.18 41.1598 29.3C40.2798 29.42 39.1198 29.48 37.6998 29.52H37.6598Z" fill="#646464"/>
<path d="M10.2999 29.52C8.85991 29.48 7.69991 29.42 6.83991 29.3C5.91991 29.18 5.13991 28.72 4.61991 28.02C4.09991 27.3 3.91991 26.42 4.07991 25.5C4.43991 23.58 5.47991 21.86 6.95991 20.62C6.17991 19.5 5.73991 18.16 5.73991 16.74C5.73991 13.02 8.75991 10 12.4799 10C12.9999 10 13.5199 10.06 14.0199 10.18C15.0999 10.44 15.7599 11.5 15.5199 12.58C15.2599 13.66 14.1999 14.32 13.1199 14.08C12.9199 14.04 12.7199 14 12.4999 14C10.9799 14 9.73991 15.24 9.73991 16.76C9.73991 17.8 10.3199 18.74 11.2399 19.22C11.9599 19.58 12.3799 20.34 12.3199 21.14C12.2599 21.94 11.7199 22.64 10.9599 22.9C9.69991 23.32 8.69991 24.26 8.21991 25.44C8.73991 25.48 9.43991 25.52 10.3599 25.54C11.4599 25.56 12.3399 26.48 12.3199 27.58C12.2999 28.66 11.3999 29.54 10.3199 29.54L10.3399 29.52H10.2999Z" fill="#646464"/>
<path fill-rule="evenodd" clip-rule="evenodd" d="M15.5402 37.62C17.4602 37.88 20.3602 38 24.1402 38C27.9202 38 30.8202 37.86 32.7402 37.62C33.8402 37.48 34.8002 36.94 35.4202 36.08C36.0602 35.22 36.2802 34.14 36.0602 33.04C35.4802 29.98 33.6802 27.28 31.1402 25.52C32.6402 23.84 33.4802 21.66 33.4802 19.34C33.4802 14.18 29.2802 10 24.1402 10C19.0002 10 14.8002 14.18 14.8002 19.34C14.8002 21.66 15.6602 23.84 17.1402 25.52C14.6002 27.28 12.8002 29.96 12.2202 33.04C12.0002 34.14 12.2402 35.22 12.8602 36.08C13.4802 36.94 14.4402 37.48 15.5402 37.62ZM24.1602 34C19.8402 34 17.4802 33.84 16.1802 33.68H16.1202C16.6802 30.96 18.7002 28.7 21.4202 27.78C22.1802 27.52 22.7202 26.82 22.7802 26.02C22.8402 25.22 22.4202 24.46 21.7002 24.1C19.9002 23.18 18.7802 21.36 18.7802 19.34C18.7802 16.4 21.1802 14 24.1202 14C27.0602 14 29.4602 16.4 29.4602 19.34C29.4602 21.36 28.3402 23.18 26.5402 24.1C25.8402 24.46 25.4002 25.22 25.4602 26.02C25.5202 26.84 26.0602 27.52 26.8202 27.78C29.5202 28.68 31.5402 30.92 32.1202 33.68C30.8802 33.82 28.4802 34 24.1602 34Z" fill="#646464"/>
</svg>
