<svg width="48" height="48" viewBox="0 0 48 48" fill="none" xmlns="http://www.w3.org/2000/svg">
<path d="M18.9601 43.92H18.9001L17.9401 43.88C15.4201 43.78 13.1201 43.64 11.1001 43.42C9.4001 43.24 7.9001 42.38 6.9601 41.04C6.0801 39.8 5.8001 38.28 6.1601 36.78C7.3801 31.72 10.6001 27.42 14.8801 24.94C12.7401 22.66 11.5001 19.62 11.5001 16.44C11.5001 9.58 17.1001 4 24.0001 4C30.9001 4 36.5001 9.58 36.5001 16.46C36.5001 17.22 36.4401 17.98 36.3001 18.7C36.1001 19.78 35.0401 20.5 33.9601 20.3C32.8801 20.1 32.1601 19.06 32.3601 17.96C32.4401 17.48 32.5001 16.96 32.5001 16.44C32.5001 11.78 28.6801 7.98 24.0001 7.98C19.3201 7.98 15.5001 11.78 15.5001 16.44C15.5001 19.44 17.0601 22.16 19.6601 23.7C20.3401 24.1 20.7201 24.86 20.6201 25.62C20.5401 26.4 20.0201 27.06 19.2601 27.3C13.8601 29.12 10.9601 33.86 10.0401 37.7C9.9601 38.08 10.0201 38.42 10.2201 38.72C10.5001 39.12 10.9601 39.36 11.5201 39.42C13.4401 39.62 15.6401 39.78 18.0801 39.86H19.0201C20.1201 39.92 21.0001 40.84 20.9601 41.94C20.9201 43.02 20.0401 43.88 18.9601 43.88V43.92Z" fill="#646464"/>
<path fill-rule="evenodd" clip-rule="evenodd" d="M29.7401 43.9999C29.0801 43.9999 28.3201 43.9799 27.4201 43.9199C25.6201 43.8199 24.2001 42.3799 24.0801 40.5799C23.9601 38.5999 24.0001 37.2199 24.0801 36.4199C24.1601 35.3399 24.6401 34.3399 25.4601 33.5199L34.5001 24.4799C36.5201 22.4599 39.3601 22.1399 41.4001 23.6799C41.9201 24.0799 42.4401 24.5399 42.9601 25.0599C43.4601 25.5599 43.9201 26.0799 44.3201 26.5999C45.8801 28.6399 45.5401 31.4799 43.5201 33.4999L34.4801 42.5399C33.6601 43.3599 32.6601 43.8399 31.5801 43.9199C31.1401 43.9599 30.5201 43.9799 29.7401 43.9799V43.9999ZM28.0401 39.9399C29.5801 40.0199 30.6201 39.9799 31.2401 39.9399C31.4001 39.9399 31.5401 39.7999 31.6201 39.7199L36.2174 35.1227C35.9591 34.676 35.5047 34.0247 34.7401 33.2601C33.9624 32.4824 33.2773 32.0194 32.8185 31.7615L28.2401 36.3399C28.1201 36.4599 28.0401 36.5999 28.0201 36.7199C27.9801 37.3399 27.9401 38.3799 28.0201 39.9399H28.0401ZM35.7029 28.8771C36.2595 29.2703 36.8802 29.7802 37.5401 30.4401C38.1907 31.0907 38.6955 31.7032 39.0863 32.2537L40.6601 30.6799C41.0201 30.3199 41.5201 29.5799 41.1001 29.0399C40.8401 28.6799 40.5001 28.2999 40.0801 27.8799C39.6601 27.4599 39.2801 27.1199 38.9201 26.8599C38.3801 26.4399 37.6401 26.9399 37.2801 27.2999L35.7029 28.8771Z" fill="#646464"/>
</svg>
