<svg width="48" height="48" viewBox="0 0 48 48" fill="none" xmlns="http://www.w3.org/2000/svg">
<path d="M19.0995 39.98C14.7995 39.98 11.4595 39.6 9.39953 39.26C6.61953 38.82 4.53953 36.54 4.31953 33.7C4.17953 31.8 4.01953 27.94 4.01953 23.94C4.01953 19.94 4.17953 16.24 4.31953 14.26C4.51953 11.44 6.61953 9.16 9.37953 8.72C11.4395 8.4 14.7995 8 19.0795 8C23.3595 8 26.7395 8.38 28.7795 8.72C31.5595 9.16 33.6395 11.44 33.8595 14.28C33.8795 14.64 33.9195 15.14 33.9395 15.72C35.3395 14.96 36.7195 14.34 38.0795 13.84C39.2595 13.4 40.5395 13.52 41.5995 14.16C42.6795 14.82 43.3995 15.92 43.5595 17.18C43.7595 18.68 43.9795 21.06 43.9795 23.96C43.9795 26.86 43.7395 29.26 43.5595 30.74C43.3995 32 42.6795 33.12 41.5995 33.76C40.5395 34.4 39.2595 34.52 38.0795 34.08C36.7195 33.58 35.3395 32.94 33.9395 32.2C33.9195 32.8 33.8795 33.34 33.8595 33.72C33.6395 36.56 31.5595 38.84 28.7795 39.28C26.7195 39.6 23.3595 40 19.0795 40L19.0995 39.98ZM9.99953 35.3C11.9195 35.6 15.0595 35.96 19.0795 35.96C23.0995 35.96 26.2395 35.6 28.1595 35.3C29.0995 35.14 29.7995 34.38 29.8795 33.38C29.9595 32.44 30.0195 30.46 30.0795 28.98V28.66C30.1195 27.94 30.5395 27.28 31.1795 26.96C31.8195 26.62 32.5995 26.66 33.1995 27.06C35.3395 28.46 37.4595 29.56 39.4795 30.32C39.7795 28.82 39.9995 26.62 39.9995 23.94C39.9995 21.26 39.7795 19.06 39.5995 17.68C37.4395 18.32 35.3195 19.42 33.1795 20.82C32.5795 21.22 31.7995 21.26 31.1595 20.92C30.5195 20.58 30.0995 19.94 30.0795 19.22C30.0195 17.66 29.9395 15.58 29.8595 14.58C29.7795 13.58 29.0995 12.82 28.1395 12.66C26.2195 12.36 23.0995 12 19.0595 12C15.0195 12 11.8995 12.36 9.97953 12.66C9.03953 12.8 8.33953 13.58 8.25953 14.58C8.11953 16.4 7.95953 20.12 7.95953 23.94C7.95953 27.76 8.11953 31.56 8.25953 33.38C8.33953 34.38 9.01953 35.14 9.97953 35.3H9.99953Z" fill="#646464"/>
</svg>
