<svg width="48" height="48" viewBox="0 0 48 48" fill="none" xmlns="http://www.w3.org/2000/svg">
<path fill-rule="evenodd" clip-rule="evenodd" d="M31.5427 4.00848C31.7493 4.00219 31.9701 3.99878 32.2061 3.99878C32.442 3.99878 32.6628 4.00219 32.8694 4.00848C35.2257 4.08014 36.5761 6.00123 36.6336 8.01238C36.6396 8.22035 36.6447 8.44005 36.6487 8.67063C37.0241 8.69478 37.3766 8.71916 37.7064 8.74341C40.6006 8.95621 42.8795 11.1611 43.1287 14.0753C43.3496 16.6573 43.5695 20.619 43.5695 26.1585C43.5695 31.698 43.3496 35.6596 43.1287 38.2416C42.8795 41.1558 40.6006 43.3607 37.7065 43.5736C34.8806 43.7814 30.3957 43.9988 24.001 43.9988C17.6062 43.9988 13.1214 43.7813 10.2955 43.5736C7.40138 43.3607 5.12253 41.1558 4.87319 38.2417C4.65231 35.6597 4.43237 31.698 4.43237 26.1585C4.43237 20.6189 4.65231 16.6574 4.87319 14.0753C5.12253 11.1612 7.40127 8.95622 10.2955 8.74341C10.6245 8.71921 10.9761 8.69489 11.3506 8.6708C11.3546 8.4402 11.3597 8.22049 11.3657 8.01247C11.4232 6.00132 12.7736 4.08014 15.1299 4.00848C15.3365 4.00219 15.5573 3.99878 15.7932 3.99878C16.0292 3.99878 16.25 4.00219 16.4567 4.00848C18.8129 4.0801 20.1633 6.00117 20.2208 8.01238C20.2239 8.12006 20.2267 8.23091 20.2293 8.34478C21.4041 8.32778 22.6606 8.31824 24.001 8.31824C25.3403 8.31824 26.5959 8.32777 27.77 8.34474C27.7726 8.23096 27.7754 8.12019 27.7785 8.01255C27.8359 6.00133 29.1864 4.08014 31.5427 4.00848ZM17.3662 11.3992C17.3801 10.9133 17.3879 10.3579 17.3879 9.74633C17.3879 9.13477 17.3785 8.58006 17.3646 8.09417C17.3402 7.23778 16.8811 6.88002 16.3698 6.86447C16.1936 6.85911 16.0017 6.8561 15.7932 6.8561C15.5847 6.8561 15.393 6.85911 15.2168 6.86447C14.7055 6.88001 14.2463 7.23761 14.2218 8.09408C14.2091 8.53715 14.2003 9.03762 14.1988 9.58643L14.2007 10.0113C14.203 10.5193 14.2115 10.9844 14.2234 11.3991C14.2479 12.2554 14.7069 12.6131 15.2184 12.6287C15.3945 12.634 15.5863 12.6371 15.7948 12.6371C16.0033 12.6371 16.195 12.634 16.3713 12.6287C16.8827 12.6131 17.3418 12.2554 17.3662 11.3992ZM33.8007 9.74633C33.8007 10.358 33.7924 10.9133 33.7785 11.3991C33.7541 12.2554 33.295 12.6131 32.7836 12.6287C32.6074 12.634 32.4156 12.6371 32.2071 12.6371C31.9986 12.6371 31.8069 12.634 31.6307 12.6287C31.1192 12.6131 30.6601 12.2553 30.6357 11.3991C30.6222 10.9265 30.613 10.389 30.6125 9.79723L30.6122 9.44219C30.6147 8.94966 30.6231 8.49795 30.6347 8.09399C30.6591 7.23764 31.1182 6.88002 31.6296 6.86447C31.8058 6.85911 31.9975 6.8561 32.2061 6.8561C32.4146 6.8561 32.6064 6.85911 32.7826 6.86447C33.2938 6.88002 33.753 7.2377 33.7775 8.09417C33.7914 8.57991 33.8007 9.13463 33.8007 9.74633ZM17.3995 20.4116C15.475 20.4116 13.8562 21.7048 13.3578 23.4668C13.143 24.226 13.5844 25.0156 14.3436 25.2304C15.1028 25.4451 15.8924 25.0038 16.1072 24.2445C16.2668 23.6803 16.7869 23.2689 17.3995 23.2689H18.9112C19.6529 23.2689 20.2539 23.8701 20.2539 24.6115C20.2539 25.353 19.6527 25.9542 18.9112 25.9542H18.1553C17.3663 25.9542 16.7267 26.5938 16.7267 27.3828C16.7267 28.1719 17.3663 28.8115 18.1553 28.8115L19.1636 28.8114C20.0441 28.8117 20.7578 29.5255 20.7578 30.406V30.9099C20.7578 31.7904 20.0439 32.5044 19.1631 32.5044H17.1476C16.4555 32.5044 15.8629 32.0627 15.6432 31.4413C15.3803 30.6974 14.564 30.3075 13.8201 30.5705C13.0762 30.8334 12.6863 31.6497 12.9493 32.3936C13.5598 34.1208 15.2069 35.3617 17.1476 35.3617H19.1631C21.6218 35.3617 23.6151 33.3686 23.6151 30.9099V30.406C23.6151 29.1374 23.0845 27.9928 22.2331 27.1819C22.7836 26.4715 23.1112 25.5797 23.1112 24.6115C23.1112 22.2918 21.2307 20.4116 18.9112 20.4116H17.3995ZM32.8316 21.8403C32.8316 21.0512 32.192 20.4116 31.403 20.4116C30.6139 20.4116 29.9743 21.0512 29.9743 21.8403C29.9743 22.7208 29.2604 23.4348 28.3797 23.4348H27.3718C26.5828 23.4348 25.9432 24.0744 25.9432 24.8634C25.9432 25.6525 26.5828 26.2921 27.3718 26.2921H28.3797C28.9416 26.2921 29.4792 26.188 29.9743 25.998V32.5044H27.3718C26.5828 32.5044 25.9432 33.144 25.9432 33.933C25.9432 34.722 26.5828 35.3617 27.3718 35.3617H35.434C36.223 35.3617 36.8626 34.722 36.8626 33.933C36.8626 33.144 36.223 32.5044 35.434 32.5044H32.8316V21.8403Z" fill="#E93D82"/>
</svg>
