<svg width="48" height="48" viewBox="0 0 48 48" fill="none" xmlns="http://www.w3.org/2000/svg">
<path fill-rule="evenodd" clip-rule="evenodd" d="M37.05 4.49828C40.5226 4.78041 43.2197 7.4775 43.5018 10.9501C43.7221 13.6612 43.9501 17.9325 43.9501 24C43.9501 30.0676 43.7221 34.3389 43.5018 37.05C43.2197 40.5226 40.5226 43.2197 37.05 43.5018C34.3389 43.7221 30.0676 43.9501 24 43.9501C17.9325 43.9501 13.6612 43.7221 10.9501 43.5018C7.47748 43.2197 4.78042 40.5226 4.49828 37.05C4.27801 34.3389 4.05005 30.0676 4.05005 24C4.05005 17.9325 4.278 13.6612 4.49828 10.9501C4.78041 7.47751 7.4775 4.78042 10.9501 4.49828C13.6612 4.27801 17.9325 4.05005 24 4.05005C30.0676 4.05005 34.3389 4.278 37.05 4.49828Z" fill="#E5484D"/>
<path d="M24.3738 15.9197C24.3017 16.8273 23.5267 17.4016 22.6168 17.4278C21.6084 17.4568 20.0594 17.4858 17.8925 17.4858C15.7256 17.4858 14.1766 17.4568 13.1683 17.4278C12.2583 17.4016 11.4833 16.8273 11.4112 15.9197C11.3909 15.6644 11.3782 15.3727 11.3782 15.0429C11.3782 14.7131 11.3909 14.4214 11.4112 14.1661C11.4833 13.2586 12.2583 12.6842 13.1683 12.658C14.1766 12.629 15.7256 12.6 17.8925 12.6C20.0594 12.6 21.6084 12.629 22.6168 12.658C23.5267 12.6842 24.3017 13.2586 24.3738 14.1661C24.3941 14.4214 24.4068 14.7131 24.4068 15.0429C24.4068 15.3727 24.3941 15.6644 24.3738 15.9197Z" fill="white"/>
<path d="M26.002 32.0788C25.9298 31.1713 25.1549 30.5969 24.2449 30.5707C23.2366 30.5417 21.6876 30.5127 19.5207 30.5127C17.3538 30.5127 15.8048 30.5417 14.7964 30.5707C13.8865 30.5969 13.1115 31.1713 13.0394 32.0788C13.0191 32.3341 13.0064 32.6258 13.0064 32.9556C13.0064 33.2854 13.0191 33.5771 13.0394 33.8324C13.1115 34.7399 13.8865 35.3143 14.7964 35.3405C15.8048 35.3695 17.3538 35.3985 19.5207 35.3985C21.6876 35.3985 23.2366 35.3695 24.2449 35.3405C25.1549 35.3143 25.9298 34.7399 26.002 33.8324C26.0223 33.5771 26.035 33.2854 26.035 32.9556C26.035 32.6258 26.0223 32.3341 26.002 32.0788Z" fill="white"/>
<path d="M36.5865 24.8761C36.5144 25.7836 35.7394 26.3579 34.8294 26.3841C33.8211 26.4131 32.2721 26.4421 30.1052 26.4421C27.9383 26.4421 20.6893 26.4131 19.681 26.3841C18.771 26.3579 17.996 25.7836 17.9239 24.8761C17.9036 24.6207 17.8909 24.329 17.8909 23.9993C17.8909 23.6695 17.9036 23.3778 17.9239 23.1224C17.996 22.2149 18.771 21.6406 19.681 21.6144C20.6893 21.5854 27.9383 21.5564 30.1052 21.5564C32.2721 21.5564 33.8211 21.5854 34.8294 21.6144C35.7394 21.6406 36.5144 22.2149 36.5865 23.1224C36.6068 23.3778 36.6195 23.6695 36.6195 23.9993C36.6195 24.329 36.6068 24.6207 36.5865 24.8761Z" fill="white"/>
</svg>
