<svg width="48" height="48" viewBox="0 0 48 48" fill="none" xmlns="http://www.w3.org/2000/svg">
<path d="M36.8192 7.33892C38.8999 7.50797 40.4921 9.10014 40.6611 11.1809C40.8747 13.8096 41.1001 18.0036 41.1001 24C41.1001 29.9965 40.8747 34.1905 40.6611 36.8192C40.4921 38.8999 38.8999 40.4921 36.8192 40.6611C34.1905 40.8747 29.9965 41.1001 24 41.1001C18.0036 41.1001 13.8096 40.8747 11.1809 40.6611C9.10015 40.4921 7.50798 38.8999 7.33892 36.8192C7.12535 34.1905 6.90005 29.9965 6.90005 24C6.90005 18.0036 7.12534 13.8096 7.33892 11.1809C7.50797 9.10015 9.10014 7.50798 11.1809 7.33892C13.8096 7.12535 18.0036 6.90005 24 6.90005C29.9965 6.90005 34.1905 7.12534 36.8192 7.33892Z" fill="#646464"/>
<path fill-rule="evenodd" clip-rule="evenodd" d="M7.33892 36.8192C7.12535 34.1905 6.90005 29.9965 6.90005 24C6.90005 18.0036 7.12534 13.8096 7.33892 11.1809C7.50797 9.10015 9.10014 7.50798 11.1809 7.33892C13.8096 7.12535 18.0036 6.90005 24 6.90005C29.9965 6.90005 34.1905 7.12534 36.8192 7.33892C38.8999 7.50797 40.4921 9.10014 40.6611 11.1809C40.8747 13.8096 41.1001 18.0036 41.1001 24C41.1001 29.9965 40.8747 34.1905 40.6611 36.8192C40.4921 38.8999 38.8999 40.4921 36.8192 40.6611C34.1905 40.8747 29.9965 41.1001 24 41.1001C18.0036 41.1001 13.8096 40.8747 11.1809 40.6611C9.10015 40.4921 7.50798 38.8999 7.33892 36.8192ZM37.05 4.49828C40.5226 4.78041 43.2197 7.4775 43.5018 10.9501C43.7221 13.6612 43.9501 17.9325 43.9501 24C43.9501 30.0676 43.7221 34.3389 43.5018 37.05C43.2197 40.5226 40.5226 43.2197 37.05 43.5018C34.3389 43.7221 30.0676 43.9501 24 43.9501C17.9325 43.9501 13.6612 43.7221 10.9501 43.5018C7.47748 43.2197 4.78042 40.5226 4.49828 37.05C4.27801 34.3389 4.05005 30.0676 4.05005 24C4.05005 17.9325 4.278 13.6612 4.49828 10.9501C4.78041 7.4775 7.4775 4.78042 10.9501 4.49828C13.6612 4.27801 17.9325 4.05005 24 4.05005C30.0676 4.05005 34.3389 4.278 37.05 4.49828Z" fill="#646464"/>
<path fill-rule="evenodd" clip-rule="evenodd" d="M24.95 11.9349C23.2426 11.9349 21.8585 13.319 21.8585 15.0264C21.8585 16.7338 23.2426 18.1179 24.95 18.1179C26.6574 18.1179 28.0415 16.7338 28.0415 15.0264C28.0415 13.319 26.6574 11.9349 24.95 11.9349ZM25.6794 20.0698C26.559 20.1209 27.1218 20.8045 27.1763 21.684C27.2254 22.477 27.2686 23.6804 27.2686 25.4603V30.1195C28.2501 30.1398 28.9823 30.1717 29.5194 30.2045C30.3649 30.2563 31.0435 30.7766 31.1059 31.6213C31.1227 31.8486 31.133 32.1121 31.133 32.4162C31.133 32.7204 31.1227 32.9838 31.1059 33.2111C31.0435 34.0559 30.3649 34.5762 29.5194 34.6279C28.6233 34.6827 27.1838 34.7349 24.95 34.7349C22.7161 34.7349 21.2767 34.6827 20.3806 34.6279C19.5351 34.5762 18.8565 34.0559 18.7941 33.2111C18.7773 32.9838 18.7669 32.7204 18.7669 32.4162C18.7669 32.1121 18.7773 31.8486 18.7941 31.6213C18.8565 30.7766 19.5351 30.2563 20.3806 30.2045C20.9176 30.1717 21.6499 30.1398 22.6313 30.1195V25.4603C22.6313 25.1885 22.6323 24.93 22.6342 24.6845C22.511 24.6864 22.3814 24.6874 22.2449 24.6874C21.7924 24.6874 21.4144 24.6762 21.1 24.6588C20.1829 24.6079 19.5703 23.9315 19.5474 23.0133C19.5426 22.8221 19.5398 22.608 19.5398 22.3688C19.5398 22.1295 19.5426 21.9154 19.5474 21.7243C19.5703 20.806 20.1829 20.1296 21.1 20.0787C21.4144 20.0613 21.7924 20.0501 22.2449 20.0501H24.95C25.2254 20.0501 25.4674 20.0575 25.6794 20.0698Z" fill="white"/>
</svg>
